G04 #@! TF.FileFunction,Copper,L2,Bot,Signal*
%FSLAX46Y46*%
G04 Gerber Fmt 4.6, Leading zero omitted, Abs format (unit mm)*
G04 Created by KiCad (PCBNEW 4.0.7) date 11/13/17 23:34:04*
%MOMM*%
%LPD*%
G01*
G04 APERTURE LIST*
%ADD10C,0.100000*%
%ADD11C,4.064000*%
%ADD12C,1.400000*%
%ADD13O,1.400000X1.400000*%
%ADD14R,1.700000X1.700000*%
%ADD15O,1.700000X1.700000*%
%ADD16R,1.850000X1.850000*%
%ADD17C,1.850000*%
%ADD18C,2.400000*%
%ADD19O,2.400000X2.400000*%
%ADD20C,0.600000*%
%ADD21C,1.500000*%
%ADD22C,0.500000*%
%ADD23C,0.350000*%
G04 APERTURE END LIST*
D10*
D11*
X165862000Y-116078000D03*
X107950000Y-116078000D03*
X108204000Y-59436000D03*
D12*
X119126000Y-84328000D03*
D13*
X121666000Y-84328000D03*
D14*
X148844000Y-91186000D03*
D15*
X146304000Y-91186000D03*
X143764000Y-91186000D03*
X141224000Y-91186000D03*
X138684000Y-91186000D03*
X136144000Y-91186000D03*
X133604000Y-91186000D03*
X131064000Y-91186000D03*
X128524000Y-91186000D03*
X125984000Y-91186000D03*
D14*
X148844000Y-76708000D03*
D15*
X146304000Y-76708000D03*
X143764000Y-76708000D03*
X141224000Y-76708000D03*
X138684000Y-76708000D03*
X136144000Y-76708000D03*
X133604000Y-76708000D03*
X131064000Y-76708000D03*
X128524000Y-76708000D03*
X125984000Y-76708000D03*
D16*
X132588000Y-111760000D03*
D17*
X130088000Y-111760000D03*
D18*
X167386000Y-101092000D03*
D19*
X106426000Y-101092000D03*
D11*
X165354000Y-59436000D03*
D20*
X122428000Y-91186000D03*
X136906000Y-110998000D03*
X120015000Y-73406000D03*
X115443000Y-81534000D03*
X152146000Y-71374000D03*
X152908000Y-83058000D03*
X115570000Y-76835000D03*
X145542000Y-73406000D03*
X128778000Y-72136000D03*
X126238000Y-109728000D03*
X144780000Y-92456000D03*
X113919000Y-72136000D03*
X113538000Y-83439000D03*
X156210000Y-59944000D03*
X123698000Y-60198000D03*
X154178000Y-58928000D03*
X121920000Y-59182000D03*
X151892000Y-57912000D03*
X119634000Y-58674000D03*
X150368000Y-57150000D03*
X117602000Y-58420000D03*
X136525000Y-70485000D03*
X150876000Y-74168000D03*
X123698000Y-79756000D03*
X150622000Y-80010000D03*
X139954000Y-92710000D03*
X145034000Y-111760000D03*
X113792000Y-67945000D03*
X137541000Y-72390000D03*
X139827000Y-78994000D03*
X120777000Y-75819000D03*
X137922000Y-74168000D03*
X127254000Y-74168000D03*
X140462000Y-70612000D03*
X138557000Y-66040000D03*
X137160000Y-66040000D03*
X133858000Y-66040000D03*
X133604000Y-69850000D03*
X132080000Y-72390000D03*
X116332000Y-68326000D03*
X128524000Y-73152000D03*
D21*
X122428000Y-96520000D02*
X122428000Y-91186000D01*
X136906000Y-110998000D02*
X122428000Y-96520000D01*
D22*
X116586000Y-76835000D02*
X115570000Y-76835000D01*
X120015000Y-73406000D02*
X116586000Y-76835000D01*
X115443000Y-81534000D02*
X115570000Y-81407000D01*
X115570000Y-81407000D02*
X115570000Y-76835000D01*
X152908000Y-83058000D02*
X152908000Y-79756000D01*
X152146000Y-78994000D02*
X152146000Y-71374000D01*
X152908000Y-79756000D02*
X152146000Y-78994000D01*
X152908000Y-83058000D02*
X152908000Y-83185000D01*
X120396000Y-85598000D02*
X119126000Y-84328000D01*
X123444000Y-85598000D02*
X120396000Y-85598000D01*
X124968000Y-84074000D02*
X123444000Y-85598000D01*
X152019000Y-84074000D02*
X124968000Y-84074000D01*
X152908000Y-83185000D02*
X152019000Y-84074000D01*
D23*
X130048000Y-73406000D02*
X145542000Y-73406000D01*
X128778000Y-72136000D02*
X130048000Y-73406000D01*
D22*
X126238000Y-113792000D02*
X126238000Y-109728000D01*
X128524000Y-116078000D02*
X126238000Y-113792000D01*
X152654000Y-116078000D02*
X128524000Y-116078000D01*
X147828000Y-106934000D02*
X152654000Y-116078000D01*
X147828000Y-94996000D02*
X147828000Y-106934000D01*
X144780000Y-92456000D02*
X147828000Y-94996000D01*
X113919000Y-83058000D02*
X113919000Y-72136000D01*
X113538000Y-83439000D02*
X113919000Y-83058000D01*
D23*
X123952000Y-59944000D02*
X156210000Y-59944000D01*
X123698000Y-60198000D02*
X123952000Y-59944000D01*
X122174000Y-58928000D02*
X154178000Y-58928000D01*
X121920000Y-59182000D02*
X122174000Y-58928000D01*
X120396000Y-57912000D02*
X151892000Y-57912000D01*
X119634000Y-58674000D02*
X120396000Y-57912000D01*
X118872000Y-57150000D02*
X150368000Y-57150000D01*
X117602000Y-58420000D02*
X118872000Y-57150000D01*
X150876000Y-74930000D02*
X150241000Y-74930000D01*
X146050000Y-72644000D02*
X138176000Y-71755000D01*
X138176000Y-71755000D02*
X136525000Y-70485000D01*
X150241000Y-74930000D02*
X146050000Y-72644000D01*
D22*
X149098000Y-80010000D02*
X150876000Y-78232000D01*
X150876000Y-78232000D02*
X150876000Y-74930000D01*
X150876000Y-74930000D02*
X150876000Y-74168000D01*
X123698000Y-79756000D02*
X123952000Y-80010000D01*
X123952000Y-80010000D02*
X149098000Y-80010000D01*
X149098000Y-80010000D02*
X150622000Y-80010000D01*
X139954000Y-106680000D02*
X139954000Y-92710000D01*
X145034000Y-111760000D02*
X139954000Y-106680000D01*
D23*
X113792000Y-67945000D02*
X114427000Y-67310000D01*
X114427000Y-67310000D02*
X132715000Y-67310000D01*
X132715000Y-67310000D02*
X136271000Y-71501000D01*
X136271000Y-71501000D02*
X137541000Y-72390000D01*
X124968000Y-78994000D02*
X139827000Y-78994000D01*
X120777000Y-75819000D02*
X123063000Y-77597000D01*
X123063000Y-77597000D02*
X124968000Y-78994000D01*
X127254000Y-74168000D02*
X137922000Y-74168000D01*
D22*
X140462000Y-67945000D02*
X140462000Y-70612000D01*
X138557000Y-66040000D02*
X140462000Y-67945000D01*
X133858000Y-66040000D02*
X137160000Y-66040000D01*
D23*
X133604000Y-69850000D02*
X134112000Y-70358000D01*
D22*
X132080000Y-72390000D02*
X134112000Y-70358000D01*
D23*
X123444000Y-68326000D02*
X116332000Y-68326000D01*
X128524000Y-73152000D02*
X123444000Y-68326000D01*
M02*
