M48
;DRILL file {KiCad 4.0.7} date 11/13/17 23:18:12
;FORMAT={3:3/ absolute / metric / suppress leading zeros}
FMAT,2
METRIC,TZ
T1C0.400
T2C0.700
T3C0.900
T4C1.000
T5C1.200
T6C3.048
%
G90
G05
M71
T1
X113284Y-76454
X113284Y-83820
X113792Y-67945
X113792Y-71120
X114554Y-81026
X116332Y-68326
X117602Y-58420
X119634Y-58674
X120015Y-73533
X120777Y-75819
X121920Y-59182
X122428Y-91186
X123698Y-60198
X123698Y-79756
X126238Y-109728
X127254Y-74168
X128524Y-73152
X128778Y-72136
X132080Y-72390
X133604Y-69850
X133858Y-66040
X136906Y-70104
X136906Y-110998
X137160Y-66040
X137922Y-74168
X138684Y-71628
X139827Y-78994
X139954Y-92710
X144780Y-92456
X145034Y-111760
X145542Y-73406
X150368Y-57150
X150622Y-80010
X150876Y-74168
X151892Y-57912
X152146Y-72136
X152654Y-84328
X154178Y-58928
X156210Y-59944
T2
X119126Y-84328
X121666Y-84328
T3
X130088Y-111760
X132588Y-111760
T4
X125984Y-76708
X125984Y-91186
X128524Y-76708
X128524Y-91186
X131064Y-76708
X131064Y-91186
X133604Y-76708
X133604Y-91186
X136144Y-76708
X136144Y-91186
X138684Y-76708
X138684Y-91186
X141224Y-76708
X141224Y-91186
X143764Y-76708
X143764Y-91186
X146304Y-76708
X146304Y-91186
X148844Y-76708
X148844Y-91186
T5
X106426Y-101092
X167386Y-101092
T6
X107950Y-116078
X108204Y-59436
X165354Y-59436
X165862Y-116078
T0
M30
