G04 #@! TF.FileFunction,Copper,L1,Top,Signal*
%FSLAX46Y46*%
G04 Gerber Fmt 4.6, Leading zero omitted, Abs format (unit mm)*
G04 Created by KiCad (PCBNEW 4.0.7) date 11/13/17 23:34:04*
%MOMM*%
%LPD*%
G01*
G04 APERTURE LIST*
%ADD10C,0.100000*%
%ADD11C,4.064000*%
%ADD12R,2.500000X2.000000*%
%ADD13R,2.000000X2.500000*%
%ADD14R,1.000000X3.500000*%
%ADD15R,1.500000X3.400000*%
%ADD16R,2.000000X1.700000*%
%ADD17R,1.700000X2.000000*%
%ADD18R,2.000000X3.800000*%
%ADD19R,2.000000X1.500000*%
%ADD20R,1.550000X0.600000*%
%ADD21R,0.400000X0.600000*%
%ADD22R,0.900000X0.800000*%
%ADD23R,0.508000X1.143000*%
%ADD24C,1.400000*%
%ADD25O,1.400000X1.400000*%
%ADD26R,1.700000X1.700000*%
%ADD27O,1.700000X1.700000*%
%ADD28R,1.850000X1.850000*%
%ADD29C,1.850000*%
%ADD30C,2.400000*%
%ADD31O,2.400000X2.400000*%
%ADD32R,1.800000X2.500000*%
%ADD33C,0.600000*%
%ADD34C,1.500000*%
%ADD35C,0.350000*%
%ADD36C,2.000000*%
%ADD37C,0.500000*%
G04 APERTURE END LIST*
D10*
D11*
X165862000Y-116078000D03*
X107950000Y-116078000D03*
X108204000Y-59436000D03*
D12*
X166116000Y-83280000D03*
X166116000Y-79280000D03*
D13*
X107220000Y-76708000D03*
X111220000Y-76708000D03*
X111220000Y-83820000D03*
X107220000Y-83820000D03*
X111220000Y-72898000D03*
X107220000Y-72898000D03*
X140176000Y-68072000D03*
X136176000Y-68072000D03*
D14*
X123650000Y-64089000D03*
X121650000Y-64089000D03*
X119650000Y-64089000D03*
X117650000Y-64089000D03*
D15*
X126000000Y-58339000D03*
X115300000Y-58339000D03*
D16*
X163354000Y-91694000D03*
X167354000Y-91694000D03*
X118396000Y-81534000D03*
X122396000Y-81534000D03*
X111220000Y-80264000D03*
X107220000Y-80264000D03*
X111220000Y-69596000D03*
X107220000Y-69596000D03*
X107220000Y-66802000D03*
X111220000Y-66802000D03*
X111220000Y-64008000D03*
X107220000Y-64008000D03*
X127794000Y-69850000D03*
X131794000Y-69850000D03*
D17*
X142240000Y-112554000D03*
X142240000Y-116554000D03*
D16*
X145066000Y-69850000D03*
X149066000Y-69850000D03*
D18*
X161646000Y-81026000D03*
D19*
X155346000Y-81026000D03*
X155346000Y-83326000D03*
X155346000Y-78726000D03*
D20*
X116426000Y-69723000D03*
X116426000Y-70993000D03*
X116426000Y-72263000D03*
X116426000Y-73533000D03*
X121826000Y-73533000D03*
X121826000Y-72263000D03*
X121826000Y-70993000D03*
X121826000Y-69723000D03*
D21*
X107500000Y-111506000D03*
X108400000Y-111506000D03*
D22*
X147082000Y-112842000D03*
X147082000Y-114742000D03*
X149082000Y-113792000D03*
D16*
X154464000Y-70358000D03*
X158464000Y-70358000D03*
D23*
X139827000Y-64643000D03*
X138557000Y-64643000D03*
X137287000Y-64643000D03*
X136017000Y-64643000D03*
X136017000Y-58293000D03*
X137287000Y-58293000D03*
X138557000Y-58293000D03*
X139827000Y-58293000D03*
D14*
X156670000Y-64089000D03*
X154670000Y-64089000D03*
X152670000Y-64089000D03*
X150670000Y-64089000D03*
D15*
X159020000Y-58339000D03*
X148320000Y-58339000D03*
D16*
X158464000Y-73152000D03*
X154464000Y-73152000D03*
X162338000Y-70358000D03*
X166338000Y-70358000D03*
D24*
X119126000Y-84328000D03*
D25*
X121666000Y-84328000D03*
D26*
X148844000Y-91186000D03*
D27*
X146304000Y-91186000D03*
X143764000Y-91186000D03*
X141224000Y-91186000D03*
X138684000Y-91186000D03*
X136144000Y-91186000D03*
X133604000Y-91186000D03*
X131064000Y-91186000D03*
X128524000Y-91186000D03*
X125984000Y-91186000D03*
D26*
X148844000Y-76708000D03*
D27*
X146304000Y-76708000D03*
X143764000Y-76708000D03*
X141224000Y-76708000D03*
X138684000Y-76708000D03*
X136144000Y-76708000D03*
X133604000Y-76708000D03*
X131064000Y-76708000D03*
X128524000Y-76708000D03*
X125984000Y-76708000D03*
D16*
X167354000Y-88646000D03*
X163354000Y-88646000D03*
X166338000Y-66040000D03*
X162338000Y-66040000D03*
X166338000Y-75184000D03*
X162338000Y-75184000D03*
D28*
X132588000Y-111760000D03*
D29*
X130088000Y-111760000D03*
D30*
X167386000Y-101092000D03*
D31*
X106426000Y-101092000D03*
D32*
X124460000Y-115792000D03*
X124460000Y-111792000D03*
D11*
X165354000Y-59436000D03*
D33*
X122428000Y-91186000D03*
X136906000Y-110998000D03*
X120015000Y-73406000D03*
X115443000Y-81534000D03*
X152146000Y-71374000D03*
X152908000Y-83058000D03*
X115570000Y-76835000D03*
X145542000Y-73406000D03*
X128778000Y-72136000D03*
X126238000Y-109728000D03*
X144780000Y-92456000D03*
X113919000Y-72136000D03*
X113538000Y-83439000D03*
X156210000Y-59944000D03*
X123698000Y-60198000D03*
X154178000Y-58928000D03*
X121920000Y-59182000D03*
X151892000Y-57912000D03*
X119634000Y-58674000D03*
X150368000Y-57150000D03*
X117602000Y-58420000D03*
X136525000Y-70485000D03*
X150876000Y-74168000D03*
X123698000Y-79756000D03*
X150622000Y-80010000D03*
X139954000Y-92710000D03*
X145034000Y-111760000D03*
X113792000Y-67945000D03*
X137541000Y-72390000D03*
X139827000Y-78994000D03*
X120777000Y-75819000D03*
X137922000Y-74168000D03*
X127254000Y-74168000D03*
X140462000Y-70612000D03*
X138557000Y-66040000D03*
X137160000Y-66040000D03*
X133858000Y-66040000D03*
X133604000Y-69850000D03*
X132080000Y-72390000D03*
X116332000Y-68326000D03*
X128524000Y-73152000D03*
D34*
X132588000Y-111760000D02*
X136144000Y-111760000D01*
X122428000Y-91186000D02*
X125984000Y-91186000D01*
X136144000Y-111760000D02*
X136906000Y-110998000D01*
D35*
X147082000Y-114742000D02*
X147082000Y-115554000D01*
D36*
X146082000Y-116554000D02*
X142240000Y-116554000D01*
X147082000Y-115554000D02*
X146082000Y-116554000D01*
X132588000Y-111760000D02*
X133096000Y-111760000D01*
X137890000Y-116554000D02*
X142240000Y-116554000D01*
X133096000Y-111760000D02*
X137890000Y-116554000D01*
D35*
X147082000Y-114742000D02*
X146878000Y-114742000D01*
D34*
X106426000Y-90170000D02*
X106426000Y-101092000D01*
X108966000Y-87630000D02*
X106426000Y-90170000D01*
X147320000Y-87630000D02*
X108966000Y-87630000D01*
D37*
X163354000Y-88646000D02*
X163322000Y-88646000D01*
X163322000Y-88646000D02*
X162052000Y-87376000D01*
X162052000Y-87376000D02*
X150876000Y-87376000D01*
X107500000Y-111506000D02*
X107442000Y-111506000D01*
X107442000Y-111506000D02*
X106426000Y-110490000D01*
D36*
X106426000Y-110490000D02*
X106426000Y-101092000D01*
D34*
X148844000Y-91186000D02*
X148844000Y-89154000D01*
X148844000Y-89154000D02*
X147320000Y-87630000D01*
D37*
X148844000Y-89408000D02*
X148844000Y-91186000D01*
X150876000Y-87376000D02*
X148844000Y-89408000D01*
X121826000Y-69723000D02*
X120396000Y-69723000D01*
X120015000Y-70104000D02*
X120015000Y-73406000D01*
X120396000Y-69723000D02*
X120015000Y-70104000D01*
X118396000Y-81534000D02*
X115443000Y-81534000D01*
X153162000Y-70358000D02*
X154464000Y-70358000D01*
X152146000Y-71374000D02*
X153162000Y-70358000D01*
X149066000Y-69850000D02*
X153956000Y-69850000D01*
D35*
X153956000Y-69850000D02*
X154464000Y-70358000D01*
X149066000Y-69850000D02*
X149066000Y-68548000D01*
X148844000Y-68326000D02*
X140430000Y-68326000D01*
X149066000Y-68548000D02*
X148844000Y-68326000D01*
X140430000Y-68326000D02*
X140176000Y-68072000D01*
X127794000Y-69850000D02*
X127794000Y-69310000D01*
X127794000Y-69310000D02*
X136144000Y-60960000D01*
X139827000Y-61849000D02*
X139827000Y-64643000D01*
X138938000Y-60960000D02*
X139827000Y-61849000D01*
X136144000Y-60960000D02*
X138938000Y-60960000D01*
X140938000Y-68834000D02*
X140176000Y-68072000D01*
D37*
X111220000Y-72898000D02*
X111220000Y-76708000D01*
D35*
X140176000Y-68072000D02*
X140176000Y-64992000D01*
X140176000Y-64992000D02*
X139827000Y-64643000D01*
X140430000Y-68326000D02*
X140176000Y-68072000D01*
D37*
X121826000Y-69723000D02*
X127667000Y-69723000D01*
D35*
X127667000Y-69723000D02*
X127794000Y-69850000D01*
X127794000Y-69850000D02*
X127794000Y-69564000D01*
X127286000Y-70358000D02*
X127794000Y-69850000D01*
X154210000Y-70104000D02*
X154464000Y-70358000D01*
X141097000Y-68993000D02*
X140176000Y-68072000D01*
X111220000Y-72898000D02*
X111220000Y-73628000D01*
D34*
X155346000Y-83326000D02*
X153656000Y-83326000D01*
X153656000Y-83326000D02*
X152908000Y-83058000D01*
D37*
X153924000Y-70358000D02*
X154464000Y-70358000D01*
D35*
X127032000Y-70612000D02*
X127794000Y-69850000D01*
X115570000Y-76835000D02*
X112776000Y-76708000D01*
X112776000Y-76708000D02*
X111220000Y-76708000D01*
X111220000Y-72898000D02*
X112014000Y-72898000D01*
X112014000Y-72898000D02*
X111920000Y-72992000D01*
X155346000Y-83326000D02*
X155346000Y-83464000D01*
X119126000Y-84328000D02*
X119126000Y-84296000D01*
D37*
X119126000Y-84296000D02*
X118396000Y-81534000D01*
D36*
X124460000Y-115792000D02*
X113570000Y-115792000D01*
D37*
X109098000Y-112204000D02*
X108400000Y-111506000D01*
D34*
X109982000Y-112204000D02*
X109098000Y-112204000D01*
D36*
X113570000Y-115792000D02*
X109982000Y-112204000D01*
D34*
X167354000Y-88646000D02*
X167354000Y-91694000D01*
D35*
X167354000Y-91694000D02*
X167354000Y-91218000D01*
X121826000Y-72263000D02*
X128651000Y-72263000D01*
D37*
X146304000Y-74168000D02*
X146304000Y-76708000D01*
D35*
X145542000Y-73406000D02*
X146304000Y-74168000D01*
X128651000Y-72263000D02*
X128778000Y-72136000D01*
X146304000Y-76708000D02*
X146304000Y-75692000D01*
D37*
X146812000Y-75184000D02*
X162338000Y-75184000D01*
D35*
X146304000Y-75692000D02*
X146812000Y-75184000D01*
X162338000Y-75184000D02*
X162338000Y-75216000D01*
X162338000Y-75216000D02*
X163576000Y-76708000D01*
X163576000Y-76708000D02*
X167894000Y-76708000D01*
X167894000Y-76708000D02*
X168148000Y-76200000D01*
X168148000Y-76200000D02*
X168148000Y-67564000D01*
X168148000Y-67564000D02*
X166338000Y-66040000D01*
X158464000Y-73152000D02*
X166338000Y-73152000D01*
X166338000Y-73152000D02*
X165862000Y-73152000D01*
X165862000Y-73152000D02*
X166338000Y-73152000D01*
D34*
X166338000Y-70358000D02*
X166338000Y-73152000D01*
X166338000Y-73152000D02*
X166338000Y-75184000D01*
D37*
X143764000Y-91186000D02*
X143764000Y-91440000D01*
D34*
X143764000Y-91440000D02*
X144780000Y-92456000D01*
D37*
X126238000Y-109728000D02*
X124460000Y-111506000D01*
X124460000Y-111506000D02*
X124460000Y-111792000D01*
D36*
X124460000Y-111792000D02*
X130056000Y-111792000D01*
D35*
X130056000Y-111792000D02*
X130088000Y-111760000D01*
D37*
X167386000Y-101092000D02*
X167386000Y-94996000D01*
X165640000Y-93980000D02*
X163354000Y-91694000D01*
X166370000Y-93980000D02*
X165640000Y-93980000D01*
X167386000Y-94996000D02*
X166370000Y-93980000D01*
D35*
X164084000Y-92424000D02*
X163354000Y-91694000D01*
D36*
X149082000Y-113792000D02*
X153035000Y-110363000D01*
X153035000Y-110363000D02*
X167513000Y-110363000D01*
X167513000Y-110363000D02*
X167386000Y-101092000D01*
X167354000Y-101060000D02*
X167386000Y-101092000D01*
D35*
X149082000Y-113792000D02*
X149098000Y-113792000D01*
D37*
X111220000Y-83820000D02*
X113157000Y-83820000D01*
X113919000Y-72136000D02*
X115062000Y-70993000D01*
X113157000Y-83820000D02*
X113538000Y-83439000D01*
X115062000Y-70993000D02*
X116426000Y-70993000D01*
X111220000Y-66802000D02*
X114046000Y-66802000D01*
X115062000Y-67818000D02*
X115062000Y-70993000D01*
X114046000Y-66802000D02*
X115062000Y-67818000D01*
D35*
X111220000Y-66802000D02*
X110998000Y-66802000D01*
D37*
X115062000Y-70993000D02*
X116426000Y-70993000D01*
X111220000Y-66802000D02*
X111220000Y-64008000D01*
D35*
X158464000Y-70358000D02*
X162338000Y-70358000D01*
D34*
X162338000Y-70358000D02*
X162338000Y-66040000D01*
D35*
X156670000Y-64089000D02*
X156670000Y-66088000D01*
X145415000Y-58293000D02*
X139827000Y-58293000D01*
X145796000Y-58674000D02*
X145415000Y-58293000D01*
X145796000Y-66802000D02*
X145796000Y-58674000D01*
X146650002Y-67656002D02*
X145796000Y-66802000D01*
X155101998Y-67656002D02*
X146650002Y-67656002D01*
X156670000Y-66088000D02*
X155101998Y-67656002D01*
X123650000Y-64089000D02*
X123650000Y-60246000D01*
X156670000Y-60404000D02*
X156670000Y-64089000D01*
X156210000Y-59944000D02*
X156670000Y-60404000D01*
X123650000Y-60246000D02*
X123698000Y-60198000D01*
X138557000Y-58293000D02*
X138557000Y-57023000D01*
X154670000Y-66818000D02*
X154670000Y-64089000D01*
X154432000Y-67056000D02*
X154670000Y-66818000D01*
X147066000Y-67056000D02*
X154432000Y-67056000D01*
X146558000Y-66548000D02*
X147066000Y-67056000D01*
X146558000Y-57658000D02*
X146558000Y-66548000D01*
X145542000Y-56642000D02*
X146558000Y-57658000D01*
X138938000Y-56642000D02*
X145542000Y-56642000D01*
X138557000Y-57023000D02*
X138938000Y-56642000D01*
X121650000Y-64089000D02*
X121650000Y-59452000D01*
X154670000Y-59420000D02*
X154670000Y-64089000D01*
X154178000Y-58928000D02*
X154670000Y-59420000D01*
X121650000Y-59452000D02*
X121920000Y-59182000D01*
X119650000Y-64089000D02*
X119650000Y-65802000D01*
X119650000Y-65802000D02*
X120650000Y-66802000D01*
X137287000Y-57023000D02*
X137287000Y-58293000D01*
X136906000Y-56642000D02*
X137287000Y-57023000D01*
X133604000Y-56642000D02*
X136906000Y-56642000D01*
X133604000Y-60452000D02*
X133604000Y-56642000D01*
X127254000Y-66802000D02*
X133604000Y-60452000D01*
X120650000Y-66802000D02*
X127254000Y-66802000D01*
X119650000Y-64089000D02*
X119650000Y-58690000D01*
X152670000Y-58690000D02*
X152670000Y-64089000D01*
X151892000Y-57912000D02*
X152670000Y-58690000D01*
X119650000Y-58690000D02*
X119634000Y-58674000D01*
X117650000Y-64089000D02*
X117650000Y-66088000D01*
X134874000Y-59436000D02*
X136017000Y-58293000D01*
X134874000Y-60198000D02*
X134874000Y-59436000D01*
X127508000Y-67564000D02*
X134874000Y-60198000D01*
X119126000Y-67564000D02*
X127508000Y-67564000D01*
X117650000Y-66088000D02*
X119126000Y-67564000D01*
X117650000Y-64089000D02*
X117650000Y-58468000D01*
X150670000Y-57452000D02*
X150670000Y-64089000D01*
X150368000Y-57150000D02*
X150670000Y-57452000D01*
X117650000Y-58468000D02*
X117602000Y-58420000D01*
D37*
X107220000Y-69596000D02*
X107220000Y-66802000D01*
D35*
X107220000Y-64008000D02*
X105791000Y-64008000D01*
X105537000Y-71215000D02*
X107220000Y-72898000D01*
X105537000Y-64262000D02*
X105537000Y-71215000D01*
X105791000Y-64008000D02*
X105537000Y-64262000D01*
D37*
X107220000Y-76708000D02*
X107220000Y-72898000D01*
X107220000Y-83820000D02*
X107220000Y-80264000D01*
D35*
X136176000Y-69374000D02*
X136176000Y-68072000D01*
X136525000Y-70485000D02*
X136176000Y-69374000D01*
D37*
X150876000Y-73152000D02*
X154464000Y-73152000D01*
X150876000Y-74168000D02*
X150876000Y-73152000D01*
X116426000Y-73533000D02*
X116426000Y-74516000D01*
X124206000Y-74930000D02*
X125984000Y-76708000D01*
X116840000Y-74930000D02*
X124206000Y-74930000D01*
D35*
X116426000Y-74516000D02*
X116840000Y-74930000D01*
D37*
X107220000Y-78740000D02*
X123698000Y-78740000D01*
D35*
X136017000Y-64643000D02*
X136017000Y-67913000D01*
X136017000Y-67913000D02*
X136176000Y-68072000D01*
D37*
X125984000Y-76708000D02*
X125476000Y-76708000D01*
X125476000Y-76708000D02*
X123698000Y-78486000D01*
X123698000Y-78486000D02*
X123698000Y-78740000D01*
X151638000Y-81026000D02*
X155346000Y-81026000D01*
X123698000Y-78740000D02*
X123698000Y-79756000D01*
X150622000Y-80010000D02*
X151638000Y-81026000D01*
D35*
X107220000Y-64008000D02*
X106426000Y-64008000D01*
D37*
X107220000Y-80264000D02*
X107220000Y-78740000D01*
X107220000Y-78740000D02*
X107220000Y-76708000D01*
D35*
X161646000Y-81026000D02*
X161646000Y-81890000D01*
D34*
X161646000Y-81890000D02*
X162020000Y-80994000D01*
X162020000Y-80994000D02*
X166116000Y-83280000D01*
X155346000Y-81026000D02*
X161646000Y-81026000D01*
D37*
X155346000Y-78726000D02*
X155346000Y-78080000D01*
X155346000Y-78080000D02*
X156464000Y-76962000D01*
X162560000Y-76962000D02*
X164878000Y-79280000D01*
X156464000Y-76962000D02*
X162560000Y-76962000D01*
X164878000Y-79280000D02*
X166116000Y-79280000D01*
D34*
X148844000Y-76708000D02*
X155332000Y-78740000D01*
D35*
X155332000Y-78740000D02*
X155346000Y-78726000D01*
D37*
X142240000Y-112554000D02*
X144240000Y-112554000D01*
D34*
X139954000Y-92710000D02*
X141224000Y-91440000D01*
X144240000Y-112554000D02*
X145034000Y-111760000D01*
D37*
X141224000Y-91440000D02*
X141224000Y-91186000D01*
D34*
X142240000Y-112554000D02*
X146794000Y-112554000D01*
D35*
X146794000Y-112554000D02*
X147082000Y-112842000D01*
D34*
X136144000Y-91186000D02*
X138684000Y-91186000D01*
X131064000Y-91186000D02*
X133604000Y-91186000D01*
D35*
X111220000Y-69596000D02*
X112141000Y-69596000D01*
D37*
X112141000Y-69596000D02*
X113792000Y-67945000D01*
D35*
X137541000Y-72390000D02*
X142113000Y-72644000D01*
X142113000Y-72644000D02*
X143002000Y-72898000D01*
X143002000Y-72898000D02*
X143764000Y-73279000D01*
D37*
X143764000Y-73279000D02*
X143764000Y-76708000D01*
D35*
X143732000Y-76676000D02*
X143764000Y-76708000D01*
X116426000Y-72263000D02*
X114935000Y-72263000D01*
X141224000Y-77597000D02*
X141224000Y-76708000D01*
D37*
X139827000Y-78994000D02*
X141224000Y-77597000D01*
D35*
X115697000Y-75692000D02*
X120777000Y-75819000D01*
X114786850Y-74695313D02*
X115697000Y-75692000D01*
X114808000Y-72390000D02*
X114786850Y-74695313D01*
X114935000Y-72263000D02*
X114808000Y-72390000D01*
X121826000Y-73533000D02*
X126619000Y-73533000D01*
D37*
X138684000Y-75184000D02*
X138684000Y-76708000D01*
X137922000Y-74168000D02*
X138684000Y-75184000D01*
D35*
X126619000Y-73533000D02*
X127254000Y-74168000D01*
X138557000Y-64643000D02*
X138557000Y-66040000D01*
X141224000Y-69850000D02*
X145066000Y-69850000D01*
D37*
X140462000Y-70612000D02*
X141224000Y-69850000D01*
X145066000Y-69850000D02*
X138811000Y-69850000D01*
X136144000Y-72517000D02*
X136144000Y-76708000D01*
X138811000Y-69850000D02*
X136144000Y-72517000D01*
D35*
X121826000Y-70993000D02*
X123063000Y-70993000D01*
D37*
X133604000Y-72136000D02*
X133604000Y-76708000D01*
X132842000Y-71374000D02*
X133604000Y-72136000D01*
D35*
X123444000Y-71374000D02*
X132842000Y-71374000D01*
X123063000Y-70993000D02*
X123444000Y-71374000D01*
D37*
X131794000Y-69850000D02*
X131794000Y-68104000D01*
D35*
X137287000Y-65913000D02*
X137287000Y-64643000D01*
X137160000Y-66040000D02*
X137287000Y-65913000D01*
D37*
X131794000Y-68104000D02*
X133858000Y-66040000D01*
D35*
X131794000Y-69850000D02*
X133604000Y-69850000D01*
X131794000Y-69850000D02*
X131826000Y-69850000D01*
D37*
X131064000Y-76708000D02*
X131064000Y-73406000D01*
X131064000Y-73406000D02*
X132080000Y-72390000D01*
X122396000Y-81534000D02*
X122396000Y-79978000D01*
X122364000Y-80010000D02*
X111474000Y-80010000D01*
X122396000Y-79978000D02*
X122364000Y-80010000D01*
X111474000Y-80010000D02*
X111220000Y-80264000D01*
X121666000Y-84328000D02*
X121666000Y-83566000D01*
X122396000Y-82836000D02*
X122396000Y-81534000D01*
X121666000Y-83566000D02*
X122396000Y-82836000D01*
X128524000Y-76708000D02*
X128524000Y-73152000D01*
D35*
X116426000Y-68420000D02*
X116426000Y-69723000D01*
X116332000Y-68326000D02*
X116426000Y-68420000D01*
D37*
X121666000Y-84328000D02*
X123444000Y-84328000D01*
X128524000Y-79248000D02*
X128524000Y-76708000D01*
X123444000Y-84328000D02*
X128524000Y-79248000D01*
M02*
