G04 #@! TF.FileFunction,Copper,L1,Top,Signal*
%FSLAX46Y46*%
G04 Gerber Fmt 4.6, Leading zero omitted, Abs format (unit mm)*
G04 Created by KiCad (PCBNEW 4.0.7) date 03/15/18 17:26:36*
%MOMM*%
%LPD*%
G01*
G04 APERTURE LIST*
%ADD10C,0.100000*%
%ADD11R,1.520000X1.200000*%
%ADD12C,4.064000*%
%ADD13R,1.200000X1.700000*%
%ADD14O,1.200000X1.700000*%
%ADD15R,1.700000X1.700000*%
%ADD16O,1.700000X1.700000*%
%ADD17R,1.700000X2.000000*%
%ADD18R,2.000000X1.700000*%
%ADD19R,0.800000X0.900000*%
%ADD20C,1.400000*%
%ADD21O,1.400000X1.400000*%
%ADD22C,2.400000*%
%ADD23O,2.400000X2.400000*%
%ADD24R,3.500000X3.500000*%
%ADD25C,1.143000*%
%ADD26R,1.600000X2.000000*%
%ADD27R,2.000000X1.600000*%
%ADD28R,1.560000X0.650000*%
%ADD29R,0.700000X1.500000*%
%ADD30R,2.130000X0.600000*%
%ADD31C,0.600000*%
%ADD32C,1.000000*%
%ADD33C,0.500000*%
%ADD34C,0.350000*%
%ADD35C,2.000000*%
%ADD36C,1.500000*%
%ADD37C,0.254000*%
G04 APERTURE END LIST*
D10*
D11*
X133985000Y-112165400D03*
X133985000Y-116485400D03*
D12*
X174269400Y-123393200D03*
D13*
X173101000Y-67335400D03*
D14*
X171101000Y-67335400D03*
X169101000Y-67335400D03*
X167101000Y-67335400D03*
D13*
X161823400Y-67335400D03*
D14*
X159823400Y-67335400D03*
X157823400Y-67335400D03*
X155823400Y-67335400D03*
D15*
X169265600Y-81534000D03*
D16*
X169265600Y-78994000D03*
X171805600Y-81534000D03*
X171805600Y-78994000D03*
X174345600Y-81534000D03*
X174345600Y-78994000D03*
D12*
X174244000Y-72313800D03*
X133959600Y-123444000D03*
D17*
X133934200Y-80372200D03*
X133934200Y-84372200D03*
D18*
X155327600Y-85953600D03*
X159327600Y-85953600D03*
X157105600Y-91389200D03*
X161105600Y-91389200D03*
X160102800Y-103225600D03*
X164102800Y-103225600D03*
X164192200Y-105613200D03*
X168192200Y-105613200D03*
X168205400Y-103225600D03*
X172205400Y-103225600D03*
X155378400Y-79908400D03*
X159378400Y-79908400D03*
X154210000Y-106095800D03*
X158210000Y-106095800D03*
X159378400Y-83058000D03*
X155378400Y-83058000D03*
D19*
X154015400Y-103514400D03*
X155915400Y-103514400D03*
X154965400Y-101514400D03*
D18*
X171380400Y-88646000D03*
X175380400Y-88646000D03*
D20*
X154457400Y-91401900D03*
D21*
X154457400Y-93941900D03*
D17*
X133934200Y-87204800D03*
X133934200Y-91204800D03*
D18*
X167265600Y-86156800D03*
X171265600Y-86156800D03*
D22*
X144551400Y-62509400D03*
D23*
X144551400Y-123469400D03*
D24*
X133985000Y-101502000D03*
X133985000Y-108302000D03*
D25*
X159664400Y-99060000D03*
D26*
X170459400Y-113214400D03*
X170459400Y-117214400D03*
D27*
X161068000Y-109143800D03*
X165068000Y-109143800D03*
X159429200Y-96570800D03*
X155429200Y-96570800D03*
D26*
X156616400Y-75812400D03*
X156616400Y-71812400D03*
D27*
X171329600Y-91236800D03*
X175329600Y-91236800D03*
D26*
X168021000Y-111055400D03*
X168021000Y-115055400D03*
D13*
X160680400Y-119100600D03*
D14*
X162680400Y-119100600D03*
D28*
X162861000Y-112257800D03*
X162861000Y-113207800D03*
X162861000Y-114157800D03*
X165561000Y-114157800D03*
X165561000Y-112257800D03*
X165561000Y-113207800D03*
D29*
X163347400Y-76479400D03*
X162077400Y-76479400D03*
X160807400Y-76479400D03*
X159537400Y-76479400D03*
X159537400Y-71399400D03*
X160807400Y-71399400D03*
X162077400Y-71399400D03*
X163347400Y-71399400D03*
D30*
X163124000Y-93243400D03*
X163124000Y-94513400D03*
X163124000Y-95783400D03*
X163124000Y-97053400D03*
X170124000Y-97053400D03*
X170124000Y-95783400D03*
X170124000Y-94513400D03*
X170124000Y-93243400D03*
D12*
X133934200Y-63042800D03*
D31*
X158318200Y-77876400D03*
X154381200Y-72237600D03*
X153619200Y-96139000D03*
X156718000Y-87934800D03*
X159842200Y-87960200D03*
X171246800Y-91186000D03*
X158648400Y-101193600D03*
X158927800Y-111709200D03*
X136093200Y-80543400D03*
X153822400Y-99720400D03*
X135788400Y-98120200D03*
X172389800Y-113182400D03*
X163347400Y-115951000D03*
X175361600Y-86969600D03*
X172770800Y-94792800D03*
X161975800Y-80416400D03*
X174091600Y-84683600D03*
X172974000Y-93065600D03*
X170967400Y-76504800D03*
X167360600Y-76581000D03*
X162661600Y-83058000D03*
X165912800Y-96570800D03*
X167589200Y-83820000D03*
X174955200Y-83718400D03*
X161163000Y-96520000D03*
X154025600Y-104546400D03*
D32*
X155915400Y-103514400D02*
X156625800Y-103514400D01*
D33*
X158210000Y-105098600D02*
X158210000Y-106095800D01*
D32*
X156625800Y-103514400D02*
X158210000Y-105098600D01*
D33*
X170967400Y-109143800D02*
X170967400Y-107442000D01*
X172205400Y-106204000D02*
X172205400Y-103225600D01*
X170967400Y-107442000D02*
X172205400Y-106204000D01*
X175329600Y-91236800D02*
X175329600Y-100101400D01*
X175329600Y-100101400D02*
X172205400Y-103225600D01*
D34*
X163124000Y-97053400D02*
X164109400Y-97053400D01*
D33*
X164109400Y-97053400D02*
X168427400Y-101371400D01*
X168427400Y-101371400D02*
X171729400Y-101371400D01*
X171729400Y-101371400D02*
X172205400Y-101847400D01*
X172205400Y-101847400D02*
X172205400Y-103225600D01*
D34*
X155429200Y-96570800D02*
X155429200Y-95776800D01*
X155429200Y-95776800D02*
X156311600Y-94894400D01*
X159505400Y-92989400D02*
X161105600Y-91389200D01*
X156616400Y-92989400D02*
X159505400Y-92989400D01*
X156311600Y-93294200D02*
X156616400Y-92989400D01*
X156311600Y-94894400D02*
X156311600Y-93294200D01*
D32*
X170459400Y-117214400D02*
X164566600Y-117214400D01*
X164566600Y-117214400D02*
X162680400Y-119100600D01*
X165068000Y-109143800D02*
X165068000Y-107575600D01*
X159403800Y-107492800D02*
X158210000Y-106095800D01*
X164985200Y-107492800D02*
X159403800Y-107492800D01*
X165068000Y-107575600D02*
X164985200Y-107492800D01*
X165068000Y-109143800D02*
X170967400Y-109143800D01*
X170967400Y-109143800D02*
X173202600Y-109143800D01*
X173202600Y-109143800D02*
X173837600Y-109778800D01*
D33*
X162861000Y-113207800D02*
X160705800Y-113207800D01*
X160705800Y-113207800D02*
X160731200Y-113233200D01*
D32*
X160731200Y-113233200D02*
X160731200Y-115011200D01*
X160731200Y-115011200D02*
X162680400Y-116960400D01*
X162680400Y-116960400D02*
X162680400Y-119100600D01*
X173837600Y-110591600D02*
X173837600Y-109778800D01*
X172701200Y-117214400D02*
X170459400Y-117214400D01*
X173837600Y-116078000D02*
X172701200Y-117214400D01*
X173837600Y-110591600D02*
X173837600Y-116078000D01*
D33*
X170135800Y-116890800D02*
X170459400Y-117214400D01*
X155429200Y-96570800D02*
X155429200Y-98253800D01*
X155429200Y-98253800D02*
X157581600Y-100406200D01*
X157581600Y-100406200D02*
X157581600Y-103514400D01*
D34*
X158318200Y-77876400D02*
X159537400Y-76657200D01*
D33*
X159537400Y-76657200D02*
X159537400Y-76479400D01*
X155429200Y-96570800D02*
X154051000Y-96570800D01*
D34*
X154806400Y-71812400D02*
X156616400Y-71812400D01*
X154381200Y-72237600D02*
X154806400Y-71812400D01*
D33*
X154051000Y-96570800D02*
X153619200Y-96139000D01*
D34*
X156616400Y-71812400D02*
X156616400Y-71602600D01*
X156616400Y-71812400D02*
X156616400Y-71551800D01*
X172392600Y-103038400D02*
X172205400Y-103225600D01*
X156616400Y-71812400D02*
X156616400Y-71704200D01*
X159537400Y-75819000D02*
X159537400Y-76479400D01*
X174345600Y-78511400D02*
X174345600Y-78994000D01*
D33*
X155429200Y-96570800D02*
X155429200Y-97364800D01*
X172392600Y-103038400D02*
X172205400Y-103225600D01*
X174345600Y-78994000D02*
X175971200Y-78994000D01*
X175971200Y-78994000D02*
X176326800Y-79349600D01*
X176326800Y-79349600D02*
X176326800Y-87699600D01*
X176326800Y-87699600D02*
X175380400Y-88646000D01*
D34*
X174345600Y-78994000D02*
X174904400Y-78994000D01*
X176174400Y-87852000D02*
X175380400Y-88646000D01*
X175329600Y-91236800D02*
X175329600Y-88696800D01*
X175329600Y-88696800D02*
X175380400Y-88646000D01*
X175228000Y-88798400D02*
X175310800Y-88881200D01*
D33*
X175310800Y-88881200D02*
X175310800Y-88341200D01*
D34*
X156616400Y-71812400D02*
X156616400Y-71120000D01*
X155429200Y-96570800D02*
X155429200Y-97314000D01*
X156711400Y-71907400D02*
X156616400Y-71812400D01*
X155238200Y-96379800D02*
X155429200Y-96570800D01*
X175424600Y-91141800D02*
X175329600Y-91236800D01*
D32*
X155915400Y-103514400D02*
X157581600Y-103514400D01*
D34*
X175488600Y-91395800D02*
X175329600Y-91236800D01*
X172205400Y-103225600D02*
X172999400Y-103225600D01*
X170459400Y-117214400D02*
X170459400Y-118008400D01*
X156616400Y-75812400D02*
X156775400Y-75812400D01*
X156775400Y-75812400D02*
X158013400Y-74574400D01*
X158013400Y-74574400D02*
X162610800Y-74574400D01*
X155378400Y-79908400D02*
X155378400Y-77050400D01*
X155378400Y-77050400D02*
X156616400Y-75812400D01*
X162610800Y-74574400D02*
X167309800Y-74574400D01*
X169265600Y-76530200D02*
X169265600Y-78994000D01*
X167309800Y-74574400D02*
X169265600Y-76530200D01*
D32*
X161068000Y-109143800D02*
X152730200Y-109143800D01*
X151053800Y-94805500D02*
X154457400Y-91401900D01*
X151053800Y-107467400D02*
X151053800Y-94805500D01*
X152730200Y-109143800D02*
X151053800Y-107467400D01*
D33*
X162861000Y-112257800D02*
X161330600Y-112257800D01*
X161093400Y-112020600D02*
X161068000Y-109143800D01*
X161330600Y-112257800D02*
X161093400Y-112020600D01*
D34*
X163347400Y-75057000D02*
X163347400Y-76479400D01*
X162864800Y-74574400D02*
X163347400Y-75057000D01*
X162610800Y-74574400D02*
X162864800Y-74574400D01*
X157327600Y-76523600D02*
X156616400Y-75812400D01*
X165227000Y-87782400D02*
X160020000Y-87782400D01*
X156667200Y-87985600D02*
X155327600Y-87985600D01*
X156718000Y-87934800D02*
X156667200Y-87985600D01*
X160020000Y-87782400D02*
X159842200Y-87960200D01*
X165227000Y-87782400D02*
X169181800Y-91737200D01*
D33*
X169181800Y-91737200D02*
X169181800Y-93101200D01*
X169682200Y-91236800D02*
X169324000Y-91595000D01*
X171329600Y-91236800D02*
X169682200Y-91236800D01*
X169324000Y-91595000D02*
X169324000Y-93243400D01*
X169181800Y-93101200D02*
X169324000Y-93243400D01*
D32*
X154457400Y-91401900D02*
X154457400Y-88874600D01*
X154457400Y-88874600D02*
X155327600Y-88004400D01*
D33*
X155327600Y-88004400D02*
X155327600Y-87985600D01*
D32*
X155327600Y-87985600D02*
X155327600Y-85953600D01*
D34*
X155327600Y-85953600D02*
X155327600Y-85579200D01*
X155327600Y-85579200D02*
X155378400Y-86138000D01*
D33*
X155378400Y-86138000D02*
X155378400Y-83058000D01*
D34*
X155429200Y-79857600D02*
X155378400Y-79908400D01*
X155327600Y-85953600D02*
X155092400Y-85953600D01*
D33*
X156616400Y-75812400D02*
X156616400Y-75996800D01*
D34*
X156711400Y-75717400D02*
X156616400Y-75812400D01*
X156616400Y-75812400D02*
X156616400Y-76606400D01*
X156616400Y-76606400D02*
X156522400Y-76512400D01*
X154813000Y-83623400D02*
X155378400Y-83058000D01*
D33*
X155378400Y-83058000D02*
X155378400Y-79908400D01*
X155416000Y-83020400D02*
X155378400Y-83058000D01*
D34*
X155378400Y-83058000D02*
X155378400Y-82683600D01*
X171246800Y-91186000D02*
X171297600Y-91236800D01*
X171297600Y-91236800D02*
X171329600Y-91236800D01*
X155327600Y-83007200D02*
X155378400Y-83058000D01*
X171075600Y-90982800D02*
X171329600Y-91236800D01*
X154457400Y-91401900D02*
X154457400Y-91433900D01*
X155378400Y-79908400D02*
X155854400Y-79908400D01*
X155378400Y-79908400D02*
X155346400Y-79908400D01*
D32*
X133985000Y-112165400D02*
X133985000Y-108302000D01*
D34*
X133985000Y-111937800D02*
X133985000Y-112165400D01*
D33*
X133831600Y-108455400D02*
X133985000Y-108302000D01*
D34*
X134020600Y-108337600D02*
X133985000Y-108302000D01*
D33*
X133934200Y-87204800D02*
X133934200Y-84372200D01*
D34*
X133934200Y-84372200D02*
X134410200Y-84372200D01*
D33*
X167265600Y-86156800D02*
X167265600Y-87509600D01*
X168402000Y-88646000D02*
X171380400Y-88646000D01*
X167265600Y-87509600D02*
X168402000Y-88646000D01*
D34*
X167265600Y-85464400D02*
X167265600Y-86156800D01*
D33*
X160680400Y-119100600D02*
X159033618Y-113628218D01*
X158648400Y-101193600D02*
X160102800Y-102648000D01*
X159033618Y-113628218D02*
X158927800Y-111709200D01*
X160102800Y-102648000D02*
X160102800Y-103225600D01*
D32*
X160680400Y-119100600D02*
X136600200Y-119100600D01*
X136600200Y-119100600D02*
X133985000Y-116485400D01*
D34*
X160478200Y-119302800D02*
X160680400Y-119100600D01*
X160578800Y-103701600D02*
X160102800Y-103225600D01*
X135922000Y-80372200D02*
X133934200Y-80372200D01*
X136093200Y-80543400D02*
X135922000Y-80372200D01*
X154965400Y-101514400D02*
X154965400Y-100863400D01*
D32*
X154965400Y-100863400D02*
X153822400Y-99720400D01*
D34*
X154965400Y-101514400D02*
X154965400Y-101371400D01*
D33*
X154965400Y-101514400D02*
X154965400Y-101244400D01*
D34*
X133204200Y-81102200D02*
X133934200Y-80372200D01*
D35*
X144519400Y-62477400D02*
X144551400Y-62509400D01*
D33*
X159664400Y-99060000D02*
X164039800Y-99060000D01*
X164039800Y-99060000D02*
X168205400Y-103225600D01*
D34*
X168192200Y-104971600D02*
X168192200Y-105613200D01*
D33*
X159664400Y-99060000D02*
X159664400Y-96806000D01*
X159664400Y-96806000D02*
X161957000Y-94513400D01*
X161957000Y-94513400D02*
X163924000Y-94513400D01*
D34*
X159429200Y-96570800D02*
X159461200Y-96570800D01*
X159664400Y-99060000D02*
X159791400Y-99060000D01*
D33*
X168192200Y-105613200D02*
X168205400Y-103225600D01*
D34*
X168192200Y-105613200D02*
X167970200Y-105613200D01*
X163347400Y-71399400D02*
X163347400Y-70104000D01*
X173101000Y-69316600D02*
X173101000Y-67335400D01*
X172364400Y-70053200D02*
X173101000Y-69316600D01*
X163398200Y-70053200D02*
X172364400Y-70053200D01*
X163347400Y-70104000D02*
X163398200Y-70053200D01*
X163347400Y-71399400D02*
X163347400Y-69443600D01*
X163347400Y-69443600D02*
X161823400Y-67919600D01*
X161823400Y-67919600D02*
X161823400Y-67335400D01*
X163347400Y-71399400D02*
X163423600Y-71983600D01*
X163322000Y-70789800D02*
X163372800Y-70764400D01*
X162077400Y-71399400D02*
X162077400Y-70002400D01*
X162077400Y-70002400D02*
X159823400Y-67748400D01*
X159823400Y-67748400D02*
X159823400Y-67335400D01*
X159823400Y-67335400D02*
X159823400Y-67773800D01*
X162153600Y-71678800D02*
X162077400Y-71399400D01*
X157823400Y-67335400D02*
X157861000Y-67310000D01*
X157861000Y-67310000D02*
X158623000Y-66548000D01*
X158623000Y-66548000D02*
X158623000Y-65913000D01*
X158623000Y-65913000D02*
X168275000Y-65913000D01*
X168275000Y-65913000D02*
X169164000Y-66802000D01*
X169164000Y-66802000D02*
X169164000Y-67310000D01*
X169164000Y-67310000D02*
X169101000Y-67335400D01*
D33*
X160807400Y-71399400D02*
X160807400Y-70332600D01*
X157823400Y-68390000D02*
X157823400Y-67335400D01*
D34*
X158292800Y-68859400D02*
X157823400Y-68390000D01*
X159334200Y-68859400D02*
X158292800Y-68859400D01*
X160807400Y-70332600D02*
X159334200Y-68859400D01*
X160807400Y-71399400D02*
X160883600Y-71614800D01*
X160807400Y-71399400D02*
X160883600Y-71488800D01*
X155823400Y-67335400D02*
X155823400Y-67939400D01*
X155823400Y-67939400D02*
X159283400Y-71399400D01*
X159283400Y-71399400D02*
X159537400Y-71399400D01*
X167132000Y-67310000D02*
X167101000Y-67335400D01*
D33*
X159537400Y-71399400D02*
X159537400Y-71323200D01*
D34*
X155823400Y-67335400D02*
X155823400Y-66629800D01*
X159639000Y-71780400D02*
X159537400Y-70942200D01*
X159537400Y-70942200D02*
X159537400Y-71399400D01*
X164102800Y-103225600D02*
X164166800Y-105638600D01*
X164166800Y-105638600D02*
X164192200Y-105613200D01*
X164102800Y-103225600D02*
X165023800Y-103225600D01*
D32*
X135788400Y-98120200D02*
X133985000Y-99923600D01*
D34*
X133985000Y-99923600D02*
X133985000Y-101502000D01*
D32*
X172357800Y-113214400D02*
X170459400Y-113214400D01*
D33*
X172389800Y-113182400D02*
X172357800Y-113214400D01*
X162861000Y-115464600D02*
X162861000Y-114157800D01*
X163347400Y-115951000D02*
X162861000Y-115464600D01*
X133985000Y-101502000D02*
X133985000Y-91255600D01*
X133985000Y-91255600D02*
X133934200Y-91204800D01*
D32*
X133934200Y-91204800D02*
X133934200Y-91541600D01*
D34*
X170656000Y-113214400D02*
X170459400Y-113214400D01*
X165561000Y-113207800D02*
X170452800Y-113207800D01*
D33*
X170452800Y-113207800D02*
X170459400Y-113214400D01*
D36*
X170351200Y-113106200D02*
X170459400Y-113214400D01*
D34*
X170466400Y-113207400D02*
X170459400Y-113214400D01*
D33*
X170466400Y-113207400D02*
X170459400Y-113214400D01*
X144881600Y-123139200D02*
X144551400Y-123469400D01*
D34*
X144881600Y-123139200D02*
X144551400Y-123469400D01*
D33*
X132588000Y-100105000D02*
X133985000Y-101502000D01*
X133985000Y-101346000D02*
X133985000Y-101502000D01*
X133934200Y-91204800D02*
X133934200Y-91236800D01*
D34*
X165561000Y-112257800D02*
X165561000Y-111324400D01*
X165830000Y-111055400D02*
X168021000Y-111055400D01*
X165561000Y-111324400D02*
X165830000Y-111055400D01*
X165561000Y-114157800D02*
X165561000Y-115040400D01*
X165576000Y-115055400D02*
X168021000Y-115055400D01*
X165561000Y-115040400D02*
X165576000Y-115055400D01*
D33*
X169265600Y-81534000D02*
X169265600Y-83769200D01*
X169265600Y-83769200D02*
X171246800Y-86156800D01*
D34*
X171246800Y-86156800D02*
X171265600Y-86156800D01*
D33*
X169324000Y-95783400D02*
X171780200Y-95783400D01*
X173329600Y-86156800D02*
X171265600Y-86156800D01*
X175361600Y-86969600D02*
X173329600Y-86156800D01*
X171780200Y-95783400D02*
X172770800Y-94792800D01*
X171519600Y-85902800D02*
X171265600Y-86156800D01*
D34*
X161975800Y-80416400D02*
X161975800Y-80391000D01*
X160807400Y-79222600D02*
X160807400Y-76479400D01*
X161975800Y-80391000D02*
X160807400Y-79222600D01*
X161467800Y-79908400D02*
X159378400Y-79908400D01*
X161975800Y-80416400D02*
X161467800Y-79908400D01*
X160782000Y-75869800D02*
X160782000Y-77139800D01*
D33*
X169324000Y-94513400D02*
X171526200Y-94513400D01*
X174091600Y-84683600D02*
X171805600Y-81940400D01*
X171526200Y-94513400D02*
X172974000Y-93065600D01*
D34*
X171805600Y-81940400D02*
X171805600Y-81534000D01*
X171805600Y-81635600D02*
X171805600Y-81534000D01*
X159378400Y-79908400D02*
X159461200Y-79908400D01*
X159378400Y-79908400D02*
X159378400Y-80028800D01*
X159378400Y-79908400D02*
X159378400Y-80448400D01*
X159505400Y-80035400D02*
X159378400Y-79908400D01*
X159378400Y-79908400D02*
X159378400Y-80194400D01*
X163296600Y-78079600D02*
X165862000Y-78079600D01*
X171805600Y-77343000D02*
X171805600Y-78994000D01*
X170967400Y-76504800D02*
X171805600Y-77343000D01*
X165862000Y-78079600D02*
X167360600Y-76581000D01*
X159378400Y-83058000D02*
X161315400Y-83058000D01*
X163296600Y-81076800D02*
X163296600Y-78079600D01*
X161315400Y-83058000D02*
X163296600Y-81076800D01*
X162077400Y-76479400D02*
X162077400Y-77698600D01*
X162077400Y-77698600D02*
X162458400Y-78079600D01*
X162458400Y-78079600D02*
X163296600Y-78079600D01*
X162077400Y-76479400D02*
X162077400Y-75768200D01*
X169324000Y-97053400D02*
X166395400Y-97053400D01*
X166395400Y-97053400D02*
X165912800Y-96570800D01*
X162052000Y-77139800D02*
X162052000Y-76174600D01*
X159378400Y-83058000D02*
X162661600Y-83058000D01*
X159378400Y-83534000D02*
X159378400Y-83058000D01*
X160070800Y-83058000D02*
X159378400Y-83058000D01*
X159327600Y-85953600D02*
X163550600Y-85953600D01*
X165684200Y-83820000D02*
X167589200Y-83820000D01*
X163550600Y-85953600D02*
X165684200Y-83820000D01*
X157105600Y-91389200D02*
X157105600Y-89909400D01*
X163924000Y-91407000D02*
X163924000Y-93243400D01*
X162077400Y-89560400D02*
X163924000Y-91407000D01*
X157454600Y-89560400D02*
X162077400Y-89560400D01*
X157105600Y-89909400D02*
X157454600Y-89560400D01*
D33*
X174345600Y-83108800D02*
X174345600Y-81534000D01*
X174955200Y-83718400D02*
X174345600Y-83108800D01*
X157105600Y-91389200D02*
X157105600Y-89071200D01*
D34*
X159327600Y-86849200D02*
X159327600Y-85953600D01*
D33*
X157105600Y-89071200D02*
X159327600Y-86849200D01*
D34*
X163924000Y-93243400D02*
X163924000Y-93235800D01*
X157105600Y-91389200D02*
X157105600Y-90976200D01*
D33*
X154457400Y-93941900D02*
X157010100Y-91293700D01*
D34*
X157010100Y-91293700D02*
X157105600Y-91389200D01*
X157105600Y-91389200D02*
X156946600Y-91389200D01*
D33*
X156851600Y-91643200D02*
X157105600Y-91389200D01*
D32*
X154015400Y-103514400D02*
X154015400Y-105901200D01*
D33*
X154015400Y-105901200D02*
X154210000Y-106095800D01*
D34*
X154127200Y-104597200D02*
X154015400Y-104597200D01*
D33*
X154015400Y-103514400D02*
X154015400Y-104597200D01*
D34*
X162179000Y-95783400D02*
X161163000Y-96520000D01*
X154025600Y-104546400D02*
X154015400Y-104556600D01*
X154015400Y-104556600D02*
X154086600Y-104556600D01*
X154086600Y-104556600D02*
X154127200Y-104597200D01*
X153965400Y-103464400D02*
X153761400Y-103464400D01*
D37*
G36*
X173773437Y-87602003D02*
X173745400Y-87669690D01*
X173745400Y-88360250D01*
X173904150Y-88519000D01*
X175253400Y-88519000D01*
X175253400Y-88499000D01*
X175507400Y-88499000D01*
X175507400Y-88519000D01*
X175527400Y-88519000D01*
X175527400Y-88773000D01*
X175507400Y-88773000D01*
X175507400Y-89909750D01*
X175456600Y-89960550D01*
X175456600Y-91109800D01*
X175476600Y-91109800D01*
X175476600Y-91363800D01*
X175456600Y-91363800D01*
X175456600Y-92513050D01*
X175615350Y-92671800D01*
X176010090Y-92671800D01*
X176031933Y-120970498D01*
X175947727Y-120886145D01*
X174860564Y-120434715D01*
X173683401Y-120433688D01*
X172595451Y-120883219D01*
X171762345Y-121714873D01*
X171310915Y-122802036D01*
X171309888Y-123979199D01*
X171759419Y-125067149D01*
X171927976Y-125236000D01*
X145724795Y-125236000D01*
X146055416Y-125015086D01*
X146516492Y-124325038D01*
X146678400Y-123511070D01*
X146678400Y-123427730D01*
X146516492Y-122613762D01*
X146055416Y-121923714D01*
X145365368Y-121462638D01*
X144551400Y-121300730D01*
X143737432Y-121462638D01*
X143047384Y-121923714D01*
X142586308Y-122613762D01*
X142424400Y-123427730D01*
X142424400Y-123511070D01*
X142586308Y-124325038D01*
X143047384Y-125015086D01*
X143378005Y-125236000D01*
X136352784Y-125236000D01*
X136466655Y-125122327D01*
X136918085Y-124035164D01*
X136919112Y-122858001D01*
X136469581Y-121770051D01*
X135637927Y-120936945D01*
X134550764Y-120485515D01*
X133373601Y-120484488D01*
X132294600Y-120930321D01*
X132294600Y-117163848D01*
X132344478Y-117428926D01*
X132547501Y-117744433D01*
X132857279Y-117956096D01*
X133225000Y-118030561D01*
X133512079Y-118030561D01*
X135591158Y-120109641D01*
X136054110Y-120418976D01*
X136128073Y-120433688D01*
X136600200Y-120527600D01*
X159350114Y-120527600D01*
X159402901Y-120609633D01*
X159712679Y-120821296D01*
X160080400Y-120895761D01*
X161280400Y-120895761D01*
X161623926Y-120831122D01*
X161939433Y-120628099D01*
X162082731Y-120418376D01*
X162271024Y-120528886D01*
X162362791Y-120544062D01*
X162553400Y-120419331D01*
X162553400Y-119227600D01*
X162807400Y-119227600D01*
X162807400Y-120419331D01*
X162998009Y-120544062D01*
X163089776Y-120528886D01*
X163509525Y-120282533D01*
X163803047Y-119894301D01*
X163925656Y-119423296D01*
X163762947Y-119227600D01*
X162807400Y-119227600D01*
X162553400Y-119227600D01*
X162533400Y-119227600D01*
X162533400Y-118973600D01*
X162553400Y-118973600D01*
X162553400Y-117781869D01*
X162807400Y-117781869D01*
X162807400Y-118973600D01*
X163762947Y-118973600D01*
X163925656Y-118777904D01*
X163803047Y-118306899D01*
X163509525Y-117918667D01*
X163089776Y-117672314D01*
X162998009Y-117657138D01*
X162807400Y-117781869D01*
X162553400Y-117781869D01*
X162362791Y-117657138D01*
X162271024Y-117672314D01*
X162081452Y-117783575D01*
X161957899Y-117591567D01*
X161824107Y-117500150D01*
X169024400Y-117500150D01*
X169024400Y-118340709D01*
X169121073Y-118574098D01*
X169299701Y-118752727D01*
X169533090Y-118849400D01*
X170173650Y-118849400D01*
X170332400Y-118690650D01*
X170332400Y-117341400D01*
X170586400Y-117341400D01*
X170586400Y-118690650D01*
X170745150Y-118849400D01*
X171385710Y-118849400D01*
X171619099Y-118752727D01*
X171797727Y-118574098D01*
X171894400Y-118340709D01*
X171894400Y-117500150D01*
X171735650Y-117341400D01*
X170586400Y-117341400D01*
X170332400Y-117341400D01*
X169183150Y-117341400D01*
X169024400Y-117500150D01*
X161824107Y-117500150D01*
X161648121Y-117379904D01*
X161375098Y-117324616D01*
X160201110Y-113423366D01*
X160161423Y-112703636D01*
X160261135Y-112852865D01*
X160498333Y-113090062D01*
X160498335Y-113090065D01*
X160880182Y-113345206D01*
X161242911Y-113417357D01*
X161210304Y-113465079D01*
X161135839Y-113832800D01*
X161135839Y-114482800D01*
X161200478Y-114826326D01*
X161403501Y-115141833D01*
X161684000Y-115333490D01*
X161684000Y-115464600D01*
X161773594Y-115915019D01*
X162028735Y-116296865D01*
X162257018Y-116525147D01*
X162306594Y-116645131D01*
X162651453Y-116990593D01*
X163102264Y-117177786D01*
X163590395Y-117178212D01*
X164041531Y-116991806D01*
X164386993Y-116646947D01*
X164574186Y-116196136D01*
X164574612Y-115708005D01*
X164429488Y-115356778D01*
X164525812Y-115376284D01*
X164542885Y-115462117D01*
X164781768Y-115819632D01*
X164796768Y-115834632D01*
X165154283Y-116073515D01*
X165576000Y-116157400D01*
X166295032Y-116157400D01*
X166340478Y-116398926D01*
X166543501Y-116714433D01*
X166853279Y-116926096D01*
X167221000Y-117000561D01*
X168821000Y-117000561D01*
X169052711Y-116956961D01*
X169183150Y-117087400D01*
X170332400Y-117087400D01*
X170332400Y-115738150D01*
X170586400Y-115738150D01*
X170586400Y-117087400D01*
X171735650Y-117087400D01*
X171894400Y-116928650D01*
X171894400Y-116088091D01*
X171797727Y-115854702D01*
X171619099Y-115676073D01*
X171385710Y-115579400D01*
X170745150Y-115579400D01*
X170586400Y-115738150D01*
X170332400Y-115738150D01*
X170173650Y-115579400D01*
X169766161Y-115579400D01*
X169766161Y-115159561D01*
X171259400Y-115159561D01*
X171602926Y-115094922D01*
X171918433Y-114891899D01*
X172089592Y-114641400D01*
X172357800Y-114641400D01*
X172903889Y-114532776D01*
X173366841Y-114223441D01*
X173676176Y-113760489D01*
X173784800Y-113214400D01*
X173676176Y-112668311D01*
X173366841Y-112205359D01*
X172903889Y-111896024D01*
X172357800Y-111787400D01*
X172086208Y-111787400D01*
X171936899Y-111555367D01*
X171627121Y-111343704D01*
X171259400Y-111269239D01*
X169766161Y-111269239D01*
X169766161Y-110055400D01*
X169701522Y-109711874D01*
X169498499Y-109396367D01*
X169188721Y-109184704D01*
X168821000Y-109110239D01*
X167221000Y-109110239D01*
X166877474Y-109174878D01*
X166616354Y-109342904D01*
X166544250Y-109270800D01*
X165195000Y-109270800D01*
X165195000Y-109290800D01*
X164941000Y-109290800D01*
X164941000Y-109270800D01*
X163591750Y-109270800D01*
X163433000Y-109429550D01*
X163433000Y-110070110D01*
X163529673Y-110303499D01*
X163708302Y-110482127D01*
X163941691Y-110578800D01*
X164759296Y-110578800D01*
X164542885Y-110902683D01*
X164516070Y-111037489D01*
X164437474Y-111052278D01*
X164209262Y-111199128D01*
X164008721Y-111062104D01*
X163641000Y-110987639D01*
X162261325Y-110987639D01*
X162260135Y-110852808D01*
X162411526Y-110824322D01*
X162727033Y-110621299D01*
X162938696Y-110311521D01*
X163013161Y-109943800D01*
X163013161Y-108343800D01*
X162989395Y-108217490D01*
X163433000Y-108217490D01*
X163433000Y-108858050D01*
X163591750Y-109016800D01*
X164941000Y-109016800D01*
X164941000Y-107867550D01*
X165195000Y-107867550D01*
X165195000Y-109016800D01*
X166544250Y-109016800D01*
X166703000Y-108858050D01*
X166703000Y-108217490D01*
X166606327Y-107984101D01*
X166427698Y-107805473D01*
X166194309Y-107708800D01*
X165353750Y-107708800D01*
X165195000Y-107867550D01*
X164941000Y-107867550D01*
X164782250Y-107708800D01*
X163941691Y-107708800D01*
X163708302Y-107805473D01*
X163529673Y-107984101D01*
X163433000Y-108217490D01*
X162989395Y-108217490D01*
X162948522Y-108000274D01*
X162745499Y-107684767D01*
X162435721Y-107473104D01*
X162068000Y-107398639D01*
X160068000Y-107398639D01*
X159724474Y-107463278D01*
X159408967Y-107666301D01*
X159374462Y-107716800D01*
X155723728Y-107716800D01*
X155869033Y-107623299D01*
X156080696Y-107313521D01*
X156155161Y-106945800D01*
X156155161Y-106381550D01*
X156575000Y-106381550D01*
X156575000Y-107072110D01*
X156671673Y-107305499D01*
X156850302Y-107484127D01*
X157083691Y-107580800D01*
X157924250Y-107580800D01*
X158083000Y-107422050D01*
X158083000Y-106222800D01*
X158337000Y-106222800D01*
X158337000Y-107422050D01*
X158495750Y-107580800D01*
X159336309Y-107580800D01*
X159569698Y-107484127D01*
X159748327Y-107305499D01*
X159845000Y-107072110D01*
X159845000Y-106381550D01*
X159686250Y-106222800D01*
X158337000Y-106222800D01*
X158083000Y-106222800D01*
X156733750Y-106222800D01*
X156575000Y-106381550D01*
X156155161Y-106381550D01*
X156155161Y-105245800D01*
X156131395Y-105119490D01*
X156575000Y-105119490D01*
X156575000Y-105810050D01*
X156733750Y-105968800D01*
X158083000Y-105968800D01*
X158083000Y-104769550D01*
X157924250Y-104610800D01*
X157083691Y-104610800D01*
X156850302Y-104707473D01*
X156671673Y-104886101D01*
X156575000Y-105119490D01*
X156131395Y-105119490D01*
X156090522Y-104902274D01*
X155887499Y-104586767D01*
X155741821Y-104487229D01*
X155788400Y-104440650D01*
X155788400Y-103641400D01*
X156042400Y-103641400D01*
X156042400Y-104440650D01*
X156201150Y-104599400D01*
X156441710Y-104599400D01*
X156675099Y-104502727D01*
X156853727Y-104324098D01*
X156950400Y-104090709D01*
X156950400Y-103800150D01*
X156791650Y-103641400D01*
X156042400Y-103641400D01*
X155788400Y-103641400D01*
X155768400Y-103641400D01*
X155768400Y-103387400D01*
X155788400Y-103387400D01*
X155788400Y-103367400D01*
X156042400Y-103367400D01*
X156042400Y-103387400D01*
X156791650Y-103387400D01*
X156950400Y-103228650D01*
X156950400Y-102938091D01*
X156853727Y-102704702D01*
X156675099Y-102526073D01*
X156441710Y-102429400D01*
X156201150Y-102429400D01*
X156101625Y-102528925D01*
X156236096Y-102332121D01*
X156310561Y-101964400D01*
X156310561Y-101274831D01*
X156392399Y-100863400D01*
X156283776Y-100317311D01*
X155974441Y-99854359D01*
X154831441Y-98711359D01*
X154368489Y-98402024D01*
X153822400Y-98293401D01*
X153276311Y-98402024D01*
X152813359Y-98711359D01*
X152504024Y-99174311D01*
X152480800Y-99291067D01*
X152480800Y-96856550D01*
X153794200Y-96856550D01*
X153794200Y-97497110D01*
X153890873Y-97730499D01*
X154069502Y-97909127D01*
X154302891Y-98005800D01*
X155143450Y-98005800D01*
X155302200Y-97847050D01*
X155302200Y-96697800D01*
X155556200Y-96697800D01*
X155556200Y-97847050D01*
X155714950Y-98005800D01*
X156555509Y-98005800D01*
X156788898Y-97909127D01*
X156967527Y-97730499D01*
X157064200Y-97497110D01*
X157064200Y-96856550D01*
X156905450Y-96697800D01*
X155556200Y-96697800D01*
X155302200Y-96697800D01*
X153952950Y-96697800D01*
X153794200Y-96856550D01*
X152480800Y-96856550D01*
X152480800Y-95396582D01*
X153085119Y-94792263D01*
X153306937Y-95124238D01*
X153834774Y-95476927D01*
X153861412Y-95482226D01*
X153794200Y-95644490D01*
X153794200Y-96285050D01*
X153952950Y-96443800D01*
X155302200Y-96443800D01*
X155302200Y-96423800D01*
X155556200Y-96423800D01*
X155556200Y-96443800D01*
X156905450Y-96443800D01*
X157064200Y-96285050D01*
X157064200Y-95644490D01*
X156967527Y-95411101D01*
X156788898Y-95232473D01*
X156555509Y-95135800D01*
X155714950Y-95135800D01*
X155556202Y-95294548D01*
X155556202Y-95158757D01*
X155607863Y-95124238D01*
X155960552Y-94596401D01*
X156084400Y-93973775D01*
X156084400Y-93949983D01*
X156822412Y-93184361D01*
X158105600Y-93184361D01*
X158449126Y-93119722D01*
X158764633Y-92916699D01*
X158976296Y-92606921D01*
X159050761Y-92239200D01*
X159050761Y-91674950D01*
X159470600Y-91674950D01*
X159470600Y-92365510D01*
X159567273Y-92598899D01*
X159745902Y-92777527D01*
X159979291Y-92874200D01*
X160819850Y-92874200D01*
X160978600Y-92715450D01*
X160978600Y-91516200D01*
X159629350Y-91516200D01*
X159470600Y-91674950D01*
X159050761Y-91674950D01*
X159050761Y-90662400D01*
X159470600Y-90662400D01*
X159470600Y-91103450D01*
X159629350Y-91262200D01*
X160978600Y-91262200D01*
X160978600Y-91242200D01*
X161232600Y-91242200D01*
X161232600Y-91262200D01*
X161252600Y-91262200D01*
X161252600Y-91516200D01*
X161232600Y-91516200D01*
X161232600Y-92510850D01*
X161188304Y-92575679D01*
X161113839Y-92943400D01*
X161113839Y-93543400D01*
X161138078Y-93672219D01*
X161124735Y-93681135D01*
X159980231Y-94825639D01*
X158429200Y-94825639D01*
X158085674Y-94890278D01*
X157770167Y-95093301D01*
X157558504Y-95403079D01*
X157484039Y-95770800D01*
X157484039Y-97370800D01*
X157548678Y-97714326D01*
X157751701Y-98029833D01*
X158061479Y-98241496D01*
X158356882Y-98301316D01*
X158166161Y-98760622D01*
X158165641Y-99356762D01*
X158393293Y-99907723D01*
X158451896Y-99966429D01*
X158405405Y-99966388D01*
X157954269Y-100152794D01*
X157608807Y-100497653D01*
X157421614Y-100948464D01*
X157421188Y-101436595D01*
X157607594Y-101887731D01*
X157952453Y-102233193D01*
X158073887Y-102283617D01*
X158159025Y-102368755D01*
X158157639Y-102375600D01*
X158157639Y-104075600D01*
X158222278Y-104419126D01*
X158404399Y-104702151D01*
X158337000Y-104769550D01*
X158337000Y-105968800D01*
X159686250Y-105968800D01*
X159845000Y-105810050D01*
X159845000Y-105119490D01*
X159804105Y-105020761D01*
X161102800Y-105020761D01*
X161446326Y-104956122D01*
X161761833Y-104753099D01*
X161973496Y-104443321D01*
X162047961Y-104075600D01*
X162047961Y-102375600D01*
X161983322Y-102032074D01*
X161780299Y-101716567D01*
X161470521Y-101504904D01*
X161102800Y-101430439D01*
X160549769Y-101430439D01*
X159738782Y-100619452D01*
X159713615Y-100558543D01*
X159961162Y-100558759D01*
X160512123Y-100331107D01*
X160606394Y-100237000D01*
X163552270Y-100237000D01*
X164745709Y-101430439D01*
X163102800Y-101430439D01*
X162759274Y-101495078D01*
X162443767Y-101698101D01*
X162232104Y-102007879D01*
X162157639Y-102375600D01*
X162157639Y-104075600D01*
X162222278Y-104419126D01*
X162294110Y-104530756D01*
X162247039Y-104763200D01*
X162247039Y-106463200D01*
X162311678Y-106806726D01*
X162514701Y-107122233D01*
X162824479Y-107333896D01*
X163192200Y-107408361D01*
X165192200Y-107408361D01*
X165535726Y-107343722D01*
X165851233Y-107140699D01*
X166062896Y-106830921D01*
X166137361Y-106463200D01*
X166137361Y-104763200D01*
X166072722Y-104419674D01*
X166000890Y-104308044D01*
X166047961Y-104075600D01*
X166047961Y-103616922D01*
X166125800Y-103225600D01*
X166047961Y-102834278D01*
X166047961Y-102732691D01*
X166260239Y-102944969D01*
X166260239Y-104075600D01*
X166320947Y-104398232D01*
X166247039Y-104763200D01*
X166247039Y-106463200D01*
X166311678Y-106806726D01*
X166514701Y-107122233D01*
X166824479Y-107333896D01*
X167192200Y-107408361D01*
X169192200Y-107408361D01*
X169535726Y-107343722D01*
X169851233Y-107140699D01*
X170062896Y-106830921D01*
X170137361Y-106463200D01*
X170137361Y-104763200D01*
X170076653Y-104440568D01*
X170150561Y-104075600D01*
X170150561Y-103511350D01*
X170570400Y-103511350D01*
X170570400Y-104201910D01*
X170667073Y-104435299D01*
X170845702Y-104613927D01*
X171079091Y-104710600D01*
X171919650Y-104710600D01*
X172078400Y-104551850D01*
X172078400Y-103352600D01*
X172332400Y-103352600D01*
X172332400Y-104551850D01*
X172491150Y-104710600D01*
X173331709Y-104710600D01*
X173565098Y-104613927D01*
X173743727Y-104435299D01*
X173840400Y-104201910D01*
X173840400Y-103511350D01*
X173681650Y-103352600D01*
X172332400Y-103352600D01*
X172078400Y-103352600D01*
X170729150Y-103352600D01*
X170570400Y-103511350D01*
X170150561Y-103511350D01*
X170150561Y-102375600D01*
X170126795Y-102249290D01*
X170570400Y-102249290D01*
X170570400Y-102939850D01*
X170729150Y-103098600D01*
X172078400Y-103098600D01*
X172078400Y-101899350D01*
X172332400Y-101899350D01*
X172332400Y-103098600D01*
X173681650Y-103098600D01*
X173840400Y-102939850D01*
X173840400Y-102249290D01*
X173743727Y-102015901D01*
X173565098Y-101837273D01*
X173331709Y-101740600D01*
X172491150Y-101740600D01*
X172332400Y-101899350D01*
X172078400Y-101899350D01*
X171919650Y-101740600D01*
X171079091Y-101740600D01*
X170845702Y-101837273D01*
X170667073Y-102015901D01*
X170570400Y-102249290D01*
X170126795Y-102249290D01*
X170085922Y-102032074D01*
X169882899Y-101716567D01*
X169573121Y-101504904D01*
X169205400Y-101430439D01*
X168074769Y-101430439D01*
X164872065Y-98227735D01*
X164490219Y-97972594D01*
X164397833Y-97954217D01*
X164548698Y-97891727D01*
X164727327Y-97713099D01*
X164824000Y-97479710D01*
X164824000Y-97339150D01*
X164665252Y-97180402D01*
X164824000Y-97180402D01*
X164824000Y-97148777D01*
X164871994Y-97264931D01*
X165216853Y-97610393D01*
X165519671Y-97736134D01*
X165616166Y-97832629D01*
X165616168Y-97832632D01*
X165973683Y-98071515D01*
X166395400Y-98155400D01*
X168590739Y-98155400D01*
X168691279Y-98224096D01*
X169059000Y-98298561D01*
X171189000Y-98298561D01*
X171532526Y-98233922D01*
X171848033Y-98030899D01*
X172059696Y-97721121D01*
X172134161Y-97353400D01*
X172134161Y-96889993D01*
X172230619Y-96870806D01*
X172612465Y-96615665D01*
X173344948Y-95883182D01*
X173464931Y-95833606D01*
X173810393Y-95488747D01*
X173997586Y-95037936D01*
X173998012Y-94549805D01*
X173811606Y-94098669D01*
X173743862Y-94030807D01*
X174013593Y-93761547D01*
X174200786Y-93310736D01*
X174201212Y-92822605D01*
X174125604Y-92639621D01*
X174203291Y-92671800D01*
X175043850Y-92671800D01*
X175202600Y-92513050D01*
X175202600Y-91363800D01*
X173853350Y-91363800D01*
X173694600Y-91522550D01*
X173694600Y-92050703D01*
X173669947Y-92026007D01*
X173274761Y-91861912D01*
X173274761Y-90436800D01*
X173250995Y-90310490D01*
X173694600Y-90310490D01*
X173694600Y-90951050D01*
X173853350Y-91109800D01*
X175202600Y-91109800D01*
X175202600Y-90023050D01*
X175253400Y-89972250D01*
X175253400Y-88773000D01*
X173904150Y-88773000D01*
X173745400Y-88931750D01*
X173745400Y-89622310D01*
X173842073Y-89855699D01*
X173927375Y-89941000D01*
X173791273Y-90077101D01*
X173694600Y-90310490D01*
X173250995Y-90310490D01*
X173210122Y-90093274D01*
X173153923Y-90005938D01*
X173251096Y-89863721D01*
X173325561Y-89496000D01*
X173325561Y-87796000D01*
X173260922Y-87452474D01*
X173212850Y-87377768D01*
X173773437Y-87602003D01*
X173773437Y-87602003D01*
G37*
X173773437Y-87602003D02*
X173745400Y-87669690D01*
X173745400Y-88360250D01*
X173904150Y-88519000D01*
X175253400Y-88519000D01*
X175253400Y-88499000D01*
X175507400Y-88499000D01*
X175507400Y-88519000D01*
X175527400Y-88519000D01*
X175527400Y-88773000D01*
X175507400Y-88773000D01*
X175507400Y-89909750D01*
X175456600Y-89960550D01*
X175456600Y-91109800D01*
X175476600Y-91109800D01*
X175476600Y-91363800D01*
X175456600Y-91363800D01*
X175456600Y-92513050D01*
X175615350Y-92671800D01*
X176010090Y-92671800D01*
X176031933Y-120970498D01*
X175947727Y-120886145D01*
X174860564Y-120434715D01*
X173683401Y-120433688D01*
X172595451Y-120883219D01*
X171762345Y-121714873D01*
X171310915Y-122802036D01*
X171309888Y-123979199D01*
X171759419Y-125067149D01*
X171927976Y-125236000D01*
X145724795Y-125236000D01*
X146055416Y-125015086D01*
X146516492Y-124325038D01*
X146678400Y-123511070D01*
X146678400Y-123427730D01*
X146516492Y-122613762D01*
X146055416Y-121923714D01*
X145365368Y-121462638D01*
X144551400Y-121300730D01*
X143737432Y-121462638D01*
X143047384Y-121923714D01*
X142586308Y-122613762D01*
X142424400Y-123427730D01*
X142424400Y-123511070D01*
X142586308Y-124325038D01*
X143047384Y-125015086D01*
X143378005Y-125236000D01*
X136352784Y-125236000D01*
X136466655Y-125122327D01*
X136918085Y-124035164D01*
X136919112Y-122858001D01*
X136469581Y-121770051D01*
X135637927Y-120936945D01*
X134550764Y-120485515D01*
X133373601Y-120484488D01*
X132294600Y-120930321D01*
X132294600Y-117163848D01*
X132344478Y-117428926D01*
X132547501Y-117744433D01*
X132857279Y-117956096D01*
X133225000Y-118030561D01*
X133512079Y-118030561D01*
X135591158Y-120109641D01*
X136054110Y-120418976D01*
X136128073Y-120433688D01*
X136600200Y-120527600D01*
X159350114Y-120527600D01*
X159402901Y-120609633D01*
X159712679Y-120821296D01*
X160080400Y-120895761D01*
X161280400Y-120895761D01*
X161623926Y-120831122D01*
X161939433Y-120628099D01*
X162082731Y-120418376D01*
X162271024Y-120528886D01*
X162362791Y-120544062D01*
X162553400Y-120419331D01*
X162553400Y-119227600D01*
X162807400Y-119227600D01*
X162807400Y-120419331D01*
X162998009Y-120544062D01*
X163089776Y-120528886D01*
X163509525Y-120282533D01*
X163803047Y-119894301D01*
X163925656Y-119423296D01*
X163762947Y-119227600D01*
X162807400Y-119227600D01*
X162553400Y-119227600D01*
X162533400Y-119227600D01*
X162533400Y-118973600D01*
X162553400Y-118973600D01*
X162553400Y-117781869D01*
X162807400Y-117781869D01*
X162807400Y-118973600D01*
X163762947Y-118973600D01*
X163925656Y-118777904D01*
X163803047Y-118306899D01*
X163509525Y-117918667D01*
X163089776Y-117672314D01*
X162998009Y-117657138D01*
X162807400Y-117781869D01*
X162553400Y-117781869D01*
X162362791Y-117657138D01*
X162271024Y-117672314D01*
X162081452Y-117783575D01*
X161957899Y-117591567D01*
X161824107Y-117500150D01*
X169024400Y-117500150D01*
X169024400Y-118340709D01*
X169121073Y-118574098D01*
X169299701Y-118752727D01*
X169533090Y-118849400D01*
X170173650Y-118849400D01*
X170332400Y-118690650D01*
X170332400Y-117341400D01*
X170586400Y-117341400D01*
X170586400Y-118690650D01*
X170745150Y-118849400D01*
X171385710Y-118849400D01*
X171619099Y-118752727D01*
X171797727Y-118574098D01*
X171894400Y-118340709D01*
X171894400Y-117500150D01*
X171735650Y-117341400D01*
X170586400Y-117341400D01*
X170332400Y-117341400D01*
X169183150Y-117341400D01*
X169024400Y-117500150D01*
X161824107Y-117500150D01*
X161648121Y-117379904D01*
X161375098Y-117324616D01*
X160201110Y-113423366D01*
X160161423Y-112703636D01*
X160261135Y-112852865D01*
X160498333Y-113090062D01*
X160498335Y-113090065D01*
X160880182Y-113345206D01*
X161242911Y-113417357D01*
X161210304Y-113465079D01*
X161135839Y-113832800D01*
X161135839Y-114482800D01*
X161200478Y-114826326D01*
X161403501Y-115141833D01*
X161684000Y-115333490D01*
X161684000Y-115464600D01*
X161773594Y-115915019D01*
X162028735Y-116296865D01*
X162257018Y-116525147D01*
X162306594Y-116645131D01*
X162651453Y-116990593D01*
X163102264Y-117177786D01*
X163590395Y-117178212D01*
X164041531Y-116991806D01*
X164386993Y-116646947D01*
X164574186Y-116196136D01*
X164574612Y-115708005D01*
X164429488Y-115356778D01*
X164525812Y-115376284D01*
X164542885Y-115462117D01*
X164781768Y-115819632D01*
X164796768Y-115834632D01*
X165154283Y-116073515D01*
X165576000Y-116157400D01*
X166295032Y-116157400D01*
X166340478Y-116398926D01*
X166543501Y-116714433D01*
X166853279Y-116926096D01*
X167221000Y-117000561D01*
X168821000Y-117000561D01*
X169052711Y-116956961D01*
X169183150Y-117087400D01*
X170332400Y-117087400D01*
X170332400Y-115738150D01*
X170586400Y-115738150D01*
X170586400Y-117087400D01*
X171735650Y-117087400D01*
X171894400Y-116928650D01*
X171894400Y-116088091D01*
X171797727Y-115854702D01*
X171619099Y-115676073D01*
X171385710Y-115579400D01*
X170745150Y-115579400D01*
X170586400Y-115738150D01*
X170332400Y-115738150D01*
X170173650Y-115579400D01*
X169766161Y-115579400D01*
X169766161Y-115159561D01*
X171259400Y-115159561D01*
X171602926Y-115094922D01*
X171918433Y-114891899D01*
X172089592Y-114641400D01*
X172357800Y-114641400D01*
X172903889Y-114532776D01*
X173366841Y-114223441D01*
X173676176Y-113760489D01*
X173784800Y-113214400D01*
X173676176Y-112668311D01*
X173366841Y-112205359D01*
X172903889Y-111896024D01*
X172357800Y-111787400D01*
X172086208Y-111787400D01*
X171936899Y-111555367D01*
X171627121Y-111343704D01*
X171259400Y-111269239D01*
X169766161Y-111269239D01*
X169766161Y-110055400D01*
X169701522Y-109711874D01*
X169498499Y-109396367D01*
X169188721Y-109184704D01*
X168821000Y-109110239D01*
X167221000Y-109110239D01*
X166877474Y-109174878D01*
X166616354Y-109342904D01*
X166544250Y-109270800D01*
X165195000Y-109270800D01*
X165195000Y-109290800D01*
X164941000Y-109290800D01*
X164941000Y-109270800D01*
X163591750Y-109270800D01*
X163433000Y-109429550D01*
X163433000Y-110070110D01*
X163529673Y-110303499D01*
X163708302Y-110482127D01*
X163941691Y-110578800D01*
X164759296Y-110578800D01*
X164542885Y-110902683D01*
X164516070Y-111037489D01*
X164437474Y-111052278D01*
X164209262Y-111199128D01*
X164008721Y-111062104D01*
X163641000Y-110987639D01*
X162261325Y-110987639D01*
X162260135Y-110852808D01*
X162411526Y-110824322D01*
X162727033Y-110621299D01*
X162938696Y-110311521D01*
X163013161Y-109943800D01*
X163013161Y-108343800D01*
X162989395Y-108217490D01*
X163433000Y-108217490D01*
X163433000Y-108858050D01*
X163591750Y-109016800D01*
X164941000Y-109016800D01*
X164941000Y-107867550D01*
X165195000Y-107867550D01*
X165195000Y-109016800D01*
X166544250Y-109016800D01*
X166703000Y-108858050D01*
X166703000Y-108217490D01*
X166606327Y-107984101D01*
X166427698Y-107805473D01*
X166194309Y-107708800D01*
X165353750Y-107708800D01*
X165195000Y-107867550D01*
X164941000Y-107867550D01*
X164782250Y-107708800D01*
X163941691Y-107708800D01*
X163708302Y-107805473D01*
X163529673Y-107984101D01*
X163433000Y-108217490D01*
X162989395Y-108217490D01*
X162948522Y-108000274D01*
X162745499Y-107684767D01*
X162435721Y-107473104D01*
X162068000Y-107398639D01*
X160068000Y-107398639D01*
X159724474Y-107463278D01*
X159408967Y-107666301D01*
X159374462Y-107716800D01*
X155723728Y-107716800D01*
X155869033Y-107623299D01*
X156080696Y-107313521D01*
X156155161Y-106945800D01*
X156155161Y-106381550D01*
X156575000Y-106381550D01*
X156575000Y-107072110D01*
X156671673Y-107305499D01*
X156850302Y-107484127D01*
X157083691Y-107580800D01*
X157924250Y-107580800D01*
X158083000Y-107422050D01*
X158083000Y-106222800D01*
X158337000Y-106222800D01*
X158337000Y-107422050D01*
X158495750Y-107580800D01*
X159336309Y-107580800D01*
X159569698Y-107484127D01*
X159748327Y-107305499D01*
X159845000Y-107072110D01*
X159845000Y-106381550D01*
X159686250Y-106222800D01*
X158337000Y-106222800D01*
X158083000Y-106222800D01*
X156733750Y-106222800D01*
X156575000Y-106381550D01*
X156155161Y-106381550D01*
X156155161Y-105245800D01*
X156131395Y-105119490D01*
X156575000Y-105119490D01*
X156575000Y-105810050D01*
X156733750Y-105968800D01*
X158083000Y-105968800D01*
X158083000Y-104769550D01*
X157924250Y-104610800D01*
X157083691Y-104610800D01*
X156850302Y-104707473D01*
X156671673Y-104886101D01*
X156575000Y-105119490D01*
X156131395Y-105119490D01*
X156090522Y-104902274D01*
X155887499Y-104586767D01*
X155741821Y-104487229D01*
X155788400Y-104440650D01*
X155788400Y-103641400D01*
X156042400Y-103641400D01*
X156042400Y-104440650D01*
X156201150Y-104599400D01*
X156441710Y-104599400D01*
X156675099Y-104502727D01*
X156853727Y-104324098D01*
X156950400Y-104090709D01*
X156950400Y-103800150D01*
X156791650Y-103641400D01*
X156042400Y-103641400D01*
X155788400Y-103641400D01*
X155768400Y-103641400D01*
X155768400Y-103387400D01*
X155788400Y-103387400D01*
X155788400Y-103367400D01*
X156042400Y-103367400D01*
X156042400Y-103387400D01*
X156791650Y-103387400D01*
X156950400Y-103228650D01*
X156950400Y-102938091D01*
X156853727Y-102704702D01*
X156675099Y-102526073D01*
X156441710Y-102429400D01*
X156201150Y-102429400D01*
X156101625Y-102528925D01*
X156236096Y-102332121D01*
X156310561Y-101964400D01*
X156310561Y-101274831D01*
X156392399Y-100863400D01*
X156283776Y-100317311D01*
X155974441Y-99854359D01*
X154831441Y-98711359D01*
X154368489Y-98402024D01*
X153822400Y-98293401D01*
X153276311Y-98402024D01*
X152813359Y-98711359D01*
X152504024Y-99174311D01*
X152480800Y-99291067D01*
X152480800Y-96856550D01*
X153794200Y-96856550D01*
X153794200Y-97497110D01*
X153890873Y-97730499D01*
X154069502Y-97909127D01*
X154302891Y-98005800D01*
X155143450Y-98005800D01*
X155302200Y-97847050D01*
X155302200Y-96697800D01*
X155556200Y-96697800D01*
X155556200Y-97847050D01*
X155714950Y-98005800D01*
X156555509Y-98005800D01*
X156788898Y-97909127D01*
X156967527Y-97730499D01*
X157064200Y-97497110D01*
X157064200Y-96856550D01*
X156905450Y-96697800D01*
X155556200Y-96697800D01*
X155302200Y-96697800D01*
X153952950Y-96697800D01*
X153794200Y-96856550D01*
X152480800Y-96856550D01*
X152480800Y-95396582D01*
X153085119Y-94792263D01*
X153306937Y-95124238D01*
X153834774Y-95476927D01*
X153861412Y-95482226D01*
X153794200Y-95644490D01*
X153794200Y-96285050D01*
X153952950Y-96443800D01*
X155302200Y-96443800D01*
X155302200Y-96423800D01*
X155556200Y-96423800D01*
X155556200Y-96443800D01*
X156905450Y-96443800D01*
X157064200Y-96285050D01*
X157064200Y-95644490D01*
X156967527Y-95411101D01*
X156788898Y-95232473D01*
X156555509Y-95135800D01*
X155714950Y-95135800D01*
X155556202Y-95294548D01*
X155556202Y-95158757D01*
X155607863Y-95124238D01*
X155960552Y-94596401D01*
X156084400Y-93973775D01*
X156084400Y-93949983D01*
X156822412Y-93184361D01*
X158105600Y-93184361D01*
X158449126Y-93119722D01*
X158764633Y-92916699D01*
X158976296Y-92606921D01*
X159050761Y-92239200D01*
X159050761Y-91674950D01*
X159470600Y-91674950D01*
X159470600Y-92365510D01*
X159567273Y-92598899D01*
X159745902Y-92777527D01*
X159979291Y-92874200D01*
X160819850Y-92874200D01*
X160978600Y-92715450D01*
X160978600Y-91516200D01*
X159629350Y-91516200D01*
X159470600Y-91674950D01*
X159050761Y-91674950D01*
X159050761Y-90662400D01*
X159470600Y-90662400D01*
X159470600Y-91103450D01*
X159629350Y-91262200D01*
X160978600Y-91262200D01*
X160978600Y-91242200D01*
X161232600Y-91242200D01*
X161232600Y-91262200D01*
X161252600Y-91262200D01*
X161252600Y-91516200D01*
X161232600Y-91516200D01*
X161232600Y-92510850D01*
X161188304Y-92575679D01*
X161113839Y-92943400D01*
X161113839Y-93543400D01*
X161138078Y-93672219D01*
X161124735Y-93681135D01*
X159980231Y-94825639D01*
X158429200Y-94825639D01*
X158085674Y-94890278D01*
X157770167Y-95093301D01*
X157558504Y-95403079D01*
X157484039Y-95770800D01*
X157484039Y-97370800D01*
X157548678Y-97714326D01*
X157751701Y-98029833D01*
X158061479Y-98241496D01*
X158356882Y-98301316D01*
X158166161Y-98760622D01*
X158165641Y-99356762D01*
X158393293Y-99907723D01*
X158451896Y-99966429D01*
X158405405Y-99966388D01*
X157954269Y-100152794D01*
X157608807Y-100497653D01*
X157421614Y-100948464D01*
X157421188Y-101436595D01*
X157607594Y-101887731D01*
X157952453Y-102233193D01*
X158073887Y-102283617D01*
X158159025Y-102368755D01*
X158157639Y-102375600D01*
X158157639Y-104075600D01*
X158222278Y-104419126D01*
X158404399Y-104702151D01*
X158337000Y-104769550D01*
X158337000Y-105968800D01*
X159686250Y-105968800D01*
X159845000Y-105810050D01*
X159845000Y-105119490D01*
X159804105Y-105020761D01*
X161102800Y-105020761D01*
X161446326Y-104956122D01*
X161761833Y-104753099D01*
X161973496Y-104443321D01*
X162047961Y-104075600D01*
X162047961Y-102375600D01*
X161983322Y-102032074D01*
X161780299Y-101716567D01*
X161470521Y-101504904D01*
X161102800Y-101430439D01*
X160549769Y-101430439D01*
X159738782Y-100619452D01*
X159713615Y-100558543D01*
X159961162Y-100558759D01*
X160512123Y-100331107D01*
X160606394Y-100237000D01*
X163552270Y-100237000D01*
X164745709Y-101430439D01*
X163102800Y-101430439D01*
X162759274Y-101495078D01*
X162443767Y-101698101D01*
X162232104Y-102007879D01*
X162157639Y-102375600D01*
X162157639Y-104075600D01*
X162222278Y-104419126D01*
X162294110Y-104530756D01*
X162247039Y-104763200D01*
X162247039Y-106463200D01*
X162311678Y-106806726D01*
X162514701Y-107122233D01*
X162824479Y-107333896D01*
X163192200Y-107408361D01*
X165192200Y-107408361D01*
X165535726Y-107343722D01*
X165851233Y-107140699D01*
X166062896Y-106830921D01*
X166137361Y-106463200D01*
X166137361Y-104763200D01*
X166072722Y-104419674D01*
X166000890Y-104308044D01*
X166047961Y-104075600D01*
X166047961Y-103616922D01*
X166125800Y-103225600D01*
X166047961Y-102834278D01*
X166047961Y-102732691D01*
X166260239Y-102944969D01*
X166260239Y-104075600D01*
X166320947Y-104398232D01*
X166247039Y-104763200D01*
X166247039Y-106463200D01*
X166311678Y-106806726D01*
X166514701Y-107122233D01*
X166824479Y-107333896D01*
X167192200Y-107408361D01*
X169192200Y-107408361D01*
X169535726Y-107343722D01*
X169851233Y-107140699D01*
X170062896Y-106830921D01*
X170137361Y-106463200D01*
X170137361Y-104763200D01*
X170076653Y-104440568D01*
X170150561Y-104075600D01*
X170150561Y-103511350D01*
X170570400Y-103511350D01*
X170570400Y-104201910D01*
X170667073Y-104435299D01*
X170845702Y-104613927D01*
X171079091Y-104710600D01*
X171919650Y-104710600D01*
X172078400Y-104551850D01*
X172078400Y-103352600D01*
X172332400Y-103352600D01*
X172332400Y-104551850D01*
X172491150Y-104710600D01*
X173331709Y-104710600D01*
X173565098Y-104613927D01*
X173743727Y-104435299D01*
X173840400Y-104201910D01*
X173840400Y-103511350D01*
X173681650Y-103352600D01*
X172332400Y-103352600D01*
X172078400Y-103352600D01*
X170729150Y-103352600D01*
X170570400Y-103511350D01*
X170150561Y-103511350D01*
X170150561Y-102375600D01*
X170126795Y-102249290D01*
X170570400Y-102249290D01*
X170570400Y-102939850D01*
X170729150Y-103098600D01*
X172078400Y-103098600D01*
X172078400Y-101899350D01*
X172332400Y-101899350D01*
X172332400Y-103098600D01*
X173681650Y-103098600D01*
X173840400Y-102939850D01*
X173840400Y-102249290D01*
X173743727Y-102015901D01*
X173565098Y-101837273D01*
X173331709Y-101740600D01*
X172491150Y-101740600D01*
X172332400Y-101899350D01*
X172078400Y-101899350D01*
X171919650Y-101740600D01*
X171079091Y-101740600D01*
X170845702Y-101837273D01*
X170667073Y-102015901D01*
X170570400Y-102249290D01*
X170126795Y-102249290D01*
X170085922Y-102032074D01*
X169882899Y-101716567D01*
X169573121Y-101504904D01*
X169205400Y-101430439D01*
X168074769Y-101430439D01*
X164872065Y-98227735D01*
X164490219Y-97972594D01*
X164397833Y-97954217D01*
X164548698Y-97891727D01*
X164727327Y-97713099D01*
X164824000Y-97479710D01*
X164824000Y-97339150D01*
X164665252Y-97180402D01*
X164824000Y-97180402D01*
X164824000Y-97148777D01*
X164871994Y-97264931D01*
X165216853Y-97610393D01*
X165519671Y-97736134D01*
X165616166Y-97832629D01*
X165616168Y-97832632D01*
X165973683Y-98071515D01*
X166395400Y-98155400D01*
X168590739Y-98155400D01*
X168691279Y-98224096D01*
X169059000Y-98298561D01*
X171189000Y-98298561D01*
X171532526Y-98233922D01*
X171848033Y-98030899D01*
X172059696Y-97721121D01*
X172134161Y-97353400D01*
X172134161Y-96889993D01*
X172230619Y-96870806D01*
X172612465Y-96615665D01*
X173344948Y-95883182D01*
X173464931Y-95833606D01*
X173810393Y-95488747D01*
X173997586Y-95037936D01*
X173998012Y-94549805D01*
X173811606Y-94098669D01*
X173743862Y-94030807D01*
X174013593Y-93761547D01*
X174200786Y-93310736D01*
X174201212Y-92822605D01*
X174125604Y-92639621D01*
X174203291Y-92671800D01*
X175043850Y-92671800D01*
X175202600Y-92513050D01*
X175202600Y-91363800D01*
X173853350Y-91363800D01*
X173694600Y-91522550D01*
X173694600Y-92050703D01*
X173669947Y-92026007D01*
X173274761Y-91861912D01*
X173274761Y-90436800D01*
X173250995Y-90310490D01*
X173694600Y-90310490D01*
X173694600Y-90951050D01*
X173853350Y-91109800D01*
X175202600Y-91109800D01*
X175202600Y-90023050D01*
X175253400Y-89972250D01*
X175253400Y-88773000D01*
X173904150Y-88773000D01*
X173745400Y-88931750D01*
X173745400Y-89622310D01*
X173842073Y-89855699D01*
X173927375Y-89941000D01*
X173791273Y-90077101D01*
X173694600Y-90310490D01*
X173250995Y-90310490D01*
X173210122Y-90093274D01*
X173153923Y-90005938D01*
X173251096Y-89863721D01*
X173325561Y-89496000D01*
X173325561Y-87796000D01*
X173260922Y-87452474D01*
X173212850Y-87377768D01*
X173773437Y-87602003D01*
G36*
X175992494Y-69877035D02*
X175922327Y-69806745D01*
X174835164Y-69355315D01*
X174195411Y-69354757D01*
X174203001Y-69316600D01*
X174203000Y-69316595D01*
X174203000Y-68963947D01*
X174360033Y-68862899D01*
X174571696Y-68553121D01*
X174646161Y-68185400D01*
X174646161Y-66485400D01*
X174581522Y-66141874D01*
X174378499Y-65826367D01*
X174068721Y-65614704D01*
X173701000Y-65540239D01*
X172501000Y-65540239D01*
X172157474Y-65604878D01*
X171890329Y-65776781D01*
X171685358Y-65639823D01*
X171101000Y-65523587D01*
X170516642Y-65639823D01*
X170101000Y-65917546D01*
X169685358Y-65639823D01*
X169529232Y-65608768D01*
X169054232Y-65133768D01*
X168696717Y-64894885D01*
X168275000Y-64811000D01*
X158623000Y-64811000D01*
X158201283Y-64894885D01*
X157843768Y-65133768D01*
X157604885Y-65491283D01*
X157589193Y-65570174D01*
X157239042Y-65639823D01*
X156823400Y-65917546D01*
X156407758Y-65639823D01*
X155823400Y-65523587D01*
X155239042Y-65639823D01*
X154743648Y-65970835D01*
X154412636Y-66466229D01*
X154296400Y-67050587D01*
X154296400Y-67620213D01*
X154412636Y-68204571D01*
X154743648Y-68699965D01*
X155239042Y-69030977D01*
X155385681Y-69060145D01*
X156502936Y-70177400D01*
X156489398Y-70177400D01*
X156489398Y-70336148D01*
X156330650Y-70177400D01*
X155690090Y-70177400D01*
X155456701Y-70274073D01*
X155278073Y-70452702D01*
X155181400Y-70686091D01*
X155181400Y-71526650D01*
X155340150Y-71685400D01*
X156489400Y-71685400D01*
X156489400Y-71665400D01*
X156743400Y-71665400D01*
X156743400Y-71685400D01*
X157892650Y-71685400D01*
X157951793Y-71626257D01*
X158242239Y-71916703D01*
X158242239Y-72149400D01*
X158306878Y-72492926D01*
X158509901Y-72808433D01*
X158819679Y-73020096D01*
X159187400Y-73094561D01*
X159887400Y-73094561D01*
X160182862Y-73038966D01*
X160457400Y-73094561D01*
X161157400Y-73094561D01*
X161452862Y-73038966D01*
X161727400Y-73094561D01*
X162427400Y-73094561D01*
X162722862Y-73038966D01*
X162997400Y-73094561D01*
X163697400Y-73094561D01*
X164040926Y-73029922D01*
X164356433Y-72826899D01*
X164568096Y-72517121D01*
X164642561Y-72149400D01*
X164642561Y-71155200D01*
X171521135Y-71155200D01*
X171285515Y-71722636D01*
X171284488Y-72899799D01*
X171734019Y-73987749D01*
X172565673Y-74820855D01*
X173652836Y-75272285D01*
X174829999Y-75273312D01*
X175917949Y-74823781D01*
X175996252Y-74745614D01*
X176000993Y-80887830D01*
X175987334Y-80819159D01*
X175602129Y-80242658D01*
X175334194Y-80063630D01*
X175540783Y-79875358D01*
X175787086Y-79350892D01*
X175666419Y-79121000D01*
X174472600Y-79121000D01*
X174472600Y-79141000D01*
X174218600Y-79141000D01*
X174218600Y-79121000D01*
X174198600Y-79121000D01*
X174198600Y-78867000D01*
X174218600Y-78867000D01*
X174218600Y-77673845D01*
X174472600Y-77673845D01*
X174472600Y-78867000D01*
X175666419Y-78867000D01*
X175787086Y-78637108D01*
X175540783Y-78112642D01*
X175112524Y-77722355D01*
X174702490Y-77552524D01*
X174472600Y-77673845D01*
X174218600Y-77673845D01*
X173988710Y-77552524D01*
X173578676Y-77722355D01*
X173265807Y-78007484D01*
X173062129Y-77702658D01*
X172907600Y-77599405D01*
X172907600Y-77343005D01*
X172907601Y-77343000D01*
X172823715Y-76921283D01*
X172584832Y-76563768D01*
X172132467Y-76111403D01*
X172008206Y-75810669D01*
X171663347Y-75465207D01*
X171212536Y-75278014D01*
X170724405Y-75277588D01*
X170273269Y-75463994D01*
X170015338Y-75721474D01*
X168089032Y-73795168D01*
X167731517Y-73556285D01*
X167309800Y-73472400D01*
X158013400Y-73472400D01*
X157591683Y-73556285D01*
X157234168Y-73795168D01*
X157234166Y-73795171D01*
X157162098Y-73867239D01*
X155816400Y-73867239D01*
X155472874Y-73931878D01*
X155157367Y-74134901D01*
X154945704Y-74444679D01*
X154871239Y-74812400D01*
X154871239Y-75999097D01*
X154599168Y-76271168D01*
X154360285Y-76628683D01*
X154276400Y-77050400D01*
X154276400Y-78132432D01*
X154034874Y-78177878D01*
X153719367Y-78380901D01*
X153507704Y-78690679D01*
X153433239Y-79058400D01*
X153433239Y-80758400D01*
X153497878Y-81101926D01*
X153700901Y-81417433D01*
X153795079Y-81481782D01*
X153719367Y-81530501D01*
X153507704Y-81840279D01*
X153433239Y-82208000D01*
X153433239Y-83908000D01*
X153497878Y-84251526D01*
X153638515Y-84470083D01*
X153456904Y-84735879D01*
X153382439Y-85103600D01*
X153382439Y-86803600D01*
X153447078Y-87147126D01*
X153650101Y-87462633D01*
X153769620Y-87544297D01*
X153448359Y-87865559D01*
X153139024Y-88328511D01*
X153030400Y-88874600D01*
X153030400Y-90595878D01*
X152877773Y-90963444D01*
X150044759Y-93796459D01*
X149735424Y-94259411D01*
X149626800Y-94805500D01*
X149626800Y-107467400D01*
X149698194Y-107826322D01*
X149735424Y-108013489D01*
X150044759Y-108476441D01*
X151721159Y-110152842D01*
X152121065Y-110420050D01*
X152184111Y-110462176D01*
X152730200Y-110570800D01*
X158469864Y-110570800D01*
X158233669Y-110668394D01*
X157888207Y-111013253D01*
X157701014Y-111464064D01*
X157700588Y-111952195D01*
X157771932Y-112124860D01*
X157858403Y-113693021D01*
X157893160Y-113828328D01*
X157906544Y-113967384D01*
X159021841Y-117673600D01*
X137191283Y-117673600D01*
X135690161Y-116172479D01*
X135690161Y-115885400D01*
X135625522Y-115541874D01*
X135422499Y-115226367D01*
X135112721Y-115014704D01*
X134745000Y-114940239D01*
X133225000Y-114940239D01*
X132881474Y-115004878D01*
X132565967Y-115207901D01*
X132354304Y-115517679D01*
X132294600Y-115812508D01*
X132294600Y-112843848D01*
X132344478Y-113108926D01*
X132547501Y-113424433D01*
X132857279Y-113636096D01*
X133225000Y-113710561D01*
X134745000Y-113710561D01*
X135088526Y-113645922D01*
X135404033Y-113442899D01*
X135615696Y-113133121D01*
X135690161Y-112765400D01*
X135690161Y-111565400D01*
X135625522Y-111221874D01*
X135480923Y-110997161D01*
X135735000Y-110997161D01*
X136078526Y-110932522D01*
X136394033Y-110729499D01*
X136605696Y-110419721D01*
X136680161Y-110052000D01*
X136680161Y-106552000D01*
X136615522Y-106208474D01*
X136412499Y-105892967D01*
X136102721Y-105681304D01*
X135735000Y-105606839D01*
X132294600Y-105606839D01*
X132294600Y-104197161D01*
X135735000Y-104197161D01*
X136078526Y-104132522D01*
X136394033Y-103929499D01*
X136605696Y-103619721D01*
X136680161Y-103252000D01*
X136680161Y-99752000D01*
X136615522Y-99408474D01*
X136577420Y-99349262D01*
X136797442Y-99129241D01*
X137106776Y-98666289D01*
X137215400Y-98120200D01*
X137106776Y-97574110D01*
X136797442Y-97111158D01*
X136334490Y-96801824D01*
X135788400Y-96693200D01*
X135242311Y-96801824D01*
X135162000Y-96855486D01*
X135162000Y-93063267D01*
X135443233Y-92882299D01*
X135654896Y-92572521D01*
X135729361Y-92204800D01*
X135729361Y-90204800D01*
X135664722Y-89861274D01*
X135461699Y-89545767D01*
X135151921Y-89334104D01*
X134784200Y-89259639D01*
X133084200Y-89259639D01*
X132740674Y-89324278D01*
X132425167Y-89527301D01*
X132294600Y-89718391D01*
X132294600Y-88689623D01*
X132406701Y-88863833D01*
X132716479Y-89075496D01*
X133084200Y-89149961D01*
X134784200Y-89149961D01*
X135127726Y-89085322D01*
X135443233Y-88882299D01*
X135654896Y-88572521D01*
X135729361Y-88204800D01*
X135729361Y-86204800D01*
X135664722Y-85861274D01*
X135619741Y-85791372D01*
X135654896Y-85739921D01*
X135729361Y-85372200D01*
X135729361Y-83372200D01*
X135664722Y-83028674D01*
X135461699Y-82713167D01*
X135151921Y-82501504D01*
X134784200Y-82427039D01*
X133084200Y-82427039D01*
X132740674Y-82491678D01*
X132425167Y-82694701D01*
X132294600Y-82885791D01*
X132294600Y-81857023D01*
X132406701Y-82031233D01*
X132716479Y-82242896D01*
X133084200Y-82317361D01*
X134784200Y-82317361D01*
X135127726Y-82252722D01*
X135443233Y-82049699D01*
X135654896Y-81739921D01*
X135664226Y-81693850D01*
X135848064Y-81770186D01*
X136336195Y-81770612D01*
X136787331Y-81584206D01*
X137132793Y-81239347D01*
X137319986Y-80788536D01*
X137320412Y-80300405D01*
X137134006Y-79849269D01*
X136789147Y-79503807D01*
X136338336Y-79316614D01*
X136154532Y-79316454D01*
X135922000Y-79270200D01*
X135710168Y-79270200D01*
X135664722Y-79028674D01*
X135461699Y-78713167D01*
X135151921Y-78501504D01*
X134784200Y-78427039D01*
X133084200Y-78427039D01*
X132740674Y-78491678D01*
X132425167Y-78694701D01*
X132294600Y-78885791D01*
X132294600Y-72098150D01*
X155181400Y-72098150D01*
X155181400Y-72938709D01*
X155278073Y-73172098D01*
X155456701Y-73350727D01*
X155690090Y-73447400D01*
X156330650Y-73447400D01*
X156489400Y-73288650D01*
X156489400Y-71939400D01*
X156743400Y-71939400D01*
X156743400Y-73288650D01*
X156902150Y-73447400D01*
X157542710Y-73447400D01*
X157776099Y-73350727D01*
X157954727Y-73172098D01*
X158051400Y-72938709D01*
X158051400Y-72098150D01*
X157892650Y-71939400D01*
X156743400Y-71939400D01*
X156489400Y-71939400D01*
X155340150Y-71939400D01*
X155181400Y-72098150D01*
X132294600Y-72098150D01*
X132294600Y-65565936D01*
X133343036Y-66001285D01*
X134520199Y-66002312D01*
X135608149Y-65552781D01*
X136441255Y-64721127D01*
X136892685Y-63633964D01*
X136893712Y-62456801D01*
X136478178Y-61451130D01*
X142689185Y-61447676D01*
X142424770Y-62084457D01*
X142424032Y-62930630D01*
X142747166Y-63712674D01*
X143344978Y-64311531D01*
X144126457Y-64636030D01*
X144972630Y-64636768D01*
X145754674Y-64313634D01*
X146353531Y-63715822D01*
X146678030Y-62934343D01*
X146678768Y-62088170D01*
X146413265Y-61445605D01*
X175985973Y-61429157D01*
X175992494Y-69877035D01*
X175992494Y-69877035D01*
G37*
X175992494Y-69877035D02*
X175922327Y-69806745D01*
X174835164Y-69355315D01*
X174195411Y-69354757D01*
X174203001Y-69316600D01*
X174203000Y-69316595D01*
X174203000Y-68963947D01*
X174360033Y-68862899D01*
X174571696Y-68553121D01*
X174646161Y-68185400D01*
X174646161Y-66485400D01*
X174581522Y-66141874D01*
X174378499Y-65826367D01*
X174068721Y-65614704D01*
X173701000Y-65540239D01*
X172501000Y-65540239D01*
X172157474Y-65604878D01*
X171890329Y-65776781D01*
X171685358Y-65639823D01*
X171101000Y-65523587D01*
X170516642Y-65639823D01*
X170101000Y-65917546D01*
X169685358Y-65639823D01*
X169529232Y-65608768D01*
X169054232Y-65133768D01*
X168696717Y-64894885D01*
X168275000Y-64811000D01*
X158623000Y-64811000D01*
X158201283Y-64894885D01*
X157843768Y-65133768D01*
X157604885Y-65491283D01*
X157589193Y-65570174D01*
X157239042Y-65639823D01*
X156823400Y-65917546D01*
X156407758Y-65639823D01*
X155823400Y-65523587D01*
X155239042Y-65639823D01*
X154743648Y-65970835D01*
X154412636Y-66466229D01*
X154296400Y-67050587D01*
X154296400Y-67620213D01*
X154412636Y-68204571D01*
X154743648Y-68699965D01*
X155239042Y-69030977D01*
X155385681Y-69060145D01*
X156502936Y-70177400D01*
X156489398Y-70177400D01*
X156489398Y-70336148D01*
X156330650Y-70177400D01*
X155690090Y-70177400D01*
X155456701Y-70274073D01*
X155278073Y-70452702D01*
X155181400Y-70686091D01*
X155181400Y-71526650D01*
X155340150Y-71685400D01*
X156489400Y-71685400D01*
X156489400Y-71665400D01*
X156743400Y-71665400D01*
X156743400Y-71685400D01*
X157892650Y-71685400D01*
X157951793Y-71626257D01*
X158242239Y-71916703D01*
X158242239Y-72149400D01*
X158306878Y-72492926D01*
X158509901Y-72808433D01*
X158819679Y-73020096D01*
X159187400Y-73094561D01*
X159887400Y-73094561D01*
X160182862Y-73038966D01*
X160457400Y-73094561D01*
X161157400Y-73094561D01*
X161452862Y-73038966D01*
X161727400Y-73094561D01*
X162427400Y-73094561D01*
X162722862Y-73038966D01*
X162997400Y-73094561D01*
X163697400Y-73094561D01*
X164040926Y-73029922D01*
X164356433Y-72826899D01*
X164568096Y-72517121D01*
X164642561Y-72149400D01*
X164642561Y-71155200D01*
X171521135Y-71155200D01*
X171285515Y-71722636D01*
X171284488Y-72899799D01*
X171734019Y-73987749D01*
X172565673Y-74820855D01*
X173652836Y-75272285D01*
X174829999Y-75273312D01*
X175917949Y-74823781D01*
X175996252Y-74745614D01*
X176000993Y-80887830D01*
X175987334Y-80819159D01*
X175602129Y-80242658D01*
X175334194Y-80063630D01*
X175540783Y-79875358D01*
X175787086Y-79350892D01*
X175666419Y-79121000D01*
X174472600Y-79121000D01*
X174472600Y-79141000D01*
X174218600Y-79141000D01*
X174218600Y-79121000D01*
X174198600Y-79121000D01*
X174198600Y-78867000D01*
X174218600Y-78867000D01*
X174218600Y-77673845D01*
X174472600Y-77673845D01*
X174472600Y-78867000D01*
X175666419Y-78867000D01*
X175787086Y-78637108D01*
X175540783Y-78112642D01*
X175112524Y-77722355D01*
X174702490Y-77552524D01*
X174472600Y-77673845D01*
X174218600Y-77673845D01*
X173988710Y-77552524D01*
X173578676Y-77722355D01*
X173265807Y-78007484D01*
X173062129Y-77702658D01*
X172907600Y-77599405D01*
X172907600Y-77343005D01*
X172907601Y-77343000D01*
X172823715Y-76921283D01*
X172584832Y-76563768D01*
X172132467Y-76111403D01*
X172008206Y-75810669D01*
X171663347Y-75465207D01*
X171212536Y-75278014D01*
X170724405Y-75277588D01*
X170273269Y-75463994D01*
X170015338Y-75721474D01*
X168089032Y-73795168D01*
X167731517Y-73556285D01*
X167309800Y-73472400D01*
X158013400Y-73472400D01*
X157591683Y-73556285D01*
X157234168Y-73795168D01*
X157234166Y-73795171D01*
X157162098Y-73867239D01*
X155816400Y-73867239D01*
X155472874Y-73931878D01*
X155157367Y-74134901D01*
X154945704Y-74444679D01*
X154871239Y-74812400D01*
X154871239Y-75999097D01*
X154599168Y-76271168D01*
X154360285Y-76628683D01*
X154276400Y-77050400D01*
X154276400Y-78132432D01*
X154034874Y-78177878D01*
X153719367Y-78380901D01*
X153507704Y-78690679D01*
X153433239Y-79058400D01*
X153433239Y-80758400D01*
X153497878Y-81101926D01*
X153700901Y-81417433D01*
X153795079Y-81481782D01*
X153719367Y-81530501D01*
X153507704Y-81840279D01*
X153433239Y-82208000D01*
X153433239Y-83908000D01*
X153497878Y-84251526D01*
X153638515Y-84470083D01*
X153456904Y-84735879D01*
X153382439Y-85103600D01*
X153382439Y-86803600D01*
X153447078Y-87147126D01*
X153650101Y-87462633D01*
X153769620Y-87544297D01*
X153448359Y-87865559D01*
X153139024Y-88328511D01*
X153030400Y-88874600D01*
X153030400Y-90595878D01*
X152877773Y-90963444D01*
X150044759Y-93796459D01*
X149735424Y-94259411D01*
X149626800Y-94805500D01*
X149626800Y-107467400D01*
X149698194Y-107826322D01*
X149735424Y-108013489D01*
X150044759Y-108476441D01*
X151721159Y-110152842D01*
X152121065Y-110420050D01*
X152184111Y-110462176D01*
X152730200Y-110570800D01*
X158469864Y-110570800D01*
X158233669Y-110668394D01*
X157888207Y-111013253D01*
X157701014Y-111464064D01*
X157700588Y-111952195D01*
X157771932Y-112124860D01*
X157858403Y-113693021D01*
X157893160Y-113828328D01*
X157906544Y-113967384D01*
X159021841Y-117673600D01*
X137191283Y-117673600D01*
X135690161Y-116172479D01*
X135690161Y-115885400D01*
X135625522Y-115541874D01*
X135422499Y-115226367D01*
X135112721Y-115014704D01*
X134745000Y-114940239D01*
X133225000Y-114940239D01*
X132881474Y-115004878D01*
X132565967Y-115207901D01*
X132354304Y-115517679D01*
X132294600Y-115812508D01*
X132294600Y-112843848D01*
X132344478Y-113108926D01*
X132547501Y-113424433D01*
X132857279Y-113636096D01*
X133225000Y-113710561D01*
X134745000Y-113710561D01*
X135088526Y-113645922D01*
X135404033Y-113442899D01*
X135615696Y-113133121D01*
X135690161Y-112765400D01*
X135690161Y-111565400D01*
X135625522Y-111221874D01*
X135480923Y-110997161D01*
X135735000Y-110997161D01*
X136078526Y-110932522D01*
X136394033Y-110729499D01*
X136605696Y-110419721D01*
X136680161Y-110052000D01*
X136680161Y-106552000D01*
X136615522Y-106208474D01*
X136412499Y-105892967D01*
X136102721Y-105681304D01*
X135735000Y-105606839D01*
X132294600Y-105606839D01*
X132294600Y-104197161D01*
X135735000Y-104197161D01*
X136078526Y-104132522D01*
X136394033Y-103929499D01*
X136605696Y-103619721D01*
X136680161Y-103252000D01*
X136680161Y-99752000D01*
X136615522Y-99408474D01*
X136577420Y-99349262D01*
X136797442Y-99129241D01*
X137106776Y-98666289D01*
X137215400Y-98120200D01*
X137106776Y-97574110D01*
X136797442Y-97111158D01*
X136334490Y-96801824D01*
X135788400Y-96693200D01*
X135242311Y-96801824D01*
X135162000Y-96855486D01*
X135162000Y-93063267D01*
X135443233Y-92882299D01*
X135654896Y-92572521D01*
X135729361Y-92204800D01*
X135729361Y-90204800D01*
X135664722Y-89861274D01*
X135461699Y-89545767D01*
X135151921Y-89334104D01*
X134784200Y-89259639D01*
X133084200Y-89259639D01*
X132740674Y-89324278D01*
X132425167Y-89527301D01*
X132294600Y-89718391D01*
X132294600Y-88689623D01*
X132406701Y-88863833D01*
X132716479Y-89075496D01*
X133084200Y-89149961D01*
X134784200Y-89149961D01*
X135127726Y-89085322D01*
X135443233Y-88882299D01*
X135654896Y-88572521D01*
X135729361Y-88204800D01*
X135729361Y-86204800D01*
X135664722Y-85861274D01*
X135619741Y-85791372D01*
X135654896Y-85739921D01*
X135729361Y-85372200D01*
X135729361Y-83372200D01*
X135664722Y-83028674D01*
X135461699Y-82713167D01*
X135151921Y-82501504D01*
X134784200Y-82427039D01*
X133084200Y-82427039D01*
X132740674Y-82491678D01*
X132425167Y-82694701D01*
X132294600Y-82885791D01*
X132294600Y-81857023D01*
X132406701Y-82031233D01*
X132716479Y-82242896D01*
X133084200Y-82317361D01*
X134784200Y-82317361D01*
X135127726Y-82252722D01*
X135443233Y-82049699D01*
X135654896Y-81739921D01*
X135664226Y-81693850D01*
X135848064Y-81770186D01*
X136336195Y-81770612D01*
X136787331Y-81584206D01*
X137132793Y-81239347D01*
X137319986Y-80788536D01*
X137320412Y-80300405D01*
X137134006Y-79849269D01*
X136789147Y-79503807D01*
X136338336Y-79316614D01*
X136154532Y-79316454D01*
X135922000Y-79270200D01*
X135710168Y-79270200D01*
X135664722Y-79028674D01*
X135461699Y-78713167D01*
X135151921Y-78501504D01*
X134784200Y-78427039D01*
X133084200Y-78427039D01*
X132740674Y-78491678D01*
X132425167Y-78694701D01*
X132294600Y-78885791D01*
X132294600Y-72098150D01*
X155181400Y-72098150D01*
X155181400Y-72938709D01*
X155278073Y-73172098D01*
X155456701Y-73350727D01*
X155690090Y-73447400D01*
X156330650Y-73447400D01*
X156489400Y-73288650D01*
X156489400Y-71939400D01*
X156743400Y-71939400D01*
X156743400Y-73288650D01*
X156902150Y-73447400D01*
X157542710Y-73447400D01*
X157776099Y-73350727D01*
X157954727Y-73172098D01*
X158051400Y-72938709D01*
X158051400Y-72098150D01*
X157892650Y-71939400D01*
X156743400Y-71939400D01*
X156489400Y-71939400D01*
X155340150Y-71939400D01*
X155181400Y-72098150D01*
X132294600Y-72098150D01*
X132294600Y-65565936D01*
X133343036Y-66001285D01*
X134520199Y-66002312D01*
X135608149Y-65552781D01*
X136441255Y-64721127D01*
X136892685Y-63633964D01*
X136893712Y-62456801D01*
X136478178Y-61451130D01*
X142689185Y-61447676D01*
X142424770Y-62084457D01*
X142424032Y-62930630D01*
X142747166Y-63712674D01*
X143344978Y-64311531D01*
X144126457Y-64636030D01*
X144972630Y-64636768D01*
X145754674Y-64313634D01*
X146353531Y-63715822D01*
X146678030Y-62934343D01*
X146678768Y-62088170D01*
X146413265Y-61445605D01*
X175985973Y-61429157D01*
X175992494Y-69877035D01*
G36*
X163271000Y-97180400D02*
X163251000Y-97180400D01*
X163251000Y-97200400D01*
X162997000Y-97200400D01*
X162997000Y-97180400D01*
X162977000Y-97180400D01*
X162977000Y-97028561D01*
X163271000Y-97028561D01*
X163271000Y-97180400D01*
X163271000Y-97180400D01*
G37*
X163271000Y-97180400D02*
X163251000Y-97180400D01*
X163251000Y-97200400D01*
X162997000Y-97200400D01*
X162997000Y-97180400D01*
X162977000Y-97180400D01*
X162977000Y-97028561D01*
X163271000Y-97028561D01*
X163271000Y-97180400D01*
G36*
X158552400Y-76193650D02*
X158711150Y-76352400D01*
X159410400Y-76352400D01*
X159410400Y-76332400D01*
X159512239Y-76332400D01*
X159512239Y-77229400D01*
X159576878Y-77572926D01*
X159705400Y-77772655D01*
X159705400Y-78113239D01*
X158378400Y-78113239D01*
X158034874Y-78177878D01*
X157719367Y-78380901D01*
X157507704Y-78690679D01*
X157433239Y-79058400D01*
X157433239Y-80758400D01*
X157497878Y-81101926D01*
X157700901Y-81417433D01*
X157795079Y-81481782D01*
X157719367Y-81530501D01*
X157507704Y-81840279D01*
X157433239Y-82208000D01*
X157433239Y-83908000D01*
X157497878Y-84251526D01*
X157638515Y-84470083D01*
X157456904Y-84735879D01*
X157382439Y-85103600D01*
X157382439Y-86803600D01*
X157398467Y-86888779D01*
X157266600Y-86834023D01*
X157272761Y-86803600D01*
X157272761Y-85103600D01*
X157208122Y-84760074D01*
X157067485Y-84541517D01*
X157249096Y-84275721D01*
X157323561Y-83908000D01*
X157323561Y-82208000D01*
X157258922Y-81864474D01*
X157055899Y-81548967D01*
X156961721Y-81484618D01*
X157037433Y-81435899D01*
X157249096Y-81126121D01*
X157323561Y-80758400D01*
X157323561Y-79058400D01*
X157258922Y-78714874D01*
X157055899Y-78399367D01*
X156746121Y-78187704D01*
X156480400Y-78133894D01*
X156480400Y-77757561D01*
X157416400Y-77757561D01*
X157759926Y-77692922D01*
X158075433Y-77489899D01*
X158287096Y-77180121D01*
X158329831Y-76969090D01*
X158345715Y-76945317D01*
X158381552Y-76765150D01*
X158552400Y-76765150D01*
X158552400Y-77355710D01*
X158649073Y-77589099D01*
X158827702Y-77767727D01*
X159061091Y-77864400D01*
X159251650Y-77864400D01*
X159410400Y-77705650D01*
X159410400Y-76606400D01*
X158711150Y-76606400D01*
X158552400Y-76765150D01*
X158381552Y-76765150D01*
X158429601Y-76523600D01*
X158361561Y-76181545D01*
X158361561Y-75784702D01*
X158469863Y-75676400D01*
X158552400Y-75676400D01*
X158552400Y-76193650D01*
X158552400Y-76193650D01*
G37*
X158552400Y-76193650D02*
X158711150Y-76352400D01*
X159410400Y-76352400D01*
X159410400Y-76332400D01*
X159512239Y-76332400D01*
X159512239Y-77229400D01*
X159576878Y-77572926D01*
X159705400Y-77772655D01*
X159705400Y-78113239D01*
X158378400Y-78113239D01*
X158034874Y-78177878D01*
X157719367Y-78380901D01*
X157507704Y-78690679D01*
X157433239Y-79058400D01*
X157433239Y-80758400D01*
X157497878Y-81101926D01*
X157700901Y-81417433D01*
X157795079Y-81481782D01*
X157719367Y-81530501D01*
X157507704Y-81840279D01*
X157433239Y-82208000D01*
X157433239Y-83908000D01*
X157497878Y-84251526D01*
X157638515Y-84470083D01*
X157456904Y-84735879D01*
X157382439Y-85103600D01*
X157382439Y-86803600D01*
X157398467Y-86888779D01*
X157266600Y-86834023D01*
X157272761Y-86803600D01*
X157272761Y-85103600D01*
X157208122Y-84760074D01*
X157067485Y-84541517D01*
X157249096Y-84275721D01*
X157323561Y-83908000D01*
X157323561Y-82208000D01*
X157258922Y-81864474D01*
X157055899Y-81548967D01*
X156961721Y-81484618D01*
X157037433Y-81435899D01*
X157249096Y-81126121D01*
X157323561Y-80758400D01*
X157323561Y-79058400D01*
X157258922Y-78714874D01*
X157055899Y-78399367D01*
X156746121Y-78187704D01*
X156480400Y-78133894D01*
X156480400Y-77757561D01*
X157416400Y-77757561D01*
X157759926Y-77692922D01*
X158075433Y-77489899D01*
X158287096Y-77180121D01*
X158329831Y-76969090D01*
X158345715Y-76945317D01*
X158381552Y-76765150D01*
X158552400Y-76765150D01*
X158552400Y-77355710D01*
X158649073Y-77589099D01*
X158827702Y-77767727D01*
X159061091Y-77864400D01*
X159251650Y-77864400D01*
X159410400Y-77705650D01*
X159410400Y-76606400D01*
X158711150Y-76606400D01*
X158552400Y-76765150D01*
X158381552Y-76765150D01*
X158429601Y-76523600D01*
X158361561Y-76181545D01*
X158361561Y-75784702D01*
X158469863Y-75676400D01*
X158552400Y-75676400D01*
X158552400Y-76193650D01*
M02*
