G04 #@! TF.FileFunction,Legend,Bot*
%FSLAX46Y46*%
G04 Gerber Fmt 4.6, Leading zero omitted, Abs format (unit mm)*
G04 Created by KiCad (PCBNEW 4.0.7) date 03/15/18 17:26:36*
%MOMM*%
%LPD*%
G01*
G04 APERTURE LIST*
%ADD10C,0.100000*%
%ADD11C,0.300000*%
G04 APERTURE END LIST*
D10*
D11*
X147261971Y-69025112D02*
X145761971Y-69025112D01*
X147261971Y-69667969D02*
X146476257Y-69667969D01*
X146333400Y-69596540D01*
X146261971Y-69453683D01*
X146261971Y-69239398D01*
X146333400Y-69096540D01*
X146404829Y-69025112D01*
X146261971Y-70167969D02*
X146261971Y-70739398D01*
X145761971Y-70382255D02*
X147047686Y-70382255D01*
X147190543Y-70453683D01*
X147261971Y-70596541D01*
X147261971Y-70739398D01*
X146261971Y-71025112D02*
X146261971Y-71596541D01*
X145761971Y-71239398D02*
X147047686Y-71239398D01*
X147190543Y-71310826D01*
X147261971Y-71453684D01*
X147261971Y-71596541D01*
X146261971Y-72096541D02*
X147761971Y-72096541D01*
X146333400Y-72096541D02*
X146261971Y-72239398D01*
X146261971Y-72525112D01*
X146333400Y-72667969D01*
X146404829Y-72739398D01*
X146547686Y-72810827D01*
X146976257Y-72810827D01*
X147119114Y-72739398D01*
X147190543Y-72667969D01*
X147261971Y-72525112D01*
X147261971Y-72239398D01*
X147190543Y-72096541D01*
X147190543Y-73382255D02*
X147261971Y-73525112D01*
X147261971Y-73810827D01*
X147190543Y-73953684D01*
X147047686Y-74025112D01*
X146976257Y-74025112D01*
X146833400Y-73953684D01*
X146761971Y-73810827D01*
X146761971Y-73596541D01*
X146690543Y-73453684D01*
X146547686Y-73382255D01*
X146476257Y-73382255D01*
X146333400Y-73453684D01*
X146261971Y-73596541D01*
X146261971Y-73810827D01*
X146333400Y-73953684D01*
X147119114Y-74667970D02*
X147190543Y-74739398D01*
X147261971Y-74667970D01*
X147190543Y-74596541D01*
X147119114Y-74667970D01*
X147261971Y-74667970D01*
X146333400Y-74667970D02*
X146404829Y-74739398D01*
X146476257Y-74667970D01*
X146404829Y-74596541D01*
X146333400Y-74667970D01*
X146476257Y-74667970D01*
X145690543Y-76453684D02*
X147619114Y-75167970D01*
X145690543Y-78025113D02*
X147619114Y-76739399D01*
X146261971Y-79167971D02*
X147476257Y-79167971D01*
X147619114Y-79096542D01*
X147690543Y-79025114D01*
X147761971Y-78882257D01*
X147761971Y-78667971D01*
X147690543Y-78525114D01*
X147190543Y-79167971D02*
X147261971Y-79025114D01*
X147261971Y-78739400D01*
X147190543Y-78596542D01*
X147119114Y-78525114D01*
X146976257Y-78453685D01*
X146547686Y-78453685D01*
X146404829Y-78525114D01*
X146333400Y-78596542D01*
X146261971Y-78739400D01*
X146261971Y-79025114D01*
X146333400Y-79167971D01*
X147261971Y-79882257D02*
X146261971Y-79882257D01*
X145761971Y-79882257D02*
X145833400Y-79810828D01*
X145904829Y-79882257D01*
X145833400Y-79953685D01*
X145761971Y-79882257D01*
X145904829Y-79882257D01*
X146261971Y-80382257D02*
X146261971Y-80953686D01*
X145761971Y-80596543D02*
X147047686Y-80596543D01*
X147190543Y-80667971D01*
X147261971Y-80810829D01*
X147261971Y-80953686D01*
X147261971Y-81453686D02*
X145761971Y-81453686D01*
X147261971Y-82096543D02*
X146476257Y-82096543D01*
X146333400Y-82025114D01*
X146261971Y-81882257D01*
X146261971Y-81667972D01*
X146333400Y-81525114D01*
X146404829Y-81453686D01*
X146261971Y-83453686D02*
X147261971Y-83453686D01*
X146261971Y-82810829D02*
X147047686Y-82810829D01*
X147190543Y-82882257D01*
X147261971Y-83025115D01*
X147261971Y-83239400D01*
X147190543Y-83382257D01*
X147119114Y-83453686D01*
X147261971Y-84167972D02*
X145761971Y-84167972D01*
X146333400Y-84167972D02*
X146261971Y-84310829D01*
X146261971Y-84596543D01*
X146333400Y-84739400D01*
X146404829Y-84810829D01*
X146547686Y-84882258D01*
X146976257Y-84882258D01*
X147119114Y-84810829D01*
X147190543Y-84739400D01*
X147261971Y-84596543D01*
X147261971Y-84310829D01*
X147190543Y-84167972D01*
X147119114Y-85525115D02*
X147190543Y-85596543D01*
X147261971Y-85525115D01*
X147190543Y-85453686D01*
X147119114Y-85525115D01*
X147261971Y-85525115D01*
X147190543Y-86882258D02*
X147261971Y-86739401D01*
X147261971Y-86453687D01*
X147190543Y-86310829D01*
X147119114Y-86239401D01*
X146976257Y-86167972D01*
X146547686Y-86167972D01*
X146404829Y-86239401D01*
X146333400Y-86310829D01*
X146261971Y-86453687D01*
X146261971Y-86739401D01*
X146333400Y-86882258D01*
X147261971Y-87739401D02*
X147190543Y-87596543D01*
X147119114Y-87525115D01*
X146976257Y-87453686D01*
X146547686Y-87453686D01*
X146404829Y-87525115D01*
X146333400Y-87596543D01*
X146261971Y-87739401D01*
X146261971Y-87953686D01*
X146333400Y-88096543D01*
X146404829Y-88167972D01*
X146547686Y-88239401D01*
X146976257Y-88239401D01*
X147119114Y-88167972D01*
X147190543Y-88096543D01*
X147261971Y-87953686D01*
X147261971Y-87739401D01*
X147261971Y-88882258D02*
X146261971Y-88882258D01*
X146404829Y-88882258D02*
X146333400Y-88953686D01*
X146261971Y-89096544D01*
X146261971Y-89310829D01*
X146333400Y-89453686D01*
X146476257Y-89525115D01*
X147261971Y-89525115D01*
X146476257Y-89525115D02*
X146333400Y-89596544D01*
X146261971Y-89739401D01*
X146261971Y-89953686D01*
X146333400Y-90096544D01*
X146476257Y-90167972D01*
X147261971Y-90167972D01*
X145690543Y-91953686D02*
X147619114Y-90667972D01*
X147190543Y-92382258D02*
X147261971Y-92525115D01*
X147261971Y-92810830D01*
X147190543Y-92953687D01*
X147047686Y-93025115D01*
X146976257Y-93025115D01*
X146833400Y-92953687D01*
X146761971Y-92810830D01*
X146761971Y-92596544D01*
X146690543Y-92453687D01*
X146547686Y-92382258D01*
X146476257Y-92382258D01*
X146333400Y-92453687D01*
X146261971Y-92596544D01*
X146261971Y-92810830D01*
X146333400Y-92953687D01*
X146261971Y-93453687D02*
X146261971Y-94025116D01*
X145761971Y-93667973D02*
X147047686Y-93667973D01*
X147190543Y-93739401D01*
X147261971Y-93882259D01*
X147261971Y-94025116D01*
X146261971Y-95167973D02*
X147261971Y-95167973D01*
X146261971Y-94525116D02*
X147047686Y-94525116D01*
X147190543Y-94596544D01*
X147261971Y-94739402D01*
X147261971Y-94953687D01*
X147190543Y-95096544D01*
X147119114Y-95167973D01*
X147261971Y-96525116D02*
X146476257Y-96525116D01*
X146333400Y-96453687D01*
X146261971Y-96310830D01*
X146261971Y-96025116D01*
X146333400Y-95882259D01*
X147190543Y-96525116D02*
X147261971Y-96382259D01*
X147261971Y-96025116D01*
X147190543Y-95882259D01*
X147047686Y-95810830D01*
X146904829Y-95810830D01*
X146761971Y-95882259D01*
X146690543Y-96025116D01*
X146690543Y-96382259D01*
X146619114Y-96525116D01*
X147261971Y-97239402D02*
X146261971Y-97239402D01*
X146547686Y-97239402D02*
X146404829Y-97310830D01*
X146333400Y-97382259D01*
X146261971Y-97525116D01*
X146261971Y-97667973D01*
X146261971Y-97953687D02*
X146261971Y-98525116D01*
X145761971Y-98167973D02*
X147047686Y-98167973D01*
X147190543Y-98239401D01*
X147261971Y-98382259D01*
X147261971Y-98525116D01*
X146261971Y-99025116D02*
X147761971Y-99025116D01*
X146333400Y-99025116D02*
X146261971Y-99167973D01*
X146261971Y-99453687D01*
X146333400Y-99596544D01*
X146404829Y-99667973D01*
X146547686Y-99739402D01*
X146976257Y-99739402D01*
X147119114Y-99667973D01*
X147190543Y-99596544D01*
X147261971Y-99453687D01*
X147261971Y-99167973D01*
X147190543Y-99025116D01*
X147261971Y-100382259D02*
X146261971Y-100382259D01*
X145761971Y-100382259D02*
X145833400Y-100310830D01*
X145904829Y-100382259D01*
X145833400Y-100453687D01*
X145761971Y-100382259D01*
X145904829Y-100382259D01*
X146261971Y-100882259D02*
X146261971Y-101453688D01*
X145761971Y-101096545D02*
X147047686Y-101096545D01*
X147190543Y-101167973D01*
X147261971Y-101310831D01*
X147261971Y-101453688D01*
X146261971Y-101739402D02*
X146261971Y-102310831D01*
X145761971Y-101953688D02*
X147047686Y-101953688D01*
X147190543Y-102025116D01*
X147261971Y-102167974D01*
X147261971Y-102310831D01*
X147261971Y-103453688D02*
X146476257Y-103453688D01*
X146333400Y-103382259D01*
X146261971Y-103239402D01*
X146261971Y-102953688D01*
X146333400Y-102810831D01*
X147190543Y-103453688D02*
X147261971Y-103310831D01*
X147261971Y-102953688D01*
X147190543Y-102810831D01*
X147047686Y-102739402D01*
X146904829Y-102739402D01*
X146761971Y-102810831D01*
X146690543Y-102953688D01*
X146690543Y-103310831D01*
X146619114Y-103453688D01*
X146261971Y-104025117D02*
X147261971Y-104310831D01*
X146547686Y-104596545D01*
X147261971Y-104882260D01*
X146261971Y-105167974D01*
X147261971Y-106382260D02*
X146476257Y-106382260D01*
X146333400Y-106310831D01*
X146261971Y-106167974D01*
X146261971Y-105882260D01*
X146333400Y-105739403D01*
X147190543Y-106382260D02*
X147261971Y-106239403D01*
X147261971Y-105882260D01*
X147190543Y-105739403D01*
X147047686Y-105667974D01*
X146904829Y-105667974D01*
X146761971Y-105739403D01*
X146690543Y-105882260D01*
X146690543Y-106239403D01*
X146619114Y-106382260D01*
X146261971Y-106953689D02*
X147261971Y-107310832D01*
X146261971Y-107667974D02*
X147261971Y-107310832D01*
X147619114Y-107167974D01*
X147690543Y-107096546D01*
X147761971Y-106953689D01*
X145690543Y-109310831D02*
X147619114Y-108025117D01*
X147261971Y-110453689D02*
X145761971Y-110453689D01*
X147190543Y-110453689D02*
X147261971Y-110310832D01*
X147261971Y-110025118D01*
X147190543Y-109882260D01*
X147119114Y-109810832D01*
X146976257Y-109739403D01*
X146547686Y-109739403D01*
X146404829Y-109810832D01*
X146333400Y-109882260D01*
X146261971Y-110025118D01*
X146261971Y-110310832D01*
X146333400Y-110453689D01*
X147261971Y-111167975D02*
X146261971Y-111167975D01*
X145761971Y-111167975D02*
X145833400Y-111096546D01*
X145904829Y-111167975D01*
X145833400Y-111239403D01*
X145761971Y-111167975D01*
X145904829Y-111167975D01*
X146261971Y-111739404D02*
X147261971Y-112096547D01*
X146261971Y-112453689D02*
X147261971Y-112096547D01*
X147619114Y-111953689D01*
X147690543Y-111882261D01*
X147761971Y-111739404D01*
X146476257Y-113525118D02*
X146547686Y-113739404D01*
X146619114Y-113810832D01*
X146761971Y-113882261D01*
X146976257Y-113882261D01*
X147119114Y-113810832D01*
X147190543Y-113739404D01*
X147261971Y-113596546D01*
X147261971Y-113025118D01*
X145761971Y-113025118D01*
X145761971Y-113525118D01*
X145833400Y-113667975D01*
X145904829Y-113739404D01*
X146047686Y-113810832D01*
X146190543Y-113810832D01*
X146333400Y-113739404D01*
X146404829Y-113667975D01*
X146476257Y-113525118D01*
X146476257Y-113025118D01*
X147261971Y-114525118D02*
X145761971Y-114525118D01*
X146833400Y-115025118D01*
X145761971Y-115525118D01*
X147261971Y-115525118D01*
X147190543Y-116167975D02*
X147261971Y-116382261D01*
X147261971Y-116739404D01*
X147190543Y-116882261D01*
X147119114Y-116953690D01*
X146976257Y-117025118D01*
X146833400Y-117025118D01*
X146690543Y-116953690D01*
X146619114Y-116882261D01*
X146547686Y-116739404D01*
X146476257Y-116453690D01*
X146404829Y-116310832D01*
X146333400Y-116239404D01*
X146190543Y-116167975D01*
X146047686Y-116167975D01*
X145904829Y-116239404D01*
X145833400Y-116310832D01*
X145761971Y-116453690D01*
X145761971Y-116810832D01*
X145833400Y-117025118D01*
X139009600Y-81788029D02*
X138938171Y-81716601D01*
X138723886Y-81573744D01*
X138581029Y-81502315D01*
X138366743Y-81430886D01*
X138009600Y-81359458D01*
X137723886Y-81359458D01*
X137366743Y-81430886D01*
X137152457Y-81502315D01*
X137009600Y-81573744D01*
X136795314Y-81716601D01*
X136723886Y-81788029D01*
X138366743Y-83002315D02*
X138438171Y-82859458D01*
X138438171Y-82573744D01*
X138366743Y-82430886D01*
X138295314Y-82359458D01*
X138152457Y-82288029D01*
X137723886Y-82288029D01*
X137581029Y-82359458D01*
X137509600Y-82430886D01*
X137438171Y-82573744D01*
X137438171Y-82859458D01*
X137509600Y-83002315D01*
X139009600Y-83502315D02*
X138938171Y-83573743D01*
X138723886Y-83716600D01*
X138581029Y-83788029D01*
X138366743Y-83859458D01*
X138009600Y-83930886D01*
X137723886Y-83930886D01*
X137366743Y-83859458D01*
X137152457Y-83788029D01*
X137009600Y-83716600D01*
X136795314Y-83573743D01*
X136723886Y-83502315D01*
X137081029Y-84573743D02*
X137009600Y-84645172D01*
X136938171Y-84788029D01*
X136938171Y-85145172D01*
X137009600Y-85288029D01*
X137081029Y-85359458D01*
X137223886Y-85430886D01*
X137366743Y-85430886D01*
X137581029Y-85359458D01*
X138438171Y-84502315D01*
X138438171Y-85430886D01*
X136938171Y-86359457D02*
X136938171Y-86502314D01*
X137009600Y-86645171D01*
X137081029Y-86716600D01*
X137223886Y-86788029D01*
X137509600Y-86859457D01*
X137866743Y-86859457D01*
X138152457Y-86788029D01*
X138295314Y-86716600D01*
X138366743Y-86645171D01*
X138438171Y-86502314D01*
X138438171Y-86359457D01*
X138366743Y-86216600D01*
X138295314Y-86145171D01*
X138152457Y-86073743D01*
X137866743Y-86002314D01*
X137509600Y-86002314D01*
X137223886Y-86073743D01*
X137081029Y-86145171D01*
X137009600Y-86216600D01*
X136938171Y-86359457D01*
X138438171Y-88288028D02*
X138438171Y-87430885D01*
X138438171Y-87859457D02*
X136938171Y-87859457D01*
X137152457Y-87716600D01*
X137295314Y-87573742D01*
X137366743Y-87430885D01*
X136938171Y-88788028D02*
X136938171Y-89788028D01*
X138438171Y-89145171D01*
X138366743Y-91430884D02*
X138438171Y-91645170D01*
X138438171Y-92002313D01*
X138366743Y-92145170D01*
X138295314Y-92216599D01*
X138152457Y-92288027D01*
X138009600Y-92288027D01*
X137866743Y-92216599D01*
X137795314Y-92145170D01*
X137723886Y-92002313D01*
X137652457Y-91716599D01*
X137581029Y-91573741D01*
X137509600Y-91502313D01*
X137366743Y-91430884D01*
X137223886Y-91430884D01*
X137081029Y-91502313D01*
X137009600Y-91573741D01*
X136938171Y-91716599D01*
X136938171Y-92073741D01*
X137009600Y-92288027D01*
X137438171Y-92716598D02*
X137438171Y-93288027D01*
X136938171Y-92930884D02*
X138223886Y-92930884D01*
X138366743Y-93002312D01*
X138438171Y-93145170D01*
X138438171Y-93288027D01*
X137438171Y-94430884D02*
X138438171Y-94430884D01*
X137438171Y-93788027D02*
X138223886Y-93788027D01*
X138366743Y-93859455D01*
X138438171Y-94002313D01*
X138438171Y-94216598D01*
X138366743Y-94359455D01*
X138295314Y-94430884D01*
X138438171Y-95788027D02*
X137652457Y-95788027D01*
X137509600Y-95716598D01*
X137438171Y-95573741D01*
X137438171Y-95288027D01*
X137509600Y-95145170D01*
X138366743Y-95788027D02*
X138438171Y-95645170D01*
X138438171Y-95288027D01*
X138366743Y-95145170D01*
X138223886Y-95073741D01*
X138081029Y-95073741D01*
X137938171Y-95145170D01*
X137866743Y-95288027D01*
X137866743Y-95645170D01*
X137795314Y-95788027D01*
X138438171Y-96502313D02*
X137438171Y-96502313D01*
X137723886Y-96502313D02*
X137581029Y-96573741D01*
X137509600Y-96645170D01*
X137438171Y-96788027D01*
X137438171Y-96930884D01*
X137438171Y-97216598D02*
X137438171Y-97788027D01*
X136938171Y-97430884D02*
X138223886Y-97430884D01*
X138366743Y-97502312D01*
X138438171Y-97645170D01*
X138438171Y-97788027D01*
X138438171Y-99430884D02*
X136938171Y-99430884D01*
X136938171Y-100002312D01*
X137009600Y-100145170D01*
X137081029Y-100216598D01*
X137223886Y-100288027D01*
X137438171Y-100288027D01*
X137581029Y-100216598D01*
X137652457Y-100145170D01*
X137723886Y-100002312D01*
X137723886Y-99430884D01*
X138438171Y-100930884D02*
X137438171Y-100930884D01*
X136938171Y-100930884D02*
X137009600Y-100859455D01*
X137081029Y-100930884D01*
X137009600Y-101002312D01*
X136938171Y-100930884D01*
X137081029Y-100930884D01*
X137438171Y-101430884D02*
X137438171Y-102002313D01*
X136938171Y-101645170D02*
X138223886Y-101645170D01*
X138366743Y-101716598D01*
X138438171Y-101859456D01*
X138438171Y-102002313D01*
X137438171Y-102288027D02*
X137438171Y-102859456D01*
X136938171Y-102502313D02*
X138223886Y-102502313D01*
X138366743Y-102573741D01*
X138438171Y-102716599D01*
X138438171Y-102859456D01*
X138438171Y-104002313D02*
X137652457Y-104002313D01*
X137509600Y-103930884D01*
X137438171Y-103788027D01*
X137438171Y-103502313D01*
X137509600Y-103359456D01*
X138366743Y-104002313D02*
X138438171Y-103859456D01*
X138438171Y-103502313D01*
X138366743Y-103359456D01*
X138223886Y-103288027D01*
X138081029Y-103288027D01*
X137938171Y-103359456D01*
X137866743Y-103502313D01*
X137866743Y-103859456D01*
X137795314Y-104002313D01*
X137438171Y-104573742D02*
X138438171Y-104859456D01*
X137723886Y-105145170D01*
X138438171Y-105430885D01*
X137438171Y-105716599D01*
X138438171Y-106930885D02*
X137652457Y-106930885D01*
X137509600Y-106859456D01*
X137438171Y-106716599D01*
X137438171Y-106430885D01*
X137509600Y-106288028D01*
X138366743Y-106930885D02*
X138438171Y-106788028D01*
X138438171Y-106430885D01*
X138366743Y-106288028D01*
X138223886Y-106216599D01*
X138081029Y-106216599D01*
X137938171Y-106288028D01*
X137866743Y-106430885D01*
X137866743Y-106788028D01*
X137795314Y-106930885D01*
X137438171Y-107502314D02*
X138438171Y-107859457D01*
X137438171Y-108216599D02*
X138438171Y-107859457D01*
X138795314Y-107716599D01*
X138866743Y-107645171D01*
X138938171Y-107502314D01*
X142538171Y-81145171D02*
X142538171Y-82216600D01*
X141895314Y-81573743D02*
X143823886Y-81145171D01*
X143181029Y-82073743D02*
X143181029Y-81002314D01*
X143823886Y-81645171D02*
X141895314Y-82073743D01*
X143538171Y-82716600D02*
X142038171Y-82716600D01*
X143109600Y-83216600D01*
X142038171Y-83716600D01*
X143538171Y-83716600D01*
X143538171Y-85073743D02*
X142752457Y-85073743D01*
X142609600Y-85002314D01*
X142538171Y-84859457D01*
X142538171Y-84573743D01*
X142609600Y-84430886D01*
X143466743Y-85073743D02*
X143538171Y-84930886D01*
X143538171Y-84573743D01*
X143466743Y-84430886D01*
X143323886Y-84359457D01*
X143181029Y-84359457D01*
X143038171Y-84430886D01*
X142966743Y-84573743D01*
X142966743Y-84930886D01*
X142895314Y-85073743D01*
X143538171Y-86430886D02*
X142038171Y-86430886D01*
X143466743Y-86430886D02*
X143538171Y-86288029D01*
X143538171Y-86002315D01*
X143466743Y-85859457D01*
X143395314Y-85788029D01*
X143252457Y-85716600D01*
X142823886Y-85716600D01*
X142681029Y-85788029D01*
X142609600Y-85859457D01*
X142538171Y-86002315D01*
X142538171Y-86288029D01*
X142609600Y-86430886D01*
X143466743Y-87716600D02*
X143538171Y-87573743D01*
X143538171Y-87288029D01*
X143466743Y-87145172D01*
X143323886Y-87073743D01*
X142752457Y-87073743D01*
X142609600Y-87145172D01*
X142538171Y-87288029D01*
X142538171Y-87573743D01*
X142609600Y-87716600D01*
X142752457Y-87788029D01*
X142895314Y-87788029D01*
X143038171Y-87073743D01*
X143538171Y-88430886D02*
X142038171Y-88430886D01*
X142538171Y-89145172D02*
X143538171Y-89145172D01*
X142681029Y-89145172D02*
X142609600Y-89216600D01*
X142538171Y-89359458D01*
X142538171Y-89573743D01*
X142609600Y-89716600D01*
X142752457Y-89788029D01*
X143538171Y-89788029D01*
X142038171Y-90288029D02*
X142038171Y-91145172D01*
X143538171Y-90716601D02*
X142038171Y-90716601D01*
X143538171Y-91645172D02*
X142038171Y-91645172D01*
X143538171Y-92288029D02*
X142752457Y-92288029D01*
X142609600Y-92216600D01*
X142538171Y-92073743D01*
X142538171Y-91859458D01*
X142609600Y-91716600D01*
X142681029Y-91645172D01*
X143466743Y-93573743D02*
X143538171Y-93430886D01*
X143538171Y-93145172D01*
X143466743Y-93002315D01*
X143323886Y-92930886D01*
X142752457Y-92930886D01*
X142609600Y-93002315D01*
X142538171Y-93145172D01*
X142538171Y-93430886D01*
X142609600Y-93573743D01*
X142752457Y-93645172D01*
X142895314Y-93645172D01*
X143038171Y-92930886D01*
X142752457Y-94788029D02*
X142823886Y-95002315D01*
X142895314Y-95073743D01*
X143038171Y-95145172D01*
X143252457Y-95145172D01*
X143395314Y-95073743D01*
X143466743Y-95002315D01*
X143538171Y-94859457D01*
X143538171Y-94288029D01*
X142038171Y-94288029D01*
X142038171Y-94788029D01*
X142109600Y-94930886D01*
X142181029Y-95002315D01*
X142323886Y-95073743D01*
X142466743Y-95073743D01*
X142609600Y-95002315D01*
X142681029Y-94930886D01*
X142752457Y-94788029D01*
X142752457Y-94288029D01*
X143538171Y-96002315D02*
X143466743Y-95859457D01*
X143323886Y-95788029D01*
X142038171Y-95788029D01*
X143538171Y-97216600D02*
X142752457Y-97216600D01*
X142609600Y-97145171D01*
X142538171Y-97002314D01*
X142538171Y-96716600D01*
X142609600Y-96573743D01*
X143466743Y-97216600D02*
X143538171Y-97073743D01*
X143538171Y-96716600D01*
X143466743Y-96573743D01*
X143323886Y-96502314D01*
X143181029Y-96502314D01*
X143038171Y-96573743D01*
X142966743Y-96716600D01*
X142966743Y-97073743D01*
X142895314Y-97216600D01*
X143466743Y-98573743D02*
X143538171Y-98430886D01*
X143538171Y-98145172D01*
X143466743Y-98002314D01*
X143395314Y-97930886D01*
X143252457Y-97859457D01*
X142823886Y-97859457D01*
X142681029Y-97930886D01*
X142609600Y-98002314D01*
X142538171Y-98145172D01*
X142538171Y-98430886D01*
X142609600Y-98573743D01*
X143538171Y-99216600D02*
X142038171Y-99216600D01*
X142966743Y-99359457D02*
X143538171Y-99788028D01*
X142538171Y-99788028D02*
X143109600Y-99216600D01*
X143395314Y-101288029D02*
X143466743Y-101216600D01*
X143538171Y-101002314D01*
X143538171Y-100859457D01*
X143466743Y-100645172D01*
X143323886Y-100502314D01*
X143181029Y-100430886D01*
X142895314Y-100359457D01*
X142681029Y-100359457D01*
X142395314Y-100430886D01*
X142252457Y-100502314D01*
X142109600Y-100645172D01*
X142038171Y-100859457D01*
X142038171Y-101002314D01*
X142109600Y-101216600D01*
X142181029Y-101288029D01*
X143538171Y-102145172D02*
X143466743Y-102002314D01*
X143395314Y-101930886D01*
X143252457Y-101859457D01*
X142823886Y-101859457D01*
X142681029Y-101930886D01*
X142609600Y-102002314D01*
X142538171Y-102145172D01*
X142538171Y-102359457D01*
X142609600Y-102502314D01*
X142681029Y-102573743D01*
X142823886Y-102645172D01*
X143252457Y-102645172D01*
X143395314Y-102573743D01*
X143466743Y-102502314D01*
X143538171Y-102359457D01*
X143538171Y-102145172D01*
X142538171Y-103930886D02*
X143538171Y-103930886D01*
X142538171Y-103288029D02*
X143323886Y-103288029D01*
X143466743Y-103359457D01*
X143538171Y-103502315D01*
X143538171Y-103716600D01*
X143466743Y-103859457D01*
X143395314Y-103930886D01*
X142538171Y-104645172D02*
X143538171Y-104645172D01*
X142681029Y-104645172D02*
X142609600Y-104716600D01*
X142538171Y-104859458D01*
X142538171Y-105073743D01*
X142609600Y-105216600D01*
X142752457Y-105288029D01*
X143538171Y-105288029D01*
X142538171Y-105788029D02*
X142538171Y-106359458D01*
X142038171Y-106002315D02*
X143323886Y-106002315D01*
X143466743Y-106073743D01*
X143538171Y-106216601D01*
X143538171Y-106359458D01*
X143538171Y-106859458D02*
X142538171Y-106859458D01*
X142823886Y-106859458D02*
X142681029Y-106930886D01*
X142609600Y-107002315D01*
X142538171Y-107145172D01*
X142538171Y-107288029D01*
X142538171Y-107645172D02*
X143538171Y-108002315D01*
X142538171Y-108359457D02*
X143538171Y-108002315D01*
X143895314Y-107859457D01*
X143966743Y-107788029D01*
X144038171Y-107645172D01*
M02*
