M48
;DRILL file {KiCad 4.0.7} date 03/15/18 17:25:43
;FORMAT={3:3/ absolute / metric / suppress leading zeros}
FMAT,2
METRIC,TZ
T1C0.400
T2C0.635
T3C0.700
T4C0.750
T5C1.000
T6C1.200
T7C3.048
%
G90
G05
M71
T1
X135788Y-98120
X136093Y-80543
X153619Y-96139
X153822Y-99720
X154026Y-104546
X154381Y-72238
X156718Y-87935
X158318Y-77876
X158648Y-101194
X158928Y-111709
X159842Y-87960
X161163Y-96520
X161976Y-80416
X162662Y-83058
X163347Y-115951
X165913Y-96571
X167361Y-76581
X167589Y-83820
X170967Y-76505
X171247Y-91186
X172390Y-113182
X172771Y-94793
X172974Y-93066
X174092Y-84684
X174955Y-83718
X175362Y-86970
T2
X159664Y-99060
T3
X154457Y-91402
X154457Y-93942
T4
X155823Y-67335
X157823Y-67335
X159823Y-67335
X160680Y-119101
X161823Y-67335
X162680Y-119101
X167101Y-67335
X169101Y-67335
X171101Y-67335
X173101Y-67335
T5
X169266Y-78994
X169266Y-81534
X171806Y-78994
X171806Y-81534
X174346Y-78994
X174346Y-81534
T6
X144551Y-62509
X144551Y-123469
T7
X133934Y-63043
X133960Y-123444
X174244Y-72314
X174269Y-123393
T0
M30
