G04 #@! TF.FileFunction,Legend,Top*
%FSLAX46Y46*%
G04 Gerber Fmt 4.6, Leading zero omitted, Abs format (unit mm)*
G04 Created by KiCad (PCBNEW 4.0.7) date 11/29/17 23:45:29*
%MOMM*%
%LPD*%
G01*
G04 APERTURE LIST*
%ADD10C,0.100000*%
%ADD11C,0.300000*%
%ADD12C,0.250000*%
%ADD13C,0.200000*%
%ADD14C,0.120000*%
%ADD15C,0.150000*%
G04 APERTURE END LIST*
D10*
D11*
X164678801Y-62451371D02*
X164678801Y-60951371D01*
X165035944Y-60951371D01*
X165250229Y-61022800D01*
X165393087Y-61165657D01*
X165464515Y-61308514D01*
X165535944Y-61594229D01*
X165535944Y-61808514D01*
X165464515Y-62094229D01*
X165393087Y-62237086D01*
X165250229Y-62379943D01*
X165035944Y-62451371D01*
X164678801Y-62451371D01*
X166107372Y-62022800D02*
X166821658Y-62022800D01*
X165964515Y-62451371D02*
X166464515Y-60951371D01*
X166964515Y-62451371D01*
X167250229Y-60951371D02*
X168107372Y-60951371D01*
X167678801Y-62451371D02*
X167678801Y-60951371D01*
X168535943Y-62022800D02*
X169250229Y-62022800D01*
X168393086Y-62451371D02*
X168893086Y-60951371D01*
X169393086Y-62451371D01*
X134572457Y-98141199D02*
X135772457Y-97741199D01*
X134572457Y-97341199D01*
X135715314Y-96484057D02*
X135772457Y-96598343D01*
X135772457Y-96826914D01*
X135715314Y-96941200D01*
X135601029Y-96998343D01*
X135143886Y-96998343D01*
X135029600Y-96941200D01*
X134972457Y-96826914D01*
X134972457Y-96598343D01*
X135029600Y-96484057D01*
X135143886Y-96426914D01*
X135258171Y-96426914D01*
X135372457Y-96998343D01*
X135772457Y-95912629D02*
X134972457Y-95912629D01*
X135201029Y-95912629D02*
X135086743Y-95855486D01*
X135029600Y-95798343D01*
X134972457Y-95684057D01*
X134972457Y-95569772D01*
X135715314Y-95226915D02*
X135772457Y-95112629D01*
X135772457Y-94884057D01*
X135715314Y-94769772D01*
X135601029Y-94712629D01*
X135543886Y-94712629D01*
X135429600Y-94769772D01*
X135372457Y-94884057D01*
X135372457Y-95055486D01*
X135315314Y-95169772D01*
X135201029Y-95226915D01*
X135143886Y-95226915D01*
X135029600Y-95169772D01*
X134972457Y-95055486D01*
X134972457Y-94884057D01*
X135029600Y-94769772D01*
X135772457Y-94198343D02*
X134972457Y-94198343D01*
X134572457Y-94198343D02*
X134629600Y-94255486D01*
X134686743Y-94198343D01*
X134629600Y-94141200D01*
X134572457Y-94198343D01*
X134686743Y-94198343D01*
X135772457Y-93455485D02*
X135715314Y-93569771D01*
X135658171Y-93626914D01*
X135543886Y-93684057D01*
X135201029Y-93684057D01*
X135086743Y-93626914D01*
X135029600Y-93569771D01*
X134972457Y-93455485D01*
X134972457Y-93284057D01*
X135029600Y-93169771D01*
X135086743Y-93112628D01*
X135201029Y-93055485D01*
X135543886Y-93055485D01*
X135658171Y-93112628D01*
X135715314Y-93169771D01*
X135772457Y-93284057D01*
X135772457Y-93455485D01*
X134972457Y-92541200D02*
X135772457Y-92541200D01*
X135086743Y-92541200D02*
X135029600Y-92484057D01*
X134972457Y-92369771D01*
X134972457Y-92198343D01*
X135029600Y-92084057D01*
X135143886Y-92026914D01*
X135772457Y-92026914D01*
X134686743Y-90598343D02*
X134629600Y-90541200D01*
X134572457Y-90426914D01*
X134572457Y-90141200D01*
X134629600Y-90026914D01*
X134686743Y-89969771D01*
X134801029Y-89912628D01*
X134915314Y-89912628D01*
X135086743Y-89969771D01*
X135772457Y-90655485D01*
X135772457Y-89912628D01*
X136229600Y-88141200D02*
X136172457Y-88198342D01*
X136001029Y-88312628D01*
X135886743Y-88369771D01*
X135715314Y-88426914D01*
X135429600Y-88484057D01*
X135201029Y-88484057D01*
X134915314Y-88426914D01*
X134743886Y-88369771D01*
X134629600Y-88312628D01*
X134458171Y-88198342D01*
X134401029Y-88141200D01*
X135772457Y-87684057D02*
X134572457Y-87684057D01*
X135772457Y-86998342D01*
X134572457Y-86998342D01*
X135772457Y-86255485D02*
X135715314Y-86369771D01*
X135658171Y-86426914D01*
X135543886Y-86484057D01*
X135201029Y-86484057D01*
X135086743Y-86426914D01*
X135029600Y-86369771D01*
X134972457Y-86255485D01*
X134972457Y-86084057D01*
X135029600Y-85969771D01*
X135086743Y-85912628D01*
X135201029Y-85855485D01*
X135543886Y-85855485D01*
X135658171Y-85912628D01*
X135715314Y-85969771D01*
X135772457Y-86084057D01*
X135772457Y-86255485D01*
X134972457Y-85455485D02*
X135772457Y-85169771D01*
X134972457Y-84884057D01*
X134686743Y-83569771D02*
X134629600Y-83512628D01*
X134572457Y-83398342D01*
X134572457Y-83112628D01*
X134629600Y-82998342D01*
X134686743Y-82941199D01*
X134801029Y-82884056D01*
X134915314Y-82884056D01*
X135086743Y-82941199D01*
X135772457Y-83626913D01*
X135772457Y-82884056D01*
X134572457Y-82141199D02*
X134572457Y-82026914D01*
X134629600Y-81912628D01*
X134686743Y-81855485D01*
X134801029Y-81798342D01*
X135029600Y-81741199D01*
X135315314Y-81741199D01*
X135543886Y-81798342D01*
X135658171Y-81855485D01*
X135715314Y-81912628D01*
X135772457Y-82026914D01*
X135772457Y-82141199D01*
X135715314Y-82255485D01*
X135658171Y-82312628D01*
X135543886Y-82369771D01*
X135315314Y-82426914D01*
X135029600Y-82426914D01*
X134801029Y-82369771D01*
X134686743Y-82312628D01*
X134629600Y-82255485D01*
X134572457Y-82141199D01*
X135772457Y-80598342D02*
X135772457Y-81284057D01*
X135772457Y-80941199D02*
X134572457Y-80941199D01*
X134743886Y-81055485D01*
X134858171Y-81169771D01*
X134915314Y-81284057D01*
X134572457Y-80198342D02*
X134572457Y-79398342D01*
X135772457Y-79912628D01*
X136229600Y-79055485D02*
X136172457Y-78998343D01*
X136001029Y-78884057D01*
X135886743Y-78826914D01*
X135715314Y-78769771D01*
X135429600Y-78712628D01*
X135201029Y-78712628D01*
X134915314Y-78769771D01*
X134743886Y-78826914D01*
X134629600Y-78884057D01*
X134458171Y-78998343D01*
X134401029Y-79055485D01*
X138752971Y-115759888D02*
X137252971Y-115759888D01*
X138752971Y-115117031D02*
X137967257Y-115117031D01*
X137824400Y-115188460D01*
X137752971Y-115331317D01*
X137752971Y-115545602D01*
X137824400Y-115688460D01*
X137895829Y-115759888D01*
X137752971Y-114617031D02*
X137752971Y-114045602D01*
X137252971Y-114402745D02*
X138538686Y-114402745D01*
X138681543Y-114331317D01*
X138752971Y-114188459D01*
X138752971Y-114045602D01*
X137752971Y-113759888D02*
X137752971Y-113188459D01*
X137252971Y-113545602D02*
X138538686Y-113545602D01*
X138681543Y-113474174D01*
X138752971Y-113331316D01*
X138752971Y-113188459D01*
X137752971Y-112688459D02*
X139252971Y-112688459D01*
X137824400Y-112688459D02*
X137752971Y-112545602D01*
X137752971Y-112259888D01*
X137824400Y-112117031D01*
X137895829Y-112045602D01*
X138038686Y-111974173D01*
X138467257Y-111974173D01*
X138610114Y-112045602D01*
X138681543Y-112117031D01*
X138752971Y-112259888D01*
X138752971Y-112545602D01*
X138681543Y-112688459D01*
X138681543Y-111402745D02*
X138752971Y-111259888D01*
X138752971Y-110974173D01*
X138681543Y-110831316D01*
X138538686Y-110759888D01*
X138467257Y-110759888D01*
X138324400Y-110831316D01*
X138252971Y-110974173D01*
X138252971Y-111188459D01*
X138181543Y-111331316D01*
X138038686Y-111402745D01*
X137967257Y-111402745D01*
X137824400Y-111331316D01*
X137752971Y-111188459D01*
X137752971Y-110974173D01*
X137824400Y-110831316D01*
X138610114Y-110117030D02*
X138681543Y-110045602D01*
X138752971Y-110117030D01*
X138681543Y-110188459D01*
X138610114Y-110117030D01*
X138752971Y-110117030D01*
X137824400Y-110117030D02*
X137895829Y-110045602D01*
X137967257Y-110117030D01*
X137895829Y-110188459D01*
X137824400Y-110117030D01*
X137967257Y-110117030D01*
X137181543Y-108331316D02*
X139110114Y-109617030D01*
X137181543Y-106759887D02*
X139110114Y-108045601D01*
X137752971Y-105617029D02*
X138967257Y-105617029D01*
X139110114Y-105688458D01*
X139181543Y-105759886D01*
X139252971Y-105902743D01*
X139252971Y-106117029D01*
X139181543Y-106259886D01*
X138681543Y-105617029D02*
X138752971Y-105759886D01*
X138752971Y-106045600D01*
X138681543Y-106188458D01*
X138610114Y-106259886D01*
X138467257Y-106331315D01*
X138038686Y-106331315D01*
X137895829Y-106259886D01*
X137824400Y-106188458D01*
X137752971Y-106045600D01*
X137752971Y-105759886D01*
X137824400Y-105617029D01*
X138752971Y-104902743D02*
X137752971Y-104902743D01*
X137252971Y-104902743D02*
X137324400Y-104974172D01*
X137395829Y-104902743D01*
X137324400Y-104831315D01*
X137252971Y-104902743D01*
X137395829Y-104902743D01*
X137752971Y-104402743D02*
X137752971Y-103831314D01*
X137252971Y-104188457D02*
X138538686Y-104188457D01*
X138681543Y-104117029D01*
X138752971Y-103974171D01*
X138752971Y-103831314D01*
X138752971Y-103331314D02*
X137252971Y-103331314D01*
X138752971Y-102688457D02*
X137967257Y-102688457D01*
X137824400Y-102759886D01*
X137752971Y-102902743D01*
X137752971Y-103117028D01*
X137824400Y-103259886D01*
X137895829Y-103331314D01*
X137752971Y-101331314D02*
X138752971Y-101331314D01*
X137752971Y-101974171D02*
X138538686Y-101974171D01*
X138681543Y-101902743D01*
X138752971Y-101759885D01*
X138752971Y-101545600D01*
X138681543Y-101402743D01*
X138610114Y-101331314D01*
X138752971Y-100617028D02*
X137252971Y-100617028D01*
X137824400Y-100617028D02*
X137752971Y-100474171D01*
X137752971Y-100188457D01*
X137824400Y-100045600D01*
X137895829Y-99974171D01*
X138038686Y-99902742D01*
X138467257Y-99902742D01*
X138610114Y-99974171D01*
X138681543Y-100045600D01*
X138752971Y-100188457D01*
X138752971Y-100474171D01*
X138681543Y-100617028D01*
X138610114Y-99259885D02*
X138681543Y-99188457D01*
X138752971Y-99259885D01*
X138681543Y-99331314D01*
X138610114Y-99259885D01*
X138752971Y-99259885D01*
X138681543Y-97902742D02*
X138752971Y-98045599D01*
X138752971Y-98331313D01*
X138681543Y-98474171D01*
X138610114Y-98545599D01*
X138467257Y-98617028D01*
X138038686Y-98617028D01*
X137895829Y-98545599D01*
X137824400Y-98474171D01*
X137752971Y-98331313D01*
X137752971Y-98045599D01*
X137824400Y-97902742D01*
X138752971Y-97045599D02*
X138681543Y-97188457D01*
X138610114Y-97259885D01*
X138467257Y-97331314D01*
X138038686Y-97331314D01*
X137895829Y-97259885D01*
X137824400Y-97188457D01*
X137752971Y-97045599D01*
X137752971Y-96831314D01*
X137824400Y-96688457D01*
X137895829Y-96617028D01*
X138038686Y-96545599D01*
X138467257Y-96545599D01*
X138610114Y-96617028D01*
X138681543Y-96688457D01*
X138752971Y-96831314D01*
X138752971Y-97045599D01*
X138752971Y-95902742D02*
X137752971Y-95902742D01*
X137895829Y-95902742D02*
X137824400Y-95831314D01*
X137752971Y-95688456D01*
X137752971Y-95474171D01*
X137824400Y-95331314D01*
X137967257Y-95259885D01*
X138752971Y-95259885D01*
X137967257Y-95259885D02*
X137824400Y-95188456D01*
X137752971Y-95045599D01*
X137752971Y-94831314D01*
X137824400Y-94688456D01*
X137967257Y-94617028D01*
X138752971Y-94617028D01*
X137181543Y-92831314D02*
X139110114Y-94117028D01*
X138681543Y-92402742D02*
X138752971Y-92259885D01*
X138752971Y-91974170D01*
X138681543Y-91831313D01*
X138538686Y-91759885D01*
X138467257Y-91759885D01*
X138324400Y-91831313D01*
X138252971Y-91974170D01*
X138252971Y-92188456D01*
X138181543Y-92331313D01*
X138038686Y-92402742D01*
X137967257Y-92402742D01*
X137824400Y-92331313D01*
X137752971Y-92188456D01*
X137752971Y-91974170D01*
X137824400Y-91831313D01*
X137752971Y-91331313D02*
X137752971Y-90759884D01*
X137252971Y-91117027D02*
X138538686Y-91117027D01*
X138681543Y-91045599D01*
X138752971Y-90902741D01*
X138752971Y-90759884D01*
X137752971Y-89617027D02*
X138752971Y-89617027D01*
X137752971Y-90259884D02*
X138538686Y-90259884D01*
X138681543Y-90188456D01*
X138752971Y-90045598D01*
X138752971Y-89831313D01*
X138681543Y-89688456D01*
X138610114Y-89617027D01*
X138752971Y-88259884D02*
X137967257Y-88259884D01*
X137824400Y-88331313D01*
X137752971Y-88474170D01*
X137752971Y-88759884D01*
X137824400Y-88902741D01*
X138681543Y-88259884D02*
X138752971Y-88402741D01*
X138752971Y-88759884D01*
X138681543Y-88902741D01*
X138538686Y-88974170D01*
X138395829Y-88974170D01*
X138252971Y-88902741D01*
X138181543Y-88759884D01*
X138181543Y-88402741D01*
X138110114Y-88259884D01*
X138752971Y-87545598D02*
X137752971Y-87545598D01*
X138038686Y-87545598D02*
X137895829Y-87474170D01*
X137824400Y-87402741D01*
X137752971Y-87259884D01*
X137752971Y-87117027D01*
X137752971Y-86831313D02*
X137752971Y-86259884D01*
X137252971Y-86617027D02*
X138538686Y-86617027D01*
X138681543Y-86545599D01*
X138752971Y-86402741D01*
X138752971Y-86259884D01*
X137752971Y-85759884D02*
X139252971Y-85759884D01*
X137824400Y-85759884D02*
X137752971Y-85617027D01*
X137752971Y-85331313D01*
X137824400Y-85188456D01*
X137895829Y-85117027D01*
X138038686Y-85045598D01*
X138467257Y-85045598D01*
X138610114Y-85117027D01*
X138681543Y-85188456D01*
X138752971Y-85331313D01*
X138752971Y-85617027D01*
X138681543Y-85759884D01*
X138752971Y-84402741D02*
X137752971Y-84402741D01*
X137252971Y-84402741D02*
X137324400Y-84474170D01*
X137395829Y-84402741D01*
X137324400Y-84331313D01*
X137252971Y-84402741D01*
X137395829Y-84402741D01*
X137752971Y-83902741D02*
X137752971Y-83331312D01*
X137252971Y-83688455D02*
X138538686Y-83688455D01*
X138681543Y-83617027D01*
X138752971Y-83474169D01*
X138752971Y-83331312D01*
X137752971Y-83045598D02*
X137752971Y-82474169D01*
X137252971Y-82831312D02*
X138538686Y-82831312D01*
X138681543Y-82759884D01*
X138752971Y-82617026D01*
X138752971Y-82474169D01*
X138752971Y-81331312D02*
X137967257Y-81331312D01*
X137824400Y-81402741D01*
X137752971Y-81545598D01*
X137752971Y-81831312D01*
X137824400Y-81974169D01*
X138681543Y-81331312D02*
X138752971Y-81474169D01*
X138752971Y-81831312D01*
X138681543Y-81974169D01*
X138538686Y-82045598D01*
X138395829Y-82045598D01*
X138252971Y-81974169D01*
X138181543Y-81831312D01*
X138181543Y-81474169D01*
X138110114Y-81331312D01*
X137752971Y-80759883D02*
X138752971Y-80474169D01*
X138038686Y-80188455D01*
X138752971Y-79902740D01*
X137752971Y-79617026D01*
X138752971Y-78402740D02*
X137967257Y-78402740D01*
X137824400Y-78474169D01*
X137752971Y-78617026D01*
X137752971Y-78902740D01*
X137824400Y-79045597D01*
X138681543Y-78402740D02*
X138752971Y-78545597D01*
X138752971Y-78902740D01*
X138681543Y-79045597D01*
X138538686Y-79117026D01*
X138395829Y-79117026D01*
X138252971Y-79045597D01*
X138181543Y-78902740D01*
X138181543Y-78545597D01*
X138110114Y-78402740D01*
X137752971Y-77831311D02*
X138752971Y-77474168D01*
X137752971Y-77117026D02*
X138752971Y-77474168D01*
X139110114Y-77617026D01*
X139181543Y-77688454D01*
X139252971Y-77831311D01*
X137181543Y-75474169D02*
X139110114Y-76759883D01*
X138752971Y-74331311D02*
X137252971Y-74331311D01*
X138681543Y-74331311D02*
X138752971Y-74474168D01*
X138752971Y-74759882D01*
X138681543Y-74902740D01*
X138610114Y-74974168D01*
X138467257Y-75045597D01*
X138038686Y-75045597D01*
X137895829Y-74974168D01*
X137824400Y-74902740D01*
X137752971Y-74759882D01*
X137752971Y-74474168D01*
X137824400Y-74331311D01*
X138752971Y-73617025D02*
X137752971Y-73617025D01*
X137252971Y-73617025D02*
X137324400Y-73688454D01*
X137395829Y-73617025D01*
X137324400Y-73545597D01*
X137252971Y-73617025D01*
X137395829Y-73617025D01*
X137752971Y-73045596D02*
X138752971Y-72688453D01*
X137752971Y-72331311D02*
X138752971Y-72688453D01*
X139110114Y-72831311D01*
X139181543Y-72902739D01*
X139252971Y-73045596D01*
X137967257Y-71259882D02*
X138038686Y-71045596D01*
X138110114Y-70974168D01*
X138252971Y-70902739D01*
X138467257Y-70902739D01*
X138610114Y-70974168D01*
X138681543Y-71045596D01*
X138752971Y-71188454D01*
X138752971Y-71759882D01*
X137252971Y-71759882D01*
X137252971Y-71259882D01*
X137324400Y-71117025D01*
X137395829Y-71045596D01*
X137538686Y-70974168D01*
X137681543Y-70974168D01*
X137824400Y-71045596D01*
X137895829Y-71117025D01*
X137967257Y-71259882D01*
X137967257Y-71759882D01*
X138752971Y-70259882D02*
X137252971Y-70259882D01*
X138324400Y-69759882D01*
X137252971Y-69259882D01*
X138752971Y-69259882D01*
X138681543Y-68617025D02*
X138752971Y-68402739D01*
X138752971Y-68045596D01*
X138681543Y-67902739D01*
X138610114Y-67831310D01*
X138467257Y-67759882D01*
X138324400Y-67759882D01*
X138181543Y-67831310D01*
X138110114Y-67902739D01*
X138038686Y-68045596D01*
X137967257Y-68331310D01*
X137895829Y-68474168D01*
X137824400Y-68545596D01*
X137681543Y-68617025D01*
X137538686Y-68617025D01*
X137395829Y-68545596D01*
X137324400Y-68474168D01*
X137252971Y-68331310D01*
X137252971Y-67974168D01*
X137324400Y-67759882D01*
X133622171Y-92614285D02*
X132122171Y-92614285D01*
X132122171Y-92257142D01*
X132193600Y-92042857D01*
X132336457Y-91899999D01*
X132479314Y-91828571D01*
X132765029Y-91757142D01*
X132979314Y-91757142D01*
X133265029Y-91828571D01*
X133407886Y-91899999D01*
X133550743Y-92042857D01*
X133622171Y-92257142D01*
X133622171Y-92614285D01*
X133622171Y-91114285D02*
X132122171Y-91114285D01*
X132907886Y-90114285D02*
X133622171Y-90114285D01*
X132122171Y-90614285D02*
X132907886Y-90114285D01*
X132122171Y-89614285D01*
X132836457Y-88614285D02*
X132907886Y-88399999D01*
X132979314Y-88328571D01*
X133122171Y-88257142D01*
X133336457Y-88257142D01*
X133479314Y-88328571D01*
X133550743Y-88399999D01*
X133622171Y-88542857D01*
X133622171Y-89114285D01*
X132122171Y-89114285D01*
X132122171Y-88614285D01*
X132193600Y-88471428D01*
X132265029Y-88399999D01*
X132407886Y-88328571D01*
X132550743Y-88328571D01*
X132693600Y-88399999D01*
X132765029Y-88471428D01*
X132836457Y-88614285D01*
X132836457Y-89114285D01*
X133622171Y-87614285D02*
X132122171Y-87614285D01*
X133193600Y-87114285D01*
X132122171Y-86614285D01*
X133622171Y-86614285D01*
X133550743Y-85971428D02*
X133622171Y-85757142D01*
X133622171Y-85399999D01*
X133550743Y-85257142D01*
X133479314Y-85185713D01*
X133336457Y-85114285D01*
X133193600Y-85114285D01*
X133050743Y-85185713D01*
X132979314Y-85257142D01*
X132907886Y-85399999D01*
X132836457Y-85685713D01*
X132765029Y-85828571D01*
X132693600Y-85899999D01*
X132550743Y-85971428D01*
X132407886Y-85971428D01*
X132265029Y-85899999D01*
X132193600Y-85828571D01*
X132122171Y-85685713D01*
X132122171Y-85328571D01*
X132193600Y-85114285D01*
D12*
X166722686Y-124831486D02*
X166894115Y-124888629D01*
X166951258Y-124945771D01*
X167008401Y-125060057D01*
X167008401Y-125231486D01*
X166951258Y-125345771D01*
X166894115Y-125402914D01*
X166779829Y-125460057D01*
X166322686Y-125460057D01*
X166322686Y-124260057D01*
X166722686Y-124260057D01*
X166836972Y-124317200D01*
X166894115Y-124374343D01*
X166951258Y-124488629D01*
X166951258Y-124602914D01*
X166894115Y-124717200D01*
X166836972Y-124774343D01*
X166722686Y-124831486D01*
X166322686Y-124831486D01*
X167465543Y-125117200D02*
X168036972Y-125117200D01*
X167351258Y-125460057D02*
X167751258Y-124260057D01*
X168151258Y-125460057D01*
X168379829Y-124260057D02*
X169065543Y-124260057D01*
X168722686Y-125460057D02*
X168722686Y-124260057D01*
X169294115Y-124260057D02*
X169979829Y-124260057D01*
X169636972Y-125460057D02*
X169636972Y-124260057D01*
X170379829Y-125002914D02*
X171294115Y-125002914D01*
X170836972Y-125460057D02*
X170836972Y-124545771D01*
D11*
X174142515Y-124469600D02*
X174028229Y-124412457D01*
X173856800Y-124412457D01*
X173685372Y-124469600D01*
X173571086Y-124583886D01*
X173513943Y-124698171D01*
X173456800Y-124926743D01*
X173456800Y-125098171D01*
X173513943Y-125326743D01*
X173571086Y-125441029D01*
X173685372Y-125555314D01*
X173856800Y-125612457D01*
X173971086Y-125612457D01*
X174142515Y-125555314D01*
X174199658Y-125498171D01*
X174199658Y-125098171D01*
X173971086Y-125098171D01*
X174713943Y-125612457D02*
X174713943Y-124412457D01*
X175399658Y-125612457D01*
X175399658Y-124412457D01*
X175971086Y-125612457D02*
X175971086Y-124412457D01*
X176256801Y-124412457D01*
X176428229Y-124469600D01*
X176542515Y-124583886D01*
X176599658Y-124698171D01*
X176656801Y-124926743D01*
X176656801Y-125098171D01*
X176599658Y-125326743D01*
X176542515Y-125441029D01*
X176428229Y-125555314D01*
X176256801Y-125612457D01*
X175971086Y-125612457D01*
X152126000Y-88112571D02*
X152054571Y-88183999D01*
X151840286Y-88326856D01*
X151697429Y-88398285D01*
X151483143Y-88469714D01*
X151126000Y-88541142D01*
X150840286Y-88541142D01*
X150483143Y-88469714D01*
X150268857Y-88398285D01*
X150126000Y-88326856D01*
X149911714Y-88183999D01*
X149840286Y-88112571D01*
X151483143Y-86898285D02*
X151554571Y-87041142D01*
X151554571Y-87326856D01*
X151483143Y-87469714D01*
X151411714Y-87541142D01*
X151268857Y-87612571D01*
X150840286Y-87612571D01*
X150697429Y-87541142D01*
X150626000Y-87469714D01*
X150554571Y-87326856D01*
X150554571Y-87041142D01*
X150626000Y-86898285D01*
X152126000Y-86398285D02*
X152054571Y-86326857D01*
X151840286Y-86184000D01*
X151697429Y-86112571D01*
X151483143Y-86041142D01*
X151126000Y-85969714D01*
X150840286Y-85969714D01*
X150483143Y-86041142D01*
X150268857Y-86112571D01*
X150126000Y-86184000D01*
X149911714Y-86326857D01*
X149840286Y-86398285D01*
X150197429Y-85326857D02*
X150126000Y-85255428D01*
X150054571Y-85112571D01*
X150054571Y-84755428D01*
X150126000Y-84612571D01*
X150197429Y-84541142D01*
X150340286Y-84469714D01*
X150483143Y-84469714D01*
X150697429Y-84541142D01*
X151554571Y-85398285D01*
X151554571Y-84469714D01*
X150054571Y-83541143D02*
X150054571Y-83398286D01*
X150126000Y-83255429D01*
X150197429Y-83184000D01*
X150340286Y-83112571D01*
X150626000Y-83041143D01*
X150983143Y-83041143D01*
X151268857Y-83112571D01*
X151411714Y-83184000D01*
X151483143Y-83255429D01*
X151554571Y-83398286D01*
X151554571Y-83541143D01*
X151483143Y-83684000D01*
X151411714Y-83755429D01*
X151268857Y-83826857D01*
X150983143Y-83898286D01*
X150626000Y-83898286D01*
X150340286Y-83826857D01*
X150197429Y-83755429D01*
X150126000Y-83684000D01*
X150054571Y-83541143D01*
X151554571Y-81612572D02*
X151554571Y-82469715D01*
X151554571Y-82041143D02*
X150054571Y-82041143D01*
X150268857Y-82184000D01*
X150411714Y-82326858D01*
X150483143Y-82469715D01*
X150054571Y-81112572D02*
X150054571Y-80112572D01*
X151554571Y-80755429D01*
X151483143Y-78469716D02*
X151554571Y-78255430D01*
X151554571Y-77898287D01*
X151483143Y-77755430D01*
X151411714Y-77684001D01*
X151268857Y-77612573D01*
X151126000Y-77612573D01*
X150983143Y-77684001D01*
X150911714Y-77755430D01*
X150840286Y-77898287D01*
X150768857Y-78184001D01*
X150697429Y-78326859D01*
X150626000Y-78398287D01*
X150483143Y-78469716D01*
X150340286Y-78469716D01*
X150197429Y-78398287D01*
X150126000Y-78326859D01*
X150054571Y-78184001D01*
X150054571Y-77826859D01*
X150126000Y-77612573D01*
X150554571Y-77184002D02*
X150554571Y-76612573D01*
X150054571Y-76969716D02*
X151340286Y-76969716D01*
X151483143Y-76898288D01*
X151554571Y-76755430D01*
X151554571Y-76612573D01*
X150554571Y-75469716D02*
X151554571Y-75469716D01*
X150554571Y-76112573D02*
X151340286Y-76112573D01*
X151483143Y-76041145D01*
X151554571Y-75898287D01*
X151554571Y-75684002D01*
X151483143Y-75541145D01*
X151411714Y-75469716D01*
X151554571Y-74112573D02*
X150768857Y-74112573D01*
X150626000Y-74184002D01*
X150554571Y-74326859D01*
X150554571Y-74612573D01*
X150626000Y-74755430D01*
X151483143Y-74112573D02*
X151554571Y-74255430D01*
X151554571Y-74612573D01*
X151483143Y-74755430D01*
X151340286Y-74826859D01*
X151197429Y-74826859D01*
X151054571Y-74755430D01*
X150983143Y-74612573D01*
X150983143Y-74255430D01*
X150911714Y-74112573D01*
X151554571Y-73398287D02*
X150554571Y-73398287D01*
X150840286Y-73398287D02*
X150697429Y-73326859D01*
X150626000Y-73255430D01*
X150554571Y-73112573D01*
X150554571Y-72969716D01*
X150554571Y-72684002D02*
X150554571Y-72112573D01*
X150054571Y-72469716D02*
X151340286Y-72469716D01*
X151483143Y-72398288D01*
X151554571Y-72255430D01*
X151554571Y-72112573D01*
X151554571Y-70469716D02*
X150054571Y-70469716D01*
X150054571Y-69898288D01*
X150126000Y-69755430D01*
X150197429Y-69684002D01*
X150340286Y-69612573D01*
X150554571Y-69612573D01*
X150697429Y-69684002D01*
X150768857Y-69755430D01*
X150840286Y-69898288D01*
X150840286Y-70469716D01*
X151554571Y-68969716D02*
X150554571Y-68969716D01*
X150054571Y-68969716D02*
X150126000Y-69041145D01*
X150197429Y-68969716D01*
X150126000Y-68898288D01*
X150054571Y-68969716D01*
X150197429Y-68969716D01*
X150554571Y-68469716D02*
X150554571Y-67898287D01*
X150054571Y-68255430D02*
X151340286Y-68255430D01*
X151483143Y-68184002D01*
X151554571Y-68041144D01*
X151554571Y-67898287D01*
X150554571Y-67612573D02*
X150554571Y-67041144D01*
X150054571Y-67398287D02*
X151340286Y-67398287D01*
X151483143Y-67326859D01*
X151554571Y-67184001D01*
X151554571Y-67041144D01*
X151554571Y-65898287D02*
X150768857Y-65898287D01*
X150626000Y-65969716D01*
X150554571Y-66112573D01*
X150554571Y-66398287D01*
X150626000Y-66541144D01*
X151483143Y-65898287D02*
X151554571Y-66041144D01*
X151554571Y-66398287D01*
X151483143Y-66541144D01*
X151340286Y-66612573D01*
X151197429Y-66612573D01*
X151054571Y-66541144D01*
X150983143Y-66398287D01*
X150983143Y-66041144D01*
X150911714Y-65898287D01*
X150554571Y-65326858D02*
X151554571Y-65041144D01*
X150840286Y-64755430D01*
X151554571Y-64469715D01*
X150554571Y-64184001D01*
X151554571Y-62969715D02*
X150768857Y-62969715D01*
X150626000Y-63041144D01*
X150554571Y-63184001D01*
X150554571Y-63469715D01*
X150626000Y-63612572D01*
X151483143Y-62969715D02*
X151554571Y-63112572D01*
X151554571Y-63469715D01*
X151483143Y-63612572D01*
X151340286Y-63684001D01*
X151197429Y-63684001D01*
X151054571Y-63612572D01*
X150983143Y-63469715D01*
X150983143Y-63112572D01*
X150911714Y-62969715D01*
X150554571Y-62398286D02*
X151554571Y-62041143D01*
X150554571Y-61684001D02*
X151554571Y-62041143D01*
X151911714Y-62184001D01*
X151983143Y-62255429D01*
X152054571Y-62398286D01*
X153502801Y-62451371D02*
X153502801Y-60951371D01*
X153859944Y-60951371D01*
X154074229Y-61022800D01*
X154217087Y-61165657D01*
X154288515Y-61308514D01*
X154359944Y-61594229D01*
X154359944Y-61808514D01*
X154288515Y-62094229D01*
X154217087Y-62237086D01*
X154074229Y-62379943D01*
X153859944Y-62451371D01*
X153502801Y-62451371D01*
X154931372Y-62022800D02*
X155645658Y-62022800D01*
X154788515Y-62451371D02*
X155288515Y-60951371D01*
X155788515Y-62451371D01*
X156074229Y-60951371D02*
X156931372Y-60951371D01*
X156502801Y-62451371D02*
X156502801Y-60951371D01*
X157359943Y-62022800D02*
X158074229Y-62022800D01*
X157217086Y-62451371D02*
X157717086Y-60951371D01*
X158217086Y-62451371D01*
D13*
X157759400Y-108102400D02*
X152679400Y-108102400D01*
X157759400Y-118008400D02*
X152679400Y-118008400D01*
X157759400Y-118008400D02*
X157759400Y-108102400D01*
X131597400Y-78130400D02*
X131597400Y-68224400D01*
X136677400Y-78130400D02*
X131597400Y-78130400D01*
X131597400Y-68224400D02*
X136677400Y-68224400D01*
X152679400Y-125120400D02*
X136677400Y-125120400D01*
X136677400Y-61112400D02*
X152679400Y-61112400D01*
X136677400Y-61112400D02*
X136677400Y-125120400D01*
X152679400Y-125120400D02*
X152679400Y-61112400D01*
D14*
X176606200Y-74295000D02*
G75*
G03X176606200Y-74295000I-2286000J0D01*
G01*
X176555400Y-108102400D02*
G75*
G03X176555400Y-108102400I-2286000J0D01*
G01*
X157505400Y-113233200D02*
G75*
G03X157505400Y-113233200I-2286000J0D01*
G01*
X136423400Y-73279000D02*
G75*
G03X136423400Y-73279000I-2286000J0D01*
G01*
X136321800Y-63093600D02*
G75*
G03X136321800Y-63093600I-2286000J0D01*
G01*
X132940400Y-105673400D02*
X132940400Y-103673400D01*
X135080400Y-103673400D02*
X135080400Y-105673400D01*
X158327600Y-87023600D02*
X156327600Y-87023600D01*
X156327600Y-84883600D02*
X158327600Y-84883600D01*
X160105600Y-92459200D02*
X158105600Y-92459200D01*
X158105600Y-90319200D02*
X160105600Y-90319200D01*
X166303200Y-101857200D02*
X164303200Y-101857200D01*
X164303200Y-99717200D02*
X166303200Y-99717200D01*
X173212000Y-101857200D02*
X171212000Y-101857200D01*
X171212000Y-99717200D02*
X173212000Y-99717200D01*
X171212000Y-102257200D02*
X173212000Y-102257200D01*
X173212000Y-104397200D02*
X171212000Y-104397200D01*
X158378400Y-80978400D02*
X156378400Y-80978400D01*
X156378400Y-78838400D02*
X158378400Y-78838400D01*
X157489400Y-107013400D02*
X155489400Y-107013400D01*
X155489400Y-104873400D02*
X157489400Y-104873400D01*
X156378400Y-81988000D02*
X158378400Y-81988000D01*
X158378400Y-84128000D02*
X156378400Y-84128000D01*
X169245200Y-114662000D02*
X169245200Y-113402000D01*
X169245200Y-107842000D02*
X169245200Y-109102000D01*
X165485200Y-114662000D02*
X169245200Y-114662000D01*
X163235200Y-107842000D02*
X169245200Y-107842000D01*
D15*
X164549000Y-92573400D02*
X164549000Y-92623400D01*
X168699000Y-92573400D02*
X168699000Y-92718400D01*
X168699000Y-97723400D02*
X168699000Y-97578400D01*
X164549000Y-97723400D02*
X164549000Y-97578400D01*
X164549000Y-92573400D02*
X168699000Y-92573400D01*
X164549000Y-97723400D02*
X168699000Y-97723400D01*
X164549000Y-92623400D02*
X163149000Y-92623400D01*
D14*
X156545400Y-101754400D02*
X155615400Y-101754400D01*
X153385400Y-101754400D02*
X154315400Y-101754400D01*
X153385400Y-101754400D02*
X153385400Y-103914400D01*
X156545400Y-101754400D02*
X156545400Y-103214400D01*
D15*
X166674800Y-79705200D02*
X161594800Y-79705200D01*
X161594800Y-79705200D02*
X161594800Y-75133200D01*
X161594800Y-75133200D02*
X166674800Y-75133200D01*
X166674800Y-75133200D02*
X166674800Y-79705200D01*
X166674800Y-78181200D02*
X166166800Y-78181200D01*
X166166800Y-78181200D02*
X166166800Y-76911200D01*
X166166800Y-76911200D02*
X166674800Y-76911200D01*
D14*
X174380400Y-89716000D02*
X172380400Y-89716000D01*
X172380400Y-87576000D02*
X174380400Y-87576000D01*
X155317400Y-91401900D02*
G75*
G03X155317400Y-91401900I-860000J0D01*
G01*
X154457400Y-92261900D02*
X154457400Y-92941900D01*
X134960400Y-110336400D02*
X133060400Y-110336400D01*
X133060400Y-110336400D02*
X133060400Y-115036400D01*
X134960400Y-110336400D02*
X134960400Y-115036400D01*
X166165600Y-85206800D02*
X166165600Y-87106800D01*
X166165600Y-87106800D02*
X170865600Y-87106800D01*
X166165600Y-85206800D02*
X170865600Y-85206800D01*
X149111400Y-67929400D02*
X139991400Y-67929400D01*
X139991400Y-67929400D02*
X139991400Y-118049400D01*
X139991400Y-118049400D02*
X149111400Y-118049400D01*
X149111400Y-118049400D02*
X149111400Y-67929400D01*
X144551400Y-63889400D02*
X144551400Y-67929400D01*
X144551400Y-122089400D02*
X144551400Y-118049400D01*
X165939200Y-122983200D02*
X169239200Y-122983200D01*
X169239200Y-122983200D02*
X169239200Y-117583200D01*
X165939200Y-122983200D02*
X165939200Y-117583200D01*
X158137600Y-125019200D02*
X161597600Y-125019200D01*
X158137600Y-121259200D02*
X161597600Y-121259200D01*
D15*
X172477200Y-119188000D02*
X173877200Y-119188000D01*
X172477200Y-119188000D02*
X172077200Y-119188000D01*
X172477200Y-120788000D02*
X172477200Y-119188000D01*
X172377200Y-120888000D02*
X172477200Y-120788000D01*
X172177200Y-120888000D02*
X172377200Y-120888000D01*
X172077200Y-120788000D02*
X172177200Y-120888000D01*
X172077200Y-119188000D02*
X172077200Y-120788000D01*
X173877200Y-119188000D02*
X174277200Y-119188000D01*
X173877200Y-120788000D02*
X173877200Y-119188000D01*
X173977200Y-120888000D02*
X173877200Y-120788000D01*
X174177200Y-120888000D02*
X173977200Y-120888000D01*
X174277200Y-120788000D02*
X174177200Y-120888000D01*
X174277200Y-119188000D02*
X174277200Y-120788000D01*
X174177200Y-117588000D02*
X174177200Y-116988000D01*
X172177200Y-117588000D02*
X174177200Y-117588000D01*
X172177200Y-116988000D02*
X172177200Y-117588000D01*
X172277200Y-122888000D02*
X172577200Y-123188000D01*
X171977200Y-123188000D02*
X172277200Y-122888000D01*
X170977200Y-115988000D02*
X171277200Y-115488000D01*
X171277200Y-115488000D02*
X170677200Y-115488000D01*
X170677200Y-115488000D02*
X170977200Y-115988000D01*
X174377200Y-123188000D02*
X171977200Y-123188000D01*
X175977200Y-119088000D02*
X175977200Y-120688000D01*
X170377200Y-119088000D02*
X170377200Y-120688000D01*
X172177200Y-116988000D02*
X174177200Y-116988000D01*
D14*
X160467619Y-99060000D02*
G75*
G03X160467619Y-99060000I-803219J0D01*
G01*
X165268400Y-107141200D02*
X167268400Y-107141200D01*
X167268400Y-105101200D02*
X165268400Y-105101200D01*
X160379600Y-113217200D02*
X160379600Y-111217200D01*
X158339600Y-111217200D02*
X158339600Y-113217200D01*
X156429200Y-97590800D02*
X158429200Y-97590800D01*
X158429200Y-95550800D02*
X156429200Y-95550800D01*
X158429200Y-75535600D02*
X156429200Y-75535600D01*
X156429200Y-77575600D02*
X158429200Y-77575600D01*
X174329600Y-90216800D02*
X172329600Y-90216800D01*
X172329600Y-92256800D02*
X174329600Y-92256800D01*
X161348800Y-63347600D02*
X161348800Y-67697600D01*
X161348800Y-67697600D02*
X156348800Y-67697600D01*
X156348800Y-67697600D02*
X156348800Y-63347600D01*
X162648800Y-69547600D02*
X162998800Y-69547600D01*
X162998800Y-69547600D02*
X162998800Y-71147600D01*
X162998800Y-71147600D02*
X163898800Y-71147600D01*
X163898800Y-71147600D02*
X163898800Y-63347600D01*
X163898800Y-63347600D02*
X153798800Y-63347600D01*
X153798800Y-63347600D02*
X153798800Y-71147600D01*
X153798800Y-71147600D02*
X154698800Y-71147600D01*
X154698800Y-71147600D02*
X154698800Y-69547600D01*
X154698800Y-69547600D02*
X155048800Y-69547600D01*
X163898800Y-69547600D02*
X162998800Y-69547600D01*
X153798800Y-69547600D02*
X154698800Y-69547600D01*
X163148800Y-67197600D02*
X163148800Y-65597600D01*
X163148800Y-65597600D02*
X162148800Y-65597600D01*
X162148800Y-65597600D02*
X162148800Y-67197600D01*
X162148800Y-67197600D02*
X163148800Y-67197600D01*
X154548800Y-67197600D02*
X154548800Y-65597600D01*
X154548800Y-65597600D02*
X155548800Y-65597600D01*
X155548800Y-65597600D02*
X155548800Y-67197600D01*
X155548800Y-67197600D02*
X154548800Y-67197600D01*
X162148800Y-65597600D02*
X162148800Y-63347600D01*
X162648800Y-65597600D02*
X162648800Y-63347600D01*
X162648800Y-69547600D02*
X162648800Y-70747600D01*
X172626400Y-63347600D02*
X172626400Y-67697600D01*
X172626400Y-67697600D02*
X167626400Y-67697600D01*
X167626400Y-67697600D02*
X167626400Y-63347600D01*
X173926400Y-69547600D02*
X174276400Y-69547600D01*
X174276400Y-69547600D02*
X174276400Y-71147600D01*
X174276400Y-71147600D02*
X175176400Y-71147600D01*
X175176400Y-71147600D02*
X175176400Y-63347600D01*
X175176400Y-63347600D02*
X165076400Y-63347600D01*
X165076400Y-63347600D02*
X165076400Y-71147600D01*
X165076400Y-71147600D02*
X165976400Y-71147600D01*
X165976400Y-71147600D02*
X165976400Y-69547600D01*
X165976400Y-69547600D02*
X166326400Y-69547600D01*
X175176400Y-69547600D02*
X174276400Y-69547600D01*
X165076400Y-69547600D02*
X165976400Y-69547600D01*
X174426400Y-67197600D02*
X174426400Y-65597600D01*
X174426400Y-65597600D02*
X173426400Y-65597600D01*
X173426400Y-65597600D02*
X173426400Y-67197600D01*
X173426400Y-67197600D02*
X174426400Y-67197600D01*
X165826400Y-67197600D02*
X165826400Y-65597600D01*
X165826400Y-65597600D02*
X166826400Y-65597600D01*
X166826400Y-65597600D02*
X166826400Y-67197600D01*
X166826400Y-67197600D02*
X165826400Y-67197600D01*
X173426400Y-65597600D02*
X173426400Y-63347600D01*
X173926400Y-65597600D02*
X173926400Y-63347600D01*
X173926400Y-69547600D02*
X173926400Y-70747600D01*
X175675600Y-82864000D02*
X175675600Y-77664000D01*
X170535600Y-82864000D02*
X175675600Y-82864000D01*
X167935600Y-77664000D02*
X175675600Y-77664000D01*
X170535600Y-82864000D02*
X170535600Y-80264000D01*
X170535600Y-80264000D02*
X167935600Y-80264000D01*
X167935600Y-80264000D02*
X167935600Y-77664000D01*
X169265600Y-82864000D02*
X167935600Y-82864000D01*
X167935600Y-82864000D02*
X167935600Y-81534000D01*
X136245600Y-123418600D02*
G75*
G03X136245600Y-123418600I-2286000J0D01*
G01*
D15*
X136342381Y-104865466D02*
X135866190Y-105198800D01*
X136342381Y-105436895D02*
X135342381Y-105436895D01*
X135342381Y-105055942D01*
X135390000Y-104960704D01*
X135437619Y-104913085D01*
X135532857Y-104865466D01*
X135675714Y-104865466D01*
X135770952Y-104913085D01*
X135818571Y-104960704D01*
X135866190Y-105055942D01*
X135866190Y-105436895D01*
X135437619Y-104484514D02*
X135390000Y-104436895D01*
X135342381Y-104341657D01*
X135342381Y-104103561D01*
X135390000Y-104008323D01*
X135437619Y-103960704D01*
X135532857Y-103913085D01*
X135628095Y-103913085D01*
X135770952Y-103960704D01*
X136342381Y-104532133D01*
X136342381Y-103913085D01*
X160310534Y-88285581D02*
X159977200Y-87809390D01*
X159739105Y-88285581D02*
X159739105Y-87285581D01*
X160120058Y-87285581D01*
X160215296Y-87333200D01*
X160262915Y-87380819D01*
X160310534Y-87476057D01*
X160310534Y-87618914D01*
X160262915Y-87714152D01*
X160215296Y-87761771D01*
X160120058Y-87809390D01*
X159739105Y-87809390D01*
X160643867Y-87285581D02*
X161262915Y-87285581D01*
X160929581Y-87666533D01*
X161072439Y-87666533D01*
X161167677Y-87714152D01*
X161215296Y-87761771D01*
X161262915Y-87857010D01*
X161262915Y-88095105D01*
X161215296Y-88190343D01*
X161167677Y-88237962D01*
X161072439Y-88285581D01*
X160786724Y-88285581D01*
X160691486Y-88237962D01*
X160643867Y-88190343D01*
X158443634Y-93746581D02*
X158110300Y-93270390D01*
X157872205Y-93746581D02*
X157872205Y-92746581D01*
X158253158Y-92746581D01*
X158348396Y-92794200D01*
X158396015Y-92841819D01*
X158443634Y-92937057D01*
X158443634Y-93079914D01*
X158396015Y-93175152D01*
X158348396Y-93222771D01*
X158253158Y-93270390D01*
X157872205Y-93270390D01*
X159300777Y-93079914D02*
X159300777Y-93746581D01*
X159062681Y-92698962D02*
X158824586Y-93413248D01*
X159443634Y-93413248D01*
X164933334Y-99461581D02*
X164600000Y-98985390D01*
X164361905Y-99461581D02*
X164361905Y-98461581D01*
X164742858Y-98461581D01*
X164838096Y-98509200D01*
X164885715Y-98556819D01*
X164933334Y-98652057D01*
X164933334Y-98794914D01*
X164885715Y-98890152D01*
X164838096Y-98937771D01*
X164742858Y-98985390D01*
X164361905Y-98985390D01*
X165838096Y-98461581D02*
X165361905Y-98461581D01*
X165314286Y-98937771D01*
X165361905Y-98890152D01*
X165457143Y-98842533D01*
X165695239Y-98842533D01*
X165790477Y-98890152D01*
X165838096Y-98937771D01*
X165885715Y-99033010D01*
X165885715Y-99271105D01*
X165838096Y-99366343D01*
X165790477Y-99413962D01*
X165695239Y-99461581D01*
X165457143Y-99461581D01*
X165361905Y-99413962D01*
X165314286Y-99366343D01*
X169886334Y-99461581D02*
X169553000Y-98985390D01*
X169314905Y-99461581D02*
X169314905Y-98461581D01*
X169695858Y-98461581D01*
X169791096Y-98509200D01*
X169838715Y-98556819D01*
X169886334Y-98652057D01*
X169886334Y-98794914D01*
X169838715Y-98890152D01*
X169791096Y-98937771D01*
X169695858Y-98985390D01*
X169314905Y-98985390D01*
X170743477Y-98461581D02*
X170553000Y-98461581D01*
X170457762Y-98509200D01*
X170410143Y-98556819D01*
X170314905Y-98699676D01*
X170267286Y-98890152D01*
X170267286Y-99271105D01*
X170314905Y-99366343D01*
X170362524Y-99413962D01*
X170457762Y-99461581D01*
X170648239Y-99461581D01*
X170743477Y-99413962D01*
X170791096Y-99366343D01*
X170838715Y-99271105D01*
X170838715Y-99033010D01*
X170791096Y-98937771D01*
X170743477Y-98890152D01*
X170648239Y-98842533D01*
X170457762Y-98842533D01*
X170362524Y-98890152D01*
X170314905Y-98937771D01*
X170267286Y-99033010D01*
X167905134Y-103881181D02*
X167571800Y-103404990D01*
X167333705Y-103881181D02*
X167333705Y-102881181D01*
X167714658Y-102881181D01*
X167809896Y-102928800D01*
X167857515Y-102976419D01*
X167905134Y-103071657D01*
X167905134Y-103214514D01*
X167857515Y-103309752D01*
X167809896Y-103357371D01*
X167714658Y-103404990D01*
X167333705Y-103404990D01*
X168238467Y-102881181D02*
X168905134Y-102881181D01*
X168476562Y-103881181D01*
X153655734Y-78785981D02*
X153322400Y-78309790D01*
X153084305Y-78785981D02*
X153084305Y-77785981D01*
X153465258Y-77785981D01*
X153560496Y-77833600D01*
X153608115Y-77881219D01*
X153655734Y-77976457D01*
X153655734Y-78119314D01*
X153608115Y-78214552D01*
X153560496Y-78262171D01*
X153465258Y-78309790D01*
X153084305Y-78309790D01*
X154227162Y-78214552D02*
X154131924Y-78166933D01*
X154084305Y-78119314D01*
X154036686Y-78024076D01*
X154036686Y-77976457D01*
X154084305Y-77881219D01*
X154131924Y-77833600D01*
X154227162Y-77785981D01*
X154417639Y-77785981D01*
X154512877Y-77833600D01*
X154560496Y-77881219D01*
X154608115Y-77976457D01*
X154608115Y-78024076D01*
X154560496Y-78119314D01*
X154512877Y-78166933D01*
X154417639Y-78214552D01*
X154227162Y-78214552D01*
X154131924Y-78262171D01*
X154084305Y-78309790D01*
X154036686Y-78405029D01*
X154036686Y-78595505D01*
X154084305Y-78690743D01*
X154131924Y-78738362D01*
X154227162Y-78785981D01*
X154417639Y-78785981D01*
X154512877Y-78738362D01*
X154560496Y-78690743D01*
X154608115Y-78595505D01*
X154608115Y-78405029D01*
X154560496Y-78309790D01*
X154512877Y-78262171D01*
X154417639Y-78214552D01*
X153782734Y-108173781D02*
X153449400Y-107697590D01*
X153211305Y-108173781D02*
X153211305Y-107173781D01*
X153592258Y-107173781D01*
X153687496Y-107221400D01*
X153735115Y-107269019D01*
X153782734Y-107364257D01*
X153782734Y-107507114D01*
X153735115Y-107602352D01*
X153687496Y-107649971D01*
X153592258Y-107697590D01*
X153211305Y-107697590D01*
X154258924Y-108173781D02*
X154449400Y-108173781D01*
X154544639Y-108126162D01*
X154592258Y-108078543D01*
X154687496Y-107935686D01*
X154735115Y-107745210D01*
X154735115Y-107364257D01*
X154687496Y-107269019D01*
X154639877Y-107221400D01*
X154544639Y-107173781D01*
X154354162Y-107173781D01*
X154258924Y-107221400D01*
X154211305Y-107269019D01*
X154163686Y-107364257D01*
X154163686Y-107602352D01*
X154211305Y-107697590D01*
X154258924Y-107745210D01*
X154354162Y-107792829D01*
X154544639Y-107792829D01*
X154639877Y-107745210D01*
X154687496Y-107697590D01*
X154735115Y-107602352D01*
X161459943Y-84424781D02*
X161126609Y-83948590D01*
X160888514Y-84424781D02*
X160888514Y-83424781D01*
X161269467Y-83424781D01*
X161364705Y-83472400D01*
X161412324Y-83520019D01*
X161459943Y-83615257D01*
X161459943Y-83758114D01*
X161412324Y-83853352D01*
X161364705Y-83900971D01*
X161269467Y-83948590D01*
X160888514Y-83948590D01*
X162412324Y-84424781D02*
X161840895Y-84424781D01*
X162126609Y-84424781D02*
X162126609Y-83424781D01*
X162031371Y-83567638D01*
X161936133Y-83662876D01*
X161840895Y-83710495D01*
X163031371Y-83424781D02*
X163126610Y-83424781D01*
X163221848Y-83472400D01*
X163269467Y-83520019D01*
X163317086Y-83615257D01*
X163364705Y-83805733D01*
X163364705Y-84043829D01*
X163317086Y-84234305D01*
X163269467Y-84329543D01*
X163221848Y-84377162D01*
X163126610Y-84424781D01*
X163031371Y-84424781D01*
X162936133Y-84377162D01*
X162888514Y-84329543D01*
X162840895Y-84234305D01*
X162793276Y-84043829D01*
X162793276Y-83805733D01*
X162840895Y-83615257D01*
X162888514Y-83520019D01*
X162936133Y-83472400D01*
X163031371Y-83424781D01*
X166573295Y-109180381D02*
X166573295Y-109989905D01*
X166620914Y-110085143D01*
X166668533Y-110132762D01*
X166763771Y-110180381D01*
X166954248Y-110180381D01*
X167049486Y-110132762D01*
X167097105Y-110085143D01*
X167144724Y-109989905D01*
X167144724Y-109180381D01*
X168144724Y-110180381D02*
X167573295Y-110180381D01*
X167859009Y-110180381D02*
X167859009Y-109180381D01*
X167763771Y-109323238D01*
X167668533Y-109418476D01*
X167573295Y-109466095D01*
X165862095Y-98156781D02*
X165862095Y-98966305D01*
X165909714Y-99061543D01*
X165957333Y-99109162D01*
X166052571Y-99156781D01*
X166243048Y-99156781D01*
X166338286Y-99109162D01*
X166385905Y-99061543D01*
X166433524Y-98966305D01*
X166433524Y-98156781D01*
X166814476Y-98156781D02*
X167433524Y-98156781D01*
X167100190Y-98537733D01*
X167243048Y-98537733D01*
X167338286Y-98585352D01*
X167385905Y-98632971D01*
X167433524Y-98728210D01*
X167433524Y-98966305D01*
X167385905Y-99061543D01*
X167338286Y-99109162D01*
X167243048Y-99156781D01*
X166957333Y-99156781D01*
X166862095Y-99109162D01*
X166814476Y-99061543D01*
X152917781Y-103323924D02*
X151917781Y-103323924D01*
X152632067Y-102990590D01*
X151917781Y-102657257D01*
X152917781Y-102657257D01*
X152917781Y-101657257D02*
X152917781Y-102228686D01*
X152917781Y-101942972D02*
X151917781Y-101942972D01*
X152060638Y-102038210D01*
X152155876Y-102133448D01*
X152203495Y-102228686D01*
X163728495Y-76719181D02*
X163728495Y-77528705D01*
X163776114Y-77623943D01*
X163823733Y-77671562D01*
X163918971Y-77719181D01*
X164109448Y-77719181D01*
X164204686Y-77671562D01*
X164252305Y-77623943D01*
X164299924Y-77528705D01*
X164299924Y-76719181D01*
X164728495Y-76814419D02*
X164776114Y-76766800D01*
X164871352Y-76719181D01*
X165109448Y-76719181D01*
X165204686Y-76766800D01*
X165252305Y-76814419D01*
X165299924Y-76909657D01*
X165299924Y-77004895D01*
X165252305Y-77147752D01*
X164680876Y-77719181D01*
X165299924Y-77719181D01*
X168063943Y-89606381D02*
X167730609Y-89130190D01*
X167492514Y-89606381D02*
X167492514Y-88606381D01*
X167873467Y-88606381D01*
X167968705Y-88654000D01*
X168016324Y-88701619D01*
X168063943Y-88796857D01*
X168063943Y-88939714D01*
X168016324Y-89034952D01*
X167968705Y-89082571D01*
X167873467Y-89130190D01*
X167492514Y-89130190D01*
X169016324Y-89606381D02*
X168444895Y-89606381D01*
X168730609Y-89606381D02*
X168730609Y-88606381D01*
X168635371Y-88749238D01*
X168540133Y-88844476D01*
X168444895Y-88892095D01*
X169397276Y-88701619D02*
X169444895Y-88654000D01*
X169540133Y-88606381D01*
X169778229Y-88606381D01*
X169873467Y-88654000D01*
X169921086Y-88701619D01*
X169968705Y-88796857D01*
X169968705Y-88892095D01*
X169921086Y-89034952D01*
X169349657Y-89606381D01*
X169968705Y-89606381D01*
X153909781Y-90147614D02*
X153909781Y-89576185D01*
X154909781Y-89861900D02*
X153909781Y-89861900D01*
X154909781Y-89242852D02*
X153909781Y-89242852D01*
X154385971Y-89242852D02*
X154385971Y-88671423D01*
X154909781Y-88671423D02*
X153909781Y-88671423D01*
X154909781Y-87671423D02*
X154909781Y-88242852D01*
X154909781Y-87957138D02*
X153909781Y-87957138D01*
X154052638Y-88052376D01*
X154147876Y-88147614D01*
X154195495Y-88242852D01*
X136342381Y-114326895D02*
X135342381Y-114326895D01*
X135342381Y-114088800D01*
X135390000Y-113945942D01*
X135485238Y-113850704D01*
X135580476Y-113803085D01*
X135770952Y-113755466D01*
X135913810Y-113755466D01*
X136104286Y-113803085D01*
X136199524Y-113850704D01*
X136294762Y-113945942D01*
X136342381Y-114088800D01*
X136342381Y-114326895D01*
X135437619Y-113374514D02*
X135390000Y-113326895D01*
X135342381Y-113231657D01*
X135342381Y-112993561D01*
X135390000Y-112898323D01*
X135437619Y-112850704D01*
X135532857Y-112803085D01*
X135628095Y-112803085D01*
X135770952Y-112850704D01*
X136342381Y-113422133D01*
X136342381Y-112803085D01*
X172743905Y-86355181D02*
X172743905Y-85355181D01*
X172982000Y-85355181D01*
X173124858Y-85402800D01*
X173220096Y-85498038D01*
X173267715Y-85593276D01*
X173315334Y-85783752D01*
X173315334Y-85926610D01*
X173267715Y-86117086D01*
X173220096Y-86212324D01*
X173124858Y-86307562D01*
X172982000Y-86355181D01*
X172743905Y-86355181D01*
X174172477Y-85688514D02*
X174172477Y-86355181D01*
X173934381Y-85307562D02*
X173696286Y-86021848D01*
X174315334Y-86021848D01*
X142463781Y-93410066D02*
X141987590Y-93743400D01*
X142463781Y-93981495D02*
X141463781Y-93981495D01*
X141463781Y-93600542D01*
X141511400Y-93505304D01*
X141559019Y-93457685D01*
X141654257Y-93410066D01*
X141797114Y-93410066D01*
X141892352Y-93457685D01*
X141939971Y-93505304D01*
X141987590Y-93600542D01*
X141987590Y-93981495D01*
X142463781Y-92457685D02*
X142463781Y-93029114D01*
X142463781Y-92743400D02*
X141463781Y-92743400D01*
X141606638Y-92838638D01*
X141701876Y-92933876D01*
X141749495Y-93029114D01*
X164057105Y-120416581D02*
X164057105Y-119416581D01*
X164295200Y-119416581D01*
X164438058Y-119464200D01*
X164533296Y-119559438D01*
X164580915Y-119654676D01*
X164628534Y-119845152D01*
X164628534Y-119988010D01*
X164580915Y-120178486D01*
X164533296Y-120273724D01*
X164438058Y-120368962D01*
X164295200Y-120416581D01*
X164057105Y-120416581D01*
X165580915Y-120416581D02*
X165009486Y-120416581D01*
X165295200Y-120416581D02*
X165295200Y-119416581D01*
X165199962Y-119559438D01*
X165104724Y-119654676D01*
X165009486Y-119702295D01*
X159534267Y-120347771D02*
X159200933Y-120347771D01*
X159200933Y-120871581D02*
X159200933Y-119871581D01*
X159677124Y-119871581D01*
X160581886Y-120871581D02*
X160010457Y-120871581D01*
X160296171Y-120871581D02*
X160296171Y-119871581D01*
X160200933Y-120014438D01*
X160105695Y-120109676D01*
X160010457Y-120157295D01*
X172970867Y-121245381D02*
X172970867Y-121959667D01*
X172923247Y-122102524D01*
X172828009Y-122197762D01*
X172685152Y-122245381D01*
X172589914Y-122245381D01*
X173970867Y-122245381D02*
X173399438Y-122245381D01*
X173685152Y-122245381D02*
X173685152Y-121245381D01*
X173589914Y-121388238D01*
X173494676Y-121483476D01*
X173399438Y-121531095D01*
X158402495Y-100290381D02*
X158973924Y-100290381D01*
X158688209Y-101290381D02*
X158688209Y-100290381D01*
X159307257Y-101290381D02*
X159307257Y-100290381D01*
X159688210Y-100290381D01*
X159783448Y-100338000D01*
X159831067Y-100385619D01*
X159878686Y-100480857D01*
X159878686Y-100623714D01*
X159831067Y-100718952D01*
X159783448Y-100766571D01*
X159688210Y-100814190D01*
X159307257Y-100814190D01*
X160831067Y-101290381D02*
X160259638Y-101290381D01*
X160545352Y-101290381D02*
X160545352Y-100290381D01*
X160450114Y-100433238D01*
X160354876Y-100528476D01*
X160259638Y-100576095D01*
X163866534Y-104751143D02*
X163818915Y-104798762D01*
X163676058Y-104846381D01*
X163580820Y-104846381D01*
X163437962Y-104798762D01*
X163342724Y-104703524D01*
X163295105Y-104608286D01*
X163247486Y-104417810D01*
X163247486Y-104274952D01*
X163295105Y-104084476D01*
X163342724Y-103989238D01*
X163437962Y-103894000D01*
X163580820Y-103846381D01*
X163676058Y-103846381D01*
X163818915Y-103894000D01*
X163866534Y-103941619D01*
X164818915Y-104846381D02*
X164247486Y-104846381D01*
X164533200Y-104846381D02*
X164533200Y-103846381D01*
X164437962Y-103989238D01*
X164342724Y-104084476D01*
X164247486Y-104132095D01*
X161466743Y-112383866D02*
X161514362Y-112431485D01*
X161561981Y-112574342D01*
X161561981Y-112669580D01*
X161514362Y-112812438D01*
X161419124Y-112907676D01*
X161323886Y-112955295D01*
X161133410Y-113002914D01*
X160990552Y-113002914D01*
X160800076Y-112955295D01*
X160704838Y-112907676D01*
X160609600Y-112812438D01*
X160561981Y-112669580D01*
X160561981Y-112574342D01*
X160609600Y-112431485D01*
X160657219Y-112383866D01*
X160657219Y-112002914D02*
X160609600Y-111955295D01*
X160561981Y-111860057D01*
X160561981Y-111621961D01*
X160609600Y-111526723D01*
X160657219Y-111479104D01*
X160752457Y-111431485D01*
X160847695Y-111431485D01*
X160990552Y-111479104D01*
X161561981Y-112050533D01*
X161561981Y-111431485D01*
X157262534Y-98677943D02*
X157214915Y-98725562D01*
X157072058Y-98773181D01*
X156976820Y-98773181D01*
X156833962Y-98725562D01*
X156738724Y-98630324D01*
X156691105Y-98535086D01*
X156643486Y-98344610D01*
X156643486Y-98201752D01*
X156691105Y-98011276D01*
X156738724Y-97916038D01*
X156833962Y-97820800D01*
X156976820Y-97773181D01*
X157072058Y-97773181D01*
X157214915Y-97820800D01*
X157262534Y-97868419D01*
X157595867Y-97773181D02*
X158214915Y-97773181D01*
X157881581Y-98154133D01*
X158024439Y-98154133D01*
X158119677Y-98201752D01*
X158167296Y-98249371D01*
X158214915Y-98344610D01*
X158214915Y-98582705D01*
X158167296Y-98677943D01*
X158119677Y-98725562D01*
X158024439Y-98773181D01*
X157738724Y-98773181D01*
X157643486Y-98725562D01*
X157595867Y-98677943D01*
X155789334Y-75083943D02*
X155741715Y-75131562D01*
X155598858Y-75179181D01*
X155503620Y-75179181D01*
X155360762Y-75131562D01*
X155265524Y-75036324D01*
X155217905Y-74941086D01*
X155170286Y-74750610D01*
X155170286Y-74607752D01*
X155217905Y-74417276D01*
X155265524Y-74322038D01*
X155360762Y-74226800D01*
X155503620Y-74179181D01*
X155598858Y-74179181D01*
X155741715Y-74226800D01*
X155789334Y-74274419D01*
X156646477Y-74512514D02*
X156646477Y-75179181D01*
X156408381Y-74131562D02*
X156170286Y-74845848D01*
X156789334Y-74845848D01*
X175652134Y-93473543D02*
X175604515Y-93521162D01*
X175461658Y-93568781D01*
X175366420Y-93568781D01*
X175223562Y-93521162D01*
X175128324Y-93425924D01*
X175080705Y-93330686D01*
X175033086Y-93140210D01*
X175033086Y-92997352D01*
X175080705Y-92806876D01*
X175128324Y-92711638D01*
X175223562Y-92616400D01*
X175366420Y-92568781D01*
X175461658Y-92568781D01*
X175604515Y-92616400D01*
X175652134Y-92664019D01*
X176556896Y-92568781D02*
X176080705Y-92568781D01*
X176033086Y-93044971D01*
X176080705Y-92997352D01*
X176175943Y-92949733D01*
X176414039Y-92949733D01*
X176509277Y-92997352D01*
X176556896Y-93044971D01*
X176604515Y-93140210D01*
X176604515Y-93378305D01*
X176556896Y-93473543D01*
X176509277Y-93521162D01*
X176414039Y-93568781D01*
X176175943Y-93568781D01*
X176080705Y-93521162D01*
X176033086Y-93473543D01*
X160015467Y-71599981D02*
X160015467Y-72314267D01*
X159967847Y-72457124D01*
X159872609Y-72552362D01*
X159729752Y-72599981D01*
X159634514Y-72599981D01*
X160444038Y-71695219D02*
X160491657Y-71647600D01*
X160586895Y-71599981D01*
X160824991Y-71599981D01*
X160920229Y-71647600D01*
X160967848Y-71695219D01*
X161015467Y-71790457D01*
X161015467Y-71885695D01*
X160967848Y-72028552D01*
X160396419Y-72599981D01*
X161015467Y-72599981D01*
X171293067Y-71599981D02*
X171293067Y-72314267D01*
X171245447Y-72457124D01*
X171150209Y-72552362D01*
X171007352Y-72599981D01*
X170912114Y-72599981D01*
X171674019Y-71599981D02*
X172293067Y-71599981D01*
X171959733Y-71980933D01*
X172102591Y-71980933D01*
X172197829Y-72028552D01*
X172245448Y-72076171D01*
X172293067Y-72171410D01*
X172293067Y-72409505D01*
X172245448Y-72504743D01*
X172197829Y-72552362D01*
X172102591Y-72599981D01*
X171816876Y-72599981D01*
X171721638Y-72552362D01*
X171674019Y-72504743D01*
X175813981Y-76839581D02*
X174813981Y-76839581D01*
X175766362Y-76411010D02*
X175813981Y-76268153D01*
X175813981Y-76030057D01*
X175766362Y-75934819D01*
X175718743Y-75887200D01*
X175623505Y-75839581D01*
X175528267Y-75839581D01*
X175433029Y-75887200D01*
X175385410Y-75934819D01*
X175337790Y-76030057D01*
X175290171Y-76220534D01*
X175242552Y-76315772D01*
X175194933Y-76363391D01*
X175099695Y-76411010D01*
X175004457Y-76411010D01*
X174909219Y-76363391D01*
X174861600Y-76315772D01*
X174813981Y-76220534D01*
X174813981Y-75982438D01*
X174861600Y-75839581D01*
X175813981Y-75411010D02*
X174813981Y-75411010D01*
X174813981Y-75030057D01*
X174861600Y-74934819D01*
X174909219Y-74887200D01*
X175004457Y-74839581D01*
X175147314Y-74839581D01*
X175242552Y-74887200D01*
X175290171Y-74934819D01*
X175337790Y-75030057D01*
X175337790Y-75411010D01*
X175813981Y-73887200D02*
X175813981Y-74458629D01*
X175813981Y-74172915D02*
X174813981Y-74172915D01*
X174956838Y-74268153D01*
X175052076Y-74363391D01*
X175099695Y-74458629D01*
M02*
