M48
;DRILL file {KiCad 4.0.7} date 11/29/17 23:44:38
;FORMAT={3:3/ absolute / metric / suppress leading zeros}
FMAT,2
METRIC,TZ
T1C0.400
T2C0.635
T3C0.700
T4C0.750
T5C1.000
T6C1.200
T7C3.048
%
G90
G05
M71
T1
X134569Y-100533
X153441Y-88011
X153822Y-99720
X154026Y-104546
X157531Y-119939
X160909Y-87808
X161036Y-71323
X161646Y-109017
X161849Y-96114
X162662Y-83058
X163017Y-102616
X163779Y-116484
X164008Y-84023
X164033Y-108890
X164059Y-87782
X164236Y-78588
X164440Y-69748
X165913Y-96571
X167589Y-83820
X170231Y-71323
X171247Y-91186
X172364Y-67310
X172771Y-94793
X172974Y-93066
X174092Y-84684
X174955Y-83718
X175362Y-86970
T2
X159664Y-99060
T3
X154457Y-91402
X154457Y-93942
T4
X155849Y-69698
X157849Y-69698
X159849Y-69698
X161849Y-69698
X167126Y-69698
X169126Y-69698
X171126Y-69698
X173126Y-69698
T5
X169266Y-78994
X169266Y-81534
X171806Y-78994
X171806Y-81534
X174346Y-78994
X174346Y-81534
T6
X144551Y-62509
X144551Y-123469
T7
X133960Y-123419
X134036Y-63094
X134137Y-73279
X155219Y-113233
X174269Y-108102
X174320Y-74295
T0
M30
