G04 #@! TF.FileFunction,Copper,L1,Top,Signal*
%FSLAX46Y46*%
G04 Gerber Fmt 4.6, Leading zero omitted, Abs format (unit mm)*
G04 Created by KiCad (PCBNEW 4.0.7) date 11/14/17 21:21:15*
%MOMM*%
%LPD*%
G01*
G04 APERTURE LIST*
%ADD10C,0.100000*%
%ADD11C,4.064000*%
%ADD12R,2.500000X2.000000*%
%ADD13R,2.000000X2.500000*%
%ADD14R,1.000000X3.500000*%
%ADD15R,1.500000X3.400000*%
%ADD16R,2.000000X1.700000*%
%ADD17R,1.700000X2.000000*%
%ADD18R,2.000000X3.800000*%
%ADD19R,2.000000X1.500000*%
%ADD20R,1.550000X0.600000*%
%ADD21R,0.900000X0.800000*%
%ADD22R,0.508000X1.143000*%
%ADD23C,1.400000*%
%ADD24O,1.400000X1.400000*%
%ADD25R,1.700000X1.700000*%
%ADD26O,1.700000X1.700000*%
%ADD27C,2.400000*%
%ADD28O,2.400000X2.400000*%
%ADD29R,1.800000X2.500000*%
%ADD30R,3.500000X3.500000*%
%ADD31R,1.300000X2.100000*%
%ADD32R,1.000000X2.000000*%
%ADD33C,1.143000*%
%ADD34C,0.600000*%
%ADD35C,2.000000*%
%ADD36C,1.500000*%
%ADD37C,0.350000*%
%ADD38C,0.500000*%
%ADD39C,0.254000*%
G04 APERTURE END LIST*
D10*
D11*
X165862000Y-116078000D03*
X107950000Y-116078000D03*
X107950000Y-59182000D03*
D12*
X166116000Y-83280000D03*
X166116000Y-79280000D03*
D13*
X107220000Y-76708000D03*
X111220000Y-76708000D03*
X111220000Y-83820000D03*
X107220000Y-83820000D03*
X111220000Y-72898000D03*
X107220000Y-72898000D03*
X140176000Y-68072000D03*
X136176000Y-68072000D03*
D14*
X123650000Y-64089000D03*
X121650000Y-64089000D03*
X119650000Y-64089000D03*
X117650000Y-64089000D03*
D15*
X126000000Y-58339000D03*
X115300000Y-58339000D03*
D16*
X163354000Y-91694000D03*
X167354000Y-91694000D03*
X118396000Y-81534000D03*
X122396000Y-81534000D03*
X111220000Y-80264000D03*
X107220000Y-80264000D03*
X111220000Y-69596000D03*
X107220000Y-69596000D03*
X107220000Y-66802000D03*
X111220000Y-66802000D03*
X111220000Y-64008000D03*
X107220000Y-64008000D03*
X127794000Y-69850000D03*
X131794000Y-69850000D03*
D17*
X142240000Y-112554000D03*
X142240000Y-116554000D03*
D16*
X145066000Y-69850000D03*
X149066000Y-69850000D03*
D18*
X162154000Y-81788000D03*
D19*
X155854000Y-81788000D03*
X155854000Y-84088000D03*
X155854000Y-79488000D03*
D20*
X116426000Y-69723000D03*
X116426000Y-70993000D03*
X116426000Y-72263000D03*
X116426000Y-73533000D03*
X121826000Y-73533000D03*
X121826000Y-72263000D03*
X121826000Y-70993000D03*
X121826000Y-69723000D03*
D21*
X147082000Y-112842000D03*
X147082000Y-114742000D03*
X149082000Y-113792000D03*
D16*
X154464000Y-70358000D03*
X158464000Y-70358000D03*
D22*
X139827000Y-64643000D03*
X138557000Y-64643000D03*
X137287000Y-64643000D03*
X136017000Y-64643000D03*
X136017000Y-58293000D03*
X137287000Y-58293000D03*
X138557000Y-58293000D03*
X139827000Y-58293000D03*
D14*
X156670000Y-64089000D03*
X154670000Y-64089000D03*
X152670000Y-64089000D03*
X150670000Y-64089000D03*
D15*
X159020000Y-58339000D03*
X148320000Y-58339000D03*
D16*
X158464000Y-73152000D03*
X154464000Y-73152000D03*
X162338000Y-70358000D03*
X166338000Y-70358000D03*
D23*
X119126000Y-84328000D03*
D24*
X121666000Y-84328000D03*
D25*
X148844000Y-91186000D03*
D26*
X146304000Y-91186000D03*
X143764000Y-91186000D03*
X141224000Y-91186000D03*
X138684000Y-91186000D03*
X136144000Y-91186000D03*
X133604000Y-91186000D03*
X131064000Y-91186000D03*
X128524000Y-91186000D03*
X125984000Y-91186000D03*
D25*
X148844000Y-76708000D03*
D26*
X146304000Y-76708000D03*
X143764000Y-76708000D03*
X141224000Y-76708000D03*
X138684000Y-76708000D03*
X136144000Y-76708000D03*
X133604000Y-76708000D03*
X131064000Y-76708000D03*
X128524000Y-76708000D03*
X125984000Y-76708000D03*
D16*
X167354000Y-88646000D03*
X163354000Y-88646000D03*
X166338000Y-66040000D03*
X162338000Y-66040000D03*
X166338000Y-75184000D03*
X162338000Y-75184000D03*
D27*
X167386000Y-101092000D03*
D28*
X106426000Y-101092000D03*
D29*
X124460000Y-115792000D03*
X124460000Y-111792000D03*
D11*
X165862000Y-59182000D03*
D30*
X112932000Y-116586000D03*
X119732000Y-116586000D03*
D31*
X128329000Y-111619000D03*
X132529000Y-111619000D03*
D32*
X128229000Y-116219000D03*
X132629000Y-116219000D03*
D33*
X115443000Y-83820000D03*
D34*
X122428000Y-91186000D03*
X136906000Y-110998000D03*
X120015000Y-73406000D03*
X115443000Y-81534000D03*
X152146000Y-71374000D03*
X152908000Y-84455000D03*
X115570000Y-76835000D03*
X145669000Y-74803000D03*
X129540000Y-73152000D03*
X126238000Y-109728000D03*
X144780000Y-92456000D03*
X113538000Y-83439000D03*
X113919000Y-72136000D03*
X156210000Y-59944000D03*
X123698000Y-60198000D03*
X154178000Y-58928000D03*
X121920000Y-59182000D03*
X151892000Y-57912000D03*
X119634000Y-58674000D03*
X150114000Y-56642000D03*
X123190000Y-56896000D03*
X136398000Y-70231000D03*
X150876000Y-74168000D03*
X150622000Y-80010000D03*
X123698000Y-79756000D03*
X139954000Y-92710000D03*
X145034000Y-111760000D03*
X137287000Y-72390000D03*
X113665000Y-68072000D03*
X139827000Y-78994000D03*
X120777000Y-75819000D03*
X138684000Y-74803000D03*
X124079000Y-73533000D03*
X142113000Y-70612000D03*
X138557000Y-66040000D03*
X137160000Y-66040000D03*
X133858000Y-66040000D03*
X133604000Y-69850000D03*
X132080000Y-72390000D03*
X116332000Y-68326000D03*
X128016000Y-73152000D03*
D35*
X142240000Y-116554000D02*
X139795000Y-116554000D01*
X139795000Y-116554000D02*
X136144000Y-112903000D01*
X136144000Y-112903000D02*
X136144000Y-111760000D01*
D36*
X132588000Y-111760000D02*
X136144000Y-111760000D01*
X136144000Y-111760000D02*
X136906000Y-110998000D01*
X122428000Y-91186000D02*
X125984000Y-91186000D01*
D37*
X147082000Y-114742000D02*
X147082000Y-115554000D01*
D35*
X146082000Y-116554000D02*
X142240000Y-116554000D01*
X147082000Y-115554000D02*
X146082000Y-116554000D01*
D37*
X147082000Y-114742000D02*
X146878000Y-114742000D01*
D35*
X106426000Y-101092000D02*
X106426000Y-108204000D01*
X112932000Y-114710000D02*
X112932000Y-116586000D01*
X106426000Y-108204000D02*
X112932000Y-114710000D01*
D38*
X112776000Y-116586000D02*
X112932000Y-116586000D01*
D36*
X106426000Y-90170000D02*
X106426000Y-101092000D01*
X107950000Y-88646000D02*
X106426000Y-90170000D01*
X146812000Y-88646000D02*
X107950000Y-88646000D01*
D38*
X163354000Y-88646000D02*
X163322000Y-88646000D01*
X163322000Y-88646000D02*
X162052000Y-87376000D01*
X162052000Y-87376000D02*
X150876000Y-87376000D01*
D36*
X148844000Y-91186000D02*
X148844000Y-89154000D01*
X148844000Y-89154000D02*
X146812000Y-88646000D01*
D38*
X148844000Y-89408000D02*
X148844000Y-91186000D01*
X150876000Y-87376000D02*
X148844000Y-89408000D01*
X121826000Y-69723000D02*
X120396000Y-69723000D01*
X120015000Y-70104000D02*
X120015000Y-73406000D01*
X120396000Y-69723000D02*
X120015000Y-70104000D01*
X118396000Y-81534000D02*
X115443000Y-81534000D01*
X153162000Y-70358000D02*
X154464000Y-70358000D01*
X152146000Y-71374000D02*
X153162000Y-70358000D01*
X149066000Y-69850000D02*
X153956000Y-69850000D01*
D37*
X153956000Y-69850000D02*
X154464000Y-70358000D01*
X149066000Y-69850000D02*
X149066000Y-68548000D01*
X148844000Y-68326000D02*
X140430000Y-68326000D01*
X149066000Y-68548000D02*
X148844000Y-68326000D01*
X140430000Y-68326000D02*
X140176000Y-68072000D01*
X127794000Y-69850000D02*
X127794000Y-69310000D01*
X127794000Y-69310000D02*
X136144000Y-60960000D01*
X139827000Y-61849000D02*
X139827000Y-64643000D01*
X138938000Y-60960000D02*
X139827000Y-61849000D01*
X136144000Y-60960000D02*
X138938000Y-60960000D01*
X140938000Y-68834000D02*
X140176000Y-68072000D01*
D38*
X111220000Y-72898000D02*
X111220000Y-76708000D01*
X140176000Y-68072000D02*
X140176000Y-64992000D01*
D37*
X140176000Y-64992000D02*
X139827000Y-64643000D01*
X140430000Y-68326000D02*
X140176000Y-68072000D01*
D38*
X121826000Y-69723000D02*
X127667000Y-69723000D01*
D37*
X127667000Y-69723000D02*
X127794000Y-69850000D01*
X127794000Y-69850000D02*
X127794000Y-69564000D01*
X127286000Y-70358000D02*
X127794000Y-69850000D01*
X154210000Y-70104000D02*
X154464000Y-70358000D01*
X141097000Y-68993000D02*
X140176000Y-68072000D01*
X111220000Y-72898000D02*
X111220000Y-73628000D01*
D36*
X155854000Y-84088000D02*
X154051000Y-84074000D01*
X154051000Y-84074000D02*
X152908000Y-84455000D01*
D38*
X153924000Y-70358000D02*
X154464000Y-70358000D01*
D37*
X127032000Y-70612000D02*
X127794000Y-69850000D01*
X115570000Y-76835000D02*
X112776000Y-76708000D01*
X112776000Y-76708000D02*
X111220000Y-76708000D01*
X111220000Y-72898000D02*
X112014000Y-72898000D01*
X112014000Y-72898000D02*
X111920000Y-72992000D01*
X155854000Y-84088000D02*
X155854000Y-84226000D01*
X119126000Y-84328000D02*
X119126000Y-84296000D01*
D38*
X119126000Y-84296000D02*
X118396000Y-81534000D01*
D35*
X119732000Y-116586000D02*
X123666000Y-116586000D01*
D38*
X123666000Y-116586000D02*
X124460000Y-115792000D01*
D36*
X167354000Y-88646000D02*
X167354000Y-91694000D01*
D37*
X167354000Y-91694000D02*
X167354000Y-91218000D01*
D38*
X121826000Y-72263000D02*
X128651000Y-72263000D01*
X146304000Y-75438000D02*
X146304000Y-76708000D01*
X145669000Y-74803000D02*
X146304000Y-75438000D01*
D37*
X128651000Y-72263000D02*
X129540000Y-73152000D01*
X146304000Y-76708000D02*
X146304000Y-75692000D01*
D38*
X146812000Y-75184000D02*
X162338000Y-75184000D01*
X146304000Y-75692000D02*
X146812000Y-75184000D01*
D37*
X162338000Y-75184000D02*
X162338000Y-75216000D01*
X162338000Y-75216000D02*
X163576000Y-76708000D01*
X163576000Y-76708000D02*
X167894000Y-76708000D01*
X167894000Y-76708000D02*
X168148000Y-76200000D01*
X168148000Y-76200000D02*
X168148000Y-67564000D01*
X168148000Y-67564000D02*
X166338000Y-66040000D01*
X158464000Y-73152000D02*
X166338000Y-73152000D01*
D36*
X166338000Y-70358000D02*
X166338000Y-73152000D01*
X166338000Y-73152000D02*
X166338000Y-75184000D01*
D35*
X124460000Y-111792000D02*
X128156000Y-111792000D01*
D38*
X128156000Y-111792000D02*
X128329000Y-111619000D01*
D37*
X128405000Y-111030000D02*
X128437000Y-110998000D01*
D38*
X143764000Y-91186000D02*
X143764000Y-91440000D01*
D36*
X143764000Y-91440000D02*
X144780000Y-92456000D01*
D38*
X126238000Y-109728000D02*
X124460000Y-111506000D01*
X124460000Y-111506000D02*
X124460000Y-111792000D01*
X167386000Y-101092000D02*
X167386000Y-94996000D01*
X165640000Y-93980000D02*
X163354000Y-91694000D01*
X166370000Y-93980000D02*
X165640000Y-93980000D01*
X167386000Y-94996000D02*
X166370000Y-93980000D01*
D37*
X164084000Y-92424000D02*
X163354000Y-91694000D01*
D35*
X149082000Y-113792000D02*
X153035000Y-110363000D01*
X153035000Y-110363000D02*
X167513000Y-110363000D01*
X167513000Y-110363000D02*
X167386000Y-101092000D01*
X167354000Y-101060000D02*
X167386000Y-101092000D01*
D37*
X149082000Y-113792000D02*
X149098000Y-113792000D01*
D38*
X111220000Y-83820000D02*
X115443000Y-83820000D01*
X111220000Y-83820000D02*
X113157000Y-83820000D01*
X113157000Y-83820000D02*
X113538000Y-83439000D01*
X113919000Y-72136000D02*
X115062000Y-70993000D01*
X115062000Y-70993000D02*
X116426000Y-70993000D01*
X111220000Y-66802000D02*
X114046000Y-66802000D01*
X115062000Y-67818000D02*
X115062000Y-70993000D01*
X114046000Y-66802000D02*
X115062000Y-67818000D01*
D37*
X111220000Y-66802000D02*
X110998000Y-66802000D01*
D38*
X111220000Y-66802000D02*
X111220000Y-64008000D01*
D37*
X158464000Y-70358000D02*
X162338000Y-70358000D01*
D36*
X162338000Y-70358000D02*
X162338000Y-66040000D01*
D37*
X156670000Y-64089000D02*
X156670000Y-66088000D01*
X145415000Y-58293000D02*
X139827000Y-58293000D01*
X145796000Y-58674000D02*
X145415000Y-58293000D01*
X145796000Y-66802000D02*
X145796000Y-58674000D01*
X146650002Y-67656002D02*
X145796000Y-66802000D01*
X155101998Y-67656002D02*
X146650002Y-67656002D01*
X156670000Y-66088000D02*
X155101998Y-67656002D01*
X123650000Y-64089000D02*
X123650000Y-60246000D01*
X156670000Y-60404000D02*
X156670000Y-64089000D01*
X156210000Y-59944000D02*
X156670000Y-60404000D01*
X123650000Y-60246000D02*
X123698000Y-60198000D01*
X138557000Y-58293000D02*
X138557000Y-57023000D01*
X154670000Y-66818000D02*
X154670000Y-64089000D01*
X154432000Y-66802000D02*
X154670000Y-66818000D01*
X147066000Y-66802000D02*
X154432000Y-66802000D01*
X146558000Y-66548000D02*
X147066000Y-66802000D01*
X146558000Y-57658000D02*
X146558000Y-66548000D01*
X145542000Y-56642000D02*
X146558000Y-57658000D01*
X138938000Y-56642000D02*
X145542000Y-56642000D01*
X138557000Y-57023000D02*
X138938000Y-56642000D01*
X121650000Y-64089000D02*
X121650000Y-59452000D01*
X154670000Y-59420000D02*
X154670000Y-64089000D01*
X154178000Y-58928000D02*
X154670000Y-59420000D01*
X121650000Y-59452000D02*
X121920000Y-59182000D01*
X119650000Y-64089000D02*
X119650000Y-65802000D01*
X119650000Y-65802000D02*
X120650000Y-66802000D01*
X137287000Y-57023000D02*
X137287000Y-58293000D01*
X136906000Y-56642000D02*
X137287000Y-57023000D01*
X133604000Y-56642000D02*
X136906000Y-56642000D01*
X133604000Y-60452000D02*
X133604000Y-56642000D01*
X127254000Y-66802000D02*
X133604000Y-60452000D01*
X120650000Y-66802000D02*
X127254000Y-66802000D01*
X119650000Y-64089000D02*
X119650000Y-58690000D01*
X152670000Y-58690000D02*
X152670000Y-64089000D01*
X151892000Y-57912000D02*
X152670000Y-58690000D01*
X119650000Y-58690000D02*
X119634000Y-58674000D01*
X117650000Y-64089000D02*
X117650000Y-58499000D01*
X150670000Y-57198000D02*
X150670000Y-64089000D01*
X150114000Y-56642000D02*
X150670000Y-57198000D01*
X119253000Y-56896000D02*
X123190000Y-56896000D01*
X117650000Y-58499000D02*
X119253000Y-56896000D01*
X117650000Y-64089000D02*
X117650000Y-66088000D01*
X134874000Y-59436000D02*
X136017000Y-58293000D01*
X134874000Y-60198000D02*
X134874000Y-59436000D01*
X127508000Y-67564000D02*
X134874000Y-60198000D01*
X119126000Y-67564000D02*
X127508000Y-67564000D01*
X117650000Y-66088000D02*
X119126000Y-67564000D01*
D38*
X107220000Y-69596000D02*
X107220000Y-66802000D01*
D37*
X136176000Y-70009000D02*
X136176000Y-68072000D01*
X136398000Y-70231000D02*
X136176000Y-70009000D01*
X107220000Y-64008000D02*
X105791000Y-64008000D01*
X105537000Y-71215000D02*
X107220000Y-72898000D01*
X105537000Y-64262000D02*
X105537000Y-71215000D01*
X105791000Y-64008000D02*
X105537000Y-64262000D01*
D38*
X107220000Y-76708000D02*
X107220000Y-72898000D01*
X107220000Y-83820000D02*
X107220000Y-80264000D01*
X150876000Y-73152000D02*
X154464000Y-73152000D01*
X150876000Y-74168000D02*
X150876000Y-73152000D01*
X116426000Y-73533000D02*
X116426000Y-74516000D01*
X124206000Y-74930000D02*
X125984000Y-76708000D01*
X116840000Y-74930000D02*
X124206000Y-74930000D01*
X116426000Y-74516000D02*
X116840000Y-74930000D01*
X107220000Y-78740000D02*
X123698000Y-78740000D01*
X136017000Y-64643000D02*
X136017000Y-67913000D01*
D37*
X136017000Y-67913000D02*
X136176000Y-68072000D01*
D38*
X125984000Y-76708000D02*
X125476000Y-76708000D01*
X125476000Y-76708000D02*
X123698000Y-78486000D01*
X123698000Y-78486000D02*
X123698000Y-78740000D01*
X153543000Y-81788000D02*
X155854000Y-81788000D01*
X150622000Y-80010000D02*
X153543000Y-81788000D01*
X123698000Y-78740000D02*
X123698000Y-79756000D01*
D37*
X107220000Y-64008000D02*
X106426000Y-64008000D01*
D38*
X107220000Y-80264000D02*
X107220000Y-78740000D01*
X107220000Y-78740000D02*
X107220000Y-76708000D01*
D37*
X162154000Y-81788000D02*
X162154000Y-82652000D01*
D36*
X162154000Y-82652000D02*
X162528000Y-81756000D01*
X162528000Y-81756000D02*
X166116000Y-83280000D01*
X155854000Y-81788000D02*
X162154000Y-81788000D01*
D38*
X155854000Y-79488000D02*
X155854000Y-78842000D01*
X155854000Y-78842000D02*
X156464000Y-76962000D01*
X162560000Y-76962000D02*
X164878000Y-79280000D01*
X156464000Y-76962000D02*
X162560000Y-76962000D01*
X164878000Y-79280000D02*
X166116000Y-79280000D01*
X148844000Y-76708000D02*
X155840000Y-79502000D01*
D37*
X155840000Y-79502000D02*
X155854000Y-79488000D01*
D38*
X142240000Y-112554000D02*
X144240000Y-112554000D01*
D36*
X139954000Y-92710000D02*
X141224000Y-91440000D01*
X144240000Y-112554000D02*
X145034000Y-111760000D01*
D38*
X141224000Y-91440000D02*
X141224000Y-91186000D01*
D36*
X142240000Y-112554000D02*
X146794000Y-112554000D01*
D37*
X146794000Y-112554000D02*
X147082000Y-112842000D01*
D36*
X136144000Y-91186000D02*
X138684000Y-91186000D01*
X131064000Y-91186000D02*
X133604000Y-91186000D01*
D37*
X111220000Y-69596000D02*
X112141000Y-69596000D01*
X112141000Y-69596000D02*
X113665000Y-68072000D01*
X143764000Y-73025000D02*
X143764000Y-76708000D01*
X143129000Y-72390000D02*
X143764000Y-73025000D01*
X137287000Y-72390000D02*
X143129000Y-72390000D01*
X143732000Y-76676000D02*
X143764000Y-76708000D01*
X116426000Y-72263000D02*
X114935000Y-72263000D01*
X141224000Y-77597000D02*
X141224000Y-76708000D01*
D38*
X139827000Y-78994000D02*
X141224000Y-77597000D01*
D37*
X115697000Y-75692000D02*
X120777000Y-75819000D01*
X114786850Y-74695313D02*
X115697000Y-75692000D01*
X114808000Y-72390000D02*
X114786850Y-74695313D01*
X114935000Y-72263000D02*
X114808000Y-72390000D01*
D38*
X121826000Y-73533000D02*
X124079000Y-73533000D01*
X138684000Y-74803000D02*
X138684000Y-76708000D01*
D37*
X145066000Y-69850000D02*
X143383000Y-69850000D01*
X142621000Y-70612000D02*
X142113000Y-70612000D01*
X143383000Y-69850000D02*
X142621000Y-70612000D01*
D38*
X136144000Y-76708000D02*
X136144000Y-72263000D01*
D37*
X137795000Y-70612000D02*
X142113000Y-70612000D01*
X136144000Y-72263000D02*
X137795000Y-70612000D01*
D38*
X138557000Y-64643000D02*
X138557000Y-66040000D01*
X121826000Y-70993000D02*
X123063000Y-70993000D01*
X133604000Y-72136000D02*
X133604000Y-76708000D01*
D37*
X132842000Y-71374000D02*
X133604000Y-72136000D01*
X123444000Y-71374000D02*
X132842000Y-71374000D01*
D38*
X123063000Y-70993000D02*
X123444000Y-71374000D01*
X131794000Y-69850000D02*
X131794000Y-68104000D01*
X137287000Y-65913000D02*
X137287000Y-64643000D01*
D37*
X137160000Y-66040000D02*
X137287000Y-65913000D01*
D38*
X131794000Y-68104000D02*
X133858000Y-66040000D01*
D37*
X131794000Y-69850000D02*
X133604000Y-69850000D01*
X131794000Y-69850000D02*
X131826000Y-69850000D01*
D38*
X131064000Y-76708000D02*
X131064000Y-73406000D01*
X131064000Y-73406000D02*
X132080000Y-72390000D01*
X122396000Y-81534000D02*
X122396000Y-79978000D01*
X122364000Y-80010000D02*
X111474000Y-80010000D01*
X122396000Y-79978000D02*
X122364000Y-80010000D01*
X111474000Y-80010000D02*
X111220000Y-80264000D01*
X121666000Y-84328000D02*
X121666000Y-83566000D01*
X122396000Y-82836000D02*
X122396000Y-81534000D01*
X121666000Y-83566000D02*
X122396000Y-82836000D01*
X128524000Y-76708000D02*
X128016000Y-73152000D01*
X116426000Y-68420000D02*
X116426000Y-69723000D01*
D37*
X116332000Y-68326000D02*
X116426000Y-68420000D01*
D38*
X121666000Y-84328000D02*
X123444000Y-84328000D01*
X128524000Y-79248000D02*
X128524000Y-76708000D01*
X123444000Y-84328000D02*
X128524000Y-79248000D01*
D39*
G36*
X168200000Y-85471000D02*
X156930742Y-85471000D01*
X157089317Y-85441162D01*
X157305441Y-85302090D01*
X157450431Y-85089890D01*
X157501440Y-84838000D01*
X157501440Y-83338000D01*
X157457162Y-83102683D01*
X157351518Y-82938508D01*
X157392327Y-82897699D01*
X157489000Y-82664310D01*
X157489000Y-82073750D01*
X160519000Y-82073750D01*
X160519000Y-83814310D01*
X160615673Y-84047699D01*
X160794302Y-84226327D01*
X161027691Y-84323000D01*
X161868250Y-84323000D01*
X162027000Y-84164250D01*
X162027000Y-81915000D01*
X162281000Y-81915000D01*
X162281000Y-84164250D01*
X162439750Y-84323000D01*
X163280309Y-84323000D01*
X163513698Y-84226327D01*
X163692327Y-84047699D01*
X163789000Y-83814310D01*
X163789000Y-83565750D01*
X164231000Y-83565750D01*
X164231000Y-84406309D01*
X164327673Y-84639698D01*
X164506301Y-84818327D01*
X164739690Y-84915000D01*
X165830250Y-84915000D01*
X165989000Y-84756250D01*
X165989000Y-83407000D01*
X166243000Y-83407000D01*
X166243000Y-84756250D01*
X166401750Y-84915000D01*
X167492310Y-84915000D01*
X167725699Y-84818327D01*
X167904327Y-84639698D01*
X168001000Y-84406309D01*
X168001000Y-83565750D01*
X167842250Y-83407000D01*
X166243000Y-83407000D01*
X165989000Y-83407000D01*
X164389750Y-83407000D01*
X164231000Y-83565750D01*
X163789000Y-83565750D01*
X163789000Y-82153691D01*
X164231000Y-82153691D01*
X164231000Y-82994250D01*
X164389750Y-83153000D01*
X165989000Y-83153000D01*
X165989000Y-81803750D01*
X166243000Y-81803750D01*
X166243000Y-83153000D01*
X167842250Y-83153000D01*
X168001000Y-82994250D01*
X168001000Y-82153691D01*
X167904327Y-81920302D01*
X167725699Y-81741673D01*
X167492310Y-81645000D01*
X166401750Y-81645000D01*
X166243000Y-81803750D01*
X165989000Y-81803750D01*
X165830250Y-81645000D01*
X164739690Y-81645000D01*
X164506301Y-81741673D01*
X164327673Y-81920302D01*
X164231000Y-82153691D01*
X163789000Y-82153691D01*
X163789000Y-82073750D01*
X163630250Y-81915000D01*
X162281000Y-81915000D01*
X162027000Y-81915000D01*
X160677750Y-81915000D01*
X160519000Y-82073750D01*
X157489000Y-82073750D01*
X157330250Y-81915000D01*
X155981000Y-81915000D01*
X155981000Y-81935000D01*
X155727000Y-81935000D01*
X155727000Y-81915000D01*
X154377750Y-81915000D01*
X154219000Y-82073750D01*
X154219000Y-82664310D01*
X154229785Y-82690347D01*
X154061754Y-82689042D01*
X153838511Y-82731648D01*
X153613025Y-82760074D01*
X152470025Y-83141074D01*
X152000545Y-83408697D01*
X151669218Y-83835609D01*
X151526484Y-84356818D01*
X151594074Y-84892975D01*
X151861697Y-85362455D01*
X152001556Y-85471000D01*
X122338298Y-85471000D01*
X122636142Y-85271988D01*
X122675556Y-85213000D01*
X123443995Y-85213000D01*
X123444000Y-85213001D01*
X123752576Y-85151620D01*
X123782675Y-85145633D01*
X124069790Y-84953790D01*
X129149787Y-79873792D01*
X129149790Y-79873790D01*
X129341633Y-79586675D01*
X129375486Y-79416487D01*
X129409001Y-79248000D01*
X129409000Y-79247995D01*
X129409000Y-77897432D01*
X129574054Y-77787147D01*
X129794000Y-77457974D01*
X130013946Y-77787147D01*
X130495715Y-78109054D01*
X131064000Y-78222093D01*
X131632285Y-78109054D01*
X132114054Y-77787147D01*
X132334000Y-77457974D01*
X132553946Y-77787147D01*
X133035715Y-78109054D01*
X133604000Y-78222093D01*
X134172285Y-78109054D01*
X134654054Y-77787147D01*
X134874000Y-77457974D01*
X135093946Y-77787147D01*
X135575715Y-78109054D01*
X136144000Y-78222093D01*
X136712285Y-78109054D01*
X137194054Y-77787147D01*
X137414000Y-77457974D01*
X137633946Y-77787147D01*
X138115715Y-78109054D01*
X138684000Y-78222093D01*
X139252285Y-78109054D01*
X139734054Y-77787147D01*
X139954000Y-77457974D01*
X140017064Y-77552356D01*
X139418164Y-78151256D01*
X139298057Y-78200883D01*
X139034808Y-78463673D01*
X138892162Y-78807201D01*
X138891838Y-79179167D01*
X139033883Y-79522943D01*
X139296673Y-79786192D01*
X139640201Y-79928838D01*
X140012167Y-79929162D01*
X140355943Y-79787117D01*
X140619192Y-79524327D01*
X140669566Y-79403014D01*
X141849789Y-78222790D01*
X142033460Y-77947906D01*
X142274054Y-77787147D01*
X142494000Y-77457974D01*
X142713946Y-77787147D01*
X143195715Y-78109054D01*
X143764000Y-78222093D01*
X144332285Y-78109054D01*
X144814054Y-77787147D01*
X145034000Y-77457974D01*
X145253946Y-77787147D01*
X145735715Y-78109054D01*
X146304000Y-78222093D01*
X146872285Y-78109054D01*
X147354054Y-77787147D01*
X147381850Y-77745548D01*
X147390838Y-77793317D01*
X147529910Y-78009441D01*
X147742110Y-78154431D01*
X147994000Y-78205440D01*
X149694000Y-78205440D01*
X149929317Y-78161162D01*
X149993324Y-78119974D01*
X154206560Y-79802619D01*
X154206560Y-80238000D01*
X154250838Y-80473317D01*
X154356482Y-80637492D01*
X154315673Y-80678301D01*
X154219000Y-80911690D01*
X154219000Y-81502250D01*
X154377750Y-81661000D01*
X155727000Y-81661000D01*
X155727000Y-81641000D01*
X155981000Y-81641000D01*
X155981000Y-81661000D01*
X157330250Y-81661000D01*
X157489000Y-81502250D01*
X157489000Y-80911690D01*
X157392327Y-80678301D01*
X157350366Y-80636340D01*
X157450431Y-80489890D01*
X157501440Y-80238000D01*
X157501440Y-79761690D01*
X160519000Y-79761690D01*
X160519000Y-81502250D01*
X160677750Y-81661000D01*
X162027000Y-81661000D01*
X162027000Y-79411750D01*
X162281000Y-79411750D01*
X162281000Y-81661000D01*
X163630250Y-81661000D01*
X163789000Y-81502250D01*
X163789000Y-79761690D01*
X163692327Y-79528301D01*
X163513698Y-79349673D01*
X163280309Y-79253000D01*
X162439750Y-79253000D01*
X162281000Y-79411750D01*
X162027000Y-79411750D01*
X161868250Y-79253000D01*
X161027691Y-79253000D01*
X160794302Y-79349673D01*
X160615673Y-79528301D01*
X160519000Y-79761690D01*
X157501440Y-79761690D01*
X157501440Y-78738000D01*
X157457162Y-78502683D01*
X157318090Y-78286559D01*
X157105890Y-78141569D01*
X157017496Y-78123669D01*
X157107267Y-77847000D01*
X162193420Y-77847000D01*
X164218560Y-79872139D01*
X164218560Y-80280000D01*
X164262838Y-80515317D01*
X164401910Y-80731441D01*
X164614110Y-80876431D01*
X164866000Y-80927440D01*
X167366000Y-80927440D01*
X167601317Y-80883162D01*
X167817441Y-80744090D01*
X167962431Y-80531890D01*
X168013440Y-80280000D01*
X168013440Y-78280000D01*
X167969162Y-78044683D01*
X167830090Y-77828559D01*
X167617890Y-77683569D01*
X167366000Y-77632560D01*
X164866000Y-77632560D01*
X164630683Y-77676838D01*
X164567241Y-77717662D01*
X164367579Y-77518000D01*
X167894000Y-77518000D01*
X168021338Y-77492671D01*
X168150144Y-77476433D01*
X168175428Y-77462020D01*
X168200000Y-77457132D01*
X168200000Y-85471000D01*
X168200000Y-85471000D01*
G37*
X168200000Y-85471000D02*
X156930742Y-85471000D01*
X157089317Y-85441162D01*
X157305441Y-85302090D01*
X157450431Y-85089890D01*
X157501440Y-84838000D01*
X157501440Y-83338000D01*
X157457162Y-83102683D01*
X157351518Y-82938508D01*
X157392327Y-82897699D01*
X157489000Y-82664310D01*
X157489000Y-82073750D01*
X160519000Y-82073750D01*
X160519000Y-83814310D01*
X160615673Y-84047699D01*
X160794302Y-84226327D01*
X161027691Y-84323000D01*
X161868250Y-84323000D01*
X162027000Y-84164250D01*
X162027000Y-81915000D01*
X162281000Y-81915000D01*
X162281000Y-84164250D01*
X162439750Y-84323000D01*
X163280309Y-84323000D01*
X163513698Y-84226327D01*
X163692327Y-84047699D01*
X163789000Y-83814310D01*
X163789000Y-83565750D01*
X164231000Y-83565750D01*
X164231000Y-84406309D01*
X164327673Y-84639698D01*
X164506301Y-84818327D01*
X164739690Y-84915000D01*
X165830250Y-84915000D01*
X165989000Y-84756250D01*
X165989000Y-83407000D01*
X166243000Y-83407000D01*
X166243000Y-84756250D01*
X166401750Y-84915000D01*
X167492310Y-84915000D01*
X167725699Y-84818327D01*
X167904327Y-84639698D01*
X168001000Y-84406309D01*
X168001000Y-83565750D01*
X167842250Y-83407000D01*
X166243000Y-83407000D01*
X165989000Y-83407000D01*
X164389750Y-83407000D01*
X164231000Y-83565750D01*
X163789000Y-83565750D01*
X163789000Y-82153691D01*
X164231000Y-82153691D01*
X164231000Y-82994250D01*
X164389750Y-83153000D01*
X165989000Y-83153000D01*
X165989000Y-81803750D01*
X166243000Y-81803750D01*
X166243000Y-83153000D01*
X167842250Y-83153000D01*
X168001000Y-82994250D01*
X168001000Y-82153691D01*
X167904327Y-81920302D01*
X167725699Y-81741673D01*
X167492310Y-81645000D01*
X166401750Y-81645000D01*
X166243000Y-81803750D01*
X165989000Y-81803750D01*
X165830250Y-81645000D01*
X164739690Y-81645000D01*
X164506301Y-81741673D01*
X164327673Y-81920302D01*
X164231000Y-82153691D01*
X163789000Y-82153691D01*
X163789000Y-82073750D01*
X163630250Y-81915000D01*
X162281000Y-81915000D01*
X162027000Y-81915000D01*
X160677750Y-81915000D01*
X160519000Y-82073750D01*
X157489000Y-82073750D01*
X157330250Y-81915000D01*
X155981000Y-81915000D01*
X155981000Y-81935000D01*
X155727000Y-81935000D01*
X155727000Y-81915000D01*
X154377750Y-81915000D01*
X154219000Y-82073750D01*
X154219000Y-82664310D01*
X154229785Y-82690347D01*
X154061754Y-82689042D01*
X153838511Y-82731648D01*
X153613025Y-82760074D01*
X152470025Y-83141074D01*
X152000545Y-83408697D01*
X151669218Y-83835609D01*
X151526484Y-84356818D01*
X151594074Y-84892975D01*
X151861697Y-85362455D01*
X152001556Y-85471000D01*
X122338298Y-85471000D01*
X122636142Y-85271988D01*
X122675556Y-85213000D01*
X123443995Y-85213000D01*
X123444000Y-85213001D01*
X123752576Y-85151620D01*
X123782675Y-85145633D01*
X124069790Y-84953790D01*
X129149787Y-79873792D01*
X129149790Y-79873790D01*
X129341633Y-79586675D01*
X129375486Y-79416487D01*
X129409001Y-79248000D01*
X129409000Y-79247995D01*
X129409000Y-77897432D01*
X129574054Y-77787147D01*
X129794000Y-77457974D01*
X130013946Y-77787147D01*
X130495715Y-78109054D01*
X131064000Y-78222093D01*
X131632285Y-78109054D01*
X132114054Y-77787147D01*
X132334000Y-77457974D01*
X132553946Y-77787147D01*
X133035715Y-78109054D01*
X133604000Y-78222093D01*
X134172285Y-78109054D01*
X134654054Y-77787147D01*
X134874000Y-77457974D01*
X135093946Y-77787147D01*
X135575715Y-78109054D01*
X136144000Y-78222093D01*
X136712285Y-78109054D01*
X137194054Y-77787147D01*
X137414000Y-77457974D01*
X137633946Y-77787147D01*
X138115715Y-78109054D01*
X138684000Y-78222093D01*
X139252285Y-78109054D01*
X139734054Y-77787147D01*
X139954000Y-77457974D01*
X140017064Y-77552356D01*
X139418164Y-78151256D01*
X139298057Y-78200883D01*
X139034808Y-78463673D01*
X138892162Y-78807201D01*
X138891838Y-79179167D01*
X139033883Y-79522943D01*
X139296673Y-79786192D01*
X139640201Y-79928838D01*
X140012167Y-79929162D01*
X140355943Y-79787117D01*
X140619192Y-79524327D01*
X140669566Y-79403014D01*
X141849789Y-78222790D01*
X142033460Y-77947906D01*
X142274054Y-77787147D01*
X142494000Y-77457974D01*
X142713946Y-77787147D01*
X143195715Y-78109054D01*
X143764000Y-78222093D01*
X144332285Y-78109054D01*
X144814054Y-77787147D01*
X145034000Y-77457974D01*
X145253946Y-77787147D01*
X145735715Y-78109054D01*
X146304000Y-78222093D01*
X146872285Y-78109054D01*
X147354054Y-77787147D01*
X147381850Y-77745548D01*
X147390838Y-77793317D01*
X147529910Y-78009441D01*
X147742110Y-78154431D01*
X147994000Y-78205440D01*
X149694000Y-78205440D01*
X149929317Y-78161162D01*
X149993324Y-78119974D01*
X154206560Y-79802619D01*
X154206560Y-80238000D01*
X154250838Y-80473317D01*
X154356482Y-80637492D01*
X154315673Y-80678301D01*
X154219000Y-80911690D01*
X154219000Y-81502250D01*
X154377750Y-81661000D01*
X155727000Y-81661000D01*
X155727000Y-81641000D01*
X155981000Y-81641000D01*
X155981000Y-81661000D01*
X157330250Y-81661000D01*
X157489000Y-81502250D01*
X157489000Y-80911690D01*
X157392327Y-80678301D01*
X157350366Y-80636340D01*
X157450431Y-80489890D01*
X157501440Y-80238000D01*
X157501440Y-79761690D01*
X160519000Y-79761690D01*
X160519000Y-81502250D01*
X160677750Y-81661000D01*
X162027000Y-81661000D01*
X162027000Y-79411750D01*
X162281000Y-79411750D01*
X162281000Y-81661000D01*
X163630250Y-81661000D01*
X163789000Y-81502250D01*
X163789000Y-79761690D01*
X163692327Y-79528301D01*
X163513698Y-79349673D01*
X163280309Y-79253000D01*
X162439750Y-79253000D01*
X162281000Y-79411750D01*
X162027000Y-79411750D01*
X161868250Y-79253000D01*
X161027691Y-79253000D01*
X160794302Y-79349673D01*
X160615673Y-79528301D01*
X160519000Y-79761690D01*
X157501440Y-79761690D01*
X157501440Y-78738000D01*
X157457162Y-78502683D01*
X157318090Y-78286559D01*
X157105890Y-78141569D01*
X157017496Y-78123669D01*
X157107267Y-77847000D01*
X162193420Y-77847000D01*
X164218560Y-79872139D01*
X164218560Y-80280000D01*
X164262838Y-80515317D01*
X164401910Y-80731441D01*
X164614110Y-80876431D01*
X164866000Y-80927440D01*
X167366000Y-80927440D01*
X167601317Y-80883162D01*
X167817441Y-80744090D01*
X167962431Y-80531890D01*
X168013440Y-80280000D01*
X168013440Y-78280000D01*
X167969162Y-78044683D01*
X167830090Y-77828559D01*
X167617890Y-77683569D01*
X167366000Y-77632560D01*
X164866000Y-77632560D01*
X164630683Y-77676838D01*
X164567241Y-77717662D01*
X164367579Y-77518000D01*
X167894000Y-77518000D01*
X168021338Y-77492671D01*
X168150144Y-77476433D01*
X168175428Y-77462020D01*
X168200000Y-77457132D01*
X168200000Y-85471000D01*
G36*
X113902560Y-60039000D02*
X113946838Y-60274317D01*
X114085910Y-60490441D01*
X114298110Y-60635431D01*
X114550000Y-60686440D01*
X116050000Y-60686440D01*
X116285317Y-60642162D01*
X116501441Y-60503090D01*
X116646431Y-60290890D01*
X116697440Y-60039000D01*
X116697440Y-56844000D01*
X118159487Y-56844000D01*
X117077244Y-57926244D01*
X116901658Y-58189026D01*
X116840000Y-58499000D01*
X116840000Y-61783895D01*
X116698559Y-61874910D01*
X116553569Y-62087110D01*
X116502560Y-62339000D01*
X116502560Y-65839000D01*
X116546838Y-66074317D01*
X116685910Y-66290441D01*
X116898110Y-66435431D01*
X116931158Y-66442123D01*
X117016676Y-66570110D01*
X117077244Y-66660756D01*
X118553243Y-68136756D01*
X118583053Y-68156674D01*
X118816026Y-68312342D01*
X119126000Y-68374000D01*
X126680056Y-68374000D01*
X126558683Y-68396838D01*
X126342559Y-68535910D01*
X126197569Y-68748110D01*
X126179366Y-68838000D01*
X122869620Y-68838000D01*
X122852890Y-68826569D01*
X122601000Y-68775560D01*
X121051000Y-68775560D01*
X120815683Y-68819838D01*
X120787458Y-68838000D01*
X120396000Y-68838000D01*
X120057325Y-68905367D01*
X119770210Y-69097210D01*
X119770208Y-69097213D01*
X119389210Y-69478210D01*
X119197367Y-69765325D01*
X119197367Y-69765326D01*
X119129999Y-70104000D01*
X119130000Y-70104005D01*
X119130000Y-73099178D01*
X119080162Y-73219201D01*
X119079838Y-73591167D01*
X119221883Y-73934943D01*
X119484673Y-74198192D01*
X119828201Y-74340838D01*
X120200167Y-74341162D01*
X120534513Y-74203013D01*
X120586910Y-74284441D01*
X120799110Y-74429431D01*
X121051000Y-74480440D01*
X122601000Y-74480440D01*
X122836317Y-74436162D01*
X122864542Y-74418000D01*
X123772178Y-74418000D01*
X123892201Y-74467838D01*
X124264167Y-74468162D01*
X124607943Y-74326117D01*
X124871192Y-74063327D01*
X125013838Y-73719799D01*
X125014162Y-73347833D01*
X124931593Y-73148000D01*
X127081003Y-73148000D01*
X127080838Y-73337167D01*
X127184207Y-73587339D01*
X127475685Y-75627691D01*
X127473946Y-75628853D01*
X127246298Y-75969553D01*
X127179183Y-75826642D01*
X126750924Y-75436355D01*
X126340890Y-75266524D01*
X126111000Y-75387845D01*
X126111000Y-76581000D01*
X126131000Y-76581000D01*
X126131000Y-76835000D01*
X126111000Y-76835000D01*
X126111000Y-78028155D01*
X126340890Y-78149476D01*
X126750924Y-77979645D01*
X127179183Y-77589358D01*
X127246298Y-77446447D01*
X127473946Y-77787147D01*
X127639000Y-77897432D01*
X127639000Y-78881421D01*
X124019830Y-82500590D01*
X124043440Y-82384000D01*
X124043440Y-80684000D01*
X123999162Y-80448683D01*
X123860090Y-80232559D01*
X123647890Y-80087569D01*
X123396000Y-80036560D01*
X123281000Y-80036560D01*
X123281000Y-79978005D01*
X123281001Y-79978000D01*
X123213633Y-79639325D01*
X123021790Y-79352210D01*
X122734675Y-79160367D01*
X122396000Y-79092999D01*
X122235124Y-79125000D01*
X112788618Y-79125000D01*
X112684090Y-78962559D01*
X112471890Y-78817569D01*
X112220000Y-78766560D01*
X110220000Y-78766560D01*
X109984683Y-78810838D01*
X109768559Y-78949910D01*
X109623569Y-79162110D01*
X109572560Y-79414000D01*
X109572560Y-81114000D01*
X109616838Y-81349317D01*
X109755910Y-81565441D01*
X109968110Y-81710431D01*
X110220000Y-81761440D01*
X112220000Y-81761440D01*
X112455317Y-81717162D01*
X112671441Y-81578090D01*
X112816431Y-81365890D01*
X112867440Y-81114000D01*
X112867440Y-80895000D01*
X114759671Y-80895000D01*
X114650808Y-81003673D01*
X114508162Y-81347201D01*
X114507838Y-81719167D01*
X114649883Y-82062943D01*
X114912673Y-82326192D01*
X115256201Y-82468838D01*
X115628167Y-82469162D01*
X115749569Y-82419000D01*
X116755146Y-82419000D01*
X116792838Y-82619317D01*
X116931910Y-82835441D01*
X117144110Y-82980431D01*
X117396000Y-83031440D01*
X117876386Y-83031440D01*
X118013920Y-83551811D01*
X117994902Y-83570796D01*
X117791232Y-84061287D01*
X117790769Y-84592383D01*
X117993582Y-85083229D01*
X118368796Y-85459098D01*
X118397459Y-85471000D01*
X112714549Y-85471000D01*
X112816431Y-85321890D01*
X112867440Y-85070000D01*
X112867440Y-84705000D01*
X113156995Y-84705000D01*
X113157000Y-84705001D01*
X113157005Y-84705000D01*
X114621694Y-84705000D01*
X114758680Y-84842225D01*
X115201959Y-85026290D01*
X115681935Y-85026709D01*
X116125535Y-84843418D01*
X116465225Y-84504320D01*
X116649290Y-84061041D01*
X116649709Y-83581065D01*
X116466418Y-83137465D01*
X116127320Y-82797775D01*
X115684041Y-82613710D01*
X115204065Y-82613291D01*
X114760465Y-82796582D01*
X114621805Y-82935000D01*
X114341423Y-82935000D01*
X114331117Y-82910057D01*
X114068327Y-82646808D01*
X113724799Y-82504162D01*
X113352833Y-82503838D01*
X113009057Y-82645883D01*
X112867440Y-82787253D01*
X112867440Y-82570000D01*
X112823162Y-82334683D01*
X112684090Y-82118559D01*
X112471890Y-81973569D01*
X112220000Y-81922560D01*
X110220000Y-81922560D01*
X109984683Y-81966838D01*
X109768559Y-82105910D01*
X109623569Y-82318110D01*
X109572560Y-82570000D01*
X109572560Y-85070000D01*
X109616838Y-85305317D01*
X109723452Y-85471000D01*
X108717026Y-85471000D01*
X108758327Y-85429699D01*
X108855000Y-85196310D01*
X108855000Y-84105750D01*
X108696250Y-83947000D01*
X107347000Y-83947000D01*
X107347000Y-83967000D01*
X107093000Y-83967000D01*
X107093000Y-83947000D01*
X105743750Y-83947000D01*
X105585000Y-84105750D01*
X105585000Y-85196310D01*
X105681673Y-85429699D01*
X105722974Y-85471000D01*
X105485000Y-85471000D01*
X105485000Y-82443690D01*
X105585000Y-82443690D01*
X105585000Y-83534250D01*
X105743750Y-83693000D01*
X107093000Y-83693000D01*
X107093000Y-82093750D01*
X107347000Y-82093750D01*
X107347000Y-83693000D01*
X108696250Y-83693000D01*
X108855000Y-83534250D01*
X108855000Y-82443690D01*
X108758327Y-82210301D01*
X108579698Y-82031673D01*
X108346309Y-81935000D01*
X107505750Y-81935000D01*
X107347000Y-82093750D01*
X107093000Y-82093750D01*
X106934250Y-81935000D01*
X106093691Y-81935000D01*
X105860302Y-82031673D01*
X105681673Y-82210301D01*
X105585000Y-82443690D01*
X105485000Y-82443690D01*
X105485000Y-80549750D01*
X105585000Y-80549750D01*
X105585000Y-81240310D01*
X105681673Y-81473699D01*
X105860302Y-81652327D01*
X106093691Y-81749000D01*
X106934250Y-81749000D01*
X107093000Y-81590250D01*
X107093000Y-80391000D01*
X107347000Y-80391000D01*
X107347000Y-81590250D01*
X107505750Y-81749000D01*
X108346309Y-81749000D01*
X108579698Y-81652327D01*
X108758327Y-81473699D01*
X108855000Y-81240310D01*
X108855000Y-80549750D01*
X108696250Y-80391000D01*
X107347000Y-80391000D01*
X107093000Y-80391000D01*
X105743750Y-80391000D01*
X105585000Y-80549750D01*
X105485000Y-80549750D01*
X105485000Y-79287690D01*
X105585000Y-79287690D01*
X105585000Y-79978250D01*
X105743750Y-80137000D01*
X107093000Y-80137000D01*
X107093000Y-78937750D01*
X107347000Y-78937750D01*
X107347000Y-80137000D01*
X108696250Y-80137000D01*
X108855000Y-79978250D01*
X108855000Y-79287690D01*
X108758327Y-79054301D01*
X108579698Y-78875673D01*
X108346309Y-78779000D01*
X107505750Y-78779000D01*
X107347000Y-78937750D01*
X107093000Y-78937750D01*
X106934250Y-78779000D01*
X106093691Y-78779000D01*
X105860302Y-78875673D01*
X105681673Y-79054301D01*
X105585000Y-79287690D01*
X105485000Y-79287690D01*
X105485000Y-76993750D01*
X105585000Y-76993750D01*
X105585000Y-78084310D01*
X105681673Y-78317699D01*
X105860302Y-78496327D01*
X106093691Y-78593000D01*
X106934250Y-78593000D01*
X107093000Y-78434250D01*
X107093000Y-76835000D01*
X107347000Y-76835000D01*
X107347000Y-78434250D01*
X107505750Y-78593000D01*
X108346309Y-78593000D01*
X108579698Y-78496327D01*
X108758327Y-78317699D01*
X108855000Y-78084310D01*
X108855000Y-76993750D01*
X108696250Y-76835000D01*
X107347000Y-76835000D01*
X107093000Y-76835000D01*
X105743750Y-76835000D01*
X105585000Y-76993750D01*
X105485000Y-76993750D01*
X105485000Y-75331690D01*
X105585000Y-75331690D01*
X105585000Y-76422250D01*
X105743750Y-76581000D01*
X107093000Y-76581000D01*
X107093000Y-74981750D01*
X107347000Y-74981750D01*
X107347000Y-76581000D01*
X108696250Y-76581000D01*
X108855000Y-76422250D01*
X108855000Y-75331690D01*
X108758327Y-75098301D01*
X108579698Y-74919673D01*
X108346309Y-74823000D01*
X107505750Y-74823000D01*
X107347000Y-74981750D01*
X107093000Y-74981750D01*
X106934250Y-74823000D01*
X106093691Y-74823000D01*
X105860302Y-74919673D01*
X105681673Y-75098301D01*
X105585000Y-75331690D01*
X105485000Y-75331690D01*
X105485000Y-73183750D01*
X105585000Y-73183750D01*
X105585000Y-74274310D01*
X105681673Y-74507699D01*
X105860302Y-74686327D01*
X106093691Y-74783000D01*
X106934250Y-74783000D01*
X107093000Y-74624250D01*
X107093000Y-73025000D01*
X107347000Y-73025000D01*
X107347000Y-74624250D01*
X107505750Y-74783000D01*
X108346309Y-74783000D01*
X108579698Y-74686327D01*
X108758327Y-74507699D01*
X108855000Y-74274310D01*
X108855000Y-73183750D01*
X108696250Y-73025000D01*
X107347000Y-73025000D01*
X107093000Y-73025000D01*
X105743750Y-73025000D01*
X105585000Y-73183750D01*
X105485000Y-73183750D01*
X105485000Y-65952000D01*
X105572560Y-65952000D01*
X105572560Y-67652000D01*
X105616838Y-67887317D01*
X105755910Y-68103441D01*
X105896560Y-68199543D01*
X105768559Y-68281910D01*
X105623569Y-68494110D01*
X105572560Y-68746000D01*
X105572560Y-70446000D01*
X105616838Y-70681317D01*
X105755910Y-70897441D01*
X105968110Y-71042431D01*
X106004734Y-71049847D01*
X105860302Y-71109673D01*
X105681673Y-71288301D01*
X105585000Y-71521690D01*
X105585000Y-72612250D01*
X105743750Y-72771000D01*
X107093000Y-72771000D01*
X107093000Y-72751000D01*
X107347000Y-72751000D01*
X107347000Y-72771000D01*
X108696250Y-72771000D01*
X108855000Y-72612250D01*
X108855000Y-71521690D01*
X108758327Y-71288301D01*
X108579698Y-71109673D01*
X108440392Y-71051970D01*
X108455317Y-71049162D01*
X108671441Y-70910090D01*
X108816431Y-70697890D01*
X108867440Y-70446000D01*
X108867440Y-68746000D01*
X108823162Y-68510683D01*
X108684090Y-68294559D01*
X108543440Y-68198457D01*
X108671441Y-68116090D01*
X108816431Y-67903890D01*
X108867440Y-67652000D01*
X108867440Y-65952000D01*
X108823162Y-65716683D01*
X108684090Y-65500559D01*
X108549717Y-65408746D01*
X108579698Y-65396327D01*
X108758327Y-65217699D01*
X108855000Y-64984310D01*
X108855000Y-64293750D01*
X108696250Y-64135000D01*
X107347000Y-64135000D01*
X107347000Y-64155000D01*
X107093000Y-64155000D01*
X107093000Y-64135000D01*
X105743750Y-64135000D01*
X105585000Y-64293750D01*
X105585000Y-64984310D01*
X105681673Y-65217699D01*
X105860302Y-65396327D01*
X105891075Y-65409073D01*
X105768559Y-65487910D01*
X105623569Y-65700110D01*
X105572560Y-65952000D01*
X105485000Y-65952000D01*
X105485000Y-63031690D01*
X105585000Y-63031690D01*
X105585000Y-63722250D01*
X105743750Y-63881000D01*
X107093000Y-63881000D01*
X107093000Y-62681750D01*
X107347000Y-62681750D01*
X107347000Y-63881000D01*
X108696250Y-63881000D01*
X108855000Y-63722250D01*
X108855000Y-63158000D01*
X109572560Y-63158000D01*
X109572560Y-64858000D01*
X109616838Y-65093317D01*
X109755910Y-65309441D01*
X109896560Y-65405543D01*
X109768559Y-65487910D01*
X109623569Y-65700110D01*
X109572560Y-65952000D01*
X109572560Y-67652000D01*
X109616838Y-67887317D01*
X109755910Y-68103441D01*
X109896560Y-68199543D01*
X109768559Y-68281910D01*
X109623569Y-68494110D01*
X109572560Y-68746000D01*
X109572560Y-70446000D01*
X109616838Y-70681317D01*
X109755910Y-70897441D01*
X109968110Y-71042431D01*
X109983561Y-71045560D01*
X109768559Y-71183910D01*
X109623569Y-71396110D01*
X109572560Y-71648000D01*
X109572560Y-74148000D01*
X109616838Y-74383317D01*
X109755910Y-74599441D01*
X109968110Y-74744431D01*
X110220000Y-74795440D01*
X110335000Y-74795440D01*
X110335000Y-74810560D01*
X110220000Y-74810560D01*
X109984683Y-74854838D01*
X109768559Y-74993910D01*
X109623569Y-75206110D01*
X109572560Y-75458000D01*
X109572560Y-77958000D01*
X109616838Y-78193317D01*
X109755910Y-78409441D01*
X109968110Y-78554431D01*
X110220000Y-78605440D01*
X112220000Y-78605440D01*
X112455317Y-78561162D01*
X112671441Y-78422090D01*
X112816431Y-78209890D01*
X112867440Y-77958000D01*
X112867440Y-77522993D01*
X115033962Y-77621471D01*
X115039673Y-77627192D01*
X115383201Y-77769838D01*
X115755167Y-77770162D01*
X116098943Y-77628117D01*
X116362192Y-77365327D01*
X116486944Y-77064892D01*
X124542514Y-77064892D01*
X124788817Y-77589358D01*
X125217076Y-77979645D01*
X125627110Y-78149476D01*
X125857000Y-78028155D01*
X125857000Y-76835000D01*
X124663181Y-76835000D01*
X124542514Y-77064892D01*
X116486944Y-77064892D01*
X116504838Y-77021799D01*
X116505162Y-76649833D01*
X116451982Y-76521128D01*
X120258981Y-76616303D01*
X120590201Y-76753838D01*
X120962167Y-76754162D01*
X121305943Y-76612117D01*
X121567407Y-76351108D01*
X124542514Y-76351108D01*
X124663181Y-76581000D01*
X125857000Y-76581000D01*
X125857000Y-75387845D01*
X125627110Y-75266524D01*
X125217076Y-75436355D01*
X124788817Y-75826642D01*
X124542514Y-76351108D01*
X121567407Y-76351108D01*
X121569192Y-76349327D01*
X121711838Y-76005799D01*
X121712162Y-75633833D01*
X121570117Y-75290057D01*
X121307327Y-75026808D01*
X120963799Y-74884162D01*
X120591833Y-74883838D01*
X120317341Y-74997255D01*
X116062349Y-74890881D01*
X115676185Y-74468000D01*
X116140250Y-74468000D01*
X116299000Y-74309250D01*
X116299000Y-73660000D01*
X116553000Y-73660000D01*
X116553000Y-74309250D01*
X116711750Y-74468000D01*
X117327309Y-74468000D01*
X117560698Y-74371327D01*
X117739327Y-74192699D01*
X117836000Y-73959310D01*
X117836000Y-73818750D01*
X117677250Y-73660000D01*
X116553000Y-73660000D01*
X116299000Y-73660000D01*
X116279000Y-73660000D01*
X116279000Y-73406000D01*
X116299000Y-73406000D01*
X116299000Y-73386000D01*
X116553000Y-73386000D01*
X116553000Y-73406000D01*
X117677250Y-73406000D01*
X117836000Y-73247250D01*
X117836000Y-73106690D01*
X117746194Y-72889878D01*
X117797431Y-72814890D01*
X117848440Y-72563000D01*
X117848440Y-71963000D01*
X117804162Y-71727683D01*
X117740322Y-71628472D01*
X117797431Y-71544890D01*
X117848440Y-71293000D01*
X117848440Y-70693000D01*
X117804162Y-70457683D01*
X117740322Y-70358472D01*
X117797431Y-70274890D01*
X117848440Y-70023000D01*
X117848440Y-69423000D01*
X117804162Y-69187683D01*
X117665090Y-68971559D01*
X117452890Y-68826569D01*
X117311000Y-68797836D01*
X117311000Y-68420000D01*
X117267111Y-68199356D01*
X117267162Y-68140833D01*
X117244616Y-68086268D01*
X117243633Y-68081325D01*
X117240858Y-68077171D01*
X117125117Y-67797057D01*
X116862327Y-67533808D01*
X116518799Y-67391162D01*
X116146833Y-67390838D01*
X115883661Y-67499578D01*
X115879633Y-67479326D01*
X115879633Y-67479325D01*
X115687790Y-67192210D01*
X115687787Y-67192208D01*
X114671790Y-66176210D01*
X114575652Y-66111973D01*
X114384675Y-65984367D01*
X114328484Y-65973190D01*
X114046000Y-65916999D01*
X114045995Y-65917000D01*
X112860854Y-65917000D01*
X112823162Y-65716683D01*
X112684090Y-65500559D01*
X112543440Y-65404457D01*
X112671441Y-65322090D01*
X112816431Y-65109890D01*
X112867440Y-64858000D01*
X112867440Y-63158000D01*
X112823162Y-62922683D01*
X112684090Y-62706559D01*
X112471890Y-62561569D01*
X112220000Y-62510560D01*
X110220000Y-62510560D01*
X109984683Y-62554838D01*
X109768559Y-62693910D01*
X109623569Y-62906110D01*
X109572560Y-63158000D01*
X108855000Y-63158000D01*
X108855000Y-63031690D01*
X108758327Y-62798301D01*
X108579698Y-62619673D01*
X108346309Y-62523000D01*
X107505750Y-62523000D01*
X107347000Y-62681750D01*
X107093000Y-62681750D01*
X106934250Y-62523000D01*
X106093691Y-62523000D01*
X105860302Y-62619673D01*
X105681673Y-62798301D01*
X105585000Y-63031690D01*
X105485000Y-63031690D01*
X105485000Y-60200168D01*
X105687709Y-60690761D01*
X106437293Y-61441655D01*
X107417173Y-61848536D01*
X108478172Y-61849462D01*
X109458761Y-61444291D01*
X110209655Y-60694707D01*
X110616536Y-59714827D01*
X110617462Y-58653828D01*
X110212291Y-57673239D01*
X109462707Y-56922345D01*
X109274031Y-56844000D01*
X113902560Y-56844000D01*
X113902560Y-60039000D01*
X113902560Y-60039000D01*
G37*
X113902560Y-60039000D02*
X113946838Y-60274317D01*
X114085910Y-60490441D01*
X114298110Y-60635431D01*
X114550000Y-60686440D01*
X116050000Y-60686440D01*
X116285317Y-60642162D01*
X116501441Y-60503090D01*
X116646431Y-60290890D01*
X116697440Y-60039000D01*
X116697440Y-56844000D01*
X118159487Y-56844000D01*
X117077244Y-57926244D01*
X116901658Y-58189026D01*
X116840000Y-58499000D01*
X116840000Y-61783895D01*
X116698559Y-61874910D01*
X116553569Y-62087110D01*
X116502560Y-62339000D01*
X116502560Y-65839000D01*
X116546838Y-66074317D01*
X116685910Y-66290441D01*
X116898110Y-66435431D01*
X116931158Y-66442123D01*
X117016676Y-66570110D01*
X117077244Y-66660756D01*
X118553243Y-68136756D01*
X118583053Y-68156674D01*
X118816026Y-68312342D01*
X119126000Y-68374000D01*
X126680056Y-68374000D01*
X126558683Y-68396838D01*
X126342559Y-68535910D01*
X126197569Y-68748110D01*
X126179366Y-68838000D01*
X122869620Y-68838000D01*
X122852890Y-68826569D01*
X122601000Y-68775560D01*
X121051000Y-68775560D01*
X120815683Y-68819838D01*
X120787458Y-68838000D01*
X120396000Y-68838000D01*
X120057325Y-68905367D01*
X119770210Y-69097210D01*
X119770208Y-69097213D01*
X119389210Y-69478210D01*
X119197367Y-69765325D01*
X119197367Y-69765326D01*
X119129999Y-70104000D01*
X119130000Y-70104005D01*
X119130000Y-73099178D01*
X119080162Y-73219201D01*
X119079838Y-73591167D01*
X119221883Y-73934943D01*
X119484673Y-74198192D01*
X119828201Y-74340838D01*
X120200167Y-74341162D01*
X120534513Y-74203013D01*
X120586910Y-74284441D01*
X120799110Y-74429431D01*
X121051000Y-74480440D01*
X122601000Y-74480440D01*
X122836317Y-74436162D01*
X122864542Y-74418000D01*
X123772178Y-74418000D01*
X123892201Y-74467838D01*
X124264167Y-74468162D01*
X124607943Y-74326117D01*
X124871192Y-74063327D01*
X125013838Y-73719799D01*
X125014162Y-73347833D01*
X124931593Y-73148000D01*
X127081003Y-73148000D01*
X127080838Y-73337167D01*
X127184207Y-73587339D01*
X127475685Y-75627691D01*
X127473946Y-75628853D01*
X127246298Y-75969553D01*
X127179183Y-75826642D01*
X126750924Y-75436355D01*
X126340890Y-75266524D01*
X126111000Y-75387845D01*
X126111000Y-76581000D01*
X126131000Y-76581000D01*
X126131000Y-76835000D01*
X126111000Y-76835000D01*
X126111000Y-78028155D01*
X126340890Y-78149476D01*
X126750924Y-77979645D01*
X127179183Y-77589358D01*
X127246298Y-77446447D01*
X127473946Y-77787147D01*
X127639000Y-77897432D01*
X127639000Y-78881421D01*
X124019830Y-82500590D01*
X124043440Y-82384000D01*
X124043440Y-80684000D01*
X123999162Y-80448683D01*
X123860090Y-80232559D01*
X123647890Y-80087569D01*
X123396000Y-80036560D01*
X123281000Y-80036560D01*
X123281000Y-79978005D01*
X123281001Y-79978000D01*
X123213633Y-79639325D01*
X123021790Y-79352210D01*
X122734675Y-79160367D01*
X122396000Y-79092999D01*
X122235124Y-79125000D01*
X112788618Y-79125000D01*
X112684090Y-78962559D01*
X112471890Y-78817569D01*
X112220000Y-78766560D01*
X110220000Y-78766560D01*
X109984683Y-78810838D01*
X109768559Y-78949910D01*
X109623569Y-79162110D01*
X109572560Y-79414000D01*
X109572560Y-81114000D01*
X109616838Y-81349317D01*
X109755910Y-81565441D01*
X109968110Y-81710431D01*
X110220000Y-81761440D01*
X112220000Y-81761440D01*
X112455317Y-81717162D01*
X112671441Y-81578090D01*
X112816431Y-81365890D01*
X112867440Y-81114000D01*
X112867440Y-80895000D01*
X114759671Y-80895000D01*
X114650808Y-81003673D01*
X114508162Y-81347201D01*
X114507838Y-81719167D01*
X114649883Y-82062943D01*
X114912673Y-82326192D01*
X115256201Y-82468838D01*
X115628167Y-82469162D01*
X115749569Y-82419000D01*
X116755146Y-82419000D01*
X116792838Y-82619317D01*
X116931910Y-82835441D01*
X117144110Y-82980431D01*
X117396000Y-83031440D01*
X117876386Y-83031440D01*
X118013920Y-83551811D01*
X117994902Y-83570796D01*
X117791232Y-84061287D01*
X117790769Y-84592383D01*
X117993582Y-85083229D01*
X118368796Y-85459098D01*
X118397459Y-85471000D01*
X112714549Y-85471000D01*
X112816431Y-85321890D01*
X112867440Y-85070000D01*
X112867440Y-84705000D01*
X113156995Y-84705000D01*
X113157000Y-84705001D01*
X113157005Y-84705000D01*
X114621694Y-84705000D01*
X114758680Y-84842225D01*
X115201959Y-85026290D01*
X115681935Y-85026709D01*
X116125535Y-84843418D01*
X116465225Y-84504320D01*
X116649290Y-84061041D01*
X116649709Y-83581065D01*
X116466418Y-83137465D01*
X116127320Y-82797775D01*
X115684041Y-82613710D01*
X115204065Y-82613291D01*
X114760465Y-82796582D01*
X114621805Y-82935000D01*
X114341423Y-82935000D01*
X114331117Y-82910057D01*
X114068327Y-82646808D01*
X113724799Y-82504162D01*
X113352833Y-82503838D01*
X113009057Y-82645883D01*
X112867440Y-82787253D01*
X112867440Y-82570000D01*
X112823162Y-82334683D01*
X112684090Y-82118559D01*
X112471890Y-81973569D01*
X112220000Y-81922560D01*
X110220000Y-81922560D01*
X109984683Y-81966838D01*
X109768559Y-82105910D01*
X109623569Y-82318110D01*
X109572560Y-82570000D01*
X109572560Y-85070000D01*
X109616838Y-85305317D01*
X109723452Y-85471000D01*
X108717026Y-85471000D01*
X108758327Y-85429699D01*
X108855000Y-85196310D01*
X108855000Y-84105750D01*
X108696250Y-83947000D01*
X107347000Y-83947000D01*
X107347000Y-83967000D01*
X107093000Y-83967000D01*
X107093000Y-83947000D01*
X105743750Y-83947000D01*
X105585000Y-84105750D01*
X105585000Y-85196310D01*
X105681673Y-85429699D01*
X105722974Y-85471000D01*
X105485000Y-85471000D01*
X105485000Y-82443690D01*
X105585000Y-82443690D01*
X105585000Y-83534250D01*
X105743750Y-83693000D01*
X107093000Y-83693000D01*
X107093000Y-82093750D01*
X107347000Y-82093750D01*
X107347000Y-83693000D01*
X108696250Y-83693000D01*
X108855000Y-83534250D01*
X108855000Y-82443690D01*
X108758327Y-82210301D01*
X108579698Y-82031673D01*
X108346309Y-81935000D01*
X107505750Y-81935000D01*
X107347000Y-82093750D01*
X107093000Y-82093750D01*
X106934250Y-81935000D01*
X106093691Y-81935000D01*
X105860302Y-82031673D01*
X105681673Y-82210301D01*
X105585000Y-82443690D01*
X105485000Y-82443690D01*
X105485000Y-80549750D01*
X105585000Y-80549750D01*
X105585000Y-81240310D01*
X105681673Y-81473699D01*
X105860302Y-81652327D01*
X106093691Y-81749000D01*
X106934250Y-81749000D01*
X107093000Y-81590250D01*
X107093000Y-80391000D01*
X107347000Y-80391000D01*
X107347000Y-81590250D01*
X107505750Y-81749000D01*
X108346309Y-81749000D01*
X108579698Y-81652327D01*
X108758327Y-81473699D01*
X108855000Y-81240310D01*
X108855000Y-80549750D01*
X108696250Y-80391000D01*
X107347000Y-80391000D01*
X107093000Y-80391000D01*
X105743750Y-80391000D01*
X105585000Y-80549750D01*
X105485000Y-80549750D01*
X105485000Y-79287690D01*
X105585000Y-79287690D01*
X105585000Y-79978250D01*
X105743750Y-80137000D01*
X107093000Y-80137000D01*
X107093000Y-78937750D01*
X107347000Y-78937750D01*
X107347000Y-80137000D01*
X108696250Y-80137000D01*
X108855000Y-79978250D01*
X108855000Y-79287690D01*
X108758327Y-79054301D01*
X108579698Y-78875673D01*
X108346309Y-78779000D01*
X107505750Y-78779000D01*
X107347000Y-78937750D01*
X107093000Y-78937750D01*
X106934250Y-78779000D01*
X106093691Y-78779000D01*
X105860302Y-78875673D01*
X105681673Y-79054301D01*
X105585000Y-79287690D01*
X105485000Y-79287690D01*
X105485000Y-76993750D01*
X105585000Y-76993750D01*
X105585000Y-78084310D01*
X105681673Y-78317699D01*
X105860302Y-78496327D01*
X106093691Y-78593000D01*
X106934250Y-78593000D01*
X107093000Y-78434250D01*
X107093000Y-76835000D01*
X107347000Y-76835000D01*
X107347000Y-78434250D01*
X107505750Y-78593000D01*
X108346309Y-78593000D01*
X108579698Y-78496327D01*
X108758327Y-78317699D01*
X108855000Y-78084310D01*
X108855000Y-76993750D01*
X108696250Y-76835000D01*
X107347000Y-76835000D01*
X107093000Y-76835000D01*
X105743750Y-76835000D01*
X105585000Y-76993750D01*
X105485000Y-76993750D01*
X105485000Y-75331690D01*
X105585000Y-75331690D01*
X105585000Y-76422250D01*
X105743750Y-76581000D01*
X107093000Y-76581000D01*
X107093000Y-74981750D01*
X107347000Y-74981750D01*
X107347000Y-76581000D01*
X108696250Y-76581000D01*
X108855000Y-76422250D01*
X108855000Y-75331690D01*
X108758327Y-75098301D01*
X108579698Y-74919673D01*
X108346309Y-74823000D01*
X107505750Y-74823000D01*
X107347000Y-74981750D01*
X107093000Y-74981750D01*
X106934250Y-74823000D01*
X106093691Y-74823000D01*
X105860302Y-74919673D01*
X105681673Y-75098301D01*
X105585000Y-75331690D01*
X105485000Y-75331690D01*
X105485000Y-73183750D01*
X105585000Y-73183750D01*
X105585000Y-74274310D01*
X105681673Y-74507699D01*
X105860302Y-74686327D01*
X106093691Y-74783000D01*
X106934250Y-74783000D01*
X107093000Y-74624250D01*
X107093000Y-73025000D01*
X107347000Y-73025000D01*
X107347000Y-74624250D01*
X107505750Y-74783000D01*
X108346309Y-74783000D01*
X108579698Y-74686327D01*
X108758327Y-74507699D01*
X108855000Y-74274310D01*
X108855000Y-73183750D01*
X108696250Y-73025000D01*
X107347000Y-73025000D01*
X107093000Y-73025000D01*
X105743750Y-73025000D01*
X105585000Y-73183750D01*
X105485000Y-73183750D01*
X105485000Y-65952000D01*
X105572560Y-65952000D01*
X105572560Y-67652000D01*
X105616838Y-67887317D01*
X105755910Y-68103441D01*
X105896560Y-68199543D01*
X105768559Y-68281910D01*
X105623569Y-68494110D01*
X105572560Y-68746000D01*
X105572560Y-70446000D01*
X105616838Y-70681317D01*
X105755910Y-70897441D01*
X105968110Y-71042431D01*
X106004734Y-71049847D01*
X105860302Y-71109673D01*
X105681673Y-71288301D01*
X105585000Y-71521690D01*
X105585000Y-72612250D01*
X105743750Y-72771000D01*
X107093000Y-72771000D01*
X107093000Y-72751000D01*
X107347000Y-72751000D01*
X107347000Y-72771000D01*
X108696250Y-72771000D01*
X108855000Y-72612250D01*
X108855000Y-71521690D01*
X108758327Y-71288301D01*
X108579698Y-71109673D01*
X108440392Y-71051970D01*
X108455317Y-71049162D01*
X108671441Y-70910090D01*
X108816431Y-70697890D01*
X108867440Y-70446000D01*
X108867440Y-68746000D01*
X108823162Y-68510683D01*
X108684090Y-68294559D01*
X108543440Y-68198457D01*
X108671441Y-68116090D01*
X108816431Y-67903890D01*
X108867440Y-67652000D01*
X108867440Y-65952000D01*
X108823162Y-65716683D01*
X108684090Y-65500559D01*
X108549717Y-65408746D01*
X108579698Y-65396327D01*
X108758327Y-65217699D01*
X108855000Y-64984310D01*
X108855000Y-64293750D01*
X108696250Y-64135000D01*
X107347000Y-64135000D01*
X107347000Y-64155000D01*
X107093000Y-64155000D01*
X107093000Y-64135000D01*
X105743750Y-64135000D01*
X105585000Y-64293750D01*
X105585000Y-64984310D01*
X105681673Y-65217699D01*
X105860302Y-65396327D01*
X105891075Y-65409073D01*
X105768559Y-65487910D01*
X105623569Y-65700110D01*
X105572560Y-65952000D01*
X105485000Y-65952000D01*
X105485000Y-63031690D01*
X105585000Y-63031690D01*
X105585000Y-63722250D01*
X105743750Y-63881000D01*
X107093000Y-63881000D01*
X107093000Y-62681750D01*
X107347000Y-62681750D01*
X107347000Y-63881000D01*
X108696250Y-63881000D01*
X108855000Y-63722250D01*
X108855000Y-63158000D01*
X109572560Y-63158000D01*
X109572560Y-64858000D01*
X109616838Y-65093317D01*
X109755910Y-65309441D01*
X109896560Y-65405543D01*
X109768559Y-65487910D01*
X109623569Y-65700110D01*
X109572560Y-65952000D01*
X109572560Y-67652000D01*
X109616838Y-67887317D01*
X109755910Y-68103441D01*
X109896560Y-68199543D01*
X109768559Y-68281910D01*
X109623569Y-68494110D01*
X109572560Y-68746000D01*
X109572560Y-70446000D01*
X109616838Y-70681317D01*
X109755910Y-70897441D01*
X109968110Y-71042431D01*
X109983561Y-71045560D01*
X109768559Y-71183910D01*
X109623569Y-71396110D01*
X109572560Y-71648000D01*
X109572560Y-74148000D01*
X109616838Y-74383317D01*
X109755910Y-74599441D01*
X109968110Y-74744431D01*
X110220000Y-74795440D01*
X110335000Y-74795440D01*
X110335000Y-74810560D01*
X110220000Y-74810560D01*
X109984683Y-74854838D01*
X109768559Y-74993910D01*
X109623569Y-75206110D01*
X109572560Y-75458000D01*
X109572560Y-77958000D01*
X109616838Y-78193317D01*
X109755910Y-78409441D01*
X109968110Y-78554431D01*
X110220000Y-78605440D01*
X112220000Y-78605440D01*
X112455317Y-78561162D01*
X112671441Y-78422090D01*
X112816431Y-78209890D01*
X112867440Y-77958000D01*
X112867440Y-77522993D01*
X115033962Y-77621471D01*
X115039673Y-77627192D01*
X115383201Y-77769838D01*
X115755167Y-77770162D01*
X116098943Y-77628117D01*
X116362192Y-77365327D01*
X116486944Y-77064892D01*
X124542514Y-77064892D01*
X124788817Y-77589358D01*
X125217076Y-77979645D01*
X125627110Y-78149476D01*
X125857000Y-78028155D01*
X125857000Y-76835000D01*
X124663181Y-76835000D01*
X124542514Y-77064892D01*
X116486944Y-77064892D01*
X116504838Y-77021799D01*
X116505162Y-76649833D01*
X116451982Y-76521128D01*
X120258981Y-76616303D01*
X120590201Y-76753838D01*
X120962167Y-76754162D01*
X121305943Y-76612117D01*
X121567407Y-76351108D01*
X124542514Y-76351108D01*
X124663181Y-76581000D01*
X125857000Y-76581000D01*
X125857000Y-75387845D01*
X125627110Y-75266524D01*
X125217076Y-75436355D01*
X124788817Y-75826642D01*
X124542514Y-76351108D01*
X121567407Y-76351108D01*
X121569192Y-76349327D01*
X121711838Y-76005799D01*
X121712162Y-75633833D01*
X121570117Y-75290057D01*
X121307327Y-75026808D01*
X120963799Y-74884162D01*
X120591833Y-74883838D01*
X120317341Y-74997255D01*
X116062349Y-74890881D01*
X115676185Y-74468000D01*
X116140250Y-74468000D01*
X116299000Y-74309250D01*
X116299000Y-73660000D01*
X116553000Y-73660000D01*
X116553000Y-74309250D01*
X116711750Y-74468000D01*
X117327309Y-74468000D01*
X117560698Y-74371327D01*
X117739327Y-74192699D01*
X117836000Y-73959310D01*
X117836000Y-73818750D01*
X117677250Y-73660000D01*
X116553000Y-73660000D01*
X116299000Y-73660000D01*
X116279000Y-73660000D01*
X116279000Y-73406000D01*
X116299000Y-73406000D01*
X116299000Y-73386000D01*
X116553000Y-73386000D01*
X116553000Y-73406000D01*
X117677250Y-73406000D01*
X117836000Y-73247250D01*
X117836000Y-73106690D01*
X117746194Y-72889878D01*
X117797431Y-72814890D01*
X117848440Y-72563000D01*
X117848440Y-71963000D01*
X117804162Y-71727683D01*
X117740322Y-71628472D01*
X117797431Y-71544890D01*
X117848440Y-71293000D01*
X117848440Y-70693000D01*
X117804162Y-70457683D01*
X117740322Y-70358472D01*
X117797431Y-70274890D01*
X117848440Y-70023000D01*
X117848440Y-69423000D01*
X117804162Y-69187683D01*
X117665090Y-68971559D01*
X117452890Y-68826569D01*
X117311000Y-68797836D01*
X117311000Y-68420000D01*
X117267111Y-68199356D01*
X117267162Y-68140833D01*
X117244616Y-68086268D01*
X117243633Y-68081325D01*
X117240858Y-68077171D01*
X117125117Y-67797057D01*
X116862327Y-67533808D01*
X116518799Y-67391162D01*
X116146833Y-67390838D01*
X115883661Y-67499578D01*
X115879633Y-67479326D01*
X115879633Y-67479325D01*
X115687790Y-67192210D01*
X115687787Y-67192208D01*
X114671790Y-66176210D01*
X114575652Y-66111973D01*
X114384675Y-65984367D01*
X114328484Y-65973190D01*
X114046000Y-65916999D01*
X114045995Y-65917000D01*
X112860854Y-65917000D01*
X112823162Y-65716683D01*
X112684090Y-65500559D01*
X112543440Y-65404457D01*
X112671441Y-65322090D01*
X112816431Y-65109890D01*
X112867440Y-64858000D01*
X112867440Y-63158000D01*
X112823162Y-62922683D01*
X112684090Y-62706559D01*
X112471890Y-62561569D01*
X112220000Y-62510560D01*
X110220000Y-62510560D01*
X109984683Y-62554838D01*
X109768559Y-62693910D01*
X109623569Y-62906110D01*
X109572560Y-63158000D01*
X108855000Y-63158000D01*
X108855000Y-63031690D01*
X108758327Y-62798301D01*
X108579698Y-62619673D01*
X108346309Y-62523000D01*
X107505750Y-62523000D01*
X107347000Y-62681750D01*
X107093000Y-62681750D01*
X106934250Y-62523000D01*
X106093691Y-62523000D01*
X105860302Y-62619673D01*
X105681673Y-62798301D01*
X105585000Y-63031690D01*
X105485000Y-63031690D01*
X105485000Y-60200168D01*
X105687709Y-60690761D01*
X106437293Y-61441655D01*
X107417173Y-61848536D01*
X108478172Y-61849462D01*
X109458761Y-61444291D01*
X110209655Y-60694707D01*
X110616536Y-59714827D01*
X110617462Y-58653828D01*
X110212291Y-57673239D01*
X109462707Y-56922345D01*
X109274031Y-56844000D01*
X113902560Y-56844000D01*
X113902560Y-60039000D01*
G36*
X139017000Y-62184513D02*
X139017000Y-63465776D01*
X138811000Y-63424060D01*
X138303000Y-63424060D01*
X138067683Y-63468338D01*
X137921093Y-63562666D01*
X137792890Y-63475069D01*
X137541000Y-63424060D01*
X137033000Y-63424060D01*
X136797683Y-63468338D01*
X136656629Y-63559104D01*
X136630698Y-63533173D01*
X136397309Y-63436500D01*
X136302750Y-63436500D01*
X136144000Y-63595250D01*
X136144000Y-64516000D01*
X136164000Y-64516000D01*
X136164000Y-64770000D01*
X136144000Y-64770000D01*
X136144000Y-65690750D01*
X136249013Y-65795763D01*
X136225162Y-65853201D01*
X136224838Y-66225167D01*
X136303000Y-66414334D01*
X136303000Y-67945000D01*
X137652250Y-67945000D01*
X137811000Y-67786250D01*
X137811000Y-66711273D01*
X137858565Y-66663791D01*
X138026673Y-66832192D01*
X138370201Y-66974838D01*
X138528560Y-66974976D01*
X138528560Y-69322000D01*
X138572838Y-69557317D01*
X138711910Y-69773441D01*
X138753708Y-69802000D01*
X137795000Y-69802000D01*
X137544123Y-69851902D01*
X137714327Y-69681699D01*
X137811000Y-69448310D01*
X137811000Y-68357750D01*
X137652250Y-68199000D01*
X136303000Y-68199000D01*
X136303000Y-69798250D01*
X136461750Y-69957000D01*
X137302309Y-69957000D01*
X137415495Y-69910117D01*
X137222244Y-70039243D01*
X135818802Y-71442686D01*
X135805325Y-71445367D01*
X135518210Y-71637210D01*
X135326367Y-71924325D01*
X135259000Y-72263000D01*
X135259000Y-75518568D01*
X135093946Y-75628853D01*
X134874000Y-75958026D01*
X134654054Y-75628853D01*
X134489000Y-75518568D01*
X134489000Y-72136000D01*
X134421633Y-71797325D01*
X134229790Y-71510210D01*
X133942675Y-71318367D01*
X133929199Y-71315686D01*
X133419897Y-70806385D01*
X133424259Y-70784844D01*
X133789167Y-70785162D01*
X134132943Y-70643117D01*
X134396192Y-70380327D01*
X134538838Y-70036799D01*
X134539162Y-69664833D01*
X134397117Y-69321057D01*
X134134327Y-69057808D01*
X133790799Y-68915162D01*
X133425417Y-68914844D01*
X133397162Y-68764683D01*
X133258090Y-68548559D01*
X133045890Y-68403569D01*
X132819627Y-68357750D01*
X134541000Y-68357750D01*
X134541000Y-69448310D01*
X134637673Y-69681699D01*
X134816302Y-69860327D01*
X135049691Y-69957000D01*
X135890250Y-69957000D01*
X136049000Y-69798250D01*
X136049000Y-68199000D01*
X134699750Y-68199000D01*
X134541000Y-68357750D01*
X132819627Y-68357750D01*
X132796511Y-68353069D01*
X134266834Y-66882745D01*
X134386943Y-66833117D01*
X134552555Y-66667794D01*
X134541000Y-66695690D01*
X134541000Y-67786250D01*
X134699750Y-67945000D01*
X136049000Y-67945000D01*
X136049000Y-66345750D01*
X135890250Y-66187000D01*
X135049691Y-66187000D01*
X134816302Y-66283673D01*
X134735790Y-66364184D01*
X134792838Y-66226799D01*
X134793162Y-65854833D01*
X134651117Y-65511057D01*
X134388327Y-65247808D01*
X134044799Y-65105162D01*
X133672833Y-65104838D01*
X133329057Y-65246883D01*
X133065808Y-65509673D01*
X133015434Y-65630987D01*
X131168210Y-67478210D01*
X130976367Y-67765325D01*
X130976367Y-67765326D01*
X130908999Y-68104000D01*
X130909000Y-68104005D01*
X130909000Y-68352560D01*
X130794000Y-68352560D01*
X130558683Y-68396838D01*
X130342559Y-68535910D01*
X130197569Y-68748110D01*
X130146560Y-69000000D01*
X130146560Y-70564000D01*
X129441440Y-70564000D01*
X129441440Y-69000000D01*
X129411045Y-68838467D01*
X133320762Y-64928750D01*
X135128000Y-64928750D01*
X135128000Y-65340810D01*
X135224673Y-65574199D01*
X135403302Y-65752827D01*
X135636691Y-65849500D01*
X135731250Y-65849500D01*
X135890000Y-65690750D01*
X135890000Y-64770000D01*
X135286750Y-64770000D01*
X135128000Y-64928750D01*
X133320762Y-64928750D01*
X134304322Y-63945190D01*
X135128000Y-63945190D01*
X135128000Y-64357250D01*
X135286750Y-64516000D01*
X135890000Y-64516000D01*
X135890000Y-63595250D01*
X135731250Y-63436500D01*
X135636691Y-63436500D01*
X135403302Y-63533173D01*
X135224673Y-63711801D01*
X135128000Y-63945190D01*
X134304322Y-63945190D01*
X136479513Y-61770000D01*
X138602488Y-61770000D01*
X139017000Y-62184513D01*
X139017000Y-62184513D01*
G37*
X139017000Y-62184513D02*
X139017000Y-63465776D01*
X138811000Y-63424060D01*
X138303000Y-63424060D01*
X138067683Y-63468338D01*
X137921093Y-63562666D01*
X137792890Y-63475069D01*
X137541000Y-63424060D01*
X137033000Y-63424060D01*
X136797683Y-63468338D01*
X136656629Y-63559104D01*
X136630698Y-63533173D01*
X136397309Y-63436500D01*
X136302750Y-63436500D01*
X136144000Y-63595250D01*
X136144000Y-64516000D01*
X136164000Y-64516000D01*
X136164000Y-64770000D01*
X136144000Y-64770000D01*
X136144000Y-65690750D01*
X136249013Y-65795763D01*
X136225162Y-65853201D01*
X136224838Y-66225167D01*
X136303000Y-66414334D01*
X136303000Y-67945000D01*
X137652250Y-67945000D01*
X137811000Y-67786250D01*
X137811000Y-66711273D01*
X137858565Y-66663791D01*
X138026673Y-66832192D01*
X138370201Y-66974838D01*
X138528560Y-66974976D01*
X138528560Y-69322000D01*
X138572838Y-69557317D01*
X138711910Y-69773441D01*
X138753708Y-69802000D01*
X137795000Y-69802000D01*
X137544123Y-69851902D01*
X137714327Y-69681699D01*
X137811000Y-69448310D01*
X137811000Y-68357750D01*
X137652250Y-68199000D01*
X136303000Y-68199000D01*
X136303000Y-69798250D01*
X136461750Y-69957000D01*
X137302309Y-69957000D01*
X137415495Y-69910117D01*
X137222244Y-70039243D01*
X135818802Y-71442686D01*
X135805325Y-71445367D01*
X135518210Y-71637210D01*
X135326367Y-71924325D01*
X135259000Y-72263000D01*
X135259000Y-75518568D01*
X135093946Y-75628853D01*
X134874000Y-75958026D01*
X134654054Y-75628853D01*
X134489000Y-75518568D01*
X134489000Y-72136000D01*
X134421633Y-71797325D01*
X134229790Y-71510210D01*
X133942675Y-71318367D01*
X133929199Y-71315686D01*
X133419897Y-70806385D01*
X133424259Y-70784844D01*
X133789167Y-70785162D01*
X134132943Y-70643117D01*
X134396192Y-70380327D01*
X134538838Y-70036799D01*
X134539162Y-69664833D01*
X134397117Y-69321057D01*
X134134327Y-69057808D01*
X133790799Y-68915162D01*
X133425417Y-68914844D01*
X133397162Y-68764683D01*
X133258090Y-68548559D01*
X133045890Y-68403569D01*
X132819627Y-68357750D01*
X134541000Y-68357750D01*
X134541000Y-69448310D01*
X134637673Y-69681699D01*
X134816302Y-69860327D01*
X135049691Y-69957000D01*
X135890250Y-69957000D01*
X136049000Y-69798250D01*
X136049000Y-68199000D01*
X134699750Y-68199000D01*
X134541000Y-68357750D01*
X132819627Y-68357750D01*
X132796511Y-68353069D01*
X134266834Y-66882745D01*
X134386943Y-66833117D01*
X134552555Y-66667794D01*
X134541000Y-66695690D01*
X134541000Y-67786250D01*
X134699750Y-67945000D01*
X136049000Y-67945000D01*
X136049000Y-66345750D01*
X135890250Y-66187000D01*
X135049691Y-66187000D01*
X134816302Y-66283673D01*
X134735790Y-66364184D01*
X134792838Y-66226799D01*
X134793162Y-65854833D01*
X134651117Y-65511057D01*
X134388327Y-65247808D01*
X134044799Y-65105162D01*
X133672833Y-65104838D01*
X133329057Y-65246883D01*
X133065808Y-65509673D01*
X133015434Y-65630987D01*
X131168210Y-67478210D01*
X130976367Y-67765325D01*
X130976367Y-67765326D01*
X130908999Y-68104000D01*
X130909000Y-68104005D01*
X130909000Y-68352560D01*
X130794000Y-68352560D01*
X130558683Y-68396838D01*
X130342559Y-68535910D01*
X130197569Y-68748110D01*
X130146560Y-69000000D01*
X130146560Y-70564000D01*
X129441440Y-70564000D01*
X129441440Y-69000000D01*
X129411045Y-68838467D01*
X133320762Y-64928750D01*
X135128000Y-64928750D01*
X135128000Y-65340810D01*
X135224673Y-65574199D01*
X135403302Y-65752827D01*
X135636691Y-65849500D01*
X135731250Y-65849500D01*
X135890000Y-65690750D01*
X135890000Y-64770000D01*
X135286750Y-64770000D01*
X135128000Y-64928750D01*
X133320762Y-64928750D01*
X134304322Y-63945190D01*
X135128000Y-63945190D01*
X135128000Y-64357250D01*
X135286750Y-64516000D01*
X135890000Y-64516000D01*
X135890000Y-63595250D01*
X135731250Y-63436500D01*
X135636691Y-63436500D01*
X135403302Y-63533173D01*
X135224673Y-63711801D01*
X135128000Y-63945190D01*
X134304322Y-63945190D01*
X136479513Y-61770000D01*
X138602488Y-61770000D01*
X139017000Y-62184513D01*
G36*
X157622560Y-60039000D02*
X157666838Y-60274317D01*
X157805910Y-60490441D01*
X158018110Y-60635431D01*
X158270000Y-60686440D01*
X159770000Y-60686440D01*
X160005317Y-60642162D01*
X160221441Y-60503090D01*
X160366431Y-60290890D01*
X160417440Y-60039000D01*
X160417440Y-56844000D01*
X164536469Y-56844000D01*
X164353239Y-56919709D01*
X163602345Y-57669293D01*
X163195464Y-58649173D01*
X163194538Y-59710172D01*
X163599709Y-60690761D01*
X164349293Y-61441655D01*
X165329173Y-61848536D01*
X166390172Y-61849462D01*
X167370761Y-61444291D01*
X168121655Y-60694707D01*
X168200000Y-60506031D01*
X168200000Y-66548897D01*
X167985440Y-66368240D01*
X167985440Y-65190000D01*
X167941162Y-64954683D01*
X167802090Y-64738559D01*
X167589890Y-64593569D01*
X167338000Y-64542560D01*
X165338000Y-64542560D01*
X165102683Y-64586838D01*
X164886559Y-64725910D01*
X164741569Y-64938110D01*
X164690560Y-65190000D01*
X164690560Y-66890000D01*
X164734838Y-67125317D01*
X164873910Y-67341441D01*
X165086110Y-67486431D01*
X165338000Y-67537440D01*
X166858855Y-67537440D01*
X167338000Y-67940874D01*
X167338000Y-68860560D01*
X165338000Y-68860560D01*
X165102683Y-68904838D01*
X164886559Y-69043910D01*
X164741569Y-69256110D01*
X164690560Y-69508000D01*
X164690560Y-71208000D01*
X164734838Y-71443317D01*
X164873910Y-71659441D01*
X164953000Y-71713481D01*
X164953000Y-72342000D01*
X160111440Y-72342000D01*
X160111440Y-72302000D01*
X160067162Y-72066683D01*
X159928090Y-71850559D01*
X159787440Y-71754457D01*
X159915441Y-71672090D01*
X160060431Y-71459890D01*
X160111440Y-71208000D01*
X160111440Y-71168000D01*
X160690560Y-71168000D01*
X160690560Y-71208000D01*
X160734838Y-71443317D01*
X160873910Y-71659441D01*
X161086110Y-71804431D01*
X161338000Y-71855440D01*
X163338000Y-71855440D01*
X163573317Y-71811162D01*
X163789441Y-71672090D01*
X163934431Y-71459890D01*
X163985440Y-71208000D01*
X163985440Y-69508000D01*
X163941162Y-69272683D01*
X163802090Y-69056559D01*
X163723000Y-69002519D01*
X163723000Y-67396844D01*
X163789441Y-67354090D01*
X163934431Y-67141890D01*
X163985440Y-66890000D01*
X163985440Y-65190000D01*
X163941162Y-64954683D01*
X163802090Y-64738559D01*
X163589890Y-64593569D01*
X163338000Y-64542560D01*
X161338000Y-64542560D01*
X161102683Y-64586838D01*
X160886559Y-64725910D01*
X160741569Y-64938110D01*
X160690560Y-65190000D01*
X160690560Y-66890000D01*
X160734838Y-67125317D01*
X160873910Y-67341441D01*
X160953000Y-67395481D01*
X160953000Y-69001156D01*
X160886559Y-69043910D01*
X160741569Y-69256110D01*
X160690560Y-69508000D01*
X160690560Y-69548000D01*
X160111440Y-69548000D01*
X160111440Y-69508000D01*
X160067162Y-69272683D01*
X159928090Y-69056559D01*
X159715890Y-68911569D01*
X159464000Y-68860560D01*
X157464000Y-68860560D01*
X157228683Y-68904838D01*
X157012559Y-69043910D01*
X156867569Y-69256110D01*
X156816560Y-69508000D01*
X156816560Y-71208000D01*
X156860838Y-71443317D01*
X156999910Y-71659441D01*
X157140560Y-71755543D01*
X157012559Y-71837910D01*
X156867569Y-72050110D01*
X156816560Y-72302000D01*
X156816560Y-74002000D01*
X156860838Y-74237317D01*
X156900530Y-74299000D01*
X156028298Y-74299000D01*
X156099000Y-74128310D01*
X156099000Y-73437750D01*
X155940250Y-73279000D01*
X154591000Y-73279000D01*
X154591000Y-73299000D01*
X154337000Y-73299000D01*
X154337000Y-73279000D01*
X152987750Y-73279000D01*
X152829000Y-73437750D01*
X152829000Y-74128310D01*
X152899702Y-74299000D01*
X146812000Y-74299000D01*
X146498213Y-74361416D01*
X146462117Y-74274057D01*
X146199327Y-74010808D01*
X145855799Y-73868162D01*
X145483833Y-73867838D01*
X145140057Y-74009883D01*
X144876808Y-74272673D01*
X144734162Y-74616201D01*
X144733838Y-74988167D01*
X144875883Y-75331943D01*
X145138673Y-75595192D01*
X145246516Y-75639973D01*
X145034000Y-75958026D01*
X144814054Y-75628853D01*
X144574000Y-75468454D01*
X144574000Y-73025000D01*
X144546906Y-72888790D01*
X144512343Y-72715027D01*
X144336757Y-72452244D01*
X143701756Y-71817244D01*
X143622385Y-71764210D01*
X143438974Y-71641658D01*
X143129000Y-71580000D01*
X137972513Y-71580000D01*
X138130513Y-71422000D01*
X141625559Y-71422000D01*
X141926201Y-71546838D01*
X142298167Y-71547162D01*
X142601083Y-71422000D01*
X142621000Y-71422000D01*
X142930974Y-71360342D01*
X143193756Y-71184756D01*
X143459727Y-70918785D01*
X143462838Y-70935317D01*
X143601910Y-71151441D01*
X143814110Y-71296431D01*
X144066000Y-71347440D01*
X146066000Y-71347440D01*
X146301317Y-71303162D01*
X146517441Y-71164090D01*
X146662431Y-70951890D01*
X146713440Y-70700000D01*
X146713440Y-69136000D01*
X147418560Y-69136000D01*
X147418560Y-70700000D01*
X147462838Y-70935317D01*
X147601910Y-71151441D01*
X147814110Y-71296431D01*
X148066000Y-71347440D01*
X150066000Y-71347440D01*
X150301317Y-71303162D01*
X150517441Y-71164090D01*
X150662431Y-70951890D01*
X150706352Y-70735000D01*
X151462671Y-70735000D01*
X151353808Y-70843673D01*
X151211162Y-71187201D01*
X151210838Y-71559167D01*
X151352883Y-71902943D01*
X151615673Y-72166192D01*
X151959201Y-72308838D01*
X152331167Y-72309162D01*
X152674943Y-72167117D01*
X152938192Y-71904327D01*
X152988566Y-71783014D01*
X153066583Y-71704997D01*
X153134283Y-71751254D01*
X153104302Y-71763673D01*
X152925673Y-71942301D01*
X152829000Y-72175690D01*
X152829000Y-72866250D01*
X152987750Y-73025000D01*
X154337000Y-73025000D01*
X154337000Y-73005000D01*
X154591000Y-73005000D01*
X154591000Y-73025000D01*
X155940250Y-73025000D01*
X156099000Y-72866250D01*
X156099000Y-72175690D01*
X156002327Y-71942301D01*
X155823698Y-71763673D01*
X155792925Y-71750927D01*
X155915441Y-71672090D01*
X156060431Y-71459890D01*
X156111440Y-71208000D01*
X156111440Y-69508000D01*
X156067162Y-69272683D01*
X155928090Y-69056559D01*
X155715890Y-68911569D01*
X155464000Y-68860560D01*
X153464000Y-68860560D01*
X153228683Y-68904838D01*
X153135189Y-68965000D01*
X150706854Y-68965000D01*
X150669162Y-68764683D01*
X150530090Y-68548559D01*
X150409264Y-68466002D01*
X155101998Y-68466002D01*
X155411972Y-68404344D01*
X155674754Y-68228758D01*
X157242757Y-66660756D01*
X157386444Y-66445713D01*
X157405317Y-66442162D01*
X157621441Y-66303090D01*
X157766431Y-66090890D01*
X157817440Y-65839000D01*
X157817440Y-62339000D01*
X157773162Y-62103683D01*
X157634090Y-61887559D01*
X157480000Y-61782274D01*
X157480000Y-60404000D01*
X157418342Y-60094026D01*
X157330549Y-59962635D01*
X157242756Y-59831243D01*
X157127429Y-59715917D01*
X157003117Y-59415057D01*
X156740327Y-59151808D01*
X156396799Y-59009162D01*
X156024833Y-59008838D01*
X155681057Y-59150883D01*
X155468647Y-59362923D01*
X155418342Y-59110026D01*
X155259316Y-58872027D01*
X155242756Y-58847243D01*
X155095429Y-58699917D01*
X154971117Y-58399057D01*
X154708327Y-58135808D01*
X154364799Y-57993162D01*
X153992833Y-57992838D01*
X153649057Y-58134883D01*
X153412398Y-58371130D01*
X153290720Y-58189027D01*
X153242756Y-58117243D01*
X152809430Y-57683917D01*
X152685117Y-57383057D01*
X152422327Y-57119808D01*
X152078799Y-56977162D01*
X151706833Y-56976838D01*
X151456576Y-57080242D01*
X151445190Y-57023000D01*
X151418343Y-56888027D01*
X151388925Y-56844000D01*
X157622560Y-56844000D01*
X157622560Y-60039000D01*
X157622560Y-60039000D01*
G37*
X157622560Y-60039000D02*
X157666838Y-60274317D01*
X157805910Y-60490441D01*
X158018110Y-60635431D01*
X158270000Y-60686440D01*
X159770000Y-60686440D01*
X160005317Y-60642162D01*
X160221441Y-60503090D01*
X160366431Y-60290890D01*
X160417440Y-60039000D01*
X160417440Y-56844000D01*
X164536469Y-56844000D01*
X164353239Y-56919709D01*
X163602345Y-57669293D01*
X163195464Y-58649173D01*
X163194538Y-59710172D01*
X163599709Y-60690761D01*
X164349293Y-61441655D01*
X165329173Y-61848536D01*
X166390172Y-61849462D01*
X167370761Y-61444291D01*
X168121655Y-60694707D01*
X168200000Y-60506031D01*
X168200000Y-66548897D01*
X167985440Y-66368240D01*
X167985440Y-65190000D01*
X167941162Y-64954683D01*
X167802090Y-64738559D01*
X167589890Y-64593569D01*
X167338000Y-64542560D01*
X165338000Y-64542560D01*
X165102683Y-64586838D01*
X164886559Y-64725910D01*
X164741569Y-64938110D01*
X164690560Y-65190000D01*
X164690560Y-66890000D01*
X164734838Y-67125317D01*
X164873910Y-67341441D01*
X165086110Y-67486431D01*
X165338000Y-67537440D01*
X166858855Y-67537440D01*
X167338000Y-67940874D01*
X167338000Y-68860560D01*
X165338000Y-68860560D01*
X165102683Y-68904838D01*
X164886559Y-69043910D01*
X164741569Y-69256110D01*
X164690560Y-69508000D01*
X164690560Y-71208000D01*
X164734838Y-71443317D01*
X164873910Y-71659441D01*
X164953000Y-71713481D01*
X164953000Y-72342000D01*
X160111440Y-72342000D01*
X160111440Y-72302000D01*
X160067162Y-72066683D01*
X159928090Y-71850559D01*
X159787440Y-71754457D01*
X159915441Y-71672090D01*
X160060431Y-71459890D01*
X160111440Y-71208000D01*
X160111440Y-71168000D01*
X160690560Y-71168000D01*
X160690560Y-71208000D01*
X160734838Y-71443317D01*
X160873910Y-71659441D01*
X161086110Y-71804431D01*
X161338000Y-71855440D01*
X163338000Y-71855440D01*
X163573317Y-71811162D01*
X163789441Y-71672090D01*
X163934431Y-71459890D01*
X163985440Y-71208000D01*
X163985440Y-69508000D01*
X163941162Y-69272683D01*
X163802090Y-69056559D01*
X163723000Y-69002519D01*
X163723000Y-67396844D01*
X163789441Y-67354090D01*
X163934431Y-67141890D01*
X163985440Y-66890000D01*
X163985440Y-65190000D01*
X163941162Y-64954683D01*
X163802090Y-64738559D01*
X163589890Y-64593569D01*
X163338000Y-64542560D01*
X161338000Y-64542560D01*
X161102683Y-64586838D01*
X160886559Y-64725910D01*
X160741569Y-64938110D01*
X160690560Y-65190000D01*
X160690560Y-66890000D01*
X160734838Y-67125317D01*
X160873910Y-67341441D01*
X160953000Y-67395481D01*
X160953000Y-69001156D01*
X160886559Y-69043910D01*
X160741569Y-69256110D01*
X160690560Y-69508000D01*
X160690560Y-69548000D01*
X160111440Y-69548000D01*
X160111440Y-69508000D01*
X160067162Y-69272683D01*
X159928090Y-69056559D01*
X159715890Y-68911569D01*
X159464000Y-68860560D01*
X157464000Y-68860560D01*
X157228683Y-68904838D01*
X157012559Y-69043910D01*
X156867569Y-69256110D01*
X156816560Y-69508000D01*
X156816560Y-71208000D01*
X156860838Y-71443317D01*
X156999910Y-71659441D01*
X157140560Y-71755543D01*
X157012559Y-71837910D01*
X156867569Y-72050110D01*
X156816560Y-72302000D01*
X156816560Y-74002000D01*
X156860838Y-74237317D01*
X156900530Y-74299000D01*
X156028298Y-74299000D01*
X156099000Y-74128310D01*
X156099000Y-73437750D01*
X155940250Y-73279000D01*
X154591000Y-73279000D01*
X154591000Y-73299000D01*
X154337000Y-73299000D01*
X154337000Y-73279000D01*
X152987750Y-73279000D01*
X152829000Y-73437750D01*
X152829000Y-74128310D01*
X152899702Y-74299000D01*
X146812000Y-74299000D01*
X146498213Y-74361416D01*
X146462117Y-74274057D01*
X146199327Y-74010808D01*
X145855799Y-73868162D01*
X145483833Y-73867838D01*
X145140057Y-74009883D01*
X144876808Y-74272673D01*
X144734162Y-74616201D01*
X144733838Y-74988167D01*
X144875883Y-75331943D01*
X145138673Y-75595192D01*
X145246516Y-75639973D01*
X145034000Y-75958026D01*
X144814054Y-75628853D01*
X144574000Y-75468454D01*
X144574000Y-73025000D01*
X144546906Y-72888790D01*
X144512343Y-72715027D01*
X144336757Y-72452244D01*
X143701756Y-71817244D01*
X143622385Y-71764210D01*
X143438974Y-71641658D01*
X143129000Y-71580000D01*
X137972513Y-71580000D01*
X138130513Y-71422000D01*
X141625559Y-71422000D01*
X141926201Y-71546838D01*
X142298167Y-71547162D01*
X142601083Y-71422000D01*
X142621000Y-71422000D01*
X142930974Y-71360342D01*
X143193756Y-71184756D01*
X143459727Y-70918785D01*
X143462838Y-70935317D01*
X143601910Y-71151441D01*
X143814110Y-71296431D01*
X144066000Y-71347440D01*
X146066000Y-71347440D01*
X146301317Y-71303162D01*
X146517441Y-71164090D01*
X146662431Y-70951890D01*
X146713440Y-70700000D01*
X146713440Y-69136000D01*
X147418560Y-69136000D01*
X147418560Y-70700000D01*
X147462838Y-70935317D01*
X147601910Y-71151441D01*
X147814110Y-71296431D01*
X148066000Y-71347440D01*
X150066000Y-71347440D01*
X150301317Y-71303162D01*
X150517441Y-71164090D01*
X150662431Y-70951890D01*
X150706352Y-70735000D01*
X151462671Y-70735000D01*
X151353808Y-70843673D01*
X151211162Y-71187201D01*
X151210838Y-71559167D01*
X151352883Y-71902943D01*
X151615673Y-72166192D01*
X151959201Y-72308838D01*
X152331167Y-72309162D01*
X152674943Y-72167117D01*
X152938192Y-71904327D01*
X152988566Y-71783014D01*
X153066583Y-71704997D01*
X153134283Y-71751254D01*
X153104302Y-71763673D01*
X152925673Y-71942301D01*
X152829000Y-72175690D01*
X152829000Y-72866250D01*
X152987750Y-73025000D01*
X154337000Y-73025000D01*
X154337000Y-73005000D01*
X154591000Y-73005000D01*
X154591000Y-73025000D01*
X155940250Y-73025000D01*
X156099000Y-72866250D01*
X156099000Y-72175690D01*
X156002327Y-71942301D01*
X155823698Y-71763673D01*
X155792925Y-71750927D01*
X155915441Y-71672090D01*
X156060431Y-71459890D01*
X156111440Y-71208000D01*
X156111440Y-69508000D01*
X156067162Y-69272683D01*
X155928090Y-69056559D01*
X155715890Y-68911569D01*
X155464000Y-68860560D01*
X153464000Y-68860560D01*
X153228683Y-68904838D01*
X153135189Y-68965000D01*
X150706854Y-68965000D01*
X150669162Y-68764683D01*
X150530090Y-68548559D01*
X150409264Y-68466002D01*
X155101998Y-68466002D01*
X155411972Y-68404344D01*
X155674754Y-68228758D01*
X157242757Y-66660756D01*
X157386444Y-66445713D01*
X157405317Y-66442162D01*
X157621441Y-66303090D01*
X157766431Y-66090890D01*
X157817440Y-65839000D01*
X157817440Y-62339000D01*
X157773162Y-62103683D01*
X157634090Y-61887559D01*
X157480000Y-61782274D01*
X157480000Y-60404000D01*
X157418342Y-60094026D01*
X157330549Y-59962635D01*
X157242756Y-59831243D01*
X157127429Y-59715917D01*
X157003117Y-59415057D01*
X156740327Y-59151808D01*
X156396799Y-59009162D01*
X156024833Y-59008838D01*
X155681057Y-59150883D01*
X155468647Y-59362923D01*
X155418342Y-59110026D01*
X155259316Y-58872027D01*
X155242756Y-58847243D01*
X155095429Y-58699917D01*
X154971117Y-58399057D01*
X154708327Y-58135808D01*
X154364799Y-57993162D01*
X153992833Y-57992838D01*
X153649057Y-58134883D01*
X153412398Y-58371130D01*
X153290720Y-58189027D01*
X153242756Y-58117243D01*
X152809430Y-57683917D01*
X152685117Y-57383057D01*
X152422327Y-57119808D01*
X152078799Y-56977162D01*
X151706833Y-56976838D01*
X151456576Y-57080242D01*
X151445190Y-57023000D01*
X151418343Y-56888027D01*
X151388925Y-56844000D01*
X157622560Y-56844000D01*
X157622560Y-60039000D01*
G36*
X124788817Y-90304642D02*
X124542514Y-90829108D01*
X124663181Y-91059000D01*
X125857000Y-91059000D01*
X125857000Y-91039000D01*
X126111000Y-91039000D01*
X126111000Y-91059000D01*
X126131000Y-91059000D01*
X126131000Y-91313000D01*
X126111000Y-91313000D01*
X126111000Y-92506155D01*
X126340890Y-92627476D01*
X126750924Y-92457645D01*
X127179183Y-92067358D01*
X127246298Y-91924447D01*
X127473946Y-92265147D01*
X127955715Y-92587054D01*
X128524000Y-92700093D01*
X129092285Y-92587054D01*
X129574054Y-92265147D01*
X129794000Y-91935974D01*
X130013946Y-92265147D01*
X130495715Y-92587054D01*
X131064000Y-92700093D01*
X131632285Y-92587054D01*
X131656312Y-92571000D01*
X133011688Y-92571000D01*
X133035715Y-92587054D01*
X133604000Y-92700093D01*
X134172285Y-92587054D01*
X134654054Y-92265147D01*
X134874000Y-91935974D01*
X135093946Y-92265147D01*
X135575715Y-92587054D01*
X136144000Y-92700093D01*
X136712285Y-92587054D01*
X136736312Y-92571000D01*
X138091688Y-92571000D01*
X138115715Y-92587054D01*
X138575273Y-92678466D01*
X138569000Y-92710000D01*
X138594262Y-92837000D01*
X107811000Y-92837000D01*
X107811000Y-91542892D01*
X124542514Y-91542892D01*
X124788817Y-92067358D01*
X125217076Y-92457645D01*
X125627110Y-92627476D01*
X125857000Y-92506155D01*
X125857000Y-91313000D01*
X124663181Y-91313000D01*
X124542514Y-91542892D01*
X107811000Y-91542892D01*
X107811000Y-90743686D01*
X108523686Y-90031000D01*
X125089082Y-90031000D01*
X124788817Y-90304642D01*
X124788817Y-90304642D01*
G37*
X124788817Y-90304642D02*
X124542514Y-90829108D01*
X124663181Y-91059000D01*
X125857000Y-91059000D01*
X125857000Y-91039000D01*
X126111000Y-91039000D01*
X126111000Y-91059000D01*
X126131000Y-91059000D01*
X126131000Y-91313000D01*
X126111000Y-91313000D01*
X126111000Y-92506155D01*
X126340890Y-92627476D01*
X126750924Y-92457645D01*
X127179183Y-92067358D01*
X127246298Y-91924447D01*
X127473946Y-92265147D01*
X127955715Y-92587054D01*
X128524000Y-92700093D01*
X129092285Y-92587054D01*
X129574054Y-92265147D01*
X129794000Y-91935974D01*
X130013946Y-92265147D01*
X130495715Y-92587054D01*
X131064000Y-92700093D01*
X131632285Y-92587054D01*
X131656312Y-92571000D01*
X133011688Y-92571000D01*
X133035715Y-92587054D01*
X133604000Y-92700093D01*
X134172285Y-92587054D01*
X134654054Y-92265147D01*
X134874000Y-91935974D01*
X135093946Y-92265147D01*
X135575715Y-92587054D01*
X136144000Y-92700093D01*
X136712285Y-92587054D01*
X136736312Y-92571000D01*
X138091688Y-92571000D01*
X138115715Y-92587054D01*
X138575273Y-92678466D01*
X138569000Y-92710000D01*
X138594262Y-92837000D01*
X107811000Y-92837000D01*
X107811000Y-91542892D01*
X124542514Y-91542892D01*
X124788817Y-92067358D01*
X125217076Y-92457645D01*
X125627110Y-92627476D01*
X125857000Y-92506155D01*
X125857000Y-91313000D01*
X124663181Y-91313000D01*
X124542514Y-91542892D01*
X107811000Y-91542892D01*
X107811000Y-90743686D01*
X108523686Y-90031000D01*
X125089082Y-90031000D01*
X124788817Y-90304642D01*
G36*
X124819861Y-109894560D02*
X123560000Y-109894560D01*
X123324683Y-109938838D01*
X123108559Y-110077910D01*
X122963569Y-110290110D01*
X122912560Y-110542000D01*
X122912560Y-111351807D01*
X122825000Y-111792000D01*
X122912560Y-112232193D01*
X122912560Y-113042000D01*
X122956838Y-113277317D01*
X123095910Y-113493441D01*
X123308110Y-113638431D01*
X123560000Y-113689440D01*
X125360000Y-113689440D01*
X125595317Y-113645162D01*
X125811441Y-113506090D01*
X125865481Y-113427000D01*
X128156000Y-113427000D01*
X128711822Y-113316440D01*
X128979000Y-113316440D01*
X129214317Y-113272162D01*
X129430441Y-113133090D01*
X129575431Y-112920890D01*
X129626440Y-112669000D01*
X129626440Y-112477706D01*
X129666543Y-112417687D01*
X129768572Y-111904750D01*
X131244000Y-111904750D01*
X131244000Y-112795310D01*
X131340673Y-113028699D01*
X131519302Y-113207327D01*
X131752691Y-113304000D01*
X132243250Y-113304000D01*
X132402000Y-113145250D01*
X132402000Y-111746000D01*
X132656000Y-111746000D01*
X132656000Y-113145250D01*
X132814750Y-113304000D01*
X133305309Y-113304000D01*
X133538698Y-113207327D01*
X133717327Y-113028699D01*
X133814000Y-112795310D01*
X133814000Y-111904750D01*
X133655250Y-111746000D01*
X132656000Y-111746000D01*
X132402000Y-111746000D01*
X131402750Y-111746000D01*
X131244000Y-111904750D01*
X129768572Y-111904750D01*
X129791000Y-111792000D01*
X129666543Y-111166313D01*
X129626440Y-111106294D01*
X129626440Y-110569000D01*
X129602674Y-110442690D01*
X131244000Y-110442690D01*
X131244000Y-111333250D01*
X131402750Y-111492000D01*
X132402000Y-111492000D01*
X132402000Y-110092750D01*
X132656000Y-110092750D01*
X132656000Y-111492000D01*
X133655250Y-111492000D01*
X133814000Y-111333250D01*
X133814000Y-110442690D01*
X133717327Y-110209301D01*
X133538698Y-110030673D01*
X133305309Y-109934000D01*
X132814750Y-109934000D01*
X132656000Y-110092750D01*
X132402000Y-110092750D01*
X132243250Y-109934000D01*
X131752691Y-109934000D01*
X131519302Y-110030673D01*
X131340673Y-110209301D01*
X131244000Y-110442690D01*
X129602674Y-110442690D01*
X129582162Y-110333683D01*
X129443090Y-110117559D01*
X129230890Y-109972569D01*
X128979000Y-109921560D01*
X127679000Y-109921560D01*
X127443683Y-109965838D01*
X127227559Y-110104910D01*
X127191967Y-110157000D01*
X127072267Y-110157000D01*
X127172838Y-109914799D01*
X127173111Y-109601000D01*
X151418271Y-109601000D01*
X148174345Y-112414920D01*
X148135162Y-112206683D01*
X148098618Y-112149892D01*
X148073573Y-112023983D01*
X147773343Y-111574657D01*
X147324017Y-111274427D01*
X146794000Y-111169000D01*
X146272826Y-111169000D01*
X146013343Y-110780657D01*
X145564016Y-110480426D01*
X145034000Y-110375000D01*
X144503984Y-110480426D01*
X144054657Y-110780657D01*
X143666314Y-111169000D01*
X143596844Y-111169000D01*
X143554090Y-111102559D01*
X143341890Y-110957569D01*
X143090000Y-110906560D01*
X141390000Y-110906560D01*
X141154683Y-110950838D01*
X140938559Y-111089910D01*
X140793569Y-111302110D01*
X140742560Y-111554000D01*
X140742560Y-113554000D01*
X140786838Y-113789317D01*
X140925910Y-114005441D01*
X141138110Y-114150431D01*
X141390000Y-114201440D01*
X143090000Y-114201440D01*
X143325317Y-114157162D01*
X143541441Y-114018090D01*
X143595481Y-113939000D01*
X146136974Y-113939000D01*
X146093673Y-113982301D01*
X145997000Y-114215690D01*
X145997000Y-114456250D01*
X146155750Y-114615000D01*
X146955000Y-114615000D01*
X146955000Y-114595000D01*
X147209000Y-114595000D01*
X147209000Y-114615000D01*
X147229000Y-114615000D01*
X147229000Y-114869000D01*
X147209000Y-114869000D01*
X147209000Y-115618250D01*
X147367750Y-115777000D01*
X147658309Y-115777000D01*
X147891698Y-115680327D01*
X148070327Y-115501699D01*
X148167000Y-115268310D01*
X148167000Y-115111727D01*
X148350928Y-115254449D01*
X148966233Y-115422897D01*
X149599163Y-115343054D01*
X150153358Y-115027077D01*
X153645321Y-111998000D01*
X167513000Y-111998000D01*
X167524182Y-111995776D01*
X167535395Y-111997847D01*
X167836629Y-111933626D01*
X168138687Y-111873543D01*
X168148167Y-111867208D01*
X168159319Y-111864831D01*
X168200000Y-111836835D01*
X168200000Y-114752469D01*
X168124291Y-114569239D01*
X167374707Y-113818345D01*
X166394827Y-113411464D01*
X165333828Y-113410538D01*
X164353239Y-113815709D01*
X163602345Y-114565293D01*
X163195464Y-115545173D01*
X163194538Y-116606172D01*
X163599709Y-117586761D01*
X164173944Y-118162000D01*
X143281494Y-118162000D01*
X143449699Y-118092327D01*
X143628327Y-117913698D01*
X143725000Y-117680309D01*
X143725000Y-116839750D01*
X143566250Y-116681000D01*
X142367000Y-116681000D01*
X142367000Y-116701000D01*
X142113000Y-116701000D01*
X142113000Y-116681000D01*
X140913750Y-116681000D01*
X140755000Y-116839750D01*
X140755000Y-117680309D01*
X140851673Y-117913698D01*
X141030301Y-118092327D01*
X141198506Y-118162000D01*
X123962613Y-118162000D01*
X124291687Y-118096543D01*
X124822120Y-117742120D01*
X124857320Y-117689440D01*
X125360000Y-117689440D01*
X125595317Y-117645162D01*
X125811441Y-117506090D01*
X125956431Y-117293890D01*
X126007440Y-117042000D01*
X126007440Y-115219000D01*
X127081560Y-115219000D01*
X127081560Y-117219000D01*
X127125838Y-117454317D01*
X127264910Y-117670441D01*
X127477110Y-117815431D01*
X127729000Y-117866440D01*
X128729000Y-117866440D01*
X128964317Y-117822162D01*
X129180441Y-117683090D01*
X129325431Y-117470890D01*
X129376440Y-117219000D01*
X129376440Y-115219000D01*
X131481560Y-115219000D01*
X131481560Y-117219000D01*
X131525838Y-117454317D01*
X131664910Y-117670441D01*
X131877110Y-117815431D01*
X132129000Y-117866440D01*
X133129000Y-117866440D01*
X133364317Y-117822162D01*
X133580441Y-117683090D01*
X133725431Y-117470890D01*
X133776440Y-117219000D01*
X133776440Y-115427691D01*
X140755000Y-115427691D01*
X140755000Y-116268250D01*
X140913750Y-116427000D01*
X142113000Y-116427000D01*
X142113000Y-115077750D01*
X142367000Y-115077750D01*
X142367000Y-116427000D01*
X143566250Y-116427000D01*
X143725000Y-116268250D01*
X143725000Y-115427691D01*
X143628327Y-115194302D01*
X143461776Y-115027750D01*
X145997000Y-115027750D01*
X145997000Y-115268310D01*
X146093673Y-115501699D01*
X146272302Y-115680327D01*
X146505691Y-115777000D01*
X146796250Y-115777000D01*
X146955000Y-115618250D01*
X146955000Y-114869000D01*
X146155750Y-114869000D01*
X145997000Y-115027750D01*
X143461776Y-115027750D01*
X143449699Y-115015673D01*
X143216310Y-114919000D01*
X142525750Y-114919000D01*
X142367000Y-115077750D01*
X142113000Y-115077750D01*
X141954250Y-114919000D01*
X141263690Y-114919000D01*
X141030301Y-115015673D01*
X140851673Y-115194302D01*
X140755000Y-115427691D01*
X133776440Y-115427691D01*
X133776440Y-115219000D01*
X133732162Y-114983683D01*
X133593090Y-114767559D01*
X133380890Y-114622569D01*
X133129000Y-114571560D01*
X132129000Y-114571560D01*
X131893683Y-114615838D01*
X131677559Y-114754910D01*
X131532569Y-114967110D01*
X131481560Y-115219000D01*
X129376440Y-115219000D01*
X129332162Y-114983683D01*
X129193090Y-114767559D01*
X128980890Y-114622569D01*
X128729000Y-114571560D01*
X127729000Y-114571560D01*
X127493683Y-114615838D01*
X127277559Y-114754910D01*
X127132569Y-114967110D01*
X127081560Y-115219000D01*
X126007440Y-115219000D01*
X126007440Y-114542000D01*
X125963162Y-114306683D01*
X125824090Y-114090559D01*
X125611890Y-113945569D01*
X125360000Y-113894560D01*
X123560000Y-113894560D01*
X123324683Y-113938838D01*
X123108559Y-114077910D01*
X122963569Y-114290110D01*
X122912560Y-114542000D01*
X122912560Y-114951000D01*
X122129440Y-114951000D01*
X122129440Y-114836000D01*
X122100107Y-114680109D01*
X122172451Y-114680991D01*
X122221980Y-114671588D01*
X122263948Y-114643657D01*
X122291743Y-114601598D01*
X122301000Y-114554000D01*
X122301000Y-109601000D01*
X125113421Y-109601000D01*
X124819861Y-109894560D01*
X124819861Y-109894560D01*
G37*
X124819861Y-109894560D02*
X123560000Y-109894560D01*
X123324683Y-109938838D01*
X123108559Y-110077910D01*
X122963569Y-110290110D01*
X122912560Y-110542000D01*
X122912560Y-111351807D01*
X122825000Y-111792000D01*
X122912560Y-112232193D01*
X122912560Y-113042000D01*
X122956838Y-113277317D01*
X123095910Y-113493441D01*
X123308110Y-113638431D01*
X123560000Y-113689440D01*
X125360000Y-113689440D01*
X125595317Y-113645162D01*
X125811441Y-113506090D01*
X125865481Y-113427000D01*
X128156000Y-113427000D01*
X128711822Y-113316440D01*
X128979000Y-113316440D01*
X129214317Y-113272162D01*
X129430441Y-113133090D01*
X129575431Y-112920890D01*
X129626440Y-112669000D01*
X129626440Y-112477706D01*
X129666543Y-112417687D01*
X129768572Y-111904750D01*
X131244000Y-111904750D01*
X131244000Y-112795310D01*
X131340673Y-113028699D01*
X131519302Y-113207327D01*
X131752691Y-113304000D01*
X132243250Y-113304000D01*
X132402000Y-113145250D01*
X132402000Y-111746000D01*
X132656000Y-111746000D01*
X132656000Y-113145250D01*
X132814750Y-113304000D01*
X133305309Y-113304000D01*
X133538698Y-113207327D01*
X133717327Y-113028699D01*
X133814000Y-112795310D01*
X133814000Y-111904750D01*
X133655250Y-111746000D01*
X132656000Y-111746000D01*
X132402000Y-111746000D01*
X131402750Y-111746000D01*
X131244000Y-111904750D01*
X129768572Y-111904750D01*
X129791000Y-111792000D01*
X129666543Y-111166313D01*
X129626440Y-111106294D01*
X129626440Y-110569000D01*
X129602674Y-110442690D01*
X131244000Y-110442690D01*
X131244000Y-111333250D01*
X131402750Y-111492000D01*
X132402000Y-111492000D01*
X132402000Y-110092750D01*
X132656000Y-110092750D01*
X132656000Y-111492000D01*
X133655250Y-111492000D01*
X133814000Y-111333250D01*
X133814000Y-110442690D01*
X133717327Y-110209301D01*
X133538698Y-110030673D01*
X133305309Y-109934000D01*
X132814750Y-109934000D01*
X132656000Y-110092750D01*
X132402000Y-110092750D01*
X132243250Y-109934000D01*
X131752691Y-109934000D01*
X131519302Y-110030673D01*
X131340673Y-110209301D01*
X131244000Y-110442690D01*
X129602674Y-110442690D01*
X129582162Y-110333683D01*
X129443090Y-110117559D01*
X129230890Y-109972569D01*
X128979000Y-109921560D01*
X127679000Y-109921560D01*
X127443683Y-109965838D01*
X127227559Y-110104910D01*
X127191967Y-110157000D01*
X127072267Y-110157000D01*
X127172838Y-109914799D01*
X127173111Y-109601000D01*
X151418271Y-109601000D01*
X148174345Y-112414920D01*
X148135162Y-112206683D01*
X148098618Y-112149892D01*
X148073573Y-112023983D01*
X147773343Y-111574657D01*
X147324017Y-111274427D01*
X146794000Y-111169000D01*
X146272826Y-111169000D01*
X146013343Y-110780657D01*
X145564016Y-110480426D01*
X145034000Y-110375000D01*
X144503984Y-110480426D01*
X144054657Y-110780657D01*
X143666314Y-111169000D01*
X143596844Y-111169000D01*
X143554090Y-111102559D01*
X143341890Y-110957569D01*
X143090000Y-110906560D01*
X141390000Y-110906560D01*
X141154683Y-110950838D01*
X140938559Y-111089910D01*
X140793569Y-111302110D01*
X140742560Y-111554000D01*
X140742560Y-113554000D01*
X140786838Y-113789317D01*
X140925910Y-114005441D01*
X141138110Y-114150431D01*
X141390000Y-114201440D01*
X143090000Y-114201440D01*
X143325317Y-114157162D01*
X143541441Y-114018090D01*
X143595481Y-113939000D01*
X146136974Y-113939000D01*
X146093673Y-113982301D01*
X145997000Y-114215690D01*
X145997000Y-114456250D01*
X146155750Y-114615000D01*
X146955000Y-114615000D01*
X146955000Y-114595000D01*
X147209000Y-114595000D01*
X147209000Y-114615000D01*
X147229000Y-114615000D01*
X147229000Y-114869000D01*
X147209000Y-114869000D01*
X147209000Y-115618250D01*
X147367750Y-115777000D01*
X147658309Y-115777000D01*
X147891698Y-115680327D01*
X148070327Y-115501699D01*
X148167000Y-115268310D01*
X148167000Y-115111727D01*
X148350928Y-115254449D01*
X148966233Y-115422897D01*
X149599163Y-115343054D01*
X150153358Y-115027077D01*
X153645321Y-111998000D01*
X167513000Y-111998000D01*
X167524182Y-111995776D01*
X167535395Y-111997847D01*
X167836629Y-111933626D01*
X168138687Y-111873543D01*
X168148167Y-111867208D01*
X168159319Y-111864831D01*
X168200000Y-111836835D01*
X168200000Y-114752469D01*
X168124291Y-114569239D01*
X167374707Y-113818345D01*
X166394827Y-113411464D01*
X165333828Y-113410538D01*
X164353239Y-113815709D01*
X163602345Y-114565293D01*
X163195464Y-115545173D01*
X163194538Y-116606172D01*
X163599709Y-117586761D01*
X164173944Y-118162000D01*
X143281494Y-118162000D01*
X143449699Y-118092327D01*
X143628327Y-117913698D01*
X143725000Y-117680309D01*
X143725000Y-116839750D01*
X143566250Y-116681000D01*
X142367000Y-116681000D01*
X142367000Y-116701000D01*
X142113000Y-116701000D01*
X142113000Y-116681000D01*
X140913750Y-116681000D01*
X140755000Y-116839750D01*
X140755000Y-117680309D01*
X140851673Y-117913698D01*
X141030301Y-118092327D01*
X141198506Y-118162000D01*
X123962613Y-118162000D01*
X124291687Y-118096543D01*
X124822120Y-117742120D01*
X124857320Y-117689440D01*
X125360000Y-117689440D01*
X125595317Y-117645162D01*
X125811441Y-117506090D01*
X125956431Y-117293890D01*
X126007440Y-117042000D01*
X126007440Y-115219000D01*
X127081560Y-115219000D01*
X127081560Y-117219000D01*
X127125838Y-117454317D01*
X127264910Y-117670441D01*
X127477110Y-117815431D01*
X127729000Y-117866440D01*
X128729000Y-117866440D01*
X128964317Y-117822162D01*
X129180441Y-117683090D01*
X129325431Y-117470890D01*
X129376440Y-117219000D01*
X129376440Y-115219000D01*
X131481560Y-115219000D01*
X131481560Y-117219000D01*
X131525838Y-117454317D01*
X131664910Y-117670441D01*
X131877110Y-117815431D01*
X132129000Y-117866440D01*
X133129000Y-117866440D01*
X133364317Y-117822162D01*
X133580441Y-117683090D01*
X133725431Y-117470890D01*
X133776440Y-117219000D01*
X133776440Y-115427691D01*
X140755000Y-115427691D01*
X140755000Y-116268250D01*
X140913750Y-116427000D01*
X142113000Y-116427000D01*
X142113000Y-115077750D01*
X142367000Y-115077750D01*
X142367000Y-116427000D01*
X143566250Y-116427000D01*
X143725000Y-116268250D01*
X143725000Y-115427691D01*
X143628327Y-115194302D01*
X143461776Y-115027750D01*
X145997000Y-115027750D01*
X145997000Y-115268310D01*
X146093673Y-115501699D01*
X146272302Y-115680327D01*
X146505691Y-115777000D01*
X146796250Y-115777000D01*
X146955000Y-115618250D01*
X146955000Y-114869000D01*
X146155750Y-114869000D01*
X145997000Y-115027750D01*
X143461776Y-115027750D01*
X143449699Y-115015673D01*
X143216310Y-114919000D01*
X142525750Y-114919000D01*
X142367000Y-115077750D01*
X142113000Y-115077750D01*
X141954250Y-114919000D01*
X141263690Y-114919000D01*
X141030301Y-115015673D01*
X140851673Y-115194302D01*
X140755000Y-115427691D01*
X133776440Y-115427691D01*
X133776440Y-115219000D01*
X133732162Y-114983683D01*
X133593090Y-114767559D01*
X133380890Y-114622569D01*
X133129000Y-114571560D01*
X132129000Y-114571560D01*
X131893683Y-114615838D01*
X131677559Y-114754910D01*
X131532569Y-114967110D01*
X131481560Y-115219000D01*
X129376440Y-115219000D01*
X129332162Y-114983683D01*
X129193090Y-114767559D01*
X128980890Y-114622569D01*
X128729000Y-114571560D01*
X127729000Y-114571560D01*
X127493683Y-114615838D01*
X127277559Y-114754910D01*
X127132569Y-114967110D01*
X127081560Y-115219000D01*
X126007440Y-115219000D01*
X126007440Y-114542000D01*
X125963162Y-114306683D01*
X125824090Y-114090559D01*
X125611890Y-113945569D01*
X125360000Y-113894560D01*
X123560000Y-113894560D01*
X123324683Y-113938838D01*
X123108559Y-114077910D01*
X122963569Y-114290110D01*
X122912560Y-114542000D01*
X122912560Y-114951000D01*
X122129440Y-114951000D01*
X122129440Y-114836000D01*
X122100107Y-114680109D01*
X122172451Y-114680991D01*
X122221980Y-114671588D01*
X122263948Y-114643657D01*
X122291743Y-114601598D01*
X122301000Y-114554000D01*
X122301000Y-109601000D01*
X125113421Y-109601000D01*
X124819861Y-109894560D01*
M02*
