G04 #@! TF.FileFunction,Soldermask,Top*
%FSLAX46Y46*%
G04 Gerber Fmt 4.6, Leading zero omitted, Abs format (unit mm)*
G04 Created by KiCad (PCBNEW 4.0.7) date 12/03/17 16:36:58*
%MOMM*%
%LPD*%
G01*
G04 APERTURE LIST*
%ADD10C,0.100000*%
%ADD11C,4.464000*%
%ADD12R,1.600000X2.100000*%
%ADD13O,1.600000X2.100000*%
%ADD14R,2.100000X2.100000*%
%ADD15O,2.100000X2.100000*%
%ADD16R,2.100000X2.400000*%
%ADD17R,2.400000X2.100000*%
%ADD18R,1.200000X1.300000*%
%ADD19C,1.800000*%
%ADD20O,1.800000X1.800000*%
%ADD21C,2.800000*%
%ADD22O,2.800000X2.800000*%
%ADD23R,3.900000X3.900000*%
%ADD24C,1.543000*%
%ADD25R,2.000000X2.400000*%
%ADD26R,2.400000X2.000000*%
%ADD27R,1.920000X1.600000*%
%ADD28R,1.960000X1.050000*%
%ADD29R,1.100000X1.900000*%
%ADD30R,2.230000X0.700000*%
G04 APERTURE END LIST*
D10*
D11*
X174269400Y-123393200D03*
D12*
X173101000Y-67335400D03*
D13*
X171101000Y-67335400D03*
X169101000Y-67335400D03*
X167101000Y-67335400D03*
D12*
X161823400Y-67335400D03*
D13*
X159823400Y-67335400D03*
X157823400Y-67335400D03*
X155823400Y-67335400D03*
D14*
X169265600Y-81534000D03*
D15*
X169265600Y-78994000D03*
X171805600Y-81534000D03*
X171805600Y-78994000D03*
X174345600Y-81534000D03*
X174345600Y-78994000D03*
D11*
X174244000Y-72313800D03*
X133959600Y-123444000D03*
D16*
X133934200Y-80372200D03*
X133934200Y-84372200D03*
D17*
X155327600Y-85953600D03*
X159327600Y-85953600D03*
X157105600Y-91389200D03*
X161105600Y-91389200D03*
X160102800Y-103225600D03*
X164102800Y-103225600D03*
X164192200Y-105613200D03*
X168192200Y-105613200D03*
X168205400Y-103225600D03*
X172205400Y-103225600D03*
X155378400Y-79908400D03*
X159378400Y-79908400D03*
X154210000Y-106095800D03*
X158210000Y-106095800D03*
X159378400Y-83058000D03*
X155378400Y-83058000D03*
D18*
X154015400Y-103514400D03*
X155915400Y-103514400D03*
X154965400Y-101514400D03*
D17*
X171380400Y-88646000D03*
X175380400Y-88646000D03*
D19*
X154457400Y-91401900D03*
D20*
X154457400Y-93941900D03*
D16*
X133934200Y-87204800D03*
X133934200Y-91204800D03*
D17*
X167265600Y-86156800D03*
X171265600Y-86156800D03*
D21*
X144551400Y-62509400D03*
D22*
X144551400Y-123469400D03*
D23*
X133985000Y-101502000D03*
X133985000Y-108302000D03*
D24*
X159664400Y-99060000D03*
D25*
X170459400Y-113214400D03*
X170459400Y-117214400D03*
D26*
X161068000Y-109143800D03*
X165068000Y-109143800D03*
X159429200Y-96570800D03*
X155429200Y-96570800D03*
D25*
X156616400Y-75812400D03*
X156616400Y-71812400D03*
D26*
X171329600Y-91236800D03*
X175329600Y-91236800D03*
D25*
X168021000Y-111055400D03*
X168021000Y-115055400D03*
D27*
X133985000Y-112165400D03*
X133985000Y-116485400D03*
D12*
X160680400Y-119100600D03*
D13*
X162680400Y-119100600D03*
D28*
X162861000Y-112257800D03*
X162861000Y-113207800D03*
X162861000Y-114157800D03*
X165561000Y-114157800D03*
X165561000Y-112257800D03*
X165561000Y-113207800D03*
D29*
X163347400Y-76479400D03*
X162077400Y-76479400D03*
X160807400Y-76479400D03*
X159537400Y-76479400D03*
X159537400Y-71399400D03*
X160807400Y-71399400D03*
X162077400Y-71399400D03*
X163347400Y-71399400D03*
D30*
X163124000Y-93243400D03*
X163124000Y-94513400D03*
X163124000Y-95783400D03*
X163124000Y-97053400D03*
X170124000Y-97053400D03*
X170124000Y-95783400D03*
X170124000Y-94513400D03*
X170124000Y-93243400D03*
D11*
X133934200Y-63042800D03*
M02*
