G04 #@! TF.FileFunction,Copper,L2,Bot,Signal*
%FSLAX46Y46*%
G04 Gerber Fmt 4.6, Leading zero omitted, Abs format (unit mm)*
G04 Created by KiCad (PCBNEW 4.0.7) date 03/15/18 17:26:36*
%MOMM*%
%LPD*%
G01*
G04 APERTURE LIST*
%ADD10C,0.100000*%
%ADD11C,4.064000*%
%ADD12R,1.200000X1.700000*%
%ADD13O,1.200000X1.700000*%
%ADD14R,1.700000X1.700000*%
%ADD15O,1.700000X1.700000*%
%ADD16C,1.400000*%
%ADD17O,1.400000X1.400000*%
%ADD18C,2.400000*%
%ADD19O,2.400000X2.400000*%
%ADD20C,1.143000*%
%ADD21C,0.600000*%
%ADD22C,0.500000*%
%ADD23C,0.350000*%
%ADD24C,1.000000*%
%ADD25C,0.254000*%
G04 APERTURE END LIST*
D10*
D11*
X174269400Y-123393200D03*
D12*
X173101000Y-67335400D03*
D13*
X171101000Y-67335400D03*
X169101000Y-67335400D03*
X167101000Y-67335400D03*
D12*
X161823400Y-67335400D03*
D13*
X159823400Y-67335400D03*
X157823400Y-67335400D03*
X155823400Y-67335400D03*
D14*
X169265600Y-81534000D03*
D15*
X169265600Y-78994000D03*
X171805600Y-81534000D03*
X171805600Y-78994000D03*
X174345600Y-81534000D03*
X174345600Y-78994000D03*
D11*
X174244000Y-72313800D03*
X133959600Y-123444000D03*
D16*
X154457400Y-91401900D03*
D17*
X154457400Y-93941900D03*
D18*
X144551400Y-62509400D03*
D19*
X144551400Y-123469400D03*
D20*
X159664400Y-99060000D03*
D12*
X160680400Y-119100600D03*
D13*
X162680400Y-119100600D03*
D11*
X133934200Y-63042800D03*
D21*
X158318200Y-77876400D03*
X154381200Y-72237600D03*
X153619200Y-96139000D03*
X156718000Y-87934800D03*
X159842200Y-87960200D03*
X171246800Y-91186000D03*
X158648400Y-101193600D03*
X158927800Y-111709200D03*
X136093200Y-80543400D03*
X153822400Y-99720400D03*
X135788400Y-98120200D03*
X172389800Y-113182400D03*
X163347400Y-115951000D03*
X175361600Y-86969600D03*
X172770800Y-94792800D03*
X161975800Y-80416400D03*
X174091600Y-84683600D03*
X172974000Y-93065600D03*
X170967400Y-76504800D03*
X167360600Y-76581000D03*
X162661600Y-83058000D03*
X165912800Y-96570800D03*
X167589200Y-83820000D03*
X174955200Y-83718400D03*
X161163000Y-96520000D03*
X154025600Y-104546400D03*
D22*
X151612600Y-79222600D02*
X151612600Y-78486000D01*
X152222200Y-77876400D02*
X158318200Y-77876400D01*
X151612600Y-78486000D02*
X152222200Y-77876400D01*
X151612600Y-75006200D02*
X154381200Y-72237600D01*
X151612600Y-94132400D02*
X151612600Y-79222600D01*
X151612600Y-79222600D02*
X151612600Y-75006200D01*
X153619200Y-96139000D02*
X151612600Y-94132400D01*
D23*
X159816800Y-87934800D02*
X156718000Y-87934800D01*
X159842200Y-87960200D02*
X159816800Y-87934800D01*
D22*
X158648400Y-111429800D02*
X158648400Y-101193600D01*
X158927800Y-111709200D02*
X158648400Y-111429800D01*
D24*
X149199600Y-80670400D02*
X136220200Y-80670400D01*
D23*
X136220200Y-80670400D02*
X136093200Y-80543400D01*
D24*
X153822400Y-99720400D02*
X149199600Y-94437200D01*
X149199600Y-94437200D02*
X149199600Y-80670400D01*
X149199600Y-80670400D02*
X149199600Y-63804800D01*
X149199600Y-63804800D02*
X144551400Y-62509400D01*
D23*
X159823400Y-67335400D02*
X159766000Y-67310000D01*
X159766000Y-67310000D02*
X160655000Y-66421000D01*
X160655000Y-66421000D02*
X160655000Y-65913000D01*
X160655000Y-65913000D02*
X170180000Y-65913000D01*
X170180000Y-65913000D02*
X171069000Y-66802000D01*
X171069000Y-66802000D02*
X171069000Y-67310000D01*
X171069000Y-67310000D02*
X171101000Y-67335400D01*
X155823400Y-67335400D02*
X155829000Y-67310000D01*
X155829000Y-67310000D02*
X156718000Y-68199000D01*
X156718000Y-68199000D02*
X156718000Y-68707000D01*
X156718000Y-68707000D02*
X162941000Y-68707000D01*
X162941000Y-68707000D02*
X164338000Y-67310000D01*
X164338000Y-67310000D02*
X167132000Y-67310000D01*
X167132000Y-67310000D02*
X167101000Y-67335400D01*
X155823400Y-67335400D02*
X155829000Y-67310000D01*
D24*
X144551400Y-123469400D02*
X139700000Y-123469400D01*
X137820400Y-100152200D02*
X135788400Y-98120200D01*
X137820400Y-121589800D02*
X137820400Y-100152200D01*
X139700000Y-123469400D02*
X137820400Y-121589800D01*
X163347400Y-115951000D02*
X170840400Y-115951000D01*
X172389800Y-114401600D02*
X172389800Y-113182400D01*
X170840400Y-115951000D02*
X172389800Y-114401600D01*
X146913600Y-123494800D02*
X154152600Y-123494800D01*
X157937200Y-115951000D02*
X163347400Y-115951000D01*
X154152600Y-123494800D02*
X157937200Y-115951000D01*
X146913600Y-123494800D02*
X144551400Y-123469400D01*
D23*
X175361600Y-92202000D02*
X175361600Y-86969600D01*
D22*
X172770800Y-94792800D02*
X175361600Y-92202000D01*
D23*
X174091600Y-85648800D02*
X167208200Y-85648800D01*
X167208200Y-85648800D02*
X161975800Y-80416400D01*
X174091600Y-91948000D02*
X174091600Y-85648800D01*
X174091600Y-85648800D02*
X174091600Y-84683600D01*
D22*
X172974000Y-93065600D02*
X174091600Y-91948000D01*
D23*
X167436800Y-76504800D02*
X170967400Y-76504800D01*
X167360600Y-76581000D02*
X167436800Y-76504800D01*
D22*
X162661600Y-88188800D02*
X162661600Y-83058000D01*
X165455600Y-90982800D02*
X162661600Y-88188800D01*
X165455600Y-96113600D02*
X165455600Y-90982800D01*
D23*
X165912800Y-96570800D02*
X165455600Y-96113600D01*
X167589200Y-83820000D02*
X167843200Y-83718400D01*
X167843200Y-83718400D02*
X174955200Y-83718400D01*
X161163000Y-96520000D02*
X161188400Y-96774000D01*
X161188400Y-96774000D02*
X159258000Y-96774000D01*
X159258000Y-96774000D02*
X156464000Y-99568000D01*
X156464000Y-99568000D02*
X156464000Y-102108000D01*
X156464000Y-102108000D02*
X154025600Y-104546400D01*
D25*
G36*
X175992494Y-69877035D02*
X175922327Y-69806745D01*
X174835164Y-69355315D01*
X173658001Y-69354288D01*
X172570051Y-69803819D01*
X171736945Y-70635473D01*
X171285515Y-71722636D01*
X171284488Y-72899799D01*
X171734019Y-73987749D01*
X172565673Y-74820855D01*
X173652836Y-75272285D01*
X174829999Y-75273312D01*
X175917949Y-74823781D01*
X175996252Y-74745614D01*
X176000993Y-80887830D01*
X175987334Y-80819159D01*
X175602129Y-80242658D01*
X175334194Y-80063630D01*
X175540783Y-79875358D01*
X175787086Y-79350892D01*
X175666419Y-79121000D01*
X174472600Y-79121000D01*
X174472600Y-79141000D01*
X174218600Y-79141000D01*
X174218600Y-79121000D01*
X174198600Y-79121000D01*
X174198600Y-78867000D01*
X174218600Y-78867000D01*
X174218600Y-77673845D01*
X174472600Y-77673845D01*
X174472600Y-78867000D01*
X175666419Y-78867000D01*
X175787086Y-78637108D01*
X175540783Y-78112642D01*
X175112524Y-77722355D01*
X174702490Y-77552524D01*
X174472600Y-77673845D01*
X174218600Y-77673845D01*
X173988710Y-77552524D01*
X173578676Y-77722355D01*
X173265807Y-78007484D01*
X173062129Y-77702658D01*
X172485628Y-77317453D01*
X171989034Y-77218674D01*
X172006993Y-77200747D01*
X172194186Y-76749936D01*
X172194612Y-76261805D01*
X172008206Y-75810669D01*
X171663347Y-75465207D01*
X171212536Y-75278014D01*
X170724405Y-75277588D01*
X170421369Y-75402800D01*
X167722744Y-75402800D01*
X167605736Y-75354214D01*
X167117605Y-75353788D01*
X166666469Y-75540194D01*
X166321007Y-75885053D01*
X166133814Y-76335864D01*
X166133388Y-76823995D01*
X166319794Y-77275131D01*
X166664653Y-77620593D01*
X167115464Y-77807786D01*
X167603595Y-77808212D01*
X168054731Y-77621806D01*
X168069763Y-77606800D01*
X168152533Y-77606800D01*
X168009071Y-77702658D01*
X167623866Y-78279159D01*
X167488600Y-78959187D01*
X167488600Y-79028813D01*
X167623866Y-79708841D01*
X167802854Y-79976716D01*
X167756567Y-80006501D01*
X167544904Y-80316279D01*
X167470439Y-80684000D01*
X167470439Y-82384000D01*
X167509752Y-82592931D01*
X167346205Y-82592788D01*
X166895069Y-82779194D01*
X166549607Y-83124053D01*
X166459329Y-83341465D01*
X163140867Y-80023003D01*
X163016606Y-79722269D01*
X162671747Y-79376807D01*
X162220936Y-79189614D01*
X161732805Y-79189188D01*
X161281669Y-79375594D01*
X160936207Y-79720453D01*
X160749014Y-80171264D01*
X160748588Y-80659395D01*
X160934994Y-81110531D01*
X161279853Y-81455993D01*
X161582669Y-81581733D01*
X162003318Y-82002382D01*
X161967469Y-82017194D01*
X161622007Y-82362053D01*
X161434814Y-82812864D01*
X161434388Y-83300995D01*
X161484600Y-83422517D01*
X161484600Y-88188800D01*
X161574194Y-88639219D01*
X161829335Y-89021065D01*
X164278600Y-91470329D01*
X164278600Y-96113600D01*
X164368194Y-96564018D01*
X164623335Y-96945865D01*
X164784712Y-97053693D01*
X164871994Y-97264931D01*
X165216853Y-97610393D01*
X165667664Y-97797586D01*
X166155795Y-97798012D01*
X166606931Y-97611606D01*
X166952393Y-97266747D01*
X167139586Y-96815936D01*
X167140012Y-96327805D01*
X166953606Y-95876669D01*
X166632600Y-95555102D01*
X166632600Y-91428995D01*
X170019588Y-91428995D01*
X170205994Y-91880131D01*
X170550853Y-92225593D01*
X171001664Y-92412786D01*
X171489795Y-92413212D01*
X171940931Y-92226806D01*
X172286393Y-91881947D01*
X172473586Y-91431136D01*
X172474012Y-90943005D01*
X172287606Y-90491869D01*
X171942747Y-90146407D01*
X171491936Y-89959214D01*
X171003805Y-89958788D01*
X170552669Y-90145194D01*
X170207207Y-90490053D01*
X170020014Y-90940864D01*
X170019588Y-91428995D01*
X166632600Y-91428995D01*
X166632600Y-90982805D01*
X166632601Y-90982800D01*
X166543006Y-90532382D01*
X166508996Y-90481482D01*
X166287865Y-90150535D01*
X166287862Y-90150533D01*
X163838600Y-87701270D01*
X163838600Y-83837664D01*
X166428968Y-86428032D01*
X166786483Y-86666915D01*
X167208200Y-86750800D01*
X172989600Y-86750800D01*
X172989600Y-91385470D01*
X172399852Y-91975218D01*
X172279869Y-92024794D01*
X171934407Y-92369653D01*
X171747214Y-92820464D01*
X171746788Y-93308595D01*
X171933194Y-93759731D01*
X172000938Y-93827593D01*
X171731207Y-94096853D01*
X171544014Y-94547664D01*
X171543588Y-95035795D01*
X171729994Y-95486931D01*
X172074853Y-95832393D01*
X172525664Y-96019586D01*
X173013795Y-96020012D01*
X173464931Y-95833606D01*
X173810393Y-95488747D01*
X173860817Y-95367313D01*
X176010511Y-93217618D01*
X176031933Y-120970498D01*
X175947727Y-120886145D01*
X174860564Y-120434715D01*
X173683401Y-120433688D01*
X172595451Y-120883219D01*
X171762345Y-121714873D01*
X171310915Y-122802036D01*
X171309888Y-123979199D01*
X171759419Y-125067149D01*
X171927976Y-125236000D01*
X145724795Y-125236000D01*
X146055416Y-125015086D01*
X146123370Y-124913386D01*
X146898257Y-124921718D01*
X146905938Y-124920276D01*
X146913600Y-124921800D01*
X154152600Y-124921800D01*
X154376008Y-124877361D01*
X154602034Y-124849177D01*
X154647452Y-124823368D01*
X154698689Y-124813176D01*
X154888082Y-124686628D01*
X155086121Y-124574090D01*
X155118206Y-124532863D01*
X155161641Y-124503841D01*
X155288185Y-124314454D01*
X155428088Y-124134691D01*
X158817808Y-117378000D01*
X159724563Y-117378000D01*
X159421367Y-117573101D01*
X159209704Y-117882879D01*
X159135239Y-118250600D01*
X159135239Y-119950600D01*
X159199878Y-120294126D01*
X159402901Y-120609633D01*
X159712679Y-120821296D01*
X160080400Y-120895761D01*
X161280400Y-120895761D01*
X161623926Y-120831122D01*
X161939433Y-120628099D01*
X162082731Y-120418376D01*
X162271024Y-120528886D01*
X162362791Y-120544062D01*
X162553400Y-120419331D01*
X162553400Y-119227600D01*
X162807400Y-119227600D01*
X162807400Y-120419331D01*
X162998009Y-120544062D01*
X163089776Y-120528886D01*
X163509525Y-120282533D01*
X163803047Y-119894301D01*
X163925656Y-119423296D01*
X163762947Y-119227600D01*
X162807400Y-119227600D01*
X162553400Y-119227600D01*
X162533400Y-119227600D01*
X162533400Y-118973600D01*
X162553400Y-118973600D01*
X162553400Y-117781869D01*
X162807400Y-117781869D01*
X162807400Y-118973600D01*
X163762947Y-118973600D01*
X163925656Y-118777904D01*
X163803047Y-118306899D01*
X163509525Y-117918667D01*
X163089776Y-117672314D01*
X162998009Y-117657138D01*
X162807400Y-117781869D01*
X162553400Y-117781869D01*
X162362791Y-117657138D01*
X162271024Y-117672314D01*
X162081452Y-117783575D01*
X161957899Y-117591567D01*
X161648121Y-117379904D01*
X161638719Y-117378000D01*
X170840400Y-117378000D01*
X171386489Y-117269376D01*
X171849441Y-116960041D01*
X173398841Y-115410642D01*
X173708175Y-114947690D01*
X173708176Y-114947689D01*
X173816800Y-114401600D01*
X173816800Y-113182400D01*
X173708176Y-112636311D01*
X173398841Y-112173359D01*
X172935889Y-111864024D01*
X172389800Y-111755400D01*
X171843711Y-111864024D01*
X171380759Y-112173359D01*
X171071424Y-112636311D01*
X170962800Y-113182400D01*
X170962800Y-113810517D01*
X170249318Y-114524000D01*
X157937200Y-114524000D01*
X157713792Y-114568439D01*
X157487766Y-114596623D01*
X157442348Y-114622432D01*
X157391111Y-114632624D01*
X157201718Y-114759172D01*
X157003679Y-114871710D01*
X156971594Y-114912937D01*
X156928159Y-114941959D01*
X156801615Y-115131346D01*
X156661712Y-115311109D01*
X153271992Y-122067800D01*
X146921318Y-122067800D01*
X146146122Y-122059465D01*
X146055416Y-121923714D01*
X145365368Y-121462638D01*
X144551400Y-121300730D01*
X143737432Y-121462638D01*
X143047384Y-121923714D01*
X142968080Y-122042400D01*
X140291083Y-122042400D01*
X139247400Y-120998718D01*
X139247400Y-104789395D01*
X152798388Y-104789395D01*
X152984794Y-105240531D01*
X153329653Y-105585993D01*
X153780464Y-105773186D01*
X154268595Y-105773612D01*
X154719731Y-105587206D01*
X155065193Y-105242347D01*
X155190933Y-104939531D01*
X157243229Y-102887234D01*
X157243232Y-102887232D01*
X157471400Y-102545753D01*
X157471400Y-111429800D01*
X157560994Y-111880219D01*
X157816135Y-112262065D01*
X157837418Y-112283348D01*
X157886994Y-112403331D01*
X158231853Y-112748793D01*
X158682664Y-112935986D01*
X159170795Y-112936412D01*
X159621931Y-112750006D01*
X159967393Y-112405147D01*
X160154586Y-111954336D01*
X160155012Y-111466205D01*
X159968606Y-111015069D01*
X159825400Y-110871613D01*
X159825400Y-101558634D01*
X159875186Y-101438736D01*
X159875612Y-100950605D01*
X159713615Y-100558543D01*
X159961162Y-100558759D01*
X160512123Y-100331107D01*
X160934025Y-99909940D01*
X161162639Y-99359378D01*
X161163159Y-98763238D01*
X160935507Y-98212277D01*
X160599816Y-97876000D01*
X161188400Y-97876000D01*
X161242823Y-97865175D01*
X161298053Y-97870531D01*
X161452130Y-97823541D01*
X161610117Y-97792115D01*
X161656255Y-97761287D01*
X161709330Y-97745100D01*
X161833693Y-97642727D01*
X161967632Y-97553232D01*
X161998461Y-97507093D01*
X162041301Y-97471828D01*
X162117023Y-97329652D01*
X162173778Y-97244712D01*
X162202593Y-97215947D01*
X162389786Y-96765136D01*
X162390212Y-96277005D01*
X162203806Y-95825869D01*
X161858947Y-95480407D01*
X161408136Y-95293214D01*
X160920005Y-95292788D01*
X160468869Y-95479194D01*
X160275726Y-95672000D01*
X159258005Y-95672000D01*
X159258000Y-95671999D01*
X158837836Y-95755576D01*
X158836283Y-95755885D01*
X158478768Y-95994768D01*
X158478766Y-95994771D01*
X155684768Y-98788768D01*
X155445885Y-99146283D01*
X155362000Y-99568000D01*
X155362000Y-101651537D01*
X153632203Y-103381333D01*
X153331469Y-103505594D01*
X152986007Y-103850453D01*
X152798814Y-104301264D01*
X152798388Y-104789395D01*
X139247400Y-104789395D01*
X139247400Y-100152200D01*
X139138776Y-99606111D01*
X138829441Y-99143159D01*
X136797441Y-97111159D01*
X136334489Y-96801824D01*
X135788400Y-96693201D01*
X135242311Y-96801824D01*
X134779359Y-97111159D01*
X134470024Y-97574111D01*
X134361401Y-98120200D01*
X134470024Y-98666289D01*
X134779359Y-99129241D01*
X136393400Y-100743282D01*
X136393400Y-121589800D01*
X136419219Y-121719601D01*
X135637927Y-120936945D01*
X134550764Y-120485515D01*
X133373601Y-120484488D01*
X132294600Y-120930321D01*
X132294600Y-65565936D01*
X133343036Y-66001285D01*
X134520199Y-66002312D01*
X135608149Y-65552781D01*
X136441255Y-64721127D01*
X136892685Y-63633964D01*
X136893712Y-62456801D01*
X136478178Y-61451130D01*
X142689185Y-61447676D01*
X142424770Y-62084457D01*
X142424032Y-62930630D01*
X142747166Y-63712674D01*
X143344978Y-64311531D01*
X144126457Y-64636030D01*
X144972630Y-64636768D01*
X145736630Y-64321090D01*
X147772600Y-64888491D01*
X147772600Y-79243400D01*
X136220200Y-79243400D01*
X135854253Y-79316192D01*
X135850205Y-79316188D01*
X135846431Y-79317747D01*
X135674111Y-79352024D01*
X135529301Y-79448783D01*
X135399069Y-79502594D01*
X135298463Y-79603024D01*
X135211159Y-79661359D01*
X135153334Y-79747900D01*
X135053607Y-79847453D01*
X134999092Y-79978739D01*
X134901824Y-80124311D01*
X134867966Y-80294526D01*
X134866414Y-80298264D01*
X134866410Y-80302347D01*
X134793200Y-80670400D01*
X134901824Y-81216489D01*
X135211159Y-81679441D01*
X135674111Y-81988776D01*
X136220200Y-82097400D01*
X147772600Y-82097400D01*
X147772600Y-94437200D01*
X147817822Y-94664544D01*
X147847819Y-94894383D01*
X147871835Y-94936088D01*
X147881224Y-94983289D01*
X148009999Y-95176014D01*
X148125673Y-95376886D01*
X152748473Y-100660086D01*
X153189823Y-100999530D01*
X153727477Y-101144239D01*
X154279583Y-101072181D01*
X154762086Y-100794327D01*
X155101530Y-100352977D01*
X155246239Y-99815322D01*
X155174181Y-99263217D01*
X154896327Y-98780714D01*
X150626600Y-93901026D01*
X150626600Y-91724111D01*
X152830118Y-91724111D01*
X153077292Y-92322318D01*
X153431014Y-92676657D01*
X153306937Y-92759562D01*
X152954248Y-93287399D01*
X152830400Y-93910025D01*
X152830400Y-93973775D01*
X152954248Y-94596401D01*
X153306937Y-95124238D01*
X153834774Y-95476927D01*
X154457400Y-95600775D01*
X155080026Y-95476927D01*
X155607863Y-95124238D01*
X155960552Y-94596401D01*
X156084400Y-93973775D01*
X156084400Y-93910025D01*
X155960552Y-93287399D01*
X155607863Y-92759562D01*
X155483527Y-92676483D01*
X155835899Y-92324725D01*
X156084117Y-91726950D01*
X156084682Y-91079689D01*
X155837508Y-90481482D01*
X155380225Y-90023401D01*
X154782450Y-89775183D01*
X154135189Y-89774618D01*
X153536982Y-90021792D01*
X153078901Y-90479075D01*
X152830683Y-91076850D01*
X152830118Y-91724111D01*
X150626600Y-91724111D01*
X150626600Y-88177795D01*
X155490788Y-88177795D01*
X155677194Y-88628931D01*
X156022053Y-88974393D01*
X156472864Y-89161586D01*
X156960995Y-89162012D01*
X157264031Y-89036800D01*
X159235376Y-89036800D01*
X159597064Y-89186986D01*
X160085195Y-89187412D01*
X160536331Y-89001006D01*
X160881793Y-88656147D01*
X161068986Y-88205336D01*
X161069412Y-87717205D01*
X160883006Y-87266069D01*
X160538147Y-86920607D01*
X160087336Y-86733414D01*
X159599205Y-86732988D01*
X159357642Y-86832800D01*
X157263654Y-86832800D01*
X156963136Y-86708014D01*
X156475005Y-86707588D01*
X156023869Y-86893994D01*
X155678407Y-87238853D01*
X155491214Y-87689664D01*
X155490788Y-88177795D01*
X150626600Y-88177795D01*
X150626600Y-67050587D01*
X154296400Y-67050587D01*
X154296400Y-67620213D01*
X154412636Y-68204571D01*
X154743648Y-68699965D01*
X155239042Y-69030977D01*
X155698627Y-69122394D01*
X155699885Y-69128717D01*
X155938768Y-69486232D01*
X156296283Y-69725115D01*
X156718000Y-69809000D01*
X162941000Y-69809000D01*
X163362717Y-69725115D01*
X163720232Y-69486232D01*
X164794463Y-68412000D01*
X165828836Y-68412000D01*
X166021248Y-68699965D01*
X166516642Y-69030977D01*
X167101000Y-69147213D01*
X167685358Y-69030977D01*
X168101000Y-68753254D01*
X168516642Y-69030977D01*
X169101000Y-69147213D01*
X169685358Y-69030977D01*
X170101000Y-68753254D01*
X170516642Y-69030977D01*
X171101000Y-69147213D01*
X171685358Y-69030977D01*
X171893233Y-68892079D01*
X172133279Y-69056096D01*
X172501000Y-69130561D01*
X173701000Y-69130561D01*
X174044526Y-69065922D01*
X174360033Y-68862899D01*
X174571696Y-68553121D01*
X174646161Y-68185400D01*
X174646161Y-66485400D01*
X174581522Y-66141874D01*
X174378499Y-65826367D01*
X174068721Y-65614704D01*
X173701000Y-65540239D01*
X172501000Y-65540239D01*
X172157474Y-65604878D01*
X171890329Y-65776781D01*
X171685358Y-65639823D01*
X171410643Y-65585179D01*
X170959232Y-65133768D01*
X170601717Y-64894885D01*
X170180000Y-64811000D01*
X160655000Y-64811000D01*
X160233283Y-64894885D01*
X159875768Y-65133768D01*
X159636885Y-65491283D01*
X159622511Y-65563546D01*
X159239042Y-65639823D01*
X158823400Y-65917546D01*
X158407758Y-65639823D01*
X157823400Y-65523587D01*
X157239042Y-65639823D01*
X156823400Y-65917546D01*
X156407758Y-65639823D01*
X155823400Y-65523587D01*
X155239042Y-65639823D01*
X154743648Y-65970835D01*
X154412636Y-66466229D01*
X154296400Y-67050587D01*
X150626600Y-67050587D01*
X150626600Y-63804800D01*
X150609624Y-63719457D01*
X150616183Y-63632686D01*
X150555761Y-63448668D01*
X150517976Y-63258711D01*
X150469632Y-63186359D01*
X150442486Y-63103685D01*
X150316244Y-62956798D01*
X150208641Y-62795759D01*
X150136290Y-62747416D01*
X150079572Y-62681422D01*
X149906726Y-62594026D01*
X149745689Y-62486424D01*
X149660346Y-62469448D01*
X149582690Y-62430183D01*
X146460567Y-61560083D01*
X146413265Y-61445605D01*
X175985973Y-61429157D01*
X175992494Y-69877035D01*
X175992494Y-69877035D01*
G37*
X175992494Y-69877035D02*
X175922327Y-69806745D01*
X174835164Y-69355315D01*
X173658001Y-69354288D01*
X172570051Y-69803819D01*
X171736945Y-70635473D01*
X171285515Y-71722636D01*
X171284488Y-72899799D01*
X171734019Y-73987749D01*
X172565673Y-74820855D01*
X173652836Y-75272285D01*
X174829999Y-75273312D01*
X175917949Y-74823781D01*
X175996252Y-74745614D01*
X176000993Y-80887830D01*
X175987334Y-80819159D01*
X175602129Y-80242658D01*
X175334194Y-80063630D01*
X175540783Y-79875358D01*
X175787086Y-79350892D01*
X175666419Y-79121000D01*
X174472600Y-79121000D01*
X174472600Y-79141000D01*
X174218600Y-79141000D01*
X174218600Y-79121000D01*
X174198600Y-79121000D01*
X174198600Y-78867000D01*
X174218600Y-78867000D01*
X174218600Y-77673845D01*
X174472600Y-77673845D01*
X174472600Y-78867000D01*
X175666419Y-78867000D01*
X175787086Y-78637108D01*
X175540783Y-78112642D01*
X175112524Y-77722355D01*
X174702490Y-77552524D01*
X174472600Y-77673845D01*
X174218600Y-77673845D01*
X173988710Y-77552524D01*
X173578676Y-77722355D01*
X173265807Y-78007484D01*
X173062129Y-77702658D01*
X172485628Y-77317453D01*
X171989034Y-77218674D01*
X172006993Y-77200747D01*
X172194186Y-76749936D01*
X172194612Y-76261805D01*
X172008206Y-75810669D01*
X171663347Y-75465207D01*
X171212536Y-75278014D01*
X170724405Y-75277588D01*
X170421369Y-75402800D01*
X167722744Y-75402800D01*
X167605736Y-75354214D01*
X167117605Y-75353788D01*
X166666469Y-75540194D01*
X166321007Y-75885053D01*
X166133814Y-76335864D01*
X166133388Y-76823995D01*
X166319794Y-77275131D01*
X166664653Y-77620593D01*
X167115464Y-77807786D01*
X167603595Y-77808212D01*
X168054731Y-77621806D01*
X168069763Y-77606800D01*
X168152533Y-77606800D01*
X168009071Y-77702658D01*
X167623866Y-78279159D01*
X167488600Y-78959187D01*
X167488600Y-79028813D01*
X167623866Y-79708841D01*
X167802854Y-79976716D01*
X167756567Y-80006501D01*
X167544904Y-80316279D01*
X167470439Y-80684000D01*
X167470439Y-82384000D01*
X167509752Y-82592931D01*
X167346205Y-82592788D01*
X166895069Y-82779194D01*
X166549607Y-83124053D01*
X166459329Y-83341465D01*
X163140867Y-80023003D01*
X163016606Y-79722269D01*
X162671747Y-79376807D01*
X162220936Y-79189614D01*
X161732805Y-79189188D01*
X161281669Y-79375594D01*
X160936207Y-79720453D01*
X160749014Y-80171264D01*
X160748588Y-80659395D01*
X160934994Y-81110531D01*
X161279853Y-81455993D01*
X161582669Y-81581733D01*
X162003318Y-82002382D01*
X161967469Y-82017194D01*
X161622007Y-82362053D01*
X161434814Y-82812864D01*
X161434388Y-83300995D01*
X161484600Y-83422517D01*
X161484600Y-88188800D01*
X161574194Y-88639219D01*
X161829335Y-89021065D01*
X164278600Y-91470329D01*
X164278600Y-96113600D01*
X164368194Y-96564018D01*
X164623335Y-96945865D01*
X164784712Y-97053693D01*
X164871994Y-97264931D01*
X165216853Y-97610393D01*
X165667664Y-97797586D01*
X166155795Y-97798012D01*
X166606931Y-97611606D01*
X166952393Y-97266747D01*
X167139586Y-96815936D01*
X167140012Y-96327805D01*
X166953606Y-95876669D01*
X166632600Y-95555102D01*
X166632600Y-91428995D01*
X170019588Y-91428995D01*
X170205994Y-91880131D01*
X170550853Y-92225593D01*
X171001664Y-92412786D01*
X171489795Y-92413212D01*
X171940931Y-92226806D01*
X172286393Y-91881947D01*
X172473586Y-91431136D01*
X172474012Y-90943005D01*
X172287606Y-90491869D01*
X171942747Y-90146407D01*
X171491936Y-89959214D01*
X171003805Y-89958788D01*
X170552669Y-90145194D01*
X170207207Y-90490053D01*
X170020014Y-90940864D01*
X170019588Y-91428995D01*
X166632600Y-91428995D01*
X166632600Y-90982805D01*
X166632601Y-90982800D01*
X166543006Y-90532382D01*
X166508996Y-90481482D01*
X166287865Y-90150535D01*
X166287862Y-90150533D01*
X163838600Y-87701270D01*
X163838600Y-83837664D01*
X166428968Y-86428032D01*
X166786483Y-86666915D01*
X167208200Y-86750800D01*
X172989600Y-86750800D01*
X172989600Y-91385470D01*
X172399852Y-91975218D01*
X172279869Y-92024794D01*
X171934407Y-92369653D01*
X171747214Y-92820464D01*
X171746788Y-93308595D01*
X171933194Y-93759731D01*
X172000938Y-93827593D01*
X171731207Y-94096853D01*
X171544014Y-94547664D01*
X171543588Y-95035795D01*
X171729994Y-95486931D01*
X172074853Y-95832393D01*
X172525664Y-96019586D01*
X173013795Y-96020012D01*
X173464931Y-95833606D01*
X173810393Y-95488747D01*
X173860817Y-95367313D01*
X176010511Y-93217618D01*
X176031933Y-120970498D01*
X175947727Y-120886145D01*
X174860564Y-120434715D01*
X173683401Y-120433688D01*
X172595451Y-120883219D01*
X171762345Y-121714873D01*
X171310915Y-122802036D01*
X171309888Y-123979199D01*
X171759419Y-125067149D01*
X171927976Y-125236000D01*
X145724795Y-125236000D01*
X146055416Y-125015086D01*
X146123370Y-124913386D01*
X146898257Y-124921718D01*
X146905938Y-124920276D01*
X146913600Y-124921800D01*
X154152600Y-124921800D01*
X154376008Y-124877361D01*
X154602034Y-124849177D01*
X154647452Y-124823368D01*
X154698689Y-124813176D01*
X154888082Y-124686628D01*
X155086121Y-124574090D01*
X155118206Y-124532863D01*
X155161641Y-124503841D01*
X155288185Y-124314454D01*
X155428088Y-124134691D01*
X158817808Y-117378000D01*
X159724563Y-117378000D01*
X159421367Y-117573101D01*
X159209704Y-117882879D01*
X159135239Y-118250600D01*
X159135239Y-119950600D01*
X159199878Y-120294126D01*
X159402901Y-120609633D01*
X159712679Y-120821296D01*
X160080400Y-120895761D01*
X161280400Y-120895761D01*
X161623926Y-120831122D01*
X161939433Y-120628099D01*
X162082731Y-120418376D01*
X162271024Y-120528886D01*
X162362791Y-120544062D01*
X162553400Y-120419331D01*
X162553400Y-119227600D01*
X162807400Y-119227600D01*
X162807400Y-120419331D01*
X162998009Y-120544062D01*
X163089776Y-120528886D01*
X163509525Y-120282533D01*
X163803047Y-119894301D01*
X163925656Y-119423296D01*
X163762947Y-119227600D01*
X162807400Y-119227600D01*
X162553400Y-119227600D01*
X162533400Y-119227600D01*
X162533400Y-118973600D01*
X162553400Y-118973600D01*
X162553400Y-117781869D01*
X162807400Y-117781869D01*
X162807400Y-118973600D01*
X163762947Y-118973600D01*
X163925656Y-118777904D01*
X163803047Y-118306899D01*
X163509525Y-117918667D01*
X163089776Y-117672314D01*
X162998009Y-117657138D01*
X162807400Y-117781869D01*
X162553400Y-117781869D01*
X162362791Y-117657138D01*
X162271024Y-117672314D01*
X162081452Y-117783575D01*
X161957899Y-117591567D01*
X161648121Y-117379904D01*
X161638719Y-117378000D01*
X170840400Y-117378000D01*
X171386489Y-117269376D01*
X171849441Y-116960041D01*
X173398841Y-115410642D01*
X173708175Y-114947690D01*
X173708176Y-114947689D01*
X173816800Y-114401600D01*
X173816800Y-113182400D01*
X173708176Y-112636311D01*
X173398841Y-112173359D01*
X172935889Y-111864024D01*
X172389800Y-111755400D01*
X171843711Y-111864024D01*
X171380759Y-112173359D01*
X171071424Y-112636311D01*
X170962800Y-113182400D01*
X170962800Y-113810517D01*
X170249318Y-114524000D01*
X157937200Y-114524000D01*
X157713792Y-114568439D01*
X157487766Y-114596623D01*
X157442348Y-114622432D01*
X157391111Y-114632624D01*
X157201718Y-114759172D01*
X157003679Y-114871710D01*
X156971594Y-114912937D01*
X156928159Y-114941959D01*
X156801615Y-115131346D01*
X156661712Y-115311109D01*
X153271992Y-122067800D01*
X146921318Y-122067800D01*
X146146122Y-122059465D01*
X146055416Y-121923714D01*
X145365368Y-121462638D01*
X144551400Y-121300730D01*
X143737432Y-121462638D01*
X143047384Y-121923714D01*
X142968080Y-122042400D01*
X140291083Y-122042400D01*
X139247400Y-120998718D01*
X139247400Y-104789395D01*
X152798388Y-104789395D01*
X152984794Y-105240531D01*
X153329653Y-105585993D01*
X153780464Y-105773186D01*
X154268595Y-105773612D01*
X154719731Y-105587206D01*
X155065193Y-105242347D01*
X155190933Y-104939531D01*
X157243229Y-102887234D01*
X157243232Y-102887232D01*
X157471400Y-102545753D01*
X157471400Y-111429800D01*
X157560994Y-111880219D01*
X157816135Y-112262065D01*
X157837418Y-112283348D01*
X157886994Y-112403331D01*
X158231853Y-112748793D01*
X158682664Y-112935986D01*
X159170795Y-112936412D01*
X159621931Y-112750006D01*
X159967393Y-112405147D01*
X160154586Y-111954336D01*
X160155012Y-111466205D01*
X159968606Y-111015069D01*
X159825400Y-110871613D01*
X159825400Y-101558634D01*
X159875186Y-101438736D01*
X159875612Y-100950605D01*
X159713615Y-100558543D01*
X159961162Y-100558759D01*
X160512123Y-100331107D01*
X160934025Y-99909940D01*
X161162639Y-99359378D01*
X161163159Y-98763238D01*
X160935507Y-98212277D01*
X160599816Y-97876000D01*
X161188400Y-97876000D01*
X161242823Y-97865175D01*
X161298053Y-97870531D01*
X161452130Y-97823541D01*
X161610117Y-97792115D01*
X161656255Y-97761287D01*
X161709330Y-97745100D01*
X161833693Y-97642727D01*
X161967632Y-97553232D01*
X161998461Y-97507093D01*
X162041301Y-97471828D01*
X162117023Y-97329652D01*
X162173778Y-97244712D01*
X162202593Y-97215947D01*
X162389786Y-96765136D01*
X162390212Y-96277005D01*
X162203806Y-95825869D01*
X161858947Y-95480407D01*
X161408136Y-95293214D01*
X160920005Y-95292788D01*
X160468869Y-95479194D01*
X160275726Y-95672000D01*
X159258005Y-95672000D01*
X159258000Y-95671999D01*
X158837836Y-95755576D01*
X158836283Y-95755885D01*
X158478768Y-95994768D01*
X158478766Y-95994771D01*
X155684768Y-98788768D01*
X155445885Y-99146283D01*
X155362000Y-99568000D01*
X155362000Y-101651537D01*
X153632203Y-103381333D01*
X153331469Y-103505594D01*
X152986007Y-103850453D01*
X152798814Y-104301264D01*
X152798388Y-104789395D01*
X139247400Y-104789395D01*
X139247400Y-100152200D01*
X139138776Y-99606111D01*
X138829441Y-99143159D01*
X136797441Y-97111159D01*
X136334489Y-96801824D01*
X135788400Y-96693201D01*
X135242311Y-96801824D01*
X134779359Y-97111159D01*
X134470024Y-97574111D01*
X134361401Y-98120200D01*
X134470024Y-98666289D01*
X134779359Y-99129241D01*
X136393400Y-100743282D01*
X136393400Y-121589800D01*
X136419219Y-121719601D01*
X135637927Y-120936945D01*
X134550764Y-120485515D01*
X133373601Y-120484488D01*
X132294600Y-120930321D01*
X132294600Y-65565936D01*
X133343036Y-66001285D01*
X134520199Y-66002312D01*
X135608149Y-65552781D01*
X136441255Y-64721127D01*
X136892685Y-63633964D01*
X136893712Y-62456801D01*
X136478178Y-61451130D01*
X142689185Y-61447676D01*
X142424770Y-62084457D01*
X142424032Y-62930630D01*
X142747166Y-63712674D01*
X143344978Y-64311531D01*
X144126457Y-64636030D01*
X144972630Y-64636768D01*
X145736630Y-64321090D01*
X147772600Y-64888491D01*
X147772600Y-79243400D01*
X136220200Y-79243400D01*
X135854253Y-79316192D01*
X135850205Y-79316188D01*
X135846431Y-79317747D01*
X135674111Y-79352024D01*
X135529301Y-79448783D01*
X135399069Y-79502594D01*
X135298463Y-79603024D01*
X135211159Y-79661359D01*
X135153334Y-79747900D01*
X135053607Y-79847453D01*
X134999092Y-79978739D01*
X134901824Y-80124311D01*
X134867966Y-80294526D01*
X134866414Y-80298264D01*
X134866410Y-80302347D01*
X134793200Y-80670400D01*
X134901824Y-81216489D01*
X135211159Y-81679441D01*
X135674111Y-81988776D01*
X136220200Y-82097400D01*
X147772600Y-82097400D01*
X147772600Y-94437200D01*
X147817822Y-94664544D01*
X147847819Y-94894383D01*
X147871835Y-94936088D01*
X147881224Y-94983289D01*
X148009999Y-95176014D01*
X148125673Y-95376886D01*
X152748473Y-100660086D01*
X153189823Y-100999530D01*
X153727477Y-101144239D01*
X154279583Y-101072181D01*
X154762086Y-100794327D01*
X155101530Y-100352977D01*
X155246239Y-99815322D01*
X155174181Y-99263217D01*
X154896327Y-98780714D01*
X150626600Y-93901026D01*
X150626600Y-91724111D01*
X152830118Y-91724111D01*
X153077292Y-92322318D01*
X153431014Y-92676657D01*
X153306937Y-92759562D01*
X152954248Y-93287399D01*
X152830400Y-93910025D01*
X152830400Y-93973775D01*
X152954248Y-94596401D01*
X153306937Y-95124238D01*
X153834774Y-95476927D01*
X154457400Y-95600775D01*
X155080026Y-95476927D01*
X155607863Y-95124238D01*
X155960552Y-94596401D01*
X156084400Y-93973775D01*
X156084400Y-93910025D01*
X155960552Y-93287399D01*
X155607863Y-92759562D01*
X155483527Y-92676483D01*
X155835899Y-92324725D01*
X156084117Y-91726950D01*
X156084682Y-91079689D01*
X155837508Y-90481482D01*
X155380225Y-90023401D01*
X154782450Y-89775183D01*
X154135189Y-89774618D01*
X153536982Y-90021792D01*
X153078901Y-90479075D01*
X152830683Y-91076850D01*
X152830118Y-91724111D01*
X150626600Y-91724111D01*
X150626600Y-88177795D01*
X155490788Y-88177795D01*
X155677194Y-88628931D01*
X156022053Y-88974393D01*
X156472864Y-89161586D01*
X156960995Y-89162012D01*
X157264031Y-89036800D01*
X159235376Y-89036800D01*
X159597064Y-89186986D01*
X160085195Y-89187412D01*
X160536331Y-89001006D01*
X160881793Y-88656147D01*
X161068986Y-88205336D01*
X161069412Y-87717205D01*
X160883006Y-87266069D01*
X160538147Y-86920607D01*
X160087336Y-86733414D01*
X159599205Y-86732988D01*
X159357642Y-86832800D01*
X157263654Y-86832800D01*
X156963136Y-86708014D01*
X156475005Y-86707588D01*
X156023869Y-86893994D01*
X155678407Y-87238853D01*
X155491214Y-87689664D01*
X155490788Y-88177795D01*
X150626600Y-88177795D01*
X150626600Y-67050587D01*
X154296400Y-67050587D01*
X154296400Y-67620213D01*
X154412636Y-68204571D01*
X154743648Y-68699965D01*
X155239042Y-69030977D01*
X155698627Y-69122394D01*
X155699885Y-69128717D01*
X155938768Y-69486232D01*
X156296283Y-69725115D01*
X156718000Y-69809000D01*
X162941000Y-69809000D01*
X163362717Y-69725115D01*
X163720232Y-69486232D01*
X164794463Y-68412000D01*
X165828836Y-68412000D01*
X166021248Y-68699965D01*
X166516642Y-69030977D01*
X167101000Y-69147213D01*
X167685358Y-69030977D01*
X168101000Y-68753254D01*
X168516642Y-69030977D01*
X169101000Y-69147213D01*
X169685358Y-69030977D01*
X170101000Y-68753254D01*
X170516642Y-69030977D01*
X171101000Y-69147213D01*
X171685358Y-69030977D01*
X171893233Y-68892079D01*
X172133279Y-69056096D01*
X172501000Y-69130561D01*
X173701000Y-69130561D01*
X174044526Y-69065922D01*
X174360033Y-68862899D01*
X174571696Y-68553121D01*
X174646161Y-68185400D01*
X174646161Y-66485400D01*
X174581522Y-66141874D01*
X174378499Y-65826367D01*
X174068721Y-65614704D01*
X173701000Y-65540239D01*
X172501000Y-65540239D01*
X172157474Y-65604878D01*
X171890329Y-65776781D01*
X171685358Y-65639823D01*
X171410643Y-65585179D01*
X170959232Y-65133768D01*
X170601717Y-64894885D01*
X170180000Y-64811000D01*
X160655000Y-64811000D01*
X160233283Y-64894885D01*
X159875768Y-65133768D01*
X159636885Y-65491283D01*
X159622511Y-65563546D01*
X159239042Y-65639823D01*
X158823400Y-65917546D01*
X158407758Y-65639823D01*
X157823400Y-65523587D01*
X157239042Y-65639823D01*
X156823400Y-65917546D01*
X156407758Y-65639823D01*
X155823400Y-65523587D01*
X155239042Y-65639823D01*
X154743648Y-65970835D01*
X154412636Y-66466229D01*
X154296400Y-67050587D01*
X150626600Y-67050587D01*
X150626600Y-63804800D01*
X150609624Y-63719457D01*
X150616183Y-63632686D01*
X150555761Y-63448668D01*
X150517976Y-63258711D01*
X150469632Y-63186359D01*
X150442486Y-63103685D01*
X150316244Y-62956798D01*
X150208641Y-62795759D01*
X150136290Y-62747416D01*
X150079572Y-62681422D01*
X149906726Y-62594026D01*
X149745689Y-62486424D01*
X149660346Y-62469448D01*
X149582690Y-62430183D01*
X146460567Y-61560083D01*
X146413265Y-61445605D01*
X175985973Y-61429157D01*
X175992494Y-69877035D01*
M02*
