G04 #@! TF.FileFunction,Soldermask,Top*
%FSLAX46Y46*%
G04 Gerber Fmt 4.6, Leading zero omitted, Abs format (unit mm)*
G04 Created by KiCad (PCBNEW 4.0.7) date 11/29/17 23:45:29*
%MOMM*%
%LPD*%
G01*
G04 APERTURE LIST*
%ADD10C,0.100000*%
%ADD11C,4.464000*%
%ADD12R,2.100000X2.400000*%
%ADD13R,2.400000X2.100000*%
%ADD14R,2.400000X4.200000*%
%ADD15R,2.400000X1.900000*%
%ADD16R,1.950000X1.000000*%
%ADD17R,1.200000X1.300000*%
%ADD18R,0.908000X1.543000*%
%ADD19C,1.800000*%
%ADD20O,1.800000X1.800000*%
%ADD21C,2.800000*%
%ADD22O,2.800000X2.800000*%
%ADD23R,2.200000X2.900000*%
%ADD24R,3.900000X3.900000*%
%ADD25R,1.700000X2.500000*%
%ADD26R,1.400000X2.400000*%
%ADD27C,1.543000*%
%ADD28R,2.400000X2.000000*%
%ADD29R,2.000000X2.400000*%
%ADD30R,1.600000X2.100000*%
%ADD31O,1.600000X2.100000*%
%ADD32R,2.100000X2.100000*%
%ADD33O,2.100000X2.100000*%
G04 APERTURE END LIST*
D10*
D11*
X174320200Y-74295000D03*
X174269400Y-108102400D03*
X155219400Y-113233200D03*
X134137400Y-73279000D03*
X134035800Y-63093600D03*
D12*
X134010400Y-102673400D03*
X134010400Y-106673400D03*
D13*
X155327600Y-85953600D03*
X159327600Y-85953600D03*
X157105600Y-91389200D03*
X161105600Y-91389200D03*
X163303200Y-100787200D03*
X167303200Y-100787200D03*
X170212000Y-100787200D03*
X174212000Y-100787200D03*
X174212000Y-103327200D03*
X170212000Y-103327200D03*
X155378400Y-79908400D03*
X159378400Y-79908400D03*
X154489400Y-105943400D03*
X158489400Y-105943400D03*
X159378400Y-83058000D03*
X155378400Y-83058000D03*
D14*
X170485200Y-111252000D03*
D15*
X164185200Y-111252000D03*
X164185200Y-113552000D03*
X164185200Y-108952000D03*
D16*
X163924000Y-93243400D03*
X163924000Y-94513400D03*
X163924000Y-95783400D03*
X163924000Y-97053400D03*
X169324000Y-97053400D03*
X169324000Y-95783400D03*
X169324000Y-94513400D03*
X169324000Y-93243400D03*
D17*
X154015400Y-103514400D03*
X155915400Y-103514400D03*
X154965400Y-101514400D03*
D18*
X166039800Y-80594200D03*
X164769800Y-80594200D03*
X163499800Y-80594200D03*
X162229800Y-80594200D03*
X162229800Y-74244200D03*
X163499800Y-74244200D03*
X164769800Y-74244200D03*
X166039800Y-74244200D03*
D13*
X171380400Y-88646000D03*
X175380400Y-88646000D03*
D19*
X154457400Y-91401900D03*
D20*
X154457400Y-93941900D03*
D12*
X134010400Y-111436400D03*
X134010400Y-115436400D03*
D13*
X167265600Y-86156800D03*
X171265600Y-86156800D03*
D21*
X144551400Y-62509400D03*
D22*
X144551400Y-123469400D03*
D23*
X167589200Y-121583200D03*
X167589200Y-117583200D03*
D24*
X156467600Y-123139200D03*
X163267600Y-123139200D03*
D25*
X171077200Y-117588000D03*
X175277200Y-117588000D03*
D26*
X170977200Y-122188000D03*
X175377200Y-122188000D03*
D27*
X159664400Y-99060000D03*
D28*
X168268400Y-106121200D03*
X164268400Y-106121200D03*
D29*
X159359600Y-110217200D03*
X159359600Y-114217200D03*
D28*
X159429200Y-96570800D03*
X155429200Y-96570800D03*
X155429200Y-76555600D03*
X159429200Y-76555600D03*
X171329600Y-91236800D03*
X175329600Y-91236800D03*
D30*
X161848800Y-69697600D03*
D31*
X159848800Y-69697600D03*
X157848800Y-69697600D03*
X155848800Y-69697600D03*
D30*
X173126400Y-69697600D03*
D31*
X171126400Y-69697600D03*
X169126400Y-69697600D03*
X167126400Y-69697600D03*
D32*
X169265600Y-81534000D03*
D33*
X169265600Y-78994000D03*
X171805600Y-81534000D03*
X171805600Y-78994000D03*
X174345600Y-81534000D03*
X174345600Y-78994000D03*
D11*
X133959600Y-123418600D03*
M02*
