M48
;DRILL file {KiCad 4.0.7} date 11/16/17 18:27:14
;FORMAT={3:3/ absolute / metric / suppress leading zeros}
FMAT,2
METRIC,TZ
T1C0.400
T2C0.635
T3C0.700
T4C1.000
T5C1.200
T6C3.048
%
G90
G05
M71
T1
X113538Y-83439
X113665Y-68072
X113919Y-72136
X115443Y-81534
X115570Y-76835
X116332Y-68326
X119634Y-58674
X120015Y-73406
X120777Y-75819
X121920Y-59182
X122428Y-91186
X123190Y-56896
X123698Y-60198
X123698Y-79756
X124079Y-73533
X126238Y-109728
X128016Y-73152
X129540Y-73152
X132080Y-72390
X133604Y-69850
X133858Y-66040
X136398Y-70231
X136906Y-110998
X137160Y-66040
X137287Y-72390
X138557Y-66040
X138684Y-74803
X139827Y-78994
X139954Y-92710
X142113Y-70612
X144780Y-92456
X145034Y-111760
X145669Y-74803
X150114Y-56642
X150622Y-80010
X150876Y-74168
X151892Y-57912
X152146Y-71374
X152908Y-84455
X154178Y-58928
X156210Y-59944
T2
X115443Y-83820
T3
X119126Y-84328
X121666Y-84328
T4
X125984Y-76708
X125984Y-91186
X128524Y-76708
X128524Y-91186
X131064Y-76708
X131064Y-91186
X133604Y-76708
X133604Y-91186
X136144Y-76708
X136144Y-91186
X138684Y-76708
X138684Y-91186
X141224Y-76708
X141224Y-91186
X143764Y-76708
X143764Y-91186
X146304Y-76708
X146304Y-91186
X148844Y-76708
X148844Y-91186
T5
X106426Y-101092
X167386Y-101092
T6
X107950Y-59182
X107950Y-116078
X165862Y-59182
X165862Y-116078
T0
M30
