G04 #@! TF.FileFunction,Copper,L2,Bot,Signal*
%FSLAX46Y46*%
G04 Gerber Fmt 4.6, Leading zero omitted, Abs format (unit mm)*
G04 Created by KiCad (PCBNEW 4.0.7) date 11/29/17 23:45:29*
%MOMM*%
%LPD*%
G01*
G04 APERTURE LIST*
%ADD10C,0.100000*%
%ADD11C,4.064000*%
%ADD12C,1.400000*%
%ADD13O,1.400000X1.400000*%
%ADD14C,2.400000*%
%ADD15O,2.400000X2.400000*%
%ADD16C,1.143000*%
%ADD17R,1.200000X1.700000*%
%ADD18O,1.200000X1.700000*%
%ADD19R,1.700000X1.700000*%
%ADD20O,1.700000X1.700000*%
%ADD21C,0.600000*%
%ADD22C,0.500000*%
%ADD23C,2.200000*%
%ADD24C,0.350000*%
%ADD25C,1.500000*%
G04 APERTURE END LIST*
D10*
D11*
X174320200Y-74295000D03*
X174269400Y-108102400D03*
X155219400Y-113233200D03*
X134137400Y-73279000D03*
X134035800Y-63093600D03*
D12*
X154457400Y-91401900D03*
D13*
X154457400Y-93941900D03*
D14*
X144551400Y-62509400D03*
D15*
X144551400Y-123469400D03*
D16*
X159664400Y-99060000D03*
D17*
X161848800Y-69697600D03*
D18*
X159848800Y-69697600D03*
X157848800Y-69697600D03*
X155848800Y-69697600D03*
D17*
X173126400Y-69697600D03*
D18*
X171126400Y-69697600D03*
X169126400Y-69697600D03*
X167126400Y-69697600D03*
D19*
X169265600Y-81534000D03*
D20*
X169265600Y-78994000D03*
X171805600Y-81534000D03*
X171805600Y-78994000D03*
X174345600Y-81534000D03*
X174345600Y-78994000D03*
D11*
X133959600Y-123418600D03*
D21*
X164058600Y-87782400D03*
X164007800Y-84023200D03*
X153441400Y-88011000D03*
X160909000Y-87807800D03*
X171246800Y-91186000D03*
X163017200Y-102616000D03*
X163779200Y-116484400D03*
X134569200Y-100533200D03*
X153822400Y-99720400D03*
X172364400Y-67310000D03*
X164439600Y-69748400D03*
X161036000Y-71323200D03*
X170230800Y-71323200D03*
X161645600Y-109016800D03*
X157530800Y-119938800D03*
X164033200Y-108889800D03*
X175361600Y-86969600D03*
X172770800Y-94792800D03*
X154025600Y-104546400D03*
X161848800Y-96113600D03*
X167589200Y-83820000D03*
X174955200Y-83718400D03*
X164236400Y-78587600D03*
X174091600Y-84683600D03*
X172974000Y-93065600D03*
X162661600Y-83058000D03*
X165912800Y-96570800D03*
D22*
X164058600Y-84074000D02*
X164058600Y-87782400D01*
X164007800Y-84023200D02*
X164058600Y-84074000D01*
X153441400Y-88011000D02*
X153644600Y-87807800D01*
X153644600Y-87807800D02*
X160909000Y-87807800D01*
X163017200Y-115722400D02*
X163017200Y-102616000D01*
X163779200Y-116484400D02*
X163017200Y-115722400D01*
X136931400Y-98171000D02*
X152273000Y-98171000D01*
X134569200Y-100533200D02*
X136931400Y-98171000D01*
D23*
X153822400Y-99720400D02*
X152273000Y-98171000D01*
X144551400Y-90449400D02*
X144551400Y-62509400D01*
X152273000Y-98171000D02*
X144551400Y-90449400D01*
D24*
X166878000Y-67310000D02*
X172364400Y-67310000D01*
X164439600Y-69748400D02*
X166878000Y-67310000D01*
X161036000Y-71323200D02*
X170230800Y-71323200D01*
D25*
X161645600Y-115824000D02*
X161645600Y-109016800D01*
X157530800Y-119938800D02*
X161645600Y-115824000D01*
D24*
X175361600Y-92202000D02*
X175361600Y-86969600D01*
D22*
X172770800Y-94792800D02*
X175361600Y-92202000D01*
D24*
X156464000Y-102108000D02*
X154025600Y-104546400D01*
X156464000Y-99568000D02*
X156464000Y-102108000D01*
X159258000Y-96774000D02*
X156464000Y-99568000D01*
X161188400Y-96774000D02*
X159258000Y-96774000D01*
X161848800Y-96113600D02*
X161188400Y-96774000D01*
X167589200Y-83820000D02*
X167843200Y-83718400D01*
X167843200Y-83718400D02*
X174955200Y-83718400D01*
X174091600Y-84683600D02*
X166878000Y-84683600D01*
X164236400Y-81534000D02*
X164236400Y-78587600D01*
X166878000Y-84683600D02*
X164236400Y-81534000D01*
X174091600Y-91948000D02*
X174091600Y-84683600D01*
D22*
X172974000Y-93065600D02*
X174091600Y-91948000D01*
X162661600Y-88188800D02*
X162661600Y-83058000D01*
X165455600Y-90982800D02*
X162661600Y-88188800D01*
X165455600Y-96113600D02*
X165455600Y-90982800D01*
D24*
X165912800Y-96570800D02*
X165455600Y-96113600D01*
M02*
