G04 #@! TF.FileFunction,Copper,L2,Bot,Signal*
%FSLAX46Y46*%
G04 Gerber Fmt 4.6, Leading zero omitted, Abs format (unit mm)*
G04 Created by KiCad (PCBNEW 4.0.7) date 12/03/17 16:36:58*
%MOMM*%
%LPD*%
G01*
G04 APERTURE LIST*
%ADD10C,0.100000*%
%ADD11C,4.064000*%
%ADD12R,1.200000X1.700000*%
%ADD13O,1.200000X1.700000*%
%ADD14R,1.700000X1.700000*%
%ADD15O,1.700000X1.700000*%
%ADD16C,1.400000*%
%ADD17O,1.400000X1.400000*%
%ADD18C,2.400000*%
%ADD19O,2.400000X2.400000*%
%ADD20C,1.143000*%
%ADD21C,0.600000*%
%ADD22C,0.500000*%
%ADD23C,0.350000*%
%ADD24C,1.000000*%
%ADD25C,0.254000*%
G04 APERTURE END LIST*
D10*
D11*
X174269400Y-123393200D03*
D12*
X173101000Y-67335400D03*
D13*
X171101000Y-67335400D03*
X169101000Y-67335400D03*
X167101000Y-67335400D03*
D12*
X161823400Y-67335400D03*
D13*
X159823400Y-67335400D03*
X157823400Y-67335400D03*
X155823400Y-67335400D03*
D14*
X169265600Y-81534000D03*
D15*
X169265600Y-78994000D03*
X171805600Y-81534000D03*
X171805600Y-78994000D03*
X174345600Y-81534000D03*
X174345600Y-78994000D03*
D11*
X174244000Y-72313800D03*
X133959600Y-123444000D03*
D16*
X154457400Y-91401900D03*
D17*
X154457400Y-93941900D03*
D18*
X144551400Y-62509400D03*
D19*
X144551400Y-123469400D03*
D20*
X159664400Y-99060000D03*
D12*
X160680400Y-119100600D03*
D13*
X162680400Y-119100600D03*
D11*
X133934200Y-63042800D03*
D21*
X158318200Y-77876400D03*
X154381200Y-72237600D03*
X153619200Y-96139000D03*
X156718000Y-87934800D03*
X159842200Y-87960200D03*
X171246800Y-91186000D03*
X158648400Y-101193600D03*
X158927800Y-111709200D03*
X136093200Y-80543400D03*
X153822400Y-99720400D03*
X135788400Y-98120200D03*
X172389800Y-113182400D03*
X163347400Y-115951000D03*
X175361600Y-86969600D03*
X172770800Y-94792800D03*
X161975800Y-80416400D03*
X174091600Y-84683600D03*
X172974000Y-93065600D03*
X170967400Y-76504800D03*
X167360600Y-76581000D03*
X162661600Y-83058000D03*
X165912800Y-96570800D03*
X167589200Y-83820000D03*
X174955200Y-83718400D03*
X161163000Y-96520000D03*
X154025600Y-104546400D03*
D22*
X151612600Y-79222600D02*
X151612600Y-78486000D01*
X152222200Y-77876400D02*
X158318200Y-77876400D01*
X151612600Y-78486000D02*
X152222200Y-77876400D01*
X151612600Y-75006200D02*
X154381200Y-72237600D01*
X151612600Y-94132400D02*
X151612600Y-79222600D01*
X151612600Y-79222600D02*
X151612600Y-75006200D01*
X153619200Y-96139000D02*
X151612600Y-94132400D01*
D23*
X159816800Y-87934800D02*
X156718000Y-87934800D01*
X159842200Y-87960200D02*
X159816800Y-87934800D01*
D22*
X158648400Y-111429800D02*
X158648400Y-101193600D01*
X158927800Y-111709200D02*
X158648400Y-111429800D01*
D23*
X149199600Y-80670400D02*
X136220200Y-80670400D01*
X136220200Y-80670400D02*
X136093200Y-80543400D01*
D24*
X153822400Y-99720400D02*
X149199600Y-94437200D01*
X149199600Y-94437200D02*
X149199600Y-80670400D01*
X149199600Y-80670400D02*
X149199600Y-63804800D01*
X149199600Y-63804800D02*
X144551400Y-62509400D01*
D23*
X159823400Y-67335400D02*
X159766000Y-67310000D01*
X159766000Y-67310000D02*
X160655000Y-66421000D01*
X160655000Y-66421000D02*
X160655000Y-65913000D01*
X160655000Y-65913000D02*
X170180000Y-65913000D01*
X170180000Y-65913000D02*
X171069000Y-66802000D01*
X171069000Y-66802000D02*
X171069000Y-67310000D01*
X171069000Y-67310000D02*
X171101000Y-67335400D01*
X155823400Y-67335400D02*
X155829000Y-67310000D01*
X155829000Y-67310000D02*
X156718000Y-68199000D01*
X156718000Y-68199000D02*
X156718000Y-68707000D01*
X156718000Y-68707000D02*
X162941000Y-68707000D01*
X162941000Y-68707000D02*
X164338000Y-67310000D01*
X164338000Y-67310000D02*
X167132000Y-67310000D01*
X167132000Y-67310000D02*
X167101000Y-67335400D01*
X155823400Y-67335400D02*
X155829000Y-67310000D01*
X144551400Y-123469400D02*
X139700000Y-123469400D01*
X137820400Y-100152200D02*
X135788400Y-98120200D01*
X137820400Y-121589800D02*
X137820400Y-100152200D01*
X139700000Y-123469400D02*
X137820400Y-121589800D01*
D24*
X163347400Y-115951000D02*
X170840400Y-115951000D01*
X172389800Y-114401600D02*
X172389800Y-113182400D01*
X170840400Y-115951000D02*
X172389800Y-114401600D01*
X146913600Y-123494800D02*
X154152600Y-123494800D01*
X157937200Y-115951000D02*
X163347400Y-115951000D01*
X154152600Y-123494800D02*
X157937200Y-115951000D01*
X146913600Y-123494800D02*
X144551400Y-123469400D01*
D23*
X175361600Y-92202000D02*
X175361600Y-86969600D01*
D22*
X172770800Y-94792800D02*
X175361600Y-92202000D01*
D23*
X174091600Y-85648800D02*
X167208200Y-85648800D01*
X167208200Y-85648800D02*
X161975800Y-80416400D01*
X174091600Y-91948000D02*
X174091600Y-85648800D01*
X174091600Y-85648800D02*
X174091600Y-84683600D01*
D22*
X172974000Y-93065600D02*
X174091600Y-91948000D01*
D23*
X167436800Y-76504800D02*
X170967400Y-76504800D01*
X167360600Y-76581000D02*
X167436800Y-76504800D01*
D22*
X162661600Y-88188800D02*
X162661600Y-83058000D01*
X165455600Y-90982800D02*
X162661600Y-88188800D01*
X165455600Y-96113600D02*
X165455600Y-90982800D01*
D23*
X165912800Y-96570800D02*
X165455600Y-96113600D01*
X167589200Y-83820000D02*
X167843200Y-83718400D01*
X167843200Y-83718400D02*
X174955200Y-83718400D01*
X161163000Y-96520000D02*
X161188400Y-96774000D01*
X161188400Y-96774000D02*
X159258000Y-96774000D01*
X159258000Y-96774000D02*
X156464000Y-99568000D01*
X156464000Y-99568000D02*
X156464000Y-102108000D01*
X156464000Y-102108000D02*
X154025600Y-104546400D01*
D25*
G36*
X176285040Y-70583401D02*
X175756707Y-70054145D01*
X174776827Y-69647264D01*
X173715828Y-69646338D01*
X172735239Y-70051509D01*
X171984345Y-70801093D01*
X171577464Y-71780973D01*
X171576538Y-72841972D01*
X171981709Y-73822561D01*
X172731293Y-74573455D01*
X173711173Y-74980336D01*
X174772172Y-74981262D01*
X175752761Y-74576091D01*
X176287709Y-74042076D01*
X176324479Y-121676865D01*
X175782107Y-121133545D01*
X174802227Y-120726664D01*
X173741228Y-120725738D01*
X172760639Y-121130909D01*
X172009745Y-121880493D01*
X171602864Y-122860373D01*
X171601938Y-123921372D01*
X172007109Y-124901961D01*
X172632056Y-125528000D01*
X135646964Y-125528000D01*
X136219255Y-124956707D01*
X136626136Y-123976827D01*
X136627062Y-122915828D01*
X136221891Y-121935239D01*
X135472307Y-121184345D01*
X134492427Y-120777464D01*
X133431428Y-120776538D01*
X132450839Y-121181709D01*
X132002600Y-121629166D01*
X132002600Y-98305367D01*
X134853238Y-98305367D01*
X134995283Y-98649143D01*
X135258073Y-98912392D01*
X135560772Y-99038084D01*
X137010400Y-100487713D01*
X137010400Y-121589800D01*
X137072058Y-121899774D01*
X137229839Y-122135909D01*
X137247644Y-122162556D01*
X139127244Y-124042157D01*
X139390027Y-124217743D01*
X139527897Y-124245166D01*
X139700000Y-124279400D01*
X142904074Y-124279400D01*
X143253859Y-124802891D01*
X143849176Y-125200669D01*
X144551400Y-125340350D01*
X145253624Y-125200669D01*
X145848941Y-124802891D01*
X145971323Y-124619733D01*
X146901397Y-124629734D01*
X146907504Y-124628587D01*
X146913600Y-124629800D01*
X154152600Y-124629800D01*
X154330295Y-124594454D01*
X154510069Y-124572037D01*
X154546193Y-124551509D01*
X154586946Y-124543403D01*
X154737588Y-124442747D01*
X154895099Y-124353240D01*
X154920618Y-124320450D01*
X154955166Y-124297366D01*
X155055819Y-124146728D01*
X155167091Y-124003753D01*
X158053353Y-118250600D01*
X159432960Y-118250600D01*
X159432960Y-119950600D01*
X159477238Y-120185917D01*
X159616310Y-120402041D01*
X159828510Y-120547031D01*
X160080400Y-120598040D01*
X161280400Y-120598040D01*
X161515717Y-120553762D01*
X161731841Y-120414690D01*
X161835971Y-120262291D01*
X161851275Y-120282533D01*
X162271024Y-120528886D01*
X162362791Y-120544062D01*
X162553400Y-120419331D01*
X162553400Y-119227600D01*
X162807400Y-119227600D01*
X162807400Y-120419331D01*
X162998009Y-120544062D01*
X163089776Y-120528886D01*
X163509525Y-120282533D01*
X163803047Y-119894301D01*
X163925656Y-119423296D01*
X163762947Y-119227600D01*
X162807400Y-119227600D01*
X162553400Y-119227600D01*
X162533400Y-119227600D01*
X162533400Y-118973600D01*
X162553400Y-118973600D01*
X162553400Y-117781869D01*
X162807400Y-117781869D01*
X162807400Y-118973600D01*
X163762947Y-118973600D01*
X163925656Y-118777904D01*
X163803047Y-118306899D01*
X163509525Y-117918667D01*
X163089776Y-117672314D01*
X162998009Y-117657138D01*
X162807400Y-117781869D01*
X162553400Y-117781869D01*
X162362791Y-117657138D01*
X162271024Y-117672314D01*
X161851275Y-117918667D01*
X161835131Y-117940020D01*
X161744490Y-117799159D01*
X161532290Y-117654169D01*
X161280400Y-117603160D01*
X160080400Y-117603160D01*
X159845083Y-117647438D01*
X159628959Y-117786510D01*
X159483969Y-117998710D01*
X159432960Y-118250600D01*
X158053353Y-118250600D01*
X158637614Y-117086000D01*
X170840400Y-117086000D01*
X171274746Y-116999603D01*
X171642966Y-116753566D01*
X173192366Y-115204167D01*
X173438403Y-114835946D01*
X173441781Y-114818965D01*
X173524800Y-114401600D01*
X173524800Y-113182400D01*
X173438403Y-112748054D01*
X173192366Y-112379834D01*
X172824146Y-112133797D01*
X172389800Y-112047400D01*
X171955454Y-112133797D01*
X171587234Y-112379834D01*
X171341197Y-112748054D01*
X171254800Y-113182400D01*
X171254800Y-113931467D01*
X170370268Y-114816000D01*
X157937200Y-114816000D01*
X157759505Y-114851346D01*
X157579731Y-114873763D01*
X157543607Y-114894291D01*
X157502854Y-114902397D01*
X157352212Y-115003053D01*
X157194701Y-115092560D01*
X157169182Y-115125350D01*
X157134634Y-115148434D01*
X157033981Y-115299072D01*
X156922709Y-115442047D01*
X153452186Y-122359800D01*
X146919666Y-122359800D01*
X145991874Y-122349824D01*
X145848941Y-122135909D01*
X145253624Y-121738131D01*
X144551400Y-121598450D01*
X143849176Y-121738131D01*
X143253859Y-122135909D01*
X142904074Y-122659400D01*
X140035513Y-122659400D01*
X138630400Y-121254288D01*
X138630400Y-104731567D01*
X153090438Y-104731567D01*
X153232483Y-105075343D01*
X153495273Y-105338592D01*
X153838801Y-105481238D01*
X154210767Y-105481562D01*
X154554543Y-105339517D01*
X154817792Y-105076727D01*
X154943484Y-104774028D01*
X157036756Y-102680757D01*
X157124549Y-102549365D01*
X157212342Y-102417974D01*
X157274000Y-102108000D01*
X157274000Y-101378767D01*
X157713238Y-101378767D01*
X157763400Y-101500169D01*
X157763400Y-111429795D01*
X157763399Y-111429800D01*
X157782144Y-111524033D01*
X157830767Y-111768475D01*
X158017138Y-112047400D01*
X158022610Y-112055590D01*
X158085056Y-112118035D01*
X158134683Y-112238143D01*
X158397473Y-112501392D01*
X158741001Y-112644038D01*
X159112967Y-112644362D01*
X159456743Y-112502317D01*
X159719992Y-112239527D01*
X159862638Y-111895999D01*
X159862962Y-111524033D01*
X159720917Y-111180257D01*
X159533400Y-110992412D01*
X159533400Y-101500422D01*
X159583238Y-101380399D01*
X159583562Y-101008433D01*
X159441517Y-100664657D01*
X159178727Y-100401408D01*
X158835199Y-100258762D01*
X158463233Y-100258438D01*
X158119457Y-100400483D01*
X157856208Y-100663273D01*
X157713562Y-101006801D01*
X157713238Y-101378767D01*
X157274000Y-101378767D01*
X157274000Y-99903512D01*
X158528804Y-98648709D01*
X158458110Y-98818959D01*
X158457691Y-99298935D01*
X158640982Y-99742535D01*
X158980080Y-100082225D01*
X159423359Y-100266290D01*
X159903335Y-100266709D01*
X160346935Y-100083418D01*
X160686625Y-99744320D01*
X160870690Y-99301041D01*
X160871109Y-98821065D01*
X160687818Y-98377465D01*
X160348720Y-98037775D01*
X159905441Y-97853710D01*
X159425465Y-97853291D01*
X159252934Y-97924579D01*
X159593513Y-97584000D01*
X161188400Y-97584000D01*
X161228403Y-97576043D01*
X161268998Y-97579980D01*
X161382250Y-97545441D01*
X161498374Y-97522342D01*
X161532285Y-97499683D01*
X161571298Y-97487785D01*
X161662711Y-97412535D01*
X161761156Y-97346756D01*
X161783816Y-97312844D01*
X161815305Y-97286922D01*
X161870963Y-97182419D01*
X161936742Y-97083974D01*
X161940522Y-97064972D01*
X161955192Y-97050327D01*
X162097838Y-96706799D01*
X162098162Y-96334833D01*
X161956117Y-95991057D01*
X161693327Y-95727808D01*
X161349799Y-95585162D01*
X160977833Y-95584838D01*
X160634057Y-95726883D01*
X160396526Y-95964000D01*
X159258000Y-95964000D01*
X158948027Y-96025657D01*
X158685244Y-96201243D01*
X155891244Y-98995244D01*
X155715658Y-99258026D01*
X155654000Y-99568000D01*
X155654000Y-101772487D01*
X153797518Y-103628970D01*
X153496657Y-103753283D01*
X153233408Y-104016073D01*
X153090762Y-104359601D01*
X153090438Y-104731567D01*
X138630400Y-104731567D01*
X138630400Y-100152200D01*
X138568742Y-99842226D01*
X138498412Y-99736971D01*
X138393157Y-99579444D01*
X136705830Y-97892118D01*
X136581517Y-97591257D01*
X136318727Y-97328008D01*
X135975199Y-97185362D01*
X135603233Y-97185038D01*
X135259457Y-97327083D01*
X134996208Y-97589873D01*
X134853562Y-97933401D01*
X134853238Y-98305367D01*
X132002600Y-98305367D01*
X132002600Y-64882830D01*
X132421493Y-65302455D01*
X133401373Y-65709336D01*
X134462372Y-65710262D01*
X135442961Y-65305091D01*
X136193855Y-64555507D01*
X136600736Y-63575627D01*
X136601662Y-62514628D01*
X136196491Y-61534039D01*
X135822600Y-61159495D01*
X143310485Y-61155330D01*
X142996670Y-61468599D01*
X142716719Y-62142795D01*
X142716082Y-62872803D01*
X142994855Y-63547486D01*
X143510599Y-64064130D01*
X144184795Y-64344081D01*
X144914803Y-64344718D01*
X145589486Y-64065945D01*
X145659176Y-63996377D01*
X148064600Y-64666741D01*
X148064600Y-79860400D01*
X136732529Y-79860400D01*
X136623527Y-79751208D01*
X136279999Y-79608562D01*
X135908033Y-79608238D01*
X135564257Y-79750283D01*
X135301008Y-80013073D01*
X135158362Y-80356601D01*
X135158038Y-80728567D01*
X135300083Y-81072343D01*
X135562873Y-81335592D01*
X135906401Y-81478238D01*
X136210663Y-81478503D01*
X136220200Y-81480400D01*
X148064600Y-81480400D01*
X148064600Y-94437200D01*
X148100567Y-94618020D01*
X148124427Y-94800831D01*
X148143529Y-94834003D01*
X148150997Y-94871546D01*
X148253420Y-95024833D01*
X148345425Y-95184603D01*
X152968225Y-100467803D01*
X153319264Y-100737788D01*
X153746901Y-100852886D01*
X154186031Y-100795573D01*
X154569803Y-100574574D01*
X154839788Y-100223535D01*
X154954886Y-99795899D01*
X154897573Y-99356769D01*
X154676574Y-98972997D01*
X150334600Y-94010740D01*
X150334600Y-91666283D01*
X153122169Y-91666283D01*
X153324982Y-92157129D01*
X153700196Y-92532998D01*
X154023188Y-92667116D01*
X153946518Y-92682367D01*
X153513412Y-92971758D01*
X153224021Y-93404864D01*
X153122400Y-93915746D01*
X153122400Y-93968054D01*
X153224021Y-94478936D01*
X153513412Y-94912042D01*
X153946518Y-95201433D01*
X154457400Y-95303054D01*
X154968282Y-95201433D01*
X155401388Y-94912042D01*
X155690779Y-94478936D01*
X155792400Y-93968054D01*
X155792400Y-93915746D01*
X155690779Y-93404864D01*
X155401388Y-92971758D01*
X154968282Y-92682367D01*
X154891355Y-92667065D01*
X155212629Y-92534318D01*
X155588498Y-92159104D01*
X155792168Y-91668613D01*
X155792631Y-91137517D01*
X155589818Y-90646671D01*
X155214604Y-90270802D01*
X154724113Y-90067132D01*
X154193017Y-90066669D01*
X153702171Y-90269482D01*
X153326302Y-90644696D01*
X153122632Y-91135187D01*
X153122169Y-91666283D01*
X150334600Y-91666283D01*
X150334600Y-88119967D01*
X155782838Y-88119967D01*
X155924883Y-88463743D01*
X156187673Y-88726992D01*
X156531201Y-88869638D01*
X156903167Y-88869962D01*
X157206083Y-88744800D01*
X159304294Y-88744800D01*
X159311873Y-88752392D01*
X159655401Y-88895038D01*
X160027367Y-88895362D01*
X160371143Y-88753317D01*
X160634392Y-88490527D01*
X160777038Y-88146999D01*
X160777362Y-87775033D01*
X160635317Y-87431257D01*
X160372527Y-87168008D01*
X160028999Y-87025362D01*
X159657033Y-87025038D01*
X159415590Y-87124800D01*
X157205441Y-87124800D01*
X156904799Y-86999962D01*
X156532833Y-86999638D01*
X156189057Y-87141683D01*
X155925808Y-87404473D01*
X155783162Y-87748001D01*
X155782838Y-88119967D01*
X150334600Y-88119967D01*
X150334600Y-80601567D01*
X161040638Y-80601567D01*
X161182683Y-80945343D01*
X161445473Y-81208592D01*
X161748172Y-81334284D01*
X162536778Y-82122891D01*
X162476433Y-82122838D01*
X162132657Y-82264883D01*
X161869408Y-82527673D01*
X161726762Y-82871201D01*
X161726438Y-83243167D01*
X161776600Y-83364569D01*
X161776600Y-88188795D01*
X161776599Y-88188800D01*
X161831290Y-88463743D01*
X161843967Y-88527475D01*
X161977279Y-88726992D01*
X162035810Y-88814590D01*
X164570600Y-91349379D01*
X164570600Y-96113600D01*
X164637967Y-96452275D01*
X164829810Y-96739390D01*
X165024554Y-96869513D01*
X165119683Y-97099743D01*
X165382473Y-97362992D01*
X165726001Y-97505638D01*
X166097967Y-97505962D01*
X166441743Y-97363917D01*
X166704992Y-97101127D01*
X166847638Y-96757599D01*
X166847962Y-96385633D01*
X166705917Y-96041857D01*
X166443127Y-95778608D01*
X166340600Y-95736035D01*
X166340600Y-91371167D01*
X170311638Y-91371167D01*
X170453683Y-91714943D01*
X170716473Y-91978192D01*
X171060001Y-92120838D01*
X171431967Y-92121162D01*
X171775743Y-91979117D01*
X172038992Y-91716327D01*
X172181638Y-91372799D01*
X172181962Y-91000833D01*
X172039917Y-90657057D01*
X171777127Y-90393808D01*
X171433599Y-90251162D01*
X171061633Y-90250838D01*
X170717857Y-90392883D01*
X170454608Y-90655673D01*
X170311962Y-90999201D01*
X170311638Y-91371167D01*
X166340600Y-91371167D01*
X166340600Y-90982805D01*
X166340601Y-90982800D01*
X166273739Y-90646671D01*
X166273233Y-90644125D01*
X166081390Y-90357010D01*
X166081387Y-90357008D01*
X163546600Y-87822220D01*
X163546600Y-83364822D01*
X163596438Y-83244799D01*
X163596492Y-83182605D01*
X166635443Y-86221556D01*
X166766835Y-86309349D01*
X166898226Y-86397142D01*
X167208200Y-86458800D01*
X173281600Y-86458800D01*
X173281600Y-91506421D01*
X172565164Y-92222856D01*
X172445057Y-92272483D01*
X172181808Y-92535273D01*
X172039162Y-92878801D01*
X172038838Y-93250767D01*
X172180883Y-93594543D01*
X172443673Y-93857792D01*
X172451131Y-93860889D01*
X172361964Y-93950056D01*
X172241857Y-93999683D01*
X171978608Y-94262473D01*
X171835962Y-94606001D01*
X171835638Y-94977967D01*
X171977683Y-95321743D01*
X172240473Y-95584992D01*
X172584001Y-95727638D01*
X172955967Y-95727962D01*
X173299743Y-95585917D01*
X173562992Y-95323127D01*
X173613366Y-95201814D01*
X175987389Y-92827790D01*
X176179233Y-92540675D01*
X176246600Y-92202000D01*
X176179233Y-91863326D01*
X176171600Y-91851902D01*
X176171600Y-87457041D01*
X176296438Y-87156399D01*
X176296762Y-86784433D01*
X176154717Y-86440657D01*
X175891927Y-86177408D01*
X175548399Y-86034762D01*
X175176433Y-86034438D01*
X174901600Y-86147996D01*
X174901600Y-85171041D01*
X175026438Y-84870399D01*
X175026627Y-84653463D01*
X175140367Y-84653562D01*
X175484143Y-84511517D01*
X175747392Y-84248727D01*
X175890038Y-83905199D01*
X175890362Y-83533233D01*
X175748317Y-83189457D01*
X175485527Y-82926208D01*
X175141999Y-82783562D01*
X175140611Y-82783561D01*
X175395654Y-82613147D01*
X175717561Y-82131378D01*
X175830600Y-81563093D01*
X175830600Y-81504907D01*
X175717561Y-80936622D01*
X175395654Y-80454853D01*
X175112499Y-80265655D01*
X175112524Y-80265645D01*
X175540783Y-79875358D01*
X175787086Y-79350892D01*
X175666419Y-79121000D01*
X174472600Y-79121000D01*
X174472600Y-79141000D01*
X174218600Y-79141000D01*
X174218600Y-79121000D01*
X174198600Y-79121000D01*
X174198600Y-78867000D01*
X174218600Y-78867000D01*
X174218600Y-77673845D01*
X174472600Y-77673845D01*
X174472600Y-78867000D01*
X175666419Y-78867000D01*
X175787086Y-78637108D01*
X175540783Y-78112642D01*
X175112524Y-77722355D01*
X174702490Y-77552524D01*
X174472600Y-77673845D01*
X174218600Y-77673845D01*
X173988710Y-77552524D01*
X173578676Y-77722355D01*
X173150417Y-78112642D01*
X173083302Y-78255553D01*
X172855654Y-77914853D01*
X172373885Y-77592946D01*
X171805600Y-77479907D01*
X171237315Y-77592946D01*
X170755546Y-77914853D01*
X170535600Y-78244026D01*
X170315654Y-77914853D01*
X169833885Y-77592946D01*
X169265600Y-77479907D01*
X168697315Y-77592946D01*
X168215546Y-77914853D01*
X167893639Y-78396622D01*
X167780600Y-78964907D01*
X167780600Y-79023093D01*
X167893639Y-79591378D01*
X168215546Y-80073147D01*
X168216779Y-80073971D01*
X168180283Y-80080838D01*
X167964159Y-80219910D01*
X167819169Y-80432110D01*
X167768160Y-80684000D01*
X167768160Y-82384000D01*
X167812438Y-82619317D01*
X167951510Y-82835441D01*
X168058289Y-82908400D01*
X167843200Y-82908400D01*
X167835602Y-82909911D01*
X167775999Y-82885162D01*
X167404033Y-82884838D01*
X167060257Y-83026883D01*
X166797008Y-83289673D01*
X166654362Y-83633201D01*
X166654087Y-83949174D01*
X162893230Y-80188318D01*
X162768917Y-79887457D01*
X162506127Y-79624208D01*
X162162599Y-79481562D01*
X161790633Y-79481238D01*
X161446857Y-79623283D01*
X161183608Y-79886073D01*
X161040962Y-80229601D01*
X161040638Y-80601567D01*
X150334600Y-80601567D01*
X150334600Y-76766167D01*
X166425438Y-76766167D01*
X166567483Y-77109943D01*
X166830273Y-77373192D01*
X167173801Y-77515838D01*
X167545767Y-77516162D01*
X167889543Y-77374117D01*
X167948964Y-77314800D01*
X170479959Y-77314800D01*
X170780601Y-77439638D01*
X171152567Y-77439962D01*
X171496343Y-77297917D01*
X171759592Y-77035127D01*
X171902238Y-76691599D01*
X171902562Y-76319633D01*
X171760517Y-75975857D01*
X171497727Y-75712608D01*
X171154199Y-75569962D01*
X170782233Y-75569638D01*
X170479317Y-75694800D01*
X167664532Y-75694800D01*
X167547399Y-75646162D01*
X167175433Y-75645838D01*
X166831657Y-75787883D01*
X166568408Y-76050673D01*
X166425762Y-76394201D01*
X166425438Y-76766167D01*
X150334600Y-76766167D01*
X150334600Y-67056307D01*
X154588400Y-67056307D01*
X154588400Y-67614493D01*
X154682409Y-68087107D01*
X154950123Y-68487770D01*
X155350786Y-68755484D01*
X155823400Y-68849493D01*
X155932045Y-68827882D01*
X155969658Y-69016974D01*
X156145244Y-69279756D01*
X156408026Y-69455342D01*
X156718000Y-69517000D01*
X162941000Y-69517000D01*
X163250974Y-69455342D01*
X163513756Y-69279756D01*
X164673513Y-68120000D01*
X165981987Y-68120000D01*
X166227723Y-68487770D01*
X166628386Y-68755484D01*
X167101000Y-68849493D01*
X167573614Y-68755484D01*
X167974277Y-68487770D01*
X168101000Y-68298115D01*
X168227723Y-68487770D01*
X168628386Y-68755484D01*
X169101000Y-68849493D01*
X169573614Y-68755484D01*
X169974277Y-68487770D01*
X170101000Y-68298115D01*
X170227723Y-68487770D01*
X170628386Y-68755484D01*
X171101000Y-68849493D01*
X171573614Y-68755484D01*
X171950996Y-68503326D01*
X172036910Y-68636841D01*
X172249110Y-68781831D01*
X172501000Y-68832840D01*
X173701000Y-68832840D01*
X173936317Y-68788562D01*
X174152441Y-68649490D01*
X174297431Y-68437290D01*
X174348440Y-68185400D01*
X174348440Y-66485400D01*
X174304162Y-66250083D01*
X174165090Y-66033959D01*
X173952890Y-65888969D01*
X173701000Y-65837960D01*
X172501000Y-65837960D01*
X172265683Y-65882238D01*
X172049559Y-66021310D01*
X171950099Y-66166875D01*
X171573614Y-65915316D01*
X171266799Y-65854287D01*
X170752756Y-65340244D01*
X170696201Y-65302455D01*
X170489974Y-65164658D01*
X170180000Y-65103000D01*
X160655000Y-65103000D01*
X160345026Y-65164658D01*
X160082244Y-65340244D01*
X159906658Y-65603026D01*
X159861723Y-65828930D01*
X159823400Y-65821307D01*
X159350786Y-65915316D01*
X158950123Y-66183030D01*
X158823400Y-66372685D01*
X158696677Y-66183030D01*
X158296014Y-65915316D01*
X157823400Y-65821307D01*
X157350786Y-65915316D01*
X156950123Y-66183030D01*
X156823400Y-66372685D01*
X156696677Y-66183030D01*
X156296014Y-65915316D01*
X155823400Y-65821307D01*
X155350786Y-65915316D01*
X154950123Y-66183030D01*
X154682409Y-66583693D01*
X154588400Y-67056307D01*
X150334600Y-67056307D01*
X150334600Y-63804800D01*
X150321098Y-63736919D01*
X150326314Y-63667905D01*
X150278256Y-63521543D01*
X150248203Y-63370454D01*
X150209752Y-63312908D01*
X150188161Y-63247151D01*
X150087751Y-63130320D01*
X150002166Y-63002234D01*
X149944619Y-62963783D01*
X149899508Y-62911294D01*
X149762032Y-62841782D01*
X149633946Y-62756197D01*
X149566067Y-62742695D01*
X149504301Y-62711464D01*
X146245057Y-61803150D01*
X146107945Y-61471314D01*
X145791134Y-61153951D01*
X176277748Y-61136995D01*
X176285040Y-70583401D01*
X176285040Y-70583401D01*
G37*
X176285040Y-70583401D02*
X175756707Y-70054145D01*
X174776827Y-69647264D01*
X173715828Y-69646338D01*
X172735239Y-70051509D01*
X171984345Y-70801093D01*
X171577464Y-71780973D01*
X171576538Y-72841972D01*
X171981709Y-73822561D01*
X172731293Y-74573455D01*
X173711173Y-74980336D01*
X174772172Y-74981262D01*
X175752761Y-74576091D01*
X176287709Y-74042076D01*
X176324479Y-121676865D01*
X175782107Y-121133545D01*
X174802227Y-120726664D01*
X173741228Y-120725738D01*
X172760639Y-121130909D01*
X172009745Y-121880493D01*
X171602864Y-122860373D01*
X171601938Y-123921372D01*
X172007109Y-124901961D01*
X172632056Y-125528000D01*
X135646964Y-125528000D01*
X136219255Y-124956707D01*
X136626136Y-123976827D01*
X136627062Y-122915828D01*
X136221891Y-121935239D01*
X135472307Y-121184345D01*
X134492427Y-120777464D01*
X133431428Y-120776538D01*
X132450839Y-121181709D01*
X132002600Y-121629166D01*
X132002600Y-98305367D01*
X134853238Y-98305367D01*
X134995283Y-98649143D01*
X135258073Y-98912392D01*
X135560772Y-99038084D01*
X137010400Y-100487713D01*
X137010400Y-121589800D01*
X137072058Y-121899774D01*
X137229839Y-122135909D01*
X137247644Y-122162556D01*
X139127244Y-124042157D01*
X139390027Y-124217743D01*
X139527897Y-124245166D01*
X139700000Y-124279400D01*
X142904074Y-124279400D01*
X143253859Y-124802891D01*
X143849176Y-125200669D01*
X144551400Y-125340350D01*
X145253624Y-125200669D01*
X145848941Y-124802891D01*
X145971323Y-124619733D01*
X146901397Y-124629734D01*
X146907504Y-124628587D01*
X146913600Y-124629800D01*
X154152600Y-124629800D01*
X154330295Y-124594454D01*
X154510069Y-124572037D01*
X154546193Y-124551509D01*
X154586946Y-124543403D01*
X154737588Y-124442747D01*
X154895099Y-124353240D01*
X154920618Y-124320450D01*
X154955166Y-124297366D01*
X155055819Y-124146728D01*
X155167091Y-124003753D01*
X158053353Y-118250600D01*
X159432960Y-118250600D01*
X159432960Y-119950600D01*
X159477238Y-120185917D01*
X159616310Y-120402041D01*
X159828510Y-120547031D01*
X160080400Y-120598040D01*
X161280400Y-120598040D01*
X161515717Y-120553762D01*
X161731841Y-120414690D01*
X161835971Y-120262291D01*
X161851275Y-120282533D01*
X162271024Y-120528886D01*
X162362791Y-120544062D01*
X162553400Y-120419331D01*
X162553400Y-119227600D01*
X162807400Y-119227600D01*
X162807400Y-120419331D01*
X162998009Y-120544062D01*
X163089776Y-120528886D01*
X163509525Y-120282533D01*
X163803047Y-119894301D01*
X163925656Y-119423296D01*
X163762947Y-119227600D01*
X162807400Y-119227600D01*
X162553400Y-119227600D01*
X162533400Y-119227600D01*
X162533400Y-118973600D01*
X162553400Y-118973600D01*
X162553400Y-117781869D01*
X162807400Y-117781869D01*
X162807400Y-118973600D01*
X163762947Y-118973600D01*
X163925656Y-118777904D01*
X163803047Y-118306899D01*
X163509525Y-117918667D01*
X163089776Y-117672314D01*
X162998009Y-117657138D01*
X162807400Y-117781869D01*
X162553400Y-117781869D01*
X162362791Y-117657138D01*
X162271024Y-117672314D01*
X161851275Y-117918667D01*
X161835131Y-117940020D01*
X161744490Y-117799159D01*
X161532290Y-117654169D01*
X161280400Y-117603160D01*
X160080400Y-117603160D01*
X159845083Y-117647438D01*
X159628959Y-117786510D01*
X159483969Y-117998710D01*
X159432960Y-118250600D01*
X158053353Y-118250600D01*
X158637614Y-117086000D01*
X170840400Y-117086000D01*
X171274746Y-116999603D01*
X171642966Y-116753566D01*
X173192366Y-115204167D01*
X173438403Y-114835946D01*
X173441781Y-114818965D01*
X173524800Y-114401600D01*
X173524800Y-113182400D01*
X173438403Y-112748054D01*
X173192366Y-112379834D01*
X172824146Y-112133797D01*
X172389800Y-112047400D01*
X171955454Y-112133797D01*
X171587234Y-112379834D01*
X171341197Y-112748054D01*
X171254800Y-113182400D01*
X171254800Y-113931467D01*
X170370268Y-114816000D01*
X157937200Y-114816000D01*
X157759505Y-114851346D01*
X157579731Y-114873763D01*
X157543607Y-114894291D01*
X157502854Y-114902397D01*
X157352212Y-115003053D01*
X157194701Y-115092560D01*
X157169182Y-115125350D01*
X157134634Y-115148434D01*
X157033981Y-115299072D01*
X156922709Y-115442047D01*
X153452186Y-122359800D01*
X146919666Y-122359800D01*
X145991874Y-122349824D01*
X145848941Y-122135909D01*
X145253624Y-121738131D01*
X144551400Y-121598450D01*
X143849176Y-121738131D01*
X143253859Y-122135909D01*
X142904074Y-122659400D01*
X140035513Y-122659400D01*
X138630400Y-121254288D01*
X138630400Y-104731567D01*
X153090438Y-104731567D01*
X153232483Y-105075343D01*
X153495273Y-105338592D01*
X153838801Y-105481238D01*
X154210767Y-105481562D01*
X154554543Y-105339517D01*
X154817792Y-105076727D01*
X154943484Y-104774028D01*
X157036756Y-102680757D01*
X157124549Y-102549365D01*
X157212342Y-102417974D01*
X157274000Y-102108000D01*
X157274000Y-101378767D01*
X157713238Y-101378767D01*
X157763400Y-101500169D01*
X157763400Y-111429795D01*
X157763399Y-111429800D01*
X157782144Y-111524033D01*
X157830767Y-111768475D01*
X158017138Y-112047400D01*
X158022610Y-112055590D01*
X158085056Y-112118035D01*
X158134683Y-112238143D01*
X158397473Y-112501392D01*
X158741001Y-112644038D01*
X159112967Y-112644362D01*
X159456743Y-112502317D01*
X159719992Y-112239527D01*
X159862638Y-111895999D01*
X159862962Y-111524033D01*
X159720917Y-111180257D01*
X159533400Y-110992412D01*
X159533400Y-101500422D01*
X159583238Y-101380399D01*
X159583562Y-101008433D01*
X159441517Y-100664657D01*
X159178727Y-100401408D01*
X158835199Y-100258762D01*
X158463233Y-100258438D01*
X158119457Y-100400483D01*
X157856208Y-100663273D01*
X157713562Y-101006801D01*
X157713238Y-101378767D01*
X157274000Y-101378767D01*
X157274000Y-99903512D01*
X158528804Y-98648709D01*
X158458110Y-98818959D01*
X158457691Y-99298935D01*
X158640982Y-99742535D01*
X158980080Y-100082225D01*
X159423359Y-100266290D01*
X159903335Y-100266709D01*
X160346935Y-100083418D01*
X160686625Y-99744320D01*
X160870690Y-99301041D01*
X160871109Y-98821065D01*
X160687818Y-98377465D01*
X160348720Y-98037775D01*
X159905441Y-97853710D01*
X159425465Y-97853291D01*
X159252934Y-97924579D01*
X159593513Y-97584000D01*
X161188400Y-97584000D01*
X161228403Y-97576043D01*
X161268998Y-97579980D01*
X161382250Y-97545441D01*
X161498374Y-97522342D01*
X161532285Y-97499683D01*
X161571298Y-97487785D01*
X161662711Y-97412535D01*
X161761156Y-97346756D01*
X161783816Y-97312844D01*
X161815305Y-97286922D01*
X161870963Y-97182419D01*
X161936742Y-97083974D01*
X161940522Y-97064972D01*
X161955192Y-97050327D01*
X162097838Y-96706799D01*
X162098162Y-96334833D01*
X161956117Y-95991057D01*
X161693327Y-95727808D01*
X161349799Y-95585162D01*
X160977833Y-95584838D01*
X160634057Y-95726883D01*
X160396526Y-95964000D01*
X159258000Y-95964000D01*
X158948027Y-96025657D01*
X158685244Y-96201243D01*
X155891244Y-98995244D01*
X155715658Y-99258026D01*
X155654000Y-99568000D01*
X155654000Y-101772487D01*
X153797518Y-103628970D01*
X153496657Y-103753283D01*
X153233408Y-104016073D01*
X153090762Y-104359601D01*
X153090438Y-104731567D01*
X138630400Y-104731567D01*
X138630400Y-100152200D01*
X138568742Y-99842226D01*
X138498412Y-99736971D01*
X138393157Y-99579444D01*
X136705830Y-97892118D01*
X136581517Y-97591257D01*
X136318727Y-97328008D01*
X135975199Y-97185362D01*
X135603233Y-97185038D01*
X135259457Y-97327083D01*
X134996208Y-97589873D01*
X134853562Y-97933401D01*
X134853238Y-98305367D01*
X132002600Y-98305367D01*
X132002600Y-64882830D01*
X132421493Y-65302455D01*
X133401373Y-65709336D01*
X134462372Y-65710262D01*
X135442961Y-65305091D01*
X136193855Y-64555507D01*
X136600736Y-63575627D01*
X136601662Y-62514628D01*
X136196491Y-61534039D01*
X135822600Y-61159495D01*
X143310485Y-61155330D01*
X142996670Y-61468599D01*
X142716719Y-62142795D01*
X142716082Y-62872803D01*
X142994855Y-63547486D01*
X143510599Y-64064130D01*
X144184795Y-64344081D01*
X144914803Y-64344718D01*
X145589486Y-64065945D01*
X145659176Y-63996377D01*
X148064600Y-64666741D01*
X148064600Y-79860400D01*
X136732529Y-79860400D01*
X136623527Y-79751208D01*
X136279999Y-79608562D01*
X135908033Y-79608238D01*
X135564257Y-79750283D01*
X135301008Y-80013073D01*
X135158362Y-80356601D01*
X135158038Y-80728567D01*
X135300083Y-81072343D01*
X135562873Y-81335592D01*
X135906401Y-81478238D01*
X136210663Y-81478503D01*
X136220200Y-81480400D01*
X148064600Y-81480400D01*
X148064600Y-94437200D01*
X148100567Y-94618020D01*
X148124427Y-94800831D01*
X148143529Y-94834003D01*
X148150997Y-94871546D01*
X148253420Y-95024833D01*
X148345425Y-95184603D01*
X152968225Y-100467803D01*
X153319264Y-100737788D01*
X153746901Y-100852886D01*
X154186031Y-100795573D01*
X154569803Y-100574574D01*
X154839788Y-100223535D01*
X154954886Y-99795899D01*
X154897573Y-99356769D01*
X154676574Y-98972997D01*
X150334600Y-94010740D01*
X150334600Y-91666283D01*
X153122169Y-91666283D01*
X153324982Y-92157129D01*
X153700196Y-92532998D01*
X154023188Y-92667116D01*
X153946518Y-92682367D01*
X153513412Y-92971758D01*
X153224021Y-93404864D01*
X153122400Y-93915746D01*
X153122400Y-93968054D01*
X153224021Y-94478936D01*
X153513412Y-94912042D01*
X153946518Y-95201433D01*
X154457400Y-95303054D01*
X154968282Y-95201433D01*
X155401388Y-94912042D01*
X155690779Y-94478936D01*
X155792400Y-93968054D01*
X155792400Y-93915746D01*
X155690779Y-93404864D01*
X155401388Y-92971758D01*
X154968282Y-92682367D01*
X154891355Y-92667065D01*
X155212629Y-92534318D01*
X155588498Y-92159104D01*
X155792168Y-91668613D01*
X155792631Y-91137517D01*
X155589818Y-90646671D01*
X155214604Y-90270802D01*
X154724113Y-90067132D01*
X154193017Y-90066669D01*
X153702171Y-90269482D01*
X153326302Y-90644696D01*
X153122632Y-91135187D01*
X153122169Y-91666283D01*
X150334600Y-91666283D01*
X150334600Y-88119967D01*
X155782838Y-88119967D01*
X155924883Y-88463743D01*
X156187673Y-88726992D01*
X156531201Y-88869638D01*
X156903167Y-88869962D01*
X157206083Y-88744800D01*
X159304294Y-88744800D01*
X159311873Y-88752392D01*
X159655401Y-88895038D01*
X160027367Y-88895362D01*
X160371143Y-88753317D01*
X160634392Y-88490527D01*
X160777038Y-88146999D01*
X160777362Y-87775033D01*
X160635317Y-87431257D01*
X160372527Y-87168008D01*
X160028999Y-87025362D01*
X159657033Y-87025038D01*
X159415590Y-87124800D01*
X157205441Y-87124800D01*
X156904799Y-86999962D01*
X156532833Y-86999638D01*
X156189057Y-87141683D01*
X155925808Y-87404473D01*
X155783162Y-87748001D01*
X155782838Y-88119967D01*
X150334600Y-88119967D01*
X150334600Y-80601567D01*
X161040638Y-80601567D01*
X161182683Y-80945343D01*
X161445473Y-81208592D01*
X161748172Y-81334284D01*
X162536778Y-82122891D01*
X162476433Y-82122838D01*
X162132657Y-82264883D01*
X161869408Y-82527673D01*
X161726762Y-82871201D01*
X161726438Y-83243167D01*
X161776600Y-83364569D01*
X161776600Y-88188795D01*
X161776599Y-88188800D01*
X161831290Y-88463743D01*
X161843967Y-88527475D01*
X161977279Y-88726992D01*
X162035810Y-88814590D01*
X164570600Y-91349379D01*
X164570600Y-96113600D01*
X164637967Y-96452275D01*
X164829810Y-96739390D01*
X165024554Y-96869513D01*
X165119683Y-97099743D01*
X165382473Y-97362992D01*
X165726001Y-97505638D01*
X166097967Y-97505962D01*
X166441743Y-97363917D01*
X166704992Y-97101127D01*
X166847638Y-96757599D01*
X166847962Y-96385633D01*
X166705917Y-96041857D01*
X166443127Y-95778608D01*
X166340600Y-95736035D01*
X166340600Y-91371167D01*
X170311638Y-91371167D01*
X170453683Y-91714943D01*
X170716473Y-91978192D01*
X171060001Y-92120838D01*
X171431967Y-92121162D01*
X171775743Y-91979117D01*
X172038992Y-91716327D01*
X172181638Y-91372799D01*
X172181962Y-91000833D01*
X172039917Y-90657057D01*
X171777127Y-90393808D01*
X171433599Y-90251162D01*
X171061633Y-90250838D01*
X170717857Y-90392883D01*
X170454608Y-90655673D01*
X170311962Y-90999201D01*
X170311638Y-91371167D01*
X166340600Y-91371167D01*
X166340600Y-90982805D01*
X166340601Y-90982800D01*
X166273739Y-90646671D01*
X166273233Y-90644125D01*
X166081390Y-90357010D01*
X166081387Y-90357008D01*
X163546600Y-87822220D01*
X163546600Y-83364822D01*
X163596438Y-83244799D01*
X163596492Y-83182605D01*
X166635443Y-86221556D01*
X166766835Y-86309349D01*
X166898226Y-86397142D01*
X167208200Y-86458800D01*
X173281600Y-86458800D01*
X173281600Y-91506421D01*
X172565164Y-92222856D01*
X172445057Y-92272483D01*
X172181808Y-92535273D01*
X172039162Y-92878801D01*
X172038838Y-93250767D01*
X172180883Y-93594543D01*
X172443673Y-93857792D01*
X172451131Y-93860889D01*
X172361964Y-93950056D01*
X172241857Y-93999683D01*
X171978608Y-94262473D01*
X171835962Y-94606001D01*
X171835638Y-94977967D01*
X171977683Y-95321743D01*
X172240473Y-95584992D01*
X172584001Y-95727638D01*
X172955967Y-95727962D01*
X173299743Y-95585917D01*
X173562992Y-95323127D01*
X173613366Y-95201814D01*
X175987389Y-92827790D01*
X176179233Y-92540675D01*
X176246600Y-92202000D01*
X176179233Y-91863326D01*
X176171600Y-91851902D01*
X176171600Y-87457041D01*
X176296438Y-87156399D01*
X176296762Y-86784433D01*
X176154717Y-86440657D01*
X175891927Y-86177408D01*
X175548399Y-86034762D01*
X175176433Y-86034438D01*
X174901600Y-86147996D01*
X174901600Y-85171041D01*
X175026438Y-84870399D01*
X175026627Y-84653463D01*
X175140367Y-84653562D01*
X175484143Y-84511517D01*
X175747392Y-84248727D01*
X175890038Y-83905199D01*
X175890362Y-83533233D01*
X175748317Y-83189457D01*
X175485527Y-82926208D01*
X175141999Y-82783562D01*
X175140611Y-82783561D01*
X175395654Y-82613147D01*
X175717561Y-82131378D01*
X175830600Y-81563093D01*
X175830600Y-81504907D01*
X175717561Y-80936622D01*
X175395654Y-80454853D01*
X175112499Y-80265655D01*
X175112524Y-80265645D01*
X175540783Y-79875358D01*
X175787086Y-79350892D01*
X175666419Y-79121000D01*
X174472600Y-79121000D01*
X174472600Y-79141000D01*
X174218600Y-79141000D01*
X174218600Y-79121000D01*
X174198600Y-79121000D01*
X174198600Y-78867000D01*
X174218600Y-78867000D01*
X174218600Y-77673845D01*
X174472600Y-77673845D01*
X174472600Y-78867000D01*
X175666419Y-78867000D01*
X175787086Y-78637108D01*
X175540783Y-78112642D01*
X175112524Y-77722355D01*
X174702490Y-77552524D01*
X174472600Y-77673845D01*
X174218600Y-77673845D01*
X173988710Y-77552524D01*
X173578676Y-77722355D01*
X173150417Y-78112642D01*
X173083302Y-78255553D01*
X172855654Y-77914853D01*
X172373885Y-77592946D01*
X171805600Y-77479907D01*
X171237315Y-77592946D01*
X170755546Y-77914853D01*
X170535600Y-78244026D01*
X170315654Y-77914853D01*
X169833885Y-77592946D01*
X169265600Y-77479907D01*
X168697315Y-77592946D01*
X168215546Y-77914853D01*
X167893639Y-78396622D01*
X167780600Y-78964907D01*
X167780600Y-79023093D01*
X167893639Y-79591378D01*
X168215546Y-80073147D01*
X168216779Y-80073971D01*
X168180283Y-80080838D01*
X167964159Y-80219910D01*
X167819169Y-80432110D01*
X167768160Y-80684000D01*
X167768160Y-82384000D01*
X167812438Y-82619317D01*
X167951510Y-82835441D01*
X168058289Y-82908400D01*
X167843200Y-82908400D01*
X167835602Y-82909911D01*
X167775999Y-82885162D01*
X167404033Y-82884838D01*
X167060257Y-83026883D01*
X166797008Y-83289673D01*
X166654362Y-83633201D01*
X166654087Y-83949174D01*
X162893230Y-80188318D01*
X162768917Y-79887457D01*
X162506127Y-79624208D01*
X162162599Y-79481562D01*
X161790633Y-79481238D01*
X161446857Y-79623283D01*
X161183608Y-79886073D01*
X161040962Y-80229601D01*
X161040638Y-80601567D01*
X150334600Y-80601567D01*
X150334600Y-76766167D01*
X166425438Y-76766167D01*
X166567483Y-77109943D01*
X166830273Y-77373192D01*
X167173801Y-77515838D01*
X167545767Y-77516162D01*
X167889543Y-77374117D01*
X167948964Y-77314800D01*
X170479959Y-77314800D01*
X170780601Y-77439638D01*
X171152567Y-77439962D01*
X171496343Y-77297917D01*
X171759592Y-77035127D01*
X171902238Y-76691599D01*
X171902562Y-76319633D01*
X171760517Y-75975857D01*
X171497727Y-75712608D01*
X171154199Y-75569962D01*
X170782233Y-75569638D01*
X170479317Y-75694800D01*
X167664532Y-75694800D01*
X167547399Y-75646162D01*
X167175433Y-75645838D01*
X166831657Y-75787883D01*
X166568408Y-76050673D01*
X166425762Y-76394201D01*
X166425438Y-76766167D01*
X150334600Y-76766167D01*
X150334600Y-67056307D01*
X154588400Y-67056307D01*
X154588400Y-67614493D01*
X154682409Y-68087107D01*
X154950123Y-68487770D01*
X155350786Y-68755484D01*
X155823400Y-68849493D01*
X155932045Y-68827882D01*
X155969658Y-69016974D01*
X156145244Y-69279756D01*
X156408026Y-69455342D01*
X156718000Y-69517000D01*
X162941000Y-69517000D01*
X163250974Y-69455342D01*
X163513756Y-69279756D01*
X164673513Y-68120000D01*
X165981987Y-68120000D01*
X166227723Y-68487770D01*
X166628386Y-68755484D01*
X167101000Y-68849493D01*
X167573614Y-68755484D01*
X167974277Y-68487770D01*
X168101000Y-68298115D01*
X168227723Y-68487770D01*
X168628386Y-68755484D01*
X169101000Y-68849493D01*
X169573614Y-68755484D01*
X169974277Y-68487770D01*
X170101000Y-68298115D01*
X170227723Y-68487770D01*
X170628386Y-68755484D01*
X171101000Y-68849493D01*
X171573614Y-68755484D01*
X171950996Y-68503326D01*
X172036910Y-68636841D01*
X172249110Y-68781831D01*
X172501000Y-68832840D01*
X173701000Y-68832840D01*
X173936317Y-68788562D01*
X174152441Y-68649490D01*
X174297431Y-68437290D01*
X174348440Y-68185400D01*
X174348440Y-66485400D01*
X174304162Y-66250083D01*
X174165090Y-66033959D01*
X173952890Y-65888969D01*
X173701000Y-65837960D01*
X172501000Y-65837960D01*
X172265683Y-65882238D01*
X172049559Y-66021310D01*
X171950099Y-66166875D01*
X171573614Y-65915316D01*
X171266799Y-65854287D01*
X170752756Y-65340244D01*
X170696201Y-65302455D01*
X170489974Y-65164658D01*
X170180000Y-65103000D01*
X160655000Y-65103000D01*
X160345026Y-65164658D01*
X160082244Y-65340244D01*
X159906658Y-65603026D01*
X159861723Y-65828930D01*
X159823400Y-65821307D01*
X159350786Y-65915316D01*
X158950123Y-66183030D01*
X158823400Y-66372685D01*
X158696677Y-66183030D01*
X158296014Y-65915316D01*
X157823400Y-65821307D01*
X157350786Y-65915316D01*
X156950123Y-66183030D01*
X156823400Y-66372685D01*
X156696677Y-66183030D01*
X156296014Y-65915316D01*
X155823400Y-65821307D01*
X155350786Y-65915316D01*
X154950123Y-66183030D01*
X154682409Y-66583693D01*
X154588400Y-67056307D01*
X150334600Y-67056307D01*
X150334600Y-63804800D01*
X150321098Y-63736919D01*
X150326314Y-63667905D01*
X150278256Y-63521543D01*
X150248203Y-63370454D01*
X150209752Y-63312908D01*
X150188161Y-63247151D01*
X150087751Y-63130320D01*
X150002166Y-63002234D01*
X149944619Y-62963783D01*
X149899508Y-62911294D01*
X149762032Y-62841782D01*
X149633946Y-62756197D01*
X149566067Y-62742695D01*
X149504301Y-62711464D01*
X146245057Y-61803150D01*
X146107945Y-61471314D01*
X145791134Y-61153951D01*
X176277748Y-61136995D01*
X176285040Y-70583401D01*
M02*
