G04 #@! TF.FileFunction,Copper,L1,Top,Signal*
%FSLAX46Y46*%
G04 Gerber Fmt 4.6, Leading zero omitted, Abs format (unit mm)*
G04 Created by KiCad (PCBNEW 4.0.7) date 12/03/17 16:36:58*
%MOMM*%
%LPD*%
G01*
G04 APERTURE LIST*
%ADD10C,0.100000*%
%ADD11C,4.064000*%
%ADD12R,1.200000X1.700000*%
%ADD13O,1.200000X1.700000*%
%ADD14R,1.700000X1.700000*%
%ADD15O,1.700000X1.700000*%
%ADD16R,1.700000X2.000000*%
%ADD17R,2.000000X1.700000*%
%ADD18R,0.800000X0.900000*%
%ADD19C,1.400000*%
%ADD20O,1.400000X1.400000*%
%ADD21C,2.400000*%
%ADD22O,2.400000X2.400000*%
%ADD23R,3.500000X3.500000*%
%ADD24C,1.143000*%
%ADD25R,1.600000X2.000000*%
%ADD26R,2.000000X1.600000*%
%ADD27R,1.520000X1.200000*%
%ADD28R,1.560000X0.650000*%
%ADD29R,0.700000X1.500000*%
%ADD30R,2.130000X0.600000*%
%ADD31C,0.600000*%
%ADD32C,1.000000*%
%ADD33C,0.500000*%
%ADD34C,0.350000*%
%ADD35C,2.000000*%
%ADD36C,1.500000*%
%ADD37C,0.254000*%
G04 APERTURE END LIST*
D10*
D11*
X174269400Y-123393200D03*
D12*
X173101000Y-67335400D03*
D13*
X171101000Y-67335400D03*
X169101000Y-67335400D03*
X167101000Y-67335400D03*
D12*
X161823400Y-67335400D03*
D13*
X159823400Y-67335400D03*
X157823400Y-67335400D03*
X155823400Y-67335400D03*
D14*
X169265600Y-81534000D03*
D15*
X169265600Y-78994000D03*
X171805600Y-81534000D03*
X171805600Y-78994000D03*
X174345600Y-81534000D03*
X174345600Y-78994000D03*
D11*
X174244000Y-72313800D03*
X133959600Y-123444000D03*
D16*
X133934200Y-80372200D03*
X133934200Y-84372200D03*
D17*
X155327600Y-85953600D03*
X159327600Y-85953600D03*
X157105600Y-91389200D03*
X161105600Y-91389200D03*
X160102800Y-103225600D03*
X164102800Y-103225600D03*
X164192200Y-105613200D03*
X168192200Y-105613200D03*
X168205400Y-103225600D03*
X172205400Y-103225600D03*
X155378400Y-79908400D03*
X159378400Y-79908400D03*
X154210000Y-106095800D03*
X158210000Y-106095800D03*
X159378400Y-83058000D03*
X155378400Y-83058000D03*
D18*
X154015400Y-103514400D03*
X155915400Y-103514400D03*
X154965400Y-101514400D03*
D17*
X171380400Y-88646000D03*
X175380400Y-88646000D03*
D19*
X154457400Y-91401900D03*
D20*
X154457400Y-93941900D03*
D16*
X133934200Y-87204800D03*
X133934200Y-91204800D03*
D17*
X167265600Y-86156800D03*
X171265600Y-86156800D03*
D21*
X144551400Y-62509400D03*
D22*
X144551400Y-123469400D03*
D23*
X133985000Y-101502000D03*
X133985000Y-108302000D03*
D24*
X159664400Y-99060000D03*
D25*
X170459400Y-113214400D03*
X170459400Y-117214400D03*
D26*
X161068000Y-109143800D03*
X165068000Y-109143800D03*
X159429200Y-96570800D03*
X155429200Y-96570800D03*
D25*
X156616400Y-75812400D03*
X156616400Y-71812400D03*
D26*
X171329600Y-91236800D03*
X175329600Y-91236800D03*
D25*
X168021000Y-111055400D03*
X168021000Y-115055400D03*
D27*
X133985000Y-112165400D03*
X133985000Y-116485400D03*
D12*
X160680400Y-119100600D03*
D13*
X162680400Y-119100600D03*
D28*
X162861000Y-112257800D03*
X162861000Y-113207800D03*
X162861000Y-114157800D03*
X165561000Y-114157800D03*
X165561000Y-112257800D03*
X165561000Y-113207800D03*
D29*
X163347400Y-76479400D03*
X162077400Y-76479400D03*
X160807400Y-76479400D03*
X159537400Y-76479400D03*
X159537400Y-71399400D03*
X160807400Y-71399400D03*
X162077400Y-71399400D03*
X163347400Y-71399400D03*
D30*
X163124000Y-93243400D03*
X163124000Y-94513400D03*
X163124000Y-95783400D03*
X163124000Y-97053400D03*
X170124000Y-97053400D03*
X170124000Y-95783400D03*
X170124000Y-94513400D03*
X170124000Y-93243400D03*
D11*
X133934200Y-63042800D03*
D31*
X158318200Y-77876400D03*
X154381200Y-72237600D03*
X153619200Y-96139000D03*
X156718000Y-87934800D03*
X159842200Y-87960200D03*
X171246800Y-91186000D03*
X158648400Y-101193600D03*
X158927800Y-111709200D03*
X136093200Y-80543400D03*
X153822400Y-99720400D03*
X135788400Y-98120200D03*
X172389800Y-113182400D03*
X163347400Y-115951000D03*
X175361600Y-86969600D03*
X172770800Y-94792800D03*
X161975800Y-80416400D03*
X174091600Y-84683600D03*
X172974000Y-93065600D03*
X170967400Y-76504800D03*
X167360600Y-76581000D03*
X162661600Y-83058000D03*
X165912800Y-96570800D03*
X167589200Y-83820000D03*
X174955200Y-83718400D03*
X161163000Y-96520000D03*
X154025600Y-104546400D03*
D32*
X155915400Y-103514400D02*
X156625800Y-103514400D01*
D33*
X158210000Y-105098600D02*
X158210000Y-106095800D01*
D32*
X156625800Y-103514400D02*
X158210000Y-105098600D01*
D33*
X170967400Y-109143800D02*
X170967400Y-107442000D01*
X172205400Y-106204000D02*
X172205400Y-103225600D01*
X170967400Y-107442000D02*
X172205400Y-106204000D01*
X175329600Y-91236800D02*
X175329600Y-100101400D01*
X175329600Y-100101400D02*
X172205400Y-103225600D01*
D34*
X163124000Y-97053400D02*
X164109400Y-97053400D01*
D33*
X164109400Y-97053400D02*
X168427400Y-101371400D01*
X168427400Y-101371400D02*
X171729400Y-101371400D01*
X171729400Y-101371400D02*
X172205400Y-101847400D01*
X172205400Y-101847400D02*
X172205400Y-103225600D01*
D34*
X155429200Y-96570800D02*
X155429200Y-95776800D01*
X155429200Y-95776800D02*
X156311600Y-94894400D01*
X159505400Y-92989400D02*
X161105600Y-91389200D01*
X156616400Y-92989400D02*
X159505400Y-92989400D01*
X156311600Y-93294200D02*
X156616400Y-92989400D01*
X156311600Y-94894400D02*
X156311600Y-93294200D01*
D32*
X170459400Y-117214400D02*
X164566600Y-117214400D01*
X164566600Y-117214400D02*
X162680400Y-119100600D01*
X165068000Y-109143800D02*
X165068000Y-107575600D01*
X159403800Y-107492800D02*
X158210000Y-106095800D01*
X164985200Y-107492800D02*
X159403800Y-107492800D01*
X165068000Y-107575600D02*
X164985200Y-107492800D01*
X165068000Y-109143800D02*
X170967400Y-109143800D01*
X170967400Y-109143800D02*
X173202600Y-109143800D01*
X173202600Y-109143800D02*
X173837600Y-109778800D01*
D33*
X162861000Y-113207800D02*
X160705800Y-113207800D01*
X160705800Y-113207800D02*
X160731200Y-113233200D01*
D32*
X160731200Y-113233200D02*
X160731200Y-115011200D01*
X160731200Y-115011200D02*
X162680400Y-116960400D01*
X162680400Y-116960400D02*
X162680400Y-119100600D01*
X173837600Y-110591600D02*
X173837600Y-109778800D01*
X172701200Y-117214400D02*
X170459400Y-117214400D01*
X173837600Y-116078000D02*
X172701200Y-117214400D01*
X173837600Y-110591600D02*
X173837600Y-116078000D01*
D33*
X170135800Y-116890800D02*
X170459400Y-117214400D01*
X155429200Y-96570800D02*
X155429200Y-98253800D01*
X155429200Y-98253800D02*
X157581600Y-100406200D01*
X157581600Y-100406200D02*
X157581600Y-103514400D01*
D34*
X158318200Y-77876400D02*
X159537400Y-76657200D01*
D33*
X159537400Y-76657200D02*
X159537400Y-76479400D01*
X155429200Y-96570800D02*
X154051000Y-96570800D01*
D34*
X154806400Y-71812400D02*
X156616400Y-71812400D01*
X154381200Y-72237600D02*
X154806400Y-71812400D01*
D33*
X154051000Y-96570800D02*
X153619200Y-96139000D01*
D34*
X156616400Y-71812400D02*
X156616400Y-71602600D01*
X156616400Y-71812400D02*
X156616400Y-71551800D01*
X172392600Y-103038400D02*
X172205400Y-103225600D01*
X156616400Y-71812400D02*
X156616400Y-71704200D01*
X159537400Y-75819000D02*
X159537400Y-76479400D01*
X174345600Y-78511400D02*
X174345600Y-78994000D01*
D33*
X155429200Y-96570800D02*
X155429200Y-97364800D01*
X172392600Y-103038400D02*
X172205400Y-103225600D01*
X174345600Y-78994000D02*
X175971200Y-78994000D01*
X175971200Y-78994000D02*
X176326800Y-79349600D01*
X176326800Y-79349600D02*
X176326800Y-87699600D01*
X176326800Y-87699600D02*
X175380400Y-88646000D01*
D34*
X174345600Y-78994000D02*
X174904400Y-78994000D01*
X176174400Y-87852000D02*
X175380400Y-88646000D01*
X175329600Y-91236800D02*
X175329600Y-88696800D01*
X175329600Y-88696800D02*
X175380400Y-88646000D01*
X175228000Y-88798400D02*
X175310800Y-88881200D01*
D33*
X175310800Y-88881200D02*
X175310800Y-88341200D01*
D34*
X156616400Y-71812400D02*
X156616400Y-71120000D01*
X155429200Y-96570800D02*
X155429200Y-97314000D01*
X156711400Y-71907400D02*
X156616400Y-71812400D01*
X155238200Y-96379800D02*
X155429200Y-96570800D01*
X175424600Y-91141800D02*
X175329600Y-91236800D01*
D32*
X155915400Y-103514400D02*
X157581600Y-103514400D01*
D34*
X175488600Y-91395800D02*
X175329600Y-91236800D01*
X172205400Y-103225600D02*
X172999400Y-103225600D01*
X170459400Y-117214400D02*
X170459400Y-118008400D01*
X156616400Y-75812400D02*
X156775400Y-75812400D01*
X156775400Y-75812400D02*
X158013400Y-74574400D01*
X158013400Y-74574400D02*
X162610800Y-74574400D01*
X155378400Y-79908400D02*
X155378400Y-77050400D01*
X155378400Y-77050400D02*
X156616400Y-75812400D01*
X162610800Y-74574400D02*
X167309800Y-74574400D01*
X169265600Y-76530200D02*
X169265600Y-78994000D01*
X167309800Y-74574400D02*
X169265600Y-76530200D01*
D32*
X161068000Y-109143800D02*
X152730200Y-109143800D01*
X151053800Y-94805500D02*
X154457400Y-91401900D01*
X151053800Y-107467400D02*
X151053800Y-94805500D01*
X152730200Y-109143800D02*
X151053800Y-107467400D01*
D33*
X162861000Y-112257800D02*
X161330600Y-112257800D01*
X161093400Y-112020600D02*
X161068000Y-109143800D01*
X161330600Y-112257800D02*
X161093400Y-112020600D01*
D34*
X163347400Y-75057000D02*
X163347400Y-76479400D01*
X162864800Y-74574400D02*
X163347400Y-75057000D01*
X162610800Y-74574400D02*
X162864800Y-74574400D01*
X157327600Y-76523600D02*
X156616400Y-75812400D01*
X165227000Y-87782400D02*
X160020000Y-87782400D01*
X156667200Y-87985600D02*
X155327600Y-87985600D01*
X156718000Y-87934800D02*
X156667200Y-87985600D01*
X160020000Y-87782400D02*
X159842200Y-87960200D01*
X165227000Y-87782400D02*
X169181800Y-91737200D01*
D33*
X169181800Y-91737200D02*
X169181800Y-93101200D01*
X169682200Y-91236800D02*
X169324000Y-91595000D01*
X171329600Y-91236800D02*
X169682200Y-91236800D01*
X169324000Y-91595000D02*
X169324000Y-93243400D01*
X169181800Y-93101200D02*
X169324000Y-93243400D01*
D32*
X154457400Y-91401900D02*
X154457400Y-88874600D01*
X154457400Y-88874600D02*
X155327600Y-88004400D01*
D33*
X155327600Y-88004400D02*
X155327600Y-87985600D01*
D32*
X155327600Y-87985600D02*
X155327600Y-85953600D01*
D34*
X155327600Y-85953600D02*
X155327600Y-85579200D01*
X155327600Y-85579200D02*
X155378400Y-86138000D01*
D33*
X155378400Y-86138000D02*
X155378400Y-83058000D01*
D34*
X155429200Y-79857600D02*
X155378400Y-79908400D01*
X155327600Y-85953600D02*
X155092400Y-85953600D01*
D33*
X156616400Y-75812400D02*
X156616400Y-75996800D01*
D34*
X156711400Y-75717400D02*
X156616400Y-75812400D01*
X156616400Y-75812400D02*
X156616400Y-76606400D01*
X156616400Y-76606400D02*
X156522400Y-76512400D01*
X154813000Y-83623400D02*
X155378400Y-83058000D01*
D33*
X155378400Y-83058000D02*
X155378400Y-79908400D01*
X155416000Y-83020400D02*
X155378400Y-83058000D01*
D34*
X155378400Y-83058000D02*
X155378400Y-82683600D01*
X171246800Y-91186000D02*
X171297600Y-91236800D01*
X171297600Y-91236800D02*
X171329600Y-91236800D01*
X155327600Y-83007200D02*
X155378400Y-83058000D01*
X171075600Y-90982800D02*
X171329600Y-91236800D01*
X154457400Y-91401900D02*
X154457400Y-91433900D01*
X155378400Y-79908400D02*
X155854400Y-79908400D01*
X155378400Y-79908400D02*
X155346400Y-79908400D01*
D32*
X133985000Y-112165400D02*
X133985000Y-108302000D01*
D34*
X133985000Y-111937800D02*
X133985000Y-112165400D01*
D33*
X133831600Y-108455400D02*
X133985000Y-108302000D01*
D34*
X134020600Y-108337600D02*
X133985000Y-108302000D01*
D33*
X133934200Y-87204800D02*
X133934200Y-84372200D01*
D34*
X133934200Y-84372200D02*
X134410200Y-84372200D01*
D33*
X167265600Y-86156800D02*
X167265600Y-87509600D01*
X168402000Y-88646000D02*
X171380400Y-88646000D01*
X167265600Y-87509600D02*
X168402000Y-88646000D01*
D34*
X167265600Y-85464400D02*
X167265600Y-86156800D01*
D33*
X160680400Y-119100600D02*
X159033618Y-113628218D01*
X158648400Y-101193600D02*
X160102800Y-102648000D01*
X159033618Y-113628218D02*
X158927800Y-111709200D01*
X160102800Y-102648000D02*
X160102800Y-103225600D01*
D32*
X160680400Y-119100600D02*
X136600200Y-119100600D01*
X136600200Y-119100600D02*
X133985000Y-116485400D01*
D34*
X160478200Y-119302800D02*
X160680400Y-119100600D01*
X160578800Y-103701600D02*
X160102800Y-103225600D01*
X135922000Y-80372200D02*
X133934200Y-80372200D01*
X136093200Y-80543400D02*
X135922000Y-80372200D01*
X154965400Y-101514400D02*
X154965400Y-100863400D01*
D32*
X154965400Y-100863400D02*
X153822400Y-99720400D01*
D34*
X154965400Y-101514400D02*
X154965400Y-101371400D01*
D33*
X154965400Y-101514400D02*
X154965400Y-101244400D01*
D34*
X133204200Y-81102200D02*
X133934200Y-80372200D01*
D35*
X144519400Y-62477400D02*
X144551400Y-62509400D01*
D33*
X159664400Y-99060000D02*
X164039800Y-99060000D01*
X164039800Y-99060000D02*
X168205400Y-103225600D01*
D34*
X168192200Y-104971600D02*
X168192200Y-105613200D01*
D33*
X159664400Y-99060000D02*
X159664400Y-96806000D01*
X159664400Y-96806000D02*
X161957000Y-94513400D01*
X161957000Y-94513400D02*
X163924000Y-94513400D01*
D34*
X159429200Y-96570800D02*
X159461200Y-96570800D01*
X159664400Y-99060000D02*
X159791400Y-99060000D01*
D33*
X168192200Y-105613200D02*
X168205400Y-103225600D01*
D34*
X168192200Y-105613200D02*
X167970200Y-105613200D01*
X163347400Y-71399400D02*
X163347400Y-70104000D01*
X173101000Y-69316600D02*
X173101000Y-67335400D01*
X172364400Y-70053200D02*
X173101000Y-69316600D01*
X163398200Y-70053200D02*
X172364400Y-70053200D01*
X163347400Y-70104000D02*
X163398200Y-70053200D01*
X163347400Y-71399400D02*
X163347400Y-69443600D01*
X163347400Y-69443600D02*
X161823400Y-67919600D01*
X161823400Y-67919600D02*
X161823400Y-67335400D01*
X163347400Y-71399400D02*
X163423600Y-71983600D01*
X163322000Y-70789800D02*
X163372800Y-70764400D01*
X162077400Y-71399400D02*
X162077400Y-70002400D01*
X162077400Y-70002400D02*
X159823400Y-67748400D01*
X159823400Y-67748400D02*
X159823400Y-67335400D01*
X159823400Y-67335400D02*
X159823400Y-67773800D01*
X162153600Y-71678800D02*
X162077400Y-71399400D01*
X157823400Y-67335400D02*
X157861000Y-67310000D01*
X157861000Y-67310000D02*
X158623000Y-66548000D01*
X158623000Y-66548000D02*
X158623000Y-65913000D01*
X158623000Y-65913000D02*
X168275000Y-65913000D01*
X168275000Y-65913000D02*
X169164000Y-66802000D01*
X169164000Y-66802000D02*
X169164000Y-67310000D01*
X169164000Y-67310000D02*
X169101000Y-67335400D01*
D33*
X160807400Y-71399400D02*
X160807400Y-70332600D01*
X157823400Y-68390000D02*
X157823400Y-67335400D01*
D34*
X158292800Y-68859400D02*
X157823400Y-68390000D01*
X159334200Y-68859400D02*
X158292800Y-68859400D01*
X160807400Y-70332600D02*
X159334200Y-68859400D01*
X160807400Y-71399400D02*
X160883600Y-71614800D01*
X160807400Y-71399400D02*
X160883600Y-71488800D01*
X155823400Y-67335400D02*
X155823400Y-67939400D01*
X155823400Y-67939400D02*
X159283400Y-71399400D01*
X159283400Y-71399400D02*
X159537400Y-71399400D01*
X167132000Y-67310000D02*
X167101000Y-67335400D01*
D33*
X159537400Y-71399400D02*
X159537400Y-71323200D01*
D34*
X155823400Y-67335400D02*
X155823400Y-66629800D01*
X159639000Y-71780400D02*
X159537400Y-70942200D01*
X159537400Y-70942200D02*
X159537400Y-71399400D01*
X164102800Y-103225600D02*
X164166800Y-105638600D01*
X164166800Y-105638600D02*
X164192200Y-105613200D01*
X164102800Y-103225600D02*
X165023800Y-103225600D01*
X135788400Y-98120200D02*
X133985000Y-99923600D01*
X133985000Y-99923600D02*
X133985000Y-101502000D01*
D33*
X172357800Y-113214400D02*
X170459400Y-113214400D01*
X172389800Y-113182400D02*
X172357800Y-113214400D01*
X162861000Y-115464600D02*
X162861000Y-114157800D01*
X163347400Y-115951000D02*
X162861000Y-115464600D01*
X133985000Y-101502000D02*
X133985000Y-91255600D01*
X133985000Y-91255600D02*
X133934200Y-91204800D01*
D32*
X133934200Y-91204800D02*
X133934200Y-91541600D01*
D34*
X170656000Y-113214400D02*
X170459400Y-113214400D01*
X165561000Y-113207800D02*
X170452800Y-113207800D01*
D33*
X170452800Y-113207800D02*
X170459400Y-113214400D01*
D36*
X170351200Y-113106200D02*
X170459400Y-113214400D01*
D34*
X170466400Y-113207400D02*
X170459400Y-113214400D01*
D33*
X170466400Y-113207400D02*
X170459400Y-113214400D01*
X144881600Y-123139200D02*
X144551400Y-123469400D01*
D34*
X144881600Y-123139200D02*
X144551400Y-123469400D01*
D33*
X132588000Y-100105000D02*
X133985000Y-101502000D01*
X133985000Y-101346000D02*
X133985000Y-101502000D01*
X133934200Y-91204800D02*
X133934200Y-91236800D01*
D34*
X165561000Y-112257800D02*
X165561000Y-111324400D01*
X165830000Y-111055400D02*
X168021000Y-111055400D01*
X165561000Y-111324400D02*
X165830000Y-111055400D01*
X165561000Y-114157800D02*
X165561000Y-115040400D01*
X165576000Y-115055400D02*
X168021000Y-115055400D01*
X165561000Y-115040400D02*
X165576000Y-115055400D01*
D33*
X169265600Y-81534000D02*
X169265600Y-83769200D01*
X169265600Y-83769200D02*
X171246800Y-86156800D01*
D34*
X171246800Y-86156800D02*
X171265600Y-86156800D01*
D33*
X169324000Y-95783400D02*
X171780200Y-95783400D01*
X173329600Y-86156800D02*
X171265600Y-86156800D01*
X175361600Y-86969600D02*
X173329600Y-86156800D01*
X171780200Y-95783400D02*
X172770800Y-94792800D01*
X171519600Y-85902800D02*
X171265600Y-86156800D01*
D34*
X161975800Y-80416400D02*
X161975800Y-80391000D01*
X160807400Y-79222600D02*
X160807400Y-76479400D01*
X161975800Y-80391000D02*
X160807400Y-79222600D01*
X161467800Y-79908400D02*
X159378400Y-79908400D01*
X161975800Y-80416400D02*
X161467800Y-79908400D01*
X160782000Y-75869800D02*
X160782000Y-77139800D01*
D33*
X169324000Y-94513400D02*
X171526200Y-94513400D01*
X174091600Y-84683600D02*
X171805600Y-81940400D01*
X171526200Y-94513400D02*
X172974000Y-93065600D01*
D34*
X171805600Y-81940400D02*
X171805600Y-81534000D01*
X171805600Y-81635600D02*
X171805600Y-81534000D01*
X159378400Y-79908400D02*
X159461200Y-79908400D01*
X159378400Y-79908400D02*
X159378400Y-80028800D01*
X159378400Y-79908400D02*
X159378400Y-80448400D01*
X159505400Y-80035400D02*
X159378400Y-79908400D01*
X159378400Y-79908400D02*
X159378400Y-80194400D01*
X163296600Y-78079600D02*
X165862000Y-78079600D01*
X171805600Y-77343000D02*
X171805600Y-78994000D01*
X170967400Y-76504800D02*
X171805600Y-77343000D01*
X165862000Y-78079600D02*
X167360600Y-76581000D01*
X159378400Y-83058000D02*
X161315400Y-83058000D01*
X163296600Y-81076800D02*
X163296600Y-78079600D01*
X161315400Y-83058000D02*
X163296600Y-81076800D01*
X162077400Y-76479400D02*
X162077400Y-77698600D01*
X162077400Y-77698600D02*
X162458400Y-78079600D01*
X162458400Y-78079600D02*
X163296600Y-78079600D01*
X162077400Y-76479400D02*
X162077400Y-75768200D01*
X169324000Y-97053400D02*
X166395400Y-97053400D01*
X166395400Y-97053400D02*
X165912800Y-96570800D01*
X162052000Y-77139800D02*
X162052000Y-76174600D01*
X159378400Y-83058000D02*
X162661600Y-83058000D01*
X159378400Y-83534000D02*
X159378400Y-83058000D01*
X160070800Y-83058000D02*
X159378400Y-83058000D01*
X159327600Y-85953600D02*
X163550600Y-85953600D01*
X165684200Y-83820000D02*
X167589200Y-83820000D01*
X163550600Y-85953600D02*
X165684200Y-83820000D01*
X157105600Y-91389200D02*
X157105600Y-89909400D01*
X163924000Y-91407000D02*
X163924000Y-93243400D01*
X162077400Y-89560400D02*
X163924000Y-91407000D01*
X157454600Y-89560400D02*
X162077400Y-89560400D01*
X157105600Y-89909400D02*
X157454600Y-89560400D01*
D33*
X174345600Y-83108800D02*
X174345600Y-81534000D01*
X174955200Y-83718400D02*
X174345600Y-83108800D01*
X157105600Y-91389200D02*
X157105600Y-89071200D01*
D34*
X159327600Y-86849200D02*
X159327600Y-85953600D01*
D33*
X157105600Y-89071200D02*
X159327600Y-86849200D01*
D34*
X163924000Y-93243400D02*
X163924000Y-93235800D01*
X157105600Y-91389200D02*
X157105600Y-90976200D01*
D33*
X154457400Y-93941900D02*
X157010100Y-91293700D01*
D34*
X157010100Y-91293700D02*
X157105600Y-91389200D01*
X157105600Y-91389200D02*
X156946600Y-91389200D01*
D33*
X156851600Y-91643200D02*
X157105600Y-91389200D01*
D32*
X154015400Y-103514400D02*
X154015400Y-105901200D01*
D33*
X154015400Y-105901200D02*
X154210000Y-106095800D01*
D34*
X154127200Y-104597200D02*
X154015400Y-104597200D01*
D33*
X154015400Y-103514400D02*
X154015400Y-104597200D01*
D34*
X162179000Y-95783400D02*
X161163000Y-96520000D01*
X154025600Y-104546400D02*
X154015400Y-104556600D01*
X154015400Y-104556600D02*
X154086600Y-104556600D01*
X154086600Y-104556600D02*
X154127200Y-104597200D01*
X153965400Y-103464400D02*
X153761400Y-103464400D01*
D37*
G36*
X176285040Y-70583401D02*
X175756707Y-70054145D01*
X174776827Y-69647264D01*
X173836066Y-69646443D01*
X173849343Y-69626573D01*
X173911000Y-69316600D01*
X173911000Y-68793326D01*
X173936317Y-68788562D01*
X174152441Y-68649490D01*
X174297431Y-68437290D01*
X174348440Y-68185400D01*
X174348440Y-66485400D01*
X174304162Y-66250083D01*
X174165090Y-66033959D01*
X173952890Y-65888969D01*
X173701000Y-65837960D01*
X172501000Y-65837960D01*
X172265683Y-65882238D01*
X172049559Y-66021310D01*
X171950099Y-66166875D01*
X171573614Y-65915316D01*
X171101000Y-65821307D01*
X170628386Y-65915316D01*
X170227723Y-66183030D01*
X170101000Y-66372685D01*
X169974277Y-66183030D01*
X169573614Y-65915316D01*
X169385388Y-65877875D01*
X168847756Y-65340244D01*
X168791201Y-65302455D01*
X168584974Y-65164658D01*
X168275000Y-65103000D01*
X158623000Y-65103000D01*
X158313026Y-65164658D01*
X158050244Y-65340244D01*
X157874658Y-65603026D01*
X157830941Y-65822807D01*
X157823400Y-65821307D01*
X157350786Y-65915316D01*
X156950123Y-66183030D01*
X156823400Y-66372685D01*
X156696677Y-66183030D01*
X156296014Y-65915316D01*
X156136585Y-65883604D01*
X156133374Y-65881458D01*
X155823400Y-65819800D01*
X155513426Y-65881458D01*
X155510215Y-65883604D01*
X155350786Y-65915316D01*
X154950123Y-66183030D01*
X154682409Y-66583693D01*
X154588400Y-67056307D01*
X154588400Y-67614493D01*
X154682409Y-68087107D01*
X154950123Y-68487770D01*
X155350786Y-68755484D01*
X155529526Y-68791038D01*
X156915888Y-70177400D01*
X156902150Y-70177400D01*
X156743400Y-70336150D01*
X156743400Y-71685400D01*
X157892650Y-71685400D01*
X158051400Y-71526650D01*
X158051400Y-71312913D01*
X158539960Y-71801473D01*
X158539960Y-72149400D01*
X158584238Y-72384717D01*
X158723310Y-72600841D01*
X158935510Y-72745831D01*
X159187400Y-72796840D01*
X159887400Y-72796840D01*
X160122717Y-72752562D01*
X160170428Y-72721861D01*
X160205510Y-72745831D01*
X160457400Y-72796840D01*
X161157400Y-72796840D01*
X161392717Y-72752562D01*
X161440428Y-72721861D01*
X161475510Y-72745831D01*
X161727400Y-72796840D01*
X162427400Y-72796840D01*
X162662717Y-72752562D01*
X162710428Y-72721861D01*
X162745510Y-72745831D01*
X162997400Y-72796840D01*
X163697400Y-72796840D01*
X163932717Y-72752562D01*
X164148841Y-72613490D01*
X164293831Y-72401290D01*
X164344840Y-72149400D01*
X164344840Y-70863200D01*
X171958556Y-70863200D01*
X171577464Y-71780973D01*
X171576538Y-72841972D01*
X171981709Y-73822561D01*
X172731293Y-74573455D01*
X173711173Y-74980336D01*
X174772172Y-74981262D01*
X175752761Y-74576091D01*
X176287709Y-74042076D01*
X176297836Y-87161000D01*
X176294527Y-87161000D01*
X176296438Y-87156399D01*
X176296762Y-86784433D01*
X176154717Y-86440657D01*
X175891927Y-86177408D01*
X175548399Y-86034762D01*
X175407133Y-86034639D01*
X174321369Y-85600333D01*
X174620543Y-85476717D01*
X174883792Y-85213927D01*
X175026438Y-84870399D01*
X175026627Y-84653463D01*
X175140367Y-84653562D01*
X175484143Y-84511517D01*
X175747392Y-84248727D01*
X175890038Y-83905199D01*
X175890362Y-83533233D01*
X175748317Y-83189457D01*
X175485527Y-82926208D01*
X175364213Y-82875834D01*
X175230600Y-82742220D01*
X175230600Y-82723432D01*
X175395654Y-82613147D01*
X175717561Y-82131378D01*
X175830600Y-81563093D01*
X175830600Y-81504907D01*
X175717561Y-80936622D01*
X175395654Y-80454853D01*
X175112499Y-80265655D01*
X175112524Y-80265645D01*
X175540783Y-79875358D01*
X175787086Y-79350892D01*
X175666419Y-79121000D01*
X174472600Y-79121000D01*
X174472600Y-79141000D01*
X174218600Y-79141000D01*
X174218600Y-79121000D01*
X174198600Y-79121000D01*
X174198600Y-78867000D01*
X174218600Y-78867000D01*
X174218600Y-77673845D01*
X174472600Y-77673845D01*
X174472600Y-78867000D01*
X175666419Y-78867000D01*
X175787086Y-78637108D01*
X175540783Y-78112642D01*
X175112524Y-77722355D01*
X174702490Y-77552524D01*
X174472600Y-77673845D01*
X174218600Y-77673845D01*
X173988710Y-77552524D01*
X173578676Y-77722355D01*
X173150417Y-78112642D01*
X173083302Y-78255553D01*
X172855654Y-77914853D01*
X172615600Y-77754454D01*
X172615600Y-77343000D01*
X172569242Y-77109943D01*
X172553943Y-77033027D01*
X172378357Y-76770244D01*
X171884830Y-76276717D01*
X171760517Y-75975857D01*
X171497727Y-75712608D01*
X171154199Y-75569962D01*
X170782233Y-75569638D01*
X170438457Y-75711683D01*
X170175208Y-75974473D01*
X170033123Y-76316651D01*
X170013943Y-76220227D01*
X169838357Y-75957444D01*
X167882556Y-74001644D01*
X167619774Y-73826058D01*
X167309800Y-73764400D01*
X158013400Y-73764400D01*
X157703426Y-73826058D01*
X157572035Y-73913851D01*
X157440643Y-74001644D01*
X157277327Y-74164960D01*
X155816400Y-74164960D01*
X155581083Y-74209238D01*
X155364959Y-74348310D01*
X155219969Y-74560510D01*
X155168960Y-74812400D01*
X155168960Y-76114328D01*
X154805644Y-76477644D01*
X154630058Y-76740426D01*
X154568400Y-77050400D01*
X154568400Y-78410960D01*
X154378400Y-78410960D01*
X154143083Y-78455238D01*
X153926959Y-78594310D01*
X153781969Y-78806510D01*
X153730960Y-79058400D01*
X153730960Y-80758400D01*
X153775238Y-80993717D01*
X153914310Y-81209841D01*
X154126510Y-81354831D01*
X154378400Y-81405840D01*
X154493400Y-81405840D01*
X154493400Y-81560560D01*
X154378400Y-81560560D01*
X154143083Y-81604838D01*
X153926959Y-81743910D01*
X153781969Y-81956110D01*
X153730960Y-82208000D01*
X153730960Y-83908000D01*
X153775238Y-84143317D01*
X153914310Y-84359441D01*
X154114537Y-84496251D01*
X154092283Y-84500438D01*
X153876159Y-84639510D01*
X153731169Y-84851710D01*
X153680160Y-85103600D01*
X153680160Y-86803600D01*
X153724438Y-87038917D01*
X153863510Y-87255041D01*
X154075710Y-87400031D01*
X154192600Y-87423702D01*
X154192600Y-87534268D01*
X153654834Y-88072034D01*
X153408797Y-88440254D01*
X153322400Y-88874600D01*
X153322400Y-90654093D01*
X153125225Y-91128943D01*
X150251234Y-94002934D01*
X150005197Y-94371154D01*
X149918800Y-94805500D01*
X149918800Y-107467400D01*
X150005197Y-107901746D01*
X150148842Y-108116726D01*
X150251234Y-108269966D01*
X151927634Y-109946366D01*
X152295855Y-110192404D01*
X152730200Y-110278800D01*
X159528982Y-110278800D01*
X159603910Y-110395241D01*
X159816110Y-110540231D01*
X160068000Y-110591240D01*
X160195745Y-110591240D01*
X160208434Y-112028413D01*
X160242825Y-112193668D01*
X160275767Y-112359274D01*
X160277978Y-112362583D01*
X160278789Y-112366480D01*
X160373839Y-112506051D01*
X160467610Y-112646390D01*
X160704808Y-112883587D01*
X160704810Y-112883590D01*
X160949207Y-113046890D01*
X160991925Y-113075433D01*
X161330600Y-113142800D01*
X161775791Y-113142800D01*
X161829110Y-113179231D01*
X161966120Y-113206976D01*
X161845683Y-113229638D01*
X161682257Y-113334800D01*
X161604750Y-113334800D01*
X161446000Y-113493550D01*
X161446000Y-113659110D01*
X161461268Y-113695971D01*
X161433560Y-113832800D01*
X161433560Y-114482800D01*
X161477838Y-114718117D01*
X161616910Y-114934241D01*
X161829110Y-115079231D01*
X161976000Y-115108977D01*
X161976000Y-115464595D01*
X161975999Y-115464600D01*
X162030413Y-115738150D01*
X162043367Y-115803275D01*
X162098241Y-115885400D01*
X162235210Y-116090390D01*
X162504655Y-116359835D01*
X162554283Y-116479943D01*
X162817073Y-116743192D01*
X163160601Y-116885838D01*
X163532567Y-116886162D01*
X163876343Y-116744117D01*
X164139592Y-116481327D01*
X164282238Y-116137799D01*
X164282562Y-115765833D01*
X164140517Y-115422057D01*
X163877727Y-115158808D01*
X163756562Y-115108496D01*
X163876317Y-115085962D01*
X164092441Y-114946890D01*
X164212233Y-114771568D01*
X164316910Y-114934241D01*
X164529110Y-115079231D01*
X164768361Y-115127681D01*
X164812658Y-115350374D01*
X164888982Y-115464600D01*
X164988244Y-115613156D01*
X165003243Y-115628156D01*
X165085075Y-115682834D01*
X165266026Y-115803742D01*
X165576000Y-115865400D01*
X166573560Y-115865400D01*
X166573560Y-116055400D01*
X166617838Y-116290717D01*
X166756910Y-116506841D01*
X166969110Y-116651831D01*
X167221000Y-116702840D01*
X168821000Y-116702840D01*
X169024400Y-116664568D01*
X169024400Y-116928650D01*
X169183150Y-117087400D01*
X170332400Y-117087400D01*
X170332400Y-115738150D01*
X170586400Y-115738150D01*
X170586400Y-117087400D01*
X171735650Y-117087400D01*
X171894400Y-116928650D01*
X171894400Y-116088091D01*
X171797727Y-115854702D01*
X171619099Y-115676073D01*
X171385710Y-115579400D01*
X170745150Y-115579400D01*
X170586400Y-115738150D01*
X170332400Y-115738150D01*
X170173650Y-115579400D01*
X169533090Y-115579400D01*
X169468440Y-115606179D01*
X169468440Y-114823170D01*
X169659400Y-114861840D01*
X171259400Y-114861840D01*
X171494717Y-114817562D01*
X171710841Y-114678490D01*
X171855831Y-114466290D01*
X171906840Y-114214400D01*
X171906840Y-114099400D01*
X172160043Y-114099400D01*
X172203001Y-114117238D01*
X172574967Y-114117562D01*
X172918743Y-113975517D01*
X173181992Y-113712727D01*
X173324638Y-113369199D01*
X173324962Y-112997233D01*
X173182917Y-112653457D01*
X172920127Y-112390208D01*
X172576599Y-112247562D01*
X172204633Y-112247238D01*
X172005785Y-112329400D01*
X171906840Y-112329400D01*
X171906840Y-112214400D01*
X171862562Y-111979083D01*
X171723490Y-111762959D01*
X171511290Y-111617969D01*
X171259400Y-111566960D01*
X169659400Y-111566960D01*
X169468440Y-111602892D01*
X169468440Y-110055400D01*
X169424162Y-109820083D01*
X169285090Y-109603959D01*
X169072890Y-109458969D01*
X168821000Y-109407960D01*
X167221000Y-109407960D01*
X166985683Y-109452238D01*
X166769559Y-109591310D01*
X166703000Y-109688722D01*
X166703000Y-109429550D01*
X166544250Y-109270800D01*
X165195000Y-109270800D01*
X165195000Y-110420050D01*
X165257453Y-110482503D01*
X165257243Y-110482644D01*
X164988244Y-110751644D01*
X164812658Y-111014426D01*
X164757901Y-111289706D01*
X164545683Y-111329638D01*
X164329559Y-111468710D01*
X164209767Y-111644032D01*
X164105090Y-111481359D01*
X163892890Y-111336369D01*
X163641000Y-111285360D01*
X162081000Y-111285360D01*
X161972124Y-111305846D01*
X161965815Y-110591240D01*
X162068000Y-110591240D01*
X162303317Y-110546962D01*
X162519441Y-110407890D01*
X162664431Y-110195690D01*
X162715440Y-109943800D01*
X162715440Y-109429550D01*
X163433000Y-109429550D01*
X163433000Y-110070110D01*
X163529673Y-110303499D01*
X163708302Y-110482127D01*
X163941691Y-110578800D01*
X164782250Y-110578800D01*
X164941000Y-110420050D01*
X164941000Y-109270800D01*
X163591750Y-109270800D01*
X163433000Y-109429550D01*
X162715440Y-109429550D01*
X162715440Y-108343800D01*
X162691674Y-108217490D01*
X163433000Y-108217490D01*
X163433000Y-108858050D01*
X163591750Y-109016800D01*
X164941000Y-109016800D01*
X164941000Y-107867550D01*
X165195000Y-107867550D01*
X165195000Y-109016800D01*
X166544250Y-109016800D01*
X166703000Y-108858050D01*
X166703000Y-108217490D01*
X166606327Y-107984101D01*
X166427698Y-107805473D01*
X166194309Y-107708800D01*
X165353750Y-107708800D01*
X165195000Y-107867550D01*
X164941000Y-107867550D01*
X164782250Y-107708800D01*
X163941691Y-107708800D01*
X163708302Y-107805473D01*
X163529673Y-107984101D01*
X163433000Y-108217490D01*
X162691674Y-108217490D01*
X162671162Y-108108483D01*
X162532090Y-107892359D01*
X162319890Y-107747369D01*
X162068000Y-107696360D01*
X160068000Y-107696360D01*
X159832683Y-107740638D01*
X159616559Y-107879710D01*
X159528356Y-108008800D01*
X153200332Y-108008800D01*
X152188800Y-106997268D01*
X152188800Y-105245800D01*
X152562560Y-105245800D01*
X152562560Y-106945800D01*
X152606838Y-107181117D01*
X152745910Y-107397241D01*
X152958110Y-107542231D01*
X153210000Y-107593240D01*
X155210000Y-107593240D01*
X155445317Y-107548962D01*
X155661441Y-107409890D01*
X155806431Y-107197690D01*
X155857440Y-106945800D01*
X155857440Y-106381550D01*
X156575000Y-106381550D01*
X156575000Y-107072110D01*
X156671673Y-107305499D01*
X156850302Y-107484127D01*
X157083691Y-107580800D01*
X157924250Y-107580800D01*
X158083000Y-107422050D01*
X158083000Y-106222800D01*
X158337000Y-106222800D01*
X158337000Y-107422050D01*
X158495750Y-107580800D01*
X159336309Y-107580800D01*
X159569698Y-107484127D01*
X159748327Y-107305499D01*
X159845000Y-107072110D01*
X159845000Y-106381550D01*
X159686250Y-106222800D01*
X158337000Y-106222800D01*
X158083000Y-106222800D01*
X156733750Y-106222800D01*
X156575000Y-106381550D01*
X155857440Y-106381550D01*
X155857440Y-105245800D01*
X155833674Y-105119490D01*
X156575000Y-105119490D01*
X156575000Y-105810050D01*
X156733750Y-105968800D01*
X158083000Y-105968800D01*
X158083000Y-104769550D01*
X157924250Y-104610800D01*
X157083691Y-104610800D01*
X156850302Y-104707473D01*
X156671673Y-104886101D01*
X156575000Y-105119490D01*
X155833674Y-105119490D01*
X155813162Y-105010483D01*
X155674090Y-104794359D01*
X155461890Y-104649369D01*
X155210000Y-104598360D01*
X155150400Y-104598360D01*
X155150400Y-104497426D01*
X155155701Y-104502727D01*
X155389090Y-104599400D01*
X155629650Y-104599400D01*
X155788400Y-104440650D01*
X155788400Y-103641400D01*
X156042400Y-103641400D01*
X156042400Y-104440650D01*
X156201150Y-104599400D01*
X156441710Y-104599400D01*
X156675099Y-104502727D01*
X156853727Y-104324098D01*
X156950400Y-104090709D01*
X156950400Y-103800150D01*
X156791650Y-103641400D01*
X156042400Y-103641400D01*
X155788400Y-103641400D01*
X155768400Y-103641400D01*
X155768400Y-103387400D01*
X155788400Y-103387400D01*
X155788400Y-102588150D01*
X156042400Y-102588150D01*
X156042400Y-103387400D01*
X156791650Y-103387400D01*
X156950400Y-103228650D01*
X156950400Y-102938091D01*
X156853727Y-102704702D01*
X156675099Y-102526073D01*
X156441710Y-102429400D01*
X156201150Y-102429400D01*
X156042400Y-102588150D01*
X155788400Y-102588150D01*
X155702388Y-102502138D01*
X155816841Y-102428490D01*
X155961831Y-102216290D01*
X156012840Y-101964400D01*
X156012840Y-101378767D01*
X157713238Y-101378767D01*
X157855283Y-101722543D01*
X158118073Y-101985792D01*
X158239386Y-102036166D01*
X158476151Y-102272931D01*
X158455360Y-102375600D01*
X158455360Y-104075600D01*
X158499638Y-104310917D01*
X158638710Y-104527041D01*
X158761295Y-104610800D01*
X158495750Y-104610800D01*
X158337000Y-104769550D01*
X158337000Y-105968800D01*
X159686250Y-105968800D01*
X159845000Y-105810050D01*
X159845000Y-105119490D01*
X159748327Y-104886101D01*
X159585265Y-104723040D01*
X161102800Y-104723040D01*
X161338117Y-104678762D01*
X161554241Y-104539690D01*
X161699231Y-104327490D01*
X161750240Y-104075600D01*
X161750240Y-102375600D01*
X162455360Y-102375600D01*
X162455360Y-104075600D01*
X162499638Y-104310917D01*
X162612670Y-104486574D01*
X162595769Y-104511310D01*
X162544760Y-104763200D01*
X162544760Y-106463200D01*
X162589038Y-106698517D01*
X162728110Y-106914641D01*
X162940310Y-107059631D01*
X163192200Y-107110640D01*
X165192200Y-107110640D01*
X165427517Y-107066362D01*
X165643641Y-106927290D01*
X165788631Y-106715090D01*
X165839640Y-106463200D01*
X165839640Y-104763200D01*
X165795362Y-104527883D01*
X165682330Y-104352226D01*
X165699231Y-104327490D01*
X165750240Y-104075600D01*
X165750240Y-103568353D01*
X165772142Y-103535574D01*
X165833800Y-103225600D01*
X165772142Y-102915626D01*
X165750240Y-102882847D01*
X165750240Y-102375600D01*
X165705962Y-102140283D01*
X165566890Y-101924159D01*
X165354690Y-101779169D01*
X165102800Y-101728160D01*
X163102800Y-101728160D01*
X162867483Y-101772438D01*
X162651359Y-101911510D01*
X162506369Y-102123710D01*
X162455360Y-102375600D01*
X161750240Y-102375600D01*
X161705962Y-102140283D01*
X161566890Y-101924159D01*
X161354690Y-101779169D01*
X161102800Y-101728160D01*
X160434539Y-101728160D01*
X159491144Y-100784764D01*
X159441517Y-100664657D01*
X159178727Y-100401408D01*
X158835199Y-100258762D01*
X158463233Y-100258438D01*
X158119457Y-100400483D01*
X157856208Y-100663273D01*
X157713562Y-101006801D01*
X157713238Y-101378767D01*
X156012840Y-101378767D01*
X156012840Y-101299486D01*
X156014003Y-101297745D01*
X156100400Y-100863400D01*
X156014003Y-100429055D01*
X155767966Y-100060834D01*
X154624966Y-98917834D01*
X154256745Y-98671797D01*
X153822400Y-98585400D01*
X153388055Y-98671797D01*
X153019834Y-98917834D01*
X152773797Y-99286055D01*
X152687400Y-99720400D01*
X152773797Y-100154745D01*
X153019834Y-100522966D01*
X153917960Y-101421092D01*
X153917960Y-101964400D01*
X153962238Y-102199717D01*
X154087029Y-102393648D01*
X154015400Y-102379400D01*
X153826574Y-102416960D01*
X153615400Y-102416960D01*
X153380083Y-102461238D01*
X153163959Y-102600310D01*
X153018969Y-102812510D01*
X152967960Y-103064400D01*
X152967960Y-103078313D01*
X152966797Y-103080054D01*
X152880400Y-103514400D01*
X152880400Y-104703307D01*
X152758559Y-104781710D01*
X152613569Y-104993910D01*
X152562560Y-105245800D01*
X152188800Y-105245800D01*
X152188800Y-96856550D01*
X153794200Y-96856550D01*
X153794200Y-97497110D01*
X153890873Y-97730499D01*
X154069502Y-97909127D01*
X154302891Y-98005800D01*
X155143450Y-98005800D01*
X155302200Y-97847050D01*
X155302200Y-96697800D01*
X155556200Y-96697800D01*
X155556200Y-97847050D01*
X155714950Y-98005800D01*
X156555509Y-98005800D01*
X156788898Y-97909127D01*
X156967527Y-97730499D01*
X157064200Y-97497110D01*
X157064200Y-96856550D01*
X156905450Y-96697800D01*
X155556200Y-96697800D01*
X155302200Y-96697800D01*
X153952950Y-96697800D01*
X153794200Y-96856550D01*
X152188800Y-96856550D01*
X152188800Y-95275632D01*
X153184447Y-94279985D01*
X153224021Y-94478936D01*
X153513412Y-94912042D01*
X153946518Y-95201433D01*
X154080229Y-95228030D01*
X154069502Y-95232473D01*
X153890873Y-95411101D01*
X153794200Y-95644490D01*
X153794200Y-96285050D01*
X153952950Y-96443800D01*
X155302200Y-96443800D01*
X155302200Y-95294550D01*
X155556200Y-95294550D01*
X155556200Y-96443800D01*
X156905450Y-96443800D01*
X157064200Y-96285050D01*
X157064200Y-95644490D01*
X156967527Y-95411101D01*
X156788898Y-95232473D01*
X156555509Y-95135800D01*
X155714950Y-95135800D01*
X155556200Y-95294550D01*
X155302200Y-95294550D01*
X155143450Y-95135800D01*
X155066509Y-95135800D01*
X155401388Y-94912042D01*
X155690779Y-94478936D01*
X155792400Y-93968054D01*
X155792400Y-93915746D01*
X155778618Y-93846459D01*
X156703824Y-92886640D01*
X158105600Y-92886640D01*
X158340917Y-92842362D01*
X158557041Y-92703290D01*
X158702031Y-92491090D01*
X158753040Y-92239200D01*
X158753040Y-91674950D01*
X159470600Y-91674950D01*
X159470600Y-92365510D01*
X159567273Y-92598899D01*
X159745902Y-92777527D01*
X159979291Y-92874200D01*
X160819850Y-92874200D01*
X160978600Y-92715450D01*
X160978600Y-91516200D01*
X159629350Y-91516200D01*
X159470600Y-91674950D01*
X158753040Y-91674950D01*
X158753040Y-90539200D01*
X158721278Y-90370400D01*
X159488200Y-90370400D01*
X159470600Y-90412890D01*
X159470600Y-91103450D01*
X159629350Y-91262200D01*
X160978600Y-91262200D01*
X160978600Y-91242200D01*
X161232600Y-91242200D01*
X161232600Y-91262200D01*
X162581850Y-91262200D01*
X162607769Y-91236281D01*
X163114000Y-91742513D01*
X163114000Y-92295960D01*
X162740600Y-92295960D01*
X162740600Y-91674950D01*
X162581850Y-91516200D01*
X161232600Y-91516200D01*
X161232600Y-92715450D01*
X161391350Y-92874200D01*
X161425573Y-92874200D01*
X161411560Y-92943400D01*
X161411560Y-93543400D01*
X161455838Y-93778717D01*
X161467367Y-93796633D01*
X161331210Y-93887610D01*
X161331208Y-93887613D01*
X160095460Y-95123360D01*
X158429200Y-95123360D01*
X158193883Y-95167638D01*
X157977759Y-95306710D01*
X157832769Y-95518910D01*
X157781760Y-95770800D01*
X157781760Y-97370800D01*
X157826038Y-97606117D01*
X157965110Y-97822241D01*
X158177310Y-97967231D01*
X158429200Y-98018240D01*
X158779400Y-98018240D01*
X158779400Y-98238694D01*
X158642175Y-98375680D01*
X158458110Y-98818959D01*
X158457691Y-99298935D01*
X158640982Y-99742535D01*
X158980080Y-100082225D01*
X159423359Y-100266290D01*
X159903335Y-100266709D01*
X160346935Y-100083418D01*
X160485595Y-99945000D01*
X163673220Y-99945000D01*
X166557960Y-102829739D01*
X166557960Y-104075600D01*
X166602238Y-104310917D01*
X166665509Y-104409242D01*
X166595769Y-104511310D01*
X166544760Y-104763200D01*
X166544760Y-106463200D01*
X166589038Y-106698517D01*
X166728110Y-106914641D01*
X166940310Y-107059631D01*
X167192200Y-107110640D01*
X169192200Y-107110640D01*
X169427517Y-107066362D01*
X169643641Y-106927290D01*
X169788631Y-106715090D01*
X169839640Y-106463200D01*
X169839640Y-104763200D01*
X169795362Y-104527883D01*
X169732091Y-104429558D01*
X169801831Y-104327490D01*
X169852840Y-104075600D01*
X169852840Y-103511350D01*
X170570400Y-103511350D01*
X170570400Y-104201910D01*
X170667073Y-104435299D01*
X170845702Y-104613927D01*
X171079091Y-104710600D01*
X171919650Y-104710600D01*
X172078400Y-104551850D01*
X172078400Y-103352600D01*
X172332400Y-103352600D01*
X172332400Y-104551850D01*
X172491150Y-104710600D01*
X173331709Y-104710600D01*
X173565098Y-104613927D01*
X173743727Y-104435299D01*
X173840400Y-104201910D01*
X173840400Y-103511350D01*
X173681650Y-103352600D01*
X172332400Y-103352600D01*
X172078400Y-103352600D01*
X170729150Y-103352600D01*
X170570400Y-103511350D01*
X169852840Y-103511350D01*
X169852840Y-102375600D01*
X169829074Y-102249290D01*
X170570400Y-102249290D01*
X170570400Y-102939850D01*
X170729150Y-103098600D01*
X172078400Y-103098600D01*
X172078400Y-101899350D01*
X172332400Y-101899350D01*
X172332400Y-103098600D01*
X173681650Y-103098600D01*
X173840400Y-102939850D01*
X173840400Y-102249290D01*
X173743727Y-102015901D01*
X173565098Y-101837273D01*
X173331709Y-101740600D01*
X172491150Y-101740600D01*
X172332400Y-101899350D01*
X172078400Y-101899350D01*
X171919650Y-101740600D01*
X171079091Y-101740600D01*
X170845702Y-101837273D01*
X170667073Y-102015901D01*
X170570400Y-102249290D01*
X169829074Y-102249290D01*
X169808562Y-102140283D01*
X169669490Y-101924159D01*
X169457290Y-101779169D01*
X169205400Y-101728160D01*
X167959539Y-101728160D01*
X164665590Y-98434210D01*
X164659548Y-98430173D01*
X164378475Y-98242367D01*
X164322284Y-98231190D01*
X164039800Y-98174999D01*
X164039795Y-98175000D01*
X160549400Y-98175000D01*
X160549400Y-97995623D01*
X160664517Y-97973962D01*
X160880641Y-97834890D01*
X161025631Y-97622690D01*
X161059607Y-97454911D01*
X161348167Y-97455162D01*
X161424000Y-97423829D01*
X161424000Y-97479710D01*
X161520673Y-97713099D01*
X161699302Y-97891727D01*
X161932691Y-97988400D01*
X162838250Y-97988400D01*
X162997000Y-97829650D01*
X162997000Y-97180400D01*
X163251000Y-97180400D01*
X163251000Y-97829650D01*
X163409750Y-97988400D01*
X164315309Y-97988400D01*
X164548698Y-97891727D01*
X164727327Y-97713099D01*
X164824000Y-97479710D01*
X164824000Y-97339150D01*
X164665250Y-97180400D01*
X163251000Y-97180400D01*
X162997000Y-97180400D01*
X162977000Y-97180400D01*
X162977000Y-96926400D01*
X162997000Y-96926400D01*
X162997000Y-96906400D01*
X163251000Y-96906400D01*
X163251000Y-96926400D01*
X164665250Y-96926400D01*
X164824000Y-96767650D01*
X164824000Y-96627090D01*
X164734194Y-96410278D01*
X164785431Y-96335290D01*
X164836440Y-96083400D01*
X164836440Y-95483400D01*
X164792162Y-95248083D01*
X164728322Y-95148872D01*
X164785431Y-95065290D01*
X164836440Y-94813400D01*
X164836440Y-94213400D01*
X164792162Y-93978083D01*
X164728322Y-93878872D01*
X164785431Y-93795290D01*
X164836440Y-93543400D01*
X164836440Y-92943400D01*
X164792162Y-92708083D01*
X164734000Y-92617697D01*
X164734000Y-91407000D01*
X164690040Y-91186000D01*
X164672343Y-91097027D01*
X164496757Y-90834244D01*
X162650156Y-88987644D01*
X162566505Y-88931750D01*
X162387374Y-88812058D01*
X162077400Y-88750400D01*
X160374065Y-88750400D01*
X160532341Y-88592400D01*
X164891488Y-88592400D01*
X168296800Y-91997713D01*
X168296800Y-93101195D01*
X168296799Y-93101200D01*
X168341855Y-93327705D01*
X168364167Y-93439875D01*
X168411560Y-93510804D01*
X168411560Y-93543400D01*
X168455838Y-93778717D01*
X168519678Y-93877928D01*
X168462569Y-93961510D01*
X168411560Y-94213400D01*
X168411560Y-94813400D01*
X168455838Y-95048717D01*
X168519678Y-95147928D01*
X168462569Y-95231510D01*
X168411560Y-95483400D01*
X168411560Y-96083400D01*
X168441666Y-96243400D01*
X166789193Y-96243400D01*
X166705917Y-96041857D01*
X166443127Y-95778608D01*
X166099599Y-95635962D01*
X165727633Y-95635638D01*
X165383857Y-95777683D01*
X165120608Y-96040473D01*
X164977962Y-96384001D01*
X164977638Y-96755967D01*
X165119683Y-97099743D01*
X165382473Y-97362992D01*
X165685171Y-97488684D01*
X165822643Y-97626156D01*
X165919691Y-97691001D01*
X166085426Y-97801742D01*
X166395400Y-97863400D01*
X168680614Y-97863400D01*
X168807110Y-97949831D01*
X169059000Y-98000840D01*
X171189000Y-98000840D01*
X171424317Y-97956562D01*
X171640441Y-97817490D01*
X171785431Y-97605290D01*
X171836440Y-97353400D01*
X171836440Y-96753400D01*
X171818994Y-96660684D01*
X172062684Y-96612210D01*
X172118875Y-96601033D01*
X172405990Y-96409190D01*
X173179635Y-95635545D01*
X173299743Y-95585917D01*
X173562992Y-95323127D01*
X173705638Y-94979599D01*
X173705962Y-94607633D01*
X173563917Y-94263857D01*
X173301127Y-94000608D01*
X173293668Y-93997511D01*
X173382834Y-93908345D01*
X173502943Y-93858717D01*
X173766192Y-93595927D01*
X173908838Y-93252399D01*
X173909162Y-92880433D01*
X173767117Y-92536657D01*
X173504327Y-92273408D01*
X173160799Y-92130762D01*
X172958048Y-92130585D01*
X172977040Y-92036800D01*
X172977040Y-91522550D01*
X173694600Y-91522550D01*
X173694600Y-92163110D01*
X173791273Y-92396499D01*
X173969902Y-92575127D01*
X174203291Y-92671800D01*
X175043850Y-92671800D01*
X175202600Y-92513050D01*
X175202600Y-91363800D01*
X173853350Y-91363800D01*
X173694600Y-91522550D01*
X172977040Y-91522550D01*
X172977040Y-90436800D01*
X172953274Y-90310490D01*
X173694600Y-90310490D01*
X173694600Y-90951050D01*
X173853350Y-91109800D01*
X175202600Y-91109800D01*
X175202600Y-90023050D01*
X175253400Y-89972250D01*
X175253400Y-88773000D01*
X173904150Y-88773000D01*
X173745400Y-88931750D01*
X173745400Y-89622310D01*
X173842073Y-89855699D01*
X173927375Y-89941000D01*
X173791273Y-90077101D01*
X173694600Y-90310490D01*
X172953274Y-90310490D01*
X172932762Y-90201483D01*
X172793690Y-89985359D01*
X172793148Y-89984988D01*
X172831841Y-89960090D01*
X172976831Y-89747890D01*
X173027840Y-89496000D01*
X173027840Y-87796000D01*
X172983562Y-87560683D01*
X172844490Y-87344559D01*
X172816450Y-87325400D01*
X172862031Y-87258690D01*
X172905952Y-87041800D01*
X173159164Y-87041800D01*
X173928743Y-87349632D01*
X173842073Y-87436301D01*
X173745400Y-87669690D01*
X173745400Y-88360250D01*
X173904150Y-88519000D01*
X175253400Y-88519000D01*
X175253400Y-88499000D01*
X175507400Y-88499000D01*
X175507400Y-88519000D01*
X175527400Y-88519000D01*
X175527400Y-88773000D01*
X175507400Y-88773000D01*
X175507400Y-89909750D01*
X175456600Y-89960550D01*
X175456600Y-91109800D01*
X175476600Y-91109800D01*
X175476600Y-91363800D01*
X175456600Y-91363800D01*
X175456600Y-92513050D01*
X175615350Y-92671800D01*
X176302090Y-92671800D01*
X176324479Y-121676865D01*
X175782107Y-121133545D01*
X174802227Y-120726664D01*
X173741228Y-120725738D01*
X172760639Y-121130909D01*
X172009745Y-121880493D01*
X171602864Y-122860373D01*
X171601938Y-123921372D01*
X172007109Y-124901961D01*
X172632056Y-125528000D01*
X135646964Y-125528000D01*
X136219255Y-124956707D01*
X136626136Y-123976827D01*
X136626610Y-123433450D01*
X142716400Y-123433450D01*
X142716400Y-123505350D01*
X142856081Y-124207574D01*
X143253859Y-124802891D01*
X143849176Y-125200669D01*
X144551400Y-125340350D01*
X145253624Y-125200669D01*
X145848941Y-124802891D01*
X146246719Y-124207574D01*
X146386400Y-123505350D01*
X146386400Y-123433450D01*
X146246719Y-122731226D01*
X145848941Y-122135909D01*
X145253624Y-121738131D01*
X144551400Y-121598450D01*
X143849176Y-121738131D01*
X143253859Y-122135909D01*
X142856081Y-122731226D01*
X142716400Y-123433450D01*
X136626610Y-123433450D01*
X136627062Y-122915828D01*
X136221891Y-121935239D01*
X135472307Y-121184345D01*
X134492427Y-120777464D01*
X133431428Y-120776538D01*
X132450839Y-121181709D01*
X132002600Y-121629166D01*
X132002600Y-115885400D01*
X132577560Y-115885400D01*
X132577560Y-117085400D01*
X132621838Y-117320717D01*
X132760910Y-117536841D01*
X132973110Y-117681831D01*
X133225000Y-117732840D01*
X133627308Y-117732840D01*
X135797634Y-119903166D01*
X136165854Y-120149203D01*
X136600200Y-120235600D01*
X159509208Y-120235600D01*
X159616310Y-120402041D01*
X159828510Y-120547031D01*
X160080400Y-120598040D01*
X161280400Y-120598040D01*
X161515717Y-120553762D01*
X161731841Y-120414690D01*
X161835971Y-120262291D01*
X161851275Y-120282533D01*
X162271024Y-120528886D01*
X162362791Y-120544062D01*
X162553400Y-120419331D01*
X162553400Y-119227600D01*
X162807400Y-119227600D01*
X162807400Y-120419331D01*
X162998009Y-120544062D01*
X163089776Y-120528886D01*
X163509525Y-120282533D01*
X163803047Y-119894301D01*
X163925656Y-119423296D01*
X163762947Y-119227600D01*
X162807400Y-119227600D01*
X162553400Y-119227600D01*
X162533400Y-119227600D01*
X162533400Y-118973600D01*
X162553400Y-118973600D01*
X162553400Y-117781869D01*
X162807400Y-117781869D01*
X162807400Y-118973600D01*
X163762947Y-118973600D01*
X163925656Y-118777904D01*
X163803047Y-118306899D01*
X163509525Y-117918667D01*
X163089776Y-117672314D01*
X162998009Y-117657138D01*
X162807400Y-117781869D01*
X162553400Y-117781869D01*
X162362791Y-117657138D01*
X162271024Y-117672314D01*
X161851275Y-117918667D01*
X161835131Y-117940020D01*
X161744490Y-117799159D01*
X161532290Y-117654169D01*
X161280400Y-117603160D01*
X161153984Y-117603160D01*
X161122986Y-117500150D01*
X169024400Y-117500150D01*
X169024400Y-118340709D01*
X169121073Y-118574098D01*
X169299701Y-118752727D01*
X169533090Y-118849400D01*
X170173650Y-118849400D01*
X170332400Y-118690650D01*
X170332400Y-117341400D01*
X170586400Y-117341400D01*
X170586400Y-118690650D01*
X170745150Y-118849400D01*
X171385710Y-118849400D01*
X171619099Y-118752727D01*
X171797727Y-118574098D01*
X171894400Y-118340709D01*
X171894400Y-117500150D01*
X171735650Y-117341400D01*
X170586400Y-117341400D01*
X170332400Y-117341400D01*
X169183150Y-117341400D01*
X169024400Y-117500150D01*
X161122986Y-117500150D01*
X159911469Y-113474188D01*
X159828923Y-111977194D01*
X159862638Y-111895999D01*
X159862962Y-111524033D01*
X159720917Y-111180257D01*
X159458127Y-110917008D01*
X159114599Y-110774362D01*
X158742633Y-110774038D01*
X158398857Y-110916083D01*
X158135608Y-111178873D01*
X157992962Y-111522401D01*
X157992638Y-111894367D01*
X158060756Y-112059226D01*
X158149960Y-113676944D01*
X158176094Y-113778683D01*
X158186158Y-113883241D01*
X159414646Y-117965600D01*
X137070332Y-117965600D01*
X135392440Y-116287708D01*
X135392440Y-115885400D01*
X135348162Y-115650083D01*
X135209090Y-115433959D01*
X134996890Y-115288969D01*
X134745000Y-115237960D01*
X133225000Y-115237960D01*
X132989683Y-115282238D01*
X132773559Y-115421310D01*
X132628569Y-115633510D01*
X132577560Y-115885400D01*
X132002600Y-115885400D01*
X132002600Y-110652378D01*
X132235000Y-110699440D01*
X132850000Y-110699440D01*
X132850000Y-111052122D01*
X132773559Y-111101310D01*
X132628569Y-111313510D01*
X132577560Y-111565400D01*
X132577560Y-112765400D01*
X132621838Y-113000717D01*
X132760910Y-113216841D01*
X132973110Y-113361831D01*
X133225000Y-113412840D01*
X134745000Y-113412840D01*
X134980317Y-113368562D01*
X135196441Y-113229490D01*
X135341431Y-113017290D01*
X135392440Y-112765400D01*
X135392440Y-111565400D01*
X135348162Y-111330083D01*
X135209090Y-111113959D01*
X135120000Y-111053086D01*
X135120000Y-110699440D01*
X135735000Y-110699440D01*
X135970317Y-110655162D01*
X136186441Y-110516090D01*
X136331431Y-110303890D01*
X136382440Y-110052000D01*
X136382440Y-106552000D01*
X136338162Y-106316683D01*
X136199090Y-106100559D01*
X135986890Y-105955569D01*
X135735000Y-105904560D01*
X132235000Y-105904560D01*
X132002600Y-105948289D01*
X132002600Y-103852378D01*
X132235000Y-103899440D01*
X135735000Y-103899440D01*
X135970317Y-103855162D01*
X136186441Y-103716090D01*
X136331431Y-103503890D01*
X136382440Y-103252000D01*
X136382440Y-99752000D01*
X136338162Y-99516683D01*
X136199090Y-99300559D01*
X135986890Y-99155569D01*
X135913421Y-99140691D01*
X136016484Y-99037629D01*
X136317343Y-98913317D01*
X136580592Y-98650527D01*
X136723238Y-98306999D01*
X136723562Y-97935033D01*
X136581517Y-97591257D01*
X136318727Y-97328008D01*
X135975199Y-97185362D01*
X135603233Y-97185038D01*
X135259457Y-97327083D01*
X134996208Y-97589873D01*
X134870516Y-97892571D01*
X134870000Y-97893087D01*
X134870000Y-92836096D01*
X135019517Y-92807962D01*
X135235641Y-92668890D01*
X135380631Y-92456690D01*
X135431640Y-92204800D01*
X135431640Y-90204800D01*
X135387362Y-89969483D01*
X135248290Y-89753359D01*
X135036090Y-89608369D01*
X134784200Y-89557360D01*
X133084200Y-89557360D01*
X132848883Y-89601638D01*
X132632759Y-89740710D01*
X132487769Y-89952910D01*
X132436760Y-90204800D01*
X132436760Y-92204800D01*
X132481038Y-92440117D01*
X132620110Y-92656241D01*
X132832310Y-92801231D01*
X133084200Y-92852240D01*
X133100000Y-92852240D01*
X133100000Y-99104560D01*
X132235000Y-99104560D01*
X132002600Y-99148289D01*
X132002600Y-83372200D01*
X132436760Y-83372200D01*
X132436760Y-85372200D01*
X132481038Y-85607517D01*
X132598762Y-85790466D01*
X132487769Y-85952910D01*
X132436760Y-86204800D01*
X132436760Y-88204800D01*
X132481038Y-88440117D01*
X132620110Y-88656241D01*
X132832310Y-88801231D01*
X133084200Y-88852240D01*
X134784200Y-88852240D01*
X135019517Y-88807962D01*
X135235641Y-88668890D01*
X135380631Y-88456690D01*
X135431640Y-88204800D01*
X135431640Y-86204800D01*
X135387362Y-85969483D01*
X135269638Y-85786534D01*
X135380631Y-85624090D01*
X135431640Y-85372200D01*
X135431640Y-83372200D01*
X135387362Y-83136883D01*
X135248290Y-82920759D01*
X135036090Y-82775769D01*
X134784200Y-82724760D01*
X133084200Y-82724760D01*
X132848883Y-82769038D01*
X132632759Y-82908110D01*
X132487769Y-83120310D01*
X132436760Y-83372200D01*
X132002600Y-83372200D01*
X132002600Y-81102200D01*
X132394201Y-81102200D01*
X132436760Y-81316160D01*
X132436760Y-81372200D01*
X132481038Y-81607517D01*
X132620110Y-81823641D01*
X132832310Y-81968631D01*
X133084200Y-82019640D01*
X134784200Y-82019640D01*
X135019517Y-81975362D01*
X135235641Y-81836290D01*
X135380631Y-81624090D01*
X135431640Y-81372200D01*
X135431640Y-81204130D01*
X135562873Y-81335592D01*
X135906401Y-81478238D01*
X136278367Y-81478562D01*
X136622143Y-81336517D01*
X136885392Y-81073727D01*
X137028038Y-80730199D01*
X137028362Y-80358233D01*
X136886317Y-80014457D01*
X136623527Y-79751208D01*
X136279999Y-79608562D01*
X136154527Y-79608453D01*
X135922000Y-79562200D01*
X135431640Y-79562200D01*
X135431640Y-79372200D01*
X135387362Y-79136883D01*
X135248290Y-78920759D01*
X135036090Y-78775769D01*
X134784200Y-78724760D01*
X133084200Y-78724760D01*
X132848883Y-78769038D01*
X132632759Y-78908110D01*
X132487769Y-79120310D01*
X132436760Y-79372200D01*
X132436760Y-80888240D01*
X132394201Y-81102200D01*
X132002600Y-81102200D01*
X132002600Y-72098150D01*
X155181400Y-72098150D01*
X155181400Y-72938709D01*
X155278073Y-73172098D01*
X155456701Y-73350727D01*
X155690090Y-73447400D01*
X156330650Y-73447400D01*
X156489400Y-73288650D01*
X156489400Y-71939400D01*
X156743400Y-71939400D01*
X156743400Y-73288650D01*
X156902150Y-73447400D01*
X157542710Y-73447400D01*
X157776099Y-73350727D01*
X157954727Y-73172098D01*
X158051400Y-72938709D01*
X158051400Y-72098150D01*
X157892650Y-71939400D01*
X156743400Y-71939400D01*
X156489400Y-71939400D01*
X155340150Y-71939400D01*
X155181400Y-72098150D01*
X132002600Y-72098150D01*
X132002600Y-70686091D01*
X155181400Y-70686091D01*
X155181400Y-71526650D01*
X155340150Y-71685400D01*
X156489400Y-71685400D01*
X156489400Y-70336150D01*
X156330650Y-70177400D01*
X155690090Y-70177400D01*
X155456701Y-70274073D01*
X155278073Y-70452702D01*
X155181400Y-70686091D01*
X132002600Y-70686091D01*
X132002600Y-64882830D01*
X132421493Y-65302455D01*
X133401373Y-65709336D01*
X134462372Y-65710262D01*
X135442961Y-65305091D01*
X136193855Y-64555507D01*
X136600736Y-63575627D01*
X136601662Y-62514628D01*
X136196491Y-61534039D01*
X135822600Y-61159495D01*
X143310485Y-61155330D01*
X142996670Y-61468599D01*
X142716719Y-62142795D01*
X142716082Y-62872803D01*
X142994855Y-63547486D01*
X143510599Y-64064130D01*
X144184795Y-64344081D01*
X144914803Y-64344718D01*
X145589486Y-64065945D01*
X146106130Y-63550201D01*
X146386081Y-62876005D01*
X146386718Y-62145997D01*
X146107945Y-61471314D01*
X145791134Y-61153951D01*
X176277748Y-61136995D01*
X176285040Y-70583401D01*
X176285040Y-70583401D01*
G37*
X176285040Y-70583401D02*
X175756707Y-70054145D01*
X174776827Y-69647264D01*
X173836066Y-69646443D01*
X173849343Y-69626573D01*
X173911000Y-69316600D01*
X173911000Y-68793326D01*
X173936317Y-68788562D01*
X174152441Y-68649490D01*
X174297431Y-68437290D01*
X174348440Y-68185400D01*
X174348440Y-66485400D01*
X174304162Y-66250083D01*
X174165090Y-66033959D01*
X173952890Y-65888969D01*
X173701000Y-65837960D01*
X172501000Y-65837960D01*
X172265683Y-65882238D01*
X172049559Y-66021310D01*
X171950099Y-66166875D01*
X171573614Y-65915316D01*
X171101000Y-65821307D01*
X170628386Y-65915316D01*
X170227723Y-66183030D01*
X170101000Y-66372685D01*
X169974277Y-66183030D01*
X169573614Y-65915316D01*
X169385388Y-65877875D01*
X168847756Y-65340244D01*
X168791201Y-65302455D01*
X168584974Y-65164658D01*
X168275000Y-65103000D01*
X158623000Y-65103000D01*
X158313026Y-65164658D01*
X158050244Y-65340244D01*
X157874658Y-65603026D01*
X157830941Y-65822807D01*
X157823400Y-65821307D01*
X157350786Y-65915316D01*
X156950123Y-66183030D01*
X156823400Y-66372685D01*
X156696677Y-66183030D01*
X156296014Y-65915316D01*
X156136585Y-65883604D01*
X156133374Y-65881458D01*
X155823400Y-65819800D01*
X155513426Y-65881458D01*
X155510215Y-65883604D01*
X155350786Y-65915316D01*
X154950123Y-66183030D01*
X154682409Y-66583693D01*
X154588400Y-67056307D01*
X154588400Y-67614493D01*
X154682409Y-68087107D01*
X154950123Y-68487770D01*
X155350786Y-68755484D01*
X155529526Y-68791038D01*
X156915888Y-70177400D01*
X156902150Y-70177400D01*
X156743400Y-70336150D01*
X156743400Y-71685400D01*
X157892650Y-71685400D01*
X158051400Y-71526650D01*
X158051400Y-71312913D01*
X158539960Y-71801473D01*
X158539960Y-72149400D01*
X158584238Y-72384717D01*
X158723310Y-72600841D01*
X158935510Y-72745831D01*
X159187400Y-72796840D01*
X159887400Y-72796840D01*
X160122717Y-72752562D01*
X160170428Y-72721861D01*
X160205510Y-72745831D01*
X160457400Y-72796840D01*
X161157400Y-72796840D01*
X161392717Y-72752562D01*
X161440428Y-72721861D01*
X161475510Y-72745831D01*
X161727400Y-72796840D01*
X162427400Y-72796840D01*
X162662717Y-72752562D01*
X162710428Y-72721861D01*
X162745510Y-72745831D01*
X162997400Y-72796840D01*
X163697400Y-72796840D01*
X163932717Y-72752562D01*
X164148841Y-72613490D01*
X164293831Y-72401290D01*
X164344840Y-72149400D01*
X164344840Y-70863200D01*
X171958556Y-70863200D01*
X171577464Y-71780973D01*
X171576538Y-72841972D01*
X171981709Y-73822561D01*
X172731293Y-74573455D01*
X173711173Y-74980336D01*
X174772172Y-74981262D01*
X175752761Y-74576091D01*
X176287709Y-74042076D01*
X176297836Y-87161000D01*
X176294527Y-87161000D01*
X176296438Y-87156399D01*
X176296762Y-86784433D01*
X176154717Y-86440657D01*
X175891927Y-86177408D01*
X175548399Y-86034762D01*
X175407133Y-86034639D01*
X174321369Y-85600333D01*
X174620543Y-85476717D01*
X174883792Y-85213927D01*
X175026438Y-84870399D01*
X175026627Y-84653463D01*
X175140367Y-84653562D01*
X175484143Y-84511517D01*
X175747392Y-84248727D01*
X175890038Y-83905199D01*
X175890362Y-83533233D01*
X175748317Y-83189457D01*
X175485527Y-82926208D01*
X175364213Y-82875834D01*
X175230600Y-82742220D01*
X175230600Y-82723432D01*
X175395654Y-82613147D01*
X175717561Y-82131378D01*
X175830600Y-81563093D01*
X175830600Y-81504907D01*
X175717561Y-80936622D01*
X175395654Y-80454853D01*
X175112499Y-80265655D01*
X175112524Y-80265645D01*
X175540783Y-79875358D01*
X175787086Y-79350892D01*
X175666419Y-79121000D01*
X174472600Y-79121000D01*
X174472600Y-79141000D01*
X174218600Y-79141000D01*
X174218600Y-79121000D01*
X174198600Y-79121000D01*
X174198600Y-78867000D01*
X174218600Y-78867000D01*
X174218600Y-77673845D01*
X174472600Y-77673845D01*
X174472600Y-78867000D01*
X175666419Y-78867000D01*
X175787086Y-78637108D01*
X175540783Y-78112642D01*
X175112524Y-77722355D01*
X174702490Y-77552524D01*
X174472600Y-77673845D01*
X174218600Y-77673845D01*
X173988710Y-77552524D01*
X173578676Y-77722355D01*
X173150417Y-78112642D01*
X173083302Y-78255553D01*
X172855654Y-77914853D01*
X172615600Y-77754454D01*
X172615600Y-77343000D01*
X172569242Y-77109943D01*
X172553943Y-77033027D01*
X172378357Y-76770244D01*
X171884830Y-76276717D01*
X171760517Y-75975857D01*
X171497727Y-75712608D01*
X171154199Y-75569962D01*
X170782233Y-75569638D01*
X170438457Y-75711683D01*
X170175208Y-75974473D01*
X170033123Y-76316651D01*
X170013943Y-76220227D01*
X169838357Y-75957444D01*
X167882556Y-74001644D01*
X167619774Y-73826058D01*
X167309800Y-73764400D01*
X158013400Y-73764400D01*
X157703426Y-73826058D01*
X157572035Y-73913851D01*
X157440643Y-74001644D01*
X157277327Y-74164960D01*
X155816400Y-74164960D01*
X155581083Y-74209238D01*
X155364959Y-74348310D01*
X155219969Y-74560510D01*
X155168960Y-74812400D01*
X155168960Y-76114328D01*
X154805644Y-76477644D01*
X154630058Y-76740426D01*
X154568400Y-77050400D01*
X154568400Y-78410960D01*
X154378400Y-78410960D01*
X154143083Y-78455238D01*
X153926959Y-78594310D01*
X153781969Y-78806510D01*
X153730960Y-79058400D01*
X153730960Y-80758400D01*
X153775238Y-80993717D01*
X153914310Y-81209841D01*
X154126510Y-81354831D01*
X154378400Y-81405840D01*
X154493400Y-81405840D01*
X154493400Y-81560560D01*
X154378400Y-81560560D01*
X154143083Y-81604838D01*
X153926959Y-81743910D01*
X153781969Y-81956110D01*
X153730960Y-82208000D01*
X153730960Y-83908000D01*
X153775238Y-84143317D01*
X153914310Y-84359441D01*
X154114537Y-84496251D01*
X154092283Y-84500438D01*
X153876159Y-84639510D01*
X153731169Y-84851710D01*
X153680160Y-85103600D01*
X153680160Y-86803600D01*
X153724438Y-87038917D01*
X153863510Y-87255041D01*
X154075710Y-87400031D01*
X154192600Y-87423702D01*
X154192600Y-87534268D01*
X153654834Y-88072034D01*
X153408797Y-88440254D01*
X153322400Y-88874600D01*
X153322400Y-90654093D01*
X153125225Y-91128943D01*
X150251234Y-94002934D01*
X150005197Y-94371154D01*
X149918800Y-94805500D01*
X149918800Y-107467400D01*
X150005197Y-107901746D01*
X150148842Y-108116726D01*
X150251234Y-108269966D01*
X151927634Y-109946366D01*
X152295855Y-110192404D01*
X152730200Y-110278800D01*
X159528982Y-110278800D01*
X159603910Y-110395241D01*
X159816110Y-110540231D01*
X160068000Y-110591240D01*
X160195745Y-110591240D01*
X160208434Y-112028413D01*
X160242825Y-112193668D01*
X160275767Y-112359274D01*
X160277978Y-112362583D01*
X160278789Y-112366480D01*
X160373839Y-112506051D01*
X160467610Y-112646390D01*
X160704808Y-112883587D01*
X160704810Y-112883590D01*
X160949207Y-113046890D01*
X160991925Y-113075433D01*
X161330600Y-113142800D01*
X161775791Y-113142800D01*
X161829110Y-113179231D01*
X161966120Y-113206976D01*
X161845683Y-113229638D01*
X161682257Y-113334800D01*
X161604750Y-113334800D01*
X161446000Y-113493550D01*
X161446000Y-113659110D01*
X161461268Y-113695971D01*
X161433560Y-113832800D01*
X161433560Y-114482800D01*
X161477838Y-114718117D01*
X161616910Y-114934241D01*
X161829110Y-115079231D01*
X161976000Y-115108977D01*
X161976000Y-115464595D01*
X161975999Y-115464600D01*
X162030413Y-115738150D01*
X162043367Y-115803275D01*
X162098241Y-115885400D01*
X162235210Y-116090390D01*
X162504655Y-116359835D01*
X162554283Y-116479943D01*
X162817073Y-116743192D01*
X163160601Y-116885838D01*
X163532567Y-116886162D01*
X163876343Y-116744117D01*
X164139592Y-116481327D01*
X164282238Y-116137799D01*
X164282562Y-115765833D01*
X164140517Y-115422057D01*
X163877727Y-115158808D01*
X163756562Y-115108496D01*
X163876317Y-115085962D01*
X164092441Y-114946890D01*
X164212233Y-114771568D01*
X164316910Y-114934241D01*
X164529110Y-115079231D01*
X164768361Y-115127681D01*
X164812658Y-115350374D01*
X164888982Y-115464600D01*
X164988244Y-115613156D01*
X165003243Y-115628156D01*
X165085075Y-115682834D01*
X165266026Y-115803742D01*
X165576000Y-115865400D01*
X166573560Y-115865400D01*
X166573560Y-116055400D01*
X166617838Y-116290717D01*
X166756910Y-116506841D01*
X166969110Y-116651831D01*
X167221000Y-116702840D01*
X168821000Y-116702840D01*
X169024400Y-116664568D01*
X169024400Y-116928650D01*
X169183150Y-117087400D01*
X170332400Y-117087400D01*
X170332400Y-115738150D01*
X170586400Y-115738150D01*
X170586400Y-117087400D01*
X171735650Y-117087400D01*
X171894400Y-116928650D01*
X171894400Y-116088091D01*
X171797727Y-115854702D01*
X171619099Y-115676073D01*
X171385710Y-115579400D01*
X170745150Y-115579400D01*
X170586400Y-115738150D01*
X170332400Y-115738150D01*
X170173650Y-115579400D01*
X169533090Y-115579400D01*
X169468440Y-115606179D01*
X169468440Y-114823170D01*
X169659400Y-114861840D01*
X171259400Y-114861840D01*
X171494717Y-114817562D01*
X171710841Y-114678490D01*
X171855831Y-114466290D01*
X171906840Y-114214400D01*
X171906840Y-114099400D01*
X172160043Y-114099400D01*
X172203001Y-114117238D01*
X172574967Y-114117562D01*
X172918743Y-113975517D01*
X173181992Y-113712727D01*
X173324638Y-113369199D01*
X173324962Y-112997233D01*
X173182917Y-112653457D01*
X172920127Y-112390208D01*
X172576599Y-112247562D01*
X172204633Y-112247238D01*
X172005785Y-112329400D01*
X171906840Y-112329400D01*
X171906840Y-112214400D01*
X171862562Y-111979083D01*
X171723490Y-111762959D01*
X171511290Y-111617969D01*
X171259400Y-111566960D01*
X169659400Y-111566960D01*
X169468440Y-111602892D01*
X169468440Y-110055400D01*
X169424162Y-109820083D01*
X169285090Y-109603959D01*
X169072890Y-109458969D01*
X168821000Y-109407960D01*
X167221000Y-109407960D01*
X166985683Y-109452238D01*
X166769559Y-109591310D01*
X166703000Y-109688722D01*
X166703000Y-109429550D01*
X166544250Y-109270800D01*
X165195000Y-109270800D01*
X165195000Y-110420050D01*
X165257453Y-110482503D01*
X165257243Y-110482644D01*
X164988244Y-110751644D01*
X164812658Y-111014426D01*
X164757901Y-111289706D01*
X164545683Y-111329638D01*
X164329559Y-111468710D01*
X164209767Y-111644032D01*
X164105090Y-111481359D01*
X163892890Y-111336369D01*
X163641000Y-111285360D01*
X162081000Y-111285360D01*
X161972124Y-111305846D01*
X161965815Y-110591240D01*
X162068000Y-110591240D01*
X162303317Y-110546962D01*
X162519441Y-110407890D01*
X162664431Y-110195690D01*
X162715440Y-109943800D01*
X162715440Y-109429550D01*
X163433000Y-109429550D01*
X163433000Y-110070110D01*
X163529673Y-110303499D01*
X163708302Y-110482127D01*
X163941691Y-110578800D01*
X164782250Y-110578800D01*
X164941000Y-110420050D01*
X164941000Y-109270800D01*
X163591750Y-109270800D01*
X163433000Y-109429550D01*
X162715440Y-109429550D01*
X162715440Y-108343800D01*
X162691674Y-108217490D01*
X163433000Y-108217490D01*
X163433000Y-108858050D01*
X163591750Y-109016800D01*
X164941000Y-109016800D01*
X164941000Y-107867550D01*
X165195000Y-107867550D01*
X165195000Y-109016800D01*
X166544250Y-109016800D01*
X166703000Y-108858050D01*
X166703000Y-108217490D01*
X166606327Y-107984101D01*
X166427698Y-107805473D01*
X166194309Y-107708800D01*
X165353750Y-107708800D01*
X165195000Y-107867550D01*
X164941000Y-107867550D01*
X164782250Y-107708800D01*
X163941691Y-107708800D01*
X163708302Y-107805473D01*
X163529673Y-107984101D01*
X163433000Y-108217490D01*
X162691674Y-108217490D01*
X162671162Y-108108483D01*
X162532090Y-107892359D01*
X162319890Y-107747369D01*
X162068000Y-107696360D01*
X160068000Y-107696360D01*
X159832683Y-107740638D01*
X159616559Y-107879710D01*
X159528356Y-108008800D01*
X153200332Y-108008800D01*
X152188800Y-106997268D01*
X152188800Y-105245800D01*
X152562560Y-105245800D01*
X152562560Y-106945800D01*
X152606838Y-107181117D01*
X152745910Y-107397241D01*
X152958110Y-107542231D01*
X153210000Y-107593240D01*
X155210000Y-107593240D01*
X155445317Y-107548962D01*
X155661441Y-107409890D01*
X155806431Y-107197690D01*
X155857440Y-106945800D01*
X155857440Y-106381550D01*
X156575000Y-106381550D01*
X156575000Y-107072110D01*
X156671673Y-107305499D01*
X156850302Y-107484127D01*
X157083691Y-107580800D01*
X157924250Y-107580800D01*
X158083000Y-107422050D01*
X158083000Y-106222800D01*
X158337000Y-106222800D01*
X158337000Y-107422050D01*
X158495750Y-107580800D01*
X159336309Y-107580800D01*
X159569698Y-107484127D01*
X159748327Y-107305499D01*
X159845000Y-107072110D01*
X159845000Y-106381550D01*
X159686250Y-106222800D01*
X158337000Y-106222800D01*
X158083000Y-106222800D01*
X156733750Y-106222800D01*
X156575000Y-106381550D01*
X155857440Y-106381550D01*
X155857440Y-105245800D01*
X155833674Y-105119490D01*
X156575000Y-105119490D01*
X156575000Y-105810050D01*
X156733750Y-105968800D01*
X158083000Y-105968800D01*
X158083000Y-104769550D01*
X157924250Y-104610800D01*
X157083691Y-104610800D01*
X156850302Y-104707473D01*
X156671673Y-104886101D01*
X156575000Y-105119490D01*
X155833674Y-105119490D01*
X155813162Y-105010483D01*
X155674090Y-104794359D01*
X155461890Y-104649369D01*
X155210000Y-104598360D01*
X155150400Y-104598360D01*
X155150400Y-104497426D01*
X155155701Y-104502727D01*
X155389090Y-104599400D01*
X155629650Y-104599400D01*
X155788400Y-104440650D01*
X155788400Y-103641400D01*
X156042400Y-103641400D01*
X156042400Y-104440650D01*
X156201150Y-104599400D01*
X156441710Y-104599400D01*
X156675099Y-104502727D01*
X156853727Y-104324098D01*
X156950400Y-104090709D01*
X156950400Y-103800150D01*
X156791650Y-103641400D01*
X156042400Y-103641400D01*
X155788400Y-103641400D01*
X155768400Y-103641400D01*
X155768400Y-103387400D01*
X155788400Y-103387400D01*
X155788400Y-102588150D01*
X156042400Y-102588150D01*
X156042400Y-103387400D01*
X156791650Y-103387400D01*
X156950400Y-103228650D01*
X156950400Y-102938091D01*
X156853727Y-102704702D01*
X156675099Y-102526073D01*
X156441710Y-102429400D01*
X156201150Y-102429400D01*
X156042400Y-102588150D01*
X155788400Y-102588150D01*
X155702388Y-102502138D01*
X155816841Y-102428490D01*
X155961831Y-102216290D01*
X156012840Y-101964400D01*
X156012840Y-101378767D01*
X157713238Y-101378767D01*
X157855283Y-101722543D01*
X158118073Y-101985792D01*
X158239386Y-102036166D01*
X158476151Y-102272931D01*
X158455360Y-102375600D01*
X158455360Y-104075600D01*
X158499638Y-104310917D01*
X158638710Y-104527041D01*
X158761295Y-104610800D01*
X158495750Y-104610800D01*
X158337000Y-104769550D01*
X158337000Y-105968800D01*
X159686250Y-105968800D01*
X159845000Y-105810050D01*
X159845000Y-105119490D01*
X159748327Y-104886101D01*
X159585265Y-104723040D01*
X161102800Y-104723040D01*
X161338117Y-104678762D01*
X161554241Y-104539690D01*
X161699231Y-104327490D01*
X161750240Y-104075600D01*
X161750240Y-102375600D01*
X162455360Y-102375600D01*
X162455360Y-104075600D01*
X162499638Y-104310917D01*
X162612670Y-104486574D01*
X162595769Y-104511310D01*
X162544760Y-104763200D01*
X162544760Y-106463200D01*
X162589038Y-106698517D01*
X162728110Y-106914641D01*
X162940310Y-107059631D01*
X163192200Y-107110640D01*
X165192200Y-107110640D01*
X165427517Y-107066362D01*
X165643641Y-106927290D01*
X165788631Y-106715090D01*
X165839640Y-106463200D01*
X165839640Y-104763200D01*
X165795362Y-104527883D01*
X165682330Y-104352226D01*
X165699231Y-104327490D01*
X165750240Y-104075600D01*
X165750240Y-103568353D01*
X165772142Y-103535574D01*
X165833800Y-103225600D01*
X165772142Y-102915626D01*
X165750240Y-102882847D01*
X165750240Y-102375600D01*
X165705962Y-102140283D01*
X165566890Y-101924159D01*
X165354690Y-101779169D01*
X165102800Y-101728160D01*
X163102800Y-101728160D01*
X162867483Y-101772438D01*
X162651359Y-101911510D01*
X162506369Y-102123710D01*
X162455360Y-102375600D01*
X161750240Y-102375600D01*
X161705962Y-102140283D01*
X161566890Y-101924159D01*
X161354690Y-101779169D01*
X161102800Y-101728160D01*
X160434539Y-101728160D01*
X159491144Y-100784764D01*
X159441517Y-100664657D01*
X159178727Y-100401408D01*
X158835199Y-100258762D01*
X158463233Y-100258438D01*
X158119457Y-100400483D01*
X157856208Y-100663273D01*
X157713562Y-101006801D01*
X157713238Y-101378767D01*
X156012840Y-101378767D01*
X156012840Y-101299486D01*
X156014003Y-101297745D01*
X156100400Y-100863400D01*
X156014003Y-100429055D01*
X155767966Y-100060834D01*
X154624966Y-98917834D01*
X154256745Y-98671797D01*
X153822400Y-98585400D01*
X153388055Y-98671797D01*
X153019834Y-98917834D01*
X152773797Y-99286055D01*
X152687400Y-99720400D01*
X152773797Y-100154745D01*
X153019834Y-100522966D01*
X153917960Y-101421092D01*
X153917960Y-101964400D01*
X153962238Y-102199717D01*
X154087029Y-102393648D01*
X154015400Y-102379400D01*
X153826574Y-102416960D01*
X153615400Y-102416960D01*
X153380083Y-102461238D01*
X153163959Y-102600310D01*
X153018969Y-102812510D01*
X152967960Y-103064400D01*
X152967960Y-103078313D01*
X152966797Y-103080054D01*
X152880400Y-103514400D01*
X152880400Y-104703307D01*
X152758559Y-104781710D01*
X152613569Y-104993910D01*
X152562560Y-105245800D01*
X152188800Y-105245800D01*
X152188800Y-96856550D01*
X153794200Y-96856550D01*
X153794200Y-97497110D01*
X153890873Y-97730499D01*
X154069502Y-97909127D01*
X154302891Y-98005800D01*
X155143450Y-98005800D01*
X155302200Y-97847050D01*
X155302200Y-96697800D01*
X155556200Y-96697800D01*
X155556200Y-97847050D01*
X155714950Y-98005800D01*
X156555509Y-98005800D01*
X156788898Y-97909127D01*
X156967527Y-97730499D01*
X157064200Y-97497110D01*
X157064200Y-96856550D01*
X156905450Y-96697800D01*
X155556200Y-96697800D01*
X155302200Y-96697800D01*
X153952950Y-96697800D01*
X153794200Y-96856550D01*
X152188800Y-96856550D01*
X152188800Y-95275632D01*
X153184447Y-94279985D01*
X153224021Y-94478936D01*
X153513412Y-94912042D01*
X153946518Y-95201433D01*
X154080229Y-95228030D01*
X154069502Y-95232473D01*
X153890873Y-95411101D01*
X153794200Y-95644490D01*
X153794200Y-96285050D01*
X153952950Y-96443800D01*
X155302200Y-96443800D01*
X155302200Y-95294550D01*
X155556200Y-95294550D01*
X155556200Y-96443800D01*
X156905450Y-96443800D01*
X157064200Y-96285050D01*
X157064200Y-95644490D01*
X156967527Y-95411101D01*
X156788898Y-95232473D01*
X156555509Y-95135800D01*
X155714950Y-95135800D01*
X155556200Y-95294550D01*
X155302200Y-95294550D01*
X155143450Y-95135800D01*
X155066509Y-95135800D01*
X155401388Y-94912042D01*
X155690779Y-94478936D01*
X155792400Y-93968054D01*
X155792400Y-93915746D01*
X155778618Y-93846459D01*
X156703824Y-92886640D01*
X158105600Y-92886640D01*
X158340917Y-92842362D01*
X158557041Y-92703290D01*
X158702031Y-92491090D01*
X158753040Y-92239200D01*
X158753040Y-91674950D01*
X159470600Y-91674950D01*
X159470600Y-92365510D01*
X159567273Y-92598899D01*
X159745902Y-92777527D01*
X159979291Y-92874200D01*
X160819850Y-92874200D01*
X160978600Y-92715450D01*
X160978600Y-91516200D01*
X159629350Y-91516200D01*
X159470600Y-91674950D01*
X158753040Y-91674950D01*
X158753040Y-90539200D01*
X158721278Y-90370400D01*
X159488200Y-90370400D01*
X159470600Y-90412890D01*
X159470600Y-91103450D01*
X159629350Y-91262200D01*
X160978600Y-91262200D01*
X160978600Y-91242200D01*
X161232600Y-91242200D01*
X161232600Y-91262200D01*
X162581850Y-91262200D01*
X162607769Y-91236281D01*
X163114000Y-91742513D01*
X163114000Y-92295960D01*
X162740600Y-92295960D01*
X162740600Y-91674950D01*
X162581850Y-91516200D01*
X161232600Y-91516200D01*
X161232600Y-92715450D01*
X161391350Y-92874200D01*
X161425573Y-92874200D01*
X161411560Y-92943400D01*
X161411560Y-93543400D01*
X161455838Y-93778717D01*
X161467367Y-93796633D01*
X161331210Y-93887610D01*
X161331208Y-93887613D01*
X160095460Y-95123360D01*
X158429200Y-95123360D01*
X158193883Y-95167638D01*
X157977759Y-95306710D01*
X157832769Y-95518910D01*
X157781760Y-95770800D01*
X157781760Y-97370800D01*
X157826038Y-97606117D01*
X157965110Y-97822241D01*
X158177310Y-97967231D01*
X158429200Y-98018240D01*
X158779400Y-98018240D01*
X158779400Y-98238694D01*
X158642175Y-98375680D01*
X158458110Y-98818959D01*
X158457691Y-99298935D01*
X158640982Y-99742535D01*
X158980080Y-100082225D01*
X159423359Y-100266290D01*
X159903335Y-100266709D01*
X160346935Y-100083418D01*
X160485595Y-99945000D01*
X163673220Y-99945000D01*
X166557960Y-102829739D01*
X166557960Y-104075600D01*
X166602238Y-104310917D01*
X166665509Y-104409242D01*
X166595769Y-104511310D01*
X166544760Y-104763200D01*
X166544760Y-106463200D01*
X166589038Y-106698517D01*
X166728110Y-106914641D01*
X166940310Y-107059631D01*
X167192200Y-107110640D01*
X169192200Y-107110640D01*
X169427517Y-107066362D01*
X169643641Y-106927290D01*
X169788631Y-106715090D01*
X169839640Y-106463200D01*
X169839640Y-104763200D01*
X169795362Y-104527883D01*
X169732091Y-104429558D01*
X169801831Y-104327490D01*
X169852840Y-104075600D01*
X169852840Y-103511350D01*
X170570400Y-103511350D01*
X170570400Y-104201910D01*
X170667073Y-104435299D01*
X170845702Y-104613927D01*
X171079091Y-104710600D01*
X171919650Y-104710600D01*
X172078400Y-104551850D01*
X172078400Y-103352600D01*
X172332400Y-103352600D01*
X172332400Y-104551850D01*
X172491150Y-104710600D01*
X173331709Y-104710600D01*
X173565098Y-104613927D01*
X173743727Y-104435299D01*
X173840400Y-104201910D01*
X173840400Y-103511350D01*
X173681650Y-103352600D01*
X172332400Y-103352600D01*
X172078400Y-103352600D01*
X170729150Y-103352600D01*
X170570400Y-103511350D01*
X169852840Y-103511350D01*
X169852840Y-102375600D01*
X169829074Y-102249290D01*
X170570400Y-102249290D01*
X170570400Y-102939850D01*
X170729150Y-103098600D01*
X172078400Y-103098600D01*
X172078400Y-101899350D01*
X172332400Y-101899350D01*
X172332400Y-103098600D01*
X173681650Y-103098600D01*
X173840400Y-102939850D01*
X173840400Y-102249290D01*
X173743727Y-102015901D01*
X173565098Y-101837273D01*
X173331709Y-101740600D01*
X172491150Y-101740600D01*
X172332400Y-101899350D01*
X172078400Y-101899350D01*
X171919650Y-101740600D01*
X171079091Y-101740600D01*
X170845702Y-101837273D01*
X170667073Y-102015901D01*
X170570400Y-102249290D01*
X169829074Y-102249290D01*
X169808562Y-102140283D01*
X169669490Y-101924159D01*
X169457290Y-101779169D01*
X169205400Y-101728160D01*
X167959539Y-101728160D01*
X164665590Y-98434210D01*
X164659548Y-98430173D01*
X164378475Y-98242367D01*
X164322284Y-98231190D01*
X164039800Y-98174999D01*
X164039795Y-98175000D01*
X160549400Y-98175000D01*
X160549400Y-97995623D01*
X160664517Y-97973962D01*
X160880641Y-97834890D01*
X161025631Y-97622690D01*
X161059607Y-97454911D01*
X161348167Y-97455162D01*
X161424000Y-97423829D01*
X161424000Y-97479710D01*
X161520673Y-97713099D01*
X161699302Y-97891727D01*
X161932691Y-97988400D01*
X162838250Y-97988400D01*
X162997000Y-97829650D01*
X162997000Y-97180400D01*
X163251000Y-97180400D01*
X163251000Y-97829650D01*
X163409750Y-97988400D01*
X164315309Y-97988400D01*
X164548698Y-97891727D01*
X164727327Y-97713099D01*
X164824000Y-97479710D01*
X164824000Y-97339150D01*
X164665250Y-97180400D01*
X163251000Y-97180400D01*
X162997000Y-97180400D01*
X162977000Y-97180400D01*
X162977000Y-96926400D01*
X162997000Y-96926400D01*
X162997000Y-96906400D01*
X163251000Y-96906400D01*
X163251000Y-96926400D01*
X164665250Y-96926400D01*
X164824000Y-96767650D01*
X164824000Y-96627090D01*
X164734194Y-96410278D01*
X164785431Y-96335290D01*
X164836440Y-96083400D01*
X164836440Y-95483400D01*
X164792162Y-95248083D01*
X164728322Y-95148872D01*
X164785431Y-95065290D01*
X164836440Y-94813400D01*
X164836440Y-94213400D01*
X164792162Y-93978083D01*
X164728322Y-93878872D01*
X164785431Y-93795290D01*
X164836440Y-93543400D01*
X164836440Y-92943400D01*
X164792162Y-92708083D01*
X164734000Y-92617697D01*
X164734000Y-91407000D01*
X164690040Y-91186000D01*
X164672343Y-91097027D01*
X164496757Y-90834244D01*
X162650156Y-88987644D01*
X162566505Y-88931750D01*
X162387374Y-88812058D01*
X162077400Y-88750400D01*
X160374065Y-88750400D01*
X160532341Y-88592400D01*
X164891488Y-88592400D01*
X168296800Y-91997713D01*
X168296800Y-93101195D01*
X168296799Y-93101200D01*
X168341855Y-93327705D01*
X168364167Y-93439875D01*
X168411560Y-93510804D01*
X168411560Y-93543400D01*
X168455838Y-93778717D01*
X168519678Y-93877928D01*
X168462569Y-93961510D01*
X168411560Y-94213400D01*
X168411560Y-94813400D01*
X168455838Y-95048717D01*
X168519678Y-95147928D01*
X168462569Y-95231510D01*
X168411560Y-95483400D01*
X168411560Y-96083400D01*
X168441666Y-96243400D01*
X166789193Y-96243400D01*
X166705917Y-96041857D01*
X166443127Y-95778608D01*
X166099599Y-95635962D01*
X165727633Y-95635638D01*
X165383857Y-95777683D01*
X165120608Y-96040473D01*
X164977962Y-96384001D01*
X164977638Y-96755967D01*
X165119683Y-97099743D01*
X165382473Y-97362992D01*
X165685171Y-97488684D01*
X165822643Y-97626156D01*
X165919691Y-97691001D01*
X166085426Y-97801742D01*
X166395400Y-97863400D01*
X168680614Y-97863400D01*
X168807110Y-97949831D01*
X169059000Y-98000840D01*
X171189000Y-98000840D01*
X171424317Y-97956562D01*
X171640441Y-97817490D01*
X171785431Y-97605290D01*
X171836440Y-97353400D01*
X171836440Y-96753400D01*
X171818994Y-96660684D01*
X172062684Y-96612210D01*
X172118875Y-96601033D01*
X172405990Y-96409190D01*
X173179635Y-95635545D01*
X173299743Y-95585917D01*
X173562992Y-95323127D01*
X173705638Y-94979599D01*
X173705962Y-94607633D01*
X173563917Y-94263857D01*
X173301127Y-94000608D01*
X173293668Y-93997511D01*
X173382834Y-93908345D01*
X173502943Y-93858717D01*
X173766192Y-93595927D01*
X173908838Y-93252399D01*
X173909162Y-92880433D01*
X173767117Y-92536657D01*
X173504327Y-92273408D01*
X173160799Y-92130762D01*
X172958048Y-92130585D01*
X172977040Y-92036800D01*
X172977040Y-91522550D01*
X173694600Y-91522550D01*
X173694600Y-92163110D01*
X173791273Y-92396499D01*
X173969902Y-92575127D01*
X174203291Y-92671800D01*
X175043850Y-92671800D01*
X175202600Y-92513050D01*
X175202600Y-91363800D01*
X173853350Y-91363800D01*
X173694600Y-91522550D01*
X172977040Y-91522550D01*
X172977040Y-90436800D01*
X172953274Y-90310490D01*
X173694600Y-90310490D01*
X173694600Y-90951050D01*
X173853350Y-91109800D01*
X175202600Y-91109800D01*
X175202600Y-90023050D01*
X175253400Y-89972250D01*
X175253400Y-88773000D01*
X173904150Y-88773000D01*
X173745400Y-88931750D01*
X173745400Y-89622310D01*
X173842073Y-89855699D01*
X173927375Y-89941000D01*
X173791273Y-90077101D01*
X173694600Y-90310490D01*
X172953274Y-90310490D01*
X172932762Y-90201483D01*
X172793690Y-89985359D01*
X172793148Y-89984988D01*
X172831841Y-89960090D01*
X172976831Y-89747890D01*
X173027840Y-89496000D01*
X173027840Y-87796000D01*
X172983562Y-87560683D01*
X172844490Y-87344559D01*
X172816450Y-87325400D01*
X172862031Y-87258690D01*
X172905952Y-87041800D01*
X173159164Y-87041800D01*
X173928743Y-87349632D01*
X173842073Y-87436301D01*
X173745400Y-87669690D01*
X173745400Y-88360250D01*
X173904150Y-88519000D01*
X175253400Y-88519000D01*
X175253400Y-88499000D01*
X175507400Y-88499000D01*
X175507400Y-88519000D01*
X175527400Y-88519000D01*
X175527400Y-88773000D01*
X175507400Y-88773000D01*
X175507400Y-89909750D01*
X175456600Y-89960550D01*
X175456600Y-91109800D01*
X175476600Y-91109800D01*
X175476600Y-91363800D01*
X175456600Y-91363800D01*
X175456600Y-92513050D01*
X175615350Y-92671800D01*
X176302090Y-92671800D01*
X176324479Y-121676865D01*
X175782107Y-121133545D01*
X174802227Y-120726664D01*
X173741228Y-120725738D01*
X172760639Y-121130909D01*
X172009745Y-121880493D01*
X171602864Y-122860373D01*
X171601938Y-123921372D01*
X172007109Y-124901961D01*
X172632056Y-125528000D01*
X135646964Y-125528000D01*
X136219255Y-124956707D01*
X136626136Y-123976827D01*
X136626610Y-123433450D01*
X142716400Y-123433450D01*
X142716400Y-123505350D01*
X142856081Y-124207574D01*
X143253859Y-124802891D01*
X143849176Y-125200669D01*
X144551400Y-125340350D01*
X145253624Y-125200669D01*
X145848941Y-124802891D01*
X146246719Y-124207574D01*
X146386400Y-123505350D01*
X146386400Y-123433450D01*
X146246719Y-122731226D01*
X145848941Y-122135909D01*
X145253624Y-121738131D01*
X144551400Y-121598450D01*
X143849176Y-121738131D01*
X143253859Y-122135909D01*
X142856081Y-122731226D01*
X142716400Y-123433450D01*
X136626610Y-123433450D01*
X136627062Y-122915828D01*
X136221891Y-121935239D01*
X135472307Y-121184345D01*
X134492427Y-120777464D01*
X133431428Y-120776538D01*
X132450839Y-121181709D01*
X132002600Y-121629166D01*
X132002600Y-115885400D01*
X132577560Y-115885400D01*
X132577560Y-117085400D01*
X132621838Y-117320717D01*
X132760910Y-117536841D01*
X132973110Y-117681831D01*
X133225000Y-117732840D01*
X133627308Y-117732840D01*
X135797634Y-119903166D01*
X136165854Y-120149203D01*
X136600200Y-120235600D01*
X159509208Y-120235600D01*
X159616310Y-120402041D01*
X159828510Y-120547031D01*
X160080400Y-120598040D01*
X161280400Y-120598040D01*
X161515717Y-120553762D01*
X161731841Y-120414690D01*
X161835971Y-120262291D01*
X161851275Y-120282533D01*
X162271024Y-120528886D01*
X162362791Y-120544062D01*
X162553400Y-120419331D01*
X162553400Y-119227600D01*
X162807400Y-119227600D01*
X162807400Y-120419331D01*
X162998009Y-120544062D01*
X163089776Y-120528886D01*
X163509525Y-120282533D01*
X163803047Y-119894301D01*
X163925656Y-119423296D01*
X163762947Y-119227600D01*
X162807400Y-119227600D01*
X162553400Y-119227600D01*
X162533400Y-119227600D01*
X162533400Y-118973600D01*
X162553400Y-118973600D01*
X162553400Y-117781869D01*
X162807400Y-117781869D01*
X162807400Y-118973600D01*
X163762947Y-118973600D01*
X163925656Y-118777904D01*
X163803047Y-118306899D01*
X163509525Y-117918667D01*
X163089776Y-117672314D01*
X162998009Y-117657138D01*
X162807400Y-117781869D01*
X162553400Y-117781869D01*
X162362791Y-117657138D01*
X162271024Y-117672314D01*
X161851275Y-117918667D01*
X161835131Y-117940020D01*
X161744490Y-117799159D01*
X161532290Y-117654169D01*
X161280400Y-117603160D01*
X161153984Y-117603160D01*
X161122986Y-117500150D01*
X169024400Y-117500150D01*
X169024400Y-118340709D01*
X169121073Y-118574098D01*
X169299701Y-118752727D01*
X169533090Y-118849400D01*
X170173650Y-118849400D01*
X170332400Y-118690650D01*
X170332400Y-117341400D01*
X170586400Y-117341400D01*
X170586400Y-118690650D01*
X170745150Y-118849400D01*
X171385710Y-118849400D01*
X171619099Y-118752727D01*
X171797727Y-118574098D01*
X171894400Y-118340709D01*
X171894400Y-117500150D01*
X171735650Y-117341400D01*
X170586400Y-117341400D01*
X170332400Y-117341400D01*
X169183150Y-117341400D01*
X169024400Y-117500150D01*
X161122986Y-117500150D01*
X159911469Y-113474188D01*
X159828923Y-111977194D01*
X159862638Y-111895999D01*
X159862962Y-111524033D01*
X159720917Y-111180257D01*
X159458127Y-110917008D01*
X159114599Y-110774362D01*
X158742633Y-110774038D01*
X158398857Y-110916083D01*
X158135608Y-111178873D01*
X157992962Y-111522401D01*
X157992638Y-111894367D01*
X158060756Y-112059226D01*
X158149960Y-113676944D01*
X158176094Y-113778683D01*
X158186158Y-113883241D01*
X159414646Y-117965600D01*
X137070332Y-117965600D01*
X135392440Y-116287708D01*
X135392440Y-115885400D01*
X135348162Y-115650083D01*
X135209090Y-115433959D01*
X134996890Y-115288969D01*
X134745000Y-115237960D01*
X133225000Y-115237960D01*
X132989683Y-115282238D01*
X132773559Y-115421310D01*
X132628569Y-115633510D01*
X132577560Y-115885400D01*
X132002600Y-115885400D01*
X132002600Y-110652378D01*
X132235000Y-110699440D01*
X132850000Y-110699440D01*
X132850000Y-111052122D01*
X132773559Y-111101310D01*
X132628569Y-111313510D01*
X132577560Y-111565400D01*
X132577560Y-112765400D01*
X132621838Y-113000717D01*
X132760910Y-113216841D01*
X132973110Y-113361831D01*
X133225000Y-113412840D01*
X134745000Y-113412840D01*
X134980317Y-113368562D01*
X135196441Y-113229490D01*
X135341431Y-113017290D01*
X135392440Y-112765400D01*
X135392440Y-111565400D01*
X135348162Y-111330083D01*
X135209090Y-111113959D01*
X135120000Y-111053086D01*
X135120000Y-110699440D01*
X135735000Y-110699440D01*
X135970317Y-110655162D01*
X136186441Y-110516090D01*
X136331431Y-110303890D01*
X136382440Y-110052000D01*
X136382440Y-106552000D01*
X136338162Y-106316683D01*
X136199090Y-106100559D01*
X135986890Y-105955569D01*
X135735000Y-105904560D01*
X132235000Y-105904560D01*
X132002600Y-105948289D01*
X132002600Y-103852378D01*
X132235000Y-103899440D01*
X135735000Y-103899440D01*
X135970317Y-103855162D01*
X136186441Y-103716090D01*
X136331431Y-103503890D01*
X136382440Y-103252000D01*
X136382440Y-99752000D01*
X136338162Y-99516683D01*
X136199090Y-99300559D01*
X135986890Y-99155569D01*
X135913421Y-99140691D01*
X136016484Y-99037629D01*
X136317343Y-98913317D01*
X136580592Y-98650527D01*
X136723238Y-98306999D01*
X136723562Y-97935033D01*
X136581517Y-97591257D01*
X136318727Y-97328008D01*
X135975199Y-97185362D01*
X135603233Y-97185038D01*
X135259457Y-97327083D01*
X134996208Y-97589873D01*
X134870516Y-97892571D01*
X134870000Y-97893087D01*
X134870000Y-92836096D01*
X135019517Y-92807962D01*
X135235641Y-92668890D01*
X135380631Y-92456690D01*
X135431640Y-92204800D01*
X135431640Y-90204800D01*
X135387362Y-89969483D01*
X135248290Y-89753359D01*
X135036090Y-89608369D01*
X134784200Y-89557360D01*
X133084200Y-89557360D01*
X132848883Y-89601638D01*
X132632759Y-89740710D01*
X132487769Y-89952910D01*
X132436760Y-90204800D01*
X132436760Y-92204800D01*
X132481038Y-92440117D01*
X132620110Y-92656241D01*
X132832310Y-92801231D01*
X133084200Y-92852240D01*
X133100000Y-92852240D01*
X133100000Y-99104560D01*
X132235000Y-99104560D01*
X132002600Y-99148289D01*
X132002600Y-83372200D01*
X132436760Y-83372200D01*
X132436760Y-85372200D01*
X132481038Y-85607517D01*
X132598762Y-85790466D01*
X132487769Y-85952910D01*
X132436760Y-86204800D01*
X132436760Y-88204800D01*
X132481038Y-88440117D01*
X132620110Y-88656241D01*
X132832310Y-88801231D01*
X133084200Y-88852240D01*
X134784200Y-88852240D01*
X135019517Y-88807962D01*
X135235641Y-88668890D01*
X135380631Y-88456690D01*
X135431640Y-88204800D01*
X135431640Y-86204800D01*
X135387362Y-85969483D01*
X135269638Y-85786534D01*
X135380631Y-85624090D01*
X135431640Y-85372200D01*
X135431640Y-83372200D01*
X135387362Y-83136883D01*
X135248290Y-82920759D01*
X135036090Y-82775769D01*
X134784200Y-82724760D01*
X133084200Y-82724760D01*
X132848883Y-82769038D01*
X132632759Y-82908110D01*
X132487769Y-83120310D01*
X132436760Y-83372200D01*
X132002600Y-83372200D01*
X132002600Y-81102200D01*
X132394201Y-81102200D01*
X132436760Y-81316160D01*
X132436760Y-81372200D01*
X132481038Y-81607517D01*
X132620110Y-81823641D01*
X132832310Y-81968631D01*
X133084200Y-82019640D01*
X134784200Y-82019640D01*
X135019517Y-81975362D01*
X135235641Y-81836290D01*
X135380631Y-81624090D01*
X135431640Y-81372200D01*
X135431640Y-81204130D01*
X135562873Y-81335592D01*
X135906401Y-81478238D01*
X136278367Y-81478562D01*
X136622143Y-81336517D01*
X136885392Y-81073727D01*
X137028038Y-80730199D01*
X137028362Y-80358233D01*
X136886317Y-80014457D01*
X136623527Y-79751208D01*
X136279999Y-79608562D01*
X136154527Y-79608453D01*
X135922000Y-79562200D01*
X135431640Y-79562200D01*
X135431640Y-79372200D01*
X135387362Y-79136883D01*
X135248290Y-78920759D01*
X135036090Y-78775769D01*
X134784200Y-78724760D01*
X133084200Y-78724760D01*
X132848883Y-78769038D01*
X132632759Y-78908110D01*
X132487769Y-79120310D01*
X132436760Y-79372200D01*
X132436760Y-80888240D01*
X132394201Y-81102200D01*
X132002600Y-81102200D01*
X132002600Y-72098150D01*
X155181400Y-72098150D01*
X155181400Y-72938709D01*
X155278073Y-73172098D01*
X155456701Y-73350727D01*
X155690090Y-73447400D01*
X156330650Y-73447400D01*
X156489400Y-73288650D01*
X156489400Y-71939400D01*
X156743400Y-71939400D01*
X156743400Y-73288650D01*
X156902150Y-73447400D01*
X157542710Y-73447400D01*
X157776099Y-73350727D01*
X157954727Y-73172098D01*
X158051400Y-72938709D01*
X158051400Y-72098150D01*
X157892650Y-71939400D01*
X156743400Y-71939400D01*
X156489400Y-71939400D01*
X155340150Y-71939400D01*
X155181400Y-72098150D01*
X132002600Y-72098150D01*
X132002600Y-70686091D01*
X155181400Y-70686091D01*
X155181400Y-71526650D01*
X155340150Y-71685400D01*
X156489400Y-71685400D01*
X156489400Y-70336150D01*
X156330650Y-70177400D01*
X155690090Y-70177400D01*
X155456701Y-70274073D01*
X155278073Y-70452702D01*
X155181400Y-70686091D01*
X132002600Y-70686091D01*
X132002600Y-64882830D01*
X132421493Y-65302455D01*
X133401373Y-65709336D01*
X134462372Y-65710262D01*
X135442961Y-65305091D01*
X136193855Y-64555507D01*
X136600736Y-63575627D01*
X136601662Y-62514628D01*
X136196491Y-61534039D01*
X135822600Y-61159495D01*
X143310485Y-61155330D01*
X142996670Y-61468599D01*
X142716719Y-62142795D01*
X142716082Y-62872803D01*
X142994855Y-63547486D01*
X143510599Y-64064130D01*
X144184795Y-64344081D01*
X144914803Y-64344718D01*
X145589486Y-64065945D01*
X146106130Y-63550201D01*
X146386081Y-62876005D01*
X146386718Y-62145997D01*
X146107945Y-61471314D01*
X145791134Y-61153951D01*
X176277748Y-61136995D01*
X176285040Y-70583401D01*
G36*
X158552400Y-75603090D02*
X158552400Y-76193650D01*
X158711150Y-76352400D01*
X159410400Y-76352400D01*
X159410400Y-76332400D01*
X159664400Y-76332400D01*
X159664400Y-76352400D01*
X159684400Y-76352400D01*
X159684400Y-76606400D01*
X159664400Y-76606400D01*
X159664400Y-77705650D01*
X159823150Y-77864400D01*
X159997400Y-77864400D01*
X159997400Y-78410960D01*
X158378400Y-78410960D01*
X158143083Y-78455238D01*
X157926959Y-78594310D01*
X157781969Y-78806510D01*
X157730960Y-79058400D01*
X157730960Y-80758400D01*
X157775238Y-80993717D01*
X157914310Y-81209841D01*
X158126510Y-81354831D01*
X158378400Y-81405840D01*
X160378400Y-81405840D01*
X160613717Y-81361562D01*
X160829841Y-81222490D01*
X160974831Y-81010290D01*
X161025840Y-80758400D01*
X161025840Y-80718400D01*
X161088912Y-80718400D01*
X161182683Y-80945343D01*
X161445473Y-81208592D01*
X161789001Y-81351238D01*
X161876573Y-81351314D01*
X161024897Y-82202990D01*
X160981562Y-81972683D01*
X160842490Y-81756559D01*
X160630290Y-81611569D01*
X160378400Y-81560560D01*
X158378400Y-81560560D01*
X158143083Y-81604838D01*
X157926959Y-81743910D01*
X157781969Y-81956110D01*
X157730960Y-82208000D01*
X157730960Y-83908000D01*
X157775238Y-84143317D01*
X157914310Y-84359441D01*
X158114537Y-84496251D01*
X158092283Y-84500438D01*
X157876159Y-84639510D01*
X157731169Y-84851710D01*
X157680160Y-85103600D01*
X157680160Y-86803600D01*
X157724438Y-87038917D01*
X157787814Y-87137406D01*
X157513528Y-87411692D01*
X157511117Y-87405857D01*
X157248327Y-87142608D01*
X156932912Y-87011635D01*
X156975040Y-86803600D01*
X156975040Y-85103600D01*
X156930762Y-84868283D01*
X156791690Y-84652159D01*
X156591463Y-84515349D01*
X156613717Y-84511162D01*
X156829841Y-84372090D01*
X156974831Y-84159890D01*
X157025840Y-83908000D01*
X157025840Y-82208000D01*
X156981562Y-81972683D01*
X156842490Y-81756559D01*
X156630290Y-81611569D01*
X156378400Y-81560560D01*
X156263400Y-81560560D01*
X156263400Y-81405840D01*
X156378400Y-81405840D01*
X156613717Y-81361562D01*
X156829841Y-81222490D01*
X156974831Y-81010290D01*
X157025840Y-80758400D01*
X157025840Y-79058400D01*
X156981562Y-78823083D01*
X156842490Y-78606959D01*
X156630290Y-78461969D01*
X156378400Y-78410960D01*
X156188400Y-78410960D01*
X156188400Y-77459840D01*
X157416400Y-77459840D01*
X157651717Y-77415562D01*
X157867841Y-77276490D01*
X158012831Y-77064290D01*
X158052425Y-76868771D01*
X158075943Y-76833573D01*
X158089553Y-76765150D01*
X158552400Y-76765150D01*
X158552400Y-77355710D01*
X158649073Y-77589099D01*
X158827702Y-77767727D01*
X159061091Y-77864400D01*
X159251650Y-77864400D01*
X159410400Y-77705650D01*
X159410400Y-76606400D01*
X158711150Y-76606400D01*
X158552400Y-76765150D01*
X158089553Y-76765150D01*
X158137600Y-76523600D01*
X158075943Y-76213627D01*
X158063840Y-76195514D01*
X158063840Y-75669473D01*
X158348913Y-75384400D01*
X158642984Y-75384400D01*
X158552400Y-75603090D01*
X158552400Y-75603090D01*
G37*
X158552400Y-75603090D02*
X158552400Y-76193650D01*
X158711150Y-76352400D01*
X159410400Y-76352400D01*
X159410400Y-76332400D01*
X159664400Y-76332400D01*
X159664400Y-76352400D01*
X159684400Y-76352400D01*
X159684400Y-76606400D01*
X159664400Y-76606400D01*
X159664400Y-77705650D01*
X159823150Y-77864400D01*
X159997400Y-77864400D01*
X159997400Y-78410960D01*
X158378400Y-78410960D01*
X158143083Y-78455238D01*
X157926959Y-78594310D01*
X157781969Y-78806510D01*
X157730960Y-79058400D01*
X157730960Y-80758400D01*
X157775238Y-80993717D01*
X157914310Y-81209841D01*
X158126510Y-81354831D01*
X158378400Y-81405840D01*
X160378400Y-81405840D01*
X160613717Y-81361562D01*
X160829841Y-81222490D01*
X160974831Y-81010290D01*
X161025840Y-80758400D01*
X161025840Y-80718400D01*
X161088912Y-80718400D01*
X161182683Y-80945343D01*
X161445473Y-81208592D01*
X161789001Y-81351238D01*
X161876573Y-81351314D01*
X161024897Y-82202990D01*
X160981562Y-81972683D01*
X160842490Y-81756559D01*
X160630290Y-81611569D01*
X160378400Y-81560560D01*
X158378400Y-81560560D01*
X158143083Y-81604838D01*
X157926959Y-81743910D01*
X157781969Y-81956110D01*
X157730960Y-82208000D01*
X157730960Y-83908000D01*
X157775238Y-84143317D01*
X157914310Y-84359441D01*
X158114537Y-84496251D01*
X158092283Y-84500438D01*
X157876159Y-84639510D01*
X157731169Y-84851710D01*
X157680160Y-85103600D01*
X157680160Y-86803600D01*
X157724438Y-87038917D01*
X157787814Y-87137406D01*
X157513528Y-87411692D01*
X157511117Y-87405857D01*
X157248327Y-87142608D01*
X156932912Y-87011635D01*
X156975040Y-86803600D01*
X156975040Y-85103600D01*
X156930762Y-84868283D01*
X156791690Y-84652159D01*
X156591463Y-84515349D01*
X156613717Y-84511162D01*
X156829841Y-84372090D01*
X156974831Y-84159890D01*
X157025840Y-83908000D01*
X157025840Y-82208000D01*
X156981562Y-81972683D01*
X156842490Y-81756559D01*
X156630290Y-81611569D01*
X156378400Y-81560560D01*
X156263400Y-81560560D01*
X156263400Y-81405840D01*
X156378400Y-81405840D01*
X156613717Y-81361562D01*
X156829841Y-81222490D01*
X156974831Y-81010290D01*
X157025840Y-80758400D01*
X157025840Y-79058400D01*
X156981562Y-78823083D01*
X156842490Y-78606959D01*
X156630290Y-78461969D01*
X156378400Y-78410960D01*
X156188400Y-78410960D01*
X156188400Y-77459840D01*
X157416400Y-77459840D01*
X157651717Y-77415562D01*
X157867841Y-77276490D01*
X158012831Y-77064290D01*
X158052425Y-76868771D01*
X158075943Y-76833573D01*
X158089553Y-76765150D01*
X158552400Y-76765150D01*
X158552400Y-77355710D01*
X158649073Y-77589099D01*
X158827702Y-77767727D01*
X159061091Y-77864400D01*
X159251650Y-77864400D01*
X159410400Y-77705650D01*
X159410400Y-76606400D01*
X158711150Y-76606400D01*
X158552400Y-76765150D01*
X158089553Y-76765150D01*
X158137600Y-76523600D01*
X158075943Y-76213627D01*
X158063840Y-76195514D01*
X158063840Y-75669473D01*
X158348913Y-75384400D01*
X158642984Y-75384400D01*
X158552400Y-75603090D01*
M02*
