G04 #@! TF.FileFunction,Legend,Bot*
%FSLAX46Y46*%
G04 Gerber Fmt 4.6, Leading zero omitted, Abs format (unit mm)*
G04 Created by KiCad (PCBNEW 4.0.7) date 12/03/17 16:36:58*
%MOMM*%
%LPD*%
G01*
G04 APERTURE LIST*
%ADD10C,0.100000*%
%ADD11C,0.300000*%
G04 APERTURE END LIST*
D10*
D11*
X147261971Y-69025112D02*
X145761971Y-69025112D01*
X147261971Y-69667969D02*
X146476257Y-69667969D01*
X146333400Y-69596540D01*
X146261971Y-69453683D01*
X146261971Y-69239398D01*
X146333400Y-69096540D01*
X146404829Y-69025112D01*
X146261971Y-70167969D02*
X146261971Y-70739398D01*
X145761971Y-70382255D02*
X147047686Y-70382255D01*
X147190543Y-70453683D01*
X147261971Y-70596541D01*
X147261971Y-70739398D01*
X146261971Y-71025112D02*
X146261971Y-71596541D01*
X145761971Y-71239398D02*
X147047686Y-71239398D01*
X147190543Y-71310826D01*
X147261971Y-71453684D01*
X147261971Y-71596541D01*
X146261971Y-72096541D02*
X147761971Y-72096541D01*
X146333400Y-72096541D02*
X146261971Y-72239398D01*
X146261971Y-72525112D01*
X146333400Y-72667969D01*
X146404829Y-72739398D01*
X146547686Y-72810827D01*
X146976257Y-72810827D01*
X147119114Y-72739398D01*
X147190543Y-72667969D01*
X147261971Y-72525112D01*
X147261971Y-72239398D01*
X147190543Y-72096541D01*
X147190543Y-73382255D02*
X147261971Y-73525112D01*
X147261971Y-73810827D01*
X147190543Y-73953684D01*
X147047686Y-74025112D01*
X146976257Y-74025112D01*
X146833400Y-73953684D01*
X146761971Y-73810827D01*
X146761971Y-73596541D01*
X146690543Y-73453684D01*
X146547686Y-73382255D01*
X146476257Y-73382255D01*
X146333400Y-73453684D01*
X146261971Y-73596541D01*
X146261971Y-73810827D01*
X146333400Y-73953684D01*
X147119114Y-74667970D02*
X147190543Y-74739398D01*
X147261971Y-74667970D01*
X147190543Y-74596541D01*
X147119114Y-74667970D01*
X147261971Y-74667970D01*
X146333400Y-74667970D02*
X146404829Y-74739398D01*
X146476257Y-74667970D01*
X146404829Y-74596541D01*
X146333400Y-74667970D01*
X146476257Y-74667970D01*
X145690543Y-76453684D02*
X147619114Y-75167970D01*
X145690543Y-78025113D02*
X147619114Y-76739399D01*
X146261971Y-79167971D02*
X147476257Y-79167971D01*
X147619114Y-79096542D01*
X147690543Y-79025114D01*
X147761971Y-78882257D01*
X147761971Y-78667971D01*
X147690543Y-78525114D01*
X147190543Y-79167971D02*
X147261971Y-79025114D01*
X147261971Y-78739400D01*
X147190543Y-78596542D01*
X147119114Y-78525114D01*
X146976257Y-78453685D01*
X146547686Y-78453685D01*
X146404829Y-78525114D01*
X146333400Y-78596542D01*
X146261971Y-78739400D01*
X146261971Y-79025114D01*
X146333400Y-79167971D01*
X147261971Y-79882257D02*
X146261971Y-79882257D01*
X145761971Y-79882257D02*
X145833400Y-79810828D01*
X145904829Y-79882257D01*
X145833400Y-79953685D01*
X145761971Y-79882257D01*
X145904829Y-79882257D01*
X146261971Y-80382257D02*
X146261971Y-80953686D01*
X145761971Y-80596543D02*
X147047686Y-80596543D01*
X147190543Y-80667971D01*
X147261971Y-80810829D01*
X147261971Y-80953686D01*
X147261971Y-81453686D02*
X145761971Y-81453686D01*
X147261971Y-82096543D02*
X146476257Y-82096543D01*
X146333400Y-82025114D01*
X146261971Y-81882257D01*
X146261971Y-81667972D01*
X146333400Y-81525114D01*
X146404829Y-81453686D01*
X146261971Y-83453686D02*
X147261971Y-83453686D01*
X146261971Y-82810829D02*
X147047686Y-82810829D01*
X147190543Y-82882257D01*
X147261971Y-83025115D01*
X147261971Y-83239400D01*
X147190543Y-83382257D01*
X147119114Y-83453686D01*
X147261971Y-84167972D02*
X145761971Y-84167972D01*
X146333400Y-84167972D02*
X146261971Y-84310829D01*
X146261971Y-84596543D01*
X146333400Y-84739400D01*
X146404829Y-84810829D01*
X146547686Y-84882258D01*
X146976257Y-84882258D01*
X147119114Y-84810829D01*
X147190543Y-84739400D01*
X147261971Y-84596543D01*
X147261971Y-84310829D01*
X147190543Y-84167972D01*
X147119114Y-85525115D02*
X147190543Y-85596543D01*
X147261971Y-85525115D01*
X147190543Y-85453686D01*
X147119114Y-85525115D01*
X147261971Y-85525115D01*
X147190543Y-86882258D02*
X147261971Y-86739401D01*
X147261971Y-86453687D01*
X147190543Y-86310829D01*
X147119114Y-86239401D01*
X146976257Y-86167972D01*
X146547686Y-86167972D01*
X146404829Y-86239401D01*
X146333400Y-86310829D01*
X146261971Y-86453687D01*
X146261971Y-86739401D01*
X146333400Y-86882258D01*
X147261971Y-87739401D02*
X147190543Y-87596543D01*
X147119114Y-87525115D01*
X146976257Y-87453686D01*
X146547686Y-87453686D01*
X146404829Y-87525115D01*
X146333400Y-87596543D01*
X146261971Y-87739401D01*
X146261971Y-87953686D01*
X146333400Y-88096543D01*
X146404829Y-88167972D01*
X146547686Y-88239401D01*
X146976257Y-88239401D01*
X147119114Y-88167972D01*
X147190543Y-88096543D01*
X147261971Y-87953686D01*
X147261971Y-87739401D01*
X147261971Y-88882258D02*
X146261971Y-88882258D01*
X146404829Y-88882258D02*
X146333400Y-88953686D01*
X146261971Y-89096544D01*
X146261971Y-89310829D01*
X146333400Y-89453686D01*
X146476257Y-89525115D01*
X147261971Y-89525115D01*
X146476257Y-89525115D02*
X146333400Y-89596544D01*
X146261971Y-89739401D01*
X146261971Y-89953686D01*
X146333400Y-90096544D01*
X146476257Y-90167972D01*
X147261971Y-90167972D01*
X145690543Y-91953686D02*
X147619114Y-90667972D01*
X147190543Y-92382258D02*
X147261971Y-92525115D01*
X147261971Y-92810830D01*
X147190543Y-92953687D01*
X147047686Y-93025115D01*
X146976257Y-93025115D01*
X146833400Y-92953687D01*
X146761971Y-92810830D01*
X146761971Y-92596544D01*
X146690543Y-92453687D01*
X146547686Y-92382258D01*
X146476257Y-92382258D01*
X146333400Y-92453687D01*
X146261971Y-92596544D01*
X146261971Y-92810830D01*
X146333400Y-92953687D01*
X146261971Y-93453687D02*
X146261971Y-94025116D01*
X145761971Y-93667973D02*
X147047686Y-93667973D01*
X147190543Y-93739401D01*
X147261971Y-93882259D01*
X147261971Y-94025116D01*
X146261971Y-95167973D02*
X147261971Y-95167973D01*
X146261971Y-94525116D02*
X147047686Y-94525116D01*
X147190543Y-94596544D01*
X147261971Y-94739402D01*
X147261971Y-94953687D01*
X147190543Y-95096544D01*
X147119114Y-95167973D01*
X147261971Y-96525116D02*
X146476257Y-96525116D01*
X146333400Y-96453687D01*
X146261971Y-96310830D01*
X146261971Y-96025116D01*
X146333400Y-95882259D01*
X147190543Y-96525116D02*
X147261971Y-96382259D01*
X147261971Y-96025116D01*
X147190543Y-95882259D01*
X147047686Y-95810830D01*
X146904829Y-95810830D01*
X146761971Y-95882259D01*
X146690543Y-96025116D01*
X146690543Y-96382259D01*
X146619114Y-96525116D01*
X147261971Y-97239402D02*
X146261971Y-97239402D01*
X146547686Y-97239402D02*
X146404829Y-97310830D01*
X146333400Y-97382259D01*
X146261971Y-97525116D01*
X146261971Y-97667973D01*
X146261971Y-97953687D02*
X146261971Y-98525116D01*
X145761971Y-98167973D02*
X147047686Y-98167973D01*
X147190543Y-98239401D01*
X147261971Y-98382259D01*
X147261971Y-98525116D01*
X146261971Y-99025116D02*
X147761971Y-99025116D01*
X146333400Y-99025116D02*
X146261971Y-99167973D01*
X146261971Y-99453687D01*
X146333400Y-99596544D01*
X146404829Y-99667973D01*
X146547686Y-99739402D01*
X146976257Y-99739402D01*
X147119114Y-99667973D01*
X147190543Y-99596544D01*
X147261971Y-99453687D01*
X147261971Y-99167973D01*
X147190543Y-99025116D01*
X147261971Y-100382259D02*
X146261971Y-100382259D01*
X145761971Y-100382259D02*
X145833400Y-100310830D01*
X145904829Y-100382259D01*
X145833400Y-100453687D01*
X145761971Y-100382259D01*
X145904829Y-100382259D01*
X146261971Y-100882259D02*
X146261971Y-101453688D01*
X145761971Y-101096545D02*
X147047686Y-101096545D01*
X147190543Y-101167973D01*
X147261971Y-101310831D01*
X147261971Y-101453688D01*
X146261971Y-101739402D02*
X146261971Y-102310831D01*
X145761971Y-101953688D02*
X147047686Y-101953688D01*
X147190543Y-102025116D01*
X147261971Y-102167974D01*
X147261971Y-102310831D01*
X147261971Y-103453688D02*
X146476257Y-103453688D01*
X146333400Y-103382259D01*
X146261971Y-103239402D01*
X146261971Y-102953688D01*
X146333400Y-102810831D01*
X147190543Y-103453688D02*
X147261971Y-103310831D01*
X147261971Y-102953688D01*
X147190543Y-102810831D01*
X147047686Y-102739402D01*
X146904829Y-102739402D01*
X146761971Y-102810831D01*
X146690543Y-102953688D01*
X146690543Y-103310831D01*
X146619114Y-103453688D01*
X146261971Y-104025117D02*
X147261971Y-104310831D01*
X146547686Y-104596545D01*
X147261971Y-104882260D01*
X146261971Y-105167974D01*
X147261971Y-106382260D02*
X146476257Y-106382260D01*
X146333400Y-106310831D01*
X146261971Y-106167974D01*
X146261971Y-105882260D01*
X146333400Y-105739403D01*
X147190543Y-106382260D02*
X147261971Y-106239403D01*
X147261971Y-105882260D01*
X147190543Y-105739403D01*
X147047686Y-105667974D01*
X146904829Y-105667974D01*
X146761971Y-105739403D01*
X146690543Y-105882260D01*
X146690543Y-106239403D01*
X146619114Y-106382260D01*
X146261971Y-106953689D02*
X147261971Y-107310832D01*
X146261971Y-107667974D02*
X147261971Y-107310832D01*
X147619114Y-107167974D01*
X147690543Y-107096546D01*
X147761971Y-106953689D01*
X145690543Y-109310831D02*
X147619114Y-108025117D01*
X147261971Y-110453689D02*
X145761971Y-110453689D01*
X147190543Y-110453689D02*
X147261971Y-110310832D01*
X147261971Y-110025118D01*
X147190543Y-109882260D01*
X147119114Y-109810832D01*
X146976257Y-109739403D01*
X146547686Y-109739403D01*
X146404829Y-109810832D01*
X146333400Y-109882260D01*
X146261971Y-110025118D01*
X146261971Y-110310832D01*
X146333400Y-110453689D01*
X147261971Y-111167975D02*
X146261971Y-111167975D01*
X145761971Y-111167975D02*
X145833400Y-111096546D01*
X145904829Y-111167975D01*
X145833400Y-111239403D01*
X145761971Y-111167975D01*
X145904829Y-111167975D01*
X146261971Y-111739404D02*
X147261971Y-112096547D01*
X146261971Y-112453689D02*
X147261971Y-112096547D01*
X147619114Y-111953689D01*
X147690543Y-111882261D01*
X147761971Y-111739404D01*
X146476257Y-113525118D02*
X146547686Y-113739404D01*
X146619114Y-113810832D01*
X146761971Y-113882261D01*
X146976257Y-113882261D01*
X147119114Y-113810832D01*
X147190543Y-113739404D01*
X147261971Y-113596546D01*
X147261971Y-113025118D01*
X145761971Y-113025118D01*
X145761971Y-113525118D01*
X145833400Y-113667975D01*
X145904829Y-113739404D01*
X146047686Y-113810832D01*
X146190543Y-113810832D01*
X146333400Y-113739404D01*
X146404829Y-113667975D01*
X146476257Y-113525118D01*
X146476257Y-113025118D01*
X147261971Y-114525118D02*
X145761971Y-114525118D01*
X146833400Y-115025118D01*
X145761971Y-115525118D01*
X147261971Y-115525118D01*
X147190543Y-116167975D02*
X147261971Y-116382261D01*
X147261971Y-116739404D01*
X147190543Y-116882261D01*
X147119114Y-116953690D01*
X146976257Y-117025118D01*
X146833400Y-117025118D01*
X146690543Y-116953690D01*
X146619114Y-116882261D01*
X146547686Y-116739404D01*
X146476257Y-116453690D01*
X146404829Y-116310832D01*
X146333400Y-116239404D01*
X146190543Y-116167975D01*
X146047686Y-116167975D01*
X145904829Y-116239404D01*
X145833400Y-116310832D01*
X145761971Y-116453690D01*
X145761971Y-116810832D01*
X145833400Y-117025118D01*
X152126000Y-78054229D02*
X152054571Y-77982801D01*
X151840286Y-77839944D01*
X151697429Y-77768515D01*
X151483143Y-77697086D01*
X151126000Y-77625658D01*
X150840286Y-77625658D01*
X150483143Y-77697086D01*
X150268857Y-77768515D01*
X150126000Y-77839944D01*
X149911714Y-77982801D01*
X149840286Y-78054229D01*
X151483143Y-79268515D02*
X151554571Y-79125658D01*
X151554571Y-78839944D01*
X151483143Y-78697086D01*
X151411714Y-78625658D01*
X151268857Y-78554229D01*
X150840286Y-78554229D01*
X150697429Y-78625658D01*
X150626000Y-78697086D01*
X150554571Y-78839944D01*
X150554571Y-79125658D01*
X150626000Y-79268515D01*
X152126000Y-79768515D02*
X152054571Y-79839943D01*
X151840286Y-79982800D01*
X151697429Y-80054229D01*
X151483143Y-80125658D01*
X151126000Y-80197086D01*
X150840286Y-80197086D01*
X150483143Y-80125658D01*
X150268857Y-80054229D01*
X150126000Y-79982800D01*
X149911714Y-79839943D01*
X149840286Y-79768515D01*
X150197429Y-80839943D02*
X150126000Y-80911372D01*
X150054571Y-81054229D01*
X150054571Y-81411372D01*
X150126000Y-81554229D01*
X150197429Y-81625658D01*
X150340286Y-81697086D01*
X150483143Y-81697086D01*
X150697429Y-81625658D01*
X151554571Y-80768515D01*
X151554571Y-81697086D01*
X150054571Y-82625657D02*
X150054571Y-82768514D01*
X150126000Y-82911371D01*
X150197429Y-82982800D01*
X150340286Y-83054229D01*
X150626000Y-83125657D01*
X150983143Y-83125657D01*
X151268857Y-83054229D01*
X151411714Y-82982800D01*
X151483143Y-82911371D01*
X151554571Y-82768514D01*
X151554571Y-82625657D01*
X151483143Y-82482800D01*
X151411714Y-82411371D01*
X151268857Y-82339943D01*
X150983143Y-82268514D01*
X150626000Y-82268514D01*
X150340286Y-82339943D01*
X150197429Y-82411371D01*
X150126000Y-82482800D01*
X150054571Y-82625657D01*
X151554571Y-84554228D02*
X151554571Y-83697085D01*
X151554571Y-84125657D02*
X150054571Y-84125657D01*
X150268857Y-83982800D01*
X150411714Y-83839942D01*
X150483143Y-83697085D01*
X150054571Y-85054228D02*
X150054571Y-86054228D01*
X151554571Y-85411371D01*
X151483143Y-87697084D02*
X151554571Y-87911370D01*
X151554571Y-88268513D01*
X151483143Y-88411370D01*
X151411714Y-88482799D01*
X151268857Y-88554227D01*
X151126000Y-88554227D01*
X150983143Y-88482799D01*
X150911714Y-88411370D01*
X150840286Y-88268513D01*
X150768857Y-87982799D01*
X150697429Y-87839941D01*
X150626000Y-87768513D01*
X150483143Y-87697084D01*
X150340286Y-87697084D01*
X150197429Y-87768513D01*
X150126000Y-87839941D01*
X150054571Y-87982799D01*
X150054571Y-88339941D01*
X150126000Y-88554227D01*
X150554571Y-88982798D02*
X150554571Y-89554227D01*
X150054571Y-89197084D02*
X151340286Y-89197084D01*
X151483143Y-89268512D01*
X151554571Y-89411370D01*
X151554571Y-89554227D01*
X150554571Y-90697084D02*
X151554571Y-90697084D01*
X150554571Y-90054227D02*
X151340286Y-90054227D01*
X151483143Y-90125655D01*
X151554571Y-90268513D01*
X151554571Y-90482798D01*
X151483143Y-90625655D01*
X151411714Y-90697084D01*
X151554571Y-92054227D02*
X150768857Y-92054227D01*
X150626000Y-91982798D01*
X150554571Y-91839941D01*
X150554571Y-91554227D01*
X150626000Y-91411370D01*
X151483143Y-92054227D02*
X151554571Y-91911370D01*
X151554571Y-91554227D01*
X151483143Y-91411370D01*
X151340286Y-91339941D01*
X151197429Y-91339941D01*
X151054571Y-91411370D01*
X150983143Y-91554227D01*
X150983143Y-91911370D01*
X150911714Y-92054227D01*
X151554571Y-92768513D02*
X150554571Y-92768513D01*
X150840286Y-92768513D02*
X150697429Y-92839941D01*
X150626000Y-92911370D01*
X150554571Y-93054227D01*
X150554571Y-93197084D01*
X150554571Y-93482798D02*
X150554571Y-94054227D01*
X150054571Y-93697084D02*
X151340286Y-93697084D01*
X151483143Y-93768512D01*
X151554571Y-93911370D01*
X151554571Y-94054227D01*
X151554571Y-95697084D02*
X150054571Y-95697084D01*
X150054571Y-96268512D01*
X150126000Y-96411370D01*
X150197429Y-96482798D01*
X150340286Y-96554227D01*
X150554571Y-96554227D01*
X150697429Y-96482798D01*
X150768857Y-96411370D01*
X150840286Y-96268512D01*
X150840286Y-95697084D01*
X151554571Y-97197084D02*
X150554571Y-97197084D01*
X150054571Y-97197084D02*
X150126000Y-97125655D01*
X150197429Y-97197084D01*
X150126000Y-97268512D01*
X150054571Y-97197084D01*
X150197429Y-97197084D01*
X150554571Y-97697084D02*
X150554571Y-98268513D01*
X150054571Y-97911370D02*
X151340286Y-97911370D01*
X151483143Y-97982798D01*
X151554571Y-98125656D01*
X151554571Y-98268513D01*
X150554571Y-98554227D02*
X150554571Y-99125656D01*
X150054571Y-98768513D02*
X151340286Y-98768513D01*
X151483143Y-98839941D01*
X151554571Y-98982799D01*
X151554571Y-99125656D01*
X151554571Y-100268513D02*
X150768857Y-100268513D01*
X150626000Y-100197084D01*
X150554571Y-100054227D01*
X150554571Y-99768513D01*
X150626000Y-99625656D01*
X151483143Y-100268513D02*
X151554571Y-100125656D01*
X151554571Y-99768513D01*
X151483143Y-99625656D01*
X151340286Y-99554227D01*
X151197429Y-99554227D01*
X151054571Y-99625656D01*
X150983143Y-99768513D01*
X150983143Y-100125656D01*
X150911714Y-100268513D01*
X150554571Y-100839942D02*
X151554571Y-101125656D01*
X150840286Y-101411370D01*
X151554571Y-101697085D01*
X150554571Y-101982799D01*
X151554571Y-103197085D02*
X150768857Y-103197085D01*
X150626000Y-103125656D01*
X150554571Y-102982799D01*
X150554571Y-102697085D01*
X150626000Y-102554228D01*
X151483143Y-103197085D02*
X151554571Y-103054228D01*
X151554571Y-102697085D01*
X151483143Y-102554228D01*
X151340286Y-102482799D01*
X151197429Y-102482799D01*
X151054571Y-102554228D01*
X150983143Y-102697085D01*
X150983143Y-103054228D01*
X150911714Y-103197085D01*
X150554571Y-103768514D02*
X151554571Y-104125657D01*
X150554571Y-104482799D02*
X151554571Y-104125657D01*
X151911714Y-103982799D01*
X151983143Y-103911371D01*
X152054571Y-103768514D01*
M02*
