G04 #@! TF.FileFunction,Legend,Top*
%FSLAX46Y46*%
G04 Gerber Fmt 4.6, Leading zero omitted, Abs format (unit mm)*
G04 Created by KiCad (PCBNEW 4.0.7) date 03/15/18 17:26:36*
%MOMM*%
%LPD*%
G01*
G04 APERTURE LIST*
%ADD10C,0.100000*%
%ADD11C,0.250000*%
%ADD12C,0.300000*%
%ADD13C,0.200000*%
%ADD14C,0.120000*%
%ADD15C,0.150000*%
%ADD16C,0.350000*%
%ADD17C,0.125000*%
G04 APERTURE END LIST*
D10*
D11*
X169692581Y-83534285D02*
X169692581Y-84105714D01*
X169692581Y-83820000D02*
X168692581Y-83820000D01*
X168835438Y-83915238D01*
X168930676Y-84010476D01*
X168978295Y-84105714D01*
D12*
X161999172Y-82415771D02*
X161999172Y-80915771D01*
X162570600Y-80915771D01*
X162713458Y-80987200D01*
X162784886Y-81058629D01*
X162856315Y-81201486D01*
X162856315Y-81415771D01*
X162784886Y-81558629D01*
X162713458Y-81630057D01*
X162570600Y-81701486D01*
X161999172Y-81701486D01*
X163499172Y-82415771D02*
X163499172Y-80915771D01*
X164213458Y-82415771D02*
X164213458Y-80915771D01*
X165070601Y-82415771D01*
X165070601Y-80915771D01*
X167713458Y-82415771D02*
X166856315Y-82415771D01*
X167284887Y-82415771D02*
X167284887Y-80915771D01*
X167142030Y-81130057D01*
X166999172Y-81272914D01*
X166856315Y-81344343D01*
D11*
X175144181Y-119397944D02*
X176144181Y-119064611D01*
X175144181Y-118731277D01*
X176096562Y-118016991D02*
X176144181Y-118112229D01*
X176144181Y-118302706D01*
X176096562Y-118397944D01*
X176001324Y-118445563D01*
X175620371Y-118445563D01*
X175525133Y-118397944D01*
X175477514Y-118302706D01*
X175477514Y-118112229D01*
X175525133Y-118016991D01*
X175620371Y-117969372D01*
X175715610Y-117969372D01*
X175810848Y-118445563D01*
X176144181Y-117540801D02*
X175477514Y-117540801D01*
X175667990Y-117540801D02*
X175572752Y-117493182D01*
X175525133Y-117445563D01*
X175477514Y-117350325D01*
X175477514Y-117255086D01*
X176096562Y-116969372D02*
X176144181Y-116874134D01*
X176144181Y-116683658D01*
X176096562Y-116588419D01*
X176001324Y-116540800D01*
X175953705Y-116540800D01*
X175858467Y-116588419D01*
X175810848Y-116683658D01*
X175810848Y-116826515D01*
X175763229Y-116921753D01*
X175667990Y-116969372D01*
X175620371Y-116969372D01*
X175525133Y-116921753D01*
X175477514Y-116826515D01*
X175477514Y-116683658D01*
X175525133Y-116588419D01*
X176144181Y-116112229D02*
X175477514Y-116112229D01*
X175144181Y-116112229D02*
X175191800Y-116159848D01*
X175239419Y-116112229D01*
X175191800Y-116064610D01*
X175144181Y-116112229D01*
X175239419Y-116112229D01*
X176144181Y-115493182D02*
X176096562Y-115588420D01*
X176048943Y-115636039D01*
X175953705Y-115683658D01*
X175667990Y-115683658D01*
X175572752Y-115636039D01*
X175525133Y-115588420D01*
X175477514Y-115493182D01*
X175477514Y-115350324D01*
X175525133Y-115255086D01*
X175572752Y-115207467D01*
X175667990Y-115159848D01*
X175953705Y-115159848D01*
X176048943Y-115207467D01*
X176096562Y-115255086D01*
X176144181Y-115350324D01*
X176144181Y-115493182D01*
X175477514Y-114731277D02*
X176144181Y-114731277D01*
X175572752Y-114731277D02*
X175525133Y-114683658D01*
X175477514Y-114588420D01*
X175477514Y-114445562D01*
X175525133Y-114350324D01*
X175620371Y-114302705D01*
X176144181Y-114302705D01*
X175239419Y-113112229D02*
X175191800Y-113064610D01*
X175144181Y-112969372D01*
X175144181Y-112731276D01*
X175191800Y-112636038D01*
X175239419Y-112588419D01*
X175334657Y-112540800D01*
X175429895Y-112540800D01*
X175572752Y-112588419D01*
X176144181Y-113159848D01*
X176144181Y-112540800D01*
X176048943Y-112112229D02*
X176096562Y-112064610D01*
X176144181Y-112112229D01*
X176096562Y-112159848D01*
X176048943Y-112112229D01*
X176144181Y-112112229D01*
X176144181Y-111112229D02*
X176144181Y-111683658D01*
X176144181Y-111397944D02*
X175144181Y-111397944D01*
X175287038Y-111493182D01*
X175382276Y-111588420D01*
X175429895Y-111683658D01*
X176525133Y-109636038D02*
X176477514Y-109683658D01*
X176334657Y-109778896D01*
X176239419Y-109826515D01*
X176096562Y-109874134D01*
X175858467Y-109921753D01*
X175667990Y-109921753D01*
X175429895Y-109874134D01*
X175287038Y-109826515D01*
X175191800Y-109778896D01*
X175048943Y-109683658D01*
X175001324Y-109636038D01*
X176144181Y-109255086D02*
X175144181Y-109255086D01*
X175858467Y-108921752D01*
X175144181Y-108588419D01*
X176144181Y-108588419D01*
X176144181Y-107683657D02*
X175620371Y-107683657D01*
X175525133Y-107731276D01*
X175477514Y-107826514D01*
X175477514Y-108016991D01*
X175525133Y-108112229D01*
X176096562Y-107683657D02*
X176144181Y-107778895D01*
X176144181Y-108016991D01*
X176096562Y-108112229D01*
X176001324Y-108159848D01*
X175906086Y-108159848D01*
X175810848Y-108112229D01*
X175763229Y-108016991D01*
X175763229Y-107778895D01*
X175715610Y-107683657D01*
X176144181Y-107207467D02*
X175477514Y-107207467D01*
X175667990Y-107207467D02*
X175572752Y-107159848D01*
X175525133Y-107112229D01*
X175477514Y-107016991D01*
X175477514Y-106921752D01*
X175239419Y-105874133D02*
X175191800Y-105826514D01*
X175144181Y-105731276D01*
X175144181Y-105493180D01*
X175191800Y-105397942D01*
X175239419Y-105350323D01*
X175334657Y-105302704D01*
X175429895Y-105302704D01*
X175572752Y-105350323D01*
X176144181Y-105921752D01*
X176144181Y-105302704D01*
X175144181Y-104683657D02*
X175144181Y-104588418D01*
X175191800Y-104493180D01*
X175239419Y-104445561D01*
X175334657Y-104397942D01*
X175525133Y-104350323D01*
X175763229Y-104350323D01*
X175953705Y-104397942D01*
X176048943Y-104445561D01*
X176096562Y-104493180D01*
X176144181Y-104588418D01*
X176144181Y-104683657D01*
X176096562Y-104778895D01*
X176048943Y-104826514D01*
X175953705Y-104874133D01*
X175763229Y-104921752D01*
X175525133Y-104921752D01*
X175334657Y-104874133D01*
X175239419Y-104826514D01*
X175191800Y-104778895D01*
X175144181Y-104683657D01*
X176144181Y-103397942D02*
X176144181Y-103969371D01*
X176144181Y-103683657D02*
X175144181Y-103683657D01*
X175287038Y-103778895D01*
X175382276Y-103874133D01*
X175429895Y-103969371D01*
X175572752Y-102826514D02*
X175525133Y-102921752D01*
X175477514Y-102969371D01*
X175382276Y-103016990D01*
X175334657Y-103016990D01*
X175239419Y-102969371D01*
X175191800Y-102921752D01*
X175144181Y-102826514D01*
X175144181Y-102636037D01*
X175191800Y-102540799D01*
X175239419Y-102493180D01*
X175334657Y-102445561D01*
X175382276Y-102445561D01*
X175477514Y-102493180D01*
X175525133Y-102540799D01*
X175572752Y-102636037D01*
X175572752Y-102826514D01*
X175620371Y-102921752D01*
X175667990Y-102969371D01*
X175763229Y-103016990D01*
X175953705Y-103016990D01*
X176048943Y-102969371D01*
X176096562Y-102921752D01*
X176144181Y-102826514D01*
X176144181Y-102636037D01*
X176096562Y-102540799D01*
X176048943Y-102493180D01*
X175953705Y-102445561D01*
X175763229Y-102445561D01*
X175667990Y-102493180D01*
X175620371Y-102540799D01*
X175572752Y-102636037D01*
X176525133Y-102112228D02*
X176477514Y-102064609D01*
X176334657Y-101969371D01*
X176239419Y-101921752D01*
X176096562Y-101874133D01*
X175858467Y-101826514D01*
X175667990Y-101826514D01*
X175429895Y-101874133D01*
X175287038Y-101921752D01*
X175191800Y-101969371D01*
X175048943Y-102064609D01*
X175001324Y-102112228D01*
D12*
X138752971Y-115759888D02*
X137252971Y-115759888D01*
X138752971Y-115117031D02*
X137967257Y-115117031D01*
X137824400Y-115188460D01*
X137752971Y-115331317D01*
X137752971Y-115545602D01*
X137824400Y-115688460D01*
X137895829Y-115759888D01*
X137752971Y-114617031D02*
X137752971Y-114045602D01*
X137252971Y-114402745D02*
X138538686Y-114402745D01*
X138681543Y-114331317D01*
X138752971Y-114188459D01*
X138752971Y-114045602D01*
X137752971Y-113759888D02*
X137752971Y-113188459D01*
X137252971Y-113545602D02*
X138538686Y-113545602D01*
X138681543Y-113474174D01*
X138752971Y-113331316D01*
X138752971Y-113188459D01*
X137752971Y-112688459D02*
X139252971Y-112688459D01*
X137824400Y-112688459D02*
X137752971Y-112545602D01*
X137752971Y-112259888D01*
X137824400Y-112117031D01*
X137895829Y-112045602D01*
X138038686Y-111974173D01*
X138467257Y-111974173D01*
X138610114Y-112045602D01*
X138681543Y-112117031D01*
X138752971Y-112259888D01*
X138752971Y-112545602D01*
X138681543Y-112688459D01*
X138681543Y-111402745D02*
X138752971Y-111259888D01*
X138752971Y-110974173D01*
X138681543Y-110831316D01*
X138538686Y-110759888D01*
X138467257Y-110759888D01*
X138324400Y-110831316D01*
X138252971Y-110974173D01*
X138252971Y-111188459D01*
X138181543Y-111331316D01*
X138038686Y-111402745D01*
X137967257Y-111402745D01*
X137824400Y-111331316D01*
X137752971Y-111188459D01*
X137752971Y-110974173D01*
X137824400Y-110831316D01*
X138610114Y-110117030D02*
X138681543Y-110045602D01*
X138752971Y-110117030D01*
X138681543Y-110188459D01*
X138610114Y-110117030D01*
X138752971Y-110117030D01*
X137824400Y-110117030D02*
X137895829Y-110045602D01*
X137967257Y-110117030D01*
X137895829Y-110188459D01*
X137824400Y-110117030D01*
X137967257Y-110117030D01*
X137181543Y-108331316D02*
X139110114Y-109617030D01*
X137181543Y-106759887D02*
X139110114Y-108045601D01*
X137752971Y-105617029D02*
X138967257Y-105617029D01*
X139110114Y-105688458D01*
X139181543Y-105759886D01*
X139252971Y-105902743D01*
X139252971Y-106117029D01*
X139181543Y-106259886D01*
X138681543Y-105617029D02*
X138752971Y-105759886D01*
X138752971Y-106045600D01*
X138681543Y-106188458D01*
X138610114Y-106259886D01*
X138467257Y-106331315D01*
X138038686Y-106331315D01*
X137895829Y-106259886D01*
X137824400Y-106188458D01*
X137752971Y-106045600D01*
X137752971Y-105759886D01*
X137824400Y-105617029D01*
X138752971Y-104902743D02*
X137752971Y-104902743D01*
X137252971Y-104902743D02*
X137324400Y-104974172D01*
X137395829Y-104902743D01*
X137324400Y-104831315D01*
X137252971Y-104902743D01*
X137395829Y-104902743D01*
X137752971Y-104402743D02*
X137752971Y-103831314D01*
X137252971Y-104188457D02*
X138538686Y-104188457D01*
X138681543Y-104117029D01*
X138752971Y-103974171D01*
X138752971Y-103831314D01*
X138752971Y-103331314D02*
X137252971Y-103331314D01*
X138752971Y-102688457D02*
X137967257Y-102688457D01*
X137824400Y-102759886D01*
X137752971Y-102902743D01*
X137752971Y-103117028D01*
X137824400Y-103259886D01*
X137895829Y-103331314D01*
X137752971Y-101331314D02*
X138752971Y-101331314D01*
X137752971Y-101974171D02*
X138538686Y-101974171D01*
X138681543Y-101902743D01*
X138752971Y-101759885D01*
X138752971Y-101545600D01*
X138681543Y-101402743D01*
X138610114Y-101331314D01*
X138752971Y-100617028D02*
X137252971Y-100617028D01*
X137824400Y-100617028D02*
X137752971Y-100474171D01*
X137752971Y-100188457D01*
X137824400Y-100045600D01*
X137895829Y-99974171D01*
X138038686Y-99902742D01*
X138467257Y-99902742D01*
X138610114Y-99974171D01*
X138681543Y-100045600D01*
X138752971Y-100188457D01*
X138752971Y-100474171D01*
X138681543Y-100617028D01*
X138610114Y-99259885D02*
X138681543Y-99188457D01*
X138752971Y-99259885D01*
X138681543Y-99331314D01*
X138610114Y-99259885D01*
X138752971Y-99259885D01*
X138681543Y-97902742D02*
X138752971Y-98045599D01*
X138752971Y-98331313D01*
X138681543Y-98474171D01*
X138610114Y-98545599D01*
X138467257Y-98617028D01*
X138038686Y-98617028D01*
X137895829Y-98545599D01*
X137824400Y-98474171D01*
X137752971Y-98331313D01*
X137752971Y-98045599D01*
X137824400Y-97902742D01*
X138752971Y-97045599D02*
X138681543Y-97188457D01*
X138610114Y-97259885D01*
X138467257Y-97331314D01*
X138038686Y-97331314D01*
X137895829Y-97259885D01*
X137824400Y-97188457D01*
X137752971Y-97045599D01*
X137752971Y-96831314D01*
X137824400Y-96688457D01*
X137895829Y-96617028D01*
X138038686Y-96545599D01*
X138467257Y-96545599D01*
X138610114Y-96617028D01*
X138681543Y-96688457D01*
X138752971Y-96831314D01*
X138752971Y-97045599D01*
X138752971Y-95902742D02*
X137752971Y-95902742D01*
X137895829Y-95902742D02*
X137824400Y-95831314D01*
X137752971Y-95688456D01*
X137752971Y-95474171D01*
X137824400Y-95331314D01*
X137967257Y-95259885D01*
X138752971Y-95259885D01*
X137967257Y-95259885D02*
X137824400Y-95188456D01*
X137752971Y-95045599D01*
X137752971Y-94831314D01*
X137824400Y-94688456D01*
X137967257Y-94617028D01*
X138752971Y-94617028D01*
X137181543Y-92831314D02*
X139110114Y-94117028D01*
X138681543Y-92402742D02*
X138752971Y-92259885D01*
X138752971Y-91974170D01*
X138681543Y-91831313D01*
X138538686Y-91759885D01*
X138467257Y-91759885D01*
X138324400Y-91831313D01*
X138252971Y-91974170D01*
X138252971Y-92188456D01*
X138181543Y-92331313D01*
X138038686Y-92402742D01*
X137967257Y-92402742D01*
X137824400Y-92331313D01*
X137752971Y-92188456D01*
X137752971Y-91974170D01*
X137824400Y-91831313D01*
X137752971Y-91331313D02*
X137752971Y-90759884D01*
X137252971Y-91117027D02*
X138538686Y-91117027D01*
X138681543Y-91045599D01*
X138752971Y-90902741D01*
X138752971Y-90759884D01*
X137752971Y-89617027D02*
X138752971Y-89617027D01*
X137752971Y-90259884D02*
X138538686Y-90259884D01*
X138681543Y-90188456D01*
X138752971Y-90045598D01*
X138752971Y-89831313D01*
X138681543Y-89688456D01*
X138610114Y-89617027D01*
X138752971Y-88259884D02*
X137967257Y-88259884D01*
X137824400Y-88331313D01*
X137752971Y-88474170D01*
X137752971Y-88759884D01*
X137824400Y-88902741D01*
X138681543Y-88259884D02*
X138752971Y-88402741D01*
X138752971Y-88759884D01*
X138681543Y-88902741D01*
X138538686Y-88974170D01*
X138395829Y-88974170D01*
X138252971Y-88902741D01*
X138181543Y-88759884D01*
X138181543Y-88402741D01*
X138110114Y-88259884D01*
X138752971Y-87545598D02*
X137752971Y-87545598D01*
X138038686Y-87545598D02*
X137895829Y-87474170D01*
X137824400Y-87402741D01*
X137752971Y-87259884D01*
X137752971Y-87117027D01*
X137752971Y-86831313D02*
X137752971Y-86259884D01*
X137252971Y-86617027D02*
X138538686Y-86617027D01*
X138681543Y-86545599D01*
X138752971Y-86402741D01*
X138752971Y-86259884D01*
X137752971Y-85759884D02*
X139252971Y-85759884D01*
X137824400Y-85759884D02*
X137752971Y-85617027D01*
X137752971Y-85331313D01*
X137824400Y-85188456D01*
X137895829Y-85117027D01*
X138038686Y-85045598D01*
X138467257Y-85045598D01*
X138610114Y-85117027D01*
X138681543Y-85188456D01*
X138752971Y-85331313D01*
X138752971Y-85617027D01*
X138681543Y-85759884D01*
X138752971Y-84402741D02*
X137752971Y-84402741D01*
X137252971Y-84402741D02*
X137324400Y-84474170D01*
X137395829Y-84402741D01*
X137324400Y-84331313D01*
X137252971Y-84402741D01*
X137395829Y-84402741D01*
X137752971Y-83902741D02*
X137752971Y-83331312D01*
X137252971Y-83688455D02*
X138538686Y-83688455D01*
X138681543Y-83617027D01*
X138752971Y-83474169D01*
X138752971Y-83331312D01*
X137752971Y-83045598D02*
X137752971Y-82474169D01*
X137252971Y-82831312D02*
X138538686Y-82831312D01*
X138681543Y-82759884D01*
X138752971Y-82617026D01*
X138752971Y-82474169D01*
X138752971Y-81331312D02*
X137967257Y-81331312D01*
X137824400Y-81402741D01*
X137752971Y-81545598D01*
X137752971Y-81831312D01*
X137824400Y-81974169D01*
X138681543Y-81331312D02*
X138752971Y-81474169D01*
X138752971Y-81831312D01*
X138681543Y-81974169D01*
X138538686Y-82045598D01*
X138395829Y-82045598D01*
X138252971Y-81974169D01*
X138181543Y-81831312D01*
X138181543Y-81474169D01*
X138110114Y-81331312D01*
X137752971Y-80759883D02*
X138752971Y-80474169D01*
X138038686Y-80188455D01*
X138752971Y-79902740D01*
X137752971Y-79617026D01*
X138752971Y-78402740D02*
X137967257Y-78402740D01*
X137824400Y-78474169D01*
X137752971Y-78617026D01*
X137752971Y-78902740D01*
X137824400Y-79045597D01*
X138681543Y-78402740D02*
X138752971Y-78545597D01*
X138752971Y-78902740D01*
X138681543Y-79045597D01*
X138538686Y-79117026D01*
X138395829Y-79117026D01*
X138252971Y-79045597D01*
X138181543Y-78902740D01*
X138181543Y-78545597D01*
X138110114Y-78402740D01*
X137752971Y-77831311D02*
X138752971Y-77474168D01*
X137752971Y-77117026D02*
X138752971Y-77474168D01*
X139110114Y-77617026D01*
X139181543Y-77688454D01*
X139252971Y-77831311D01*
X137181543Y-75474169D02*
X139110114Y-76759883D01*
X138752971Y-74331311D02*
X137252971Y-74331311D01*
X138681543Y-74331311D02*
X138752971Y-74474168D01*
X138752971Y-74759882D01*
X138681543Y-74902740D01*
X138610114Y-74974168D01*
X138467257Y-75045597D01*
X138038686Y-75045597D01*
X137895829Y-74974168D01*
X137824400Y-74902740D01*
X137752971Y-74759882D01*
X137752971Y-74474168D01*
X137824400Y-74331311D01*
X138752971Y-73617025D02*
X137752971Y-73617025D01*
X137252971Y-73617025D02*
X137324400Y-73688454D01*
X137395829Y-73617025D01*
X137324400Y-73545597D01*
X137252971Y-73617025D01*
X137395829Y-73617025D01*
X137752971Y-73045596D02*
X138752971Y-72688453D01*
X137752971Y-72331311D02*
X138752971Y-72688453D01*
X139110114Y-72831311D01*
X139181543Y-72902739D01*
X139252971Y-73045596D01*
X137967257Y-71259882D02*
X138038686Y-71045596D01*
X138110114Y-70974168D01*
X138252971Y-70902739D01*
X138467257Y-70902739D01*
X138610114Y-70974168D01*
X138681543Y-71045596D01*
X138752971Y-71188454D01*
X138752971Y-71759882D01*
X137252971Y-71759882D01*
X137252971Y-71259882D01*
X137324400Y-71117025D01*
X137395829Y-71045596D01*
X137538686Y-70974168D01*
X137681543Y-70974168D01*
X137824400Y-71045596D01*
X137895829Y-71117025D01*
X137967257Y-71259882D01*
X137967257Y-71759882D01*
X138752971Y-70259882D02*
X137252971Y-70259882D01*
X138324400Y-69759882D01*
X137252971Y-69259882D01*
X138752971Y-69259882D01*
X138681543Y-68617025D02*
X138752971Y-68402739D01*
X138752971Y-68045596D01*
X138681543Y-67902739D01*
X138610114Y-67831310D01*
X138467257Y-67759882D01*
X138324400Y-67759882D01*
X138181543Y-67831310D01*
X138110114Y-67902739D01*
X138038686Y-68045596D01*
X137967257Y-68331310D01*
X137895829Y-68474168D01*
X137824400Y-68545596D01*
X137681543Y-68617025D01*
X137538686Y-68617025D01*
X137395829Y-68545596D01*
X137324400Y-68474168D01*
X137252971Y-68331310D01*
X137252971Y-67974168D01*
X137324400Y-67759882D01*
X168319915Y-100627571D02*
X168319915Y-99127571D01*
X168677058Y-99127571D01*
X168891343Y-99199000D01*
X169034201Y-99341857D01*
X169105629Y-99484714D01*
X169177058Y-99770429D01*
X169177058Y-99984714D01*
X169105629Y-100270429D01*
X169034201Y-100413286D01*
X168891343Y-100556143D01*
X168677058Y-100627571D01*
X168319915Y-100627571D01*
X169819915Y-100627571D02*
X169819915Y-99127571D01*
X170819915Y-99913286D02*
X170819915Y-100627571D01*
X170319915Y-99127571D02*
X170819915Y-99913286D01*
X171319915Y-99127571D01*
X172319915Y-99841857D02*
X172534201Y-99913286D01*
X172605629Y-99984714D01*
X172677058Y-100127571D01*
X172677058Y-100341857D01*
X172605629Y-100484714D01*
X172534201Y-100556143D01*
X172391343Y-100627571D01*
X171819915Y-100627571D01*
X171819915Y-99127571D01*
X172319915Y-99127571D01*
X172462772Y-99199000D01*
X172534201Y-99270429D01*
X172605629Y-99413286D01*
X172605629Y-99556143D01*
X172534201Y-99699000D01*
X172462772Y-99770429D01*
X172319915Y-99841857D01*
X171819915Y-99841857D01*
X173319915Y-100627571D02*
X173319915Y-99127571D01*
X173819915Y-100199000D01*
X174319915Y-99127571D01*
X174319915Y-100627571D01*
X174962772Y-100556143D02*
X175177058Y-100627571D01*
X175534201Y-100627571D01*
X175677058Y-100556143D01*
X175748487Y-100484714D01*
X175819915Y-100341857D01*
X175819915Y-100199000D01*
X175748487Y-100056143D01*
X175677058Y-99984714D01*
X175534201Y-99913286D01*
X175248487Y-99841857D01*
X175105629Y-99770429D01*
X175034201Y-99699000D01*
X174962772Y-99556143D01*
X174962772Y-99413286D01*
X175034201Y-99270429D01*
X175105629Y-99199000D01*
X175248487Y-99127571D01*
X175605629Y-99127571D01*
X175819915Y-99199000D01*
D11*
X157114886Y-124462914D02*
X157172029Y-124291485D01*
X157229171Y-124234342D01*
X157343457Y-124177199D01*
X157514886Y-124177199D01*
X157629171Y-124234342D01*
X157686314Y-124291485D01*
X157743457Y-124405771D01*
X157743457Y-124862914D01*
X156543457Y-124862914D01*
X156543457Y-124462914D01*
X156600600Y-124348628D01*
X156657743Y-124291485D01*
X156772029Y-124234342D01*
X156886314Y-124234342D01*
X157000600Y-124291485D01*
X157057743Y-124348628D01*
X157114886Y-124462914D01*
X157114886Y-124862914D01*
X157400600Y-123720057D02*
X157400600Y-123148628D01*
X157743457Y-123834342D02*
X156543457Y-123434342D01*
X157743457Y-123034342D01*
X156543457Y-122805771D02*
X156543457Y-122120057D01*
X157743457Y-122462914D02*
X156543457Y-122462914D01*
X156543457Y-121891485D02*
X156543457Y-121205771D01*
X157743457Y-121548628D02*
X156543457Y-121548628D01*
X157286314Y-120805771D02*
X157286314Y-119891485D01*
X157743457Y-120348628D02*
X156829171Y-120348628D01*
D12*
X165744600Y-124307485D02*
X165687457Y-124421771D01*
X165687457Y-124593200D01*
X165744600Y-124764628D01*
X165858886Y-124878914D01*
X165973171Y-124936057D01*
X166201743Y-124993200D01*
X166373171Y-124993200D01*
X166601743Y-124936057D01*
X166716029Y-124878914D01*
X166830314Y-124764628D01*
X166887457Y-124593200D01*
X166887457Y-124478914D01*
X166830314Y-124307485D01*
X166773171Y-124250342D01*
X166373171Y-124250342D01*
X166373171Y-124478914D01*
X166887457Y-123736057D02*
X165687457Y-123736057D01*
X166887457Y-123050342D01*
X165687457Y-123050342D01*
X166887457Y-122478914D02*
X165687457Y-122478914D01*
X165687457Y-122193199D01*
X165744600Y-122021771D01*
X165858886Y-121907485D01*
X165973171Y-121850342D01*
X166201743Y-121793199D01*
X166373171Y-121793199D01*
X166601743Y-121850342D01*
X166716029Y-121907485D01*
X166830314Y-122021771D01*
X166887457Y-122193199D01*
X166887457Y-122478914D01*
X143312200Y-103708171D02*
X143240771Y-103779599D01*
X143026486Y-103922456D01*
X142883629Y-103993885D01*
X142669343Y-104065314D01*
X142312200Y-104136742D01*
X142026486Y-104136742D01*
X141669343Y-104065314D01*
X141455057Y-103993885D01*
X141312200Y-103922456D01*
X141097914Y-103779599D01*
X141026486Y-103708171D01*
X142669343Y-102493885D02*
X142740771Y-102636742D01*
X142740771Y-102922456D01*
X142669343Y-103065314D01*
X142597914Y-103136742D01*
X142455057Y-103208171D01*
X142026486Y-103208171D01*
X141883629Y-103136742D01*
X141812200Y-103065314D01*
X141740771Y-102922456D01*
X141740771Y-102636742D01*
X141812200Y-102493885D01*
X143312200Y-101993885D02*
X143240771Y-101922457D01*
X143026486Y-101779600D01*
X142883629Y-101708171D01*
X142669343Y-101636742D01*
X142312200Y-101565314D01*
X142026486Y-101565314D01*
X141669343Y-101636742D01*
X141455057Y-101708171D01*
X141312200Y-101779600D01*
X141097914Y-101922457D01*
X141026486Y-101993885D01*
X141383629Y-100922457D02*
X141312200Y-100851028D01*
X141240771Y-100708171D01*
X141240771Y-100351028D01*
X141312200Y-100208171D01*
X141383629Y-100136742D01*
X141526486Y-100065314D01*
X141669343Y-100065314D01*
X141883629Y-100136742D01*
X142740771Y-100993885D01*
X142740771Y-100065314D01*
X141240771Y-99136743D02*
X141240771Y-98993886D01*
X141312200Y-98851029D01*
X141383629Y-98779600D01*
X141526486Y-98708171D01*
X141812200Y-98636743D01*
X142169343Y-98636743D01*
X142455057Y-98708171D01*
X142597914Y-98779600D01*
X142669343Y-98851029D01*
X142740771Y-98993886D01*
X142740771Y-99136743D01*
X142669343Y-99279600D01*
X142597914Y-99351029D01*
X142455057Y-99422457D01*
X142169343Y-99493886D01*
X141812200Y-99493886D01*
X141526486Y-99422457D01*
X141383629Y-99351029D01*
X141312200Y-99279600D01*
X141240771Y-99136743D01*
X142740771Y-97208172D02*
X142740771Y-98065315D01*
X142740771Y-97636743D02*
X141240771Y-97636743D01*
X141455057Y-97779600D01*
X141597914Y-97922458D01*
X141669343Y-98065315D01*
X141240771Y-96708172D02*
X141240771Y-95708172D01*
X142740771Y-96351029D01*
X142669343Y-94065316D02*
X142740771Y-93851030D01*
X142740771Y-93493887D01*
X142669343Y-93351030D01*
X142597914Y-93279601D01*
X142455057Y-93208173D01*
X142312200Y-93208173D01*
X142169343Y-93279601D01*
X142097914Y-93351030D01*
X142026486Y-93493887D01*
X141955057Y-93779601D01*
X141883629Y-93922459D01*
X141812200Y-93993887D01*
X141669343Y-94065316D01*
X141526486Y-94065316D01*
X141383629Y-93993887D01*
X141312200Y-93922459D01*
X141240771Y-93779601D01*
X141240771Y-93422459D01*
X141312200Y-93208173D01*
X141740771Y-92779602D02*
X141740771Y-92208173D01*
X141240771Y-92565316D02*
X142526486Y-92565316D01*
X142669343Y-92493888D01*
X142740771Y-92351030D01*
X142740771Y-92208173D01*
X141740771Y-91065316D02*
X142740771Y-91065316D01*
X141740771Y-91708173D02*
X142526486Y-91708173D01*
X142669343Y-91636745D01*
X142740771Y-91493887D01*
X142740771Y-91279602D01*
X142669343Y-91136745D01*
X142597914Y-91065316D01*
X142740771Y-89708173D02*
X141955057Y-89708173D01*
X141812200Y-89779602D01*
X141740771Y-89922459D01*
X141740771Y-90208173D01*
X141812200Y-90351030D01*
X142669343Y-89708173D02*
X142740771Y-89851030D01*
X142740771Y-90208173D01*
X142669343Y-90351030D01*
X142526486Y-90422459D01*
X142383629Y-90422459D01*
X142240771Y-90351030D01*
X142169343Y-90208173D01*
X142169343Y-89851030D01*
X142097914Y-89708173D01*
X142740771Y-88993887D02*
X141740771Y-88993887D01*
X142026486Y-88993887D02*
X141883629Y-88922459D01*
X141812200Y-88851030D01*
X141740771Y-88708173D01*
X141740771Y-88565316D01*
X141740771Y-88279602D02*
X141740771Y-87708173D01*
X141240771Y-88065316D02*
X142526486Y-88065316D01*
X142669343Y-87993888D01*
X142740771Y-87851030D01*
X142740771Y-87708173D01*
X142740771Y-86065316D02*
X141240771Y-86065316D01*
X141240771Y-85493888D01*
X141312200Y-85351030D01*
X141383629Y-85279602D01*
X141526486Y-85208173D01*
X141740771Y-85208173D01*
X141883629Y-85279602D01*
X141955057Y-85351030D01*
X142026486Y-85493888D01*
X142026486Y-86065316D01*
X142740771Y-84565316D02*
X141740771Y-84565316D01*
X141240771Y-84565316D02*
X141312200Y-84636745D01*
X141383629Y-84565316D01*
X141312200Y-84493888D01*
X141240771Y-84565316D01*
X141383629Y-84565316D01*
X141740771Y-84065316D02*
X141740771Y-83493887D01*
X141240771Y-83851030D02*
X142526486Y-83851030D01*
X142669343Y-83779602D01*
X142740771Y-83636744D01*
X142740771Y-83493887D01*
X141740771Y-83208173D02*
X141740771Y-82636744D01*
X141240771Y-82993887D02*
X142526486Y-82993887D01*
X142669343Y-82922459D01*
X142740771Y-82779601D01*
X142740771Y-82636744D01*
X142740771Y-81493887D02*
X141955057Y-81493887D01*
X141812200Y-81565316D01*
X141740771Y-81708173D01*
X141740771Y-81993887D01*
X141812200Y-82136744D01*
X142669343Y-81493887D02*
X142740771Y-81636744D01*
X142740771Y-81993887D01*
X142669343Y-82136744D01*
X142526486Y-82208173D01*
X142383629Y-82208173D01*
X142240771Y-82136744D01*
X142169343Y-81993887D01*
X142169343Y-81636744D01*
X142097914Y-81493887D01*
X141740771Y-80922458D02*
X142740771Y-80636744D01*
X142026486Y-80351030D01*
X142740771Y-80065315D01*
X141740771Y-79779601D01*
X142740771Y-78565315D02*
X141955057Y-78565315D01*
X141812200Y-78636744D01*
X141740771Y-78779601D01*
X141740771Y-79065315D01*
X141812200Y-79208172D01*
X142669343Y-78565315D02*
X142740771Y-78708172D01*
X142740771Y-79065315D01*
X142669343Y-79208172D01*
X142526486Y-79279601D01*
X142383629Y-79279601D01*
X142240771Y-79208172D01*
X142169343Y-79065315D01*
X142169343Y-78708172D01*
X142097914Y-78565315D01*
X141740771Y-77993886D02*
X142740771Y-77636743D01*
X141740771Y-77279601D02*
X142740771Y-77636743D01*
X143097914Y-77779601D01*
X143169343Y-77851029D01*
X143240771Y-77993886D01*
D13*
X157759400Y-108102400D02*
X152679400Y-108102400D01*
X157759400Y-118008400D02*
X152679400Y-118008400D01*
X157759400Y-118008400D02*
X157759400Y-108102400D01*
X131597400Y-78130400D02*
X131597400Y-68224400D01*
X136677400Y-78130400D02*
X131597400Y-78130400D01*
X131597400Y-68224400D02*
X136677400Y-68224400D01*
X152679400Y-125120400D02*
X136677400Y-125120400D01*
X136677400Y-61112400D02*
X152679400Y-61112400D01*
X136677400Y-61112400D02*
X136677400Y-125120400D01*
X152679400Y-125120400D02*
X152679400Y-61112400D01*
X132635000Y-112125400D02*
X132885000Y-112125400D01*
X135335000Y-112125400D02*
X135085000Y-112125400D01*
X135335000Y-116525400D02*
X135085000Y-116525400D01*
X132635000Y-116525400D02*
X132885000Y-116525400D01*
X132735000Y-113039400D02*
X135235000Y-113039400D01*
X132635000Y-116500400D02*
X132635000Y-112150400D01*
X135335000Y-116500400D02*
X135335000Y-112150400D01*
D14*
X176555400Y-123393200D02*
G75*
G03X176555400Y-123393200I-2286000J0D01*
G01*
X172601000Y-60985400D02*
X172601000Y-65335400D01*
X172601000Y-65335400D02*
X167601000Y-65335400D01*
X167601000Y-65335400D02*
X167601000Y-60985400D01*
X173901000Y-67185400D02*
X174251000Y-67185400D01*
X174251000Y-67185400D02*
X174251000Y-68785400D01*
X174251000Y-68785400D02*
X175151000Y-68785400D01*
X175151000Y-68785400D02*
X175151000Y-60985400D01*
X175151000Y-60985400D02*
X165051000Y-60985400D01*
X165051000Y-60985400D02*
X165051000Y-68785400D01*
X165051000Y-68785400D02*
X165951000Y-68785400D01*
X165951000Y-68785400D02*
X165951000Y-67185400D01*
X165951000Y-67185400D02*
X166301000Y-67185400D01*
X175151000Y-67185400D02*
X174251000Y-67185400D01*
X165051000Y-67185400D02*
X165951000Y-67185400D01*
X174401000Y-64835400D02*
X174401000Y-63235400D01*
X174401000Y-63235400D02*
X173401000Y-63235400D01*
X173401000Y-63235400D02*
X173401000Y-64835400D01*
X173401000Y-64835400D02*
X174401000Y-64835400D01*
X165801000Y-64835400D02*
X165801000Y-63235400D01*
X165801000Y-63235400D02*
X166801000Y-63235400D01*
X166801000Y-63235400D02*
X166801000Y-64835400D01*
X166801000Y-64835400D02*
X165801000Y-64835400D01*
X173401000Y-63235400D02*
X173401000Y-60985400D01*
X173901000Y-63235400D02*
X173901000Y-60985400D01*
X173901000Y-67185400D02*
X173901000Y-68385400D01*
X161323400Y-60985400D02*
X161323400Y-65335400D01*
X161323400Y-65335400D02*
X156323400Y-65335400D01*
X156323400Y-65335400D02*
X156323400Y-60985400D01*
X162623400Y-67185400D02*
X162973400Y-67185400D01*
X162973400Y-67185400D02*
X162973400Y-68785400D01*
X162973400Y-68785400D02*
X163873400Y-68785400D01*
X163873400Y-68785400D02*
X163873400Y-60985400D01*
X163873400Y-60985400D02*
X153773400Y-60985400D01*
X153773400Y-60985400D02*
X153773400Y-68785400D01*
X153773400Y-68785400D02*
X154673400Y-68785400D01*
X154673400Y-68785400D02*
X154673400Y-67185400D01*
X154673400Y-67185400D02*
X155023400Y-67185400D01*
X163873400Y-67185400D02*
X162973400Y-67185400D01*
X153773400Y-67185400D02*
X154673400Y-67185400D01*
X163123400Y-64835400D02*
X163123400Y-63235400D01*
X163123400Y-63235400D02*
X162123400Y-63235400D01*
X162123400Y-63235400D02*
X162123400Y-64835400D01*
X162123400Y-64835400D02*
X163123400Y-64835400D01*
X154523400Y-64835400D02*
X154523400Y-63235400D01*
X154523400Y-63235400D02*
X155523400Y-63235400D01*
X155523400Y-63235400D02*
X155523400Y-64835400D01*
X155523400Y-64835400D02*
X154523400Y-64835400D01*
X162123400Y-63235400D02*
X162123400Y-60985400D01*
X162623400Y-63235400D02*
X162623400Y-60985400D01*
X162623400Y-67185400D02*
X162623400Y-68385400D01*
X175675600Y-82864000D02*
X175675600Y-77664000D01*
X170535600Y-82864000D02*
X175675600Y-82864000D01*
X167935600Y-77664000D02*
X175675600Y-77664000D01*
X170535600Y-82864000D02*
X170535600Y-80264000D01*
X170535600Y-80264000D02*
X167935600Y-80264000D01*
X167935600Y-80264000D02*
X167935600Y-77664000D01*
X169265600Y-82864000D02*
X167935600Y-82864000D01*
X167935600Y-82864000D02*
X167935600Y-81534000D01*
X176530000Y-72313800D02*
G75*
G03X176530000Y-72313800I-2286000J0D01*
G01*
X136245600Y-123444000D02*
G75*
G03X136245600Y-123444000I-2286000J0D01*
G01*
X132864200Y-83372200D02*
X132864200Y-81372200D01*
X135004200Y-81372200D02*
X135004200Y-83372200D01*
X158327600Y-87023600D02*
X156327600Y-87023600D01*
X156327600Y-84883600D02*
X158327600Y-84883600D01*
X160105600Y-92459200D02*
X158105600Y-92459200D01*
X158105600Y-90319200D02*
X160105600Y-90319200D01*
X163102800Y-104295600D02*
X161102800Y-104295600D01*
X161102800Y-102155600D02*
X163102800Y-102155600D01*
X167192200Y-106683200D02*
X165192200Y-106683200D01*
X165192200Y-104543200D02*
X167192200Y-104543200D01*
X171205400Y-104295600D02*
X169205400Y-104295600D01*
X169205400Y-102155600D02*
X171205400Y-102155600D01*
X158378400Y-80978400D02*
X156378400Y-80978400D01*
X156378400Y-78838400D02*
X158378400Y-78838400D01*
X157210000Y-107165800D02*
X155210000Y-107165800D01*
X155210000Y-105025800D02*
X157210000Y-105025800D01*
X156378400Y-81988000D02*
X158378400Y-81988000D01*
X158378400Y-84128000D02*
X156378400Y-84128000D01*
X156545400Y-101754400D02*
X155615400Y-101754400D01*
X153385400Y-101754400D02*
X154315400Y-101754400D01*
X153385400Y-101754400D02*
X153385400Y-103914400D01*
X156545400Y-101754400D02*
X156545400Y-103214400D01*
X174380400Y-89716000D02*
X172380400Y-89716000D01*
X172380400Y-87576000D02*
X174380400Y-87576000D01*
X155317400Y-91401900D02*
G75*
G03X155317400Y-91401900I-860000J0D01*
G01*
X154457400Y-92261900D02*
X154457400Y-92941900D01*
X134884200Y-86104800D02*
X132984200Y-86104800D01*
X132984200Y-86104800D02*
X132984200Y-90804800D01*
X134884200Y-86104800D02*
X134884200Y-90804800D01*
X166165600Y-85206800D02*
X166165600Y-87106800D01*
X166165600Y-87106800D02*
X170865600Y-87106800D01*
X166165600Y-85206800D02*
X170865600Y-85206800D01*
X149111400Y-67929400D02*
X139991400Y-67929400D01*
X139991400Y-67929400D02*
X139991400Y-118049400D01*
X139991400Y-118049400D02*
X149111400Y-118049400D01*
X149111400Y-118049400D02*
X149111400Y-67929400D01*
X144551400Y-63889400D02*
X144551400Y-67929400D01*
X144551400Y-122089400D02*
X144551400Y-118049400D01*
X132105000Y-103172000D02*
X132105000Y-106632000D01*
X135865000Y-103172000D02*
X135865000Y-106632000D01*
X160467619Y-99060000D02*
G75*
G03X160467619Y-99060000I-803219J0D01*
G01*
X171479400Y-116214400D02*
X171479400Y-114214400D01*
X169439400Y-114214400D02*
X169439400Y-116214400D01*
X164068000Y-108123800D02*
X162068000Y-108123800D01*
X162068000Y-110163800D02*
X164068000Y-110163800D01*
X156429200Y-97590800D02*
X158429200Y-97590800D01*
X158429200Y-95550800D02*
X156429200Y-95550800D01*
X155596400Y-72812400D02*
X155596400Y-74812400D01*
X157636400Y-74812400D02*
X157636400Y-72812400D01*
X174329600Y-90216800D02*
X172329600Y-90216800D01*
X172329600Y-92256800D02*
X174329600Y-92256800D01*
X169041000Y-114055400D02*
X169041000Y-112055400D01*
X167001000Y-112055400D02*
X167001000Y-114055400D01*
X161180400Y-125450600D02*
X161180400Y-121100600D01*
X161180400Y-121100600D02*
X162180400Y-121100600D01*
X162180400Y-121100600D02*
X162180400Y-125450600D01*
X159880400Y-119250600D02*
X159530400Y-119250600D01*
X159530400Y-119250600D02*
X159530400Y-117650600D01*
X159530400Y-117650600D02*
X158630400Y-117650600D01*
X158630400Y-117650600D02*
X158630400Y-125450600D01*
X158630400Y-125450600D02*
X164730400Y-125450600D01*
X164730400Y-125450600D02*
X164730400Y-117650600D01*
X164730400Y-117650600D02*
X163830400Y-117650600D01*
X163830400Y-117650600D02*
X163830400Y-119250600D01*
X163830400Y-119250600D02*
X163480400Y-119250600D01*
X158630400Y-119250600D02*
X159530400Y-119250600D01*
X164730400Y-119250600D02*
X163830400Y-119250600D01*
X159380400Y-121600600D02*
X159380400Y-123200600D01*
X159380400Y-123200600D02*
X160380400Y-123200600D01*
X160380400Y-123200600D02*
X160380400Y-121600600D01*
X160380400Y-121600600D02*
X159380400Y-121600600D01*
X163980400Y-121600600D02*
X163980400Y-123200600D01*
X163980400Y-123200600D02*
X162980400Y-123200600D01*
X162980400Y-123200600D02*
X162980400Y-121600600D01*
X162980400Y-121600600D02*
X163980400Y-121600600D01*
X160380400Y-123200600D02*
X160380400Y-125450600D01*
X159880400Y-123200600D02*
X159880400Y-125450600D01*
X159880400Y-119250600D02*
X159880400Y-118050600D01*
X163311000Y-114817800D02*
X165111000Y-114817800D01*
X165111000Y-111597800D02*
X162161000Y-111597800D01*
D15*
X163807400Y-75939400D02*
X163807400Y-71939400D01*
X163807400Y-71939400D02*
X158807400Y-71939400D01*
X158807400Y-71939400D02*
X158807400Y-75939400D01*
X158807400Y-75939400D02*
X163807400Y-75939400D01*
X163624000Y-92148400D02*
X163624000Y-92748400D01*
X169624000Y-92148400D02*
X169624000Y-92748400D01*
X169624000Y-97548400D02*
X169624000Y-98148400D01*
X163624000Y-98148400D02*
X163624000Y-97548400D01*
X163624000Y-92148400D02*
X169624000Y-92148400D01*
X163624000Y-98148400D02*
X169624000Y-98148400D01*
D16*
X163224000Y-92421400D02*
X162424000Y-92421400D01*
D14*
X136220200Y-63042800D02*
G75*
G03X136220200Y-63042800I-2286000J0D01*
G01*
D15*
X165935067Y-61580781D02*
X165935067Y-62295067D01*
X165887447Y-62437924D01*
X165792209Y-62533162D01*
X165649352Y-62580781D01*
X165554114Y-62580781D01*
X166316019Y-61580781D02*
X166935067Y-61580781D01*
X166601733Y-61961733D01*
X166744591Y-61961733D01*
X166839829Y-62009352D01*
X166887448Y-62056971D01*
X166935067Y-62152210D01*
X166935067Y-62390305D01*
X166887448Y-62485543D01*
X166839829Y-62533162D01*
X166744591Y-62580781D01*
X166458876Y-62580781D01*
X166363638Y-62533162D01*
X166316019Y-62485543D01*
X154682867Y-61631581D02*
X154682867Y-62345867D01*
X154635247Y-62488724D01*
X154540009Y-62583962D01*
X154397152Y-62631581D01*
X154301914Y-62631581D01*
X155111438Y-61726819D02*
X155159057Y-61679200D01*
X155254295Y-61631581D01*
X155492391Y-61631581D01*
X155587629Y-61679200D01*
X155635248Y-61726819D01*
X155682867Y-61822057D01*
X155682867Y-61917295D01*
X155635248Y-62060152D01*
X155063819Y-62631581D01*
X155682867Y-62631581D01*
X167203381Y-80268581D02*
X166203381Y-80268581D01*
X167155762Y-79840010D02*
X167203381Y-79697153D01*
X167203381Y-79459057D01*
X167155762Y-79363819D01*
X167108143Y-79316200D01*
X167012905Y-79268581D01*
X166917667Y-79268581D01*
X166822429Y-79316200D01*
X166774810Y-79363819D01*
X166727190Y-79459057D01*
X166679571Y-79649534D01*
X166631952Y-79744772D01*
X166584333Y-79792391D01*
X166489095Y-79840010D01*
X166393857Y-79840010D01*
X166298619Y-79792391D01*
X166251000Y-79744772D01*
X166203381Y-79649534D01*
X166203381Y-79411438D01*
X166251000Y-79268581D01*
X167203381Y-78840010D02*
X166203381Y-78840010D01*
X166203381Y-78459057D01*
X166251000Y-78363819D01*
X166298619Y-78316200D01*
X166393857Y-78268581D01*
X166536714Y-78268581D01*
X166631952Y-78316200D01*
X166679571Y-78363819D01*
X166727190Y-78459057D01*
X166727190Y-78840010D01*
X167203381Y-77316200D02*
X167203381Y-77887629D01*
X167203381Y-77601915D02*
X166203381Y-77601915D01*
X166346238Y-77697153D01*
X166441476Y-77792391D01*
X166489095Y-77887629D01*
X136266181Y-82564266D02*
X135789990Y-82897600D01*
X136266181Y-83135695D02*
X135266181Y-83135695D01*
X135266181Y-82754742D01*
X135313800Y-82659504D01*
X135361419Y-82611885D01*
X135456657Y-82564266D01*
X135599514Y-82564266D01*
X135694752Y-82611885D01*
X135742371Y-82659504D01*
X135789990Y-82754742D01*
X135789990Y-83135695D01*
X135361419Y-82183314D02*
X135313800Y-82135695D01*
X135266181Y-82040457D01*
X135266181Y-81802361D01*
X135313800Y-81707123D01*
X135361419Y-81659504D01*
X135456657Y-81611885D01*
X135551895Y-81611885D01*
X135694752Y-81659504D01*
X136266181Y-82230933D01*
X136266181Y-81611885D01*
X161326534Y-86456781D02*
X160993200Y-85980590D01*
X160755105Y-86456781D02*
X160755105Y-85456781D01*
X161136058Y-85456781D01*
X161231296Y-85504400D01*
X161278915Y-85552019D01*
X161326534Y-85647257D01*
X161326534Y-85790114D01*
X161278915Y-85885352D01*
X161231296Y-85932971D01*
X161136058Y-85980590D01*
X160755105Y-85980590D01*
X161659867Y-85456781D02*
X162278915Y-85456781D01*
X161945581Y-85837733D01*
X162088439Y-85837733D01*
X162183677Y-85885352D01*
X162231296Y-85932971D01*
X162278915Y-86028210D01*
X162278915Y-86266305D01*
X162231296Y-86361543D01*
X162183677Y-86409162D01*
X162088439Y-86456781D01*
X161802724Y-86456781D01*
X161707486Y-86409162D01*
X161659867Y-86361543D01*
X163206134Y-91638381D02*
X162872800Y-91162190D01*
X162634705Y-91638381D02*
X162634705Y-90638381D01*
X163015658Y-90638381D01*
X163110896Y-90686000D01*
X163158515Y-90733619D01*
X163206134Y-90828857D01*
X163206134Y-90971714D01*
X163158515Y-91066952D01*
X163110896Y-91114571D01*
X163015658Y-91162190D01*
X162634705Y-91162190D01*
X164063277Y-90971714D02*
X164063277Y-91638381D01*
X163825181Y-90590762D02*
X163587086Y-91305048D01*
X164206134Y-91305048D01*
X164044334Y-101899981D02*
X163711000Y-101423790D01*
X163472905Y-101899981D02*
X163472905Y-100899981D01*
X163853858Y-100899981D01*
X163949096Y-100947600D01*
X163996715Y-100995219D01*
X164044334Y-101090457D01*
X164044334Y-101233314D01*
X163996715Y-101328552D01*
X163949096Y-101376171D01*
X163853858Y-101423790D01*
X163472905Y-101423790D01*
X164949096Y-100899981D02*
X164472905Y-100899981D01*
X164425286Y-101376171D01*
X164472905Y-101328552D01*
X164568143Y-101280933D01*
X164806239Y-101280933D01*
X164901477Y-101328552D01*
X164949096Y-101376171D01*
X164996715Y-101471410D01*
X164996715Y-101709505D01*
X164949096Y-101804743D01*
X164901477Y-101852362D01*
X164806239Y-101899981D01*
X164568143Y-101899981D01*
X164472905Y-101852362D01*
X164425286Y-101804743D01*
X170241934Y-106141781D02*
X169908600Y-105665590D01*
X169670505Y-106141781D02*
X169670505Y-105141781D01*
X170051458Y-105141781D01*
X170146696Y-105189400D01*
X170194315Y-105237019D01*
X170241934Y-105332257D01*
X170241934Y-105475114D01*
X170194315Y-105570352D01*
X170146696Y-105617971D01*
X170051458Y-105665590D01*
X169670505Y-105665590D01*
X171099077Y-105141781D02*
X170908600Y-105141781D01*
X170813362Y-105189400D01*
X170765743Y-105237019D01*
X170670505Y-105379876D01*
X170622886Y-105570352D01*
X170622886Y-105951305D01*
X170670505Y-106046543D01*
X170718124Y-106094162D01*
X170813362Y-106141781D01*
X171003839Y-106141781D01*
X171099077Y-106094162D01*
X171146696Y-106046543D01*
X171194315Y-105951305D01*
X171194315Y-105713210D01*
X171146696Y-105617971D01*
X171099077Y-105570352D01*
X171003839Y-105522733D01*
X170813362Y-105522733D01*
X170718124Y-105570352D01*
X170670505Y-105617971D01*
X170622886Y-105713210D01*
X173162934Y-105659181D02*
X172829600Y-105182990D01*
X172591505Y-105659181D02*
X172591505Y-104659181D01*
X172972458Y-104659181D01*
X173067696Y-104706800D01*
X173115315Y-104754419D01*
X173162934Y-104849657D01*
X173162934Y-104992514D01*
X173115315Y-105087752D01*
X173067696Y-105135371D01*
X172972458Y-105182990D01*
X172591505Y-105182990D01*
X173496267Y-104659181D02*
X174162934Y-104659181D01*
X173734362Y-105659181D01*
X161377334Y-79776581D02*
X161044000Y-79300390D01*
X160805905Y-79776581D02*
X160805905Y-78776581D01*
X161186858Y-78776581D01*
X161282096Y-78824200D01*
X161329715Y-78871819D01*
X161377334Y-78967057D01*
X161377334Y-79109914D01*
X161329715Y-79205152D01*
X161282096Y-79252771D01*
X161186858Y-79300390D01*
X160805905Y-79300390D01*
X161948762Y-79205152D02*
X161853524Y-79157533D01*
X161805905Y-79109914D01*
X161758286Y-79014676D01*
X161758286Y-78967057D01*
X161805905Y-78871819D01*
X161853524Y-78824200D01*
X161948762Y-78776581D01*
X162139239Y-78776581D01*
X162234477Y-78824200D01*
X162282096Y-78871819D01*
X162329715Y-78967057D01*
X162329715Y-79014676D01*
X162282096Y-79109914D01*
X162234477Y-79157533D01*
X162139239Y-79205152D01*
X161948762Y-79205152D01*
X161853524Y-79252771D01*
X161805905Y-79300390D01*
X161758286Y-79395629D01*
X161758286Y-79586105D01*
X161805905Y-79681343D01*
X161853524Y-79728962D01*
X161948762Y-79776581D01*
X162139239Y-79776581D01*
X162234477Y-79728962D01*
X162282096Y-79681343D01*
X162329715Y-79586105D01*
X162329715Y-79395629D01*
X162282096Y-79300390D01*
X162234477Y-79252771D01*
X162139239Y-79205152D01*
X153503334Y-108326181D02*
X153170000Y-107849990D01*
X152931905Y-108326181D02*
X152931905Y-107326181D01*
X153312858Y-107326181D01*
X153408096Y-107373800D01*
X153455715Y-107421419D01*
X153503334Y-107516657D01*
X153503334Y-107659514D01*
X153455715Y-107754752D01*
X153408096Y-107802371D01*
X153312858Y-107849990D01*
X152931905Y-107849990D01*
X153979524Y-108326181D02*
X154170000Y-108326181D01*
X154265239Y-108278562D01*
X154312858Y-108230943D01*
X154408096Y-108088086D01*
X154455715Y-107897610D01*
X154455715Y-107516657D01*
X154408096Y-107421419D01*
X154360477Y-107373800D01*
X154265239Y-107326181D01*
X154074762Y-107326181D01*
X153979524Y-107373800D01*
X153931905Y-107421419D01*
X153884286Y-107516657D01*
X153884286Y-107754752D01*
X153931905Y-107849990D01*
X153979524Y-107897610D01*
X154074762Y-107945229D01*
X154265239Y-107945229D01*
X154360477Y-107897610D01*
X154408096Y-107849990D01*
X154455715Y-107754752D01*
X161459943Y-83484981D02*
X161126609Y-83008790D01*
X160888514Y-83484981D02*
X160888514Y-82484981D01*
X161269467Y-82484981D01*
X161364705Y-82532600D01*
X161412324Y-82580219D01*
X161459943Y-82675457D01*
X161459943Y-82818314D01*
X161412324Y-82913552D01*
X161364705Y-82961171D01*
X161269467Y-83008790D01*
X160888514Y-83008790D01*
X162412324Y-83484981D02*
X161840895Y-83484981D01*
X162126609Y-83484981D02*
X162126609Y-82484981D01*
X162031371Y-82627838D01*
X161936133Y-82723076D01*
X161840895Y-82770695D01*
X163031371Y-82484981D02*
X163126610Y-82484981D01*
X163221848Y-82532600D01*
X163269467Y-82580219D01*
X163317086Y-82675457D01*
X163364705Y-82865933D01*
X163364705Y-83104029D01*
X163317086Y-83294505D01*
X163269467Y-83389743D01*
X163221848Y-83437362D01*
X163126610Y-83484981D01*
X163031371Y-83484981D01*
X162936133Y-83437362D01*
X162888514Y-83389743D01*
X162840895Y-83294505D01*
X162793276Y-83104029D01*
X162793276Y-82865933D01*
X162840895Y-82675457D01*
X162888514Y-82580219D01*
X162936133Y-82532600D01*
X163031371Y-82484981D01*
X152917781Y-103323924D02*
X151917781Y-103323924D01*
X152632067Y-102990590D01*
X151917781Y-102657257D01*
X152917781Y-102657257D01*
X152917781Y-101657257D02*
X152917781Y-102228686D01*
X152917781Y-101942972D02*
X151917781Y-101942972D01*
X152060638Y-102038210D01*
X152155876Y-102133448D01*
X152203495Y-102228686D01*
X168038543Y-89098381D02*
X167705209Y-88622190D01*
X167467114Y-89098381D02*
X167467114Y-88098381D01*
X167848067Y-88098381D01*
X167943305Y-88146000D01*
X167990924Y-88193619D01*
X168038543Y-88288857D01*
X168038543Y-88431714D01*
X167990924Y-88526952D01*
X167943305Y-88574571D01*
X167848067Y-88622190D01*
X167467114Y-88622190D01*
X168990924Y-89098381D02*
X168419495Y-89098381D01*
X168705209Y-89098381D02*
X168705209Y-88098381D01*
X168609971Y-88241238D01*
X168514733Y-88336476D01*
X168419495Y-88384095D01*
X169371876Y-88193619D02*
X169419495Y-88146000D01*
X169514733Y-88098381D01*
X169752829Y-88098381D01*
X169848067Y-88146000D01*
X169895686Y-88193619D01*
X169943305Y-88288857D01*
X169943305Y-88384095D01*
X169895686Y-88526952D01*
X169324257Y-89098381D01*
X169943305Y-89098381D01*
X153909781Y-90147614D02*
X153909781Y-89576185D01*
X154909781Y-89861900D02*
X153909781Y-89861900D01*
X154909781Y-89242852D02*
X153909781Y-89242852D01*
X154385971Y-89242852D02*
X154385971Y-88671423D01*
X154909781Y-88671423D02*
X153909781Y-88671423D01*
X154909781Y-87671423D02*
X154909781Y-88242852D01*
X154909781Y-87957138D02*
X153909781Y-87957138D01*
X154052638Y-88052376D01*
X154147876Y-88147614D01*
X154195495Y-88242852D01*
X136266181Y-90095295D02*
X135266181Y-90095295D01*
X135266181Y-89857200D01*
X135313800Y-89714342D01*
X135409038Y-89619104D01*
X135504276Y-89571485D01*
X135694752Y-89523866D01*
X135837610Y-89523866D01*
X136028086Y-89571485D01*
X136123324Y-89619104D01*
X136218562Y-89714342D01*
X136266181Y-89857200D01*
X136266181Y-90095295D01*
X135361419Y-89142914D02*
X135313800Y-89095295D01*
X135266181Y-89000057D01*
X135266181Y-88761961D01*
X135313800Y-88666723D01*
X135361419Y-88619104D01*
X135456657Y-88571485D01*
X135551895Y-88571485D01*
X135694752Y-88619104D01*
X136266181Y-89190533D01*
X136266181Y-88571485D01*
X164260305Y-87091781D02*
X164260305Y-86091781D01*
X164498400Y-86091781D01*
X164641258Y-86139400D01*
X164736496Y-86234638D01*
X164784115Y-86329876D01*
X164831734Y-86520352D01*
X164831734Y-86663210D01*
X164784115Y-86853686D01*
X164736496Y-86948924D01*
X164641258Y-87044162D01*
X164498400Y-87091781D01*
X164260305Y-87091781D01*
X165688877Y-86425114D02*
X165688877Y-87091781D01*
X165450781Y-86044162D02*
X165212686Y-86758448D01*
X165831734Y-86758448D01*
X147797781Y-98058266D02*
X147321590Y-98391600D01*
X147797781Y-98629695D02*
X146797781Y-98629695D01*
X146797781Y-98248742D01*
X146845400Y-98153504D01*
X146893019Y-98105885D01*
X146988257Y-98058266D01*
X147131114Y-98058266D01*
X147226352Y-98105885D01*
X147273971Y-98153504D01*
X147321590Y-98248742D01*
X147321590Y-98629695D01*
X147797781Y-97105885D02*
X147797781Y-97677314D01*
X147797781Y-97391600D02*
X146797781Y-97391600D01*
X146940638Y-97486838D01*
X147035876Y-97582076D01*
X147083495Y-97677314D01*
X132694371Y-98453533D02*
X132694371Y-98786867D01*
X133218181Y-98786867D02*
X132218181Y-98786867D01*
X132218181Y-98310676D01*
X133218181Y-97405914D02*
X133218181Y-97977343D01*
X133218181Y-97691629D02*
X132218181Y-97691629D01*
X132361038Y-97786867D01*
X132456276Y-97882105D01*
X132503895Y-97977343D01*
X160739295Y-99579181D02*
X161310724Y-99579181D01*
X161025009Y-100579181D02*
X161025009Y-99579181D01*
X161644057Y-100579181D02*
X161644057Y-99579181D01*
X162025010Y-99579181D01*
X162120248Y-99626800D01*
X162167867Y-99674419D01*
X162215486Y-99769657D01*
X162215486Y-99912514D01*
X162167867Y-100007752D01*
X162120248Y-100055371D01*
X162025010Y-100102990D01*
X161644057Y-100102990D01*
X163167867Y-100579181D02*
X162596438Y-100579181D01*
X162882152Y-100579181D02*
X162882152Y-99579181D01*
X162786914Y-99722038D01*
X162691676Y-99817276D01*
X162596438Y-99864895D01*
X170841943Y-110986866D02*
X170889562Y-111034485D01*
X170937181Y-111177342D01*
X170937181Y-111272580D01*
X170889562Y-111415438D01*
X170794324Y-111510676D01*
X170699086Y-111558295D01*
X170508610Y-111605914D01*
X170365752Y-111605914D01*
X170175276Y-111558295D01*
X170080038Y-111510676D01*
X169984800Y-111415438D01*
X169937181Y-111272580D01*
X169937181Y-111177342D01*
X169984800Y-111034485D01*
X170032419Y-110986866D01*
X170937181Y-110034485D02*
X170937181Y-110605914D01*
X170937181Y-110320200D02*
X169937181Y-110320200D01*
X170080038Y-110415438D01*
X170175276Y-110510676D01*
X170222895Y-110605914D01*
X158684934Y-109450143D02*
X158637315Y-109497762D01*
X158494458Y-109545381D01*
X158399220Y-109545381D01*
X158256362Y-109497762D01*
X158161124Y-109402524D01*
X158113505Y-109307286D01*
X158065886Y-109116810D01*
X158065886Y-108973952D01*
X158113505Y-108783476D01*
X158161124Y-108688238D01*
X158256362Y-108593000D01*
X158399220Y-108545381D01*
X158494458Y-108545381D01*
X158637315Y-108593000D01*
X158684934Y-108640619D01*
X159065886Y-108640619D02*
X159113505Y-108593000D01*
X159208743Y-108545381D01*
X159446839Y-108545381D01*
X159542077Y-108593000D01*
X159589696Y-108640619D01*
X159637315Y-108735857D01*
X159637315Y-108831095D01*
X159589696Y-108973952D01*
X159018267Y-109545381D01*
X159637315Y-109545381D01*
X157262534Y-98677943D02*
X157214915Y-98725562D01*
X157072058Y-98773181D01*
X156976820Y-98773181D01*
X156833962Y-98725562D01*
X156738724Y-98630324D01*
X156691105Y-98535086D01*
X156643486Y-98344610D01*
X156643486Y-98201752D01*
X156691105Y-98011276D01*
X156738724Y-97916038D01*
X156833962Y-97820800D01*
X156976820Y-97773181D01*
X157072058Y-97773181D01*
X157214915Y-97820800D01*
X157262534Y-97868419D01*
X157595867Y-97773181D02*
X158214915Y-97773181D01*
X157881581Y-98154133D01*
X158024439Y-98154133D01*
X158119677Y-98201752D01*
X158167296Y-98249371D01*
X158214915Y-98344610D01*
X158214915Y-98582705D01*
X158167296Y-98677943D01*
X158119677Y-98725562D01*
X158024439Y-98773181D01*
X157738724Y-98773181D01*
X157643486Y-98725562D01*
X157595867Y-98677943D01*
X155246343Y-74131466D02*
X155293962Y-74179085D01*
X155341581Y-74321942D01*
X155341581Y-74417180D01*
X155293962Y-74560038D01*
X155198724Y-74655276D01*
X155103486Y-74702895D01*
X154913010Y-74750514D01*
X154770152Y-74750514D01*
X154579676Y-74702895D01*
X154484438Y-74655276D01*
X154389200Y-74560038D01*
X154341581Y-74417180D01*
X154341581Y-74321942D01*
X154389200Y-74179085D01*
X154436819Y-74131466D01*
X154674914Y-73274323D02*
X155341581Y-73274323D01*
X154293962Y-73512419D02*
X155008248Y-73750514D01*
X155008248Y-73131466D01*
X168844934Y-90958943D02*
X168797315Y-91006562D01*
X168654458Y-91054181D01*
X168559220Y-91054181D01*
X168416362Y-91006562D01*
X168321124Y-90911324D01*
X168273505Y-90816086D01*
X168225886Y-90625610D01*
X168225886Y-90482752D01*
X168273505Y-90292276D01*
X168321124Y-90197038D01*
X168416362Y-90101800D01*
X168559220Y-90054181D01*
X168654458Y-90054181D01*
X168797315Y-90101800D01*
X168844934Y-90149419D01*
X169749696Y-90054181D02*
X169273505Y-90054181D01*
X169225886Y-90530371D01*
X169273505Y-90482752D01*
X169368743Y-90435133D01*
X169606839Y-90435133D01*
X169702077Y-90482752D01*
X169749696Y-90530371D01*
X169797315Y-90625610D01*
X169797315Y-90863705D01*
X169749696Y-90958943D01*
X169702077Y-91006562D01*
X169606839Y-91054181D01*
X169368743Y-91054181D01*
X169273505Y-91006562D01*
X169225886Y-90958943D01*
X168225743Y-117489266D02*
X168273362Y-117536885D01*
X168320981Y-117679742D01*
X168320981Y-117774980D01*
X168273362Y-117917838D01*
X168178124Y-118013076D01*
X168082886Y-118060695D01*
X167892410Y-118108314D01*
X167749552Y-118108314D01*
X167559076Y-118060695D01*
X167463838Y-118013076D01*
X167368600Y-117917838D01*
X167320981Y-117774980D01*
X167320981Y-117679742D01*
X167368600Y-117536885D01*
X167416219Y-117489266D01*
X167320981Y-116632123D02*
X167320981Y-116822600D01*
X167368600Y-116917838D01*
X167416219Y-116965457D01*
X167559076Y-117060695D01*
X167749552Y-117108314D01*
X168130505Y-117108314D01*
X168225743Y-117060695D01*
X168273362Y-117013076D01*
X168320981Y-116917838D01*
X168320981Y-116727361D01*
X168273362Y-116632123D01*
X168225743Y-116584504D01*
X168130505Y-116536885D01*
X167892410Y-116536885D01*
X167797171Y-116584504D01*
X167749552Y-116632123D01*
X167701933Y-116727361D01*
X167701933Y-116917838D01*
X167749552Y-117013076D01*
X167797171Y-117060695D01*
X167892410Y-117108314D01*
X161847067Y-116102981D02*
X161847067Y-116817267D01*
X161799447Y-116960124D01*
X161704209Y-117055362D01*
X161561352Y-117102981D01*
X161466114Y-117102981D01*
X162847067Y-117102981D02*
X162275638Y-117102981D01*
X162561352Y-117102981D02*
X162561352Y-116102981D01*
X162466114Y-116245838D01*
X162370876Y-116341076D01*
X162275638Y-116388695D01*
X159377143Y-113863381D02*
X159043809Y-113387190D01*
X158805714Y-113863381D02*
X158805714Y-112863381D01*
X159186667Y-112863381D01*
X159281905Y-112911000D01*
X159329524Y-112958619D01*
X159377143Y-113053857D01*
X159377143Y-113196714D01*
X159329524Y-113291952D01*
X159281905Y-113339571D01*
X159186667Y-113387190D01*
X158805714Y-113387190D01*
X160329524Y-113863381D02*
X159758095Y-113863381D01*
X160043809Y-113863381D02*
X160043809Y-112863381D01*
X159948571Y-113006238D01*
X159853333Y-113101476D01*
X159758095Y-113149095D01*
X161281905Y-113863381D02*
X160710476Y-113863381D01*
X160996190Y-113863381D02*
X160996190Y-112863381D01*
X160900952Y-113006238D01*
X160805714Y-113101476D01*
X160710476Y-113149095D01*
X164033295Y-72858381D02*
X164033295Y-73667905D01*
X164080914Y-73763143D01*
X164128533Y-73810762D01*
X164223771Y-73858381D01*
X164414248Y-73858381D01*
X164509486Y-73810762D01*
X164557105Y-73763143D01*
X164604724Y-73667905D01*
X164604724Y-72858381D01*
X165033295Y-72953619D02*
X165080914Y-72906000D01*
X165176152Y-72858381D01*
X165414248Y-72858381D01*
X165509486Y-72906000D01*
X165557105Y-72953619D01*
X165604724Y-73048857D01*
X165604724Y-73144095D01*
X165557105Y-73286952D01*
X164985676Y-73858381D01*
X165604724Y-73858381D01*
X166065257Y-91263829D02*
X166065257Y-91749543D01*
X166093829Y-91806686D01*
X166122400Y-91835257D01*
X166179543Y-91863829D01*
X166293829Y-91863829D01*
X166350971Y-91835257D01*
X166379543Y-91806686D01*
X166408114Y-91749543D01*
X166408114Y-91263829D01*
X166636685Y-91263829D02*
X167008114Y-91263829D01*
X166808114Y-91492400D01*
X166893828Y-91492400D01*
X166950971Y-91520971D01*
X166979542Y-91549543D01*
X167008114Y-91606686D01*
X167008114Y-91749543D01*
X166979542Y-91806686D01*
X166950971Y-91835257D01*
X166893828Y-91863829D01*
X166722400Y-91863829D01*
X166665257Y-91835257D01*
X166636685Y-91806686D01*
D17*
X167655953Y-96009590D02*
X167655953Y-95509590D01*
X167846429Y-95509590D01*
X167894048Y-95533400D01*
X167917857Y-95557210D01*
X167941667Y-95604829D01*
X167941667Y-95676257D01*
X167917857Y-95723876D01*
X167894048Y-95747686D01*
X167846429Y-95771495D01*
X167655953Y-95771495D01*
X168322619Y-95747686D02*
X168394048Y-95771495D01*
X168417857Y-95795305D01*
X168441667Y-95842924D01*
X168441667Y-95914352D01*
X168417857Y-95961971D01*
X168394048Y-95985781D01*
X168346429Y-96009590D01*
X168155953Y-96009590D01*
X168155953Y-95509590D01*
X168322619Y-95509590D01*
X168370238Y-95533400D01*
X168394048Y-95557210D01*
X168417857Y-95604829D01*
X168417857Y-95652448D01*
X168394048Y-95700067D01*
X168370238Y-95723876D01*
X168322619Y-95747686D01*
X168155953Y-95747686D01*
X168917857Y-96009590D02*
X168632143Y-96009590D01*
X168775000Y-96009590D02*
X168775000Y-95509590D01*
X168727381Y-95581019D01*
X168679762Y-95628638D01*
X168632143Y-95652448D01*
X167528953Y-97279590D02*
X167528953Y-96779590D01*
X167719429Y-96779590D01*
X167767048Y-96803400D01*
X167790857Y-96827210D01*
X167814667Y-96874829D01*
X167814667Y-96946257D01*
X167790857Y-96993876D01*
X167767048Y-97017686D01*
X167719429Y-97041495D01*
X167528953Y-97041495D01*
X168195619Y-97017686D02*
X168267048Y-97041495D01*
X168290857Y-97065305D01*
X168314667Y-97112924D01*
X168314667Y-97184352D01*
X168290857Y-97231971D01*
X168267048Y-97255781D01*
X168219429Y-97279590D01*
X168028953Y-97279590D01*
X168028953Y-96779590D01*
X168195619Y-96779590D01*
X168243238Y-96803400D01*
X168267048Y-96827210D01*
X168290857Y-96874829D01*
X168290857Y-96922448D01*
X168267048Y-96970067D01*
X168243238Y-96993876D01*
X168195619Y-97017686D01*
X168028953Y-97017686D01*
X168624191Y-96779590D02*
X168671810Y-96779590D01*
X168719429Y-96803400D01*
X168743238Y-96827210D01*
X168767048Y-96874829D01*
X168790857Y-96970067D01*
X168790857Y-97089114D01*
X168767048Y-97184352D01*
X168743238Y-97231971D01*
X168719429Y-97255781D01*
X168671810Y-97279590D01*
X168624191Y-97279590D01*
X168576572Y-97255781D01*
X168552762Y-97231971D01*
X168528953Y-97184352D01*
X168505143Y-97089114D01*
X168505143Y-96970067D01*
X168528953Y-96874829D01*
X168552762Y-96827210D01*
X168576572Y-96803400D01*
X168624191Y-96779590D01*
X164353953Y-96009590D02*
X164353953Y-95509590D01*
X164544429Y-95509590D01*
X164592048Y-95533400D01*
X164615857Y-95557210D01*
X164639667Y-95604829D01*
X164639667Y-95676257D01*
X164615857Y-95723876D01*
X164592048Y-95747686D01*
X164544429Y-95771495D01*
X164353953Y-95771495D01*
X165020619Y-95747686D02*
X165092048Y-95771495D01*
X165115857Y-95795305D01*
X165139667Y-95842924D01*
X165139667Y-95914352D01*
X165115857Y-95961971D01*
X165092048Y-95985781D01*
X165044429Y-96009590D01*
X164853953Y-96009590D01*
X164853953Y-95509590D01*
X165020619Y-95509590D01*
X165068238Y-95533400D01*
X165092048Y-95557210D01*
X165115857Y-95604829D01*
X165115857Y-95652448D01*
X165092048Y-95700067D01*
X165068238Y-95723876D01*
X165020619Y-95747686D01*
X164853953Y-95747686D01*
X165568238Y-95676257D02*
X165568238Y-96009590D01*
X165449191Y-95485781D02*
X165330143Y-95842924D01*
X165639667Y-95842924D01*
X164353953Y-94739590D02*
X164353953Y-94239590D01*
X164544429Y-94239590D01*
X164592048Y-94263400D01*
X164615857Y-94287210D01*
X164639667Y-94334829D01*
X164639667Y-94406257D01*
X164615857Y-94453876D01*
X164592048Y-94477686D01*
X164544429Y-94501495D01*
X164353953Y-94501495D01*
X165020619Y-94477686D02*
X165092048Y-94501495D01*
X165115857Y-94525305D01*
X165139667Y-94572924D01*
X165139667Y-94644352D01*
X165115857Y-94691971D01*
X165092048Y-94715781D01*
X165044429Y-94739590D01*
X164853953Y-94739590D01*
X164853953Y-94239590D01*
X165020619Y-94239590D01*
X165068238Y-94263400D01*
X165092048Y-94287210D01*
X165115857Y-94334829D01*
X165115857Y-94382448D01*
X165092048Y-94430067D01*
X165068238Y-94453876D01*
X165020619Y-94477686D01*
X164853953Y-94477686D01*
X165306334Y-94239590D02*
X165615857Y-94239590D01*
X165449191Y-94430067D01*
X165520619Y-94430067D01*
X165568238Y-94453876D01*
X165592048Y-94477686D01*
X165615857Y-94525305D01*
X165615857Y-94644352D01*
X165592048Y-94691971D01*
X165568238Y-94715781D01*
X165520619Y-94739590D01*
X165377762Y-94739590D01*
X165330143Y-94715781D01*
X165306334Y-94691971D01*
X164353953Y-93469590D02*
X164353953Y-92969590D01*
X164544429Y-92969590D01*
X164592048Y-92993400D01*
X164615857Y-93017210D01*
X164639667Y-93064829D01*
X164639667Y-93136257D01*
X164615857Y-93183876D01*
X164592048Y-93207686D01*
X164544429Y-93231495D01*
X164353953Y-93231495D01*
X165020619Y-93207686D02*
X165092048Y-93231495D01*
X165115857Y-93255305D01*
X165139667Y-93302924D01*
X165139667Y-93374352D01*
X165115857Y-93421971D01*
X165092048Y-93445781D01*
X165044429Y-93469590D01*
X164853953Y-93469590D01*
X164853953Y-92969590D01*
X165020619Y-92969590D01*
X165068238Y-92993400D01*
X165092048Y-93017210D01*
X165115857Y-93064829D01*
X165115857Y-93112448D01*
X165092048Y-93160067D01*
X165068238Y-93183876D01*
X165020619Y-93207686D01*
X164853953Y-93207686D01*
X165592048Y-92969590D02*
X165353953Y-92969590D01*
X165330143Y-93207686D01*
X165353953Y-93183876D01*
X165401572Y-93160067D01*
X165520619Y-93160067D01*
X165568238Y-93183876D01*
X165592048Y-93207686D01*
X165615857Y-93255305D01*
X165615857Y-93374352D01*
X165592048Y-93421971D01*
X165568238Y-93445781D01*
X165520619Y-93469590D01*
X165401572Y-93469590D01*
X165353953Y-93445781D01*
X165330143Y-93421971D01*
X164592047Y-96803400D02*
X164544428Y-96779590D01*
X164473000Y-96779590D01*
X164401571Y-96803400D01*
X164353952Y-96851019D01*
X164330143Y-96898638D01*
X164306333Y-96993876D01*
X164306333Y-97065305D01*
X164330143Y-97160543D01*
X164353952Y-97208162D01*
X164401571Y-97255781D01*
X164473000Y-97279590D01*
X164520619Y-97279590D01*
X164592047Y-97255781D01*
X164615857Y-97231971D01*
X164615857Y-97065305D01*
X164520619Y-97065305D01*
X164830143Y-97279590D02*
X164830143Y-96779590D01*
X165115857Y-97279590D01*
X165115857Y-96779590D01*
X165353953Y-97279590D02*
X165353953Y-96779590D01*
X165473000Y-96779590D01*
X165544429Y-96803400D01*
X165592048Y-96851019D01*
X165615857Y-96898638D01*
X165639667Y-96993876D01*
X165639667Y-97065305D01*
X165615857Y-97160543D01*
X165592048Y-97208162D01*
X165544429Y-97255781D01*
X165473000Y-97279590D01*
X165353953Y-97279590D01*
X167655953Y-94739590D02*
X167655953Y-94239590D01*
X167846429Y-94239590D01*
X167894048Y-94263400D01*
X167917857Y-94287210D01*
X167941667Y-94334829D01*
X167941667Y-94406257D01*
X167917857Y-94453876D01*
X167894048Y-94477686D01*
X167846429Y-94501495D01*
X167655953Y-94501495D01*
X168322619Y-94477686D02*
X168394048Y-94501495D01*
X168417857Y-94525305D01*
X168441667Y-94572924D01*
X168441667Y-94644352D01*
X168417857Y-94691971D01*
X168394048Y-94715781D01*
X168346429Y-94739590D01*
X168155953Y-94739590D01*
X168155953Y-94239590D01*
X168322619Y-94239590D01*
X168370238Y-94263400D01*
X168394048Y-94287210D01*
X168417857Y-94334829D01*
X168417857Y-94382448D01*
X168394048Y-94430067D01*
X168370238Y-94453876D01*
X168322619Y-94477686D01*
X168155953Y-94477686D01*
X168632143Y-94287210D02*
X168655953Y-94263400D01*
X168703572Y-94239590D01*
X168822619Y-94239590D01*
X168870238Y-94263400D01*
X168894048Y-94287210D01*
X168917857Y-94334829D01*
X168917857Y-94382448D01*
X168894048Y-94453876D01*
X168608334Y-94739590D01*
X168917857Y-94739590D01*
X167481334Y-92969590D02*
X167648001Y-93469590D01*
X167814667Y-92969590D01*
X168267048Y-93421971D02*
X168243238Y-93445781D01*
X168171810Y-93469590D01*
X168124191Y-93469590D01*
X168052762Y-93445781D01*
X168005143Y-93398162D01*
X167981334Y-93350543D01*
X167957524Y-93255305D01*
X167957524Y-93183876D01*
X167981334Y-93088638D01*
X168005143Y-93041019D01*
X168052762Y-92993400D01*
X168124191Y-92969590D01*
X168171810Y-92969590D01*
X168243238Y-92993400D01*
X168267048Y-93017210D01*
X168767048Y-93421971D02*
X168743238Y-93445781D01*
X168671810Y-93469590D01*
X168624191Y-93469590D01*
X168552762Y-93445781D01*
X168505143Y-93398162D01*
X168481334Y-93350543D01*
X168457524Y-93255305D01*
X168457524Y-93183876D01*
X168481334Y-93088638D01*
X168505143Y-93041019D01*
X168552762Y-92993400D01*
X168624191Y-92969590D01*
X168671810Y-92969590D01*
X168743238Y-92993400D01*
X168767048Y-93017210D01*
M02*
