G04 #@! TF.FileFunction,Copper,L1,Top,Signal*
%FSLAX46Y46*%
G04 Gerber Fmt 4.6, Leading zero omitted, Abs format (unit mm)*
G04 Created by KiCad (PCBNEW 4.0.7) date 11/29/17 23:45:29*
%MOMM*%
%LPD*%
G01*
G04 APERTURE LIST*
%ADD10C,0.100000*%
%ADD11C,4.064000*%
%ADD12R,1.700000X2.000000*%
%ADD13R,2.000000X1.700000*%
%ADD14R,2.000000X3.800000*%
%ADD15R,2.000000X1.500000*%
%ADD16R,1.550000X0.600000*%
%ADD17R,0.800000X0.900000*%
%ADD18R,0.508000X1.143000*%
%ADD19C,1.400000*%
%ADD20O,1.400000X1.400000*%
%ADD21C,2.400000*%
%ADD22O,2.400000X2.400000*%
%ADD23R,1.800000X2.500000*%
%ADD24R,3.500000X3.500000*%
%ADD25R,1.300000X2.100000*%
%ADD26R,1.000000X2.000000*%
%ADD27C,1.143000*%
%ADD28R,2.000000X1.600000*%
%ADD29R,1.600000X2.000000*%
%ADD30R,1.200000X1.700000*%
%ADD31O,1.200000X1.700000*%
%ADD32R,1.700000X1.700000*%
%ADD33O,1.700000X1.700000*%
%ADD34C,0.600000*%
%ADD35C,0.500000*%
%ADD36C,1.500000*%
%ADD37C,0.350000*%
%ADD38C,2.200000*%
%ADD39C,2.000000*%
G04 APERTURE END LIST*
D10*
D11*
X174320200Y-74295000D03*
X174269400Y-108102400D03*
X155219400Y-113233200D03*
X134137400Y-73279000D03*
X134035800Y-63093600D03*
D12*
X134010400Y-102673400D03*
X134010400Y-106673400D03*
D13*
X155327600Y-85953600D03*
X159327600Y-85953600D03*
X157105600Y-91389200D03*
X161105600Y-91389200D03*
X163303200Y-100787200D03*
X167303200Y-100787200D03*
X170212000Y-100787200D03*
X174212000Y-100787200D03*
X174212000Y-103327200D03*
X170212000Y-103327200D03*
X155378400Y-79908400D03*
X159378400Y-79908400D03*
X154489400Y-105943400D03*
X158489400Y-105943400D03*
X159378400Y-83058000D03*
X155378400Y-83058000D03*
D14*
X170485200Y-111252000D03*
D15*
X164185200Y-111252000D03*
X164185200Y-113552000D03*
X164185200Y-108952000D03*
D16*
X163924000Y-93243400D03*
X163924000Y-94513400D03*
X163924000Y-95783400D03*
X163924000Y-97053400D03*
X169324000Y-97053400D03*
X169324000Y-95783400D03*
X169324000Y-94513400D03*
X169324000Y-93243400D03*
D17*
X154015400Y-103514400D03*
X155915400Y-103514400D03*
X154965400Y-101514400D03*
D18*
X166039800Y-80594200D03*
X164769800Y-80594200D03*
X163499800Y-80594200D03*
X162229800Y-80594200D03*
X162229800Y-74244200D03*
X163499800Y-74244200D03*
X164769800Y-74244200D03*
X166039800Y-74244200D03*
D13*
X171380400Y-88646000D03*
X175380400Y-88646000D03*
D19*
X154457400Y-91401900D03*
D20*
X154457400Y-93941900D03*
D12*
X134010400Y-111436400D03*
X134010400Y-115436400D03*
D13*
X167265600Y-86156800D03*
X171265600Y-86156800D03*
D21*
X144551400Y-62509400D03*
D22*
X144551400Y-123469400D03*
D23*
X167589200Y-121583200D03*
X167589200Y-117583200D03*
D24*
X156467600Y-123139200D03*
X163267600Y-123139200D03*
D25*
X171077200Y-117588000D03*
X175277200Y-117588000D03*
D26*
X170977200Y-122188000D03*
X175377200Y-122188000D03*
D27*
X159664400Y-99060000D03*
D28*
X168268400Y-106121200D03*
X164268400Y-106121200D03*
D29*
X159359600Y-110217200D03*
X159359600Y-114217200D03*
D28*
X159429200Y-96570800D03*
X155429200Y-96570800D03*
X155429200Y-76555600D03*
X159429200Y-76555600D03*
X171329600Y-91236800D03*
X175329600Y-91236800D03*
D30*
X161848800Y-69697600D03*
D31*
X159848800Y-69697600D03*
X157848800Y-69697600D03*
X155848800Y-69697600D03*
D30*
X173126400Y-69697600D03*
D31*
X171126400Y-69697600D03*
X169126400Y-69697600D03*
X167126400Y-69697600D03*
D32*
X169265600Y-81534000D03*
D33*
X169265600Y-78994000D03*
X171805600Y-81534000D03*
X171805600Y-78994000D03*
X174345600Y-81534000D03*
X174345600Y-78994000D03*
D11*
X133959600Y-123418600D03*
D34*
X164058600Y-87782400D03*
X164007800Y-84023200D03*
X153441400Y-88011000D03*
X160909000Y-87807800D03*
X171246800Y-91186000D03*
X163017200Y-102616000D03*
X163779200Y-116484400D03*
X134569200Y-100533200D03*
X153822400Y-99720400D03*
X172364400Y-67310000D03*
X164439600Y-69748400D03*
X161036000Y-71323200D03*
X170230800Y-71323200D03*
X161645600Y-109016800D03*
X157530800Y-119938800D03*
X164033200Y-108889800D03*
X175361600Y-86969600D03*
X172770800Y-94792800D03*
X154025600Y-104546400D03*
X161848800Y-96113600D03*
X167589200Y-83820000D03*
X174955200Y-83718400D03*
X164236400Y-78587600D03*
X174091600Y-84683600D03*
X172974000Y-93065600D03*
X162661600Y-83058000D03*
X165912800Y-96570800D03*
D35*
X170485200Y-111252000D02*
X170485200Y-111709600D01*
D36*
X170485200Y-111709600D02*
X173075600Y-114300000D01*
X175277200Y-115079200D02*
X175277200Y-117588000D01*
X174498000Y-114300000D02*
X175277200Y-115079200D01*
X173075600Y-114300000D02*
X174498000Y-114300000D01*
D35*
X170485200Y-107391200D02*
X170485200Y-106222400D01*
X171704000Y-105003600D02*
X176225200Y-105003600D01*
X170485200Y-106222400D02*
X171704000Y-105003600D01*
D37*
X159429200Y-76555600D02*
X165963600Y-76555600D01*
X171399200Y-76047600D02*
X174345600Y-78994000D01*
X166471600Y-76047600D02*
X171399200Y-76047600D01*
X165963600Y-76555600D02*
X166471600Y-76047600D01*
D35*
X168097200Y-104190800D02*
X168097200Y-103784400D01*
X168554400Y-103327200D02*
X170212000Y-103327200D01*
X168097200Y-103784400D02*
X168554400Y-103327200D01*
X159359600Y-110217200D02*
X159359600Y-106813600D01*
X159359600Y-106813600D02*
X158489400Y-105943400D01*
D36*
X168268400Y-106121200D02*
X169418000Y-106121200D01*
X170485200Y-107188400D02*
X170485200Y-107391200D01*
X170485200Y-107391200D02*
X170485200Y-111252000D01*
X169418000Y-106121200D02*
X170485200Y-107188400D01*
X158378400Y-103514400D02*
X159750000Y-103514400D01*
X160426400Y-104190800D02*
X168097200Y-104190800D01*
X168097200Y-104190800D02*
X168268400Y-104190800D01*
D35*
X159750000Y-103514400D02*
X160426400Y-104190800D01*
D36*
X168268400Y-106121200D02*
X168268400Y-104190800D01*
D35*
X174345600Y-78994000D02*
X175971200Y-78994000D01*
X175971200Y-78994000D02*
X176326800Y-79349600D01*
X176326800Y-79349600D02*
X176326800Y-87699600D01*
X176326800Y-87699600D02*
X175380400Y-88646000D01*
D37*
X163924000Y-97053400D02*
X163924000Y-97630000D01*
X164439600Y-98145600D02*
X176225200Y-98145600D01*
X163924000Y-97630000D02*
X164439600Y-98145600D01*
X176225200Y-92132400D02*
X175329600Y-91236800D01*
D35*
X176225200Y-105003600D02*
X176225200Y-98145600D01*
X176225200Y-98145600D02*
X176225200Y-92132400D01*
D37*
X174345600Y-78994000D02*
X174904400Y-78994000D01*
X176174400Y-87852000D02*
X175380400Y-88646000D01*
X175329600Y-91236800D02*
X175329600Y-88696800D01*
X175329600Y-88696800D02*
X175380400Y-88646000D01*
X175228000Y-88798400D02*
X175310800Y-88881200D01*
D35*
X175310800Y-88881200D02*
X175310800Y-88341200D01*
D37*
X159429200Y-76555600D02*
X160121600Y-76555600D01*
D35*
X160121600Y-76555600D02*
X162229800Y-78663800D01*
D37*
X162229800Y-78663800D02*
X162229800Y-80594200D01*
X170212000Y-110978800D02*
X170485200Y-111252000D01*
D35*
X159359600Y-110217200D02*
X160712400Y-110217200D01*
X160712400Y-110217200D02*
X161747200Y-111252000D01*
X161747200Y-111252000D02*
X164185200Y-111252000D01*
D37*
X155429200Y-96570800D02*
X155429200Y-97314000D01*
X155429200Y-97314000D02*
X158378400Y-100263200D01*
X158378400Y-100263200D02*
X158378400Y-103514400D01*
X162102800Y-80467200D02*
X162229800Y-80594200D01*
X159334200Y-76650600D02*
X159429200Y-76555600D01*
D36*
X168376600Y-106013000D02*
X168268400Y-106121200D01*
D37*
X162102800Y-80721200D02*
X162229800Y-80594200D01*
D35*
X161105600Y-91389200D02*
X155238200Y-96379800D01*
D37*
X155238200Y-96379800D02*
X155429200Y-96570800D01*
X168275400Y-106128200D02*
X168268400Y-106121200D01*
X175424600Y-91141800D02*
X175329600Y-91236800D01*
X159352600Y-110210200D02*
X159359600Y-110217200D01*
D36*
X155915400Y-103514400D02*
X158378400Y-103514400D01*
D35*
X158378400Y-103514400D02*
X158489400Y-103625400D01*
D36*
X158489400Y-103625400D02*
X158489400Y-105943400D01*
X164185200Y-111252000D02*
X170485200Y-111252000D01*
D35*
X168275400Y-106128200D02*
X168268400Y-106121200D01*
X159352600Y-110210200D02*
X159359600Y-110217200D01*
D37*
X175488600Y-91395800D02*
X175329600Y-91236800D01*
X170212000Y-103327200D02*
X169418000Y-103327200D01*
D35*
X171329600Y-91236800D02*
X169682200Y-91236800D01*
X169324000Y-91595000D02*
X169324000Y-93243400D01*
X169682200Y-91236800D02*
X169324000Y-91595000D01*
X164058600Y-87782400D02*
X165227000Y-87782400D01*
X169181800Y-91737200D02*
X169181800Y-93101200D01*
X165227000Y-87782400D02*
X169181800Y-91737200D01*
X169181800Y-93101200D02*
X169324000Y-93243400D01*
X166039800Y-80594200D02*
X166039800Y-81991200D01*
X164007800Y-87731600D02*
X164007800Y-87757000D01*
X164033200Y-87757000D02*
X164007800Y-87731600D01*
X164058600Y-87782400D02*
X164033200Y-87757000D01*
X166039800Y-81991200D02*
X164007800Y-84023200D01*
X150876000Y-88773000D02*
X152679400Y-88773000D01*
X152679400Y-88773000D02*
X153441400Y-88011000D01*
X160909000Y-87807800D02*
X160959800Y-87757000D01*
X160959800Y-87757000D02*
X164007800Y-87757000D01*
D36*
X155327600Y-85953600D02*
X153314400Y-85953600D01*
X155695400Y-117881400D02*
X159359600Y-114217200D01*
X152476200Y-117881400D02*
X155695400Y-117881400D01*
X150876000Y-116281200D02*
X152476200Y-117881400D01*
X150876000Y-88392000D02*
X150876000Y-88773000D01*
X150876000Y-88773000D02*
X150876000Y-116281200D01*
X153314400Y-85953600D02*
X150876000Y-88392000D01*
D37*
X164185200Y-113552000D02*
X164185200Y-114248800D01*
D35*
X166039800Y-80594200D02*
X166039800Y-79781400D01*
X166827200Y-78994000D02*
X169265600Y-78994000D01*
X166039800Y-79781400D02*
X166827200Y-78994000D01*
X154457400Y-91401900D02*
X154457400Y-88874600D01*
X154457400Y-88874600D02*
X155327600Y-88004400D01*
X155327600Y-88004400D02*
X155327600Y-85953600D01*
D37*
X155327600Y-85953600D02*
X155327600Y-85579200D01*
X155327600Y-85579200D02*
X155378400Y-86138000D01*
D36*
X155378400Y-86138000D02*
X155378400Y-83058000D01*
X155429200Y-76555600D02*
X155429200Y-79857600D01*
D37*
X155429200Y-79857600D02*
X155378400Y-79908400D01*
D36*
X159359600Y-114217200D02*
X163520000Y-114217200D01*
D37*
X163520000Y-114217200D02*
X164185200Y-113552000D01*
X155327600Y-85953600D02*
X155092400Y-85953600D01*
D35*
X155429200Y-76555600D02*
X155244800Y-76555600D01*
D37*
X155524200Y-76650600D02*
X155429200Y-76555600D01*
X155429200Y-76555600D02*
X154635200Y-76555600D01*
X154635200Y-76555600D02*
X154729200Y-76461600D01*
X154813000Y-83623400D02*
X155378400Y-83058000D01*
D36*
X155378400Y-83058000D02*
X155378400Y-79908400D01*
D35*
X155416000Y-83020400D02*
X155378400Y-83058000D01*
D37*
X155378400Y-83058000D02*
X155378400Y-82683600D01*
X171246800Y-91186000D02*
X171297600Y-91236800D01*
X171297600Y-91236800D02*
X171329600Y-91236800D01*
X155327600Y-83007200D02*
X155378400Y-83058000D01*
X171075600Y-90982800D02*
X171329600Y-91236800D01*
X154457400Y-91401900D02*
X154457400Y-91433900D01*
X155378400Y-79908400D02*
X155854400Y-79908400D01*
X155378400Y-79908400D02*
X155346400Y-79908400D01*
D36*
X163267600Y-123139200D02*
X166033200Y-123139200D01*
X166033200Y-123139200D02*
X167589200Y-121583200D01*
D37*
X163303200Y-123103600D02*
X163267600Y-123139200D01*
D35*
X161645600Y-121517200D02*
X163267600Y-123139200D01*
X134010400Y-111436400D02*
X134010400Y-106673400D01*
D37*
X134010400Y-106673400D02*
X134486400Y-106673400D01*
D35*
X167265600Y-86156800D02*
X167265600Y-87509600D01*
X168402000Y-88646000D02*
X171380400Y-88646000D01*
X167265600Y-87509600D02*
X168402000Y-88646000D01*
D37*
X167265600Y-85464400D02*
X167265600Y-86156800D01*
D36*
X167589200Y-117583200D02*
X164878000Y-117583200D01*
D35*
X163303200Y-102330000D02*
X163303200Y-100787200D01*
X163017200Y-102616000D02*
X163303200Y-102330000D01*
D36*
X164878000Y-117583200D02*
X163779200Y-116484400D01*
X171077200Y-117588000D02*
X167594000Y-117588000D01*
D37*
X167594000Y-117588000D02*
X167589200Y-117583200D01*
X171077200Y-117588000D02*
X170470800Y-117588000D01*
X163779200Y-101263200D02*
X163303200Y-100787200D01*
D35*
X170904200Y-117761000D02*
X171077200Y-117588000D01*
D37*
X171153200Y-116999000D02*
X171185200Y-116967000D01*
D35*
X134010400Y-102673400D02*
X134010400Y-101092000D01*
X134010400Y-101092000D02*
X134569200Y-100533200D01*
D37*
X154965400Y-101514400D02*
X154965400Y-100863400D01*
D38*
X154965400Y-100863400D02*
X153822400Y-99720400D01*
D37*
X154965400Y-101514400D02*
X154965400Y-101371400D01*
D35*
X154965400Y-101514400D02*
X154965400Y-101244400D01*
D37*
X133280400Y-103403400D02*
X134010400Y-102673400D01*
D39*
X144519400Y-62477400D02*
X144551400Y-62509400D01*
D37*
X159664400Y-99060000D02*
X173126400Y-99060000D01*
X173126400Y-99060000D02*
X174212000Y-100145600D01*
X174212000Y-100145600D02*
X174212000Y-100787200D01*
X159664400Y-99060000D02*
X159664400Y-96806000D01*
D35*
X159664400Y-96806000D02*
X161957000Y-94513400D01*
X161957000Y-94513400D02*
X163924000Y-94513400D01*
D37*
X159429200Y-96570800D02*
X159461200Y-96570800D01*
X159664400Y-99060000D02*
X159791400Y-99060000D01*
D35*
X174212000Y-100787200D02*
X174212000Y-103327200D01*
D37*
X174212000Y-100787200D02*
X173990000Y-100787200D01*
X166039800Y-74244200D02*
X166700200Y-74244200D01*
X173126400Y-70967600D02*
X173126400Y-69697600D01*
X170586400Y-73507600D02*
X173126400Y-70967600D01*
X167436800Y-73507600D02*
X170586400Y-73507600D01*
X166700200Y-74244200D02*
X167436800Y-73507600D01*
X161848800Y-69697600D02*
X164388800Y-69697600D01*
X173126400Y-68072000D02*
X173126400Y-69697600D01*
X172364400Y-67310000D02*
X173126400Y-68072000D01*
X164388800Y-69697600D02*
X164439600Y-69748400D01*
X159848800Y-69697600D02*
X159848800Y-70136000D01*
X159848800Y-70136000D02*
X161036000Y-71323200D01*
X170230800Y-71323200D02*
X171126400Y-70427600D01*
X171126400Y-70427600D02*
X171126400Y-69697600D01*
X164769800Y-74244200D02*
X164769800Y-73177400D01*
X171126400Y-71850000D02*
X171126400Y-69697600D01*
X170129200Y-72644000D02*
X171126400Y-71850000D01*
X165100000Y-72644000D02*
X170129200Y-72644000D01*
X164769800Y-73177400D02*
X165100000Y-72644000D01*
X163499800Y-74244200D02*
X163499800Y-72974200D01*
X157848800Y-71946000D02*
X157848800Y-69697600D01*
X158242000Y-72339200D02*
X157848800Y-71946000D01*
X162864800Y-72339200D02*
X158242000Y-72339200D01*
X163499800Y-72974200D02*
X162864800Y-72339200D01*
X163499800Y-74244200D02*
X163499800Y-72669400D01*
X169126400Y-71614800D02*
X169126400Y-69697600D01*
X168859200Y-71882000D02*
X169126400Y-71614800D01*
X164287200Y-71882000D02*
X168859200Y-71882000D01*
X163499800Y-72669400D02*
X164287200Y-71882000D01*
X162229800Y-74244200D02*
X162229800Y-73990200D01*
X162229800Y-73990200D02*
X161391600Y-73152000D01*
X161391600Y-73152000D02*
X157988000Y-73152000D01*
X157988000Y-73152000D02*
X155848800Y-71012800D01*
X155848800Y-71012800D02*
X155848800Y-69697600D01*
X155848800Y-69697600D02*
X155848800Y-68992000D01*
X155848800Y-68992000D02*
X157124400Y-67716400D01*
X165145200Y-67716400D02*
X167126400Y-69697600D01*
X157124400Y-67716400D02*
X165145200Y-67716400D01*
D35*
X167303200Y-100787200D02*
X170212000Y-100787200D01*
D37*
X167303200Y-100787200D02*
X168224200Y-100787200D01*
X156467600Y-123139200D02*
X156467600Y-121002000D01*
D36*
X162574000Y-108952000D02*
X164185200Y-108952000D01*
X161645600Y-109016800D02*
X162574000Y-108952000D01*
X156467600Y-121002000D02*
X157530800Y-119938800D01*
D35*
X134010400Y-115436400D02*
X140988800Y-115436400D01*
D36*
X144551400Y-118999000D02*
X144551400Y-123469400D01*
D35*
X140988800Y-115436400D02*
X144551400Y-118999000D01*
D36*
X156467600Y-123139200D02*
X144881600Y-123139200D01*
D35*
X144881600Y-123139200D02*
X144551400Y-123469400D01*
X164268400Y-106121200D02*
X164268400Y-108868800D01*
D37*
X164268400Y-108868800D02*
X164185200Y-108952000D01*
X144881600Y-123139200D02*
X144551400Y-123469400D01*
X164033200Y-108889800D02*
X164095400Y-108952000D01*
X164095400Y-108952000D02*
X164185200Y-108952000D01*
X164268400Y-106121200D02*
X163474400Y-106121200D01*
D35*
X155070600Y-124536200D02*
X156467600Y-123139200D01*
X156311600Y-123139200D02*
X156467600Y-123139200D01*
X134010400Y-115436400D02*
X134010400Y-115468400D01*
X169265600Y-81534000D02*
X169265600Y-83769200D01*
X169265600Y-83769200D02*
X171246800Y-86156800D01*
D37*
X171246800Y-86156800D02*
X171265600Y-86156800D01*
D35*
X169324000Y-95783400D02*
X171780200Y-95783400D01*
X173329600Y-86156800D02*
X171265600Y-86156800D01*
X175361600Y-86969600D02*
X173329600Y-86156800D01*
X171780200Y-95783400D02*
X172770800Y-94792800D01*
X171519600Y-85902800D02*
X171265600Y-86156800D01*
X163924000Y-95783400D02*
X162179000Y-95783400D01*
D37*
X154127200Y-104597200D02*
X154015400Y-104597200D01*
X154086600Y-104556600D02*
X154127200Y-104597200D01*
X154015400Y-104556600D02*
X154086600Y-104556600D01*
X154025600Y-104546400D02*
X154015400Y-104556600D01*
X162179000Y-95783400D02*
X161848800Y-96113600D01*
D35*
X154015400Y-103514400D02*
X154015400Y-104597200D01*
X154015400Y-104597200D02*
X154015400Y-105469400D01*
X154015400Y-105469400D02*
X154489400Y-105943400D01*
D37*
X153965400Y-103464400D02*
X153761400Y-103464400D01*
X159327600Y-85953600D02*
X163550600Y-85953600D01*
X165684200Y-83820000D02*
X167589200Y-83820000D01*
X163550600Y-85953600D02*
X165684200Y-83820000D01*
X157105600Y-91389200D02*
X157105600Y-89909400D01*
X163924000Y-91407000D02*
X163924000Y-93243400D01*
X162077400Y-89560400D02*
X163924000Y-91407000D01*
X157454600Y-89560400D02*
X162077400Y-89560400D01*
X157105600Y-89909400D02*
X157454600Y-89560400D01*
D35*
X174345600Y-83108800D02*
X174345600Y-81534000D01*
X174955200Y-83718400D02*
X174345600Y-83108800D01*
X157105600Y-91389200D02*
X157105600Y-89071200D01*
D37*
X159327600Y-86849200D02*
X159327600Y-85953600D01*
D35*
X157105600Y-89071200D02*
X159327600Y-86849200D01*
D37*
X163924000Y-93243400D02*
X163924000Y-93235800D01*
X157105600Y-91389200D02*
X157105600Y-90976200D01*
D35*
X154457400Y-93941900D02*
X157010100Y-91293700D01*
D37*
X157010100Y-91293700D02*
X157105600Y-91389200D01*
X157105600Y-91389200D02*
X156946600Y-91389200D01*
D35*
X156851600Y-91643200D02*
X157105600Y-91389200D01*
D37*
X163499800Y-79324200D02*
X163499800Y-80594200D01*
X164236400Y-78587600D02*
X163499800Y-79324200D01*
D35*
X169324000Y-94513400D02*
X171526200Y-94513400D01*
X174091600Y-84683600D02*
X171805600Y-81940400D01*
X171526200Y-94513400D02*
X172974000Y-93065600D01*
D37*
X171805600Y-81940400D02*
X171805600Y-81534000D01*
X171805600Y-81635600D02*
X171805600Y-81534000D01*
X159378400Y-79908400D02*
X159461200Y-79908400D01*
X159461200Y-79908400D02*
X161544000Y-81991200D01*
X163499800Y-81813400D02*
X163499800Y-80594200D01*
X163322000Y-81991200D02*
X163499800Y-81813400D01*
X161544000Y-81991200D02*
X163322000Y-81991200D01*
X159378400Y-79908400D02*
X159378400Y-80028800D01*
X159378400Y-79908400D02*
X159378400Y-80448400D01*
X159505400Y-80035400D02*
X159378400Y-79908400D01*
X159378400Y-79908400D02*
X159378400Y-80194400D01*
X169324000Y-97053400D02*
X166395400Y-97053400D01*
X166395400Y-97053400D02*
X165912800Y-96570800D01*
X164769800Y-80594200D02*
X164769800Y-79629000D01*
X169875200Y-77063600D02*
X171805600Y-78994000D01*
X167335200Y-77063600D02*
X169875200Y-77063600D01*
X164769800Y-79629000D02*
X167335200Y-77063600D01*
X159378400Y-83058000D02*
X162661600Y-83058000D01*
X162661600Y-83058000D02*
X163576000Y-83058000D01*
X164769800Y-81864200D02*
X164769800Y-80594200D01*
X163576000Y-83058000D02*
X164769800Y-81864200D01*
X159378400Y-83534000D02*
X159378400Y-83058000D01*
X160070800Y-83058000D02*
X159378400Y-83058000D01*
M02*
