G04 #@! TF.GenerationSoftware,KiCad,Pcbnew,(5.1.0)-1*
G04 #@! TF.CreationDate,2019-06-25T11:49:38+01:00*
G04 #@! TF.ProjectId,BMS_Cell_Module,424d535f-4365-46c6-9c5f-4d6f64756c65,3.0*
G04 #@! TF.SameCoordinates,Original*
G04 #@! TF.FileFunction,Soldermask,Top*
G04 #@! TF.FilePolarity,Negative*
%FSLAX46Y46*%
G04 Gerber Fmt 4.6, Leading zero omitted, Abs format (unit mm)*
G04 Created by KiCad (PCBNEW (5.1.0)-1) date 2019-06-25 11:49:38*
%MOMM*%
%LPD*%
G04 APERTURE LIST*
%ADD10C,3.900000*%
%ADD11O,2.800000X2.800000*%
%ADD12C,2.800000*%
%ADD13R,3.800000X1.825000*%
%ADD14R,1.800000X1.725000*%
%ADD15R,2.100000X2.100000*%
%ADD16O,2.100000X2.100000*%
%ADD17R,2.200000X2.800000*%
%ADD18R,1.950000X1.000000*%
%ADD19R,1.050000X2.100000*%
%ADD20R,1.200000X1.300000*%
%ADD21C,1.900000*%
%ADD22R,1.725000X1.800000*%
%ADD23R,1.800000X1.550000*%
%ADD24R,1.600000X2.100000*%
%ADD25O,1.600000X2.100000*%
%ADD26C,1.800000*%
%ADD27O,1.800000X1.800000*%
%ADD28R,1.960000X1.050000*%
G04 APERTURE END LIST*
D10*
X110800000Y-96600000D03*
X171000000Y-73400000D03*
D11*
X110640000Y-83250000D03*
D12*
X171600000Y-83250000D03*
D13*
X111000000Y-87637500D03*
X111000000Y-91962500D03*
D14*
X133050000Y-75687500D03*
X133050000Y-73812500D03*
D15*
X164325000Y-90550000D03*
D16*
X166865000Y-90550000D03*
X169405000Y-90550000D03*
X171945000Y-90550000D03*
D17*
X115315000Y-96730000D03*
X115315000Y-92410000D03*
D14*
X154900000Y-75687500D03*
X154900000Y-73812500D03*
X157400000Y-75687500D03*
X157400000Y-73812500D03*
D18*
X165380000Y-72235000D03*
X165380000Y-73505000D03*
X165380000Y-74775000D03*
X165380000Y-76045000D03*
X159980000Y-76045000D03*
X159980000Y-74775000D03*
X159980000Y-73505000D03*
X159980000Y-72235000D03*
D19*
X143465000Y-90270000D03*
X144735000Y-90270000D03*
X146005000Y-90270000D03*
X147275000Y-90270000D03*
X147275000Y-97570000D03*
X146005000Y-97570000D03*
X144735000Y-97570000D03*
X143465000Y-97570000D03*
D20*
X171570000Y-80690000D03*
X170620000Y-78690000D03*
X172520000Y-78690000D03*
D21*
X120850000Y-75700000D03*
X120900000Y-73200000D03*
D22*
X128762500Y-96950000D03*
X130637500Y-96950000D03*
X110262500Y-78150000D03*
X112137500Y-78150000D03*
X150562500Y-75700000D03*
X152437500Y-75700000D03*
X140687500Y-91950000D03*
X138812500Y-91950000D03*
X130637500Y-94450000D03*
X128762500Y-94450000D03*
X130637500Y-91950000D03*
X128762500Y-91950000D03*
D23*
X130550000Y-75600000D03*
X130550000Y-73900000D03*
X138050000Y-73900000D03*
X138050000Y-75600000D03*
D14*
X135550000Y-75687500D03*
X135550000Y-73812500D03*
X141000000Y-97287500D03*
X141000000Y-95412500D03*
X138500000Y-97287500D03*
X138500000Y-95412500D03*
X112500000Y-73812500D03*
X112500000Y-75687500D03*
X110000000Y-73812500D03*
X110000000Y-75687500D03*
X168300000Y-78772500D03*
X168300000Y-80647500D03*
D24*
X152350000Y-92300000D03*
D25*
X154350000Y-92300000D03*
X156350000Y-92300000D03*
X158350000Y-92300000D03*
D24*
X165129762Y-92300000D03*
D25*
X167129762Y-92300000D03*
X169129762Y-92300000D03*
X171129762Y-92300000D03*
D15*
X142400000Y-75500000D03*
D16*
X142400000Y-72960000D03*
X144940000Y-75500000D03*
X144940000Y-72960000D03*
X147480000Y-75500000D03*
X147480000Y-72960000D03*
D26*
X133275000Y-91950000D03*
D27*
X135815000Y-91950000D03*
D24*
X120075000Y-92300000D03*
D25*
X122075000Y-92300000D03*
D28*
X135900000Y-97350000D03*
X135900000Y-96400000D03*
X135900000Y-95450000D03*
X133200000Y-95450000D03*
X133200000Y-97350000D03*
X133200000Y-96400000D03*
D16*
X159160000Y-90550000D03*
X156620000Y-90550000D03*
X154080000Y-90550000D03*
D15*
X151540000Y-90550000D03*
D16*
X122340000Y-90550000D03*
D15*
X119800000Y-90550000D03*
M02*
