M48
;DRILL file {KiCad (5.0.0)} date 09/26/18 19:55:33
;FORMAT={3:3/ absolute / metric / suppress leading zeros}
FMAT,2
METRIC,TZ
T1C0.300
T2C0.400
T3C0.700
T4C0.750
T5C1.000
T6C1.200
%
G90
G05
M71
T1
X117500Y-79500
X117500Y-83250
X117500Y-87000
X120850Y-77050
X122500Y-79500
X122500Y-83250
X122500Y-87000
X127500Y-79500
X127500Y-83250
X127500Y-87000
X127900Y-91950
X128800Y-96000
X132500Y-79500
X132500Y-83250
X132500Y-87000
X133050Y-76600
X134550Y-98050
X135450Y-94400
X137500Y-79500
X137500Y-83250
X137500Y-87000
X138900Y-76350
X139400Y-96000
X142300Y-94250
X142350Y-96750
X143000Y-79500
X143000Y-83250
X143000Y-87000
X145150Y-81500
X145950Y-77250
X147375Y-94475
X147550Y-79750
X147550Y-88600
X148250Y-97550
X148500Y-79500
X148500Y-83250
X148500Y-87000
X150475Y-81500
X151650Y-77350
X153650Y-79500
X153650Y-83250
X153650Y-87000
X154900Y-76550
X158350Y-75650
X159000Y-73550
X159150Y-79500
X159150Y-83250
X159150Y-87000
X160000Y-92850
X164675Y-79500
X164675Y-83250
X164675Y-87000
X168300Y-81500
T2
X115950Y-75700
X169950Y-78690
X170620Y-77960
T3
X133275Y-91950
X135815Y-91950
T4
X165130Y-92300
X167130Y-92300
X169130Y-92300
X171130Y-92300
X120075Y-92300
X122075Y-92300
X152350Y-92300
X154350Y-92300
X156350Y-92300
X158350Y-92300
T5
X142400Y-72710
X142400Y-75250
X144940Y-72710
X144940Y-75250
X147480Y-72710
X147480Y-75250
X151540Y-90550
X154080Y-90550
X156620Y-90550
X159160Y-90550
X164325Y-90550
X166865Y-90550
X169405Y-90550
X171945Y-90550
X119800Y-90550
X122340Y-90550
T6
X110640Y-83250
X171600Y-83250
T0
M30
