G04 #@! TF.GenerationSoftware,KiCad,Pcbnew,(5.1.0)-1*
G04 #@! TF.CreationDate,2019-06-25T11:53:36+01:00*
G04 #@! TF.ProjectId,BMS_Cell_Module,424d535f-4365-46c6-9c5f-4d6f64756c65,3.0*
G04 #@! TF.SameCoordinates,Original*
G04 #@! TF.FileFunction,Legend,Top*
G04 #@! TF.FilePolarity,Positive*
%FSLAX46Y46*%
G04 Gerber Fmt 4.6, Leading zero omitted, Abs format (unit mm)*
G04 Created by KiCad (PCBNEW (5.1.0)-1) date 2019-06-25 11:53:36*
%MOMM*%
%LPD*%
G04 APERTURE LIST*
%ADD10C,0.200000*%
%ADD11C,0.150000*%
%ADD12C,0.300000*%
%ADD13C,0.400000*%
%ADD14C,0.120000*%
%ADD15C,0.010000*%
G04 APERTURE END LIST*
D10*
X162721428Y-97857142D02*
X161578571Y-97857142D01*
X162150000Y-98428571D02*
X162150000Y-97285714D01*
X149971428Y-97857142D02*
X148828571Y-97857142D01*
X149400000Y-98428571D02*
X149400000Y-97285714D01*
D11*
X124065952Y-90068571D02*
X124208809Y-90116190D01*
X124256428Y-90163809D01*
X124304047Y-90259047D01*
X124304047Y-90401904D01*
X124256428Y-90497142D01*
X124208809Y-90544761D01*
X124113571Y-90592380D01*
X123732619Y-90592380D01*
X123732619Y-89592380D01*
X124065952Y-89592380D01*
X124161190Y-89640000D01*
X124208809Y-89687619D01*
X124256428Y-89782857D01*
X124256428Y-89878095D01*
X124208809Y-89973333D01*
X124161190Y-90020952D01*
X124065952Y-90068571D01*
X123732619Y-90068571D01*
X124685000Y-90306666D02*
X125161190Y-90306666D01*
X124589761Y-90592380D02*
X124923095Y-89592380D01*
X125256428Y-90592380D01*
X125446904Y-89592380D02*
X126018333Y-89592380D01*
X125732619Y-90592380D02*
X125732619Y-89592380D01*
X126208809Y-89592380D02*
X126780238Y-89592380D01*
X126494523Y-90592380D02*
X126494523Y-89592380D01*
X134397500Y-81042857D02*
X134397500Y-82014285D01*
X134340357Y-82128571D01*
X134283214Y-82185714D01*
X134168928Y-82242857D01*
X133997500Y-82242857D01*
X133883214Y-82185714D01*
X134397500Y-81785714D02*
X134283214Y-81842857D01*
X134054642Y-81842857D01*
X133940357Y-81785714D01*
X133883214Y-81728571D01*
X133826071Y-81614285D01*
X133826071Y-81271428D01*
X133883214Y-81157142D01*
X133940357Y-81100000D01*
X134054642Y-81042857D01*
X134283214Y-81042857D01*
X134397500Y-81100000D01*
X134968928Y-81842857D02*
X134968928Y-81042857D01*
X134968928Y-80642857D02*
X134911785Y-80700000D01*
X134968928Y-80757142D01*
X135026071Y-80700000D01*
X134968928Y-80642857D01*
X134968928Y-80757142D01*
X135368928Y-81042857D02*
X135826071Y-81042857D01*
X135540357Y-80642857D02*
X135540357Y-81671428D01*
X135597500Y-81785714D01*
X135711785Y-81842857D01*
X135826071Y-81842857D01*
X136226071Y-81842857D02*
X136226071Y-80642857D01*
X136740357Y-81842857D02*
X136740357Y-81214285D01*
X136683214Y-81100000D01*
X136568928Y-81042857D01*
X136397500Y-81042857D01*
X136283214Y-81100000D01*
X136226071Y-81157142D01*
X137826071Y-81042857D02*
X137826071Y-81842857D01*
X137311785Y-81042857D02*
X137311785Y-81671428D01*
X137368928Y-81785714D01*
X137483214Y-81842857D01*
X137654642Y-81842857D01*
X137768928Y-81785714D01*
X137826071Y-81728571D01*
X138397500Y-81842857D02*
X138397500Y-80642857D01*
X138397500Y-81100000D02*
X138511785Y-81042857D01*
X138740357Y-81042857D01*
X138854642Y-81100000D01*
X138911785Y-81157142D01*
X138968928Y-81271428D01*
X138968928Y-81614285D01*
X138911785Y-81728571D01*
X138854642Y-81785714D01*
X138740357Y-81842857D01*
X138511785Y-81842857D01*
X138397500Y-81785714D01*
X139483214Y-81728571D02*
X139540357Y-81785714D01*
X139483214Y-81842857D01*
X139426071Y-81785714D01*
X139483214Y-81728571D01*
X139483214Y-81842857D01*
X140568928Y-81785714D02*
X140454642Y-81842857D01*
X140226071Y-81842857D01*
X140111785Y-81785714D01*
X140054642Y-81728571D01*
X139997500Y-81614285D01*
X139997500Y-81271428D01*
X140054642Y-81157142D01*
X140111785Y-81100000D01*
X140226071Y-81042857D01*
X140454642Y-81042857D01*
X140568928Y-81100000D01*
X141254642Y-81842857D02*
X141140357Y-81785714D01*
X141083214Y-81728571D01*
X141026071Y-81614285D01*
X141026071Y-81271428D01*
X141083214Y-81157142D01*
X141140357Y-81100000D01*
X141254642Y-81042857D01*
X141426071Y-81042857D01*
X141540357Y-81100000D01*
X141597500Y-81157142D01*
X141654642Y-81271428D01*
X141654642Y-81614285D01*
X141597500Y-81728571D01*
X141540357Y-81785714D01*
X141426071Y-81842857D01*
X141254642Y-81842857D01*
X142168928Y-81842857D02*
X142168928Y-81042857D01*
X142168928Y-81157142D02*
X142226071Y-81100000D01*
X142340357Y-81042857D01*
X142511785Y-81042857D01*
X142626071Y-81100000D01*
X142683214Y-81214285D01*
X142683214Y-81842857D01*
X142683214Y-81214285D02*
X142740357Y-81100000D01*
X142854642Y-81042857D01*
X143026071Y-81042857D01*
X143140357Y-81100000D01*
X143197500Y-81214285D01*
X143197500Y-81842857D01*
X144626071Y-80585714D02*
X143597500Y-82128571D01*
X144968928Y-81785714D02*
X145083214Y-81842857D01*
X145311785Y-81842857D01*
X145426071Y-81785714D01*
X145483214Y-81671428D01*
X145483214Y-81614285D01*
X145426071Y-81500000D01*
X145311785Y-81442857D01*
X145140357Y-81442857D01*
X145026071Y-81385714D01*
X144968928Y-81271428D01*
X144968928Y-81214285D01*
X145026071Y-81100000D01*
X145140357Y-81042857D01*
X145311785Y-81042857D01*
X145426071Y-81100000D01*
X145826071Y-81042857D02*
X146283214Y-81042857D01*
X145997500Y-80642857D02*
X145997500Y-81671428D01*
X146054642Y-81785714D01*
X146168928Y-81842857D01*
X146283214Y-81842857D01*
X147197500Y-81042857D02*
X147197500Y-81842857D01*
X146683214Y-81042857D02*
X146683214Y-81671428D01*
X146740357Y-81785714D01*
X146854642Y-81842857D01*
X147026071Y-81842857D01*
X147140357Y-81785714D01*
X147197500Y-81728571D01*
X148283214Y-81842857D02*
X148283214Y-81214285D01*
X148226071Y-81100000D01*
X148111785Y-81042857D01*
X147883214Y-81042857D01*
X147768928Y-81100000D01*
X148283214Y-81785714D02*
X148168928Y-81842857D01*
X147883214Y-81842857D01*
X147768928Y-81785714D01*
X147711785Y-81671428D01*
X147711785Y-81557142D01*
X147768928Y-81442857D01*
X147883214Y-81385714D01*
X148168928Y-81385714D01*
X148283214Y-81328571D01*
X148854642Y-81842857D02*
X148854642Y-81042857D01*
X148854642Y-81271428D02*
X148911785Y-81157142D01*
X148968928Y-81100000D01*
X149083214Y-81042857D01*
X149197500Y-81042857D01*
X149426071Y-81042857D02*
X149883214Y-81042857D01*
X149597500Y-80642857D02*
X149597500Y-81671428D01*
X149654642Y-81785714D01*
X149768928Y-81842857D01*
X149883214Y-81842857D01*
X150283214Y-81042857D02*
X150283214Y-82242857D01*
X150283214Y-81100000D02*
X150397500Y-81042857D01*
X150626071Y-81042857D01*
X150740357Y-81100000D01*
X150797500Y-81157142D01*
X150854642Y-81271428D01*
X150854642Y-81614285D01*
X150797500Y-81728571D01*
X150740357Y-81785714D01*
X150626071Y-81842857D01*
X150397500Y-81842857D01*
X150283214Y-81785714D01*
X151368928Y-81842857D02*
X151368928Y-81042857D01*
X151368928Y-80642857D02*
X151311785Y-80700000D01*
X151368928Y-80757142D01*
X151426071Y-80700000D01*
X151368928Y-80642857D01*
X151368928Y-80757142D01*
X151768928Y-81042857D02*
X152226071Y-81042857D01*
X151940357Y-80642857D02*
X151940357Y-81671428D01*
X151997500Y-81785714D01*
X152111785Y-81842857D01*
X152226071Y-81842857D01*
X152454642Y-81042857D02*
X152911785Y-81042857D01*
X152626071Y-80642857D02*
X152626071Y-81671428D01*
X152683214Y-81785714D01*
X152797500Y-81842857D01*
X152911785Y-81842857D01*
X153826071Y-81842857D02*
X153826071Y-81214285D01*
X153768928Y-81100000D01*
X153654642Y-81042857D01*
X153426071Y-81042857D01*
X153311785Y-81100000D01*
X153826071Y-81785714D02*
X153711785Y-81842857D01*
X153426071Y-81842857D01*
X153311785Y-81785714D01*
X153254642Y-81671428D01*
X153254642Y-81557142D01*
X153311785Y-81442857D01*
X153426071Y-81385714D01*
X153711785Y-81385714D01*
X153826071Y-81328571D01*
X154283214Y-81042857D02*
X154511785Y-81842857D01*
X154740357Y-81271428D01*
X154968928Y-81842857D01*
X155197500Y-81042857D01*
X156168928Y-81842857D02*
X156168928Y-81214285D01*
X156111785Y-81100000D01*
X155997500Y-81042857D01*
X155768928Y-81042857D01*
X155654642Y-81100000D01*
X156168928Y-81785714D02*
X156054642Y-81842857D01*
X155768928Y-81842857D01*
X155654642Y-81785714D01*
X155597500Y-81671428D01*
X155597500Y-81557142D01*
X155654642Y-81442857D01*
X155768928Y-81385714D01*
X156054642Y-81385714D01*
X156168928Y-81328571D01*
X156626071Y-81042857D02*
X156911785Y-81842857D01*
X157197500Y-81042857D02*
X156911785Y-81842857D01*
X156797500Y-82128571D01*
X156740357Y-82185714D01*
X156626071Y-82242857D01*
X158511785Y-80585714D02*
X157483214Y-82128571D01*
X159426071Y-81842857D02*
X159426071Y-80642857D01*
X159426071Y-81785714D02*
X159311785Y-81842857D01*
X159083214Y-81842857D01*
X158968928Y-81785714D01*
X158911785Y-81728571D01*
X158854642Y-81614285D01*
X158854642Y-81271428D01*
X158911785Y-81157142D01*
X158968928Y-81100000D01*
X159083214Y-81042857D01*
X159311785Y-81042857D01*
X159426071Y-81100000D01*
X159997500Y-81842857D02*
X159997500Y-81042857D01*
X159997500Y-80642857D02*
X159940357Y-80700000D01*
X159997500Y-80757142D01*
X160054642Y-80700000D01*
X159997500Y-80642857D01*
X159997500Y-80757142D01*
X160454642Y-81042857D02*
X160740357Y-81842857D01*
X161026071Y-81042857D02*
X160740357Y-81842857D01*
X160626071Y-82128571D01*
X160568928Y-82185714D01*
X160454642Y-82242857D01*
X161883214Y-81214285D02*
X162054642Y-81271428D01*
X162111785Y-81328571D01*
X162168928Y-81442857D01*
X162168928Y-81614285D01*
X162111785Y-81728571D01*
X162054642Y-81785714D01*
X161940357Y-81842857D01*
X161483214Y-81842857D01*
X161483214Y-80642857D01*
X161883214Y-80642857D01*
X161997500Y-80700000D01*
X162054642Y-80757142D01*
X162111785Y-80871428D01*
X162111785Y-80985714D01*
X162054642Y-81100000D01*
X161997500Y-81157142D01*
X161883214Y-81214285D01*
X161483214Y-81214285D01*
X162683214Y-81842857D02*
X162683214Y-80642857D01*
X163083214Y-81500000D01*
X163483214Y-80642857D01*
X163483214Y-81842857D01*
X163997500Y-81785714D02*
X164168928Y-81842857D01*
X164454642Y-81842857D01*
X164568928Y-81785714D01*
X164626071Y-81728571D01*
X164683214Y-81614285D01*
X164683214Y-81500000D01*
X164626071Y-81385714D01*
X164568928Y-81328571D01*
X164454642Y-81271428D01*
X164226071Y-81214285D01*
X164111785Y-81157142D01*
X164054642Y-81100000D01*
X163997500Y-80985714D01*
X163997500Y-80871428D01*
X164054642Y-80757142D01*
X164111785Y-80700000D01*
X164226071Y-80642857D01*
X164511785Y-80642857D01*
X164683214Y-80700000D01*
X134854642Y-84828571D02*
X134740357Y-84771428D01*
X134511785Y-84771428D01*
X134397500Y-84828571D01*
X134283214Y-84942857D01*
X134226071Y-85057142D01*
X134226071Y-85285714D01*
X134283214Y-85400000D01*
X134397500Y-85514285D01*
X134511785Y-85571428D01*
X134740357Y-85571428D01*
X134854642Y-85514285D01*
X134626071Y-84371428D02*
X134340357Y-84428571D01*
X134054642Y-84600000D01*
X133883214Y-84885714D01*
X133826071Y-85171428D01*
X133883214Y-85457142D01*
X134054642Y-85742857D01*
X134340357Y-85914285D01*
X134626071Y-85971428D01*
X134911785Y-85914285D01*
X135197500Y-85742857D01*
X135368928Y-85457142D01*
X135426071Y-85171428D01*
X135368928Y-84885714D01*
X135197500Y-84600000D01*
X134911785Y-84428571D01*
X134626071Y-84371428D01*
X136797500Y-84657142D02*
X136854642Y-84600000D01*
X136968928Y-84542857D01*
X137254642Y-84542857D01*
X137368928Y-84600000D01*
X137426071Y-84657142D01*
X137483214Y-84771428D01*
X137483214Y-84885714D01*
X137426071Y-85057142D01*
X136740357Y-85742857D01*
X137483214Y-85742857D01*
X138226071Y-84542857D02*
X138340357Y-84542857D01*
X138454642Y-84600000D01*
X138511785Y-84657142D01*
X138568928Y-84771428D01*
X138626071Y-85000000D01*
X138626071Y-85285714D01*
X138568928Y-85514285D01*
X138511785Y-85628571D01*
X138454642Y-85685714D01*
X138340357Y-85742857D01*
X138226071Y-85742857D01*
X138111785Y-85685714D01*
X138054642Y-85628571D01*
X137997500Y-85514285D01*
X137940357Y-85285714D01*
X137940357Y-85000000D01*
X137997500Y-84771428D01*
X138054642Y-84657142D01*
X138111785Y-84600000D01*
X138226071Y-84542857D01*
X139768928Y-85742857D02*
X139083214Y-85742857D01*
X139426071Y-85742857D02*
X139426071Y-84542857D01*
X139311785Y-84714285D01*
X139197500Y-84828571D01*
X139083214Y-84885714D01*
X140168928Y-84542857D02*
X140968928Y-84542857D01*
X140454642Y-85742857D01*
X142283214Y-85685714D02*
X142454642Y-85742857D01*
X142740357Y-85742857D01*
X142854642Y-85685714D01*
X142911785Y-85628571D01*
X142968928Y-85514285D01*
X142968928Y-85400000D01*
X142911785Y-85285714D01*
X142854642Y-85228571D01*
X142740357Y-85171428D01*
X142511785Y-85114285D01*
X142397500Y-85057142D01*
X142340357Y-85000000D01*
X142283214Y-84885714D01*
X142283214Y-84771428D01*
X142340357Y-84657142D01*
X142397500Y-84600000D01*
X142511785Y-84542857D01*
X142797500Y-84542857D01*
X142968928Y-84600000D01*
X143311785Y-84942857D02*
X143768928Y-84942857D01*
X143483214Y-84542857D02*
X143483214Y-85571428D01*
X143540357Y-85685714D01*
X143654642Y-85742857D01*
X143768928Y-85742857D01*
X144683214Y-84942857D02*
X144683214Y-85742857D01*
X144168928Y-84942857D02*
X144168928Y-85571428D01*
X144226071Y-85685714D01*
X144340357Y-85742857D01*
X144511785Y-85742857D01*
X144626071Y-85685714D01*
X144683214Y-85628571D01*
X145768928Y-85742857D02*
X145768928Y-85114285D01*
X145711785Y-85000000D01*
X145597500Y-84942857D01*
X145368928Y-84942857D01*
X145254642Y-85000000D01*
X145768928Y-85685714D02*
X145654642Y-85742857D01*
X145368928Y-85742857D01*
X145254642Y-85685714D01*
X145197500Y-85571428D01*
X145197500Y-85457142D01*
X145254642Y-85342857D01*
X145368928Y-85285714D01*
X145654642Y-85285714D01*
X145768928Y-85228571D01*
X146340357Y-85742857D02*
X146340357Y-84942857D01*
X146340357Y-85171428D02*
X146397500Y-85057142D01*
X146454642Y-85000000D01*
X146568928Y-84942857D01*
X146683214Y-84942857D01*
X146911785Y-84942857D02*
X147368928Y-84942857D01*
X147083214Y-84542857D02*
X147083214Y-85571428D01*
X147140357Y-85685714D01*
X147254642Y-85742857D01*
X147368928Y-85742857D01*
X148683214Y-85742857D02*
X148683214Y-84542857D01*
X149140357Y-84542857D01*
X149254642Y-84600000D01*
X149311785Y-84657142D01*
X149368928Y-84771428D01*
X149368928Y-84942857D01*
X149311785Y-85057142D01*
X149254642Y-85114285D01*
X149140357Y-85171428D01*
X148683214Y-85171428D01*
X149883214Y-85742857D02*
X149883214Y-84942857D01*
X149883214Y-84542857D02*
X149826071Y-84600000D01*
X149883214Y-84657142D01*
X149940357Y-84600000D01*
X149883214Y-84542857D01*
X149883214Y-84657142D01*
X150283214Y-84942857D02*
X150740357Y-84942857D01*
X150454642Y-84542857D02*
X150454642Y-85571428D01*
X150511785Y-85685714D01*
X150626071Y-85742857D01*
X150740357Y-85742857D01*
X150968928Y-84942857D02*
X151426071Y-84942857D01*
X151140357Y-84542857D02*
X151140357Y-85571428D01*
X151197500Y-85685714D01*
X151311785Y-85742857D01*
X151426071Y-85742857D01*
X152340357Y-85742857D02*
X152340357Y-85114285D01*
X152283214Y-85000000D01*
X152168928Y-84942857D01*
X151940357Y-84942857D01*
X151826071Y-85000000D01*
X152340357Y-85685714D02*
X152226071Y-85742857D01*
X151940357Y-85742857D01*
X151826071Y-85685714D01*
X151768928Y-85571428D01*
X151768928Y-85457142D01*
X151826071Y-85342857D01*
X151940357Y-85285714D01*
X152226071Y-85285714D01*
X152340357Y-85228571D01*
X152797500Y-84942857D02*
X153026071Y-85742857D01*
X153254642Y-85171428D01*
X153483214Y-85742857D01*
X153711785Y-84942857D01*
X154683214Y-85742857D02*
X154683214Y-85114285D01*
X154626071Y-85000000D01*
X154511785Y-84942857D01*
X154283214Y-84942857D01*
X154168928Y-85000000D01*
X154683214Y-85685714D02*
X154568928Y-85742857D01*
X154283214Y-85742857D01*
X154168928Y-85685714D01*
X154111785Y-85571428D01*
X154111785Y-85457142D01*
X154168928Y-85342857D01*
X154283214Y-85285714D01*
X154568928Y-85285714D01*
X154683214Y-85228571D01*
X155140357Y-84942857D02*
X155426071Y-85742857D01*
X155711785Y-84942857D02*
X155426071Y-85742857D01*
X155311785Y-86028571D01*
X155254642Y-86085714D01*
X155140357Y-86142857D01*
X137350000Y-97740000D02*
G75*
G03X137350000Y-97740000I-250000J0D01*
G01*
X140718571Y-76561904D02*
X140261428Y-76561904D01*
X140490000Y-76561904D02*
X140490000Y-75761904D01*
X140413809Y-75876190D01*
X140337619Y-75952380D01*
X140261428Y-75990476D01*
D12*
X124515476Y-97789285D02*
X125734523Y-97789285D01*
X125125000Y-98398809D02*
X125125000Y-97179761D01*
D11*
X143710000Y-96040000D02*
G75*
G03X143710000Y-96040000I-250000J0D01*
G01*
X161650000Y-72300000D02*
G75*
G03X161650000Y-72300000I-250000J0D01*
G01*
X109690476Y-85928571D02*
X109357142Y-85928571D01*
X109357142Y-86452380D02*
X109357142Y-85452380D01*
X109833333Y-85452380D01*
X110214285Y-85452380D02*
X110214285Y-86261904D01*
X110261904Y-86357142D01*
X110309523Y-86404761D01*
X110404761Y-86452380D01*
X110595238Y-86452380D01*
X110690476Y-86404761D01*
X110738095Y-86357142D01*
X110785714Y-86261904D01*
X110785714Y-85452380D01*
X111214285Y-86404761D02*
X111357142Y-86452380D01*
X111595238Y-86452380D01*
X111690476Y-86404761D01*
X111738095Y-86357142D01*
X111785714Y-86261904D01*
X111785714Y-86166666D01*
X111738095Y-86071428D01*
X111690476Y-86023809D01*
X111595238Y-85976190D01*
X111404761Y-85928571D01*
X111309523Y-85880952D01*
X111261904Y-85833333D01*
X111214285Y-85738095D01*
X111214285Y-85642857D01*
X111261904Y-85547619D01*
X111309523Y-85500000D01*
X111404761Y-85452380D01*
X111642857Y-85452380D01*
X111785714Y-85500000D01*
X112214285Y-85928571D02*
X112547619Y-85928571D01*
X112690476Y-86452380D02*
X112214285Y-86452380D01*
X112214285Y-85452380D01*
X112690476Y-85452380D01*
X117388571Y-84702380D02*
X117721904Y-85702380D01*
X118055238Y-84702380D01*
X118293333Y-84702380D02*
X118912380Y-84702380D01*
X118579047Y-85083333D01*
X118721904Y-85083333D01*
X118817142Y-85130952D01*
X118864761Y-85178571D01*
X118912380Y-85273809D01*
X118912380Y-85511904D01*
X118864761Y-85607142D01*
X118817142Y-85654761D01*
X118721904Y-85702380D01*
X118436190Y-85702380D01*
X118340952Y-85654761D01*
X118293333Y-85607142D01*
X119340952Y-85607142D02*
X119388571Y-85654761D01*
X119340952Y-85702380D01*
X119293333Y-85654761D01*
X119340952Y-85607142D01*
X119340952Y-85702380D01*
X120007619Y-84702380D02*
X120102857Y-84702380D01*
X120198095Y-84750000D01*
X120245714Y-84797619D01*
X120293333Y-84892857D01*
X120340952Y-85083333D01*
X120340952Y-85321428D01*
X120293333Y-85511904D01*
X120245714Y-85607142D01*
X120198095Y-85654761D01*
X120102857Y-85702380D01*
X120007619Y-85702380D01*
X119912380Y-85654761D01*
X119864761Y-85607142D01*
X119817142Y-85511904D01*
X119769523Y-85321428D01*
X119769523Y-85083333D01*
X119817142Y-84892857D01*
X119864761Y-84797619D01*
X119912380Y-84750000D01*
X120007619Y-84702380D01*
X121817142Y-86083333D02*
X121769523Y-86035714D01*
X121674285Y-85892857D01*
X121626666Y-85797619D01*
X121579047Y-85654761D01*
X121531428Y-85416666D01*
X121531428Y-85226190D01*
X121579047Y-84988095D01*
X121626666Y-84845238D01*
X121674285Y-84750000D01*
X121769523Y-84607142D01*
X121817142Y-84559523D01*
X122483809Y-84702380D02*
X122483809Y-85416666D01*
X122436190Y-85559523D01*
X122340952Y-85654761D01*
X122198095Y-85702380D01*
X122102857Y-85702380D01*
X123388571Y-85035714D02*
X123388571Y-85702380D01*
X122960000Y-85035714D02*
X122960000Y-85559523D01*
X123007619Y-85654761D01*
X123102857Y-85702380D01*
X123245714Y-85702380D01*
X123340952Y-85654761D01*
X123388571Y-85607142D01*
X123864761Y-85035714D02*
X123864761Y-85702380D01*
X123864761Y-85130952D02*
X123912380Y-85083333D01*
X124007619Y-85035714D01*
X124150476Y-85035714D01*
X124245714Y-85083333D01*
X124293333Y-85178571D01*
X124293333Y-85702380D01*
X125150476Y-85654761D02*
X125055238Y-85702380D01*
X124864761Y-85702380D01*
X124769523Y-85654761D01*
X124721904Y-85559523D01*
X124721904Y-85178571D01*
X124769523Y-85083333D01*
X124864761Y-85035714D01*
X125055238Y-85035714D01*
X125150476Y-85083333D01*
X125198095Y-85178571D01*
X125198095Y-85273809D01*
X124721904Y-85369047D01*
X126340952Y-84797619D02*
X126388571Y-84750000D01*
X126483809Y-84702380D01*
X126721904Y-84702380D01*
X126817142Y-84750000D01*
X126864761Y-84797619D01*
X126912380Y-84892857D01*
X126912380Y-84988095D01*
X126864761Y-85130952D01*
X126293333Y-85702380D01*
X126912380Y-85702380D01*
X127531428Y-84702380D02*
X127626666Y-84702380D01*
X127721904Y-84750000D01*
X127769523Y-84797619D01*
X127817142Y-84892857D01*
X127864761Y-85083333D01*
X127864761Y-85321428D01*
X127817142Y-85511904D01*
X127769523Y-85607142D01*
X127721904Y-85654761D01*
X127626666Y-85702380D01*
X127531428Y-85702380D01*
X127436190Y-85654761D01*
X127388571Y-85607142D01*
X127340952Y-85511904D01*
X127293333Y-85321428D01*
X127293333Y-85083333D01*
X127340952Y-84892857D01*
X127388571Y-84797619D01*
X127436190Y-84750000D01*
X127531428Y-84702380D01*
X128817142Y-85702380D02*
X128245714Y-85702380D01*
X128531428Y-85702380D02*
X128531428Y-84702380D01*
X128436190Y-84845238D01*
X128340952Y-84940476D01*
X128245714Y-84988095D01*
X129293333Y-85702380D02*
X129483809Y-85702380D01*
X129579047Y-85654761D01*
X129626666Y-85607142D01*
X129721904Y-85464285D01*
X129769523Y-85273809D01*
X129769523Y-84892857D01*
X129721904Y-84797619D01*
X129674285Y-84750000D01*
X129579047Y-84702380D01*
X129388571Y-84702380D01*
X129293333Y-84750000D01*
X129245714Y-84797619D01*
X129198095Y-84892857D01*
X129198095Y-85130952D01*
X129245714Y-85226190D01*
X129293333Y-85273809D01*
X129388571Y-85321428D01*
X129579047Y-85321428D01*
X129674285Y-85273809D01*
X129721904Y-85226190D01*
X129769523Y-85130952D01*
X130102857Y-86083333D02*
X130150476Y-86035714D01*
X130245714Y-85892857D01*
X130293333Y-85797619D01*
X130340952Y-85654761D01*
X130388571Y-85416666D01*
X130388571Y-85226190D01*
X130340952Y-84988095D01*
X130293333Y-84845238D01*
X130245714Y-84750000D01*
X130150476Y-84607142D01*
X130102857Y-84559523D01*
D13*
X119069047Y-83330952D02*
X119069047Y-80830952D01*
X119069047Y-83211904D02*
X118830952Y-83330952D01*
X118354761Y-83330952D01*
X118116666Y-83211904D01*
X117997619Y-83092857D01*
X117878571Y-82854761D01*
X117878571Y-82140476D01*
X117997619Y-81902380D01*
X118116666Y-81783333D01*
X118354761Y-81664285D01*
X118830952Y-81664285D01*
X119069047Y-81783333D01*
X120259523Y-83330952D02*
X120259523Y-81664285D01*
X120259523Y-80830952D02*
X120140476Y-80950000D01*
X120259523Y-81069047D01*
X120378571Y-80950000D01*
X120259523Y-80830952D01*
X120259523Y-81069047D01*
X121211904Y-81664285D02*
X121807142Y-83330952D01*
X122402380Y-81664285D02*
X121807142Y-83330952D01*
X121569047Y-83926190D01*
X121450000Y-84045238D01*
X121211904Y-84164285D01*
X124188095Y-82021428D02*
X124545238Y-82140476D01*
X124664285Y-82259523D01*
X124783333Y-82497619D01*
X124783333Y-82854761D01*
X124664285Y-83092857D01*
X124545238Y-83211904D01*
X124307142Y-83330952D01*
X123354761Y-83330952D01*
X123354761Y-80830952D01*
X124188095Y-80830952D01*
X124426190Y-80950000D01*
X124545238Y-81069047D01*
X124664285Y-81307142D01*
X124664285Y-81545238D01*
X124545238Y-81783333D01*
X124426190Y-81902380D01*
X124188095Y-82021428D01*
X123354761Y-82021428D01*
X125854761Y-83330952D02*
X125854761Y-80830952D01*
X126688095Y-82616666D01*
X127521428Y-80830952D01*
X127521428Y-83330952D01*
X128592857Y-83211904D02*
X128950000Y-83330952D01*
X129545238Y-83330952D01*
X129783333Y-83211904D01*
X129902380Y-83092857D01*
X130021428Y-82854761D01*
X130021428Y-82616666D01*
X129902380Y-82378571D01*
X129783333Y-82259523D01*
X129545238Y-82140476D01*
X129069047Y-82021428D01*
X128830952Y-81902380D01*
X128711904Y-81783333D01*
X128592857Y-81545238D01*
X128592857Y-81307142D01*
X128711904Y-81069047D01*
X128830952Y-80950000D01*
X129069047Y-80830952D01*
X129664285Y-80830952D01*
X130021428Y-80950000D01*
D12*
X116365476Y-97739285D02*
X117584523Y-97739285D01*
D14*
G04 #@! TO.C,R1*
X112020000Y-83250000D02*
X116060000Y-83250000D01*
X170220000Y-83250000D02*
X166180000Y-83250000D01*
X116060000Y-87810000D02*
X166180000Y-87810000D01*
X116060000Y-78690000D02*
X116060000Y-87810000D01*
X166180000Y-78690000D02*
X116060000Y-78690000D01*
X166180000Y-87810000D02*
X166180000Y-78690000D01*
G04 #@! TO.C,F1*
X112710000Y-88670000D02*
X112710000Y-90930000D01*
X109290000Y-88670000D02*
X109290000Y-90930000D01*
G04 #@! TO.C,D1*
G36*
X114315000Y-92520000D02*
G01*
X114315000Y-93020000D01*
X113765000Y-93020000D01*
X113765000Y-92520000D01*
X114315000Y-92520000D01*
G37*
X114315000Y-92520000D02*
X114315000Y-93020000D01*
X113765000Y-93020000D01*
X113765000Y-92520000D01*
X114315000Y-92520000D01*
G36*
X116865000Y-92520000D02*
G01*
X116865000Y-93020000D01*
X116315000Y-93020000D01*
X116315000Y-92520000D01*
X116865000Y-92520000D01*
G37*
X116865000Y-92520000D02*
X116865000Y-93020000D01*
X116315000Y-93020000D01*
X116315000Y-92520000D01*
X116865000Y-92520000D01*
X113765000Y-91120000D02*
X113765000Y-96370000D01*
X116815000Y-91070000D02*
X113765000Y-91070000D01*
X116865000Y-96370000D02*
X116865000Y-91120000D01*
D11*
G04 #@! TO.C,U2*
X160605000Y-71615000D02*
X159205000Y-71615000D01*
X160605000Y-76715000D02*
X164755000Y-76715000D01*
X160605000Y-71565000D02*
X164755000Y-71565000D01*
X160605000Y-76715000D02*
X160605000Y-76570000D01*
X164755000Y-76715000D02*
X164755000Y-76570000D01*
X164755000Y-71565000D02*
X164755000Y-71710000D01*
X160605000Y-71565000D02*
X160605000Y-71615000D01*
G04 #@! TO.C,U3*
X142820000Y-96670000D02*
X142820000Y-98420000D01*
X148125000Y-96670000D02*
X148125000Y-91170000D01*
X142615000Y-96670000D02*
X142615000Y-91170000D01*
X148125000Y-96670000D02*
X147825000Y-96670000D01*
X148125000Y-91170000D02*
X147825000Y-91170000D01*
X142615000Y-91170000D02*
X142915000Y-91170000D01*
X142615000Y-96670000D02*
X142820000Y-96670000D01*
D14*
G04 #@! TO.C,Q1*
X169990000Y-80450000D02*
X169990000Y-78990000D01*
X173150000Y-80450000D02*
X173150000Y-78290000D01*
X173150000Y-80450000D02*
X172220000Y-80450000D01*
X169990000Y-80450000D02*
X170920000Y-80450000D01*
G04 #@! TO.C,TP1*
X121800000Y-75700000D02*
G75*
G03X121800000Y-75700000I-950000J0D01*
G01*
G04 #@! TO.C,TP2*
X121850000Y-73200000D02*
G75*
G03X121850000Y-73200000I-950000J0D01*
G01*
G04 #@! TO.C,D2*
X129590000Y-73065000D02*
X129590000Y-75750000D01*
X131510000Y-73065000D02*
X129590000Y-73065000D01*
X131510000Y-75750000D02*
X131510000Y-73065000D01*
G04 #@! TO.C,D4*
X139010000Y-75750000D02*
X139010000Y-73065000D01*
X139010000Y-73065000D02*
X137090000Y-73065000D01*
X137090000Y-73065000D02*
X137090000Y-75750000D01*
G04 #@! TO.C,J2*
X152850000Y-98650000D02*
X152850000Y-94300000D01*
X152850000Y-94300000D02*
X157850000Y-94300000D01*
X157850000Y-94300000D02*
X157850000Y-98650000D01*
X151550000Y-92450000D02*
X151200000Y-92450000D01*
X151200000Y-92450000D02*
X151200000Y-90850000D01*
X151200000Y-90850000D02*
X150300000Y-90850000D01*
X150300000Y-90850000D02*
X150300000Y-98650000D01*
X150300000Y-98650000D02*
X160400000Y-98650000D01*
X160400000Y-98650000D02*
X160400000Y-90850000D01*
X160400000Y-90850000D02*
X159500000Y-90850000D01*
X159500000Y-90850000D02*
X159500000Y-92450000D01*
X159500000Y-92450000D02*
X159150000Y-92450000D01*
X150300000Y-92450000D02*
X151200000Y-92450000D01*
X160400000Y-92450000D02*
X159500000Y-92450000D01*
X151050000Y-94800000D02*
X151050000Y-96400000D01*
X151050000Y-96400000D02*
X152050000Y-96400000D01*
X152050000Y-96400000D02*
X152050000Y-94800000D01*
X152050000Y-94800000D02*
X151050000Y-94800000D01*
X159650000Y-94800000D02*
X159650000Y-96400000D01*
X159650000Y-96400000D02*
X158650000Y-96400000D01*
X158650000Y-96400000D02*
X158650000Y-94800000D01*
X158650000Y-94800000D02*
X159650000Y-94800000D01*
X152050000Y-96400000D02*
X152050000Y-98650000D01*
X151550000Y-96400000D02*
X151550000Y-98650000D01*
X151550000Y-92450000D02*
X151550000Y-91250000D01*
G04 #@! TO.C,J3*
X165629762Y-98650000D02*
X165629762Y-94300000D01*
X165629762Y-94300000D02*
X170629762Y-94300000D01*
X170629762Y-94300000D02*
X170629762Y-98650000D01*
X164329762Y-92450000D02*
X163979762Y-92450000D01*
X163979762Y-92450000D02*
X163979762Y-90850000D01*
X163979762Y-90850000D02*
X163079762Y-90850000D01*
X163079762Y-90850000D02*
X163079762Y-98650000D01*
X163079762Y-98650000D02*
X173179762Y-98650000D01*
X173179762Y-98650000D02*
X173179762Y-90850000D01*
X173179762Y-90850000D02*
X172279762Y-90850000D01*
X172279762Y-90850000D02*
X172279762Y-92450000D01*
X172279762Y-92450000D02*
X171929762Y-92450000D01*
X163079762Y-92450000D02*
X163979762Y-92450000D01*
X173179762Y-92450000D02*
X172279762Y-92450000D01*
X163829762Y-94800000D02*
X163829762Y-96400000D01*
X163829762Y-96400000D02*
X164829762Y-96400000D01*
X164829762Y-96400000D02*
X164829762Y-94800000D01*
X164829762Y-94800000D02*
X163829762Y-94800000D01*
X172429762Y-94800000D02*
X172429762Y-96400000D01*
X172429762Y-96400000D02*
X171429762Y-96400000D01*
X171429762Y-96400000D02*
X171429762Y-94800000D01*
X171429762Y-94800000D02*
X172429762Y-94800000D01*
X164829762Y-96400000D02*
X164829762Y-98650000D01*
X164329762Y-96400000D02*
X164329762Y-98650000D01*
X164329762Y-92450000D02*
X164329762Y-91250000D01*
G04 #@! TO.C,ISP1*
X148810000Y-76830000D02*
X148810000Y-71630000D01*
X143670000Y-76830000D02*
X148810000Y-76830000D01*
X141070000Y-71630000D02*
X148810000Y-71630000D01*
X143670000Y-76830000D02*
X143670000Y-74230000D01*
X143670000Y-74230000D02*
X141070000Y-74230000D01*
X141070000Y-74230000D02*
X141070000Y-71630000D01*
X142400000Y-76830000D02*
X141070000Y-76830000D01*
X141070000Y-76830000D02*
X141070000Y-75500000D01*
G04 #@! TO.C,TH1*
X134135000Y-91950000D02*
G75*
G03X134135000Y-91950000I-860000J0D01*
G01*
X134135000Y-91950000D02*
X134815000Y-91950000D01*
G04 #@! TO.C,J1*
X120575000Y-98650000D02*
X120575000Y-94300000D01*
X120575000Y-94300000D02*
X121575000Y-94300000D01*
X121575000Y-94300000D02*
X121575000Y-98650000D01*
X119275000Y-92450000D02*
X118925000Y-92450000D01*
X118925000Y-92450000D02*
X118925000Y-90850000D01*
X118925000Y-90850000D02*
X118025000Y-90850000D01*
X118025000Y-90850000D02*
X118025000Y-98650000D01*
X118025000Y-98650000D02*
X124125000Y-98650000D01*
X124125000Y-98650000D02*
X124125000Y-90850000D01*
X124125000Y-90850000D02*
X123225000Y-90850000D01*
X123225000Y-90850000D02*
X123225000Y-92450000D01*
X123225000Y-92450000D02*
X122875000Y-92450000D01*
X118025000Y-92450000D02*
X118925000Y-92450000D01*
X124125000Y-92450000D02*
X123225000Y-92450000D01*
X118775000Y-94800000D02*
X118775000Y-96400000D01*
X118775000Y-96400000D02*
X119775000Y-96400000D01*
X119775000Y-96400000D02*
X119775000Y-94800000D01*
X119775000Y-94800000D02*
X118775000Y-94800000D01*
X123375000Y-94800000D02*
X123375000Y-96400000D01*
X123375000Y-96400000D02*
X122375000Y-96400000D01*
X122375000Y-96400000D02*
X122375000Y-94800000D01*
X122375000Y-94800000D02*
X123375000Y-94800000D01*
X119775000Y-96400000D02*
X119775000Y-98650000D01*
X119275000Y-96400000D02*
X119275000Y-98650000D01*
X119275000Y-92450000D02*
X119275000Y-91250000D01*
G04 #@! TO.C,U1*
X135450000Y-94790000D02*
X133650000Y-94790000D01*
X133650000Y-98010000D02*
X136600000Y-98010000D01*
D15*
G04 #@! TO.C,REF\002A\002A*
G36*
X125803910Y-71592348D02*
G01*
X125882454Y-71592778D01*
X125939298Y-71593942D01*
X125978105Y-71596207D01*
X126002538Y-71599940D01*
X126016262Y-71605506D01*
X126022940Y-71613273D01*
X126026236Y-71623605D01*
X126026556Y-71624943D01*
X126031562Y-71649079D01*
X126040829Y-71696701D01*
X126053392Y-71762741D01*
X126068287Y-71842128D01*
X126084551Y-71929796D01*
X126085119Y-71932875D01*
X126101410Y-72018789D01*
X126116652Y-72094696D01*
X126129861Y-72156045D01*
X126140054Y-72198282D01*
X126146248Y-72216855D01*
X126146543Y-72217184D01*
X126164788Y-72226253D01*
X126202405Y-72241367D01*
X126251271Y-72259262D01*
X126251543Y-72259358D01*
X126313093Y-72282493D01*
X126385657Y-72311965D01*
X126454057Y-72341597D01*
X126457294Y-72343062D01*
X126568702Y-72393626D01*
X126815399Y-72225160D01*
X126891077Y-72173803D01*
X126959631Y-72127889D01*
X127017088Y-72090030D01*
X127059476Y-72062837D01*
X127082825Y-72048921D01*
X127085042Y-72047889D01*
X127102010Y-72052484D01*
X127133701Y-72074655D01*
X127181352Y-72115447D01*
X127246198Y-72175905D01*
X127312397Y-72240227D01*
X127376214Y-72303612D01*
X127433329Y-72361451D01*
X127480305Y-72410175D01*
X127513703Y-72446210D01*
X127530085Y-72465984D01*
X127530694Y-72467002D01*
X127532505Y-72480572D01*
X127525683Y-72502733D01*
X127508540Y-72536478D01*
X127479393Y-72584800D01*
X127436555Y-72650692D01*
X127379448Y-72735517D01*
X127328766Y-72810177D01*
X127283461Y-72877140D01*
X127246150Y-72932516D01*
X127219452Y-72972420D01*
X127205985Y-72992962D01*
X127205137Y-72994356D01*
X127206781Y-73014038D01*
X127219245Y-73052293D01*
X127240048Y-73101889D01*
X127247462Y-73117728D01*
X127279814Y-73188290D01*
X127314328Y-73268353D01*
X127342365Y-73337629D01*
X127362568Y-73389045D01*
X127378615Y-73428119D01*
X127387888Y-73448541D01*
X127389041Y-73450114D01*
X127406096Y-73452721D01*
X127446298Y-73459863D01*
X127504302Y-73470523D01*
X127574763Y-73483685D01*
X127652335Y-73498333D01*
X127731672Y-73513449D01*
X127807431Y-73528018D01*
X127874264Y-73541022D01*
X127926828Y-73551445D01*
X127959776Y-73558270D01*
X127967857Y-73560199D01*
X127976205Y-73564962D01*
X127982506Y-73575718D01*
X127987045Y-73596098D01*
X127990104Y-73629734D01*
X127991967Y-73680255D01*
X127992918Y-73751292D01*
X127993240Y-73846476D01*
X127993257Y-73885492D01*
X127993257Y-74202799D01*
X127917057Y-74217839D01*
X127874663Y-74225995D01*
X127811400Y-74237899D01*
X127734962Y-74252116D01*
X127653043Y-74267210D01*
X127630400Y-74271355D01*
X127554806Y-74286053D01*
X127488953Y-74300505D01*
X127438366Y-74313375D01*
X127408574Y-74323322D01*
X127403612Y-74326287D01*
X127391426Y-74347283D01*
X127373953Y-74387967D01*
X127354577Y-74440322D01*
X127350734Y-74451600D01*
X127325339Y-74521523D01*
X127293817Y-74600418D01*
X127262969Y-74671266D01*
X127262817Y-74671595D01*
X127211447Y-74782733D01*
X127380399Y-75031253D01*
X127549352Y-75279772D01*
X127332429Y-75497058D01*
X127266819Y-75561726D01*
X127206979Y-75618733D01*
X127156267Y-75665033D01*
X127118046Y-75697584D01*
X127095675Y-75713343D01*
X127092466Y-75714343D01*
X127073626Y-75706469D01*
X127035180Y-75684578D01*
X126981330Y-75651267D01*
X126916276Y-75609131D01*
X126845940Y-75561943D01*
X126774555Y-75513810D01*
X126710908Y-75471928D01*
X126659041Y-75438871D01*
X126622995Y-75417218D01*
X126606867Y-75409543D01*
X126587189Y-75416037D01*
X126549875Y-75433150D01*
X126502621Y-75457326D01*
X126497612Y-75460013D01*
X126433977Y-75491927D01*
X126390341Y-75507579D01*
X126363202Y-75507745D01*
X126349057Y-75493204D01*
X126348975Y-75493000D01*
X126341905Y-75475779D01*
X126325042Y-75434899D01*
X126299695Y-75373525D01*
X126267171Y-75294819D01*
X126228778Y-75201947D01*
X126185822Y-75098072D01*
X126144222Y-74997502D01*
X126098504Y-74886516D01*
X126056526Y-74783703D01*
X126019548Y-74692215D01*
X125988827Y-74615201D01*
X125965622Y-74555815D01*
X125951190Y-74517209D01*
X125946743Y-74502800D01*
X125957896Y-74486272D01*
X125987069Y-74459930D01*
X126025971Y-74430887D01*
X126136757Y-74339039D01*
X126223351Y-74233759D01*
X126284716Y-74117266D01*
X126319815Y-73991776D01*
X126327608Y-73859507D01*
X126321943Y-73798457D01*
X126291078Y-73671795D01*
X126237920Y-73559941D01*
X126165767Y-73464001D01*
X126077917Y-73385076D01*
X125977665Y-73324270D01*
X125868310Y-73282687D01*
X125753147Y-73261428D01*
X125635475Y-73261599D01*
X125518590Y-73284301D01*
X125405789Y-73330638D01*
X125300369Y-73401713D01*
X125256368Y-73441911D01*
X125171979Y-73545129D01*
X125113222Y-73657925D01*
X125079704Y-73777010D01*
X125071035Y-73899095D01*
X125086823Y-74020893D01*
X125126678Y-74139116D01*
X125190207Y-74250475D01*
X125277021Y-74351684D01*
X125374029Y-74430887D01*
X125414437Y-74461162D01*
X125442982Y-74487219D01*
X125453257Y-74502825D01*
X125447877Y-74519843D01*
X125432575Y-74560500D01*
X125408612Y-74621642D01*
X125377244Y-74700119D01*
X125339732Y-74792780D01*
X125297333Y-74896472D01*
X125255663Y-74997526D01*
X125209690Y-75108607D01*
X125167107Y-75211541D01*
X125129221Y-75303165D01*
X125097340Y-75380316D01*
X125072771Y-75439831D01*
X125056820Y-75478544D01*
X125050910Y-75493000D01*
X125036948Y-75507685D01*
X125009940Y-75507642D01*
X124966413Y-75492099D01*
X124902890Y-75460284D01*
X124902388Y-75460013D01*
X124854560Y-75435323D01*
X124815897Y-75417338D01*
X124794095Y-75409614D01*
X124793133Y-75409543D01*
X124776721Y-75417378D01*
X124740487Y-75439165D01*
X124688474Y-75472328D01*
X124624725Y-75514291D01*
X124554060Y-75561943D01*
X124482116Y-75610191D01*
X124417274Y-75652151D01*
X124363735Y-75685227D01*
X124325697Y-75706821D01*
X124307533Y-75714343D01*
X124290808Y-75704457D01*
X124257180Y-75676826D01*
X124210010Y-75634495D01*
X124152658Y-75580505D01*
X124088484Y-75517899D01*
X124067497Y-75496983D01*
X123850499Y-75279623D01*
X124015668Y-75037220D01*
X124065864Y-74962781D01*
X124109919Y-74895972D01*
X124145362Y-74840665D01*
X124169719Y-74800729D01*
X124180522Y-74780036D01*
X124180838Y-74778563D01*
X124175143Y-74759058D01*
X124159826Y-74719822D01*
X124137537Y-74667430D01*
X124121893Y-74632355D01*
X124092641Y-74565201D01*
X124065094Y-74497358D01*
X124043737Y-74440034D01*
X124037935Y-74422572D01*
X124021452Y-74375938D01*
X124005340Y-74339905D01*
X123996490Y-74326287D01*
X123976960Y-74317952D01*
X123934334Y-74306137D01*
X123874145Y-74292181D01*
X123801922Y-74277422D01*
X123769600Y-74271355D01*
X123687522Y-74256273D01*
X123608795Y-74241669D01*
X123541109Y-74228980D01*
X123492160Y-74219642D01*
X123482943Y-74217839D01*
X123406743Y-74202799D01*
X123406743Y-73885492D01*
X123406914Y-73781154D01*
X123407616Y-73702213D01*
X123409134Y-73645038D01*
X123411749Y-73605999D01*
X123415746Y-73581465D01*
X123421409Y-73567805D01*
X123429020Y-73561389D01*
X123432143Y-73560199D01*
X123450978Y-73555980D01*
X123492588Y-73547562D01*
X123551630Y-73535961D01*
X123622757Y-73522195D01*
X123700625Y-73507280D01*
X123779887Y-73492232D01*
X123855198Y-73478069D01*
X123921213Y-73465806D01*
X123972587Y-73456461D01*
X124003975Y-73451050D01*
X124010959Y-73450114D01*
X124017285Y-73437596D01*
X124031290Y-73404246D01*
X124050355Y-73356377D01*
X124057634Y-73337629D01*
X124086996Y-73265195D01*
X124121571Y-73185170D01*
X124152537Y-73117728D01*
X124175323Y-73066159D01*
X124190482Y-73023785D01*
X124195542Y-72997834D01*
X124194736Y-72994356D01*
X124184041Y-72977936D01*
X124159620Y-72941417D01*
X124124095Y-72888687D01*
X124080087Y-72823635D01*
X124030217Y-72750151D01*
X124020356Y-72735645D01*
X123962492Y-72649704D01*
X123919956Y-72584261D01*
X123891054Y-72536304D01*
X123874090Y-72502820D01*
X123867367Y-72480795D01*
X123869190Y-72467217D01*
X123869236Y-72467131D01*
X123883586Y-72449297D01*
X123915323Y-72414817D01*
X123961010Y-72367268D01*
X124017204Y-72310222D01*
X124080468Y-72247255D01*
X124087602Y-72240227D01*
X124167330Y-72163020D01*
X124228857Y-72106330D01*
X124273421Y-72069110D01*
X124302257Y-72050315D01*
X124314958Y-72047889D01*
X124333494Y-72058471D01*
X124371961Y-72082916D01*
X124426386Y-72118612D01*
X124492798Y-72162947D01*
X124567225Y-72213311D01*
X124584601Y-72225160D01*
X124831297Y-72393626D01*
X124942706Y-72343062D01*
X125010457Y-72313595D01*
X125083183Y-72283959D01*
X125145703Y-72260330D01*
X125148457Y-72259358D01*
X125197360Y-72241457D01*
X125235057Y-72226320D01*
X125253425Y-72217210D01*
X125253456Y-72217184D01*
X125259285Y-72200717D01*
X125269192Y-72160219D01*
X125282195Y-72100242D01*
X125297309Y-72025340D01*
X125313552Y-71940064D01*
X125314881Y-71932875D01*
X125331175Y-71845014D01*
X125346133Y-71765260D01*
X125358791Y-71698681D01*
X125368186Y-71650347D01*
X125373354Y-71625325D01*
X125373444Y-71624943D01*
X125376589Y-71614299D01*
X125382704Y-71606262D01*
X125395453Y-71600467D01*
X125418500Y-71596547D01*
X125455509Y-71594135D01*
X125510144Y-71592865D01*
X125586067Y-71592371D01*
X125686944Y-71592286D01*
X125700000Y-71592286D01*
X125803910Y-71592348D01*
X125803910Y-71592348D01*
G37*
X125803910Y-71592348D02*
X125882454Y-71592778D01*
X125939298Y-71593942D01*
X125978105Y-71596207D01*
X126002538Y-71599940D01*
X126016262Y-71605506D01*
X126022940Y-71613273D01*
X126026236Y-71623605D01*
X126026556Y-71624943D01*
X126031562Y-71649079D01*
X126040829Y-71696701D01*
X126053392Y-71762741D01*
X126068287Y-71842128D01*
X126084551Y-71929796D01*
X126085119Y-71932875D01*
X126101410Y-72018789D01*
X126116652Y-72094696D01*
X126129861Y-72156045D01*
X126140054Y-72198282D01*
X126146248Y-72216855D01*
X126146543Y-72217184D01*
X126164788Y-72226253D01*
X126202405Y-72241367D01*
X126251271Y-72259262D01*
X126251543Y-72259358D01*
X126313093Y-72282493D01*
X126385657Y-72311965D01*
X126454057Y-72341597D01*
X126457294Y-72343062D01*
X126568702Y-72393626D01*
X126815399Y-72225160D01*
X126891077Y-72173803D01*
X126959631Y-72127889D01*
X127017088Y-72090030D01*
X127059476Y-72062837D01*
X127082825Y-72048921D01*
X127085042Y-72047889D01*
X127102010Y-72052484D01*
X127133701Y-72074655D01*
X127181352Y-72115447D01*
X127246198Y-72175905D01*
X127312397Y-72240227D01*
X127376214Y-72303612D01*
X127433329Y-72361451D01*
X127480305Y-72410175D01*
X127513703Y-72446210D01*
X127530085Y-72465984D01*
X127530694Y-72467002D01*
X127532505Y-72480572D01*
X127525683Y-72502733D01*
X127508540Y-72536478D01*
X127479393Y-72584800D01*
X127436555Y-72650692D01*
X127379448Y-72735517D01*
X127328766Y-72810177D01*
X127283461Y-72877140D01*
X127246150Y-72932516D01*
X127219452Y-72972420D01*
X127205985Y-72992962D01*
X127205137Y-72994356D01*
X127206781Y-73014038D01*
X127219245Y-73052293D01*
X127240048Y-73101889D01*
X127247462Y-73117728D01*
X127279814Y-73188290D01*
X127314328Y-73268353D01*
X127342365Y-73337629D01*
X127362568Y-73389045D01*
X127378615Y-73428119D01*
X127387888Y-73448541D01*
X127389041Y-73450114D01*
X127406096Y-73452721D01*
X127446298Y-73459863D01*
X127504302Y-73470523D01*
X127574763Y-73483685D01*
X127652335Y-73498333D01*
X127731672Y-73513449D01*
X127807431Y-73528018D01*
X127874264Y-73541022D01*
X127926828Y-73551445D01*
X127959776Y-73558270D01*
X127967857Y-73560199D01*
X127976205Y-73564962D01*
X127982506Y-73575718D01*
X127987045Y-73596098D01*
X127990104Y-73629734D01*
X127991967Y-73680255D01*
X127992918Y-73751292D01*
X127993240Y-73846476D01*
X127993257Y-73885492D01*
X127993257Y-74202799D01*
X127917057Y-74217839D01*
X127874663Y-74225995D01*
X127811400Y-74237899D01*
X127734962Y-74252116D01*
X127653043Y-74267210D01*
X127630400Y-74271355D01*
X127554806Y-74286053D01*
X127488953Y-74300505D01*
X127438366Y-74313375D01*
X127408574Y-74323322D01*
X127403612Y-74326287D01*
X127391426Y-74347283D01*
X127373953Y-74387967D01*
X127354577Y-74440322D01*
X127350734Y-74451600D01*
X127325339Y-74521523D01*
X127293817Y-74600418D01*
X127262969Y-74671266D01*
X127262817Y-74671595D01*
X127211447Y-74782733D01*
X127380399Y-75031253D01*
X127549352Y-75279772D01*
X127332429Y-75497058D01*
X127266819Y-75561726D01*
X127206979Y-75618733D01*
X127156267Y-75665033D01*
X127118046Y-75697584D01*
X127095675Y-75713343D01*
X127092466Y-75714343D01*
X127073626Y-75706469D01*
X127035180Y-75684578D01*
X126981330Y-75651267D01*
X126916276Y-75609131D01*
X126845940Y-75561943D01*
X126774555Y-75513810D01*
X126710908Y-75471928D01*
X126659041Y-75438871D01*
X126622995Y-75417218D01*
X126606867Y-75409543D01*
X126587189Y-75416037D01*
X126549875Y-75433150D01*
X126502621Y-75457326D01*
X126497612Y-75460013D01*
X126433977Y-75491927D01*
X126390341Y-75507579D01*
X126363202Y-75507745D01*
X126349057Y-75493204D01*
X126348975Y-75493000D01*
X126341905Y-75475779D01*
X126325042Y-75434899D01*
X126299695Y-75373525D01*
X126267171Y-75294819D01*
X126228778Y-75201947D01*
X126185822Y-75098072D01*
X126144222Y-74997502D01*
X126098504Y-74886516D01*
X126056526Y-74783703D01*
X126019548Y-74692215D01*
X125988827Y-74615201D01*
X125965622Y-74555815D01*
X125951190Y-74517209D01*
X125946743Y-74502800D01*
X125957896Y-74486272D01*
X125987069Y-74459930D01*
X126025971Y-74430887D01*
X126136757Y-74339039D01*
X126223351Y-74233759D01*
X126284716Y-74117266D01*
X126319815Y-73991776D01*
X126327608Y-73859507D01*
X126321943Y-73798457D01*
X126291078Y-73671795D01*
X126237920Y-73559941D01*
X126165767Y-73464001D01*
X126077917Y-73385076D01*
X125977665Y-73324270D01*
X125868310Y-73282687D01*
X125753147Y-73261428D01*
X125635475Y-73261599D01*
X125518590Y-73284301D01*
X125405789Y-73330638D01*
X125300369Y-73401713D01*
X125256368Y-73441911D01*
X125171979Y-73545129D01*
X125113222Y-73657925D01*
X125079704Y-73777010D01*
X125071035Y-73899095D01*
X125086823Y-74020893D01*
X125126678Y-74139116D01*
X125190207Y-74250475D01*
X125277021Y-74351684D01*
X125374029Y-74430887D01*
X125414437Y-74461162D01*
X125442982Y-74487219D01*
X125453257Y-74502825D01*
X125447877Y-74519843D01*
X125432575Y-74560500D01*
X125408612Y-74621642D01*
X125377244Y-74700119D01*
X125339732Y-74792780D01*
X125297333Y-74896472D01*
X125255663Y-74997526D01*
X125209690Y-75108607D01*
X125167107Y-75211541D01*
X125129221Y-75303165D01*
X125097340Y-75380316D01*
X125072771Y-75439831D01*
X125056820Y-75478544D01*
X125050910Y-75493000D01*
X125036948Y-75507685D01*
X125009940Y-75507642D01*
X124966413Y-75492099D01*
X124902890Y-75460284D01*
X124902388Y-75460013D01*
X124854560Y-75435323D01*
X124815897Y-75417338D01*
X124794095Y-75409614D01*
X124793133Y-75409543D01*
X124776721Y-75417378D01*
X124740487Y-75439165D01*
X124688474Y-75472328D01*
X124624725Y-75514291D01*
X124554060Y-75561943D01*
X124482116Y-75610191D01*
X124417274Y-75652151D01*
X124363735Y-75685227D01*
X124325697Y-75706821D01*
X124307533Y-75714343D01*
X124290808Y-75704457D01*
X124257180Y-75676826D01*
X124210010Y-75634495D01*
X124152658Y-75580505D01*
X124088484Y-75517899D01*
X124067497Y-75496983D01*
X123850499Y-75279623D01*
X124015668Y-75037220D01*
X124065864Y-74962781D01*
X124109919Y-74895972D01*
X124145362Y-74840665D01*
X124169719Y-74800729D01*
X124180522Y-74780036D01*
X124180838Y-74778563D01*
X124175143Y-74759058D01*
X124159826Y-74719822D01*
X124137537Y-74667430D01*
X124121893Y-74632355D01*
X124092641Y-74565201D01*
X124065094Y-74497358D01*
X124043737Y-74440034D01*
X124037935Y-74422572D01*
X124021452Y-74375938D01*
X124005340Y-74339905D01*
X123996490Y-74326287D01*
X123976960Y-74317952D01*
X123934334Y-74306137D01*
X123874145Y-74292181D01*
X123801922Y-74277422D01*
X123769600Y-74271355D01*
X123687522Y-74256273D01*
X123608795Y-74241669D01*
X123541109Y-74228980D01*
X123492160Y-74219642D01*
X123482943Y-74217839D01*
X123406743Y-74202799D01*
X123406743Y-73885492D01*
X123406914Y-73781154D01*
X123407616Y-73702213D01*
X123409134Y-73645038D01*
X123411749Y-73605999D01*
X123415746Y-73581465D01*
X123421409Y-73567805D01*
X123429020Y-73561389D01*
X123432143Y-73560199D01*
X123450978Y-73555980D01*
X123492588Y-73547562D01*
X123551630Y-73535961D01*
X123622757Y-73522195D01*
X123700625Y-73507280D01*
X123779887Y-73492232D01*
X123855198Y-73478069D01*
X123921213Y-73465806D01*
X123972587Y-73456461D01*
X124003975Y-73451050D01*
X124010959Y-73450114D01*
X124017285Y-73437596D01*
X124031290Y-73404246D01*
X124050355Y-73356377D01*
X124057634Y-73337629D01*
X124086996Y-73265195D01*
X124121571Y-73185170D01*
X124152537Y-73117728D01*
X124175323Y-73066159D01*
X124190482Y-73023785D01*
X124195542Y-72997834D01*
X124194736Y-72994356D01*
X124184041Y-72977936D01*
X124159620Y-72941417D01*
X124124095Y-72888687D01*
X124080087Y-72823635D01*
X124030217Y-72750151D01*
X124020356Y-72735645D01*
X123962492Y-72649704D01*
X123919956Y-72584261D01*
X123891054Y-72536304D01*
X123874090Y-72502820D01*
X123867367Y-72480795D01*
X123869190Y-72467217D01*
X123869236Y-72467131D01*
X123883586Y-72449297D01*
X123915323Y-72414817D01*
X123961010Y-72367268D01*
X124017204Y-72310222D01*
X124080468Y-72247255D01*
X124087602Y-72240227D01*
X124167330Y-72163020D01*
X124228857Y-72106330D01*
X124273421Y-72069110D01*
X124302257Y-72050315D01*
X124314958Y-72047889D01*
X124333494Y-72058471D01*
X124371961Y-72082916D01*
X124426386Y-72118612D01*
X124492798Y-72162947D01*
X124567225Y-72213311D01*
X124584601Y-72225160D01*
X124831297Y-72393626D01*
X124942706Y-72343062D01*
X125010457Y-72313595D01*
X125083183Y-72283959D01*
X125145703Y-72260330D01*
X125148457Y-72259358D01*
X125197360Y-72241457D01*
X125235057Y-72226320D01*
X125253425Y-72217210D01*
X125253456Y-72217184D01*
X125259285Y-72200717D01*
X125269192Y-72160219D01*
X125282195Y-72100242D01*
X125297309Y-72025340D01*
X125313552Y-71940064D01*
X125314881Y-71932875D01*
X125331175Y-71845014D01*
X125346133Y-71765260D01*
X125358791Y-71698681D01*
X125368186Y-71650347D01*
X125373354Y-71625325D01*
X125373444Y-71624943D01*
X125376589Y-71614299D01*
X125382704Y-71606262D01*
X125395453Y-71600467D01*
X125418500Y-71596547D01*
X125455509Y-71594135D01*
X125510144Y-71592865D01*
X125586067Y-71592371D01*
X125686944Y-71592286D01*
X125700000Y-71592286D01*
X125803910Y-71592348D01*
G36*
X128853595Y-76316966D02*
G01*
X128911021Y-76354497D01*
X128938719Y-76388096D01*
X128960662Y-76449064D01*
X128962405Y-76497308D01*
X128958457Y-76561816D01*
X128809686Y-76626934D01*
X128737349Y-76660202D01*
X128690084Y-76686964D01*
X128665507Y-76710144D01*
X128661237Y-76732667D01*
X128674889Y-76757455D01*
X128689943Y-76773886D01*
X128733746Y-76800235D01*
X128781389Y-76802081D01*
X128825145Y-76781546D01*
X128857289Y-76740752D01*
X128863038Y-76726347D01*
X128890576Y-76681356D01*
X128922258Y-76662182D01*
X128965714Y-76645779D01*
X128965714Y-76707966D01*
X128961872Y-76750283D01*
X128946823Y-76785969D01*
X128915280Y-76826943D01*
X128910592Y-76832267D01*
X128875506Y-76868720D01*
X128845347Y-76888283D01*
X128807615Y-76897283D01*
X128776335Y-76900230D01*
X128720385Y-76900965D01*
X128680555Y-76891660D01*
X128655708Y-76877846D01*
X128616656Y-76847467D01*
X128589625Y-76814613D01*
X128572517Y-76773294D01*
X128563238Y-76717521D01*
X128559693Y-76641305D01*
X128559410Y-76602622D01*
X128560372Y-76556247D01*
X128648007Y-76556247D01*
X128649023Y-76581126D01*
X128651556Y-76585200D01*
X128668274Y-76579665D01*
X128704249Y-76565017D01*
X128752331Y-76544190D01*
X128762386Y-76539714D01*
X128823152Y-76508814D01*
X128856632Y-76481657D01*
X128863990Y-76456220D01*
X128846391Y-76430481D01*
X128831856Y-76419109D01*
X128779410Y-76396364D01*
X128730322Y-76400122D01*
X128689227Y-76427884D01*
X128660758Y-76477152D01*
X128651631Y-76516257D01*
X128648007Y-76556247D01*
X128560372Y-76556247D01*
X128561285Y-76512249D01*
X128568196Y-76445384D01*
X128581884Y-76396695D01*
X128604096Y-76360849D01*
X128636574Y-76332513D01*
X128650733Y-76323355D01*
X128715053Y-76299507D01*
X128785473Y-76298006D01*
X128853595Y-76316966D01*
X128853595Y-76316966D01*
G37*
X128853595Y-76316966D02*
X128911021Y-76354497D01*
X128938719Y-76388096D01*
X128960662Y-76449064D01*
X128962405Y-76497308D01*
X128958457Y-76561816D01*
X128809686Y-76626934D01*
X128737349Y-76660202D01*
X128690084Y-76686964D01*
X128665507Y-76710144D01*
X128661237Y-76732667D01*
X128674889Y-76757455D01*
X128689943Y-76773886D01*
X128733746Y-76800235D01*
X128781389Y-76802081D01*
X128825145Y-76781546D01*
X128857289Y-76740752D01*
X128863038Y-76726347D01*
X128890576Y-76681356D01*
X128922258Y-76662182D01*
X128965714Y-76645779D01*
X128965714Y-76707966D01*
X128961872Y-76750283D01*
X128946823Y-76785969D01*
X128915280Y-76826943D01*
X128910592Y-76832267D01*
X128875506Y-76868720D01*
X128845347Y-76888283D01*
X128807615Y-76897283D01*
X128776335Y-76900230D01*
X128720385Y-76900965D01*
X128680555Y-76891660D01*
X128655708Y-76877846D01*
X128616656Y-76847467D01*
X128589625Y-76814613D01*
X128572517Y-76773294D01*
X128563238Y-76717521D01*
X128559693Y-76641305D01*
X128559410Y-76602622D01*
X128560372Y-76556247D01*
X128648007Y-76556247D01*
X128649023Y-76581126D01*
X128651556Y-76585200D01*
X128668274Y-76579665D01*
X128704249Y-76565017D01*
X128752331Y-76544190D01*
X128762386Y-76539714D01*
X128823152Y-76508814D01*
X128856632Y-76481657D01*
X128863990Y-76456220D01*
X128846391Y-76430481D01*
X128831856Y-76419109D01*
X128779410Y-76396364D01*
X128730322Y-76400122D01*
X128689227Y-76427884D01*
X128660758Y-76477152D01*
X128651631Y-76516257D01*
X128648007Y-76556247D01*
X128560372Y-76556247D01*
X128561285Y-76512249D01*
X128568196Y-76445384D01*
X128581884Y-76396695D01*
X128604096Y-76360849D01*
X128636574Y-76332513D01*
X128650733Y-76323355D01*
X128715053Y-76299507D01*
X128785473Y-76298006D01*
X128853595Y-76316966D01*
G36*
X128352600Y-76308752D02*
G01*
X128369948Y-76316334D01*
X128411356Y-76349128D01*
X128446765Y-76396547D01*
X128468664Y-76447151D01*
X128472229Y-76472098D01*
X128460279Y-76506927D01*
X128434067Y-76525357D01*
X128405964Y-76536516D01*
X128393095Y-76538572D01*
X128386829Y-76523649D01*
X128374456Y-76491175D01*
X128369028Y-76476502D01*
X128338590Y-76425744D01*
X128294520Y-76400427D01*
X128238010Y-76401206D01*
X128233825Y-76402203D01*
X128203655Y-76416507D01*
X128181476Y-76444393D01*
X128166327Y-76489287D01*
X128157250Y-76554615D01*
X128153286Y-76643804D01*
X128152914Y-76691261D01*
X128152730Y-76766071D01*
X128151522Y-76817069D01*
X128148309Y-76849471D01*
X128142109Y-76868495D01*
X128131940Y-76879356D01*
X128116819Y-76887272D01*
X128115946Y-76887670D01*
X128086828Y-76899981D01*
X128072403Y-76904514D01*
X128070186Y-76890809D01*
X128068289Y-76852925D01*
X128066847Y-76795715D01*
X128065998Y-76724027D01*
X128065829Y-76671565D01*
X128066692Y-76570047D01*
X128070070Y-76493032D01*
X128077142Y-76436023D01*
X128089088Y-76394526D01*
X128107090Y-76364043D01*
X128132327Y-76340080D01*
X128157247Y-76323355D01*
X128217171Y-76301097D01*
X128286911Y-76296076D01*
X128352600Y-76308752D01*
X128352600Y-76308752D01*
G37*
X128352600Y-76308752D02*
X128369948Y-76316334D01*
X128411356Y-76349128D01*
X128446765Y-76396547D01*
X128468664Y-76447151D01*
X128472229Y-76472098D01*
X128460279Y-76506927D01*
X128434067Y-76525357D01*
X128405964Y-76536516D01*
X128393095Y-76538572D01*
X128386829Y-76523649D01*
X128374456Y-76491175D01*
X128369028Y-76476502D01*
X128338590Y-76425744D01*
X128294520Y-76400427D01*
X128238010Y-76401206D01*
X128233825Y-76402203D01*
X128203655Y-76416507D01*
X128181476Y-76444393D01*
X128166327Y-76489287D01*
X128157250Y-76554615D01*
X128153286Y-76643804D01*
X128152914Y-76691261D01*
X128152730Y-76766071D01*
X128151522Y-76817069D01*
X128148309Y-76849471D01*
X128142109Y-76868495D01*
X128131940Y-76879356D01*
X128116819Y-76887272D01*
X128115946Y-76887670D01*
X128086828Y-76899981D01*
X128072403Y-76904514D01*
X128070186Y-76890809D01*
X128068289Y-76852925D01*
X128066847Y-76795715D01*
X128065998Y-76724027D01*
X128065829Y-76671565D01*
X128066692Y-76570047D01*
X128070070Y-76493032D01*
X128077142Y-76436023D01*
X128089088Y-76394526D01*
X128107090Y-76364043D01*
X128132327Y-76340080D01*
X128157247Y-76323355D01*
X128217171Y-76301097D01*
X128286911Y-76296076D01*
X128352600Y-76308752D01*
G36*
X127844876Y-76306335D02*
G01*
X127886667Y-76325344D01*
X127919469Y-76348378D01*
X127943503Y-76374133D01*
X127960097Y-76407358D01*
X127970577Y-76452800D01*
X127976271Y-76515207D01*
X127978507Y-76599327D01*
X127978743Y-76654721D01*
X127978743Y-76870826D01*
X127941774Y-76887670D01*
X127912656Y-76899981D01*
X127898231Y-76904514D01*
X127895472Y-76891025D01*
X127893282Y-76854653D01*
X127891942Y-76801542D01*
X127891657Y-76759372D01*
X127890434Y-76698447D01*
X127887136Y-76650115D01*
X127882321Y-76620518D01*
X127878496Y-76614229D01*
X127852783Y-76620652D01*
X127812418Y-76637125D01*
X127765679Y-76659458D01*
X127720845Y-76683457D01*
X127686193Y-76704930D01*
X127670002Y-76719685D01*
X127669938Y-76719845D01*
X127671330Y-76747152D01*
X127683818Y-76773219D01*
X127705743Y-76794392D01*
X127737743Y-76801474D01*
X127765092Y-76800649D01*
X127803826Y-76800042D01*
X127824158Y-76809116D01*
X127836369Y-76833092D01*
X127837909Y-76837613D01*
X127843203Y-76871806D01*
X127829047Y-76892568D01*
X127792148Y-76902462D01*
X127752289Y-76904292D01*
X127680562Y-76890727D01*
X127643432Y-76871355D01*
X127597576Y-76825845D01*
X127573256Y-76769983D01*
X127571073Y-76710957D01*
X127591629Y-76655953D01*
X127622549Y-76621486D01*
X127653420Y-76602189D01*
X127701942Y-76577759D01*
X127758485Y-76552985D01*
X127767910Y-76549199D01*
X127830019Y-76521791D01*
X127865822Y-76497634D01*
X127877337Y-76473619D01*
X127866580Y-76446635D01*
X127848114Y-76425543D01*
X127804469Y-76399572D01*
X127756446Y-76397624D01*
X127712406Y-76417637D01*
X127680709Y-76457551D01*
X127676549Y-76467848D01*
X127652327Y-76505724D01*
X127616965Y-76533842D01*
X127572343Y-76556917D01*
X127572343Y-76491485D01*
X127574969Y-76451506D01*
X127586230Y-76419997D01*
X127611199Y-76386378D01*
X127635169Y-76360484D01*
X127672441Y-76323817D01*
X127701401Y-76304121D01*
X127732505Y-76296220D01*
X127767713Y-76294914D01*
X127844876Y-76306335D01*
X127844876Y-76306335D01*
G37*
X127844876Y-76306335D02*
X127886667Y-76325344D01*
X127919469Y-76348378D01*
X127943503Y-76374133D01*
X127960097Y-76407358D01*
X127970577Y-76452800D01*
X127976271Y-76515207D01*
X127978507Y-76599327D01*
X127978743Y-76654721D01*
X127978743Y-76870826D01*
X127941774Y-76887670D01*
X127912656Y-76899981D01*
X127898231Y-76904514D01*
X127895472Y-76891025D01*
X127893282Y-76854653D01*
X127891942Y-76801542D01*
X127891657Y-76759372D01*
X127890434Y-76698447D01*
X127887136Y-76650115D01*
X127882321Y-76620518D01*
X127878496Y-76614229D01*
X127852783Y-76620652D01*
X127812418Y-76637125D01*
X127765679Y-76659458D01*
X127720845Y-76683457D01*
X127686193Y-76704930D01*
X127670002Y-76719685D01*
X127669938Y-76719845D01*
X127671330Y-76747152D01*
X127683818Y-76773219D01*
X127705743Y-76794392D01*
X127737743Y-76801474D01*
X127765092Y-76800649D01*
X127803826Y-76800042D01*
X127824158Y-76809116D01*
X127836369Y-76833092D01*
X127837909Y-76837613D01*
X127843203Y-76871806D01*
X127829047Y-76892568D01*
X127792148Y-76902462D01*
X127752289Y-76904292D01*
X127680562Y-76890727D01*
X127643432Y-76871355D01*
X127597576Y-76825845D01*
X127573256Y-76769983D01*
X127571073Y-76710957D01*
X127591629Y-76655953D01*
X127622549Y-76621486D01*
X127653420Y-76602189D01*
X127701942Y-76577759D01*
X127758485Y-76552985D01*
X127767910Y-76549199D01*
X127830019Y-76521791D01*
X127865822Y-76497634D01*
X127877337Y-76473619D01*
X127866580Y-76446635D01*
X127848114Y-76425543D01*
X127804469Y-76399572D01*
X127756446Y-76397624D01*
X127712406Y-76417637D01*
X127680709Y-76457551D01*
X127676549Y-76467848D01*
X127652327Y-76505724D01*
X127616965Y-76533842D01*
X127572343Y-76556917D01*
X127572343Y-76491485D01*
X127574969Y-76451506D01*
X127586230Y-76419997D01*
X127611199Y-76386378D01*
X127635169Y-76360484D01*
X127672441Y-76323817D01*
X127701401Y-76304121D01*
X127732505Y-76296220D01*
X127767713Y-76294914D01*
X127844876Y-76306335D01*
G36*
X127479833Y-76308663D02*
G01*
X127482048Y-76346850D01*
X127483784Y-76404886D01*
X127484899Y-76478180D01*
X127485257Y-76555055D01*
X127485257Y-76815196D01*
X127439326Y-76861127D01*
X127407675Y-76889429D01*
X127379890Y-76900893D01*
X127341915Y-76900168D01*
X127326840Y-76898321D01*
X127279726Y-76892948D01*
X127240756Y-76889869D01*
X127231257Y-76889585D01*
X127199233Y-76891445D01*
X127153432Y-76896114D01*
X127135674Y-76898321D01*
X127092057Y-76901735D01*
X127062745Y-76894320D01*
X127033680Y-76871427D01*
X127023188Y-76861127D01*
X126977257Y-76815196D01*
X126977257Y-76328602D01*
X127014226Y-76311758D01*
X127046059Y-76299282D01*
X127064683Y-76294914D01*
X127069458Y-76308718D01*
X127073921Y-76347286D01*
X127077775Y-76406356D01*
X127080722Y-76481663D01*
X127082143Y-76545286D01*
X127086114Y-76795657D01*
X127120759Y-76800556D01*
X127152268Y-76797131D01*
X127167708Y-76786041D01*
X127172023Y-76765308D01*
X127175708Y-76721145D01*
X127178469Y-76659146D01*
X127180012Y-76584909D01*
X127180235Y-76546706D01*
X127180457Y-76326783D01*
X127226166Y-76310849D01*
X127258518Y-76300015D01*
X127276115Y-76294962D01*
X127276623Y-76294914D01*
X127278388Y-76308648D01*
X127280329Y-76346730D01*
X127282282Y-76404482D01*
X127284084Y-76477227D01*
X127285343Y-76545286D01*
X127289314Y-76795657D01*
X127376400Y-76795657D01*
X127380396Y-76567240D01*
X127384392Y-76338822D01*
X127426847Y-76316868D01*
X127458192Y-76301793D01*
X127476744Y-76294951D01*
X127477279Y-76294914D01*
X127479833Y-76308663D01*
X127479833Y-76308663D01*
G37*
X127479833Y-76308663D02*
X127482048Y-76346850D01*
X127483784Y-76404886D01*
X127484899Y-76478180D01*
X127485257Y-76555055D01*
X127485257Y-76815196D01*
X127439326Y-76861127D01*
X127407675Y-76889429D01*
X127379890Y-76900893D01*
X127341915Y-76900168D01*
X127326840Y-76898321D01*
X127279726Y-76892948D01*
X127240756Y-76889869D01*
X127231257Y-76889585D01*
X127199233Y-76891445D01*
X127153432Y-76896114D01*
X127135674Y-76898321D01*
X127092057Y-76901735D01*
X127062745Y-76894320D01*
X127033680Y-76871427D01*
X127023188Y-76861127D01*
X126977257Y-76815196D01*
X126977257Y-76328602D01*
X127014226Y-76311758D01*
X127046059Y-76299282D01*
X127064683Y-76294914D01*
X127069458Y-76308718D01*
X127073921Y-76347286D01*
X127077775Y-76406356D01*
X127080722Y-76481663D01*
X127082143Y-76545286D01*
X127086114Y-76795657D01*
X127120759Y-76800556D01*
X127152268Y-76797131D01*
X127167708Y-76786041D01*
X127172023Y-76765308D01*
X127175708Y-76721145D01*
X127178469Y-76659146D01*
X127180012Y-76584909D01*
X127180235Y-76546706D01*
X127180457Y-76326783D01*
X127226166Y-76310849D01*
X127258518Y-76300015D01*
X127276115Y-76294962D01*
X127276623Y-76294914D01*
X127278388Y-76308648D01*
X127280329Y-76346730D01*
X127282282Y-76404482D01*
X127284084Y-76477227D01*
X127285343Y-76545286D01*
X127289314Y-76795657D01*
X127376400Y-76795657D01*
X127380396Y-76567240D01*
X127384392Y-76338822D01*
X127426847Y-76316868D01*
X127458192Y-76301793D01*
X127476744Y-76294951D01*
X127477279Y-76294914D01*
X127479833Y-76308663D01*
G36*
X126890117Y-76415358D02*
G01*
X126889933Y-76523837D01*
X126889219Y-76607287D01*
X126887675Y-76669704D01*
X126885001Y-76715085D01*
X126880894Y-76747429D01*
X126875055Y-76770733D01*
X126867182Y-76788995D01*
X126861221Y-76799418D01*
X126811855Y-76855945D01*
X126749264Y-76891377D01*
X126680013Y-76904090D01*
X126610668Y-76892463D01*
X126569375Y-76871568D01*
X126526025Y-76835422D01*
X126496481Y-76791276D01*
X126478655Y-76733462D01*
X126470463Y-76656313D01*
X126469302Y-76599714D01*
X126469458Y-76595647D01*
X126570857Y-76595647D01*
X126571476Y-76660550D01*
X126574314Y-76703514D01*
X126580840Y-76731622D01*
X126592523Y-76751953D01*
X126606483Y-76767288D01*
X126653365Y-76796890D01*
X126703701Y-76799419D01*
X126751276Y-76774705D01*
X126754979Y-76771356D01*
X126770783Y-76753935D01*
X126780693Y-76733209D01*
X126786058Y-76702362D01*
X126788228Y-76654577D01*
X126788571Y-76601748D01*
X126787827Y-76535381D01*
X126784748Y-76491106D01*
X126778061Y-76462009D01*
X126766496Y-76441173D01*
X126757013Y-76430107D01*
X126712960Y-76402198D01*
X126662224Y-76398843D01*
X126613796Y-76420159D01*
X126604450Y-76428073D01*
X126588540Y-76445647D01*
X126578610Y-76466587D01*
X126573278Y-76497782D01*
X126571163Y-76546122D01*
X126570857Y-76595647D01*
X126469458Y-76595647D01*
X126472810Y-76508568D01*
X126484726Y-76440086D01*
X126507135Y-76388600D01*
X126542124Y-76348443D01*
X126569375Y-76327861D01*
X126618907Y-76305625D01*
X126676316Y-76295304D01*
X126729682Y-76298067D01*
X126759543Y-76309212D01*
X126771261Y-76312383D01*
X126779037Y-76300557D01*
X126784465Y-76268866D01*
X126788571Y-76220593D01*
X126793067Y-76166829D01*
X126799313Y-76134482D01*
X126810676Y-76115985D01*
X126830528Y-76103770D01*
X126843000Y-76098362D01*
X126890171Y-76078601D01*
X126890117Y-76415358D01*
X126890117Y-76415358D01*
G37*
X126890117Y-76415358D02*
X126889933Y-76523837D01*
X126889219Y-76607287D01*
X126887675Y-76669704D01*
X126885001Y-76715085D01*
X126880894Y-76747429D01*
X126875055Y-76770733D01*
X126867182Y-76788995D01*
X126861221Y-76799418D01*
X126811855Y-76855945D01*
X126749264Y-76891377D01*
X126680013Y-76904090D01*
X126610668Y-76892463D01*
X126569375Y-76871568D01*
X126526025Y-76835422D01*
X126496481Y-76791276D01*
X126478655Y-76733462D01*
X126470463Y-76656313D01*
X126469302Y-76599714D01*
X126469458Y-76595647D01*
X126570857Y-76595647D01*
X126571476Y-76660550D01*
X126574314Y-76703514D01*
X126580840Y-76731622D01*
X126592523Y-76751953D01*
X126606483Y-76767288D01*
X126653365Y-76796890D01*
X126703701Y-76799419D01*
X126751276Y-76774705D01*
X126754979Y-76771356D01*
X126770783Y-76753935D01*
X126780693Y-76733209D01*
X126786058Y-76702362D01*
X126788228Y-76654577D01*
X126788571Y-76601748D01*
X126787827Y-76535381D01*
X126784748Y-76491106D01*
X126778061Y-76462009D01*
X126766496Y-76441173D01*
X126757013Y-76430107D01*
X126712960Y-76402198D01*
X126662224Y-76398843D01*
X126613796Y-76420159D01*
X126604450Y-76428073D01*
X126588540Y-76445647D01*
X126578610Y-76466587D01*
X126573278Y-76497782D01*
X126571163Y-76546122D01*
X126570857Y-76595647D01*
X126469458Y-76595647D01*
X126472810Y-76508568D01*
X126484726Y-76440086D01*
X126507135Y-76388600D01*
X126542124Y-76348443D01*
X126569375Y-76327861D01*
X126618907Y-76305625D01*
X126676316Y-76295304D01*
X126729682Y-76298067D01*
X126759543Y-76309212D01*
X126771261Y-76312383D01*
X126779037Y-76300557D01*
X126784465Y-76268866D01*
X126788571Y-76220593D01*
X126793067Y-76166829D01*
X126799313Y-76134482D01*
X126810676Y-76115985D01*
X126830528Y-76103770D01*
X126843000Y-76098362D01*
X126890171Y-76078601D01*
X126890117Y-76415358D01*
G36*
X126229926Y-76299755D02*
G01*
X126295858Y-76324084D01*
X126349273Y-76367117D01*
X126370164Y-76397409D01*
X126392939Y-76452994D01*
X126392466Y-76493186D01*
X126368562Y-76520217D01*
X126359717Y-76524813D01*
X126321530Y-76539144D01*
X126302028Y-76535472D01*
X126295422Y-76511407D01*
X126295086Y-76498114D01*
X126282992Y-76449210D01*
X126251471Y-76414999D01*
X126207659Y-76398476D01*
X126158695Y-76402634D01*
X126118894Y-76424227D01*
X126105450Y-76436544D01*
X126095921Y-76451487D01*
X126089485Y-76474075D01*
X126085317Y-76509328D01*
X126082597Y-76562266D01*
X126080502Y-76637907D01*
X126079960Y-76661857D01*
X126077981Y-76743790D01*
X126075731Y-76801455D01*
X126072357Y-76839608D01*
X126067006Y-76863004D01*
X126058824Y-76876398D01*
X126046959Y-76884545D01*
X126039362Y-76888144D01*
X126007102Y-76900452D01*
X125988111Y-76904514D01*
X125981836Y-76890948D01*
X125978006Y-76849934D01*
X125976600Y-76780999D01*
X125977598Y-76683669D01*
X125977908Y-76668657D01*
X125980101Y-76579859D01*
X125982693Y-76515019D01*
X125986382Y-76469067D01*
X125991864Y-76436935D01*
X125999835Y-76413553D01*
X126010993Y-76393852D01*
X126016830Y-76385410D01*
X126050296Y-76348057D01*
X126087727Y-76319003D01*
X126092309Y-76316467D01*
X126159426Y-76296443D01*
X126229926Y-76299755D01*
X126229926Y-76299755D01*
G37*
X126229926Y-76299755D02*
X126295858Y-76324084D01*
X126349273Y-76367117D01*
X126370164Y-76397409D01*
X126392939Y-76452994D01*
X126392466Y-76493186D01*
X126368562Y-76520217D01*
X126359717Y-76524813D01*
X126321530Y-76539144D01*
X126302028Y-76535472D01*
X126295422Y-76511407D01*
X126295086Y-76498114D01*
X126282992Y-76449210D01*
X126251471Y-76414999D01*
X126207659Y-76398476D01*
X126158695Y-76402634D01*
X126118894Y-76424227D01*
X126105450Y-76436544D01*
X126095921Y-76451487D01*
X126089485Y-76474075D01*
X126085317Y-76509328D01*
X126082597Y-76562266D01*
X126080502Y-76637907D01*
X126079960Y-76661857D01*
X126077981Y-76743790D01*
X126075731Y-76801455D01*
X126072357Y-76839608D01*
X126067006Y-76863004D01*
X126058824Y-76876398D01*
X126046959Y-76884545D01*
X126039362Y-76888144D01*
X126007102Y-76900452D01*
X125988111Y-76904514D01*
X125981836Y-76890948D01*
X125978006Y-76849934D01*
X125976600Y-76780999D01*
X125977598Y-76683669D01*
X125977908Y-76668657D01*
X125980101Y-76579859D01*
X125982693Y-76515019D01*
X125986382Y-76469067D01*
X125991864Y-76436935D01*
X125999835Y-76413553D01*
X126010993Y-76393852D01*
X126016830Y-76385410D01*
X126050296Y-76348057D01*
X126087727Y-76319003D01*
X126092309Y-76316467D01*
X126159426Y-76296443D01*
X126229926Y-76299755D01*
G36*
X125739744Y-76300968D02*
G01*
X125796616Y-76322087D01*
X125797267Y-76322493D01*
X125832440Y-76348380D01*
X125858407Y-76378633D01*
X125876670Y-76418058D01*
X125888732Y-76471462D01*
X125896096Y-76543651D01*
X125900264Y-76639432D01*
X125900629Y-76653078D01*
X125905876Y-76858842D01*
X125861716Y-76881678D01*
X125829763Y-76897110D01*
X125810470Y-76904423D01*
X125809578Y-76904514D01*
X125806239Y-76891022D01*
X125803587Y-76854626D01*
X125801956Y-76801452D01*
X125801600Y-76758393D01*
X125801592Y-76688641D01*
X125798403Y-76644837D01*
X125787288Y-76623944D01*
X125763501Y-76622925D01*
X125722296Y-76638741D01*
X125660086Y-76667815D01*
X125614341Y-76691963D01*
X125590813Y-76712913D01*
X125583896Y-76735747D01*
X125583886Y-76736877D01*
X125595299Y-76776212D01*
X125629092Y-76797462D01*
X125680809Y-76800539D01*
X125718061Y-76800006D01*
X125737703Y-76810735D01*
X125749952Y-76836505D01*
X125757002Y-76869337D01*
X125746842Y-76887966D01*
X125743017Y-76890632D01*
X125707001Y-76901340D01*
X125656566Y-76902856D01*
X125604626Y-76895759D01*
X125567822Y-76882788D01*
X125516938Y-76839585D01*
X125488014Y-76779446D01*
X125482286Y-76732462D01*
X125486657Y-76690082D01*
X125502475Y-76655488D01*
X125533797Y-76624763D01*
X125584678Y-76593990D01*
X125659176Y-76559252D01*
X125663714Y-76557288D01*
X125730821Y-76526287D01*
X125772232Y-76500862D01*
X125789981Y-76478014D01*
X125786107Y-76454745D01*
X125762643Y-76428056D01*
X125755627Y-76421914D01*
X125708630Y-76398100D01*
X125659933Y-76399103D01*
X125617522Y-76422451D01*
X125589384Y-76465675D01*
X125586769Y-76474160D01*
X125561308Y-76515308D01*
X125529001Y-76535128D01*
X125482286Y-76554770D01*
X125482286Y-76503950D01*
X125496496Y-76430082D01*
X125538675Y-76362327D01*
X125560624Y-76339661D01*
X125610517Y-76310569D01*
X125673967Y-76297400D01*
X125739744Y-76300968D01*
X125739744Y-76300968D01*
G37*
X125739744Y-76300968D02*
X125796616Y-76322087D01*
X125797267Y-76322493D01*
X125832440Y-76348380D01*
X125858407Y-76378633D01*
X125876670Y-76418058D01*
X125888732Y-76471462D01*
X125896096Y-76543651D01*
X125900264Y-76639432D01*
X125900629Y-76653078D01*
X125905876Y-76858842D01*
X125861716Y-76881678D01*
X125829763Y-76897110D01*
X125810470Y-76904423D01*
X125809578Y-76904514D01*
X125806239Y-76891022D01*
X125803587Y-76854626D01*
X125801956Y-76801452D01*
X125801600Y-76758393D01*
X125801592Y-76688641D01*
X125798403Y-76644837D01*
X125787288Y-76623944D01*
X125763501Y-76622925D01*
X125722296Y-76638741D01*
X125660086Y-76667815D01*
X125614341Y-76691963D01*
X125590813Y-76712913D01*
X125583896Y-76735747D01*
X125583886Y-76736877D01*
X125595299Y-76776212D01*
X125629092Y-76797462D01*
X125680809Y-76800539D01*
X125718061Y-76800006D01*
X125737703Y-76810735D01*
X125749952Y-76836505D01*
X125757002Y-76869337D01*
X125746842Y-76887966D01*
X125743017Y-76890632D01*
X125707001Y-76901340D01*
X125656566Y-76902856D01*
X125604626Y-76895759D01*
X125567822Y-76882788D01*
X125516938Y-76839585D01*
X125488014Y-76779446D01*
X125482286Y-76732462D01*
X125486657Y-76690082D01*
X125502475Y-76655488D01*
X125533797Y-76624763D01*
X125584678Y-76593990D01*
X125659176Y-76559252D01*
X125663714Y-76557288D01*
X125730821Y-76526287D01*
X125772232Y-76500862D01*
X125789981Y-76478014D01*
X125786107Y-76454745D01*
X125762643Y-76428056D01*
X125755627Y-76421914D01*
X125708630Y-76398100D01*
X125659933Y-76399103D01*
X125617522Y-76422451D01*
X125589384Y-76465675D01*
X125586769Y-76474160D01*
X125561308Y-76515308D01*
X125529001Y-76535128D01*
X125482286Y-76554770D01*
X125482286Y-76503950D01*
X125496496Y-76430082D01*
X125538675Y-76362327D01*
X125560624Y-76339661D01*
X125610517Y-76310569D01*
X125673967Y-76297400D01*
X125739744Y-76300968D01*
G36*
X125075886Y-76201289D02*
G01*
X125080139Y-76260613D01*
X125085025Y-76295572D01*
X125091795Y-76310820D01*
X125101702Y-76311015D01*
X125104914Y-76309195D01*
X125147644Y-76296015D01*
X125203227Y-76296785D01*
X125259737Y-76310333D01*
X125295082Y-76327861D01*
X125331321Y-76355861D01*
X125357813Y-76387549D01*
X125375999Y-76427813D01*
X125387322Y-76481543D01*
X125393222Y-76553626D01*
X125395143Y-76648951D01*
X125395177Y-76667237D01*
X125395200Y-76872646D01*
X125349491Y-76888580D01*
X125317027Y-76899420D01*
X125299215Y-76904468D01*
X125298691Y-76904514D01*
X125296937Y-76890828D01*
X125295444Y-76853076D01*
X125294326Y-76796224D01*
X125293697Y-76725234D01*
X125293600Y-76682073D01*
X125293398Y-76596973D01*
X125292358Y-76535981D01*
X125289831Y-76494177D01*
X125285164Y-76466642D01*
X125277707Y-76448456D01*
X125266811Y-76434698D01*
X125260007Y-76428073D01*
X125213272Y-76401375D01*
X125162272Y-76399375D01*
X125116001Y-76421955D01*
X125107444Y-76430107D01*
X125094893Y-76445436D01*
X125086188Y-76463618D01*
X125080631Y-76489909D01*
X125077526Y-76529562D01*
X125076176Y-76587832D01*
X125075886Y-76668173D01*
X125075886Y-76872646D01*
X125030177Y-76888580D01*
X124997713Y-76899420D01*
X124979901Y-76904468D01*
X124979377Y-76904514D01*
X124978037Y-76890623D01*
X124976828Y-76851439D01*
X124975801Y-76790700D01*
X124975002Y-76712141D01*
X124974481Y-76619498D01*
X124974286Y-76516509D01*
X124974286Y-76119342D01*
X125021457Y-76099444D01*
X125068629Y-76079547D01*
X125075886Y-76201289D01*
X125075886Y-76201289D01*
G37*
X125075886Y-76201289D02*
X125080139Y-76260613D01*
X125085025Y-76295572D01*
X125091795Y-76310820D01*
X125101702Y-76311015D01*
X125104914Y-76309195D01*
X125147644Y-76296015D01*
X125203227Y-76296785D01*
X125259737Y-76310333D01*
X125295082Y-76327861D01*
X125331321Y-76355861D01*
X125357813Y-76387549D01*
X125375999Y-76427813D01*
X125387322Y-76481543D01*
X125393222Y-76553626D01*
X125395143Y-76648951D01*
X125395177Y-76667237D01*
X125395200Y-76872646D01*
X125349491Y-76888580D01*
X125317027Y-76899420D01*
X125299215Y-76904468D01*
X125298691Y-76904514D01*
X125296937Y-76890828D01*
X125295444Y-76853076D01*
X125294326Y-76796224D01*
X125293697Y-76725234D01*
X125293600Y-76682073D01*
X125293398Y-76596973D01*
X125292358Y-76535981D01*
X125289831Y-76494177D01*
X125285164Y-76466642D01*
X125277707Y-76448456D01*
X125266811Y-76434698D01*
X125260007Y-76428073D01*
X125213272Y-76401375D01*
X125162272Y-76399375D01*
X125116001Y-76421955D01*
X125107444Y-76430107D01*
X125094893Y-76445436D01*
X125086188Y-76463618D01*
X125080631Y-76489909D01*
X125077526Y-76529562D01*
X125076176Y-76587832D01*
X125075886Y-76668173D01*
X125075886Y-76872646D01*
X125030177Y-76888580D01*
X124997713Y-76899420D01*
X124979901Y-76904468D01*
X124979377Y-76904514D01*
X124978037Y-76890623D01*
X124976828Y-76851439D01*
X124975801Y-76790700D01*
X124975002Y-76712141D01*
X124974481Y-76619498D01*
X124974286Y-76516509D01*
X124974286Y-76119342D01*
X125021457Y-76099444D01*
X125068629Y-76079547D01*
X125075886Y-76201289D01*
G36*
X123868303Y-76281239D02*
G01*
X123925527Y-76319735D01*
X123969749Y-76375335D01*
X123996167Y-76446086D01*
X124001510Y-76498162D01*
X124000903Y-76519893D01*
X123995822Y-76536531D01*
X123981855Y-76551437D01*
X123954589Y-76567973D01*
X123909612Y-76589498D01*
X123842511Y-76619374D01*
X123842171Y-76619524D01*
X123780407Y-76647813D01*
X123729759Y-76672933D01*
X123695404Y-76692179D01*
X123682518Y-76702848D01*
X123682514Y-76702934D01*
X123693872Y-76726166D01*
X123720431Y-76751774D01*
X123750923Y-76770221D01*
X123766370Y-76773886D01*
X123808515Y-76761212D01*
X123844808Y-76729471D01*
X123862517Y-76694572D01*
X123879552Y-76668845D01*
X123912922Y-76639546D01*
X123952149Y-76614235D01*
X123986756Y-76600471D01*
X123993993Y-76599714D01*
X124002139Y-76612160D01*
X124002630Y-76643972D01*
X123996643Y-76686866D01*
X123985357Y-76732558D01*
X123969950Y-76772761D01*
X123969171Y-76774322D01*
X123922804Y-76839062D01*
X123862711Y-76883097D01*
X123794465Y-76904711D01*
X123723638Y-76902185D01*
X123655804Y-76873804D01*
X123652788Y-76871808D01*
X123599427Y-76823448D01*
X123564340Y-76760352D01*
X123544922Y-76677387D01*
X123542316Y-76654078D01*
X123537701Y-76544055D01*
X123543233Y-76492748D01*
X123682514Y-76492748D01*
X123684324Y-76524753D01*
X123694222Y-76534093D01*
X123718898Y-76527105D01*
X123757795Y-76510587D01*
X123801275Y-76489881D01*
X123802356Y-76489333D01*
X123839209Y-76469949D01*
X123854000Y-76457013D01*
X123850353Y-76443451D01*
X123834995Y-76425632D01*
X123795923Y-76399845D01*
X123753846Y-76397950D01*
X123716103Y-76416717D01*
X123690034Y-76452915D01*
X123682514Y-76492748D01*
X123543233Y-76492748D01*
X123547194Y-76456027D01*
X123571550Y-76386212D01*
X123605456Y-76337302D01*
X123666653Y-76287878D01*
X123734063Y-76263359D01*
X123802880Y-76261797D01*
X123868303Y-76281239D01*
X123868303Y-76281239D01*
G37*
X123868303Y-76281239D02*
X123925527Y-76319735D01*
X123969749Y-76375335D01*
X123996167Y-76446086D01*
X124001510Y-76498162D01*
X124000903Y-76519893D01*
X123995822Y-76536531D01*
X123981855Y-76551437D01*
X123954589Y-76567973D01*
X123909612Y-76589498D01*
X123842511Y-76619374D01*
X123842171Y-76619524D01*
X123780407Y-76647813D01*
X123729759Y-76672933D01*
X123695404Y-76692179D01*
X123682518Y-76702848D01*
X123682514Y-76702934D01*
X123693872Y-76726166D01*
X123720431Y-76751774D01*
X123750923Y-76770221D01*
X123766370Y-76773886D01*
X123808515Y-76761212D01*
X123844808Y-76729471D01*
X123862517Y-76694572D01*
X123879552Y-76668845D01*
X123912922Y-76639546D01*
X123952149Y-76614235D01*
X123986756Y-76600471D01*
X123993993Y-76599714D01*
X124002139Y-76612160D01*
X124002630Y-76643972D01*
X123996643Y-76686866D01*
X123985357Y-76732558D01*
X123969950Y-76772761D01*
X123969171Y-76774322D01*
X123922804Y-76839062D01*
X123862711Y-76883097D01*
X123794465Y-76904711D01*
X123723638Y-76902185D01*
X123655804Y-76873804D01*
X123652788Y-76871808D01*
X123599427Y-76823448D01*
X123564340Y-76760352D01*
X123544922Y-76677387D01*
X123542316Y-76654078D01*
X123537701Y-76544055D01*
X123543233Y-76492748D01*
X123682514Y-76492748D01*
X123684324Y-76524753D01*
X123694222Y-76534093D01*
X123718898Y-76527105D01*
X123757795Y-76510587D01*
X123801275Y-76489881D01*
X123802356Y-76489333D01*
X123839209Y-76469949D01*
X123854000Y-76457013D01*
X123850353Y-76443451D01*
X123834995Y-76425632D01*
X123795923Y-76399845D01*
X123753846Y-76397950D01*
X123716103Y-76416717D01*
X123690034Y-76452915D01*
X123682514Y-76492748D01*
X123543233Y-76492748D01*
X123547194Y-76456027D01*
X123571550Y-76386212D01*
X123605456Y-76337302D01*
X123666653Y-76287878D01*
X123734063Y-76263359D01*
X123802880Y-76261797D01*
X123868303Y-76281239D01*
G36*
X122741115Y-76271962D02*
G01*
X122809145Y-76307733D01*
X122859351Y-76365301D01*
X122877185Y-76402312D01*
X122891063Y-76457882D01*
X122898167Y-76528096D01*
X122898840Y-76604727D01*
X122893427Y-76679552D01*
X122882270Y-76744342D01*
X122865714Y-76790873D01*
X122860626Y-76798887D01*
X122800355Y-76858707D01*
X122728769Y-76894535D01*
X122651092Y-76905020D01*
X122572548Y-76888810D01*
X122550689Y-76879092D01*
X122508122Y-76849143D01*
X122470763Y-76809433D01*
X122467232Y-76804397D01*
X122452881Y-76780124D01*
X122443394Y-76754178D01*
X122437790Y-76720022D01*
X122435086Y-76671119D01*
X122434299Y-76600935D01*
X122434286Y-76585200D01*
X122434322Y-76580192D01*
X122579429Y-76580192D01*
X122580273Y-76646430D01*
X122583596Y-76690386D01*
X122590583Y-76718779D01*
X122602416Y-76738325D01*
X122608457Y-76744857D01*
X122643186Y-76769680D01*
X122676903Y-76768548D01*
X122710995Y-76747016D01*
X122731329Y-76724029D01*
X122743371Y-76690478D01*
X122750134Y-76637569D01*
X122750598Y-76631399D01*
X122751752Y-76535513D01*
X122739688Y-76464299D01*
X122714570Y-76418194D01*
X122676560Y-76397635D01*
X122662992Y-76396514D01*
X122627364Y-76402152D01*
X122602994Y-76421686D01*
X122588093Y-76459042D01*
X122580875Y-76518150D01*
X122579429Y-76580192D01*
X122434322Y-76580192D01*
X122434826Y-76510413D01*
X122437096Y-76458159D01*
X122442068Y-76421949D01*
X122450713Y-76395299D01*
X122464005Y-76371722D01*
X122466943Y-76367338D01*
X122516313Y-76308249D01*
X122570109Y-76273947D01*
X122635602Y-76260331D01*
X122657842Y-76259665D01*
X122741115Y-76271962D01*
X122741115Y-76271962D01*
G37*
X122741115Y-76271962D02*
X122809145Y-76307733D01*
X122859351Y-76365301D01*
X122877185Y-76402312D01*
X122891063Y-76457882D01*
X122898167Y-76528096D01*
X122898840Y-76604727D01*
X122893427Y-76679552D01*
X122882270Y-76744342D01*
X122865714Y-76790873D01*
X122860626Y-76798887D01*
X122800355Y-76858707D01*
X122728769Y-76894535D01*
X122651092Y-76905020D01*
X122572548Y-76888810D01*
X122550689Y-76879092D01*
X122508122Y-76849143D01*
X122470763Y-76809433D01*
X122467232Y-76804397D01*
X122452881Y-76780124D01*
X122443394Y-76754178D01*
X122437790Y-76720022D01*
X122435086Y-76671119D01*
X122434299Y-76600935D01*
X122434286Y-76585200D01*
X122434322Y-76580192D01*
X122579429Y-76580192D01*
X122580273Y-76646430D01*
X122583596Y-76690386D01*
X122590583Y-76718779D01*
X122602416Y-76738325D01*
X122608457Y-76744857D01*
X122643186Y-76769680D01*
X122676903Y-76768548D01*
X122710995Y-76747016D01*
X122731329Y-76724029D01*
X122743371Y-76690478D01*
X122750134Y-76637569D01*
X122750598Y-76631399D01*
X122751752Y-76535513D01*
X122739688Y-76464299D01*
X122714570Y-76418194D01*
X122676560Y-76397635D01*
X122662992Y-76396514D01*
X122627364Y-76402152D01*
X122602994Y-76421686D01*
X122588093Y-76459042D01*
X122580875Y-76518150D01*
X122579429Y-76580192D01*
X122434322Y-76580192D01*
X122434826Y-76510413D01*
X122437096Y-76458159D01*
X122442068Y-76421949D01*
X122450713Y-76395299D01*
X122464005Y-76371722D01*
X122466943Y-76367338D01*
X122516313Y-76308249D01*
X122570109Y-76273947D01*
X122635602Y-76260331D01*
X122657842Y-76259665D01*
X122741115Y-76271962D01*
G36*
X124416093Y-76277780D02*
G01*
X124462672Y-76304723D01*
X124495057Y-76331466D01*
X124518742Y-76359484D01*
X124535059Y-76393748D01*
X124545339Y-76439227D01*
X124550914Y-76500892D01*
X124553116Y-76583711D01*
X124553371Y-76643246D01*
X124553371Y-76862391D01*
X124491686Y-76890044D01*
X124430000Y-76917697D01*
X124422743Y-76677670D01*
X124419744Y-76588028D01*
X124416598Y-76522962D01*
X124412701Y-76478026D01*
X124407447Y-76448770D01*
X124400231Y-76430748D01*
X124390450Y-76419511D01*
X124387312Y-76417079D01*
X124339761Y-76398083D01*
X124291697Y-76405600D01*
X124263086Y-76425543D01*
X124251447Y-76439675D01*
X124243391Y-76458220D01*
X124238271Y-76486334D01*
X124235441Y-76529173D01*
X124234256Y-76591895D01*
X124234057Y-76657261D01*
X124234018Y-76739268D01*
X124232614Y-76797316D01*
X124227914Y-76836465D01*
X124217987Y-76861780D01*
X124200903Y-76878323D01*
X124174732Y-76891156D01*
X124139775Y-76904491D01*
X124101596Y-76919007D01*
X124106141Y-76661389D01*
X124107971Y-76568519D01*
X124110112Y-76499889D01*
X124113181Y-76450711D01*
X124117794Y-76416198D01*
X124124568Y-76391562D01*
X124134119Y-76372016D01*
X124145634Y-76354770D01*
X124201190Y-76299680D01*
X124268980Y-76267822D01*
X124342713Y-76260191D01*
X124416093Y-76277780D01*
X124416093Y-76277780D01*
G37*
X124416093Y-76277780D02*
X124462672Y-76304723D01*
X124495057Y-76331466D01*
X124518742Y-76359484D01*
X124535059Y-76393748D01*
X124545339Y-76439227D01*
X124550914Y-76500892D01*
X124553116Y-76583711D01*
X124553371Y-76643246D01*
X124553371Y-76862391D01*
X124491686Y-76890044D01*
X124430000Y-76917697D01*
X124422743Y-76677670D01*
X124419744Y-76588028D01*
X124416598Y-76522962D01*
X124412701Y-76478026D01*
X124407447Y-76448770D01*
X124400231Y-76430748D01*
X124390450Y-76419511D01*
X124387312Y-76417079D01*
X124339761Y-76398083D01*
X124291697Y-76405600D01*
X124263086Y-76425543D01*
X124251447Y-76439675D01*
X124243391Y-76458220D01*
X124238271Y-76486334D01*
X124235441Y-76529173D01*
X124234256Y-76591895D01*
X124234057Y-76657261D01*
X124234018Y-76739268D01*
X124232614Y-76797316D01*
X124227914Y-76836465D01*
X124217987Y-76861780D01*
X124200903Y-76878323D01*
X124174732Y-76891156D01*
X124139775Y-76904491D01*
X124101596Y-76919007D01*
X124106141Y-76661389D01*
X124107971Y-76568519D01*
X124110112Y-76499889D01*
X124113181Y-76450711D01*
X124117794Y-76416198D01*
X124124568Y-76391562D01*
X124134119Y-76372016D01*
X124145634Y-76354770D01*
X124201190Y-76299680D01*
X124268980Y-76267822D01*
X124342713Y-76260191D01*
X124416093Y-76277780D01*
G36*
X123299744Y-76269918D02*
G01*
X123355201Y-76297568D01*
X123404148Y-76348480D01*
X123417629Y-76367338D01*
X123432314Y-76392015D01*
X123441842Y-76418816D01*
X123447293Y-76454587D01*
X123449747Y-76506169D01*
X123450286Y-76574267D01*
X123447852Y-76667588D01*
X123439394Y-76737657D01*
X123423174Y-76789931D01*
X123397454Y-76829869D01*
X123360497Y-76862929D01*
X123357782Y-76864886D01*
X123321360Y-76884908D01*
X123277502Y-76894815D01*
X123221724Y-76897257D01*
X123131048Y-76897257D01*
X123131010Y-76985283D01*
X123130166Y-77034308D01*
X123125024Y-77063065D01*
X123111587Y-77080311D01*
X123085858Y-77094808D01*
X123079679Y-77097769D01*
X123050764Y-77111648D01*
X123028376Y-77120414D01*
X123011729Y-77121171D01*
X123000036Y-77111023D01*
X122992510Y-77087073D01*
X122988366Y-77046426D01*
X122986815Y-76986186D01*
X122987071Y-76903455D01*
X122988349Y-76795339D01*
X122988748Y-76763000D01*
X122990185Y-76651524D01*
X122991472Y-76578603D01*
X123130971Y-76578603D01*
X123131755Y-76640499D01*
X123135240Y-76680997D01*
X123143124Y-76707708D01*
X123157105Y-76728244D01*
X123166597Y-76738260D01*
X123205404Y-76767567D01*
X123239763Y-76769952D01*
X123275216Y-76745750D01*
X123276114Y-76744857D01*
X123290539Y-76726153D01*
X123299313Y-76700732D01*
X123303739Y-76661584D01*
X123305118Y-76601697D01*
X123305143Y-76588430D01*
X123301812Y-76505901D01*
X123290969Y-76448691D01*
X123271340Y-76413766D01*
X123241650Y-76398094D01*
X123224491Y-76396514D01*
X123183766Y-76403926D01*
X123155832Y-76428330D01*
X123139017Y-76472980D01*
X123131650Y-76541130D01*
X123130971Y-76578603D01*
X122991472Y-76578603D01*
X122991708Y-76565245D01*
X122993677Y-76500333D01*
X122996450Y-76452958D01*
X123000388Y-76419290D01*
X123005849Y-76395498D01*
X123013192Y-76377753D01*
X123022777Y-76362224D01*
X123026887Y-76356381D01*
X123081405Y-76301185D01*
X123150336Y-76269890D01*
X123230072Y-76261165D01*
X123299744Y-76269918D01*
X123299744Y-76269918D01*
G37*
X123299744Y-76269918D02*
X123355201Y-76297568D01*
X123404148Y-76348480D01*
X123417629Y-76367338D01*
X123432314Y-76392015D01*
X123441842Y-76418816D01*
X123447293Y-76454587D01*
X123449747Y-76506169D01*
X123450286Y-76574267D01*
X123447852Y-76667588D01*
X123439394Y-76737657D01*
X123423174Y-76789931D01*
X123397454Y-76829869D01*
X123360497Y-76862929D01*
X123357782Y-76864886D01*
X123321360Y-76884908D01*
X123277502Y-76894815D01*
X123221724Y-76897257D01*
X123131048Y-76897257D01*
X123131010Y-76985283D01*
X123130166Y-77034308D01*
X123125024Y-77063065D01*
X123111587Y-77080311D01*
X123085858Y-77094808D01*
X123079679Y-77097769D01*
X123050764Y-77111648D01*
X123028376Y-77120414D01*
X123011729Y-77121171D01*
X123000036Y-77111023D01*
X122992510Y-77087073D01*
X122988366Y-77046426D01*
X122986815Y-76986186D01*
X122987071Y-76903455D01*
X122988349Y-76795339D01*
X122988748Y-76763000D01*
X122990185Y-76651524D01*
X122991472Y-76578603D01*
X123130971Y-76578603D01*
X123131755Y-76640499D01*
X123135240Y-76680997D01*
X123143124Y-76707708D01*
X123157105Y-76728244D01*
X123166597Y-76738260D01*
X123205404Y-76767567D01*
X123239763Y-76769952D01*
X123275216Y-76745750D01*
X123276114Y-76744857D01*
X123290539Y-76726153D01*
X123299313Y-76700732D01*
X123303739Y-76661584D01*
X123305118Y-76601697D01*
X123305143Y-76588430D01*
X123301812Y-76505901D01*
X123290969Y-76448691D01*
X123271340Y-76413766D01*
X123241650Y-76398094D01*
X123224491Y-76396514D01*
X123183766Y-76403926D01*
X123155832Y-76428330D01*
X123139017Y-76472980D01*
X123131650Y-76541130D01*
X123130971Y-76578603D01*
X122991472Y-76578603D01*
X122991708Y-76565245D01*
X122993677Y-76500333D01*
X122996450Y-76452958D01*
X123000388Y-76419290D01*
X123005849Y-76395498D01*
X123013192Y-76377753D01*
X123022777Y-76362224D01*
X123026887Y-76356381D01*
X123081405Y-76301185D01*
X123150336Y-76269890D01*
X123230072Y-76261165D01*
X123299744Y-76269918D01*
D11*
X115752380Y-97933333D02*
X115276190Y-98266666D01*
X115752380Y-98504761D02*
X114752380Y-98504761D01*
X114752380Y-98123809D01*
X114800000Y-98028571D01*
X114847619Y-97980952D01*
X114942857Y-97933333D01*
X115085714Y-97933333D01*
X115180952Y-97980952D01*
X115228571Y-98028571D01*
X115276190Y-98123809D01*
X115276190Y-98504761D01*
X115228571Y-97504761D02*
X115228571Y-97171428D01*
X115752380Y-97028571D02*
X115752380Y-97504761D01*
X114752380Y-97504761D01*
X114752380Y-97028571D01*
X115228571Y-96266666D02*
X115228571Y-96600000D01*
X115752380Y-96600000D02*
X114752380Y-96600000D01*
X114752380Y-96123809D01*
X114752380Y-95600000D02*
X114990476Y-95600000D01*
X114895238Y-95838095D02*
X114990476Y-95600000D01*
X114895238Y-95361904D01*
X115180952Y-95742857D02*
X114990476Y-95600000D01*
X115180952Y-95457142D01*
X114752380Y-94838095D02*
X114990476Y-94838095D01*
X114895238Y-95076190D02*
X114990476Y-94838095D01*
X114895238Y-94600000D01*
X115180952Y-94980952D02*
X114990476Y-94838095D01*
X115180952Y-94695238D01*
G04 #@! TO.C,R1*
X140953333Y-89262380D02*
X140620000Y-88786190D01*
X140381904Y-89262380D02*
X140381904Y-88262380D01*
X140762857Y-88262380D01*
X140858095Y-88310000D01*
X140905714Y-88357619D01*
X140953333Y-88452857D01*
X140953333Y-88595714D01*
X140905714Y-88690952D01*
X140858095Y-88738571D01*
X140762857Y-88786190D01*
X140381904Y-88786190D01*
X141905714Y-89262380D02*
X141334285Y-89262380D01*
X141620000Y-89262380D02*
X141620000Y-88262380D01*
X141524761Y-88405238D01*
X141429523Y-88500476D01*
X141334285Y-88548095D01*
G04 #@! TO.C,R2*
X132883333Y-72652380D02*
X132550000Y-72176190D01*
X132311904Y-72652380D02*
X132311904Y-71652380D01*
X132692857Y-71652380D01*
X132788095Y-71700000D01*
X132835714Y-71747619D01*
X132883333Y-71842857D01*
X132883333Y-71985714D01*
X132835714Y-72080952D01*
X132788095Y-72128571D01*
X132692857Y-72176190D01*
X132311904Y-72176190D01*
X133264285Y-71747619D02*
X133311904Y-71700000D01*
X133407142Y-71652380D01*
X133645238Y-71652380D01*
X133740476Y-71700000D01*
X133788095Y-71747619D01*
X133835714Y-71842857D01*
X133835714Y-71938095D01*
X133788095Y-72080952D01*
X133216666Y-72652380D01*
X133835714Y-72652380D01*
G04 #@! TO.C,D1*
X114576904Y-90782380D02*
X114576904Y-89782380D01*
X114815000Y-89782380D01*
X114957857Y-89830000D01*
X115053095Y-89925238D01*
X115100714Y-90020476D01*
X115148333Y-90210952D01*
X115148333Y-90353809D01*
X115100714Y-90544285D01*
X115053095Y-90639523D01*
X114957857Y-90734761D01*
X114815000Y-90782380D01*
X114576904Y-90782380D01*
X116100714Y-90782380D02*
X115529285Y-90782380D01*
X115815000Y-90782380D02*
X115815000Y-89782380D01*
X115719761Y-89925238D01*
X115624523Y-90020476D01*
X115529285Y-90068095D01*
G04 #@! TO.C,R8*
X154733333Y-72652380D02*
X154400000Y-72176190D01*
X154161904Y-72652380D02*
X154161904Y-71652380D01*
X154542857Y-71652380D01*
X154638095Y-71700000D01*
X154685714Y-71747619D01*
X154733333Y-71842857D01*
X154733333Y-71985714D01*
X154685714Y-72080952D01*
X154638095Y-72128571D01*
X154542857Y-72176190D01*
X154161904Y-72176190D01*
X155304761Y-72080952D02*
X155209523Y-72033333D01*
X155161904Y-71985714D01*
X155114285Y-71890476D01*
X155114285Y-71842857D01*
X155161904Y-71747619D01*
X155209523Y-71700000D01*
X155304761Y-71652380D01*
X155495238Y-71652380D01*
X155590476Y-71700000D01*
X155638095Y-71747619D01*
X155685714Y-71842857D01*
X155685714Y-71890476D01*
X155638095Y-71985714D01*
X155590476Y-72033333D01*
X155495238Y-72080952D01*
X155304761Y-72080952D01*
X155209523Y-72128571D01*
X155161904Y-72176190D01*
X155114285Y-72271428D01*
X155114285Y-72461904D01*
X155161904Y-72557142D01*
X155209523Y-72604761D01*
X155304761Y-72652380D01*
X155495238Y-72652380D01*
X155590476Y-72604761D01*
X155638095Y-72557142D01*
X155685714Y-72461904D01*
X155685714Y-72271428D01*
X155638095Y-72176190D01*
X155590476Y-72128571D01*
X155495238Y-72080952D01*
G04 #@! TO.C,R10*
X156885714Y-72652380D02*
X156619047Y-72176190D01*
X156428571Y-72652380D02*
X156428571Y-71652380D01*
X156733333Y-71652380D01*
X156809523Y-71700000D01*
X156847619Y-71747619D01*
X156885714Y-71842857D01*
X156885714Y-71985714D01*
X156847619Y-72080952D01*
X156809523Y-72128571D01*
X156733333Y-72176190D01*
X156428571Y-72176190D01*
X157647619Y-72652380D02*
X157190476Y-72652380D01*
X157419047Y-72652380D02*
X157419047Y-71652380D01*
X157342857Y-71795238D01*
X157266666Y-71890476D01*
X157190476Y-71938095D01*
X158142857Y-71652380D02*
X158219047Y-71652380D01*
X158295238Y-71700000D01*
X158333333Y-71747619D01*
X158371428Y-71842857D01*
X158409523Y-72033333D01*
X158409523Y-72271428D01*
X158371428Y-72461904D01*
X158333333Y-72557142D01*
X158295238Y-72604761D01*
X158219047Y-72652380D01*
X158142857Y-72652380D01*
X158066666Y-72604761D01*
X158028571Y-72557142D01*
X157990476Y-72461904D01*
X157952380Y-72271428D01*
X157952380Y-72033333D01*
X157990476Y-71842857D01*
X158028571Y-71747619D01*
X158066666Y-71700000D01*
X158142857Y-71652380D01*
G04 #@! TO.C,U2*
X166698095Y-71652380D02*
X166698095Y-72461904D01*
X166745714Y-72557142D01*
X166793333Y-72604761D01*
X166888571Y-72652380D01*
X167079047Y-72652380D01*
X167174285Y-72604761D01*
X167221904Y-72557142D01*
X167269523Y-72461904D01*
X167269523Y-71652380D01*
X167698095Y-71747619D02*
X167745714Y-71700000D01*
X167840952Y-71652380D01*
X168079047Y-71652380D01*
X168174285Y-71700000D01*
X168221904Y-71747619D01*
X168269523Y-71842857D01*
X168269523Y-71938095D01*
X168221904Y-72080952D01*
X167650476Y-72652380D01*
X168269523Y-72652380D01*
G04 #@! TO.C,U3*
X148058095Y-89782380D02*
X148058095Y-90591904D01*
X148105714Y-90687142D01*
X148153333Y-90734761D01*
X148248571Y-90782380D01*
X148439047Y-90782380D01*
X148534285Y-90734761D01*
X148581904Y-90687142D01*
X148629523Y-90591904D01*
X148629523Y-89782380D01*
X149010476Y-89782380D02*
X149629523Y-89782380D01*
X149296190Y-90163333D01*
X149439047Y-90163333D01*
X149534285Y-90210952D01*
X149581904Y-90258571D01*
X149629523Y-90353809D01*
X149629523Y-90591904D01*
X149581904Y-90687142D01*
X149534285Y-90734761D01*
X149439047Y-90782380D01*
X149153333Y-90782380D01*
X149058095Y-90734761D01*
X149010476Y-90687142D01*
G04 #@! TO.C,Q1*
X171474761Y-77777619D02*
X171379523Y-77730000D01*
X171284285Y-77634761D01*
X171141428Y-77491904D01*
X171046190Y-77444285D01*
X170950952Y-77444285D01*
X170998571Y-77682380D02*
X170903333Y-77634761D01*
X170808095Y-77539523D01*
X170760476Y-77349047D01*
X170760476Y-77015714D01*
X170808095Y-76825238D01*
X170903333Y-76730000D01*
X170998571Y-76682380D01*
X171189047Y-76682380D01*
X171284285Y-76730000D01*
X171379523Y-76825238D01*
X171427142Y-77015714D01*
X171427142Y-77349047D01*
X171379523Y-77539523D01*
X171284285Y-77634761D01*
X171189047Y-77682380D01*
X170998571Y-77682380D01*
X172379523Y-77682380D02*
X171808095Y-77682380D01*
X172093809Y-77682380D02*
X172093809Y-76682380D01*
X171998571Y-76825238D01*
X171903333Y-76920476D01*
X171808095Y-76968095D01*
G04 #@! TO.C,TP1*
X116550000Y-75152380D02*
X116883333Y-76152380D01*
X117216666Y-75152380D01*
X117550000Y-76152380D02*
X117550000Y-75152380D01*
X117788095Y-75152380D01*
X117930952Y-75200000D01*
X118026190Y-75295238D01*
X118073809Y-75390476D01*
X118121428Y-75580952D01*
X118121428Y-75723809D01*
X118073809Y-75914285D01*
X118026190Y-76009523D01*
X117930952Y-76104761D01*
X117788095Y-76152380D01*
X117550000Y-76152380D01*
X118550000Y-76152380D02*
X118550000Y-75152380D01*
X118883333Y-75152380D02*
X119216666Y-76152380D01*
X119550000Y-75152380D01*
G04 #@! TO.C,TP2*
X117488095Y-72700000D02*
X117392857Y-72652380D01*
X117250000Y-72652380D01*
X117107142Y-72700000D01*
X117011904Y-72795238D01*
X116964285Y-72890476D01*
X116916666Y-73080952D01*
X116916666Y-73223809D01*
X116964285Y-73414285D01*
X117011904Y-73509523D01*
X117107142Y-73604761D01*
X117250000Y-73652380D01*
X117345238Y-73652380D01*
X117488095Y-73604761D01*
X117535714Y-73557142D01*
X117535714Y-73223809D01*
X117345238Y-73223809D01*
X117964285Y-73652380D02*
X117964285Y-72652380D01*
X118535714Y-73652380D01*
X118535714Y-72652380D01*
X119011904Y-73652380D02*
X119011904Y-72652380D01*
X119250000Y-72652380D01*
X119392857Y-72700000D01*
X119488095Y-72795238D01*
X119535714Y-72890476D01*
X119583333Y-73080952D01*
X119583333Y-73223809D01*
X119535714Y-73414285D01*
X119488095Y-73509523D01*
X119392857Y-73604761D01*
X119250000Y-73652380D01*
X119011904Y-73652380D01*
G04 #@! TO.C,C1*
X126683333Y-97307142D02*
X126635714Y-97354761D01*
X126492857Y-97402380D01*
X126397619Y-97402380D01*
X126254761Y-97354761D01*
X126159523Y-97259523D01*
X126111904Y-97164285D01*
X126064285Y-96973809D01*
X126064285Y-96830952D01*
X126111904Y-96640476D01*
X126159523Y-96545238D01*
X126254761Y-96450000D01*
X126397619Y-96402380D01*
X126492857Y-96402380D01*
X126635714Y-96450000D01*
X126683333Y-96497619D01*
X127635714Y-97402380D02*
X127064285Y-97402380D01*
X127350000Y-97402380D02*
X127350000Y-96402380D01*
X127254761Y-96545238D01*
X127159523Y-96640476D01*
X127064285Y-96688095D01*
G04 #@! TO.C,C3*
X113883333Y-78557142D02*
X113835714Y-78604761D01*
X113692857Y-78652380D01*
X113597619Y-78652380D01*
X113454761Y-78604761D01*
X113359523Y-78509523D01*
X113311904Y-78414285D01*
X113264285Y-78223809D01*
X113264285Y-78080952D01*
X113311904Y-77890476D01*
X113359523Y-77795238D01*
X113454761Y-77700000D01*
X113597619Y-77652380D01*
X113692857Y-77652380D01*
X113835714Y-77700000D01*
X113883333Y-77747619D01*
X114216666Y-77652380D02*
X114835714Y-77652380D01*
X114502380Y-78033333D01*
X114645238Y-78033333D01*
X114740476Y-78080952D01*
X114788095Y-78128571D01*
X114835714Y-78223809D01*
X114835714Y-78461904D01*
X114788095Y-78557142D01*
X114740476Y-78604761D01*
X114645238Y-78652380D01*
X114359523Y-78652380D01*
X114264285Y-78604761D01*
X114216666Y-78557142D01*
G04 #@! TO.C,C4*
X151333333Y-74457142D02*
X151285714Y-74504761D01*
X151142857Y-74552380D01*
X151047619Y-74552380D01*
X150904761Y-74504761D01*
X150809523Y-74409523D01*
X150761904Y-74314285D01*
X150714285Y-74123809D01*
X150714285Y-73980952D01*
X150761904Y-73790476D01*
X150809523Y-73695238D01*
X150904761Y-73600000D01*
X151047619Y-73552380D01*
X151142857Y-73552380D01*
X151285714Y-73600000D01*
X151333333Y-73647619D01*
X152190476Y-73885714D02*
X152190476Y-74552380D01*
X151952380Y-73504761D02*
X151714285Y-74219047D01*
X152333333Y-74219047D01*
G04 #@! TO.C,C5*
X139583333Y-90687142D02*
X139535714Y-90734761D01*
X139392857Y-90782380D01*
X139297619Y-90782380D01*
X139154761Y-90734761D01*
X139059523Y-90639523D01*
X139011904Y-90544285D01*
X138964285Y-90353809D01*
X138964285Y-90210952D01*
X139011904Y-90020476D01*
X139059523Y-89925238D01*
X139154761Y-89830000D01*
X139297619Y-89782380D01*
X139392857Y-89782380D01*
X139535714Y-89830000D01*
X139583333Y-89877619D01*
X140488095Y-89782380D02*
X140011904Y-89782380D01*
X139964285Y-90258571D01*
X140011904Y-90210952D01*
X140107142Y-90163333D01*
X140345238Y-90163333D01*
X140440476Y-90210952D01*
X140488095Y-90258571D01*
X140535714Y-90353809D01*
X140535714Y-90591904D01*
X140488095Y-90687142D01*
X140440476Y-90734761D01*
X140345238Y-90782380D01*
X140107142Y-90782380D01*
X140011904Y-90734761D01*
X139964285Y-90687142D01*
G04 #@! TO.C,C6*
X126683333Y-94807142D02*
X126635714Y-94854761D01*
X126492857Y-94902380D01*
X126397619Y-94902380D01*
X126254761Y-94854761D01*
X126159523Y-94759523D01*
X126111904Y-94664285D01*
X126064285Y-94473809D01*
X126064285Y-94330952D01*
X126111904Y-94140476D01*
X126159523Y-94045238D01*
X126254761Y-93950000D01*
X126397619Y-93902380D01*
X126492857Y-93902380D01*
X126635714Y-93950000D01*
X126683333Y-93997619D01*
X127540476Y-93902380D02*
X127350000Y-93902380D01*
X127254761Y-93950000D01*
X127207142Y-93997619D01*
X127111904Y-94140476D01*
X127064285Y-94330952D01*
X127064285Y-94711904D01*
X127111904Y-94807142D01*
X127159523Y-94854761D01*
X127254761Y-94902380D01*
X127445238Y-94902380D01*
X127540476Y-94854761D01*
X127588095Y-94807142D01*
X127635714Y-94711904D01*
X127635714Y-94473809D01*
X127588095Y-94378571D01*
X127540476Y-94330952D01*
X127445238Y-94283333D01*
X127254761Y-94283333D01*
X127159523Y-94330952D01*
X127111904Y-94378571D01*
X127064285Y-94473809D01*
G04 #@! TO.C,C2*
X126683333Y-92307142D02*
X126635714Y-92354761D01*
X126492857Y-92402380D01*
X126397619Y-92402380D01*
X126254761Y-92354761D01*
X126159523Y-92259523D01*
X126111904Y-92164285D01*
X126064285Y-91973809D01*
X126064285Y-91830952D01*
X126111904Y-91640476D01*
X126159523Y-91545238D01*
X126254761Y-91450000D01*
X126397619Y-91402380D01*
X126492857Y-91402380D01*
X126635714Y-91450000D01*
X126683333Y-91497619D01*
X127064285Y-91497619D02*
X127111904Y-91450000D01*
X127207142Y-91402380D01*
X127445238Y-91402380D01*
X127540476Y-91450000D01*
X127588095Y-91497619D01*
X127635714Y-91592857D01*
X127635714Y-91688095D01*
X127588095Y-91830952D01*
X127016666Y-92402380D01*
X127635714Y-92402380D01*
G04 #@! TO.C,D2*
X129861904Y-72652380D02*
X129861904Y-71652380D01*
X130100000Y-71652380D01*
X130242857Y-71700000D01*
X130338095Y-71795238D01*
X130385714Y-71890476D01*
X130433333Y-72080952D01*
X130433333Y-72223809D01*
X130385714Y-72414285D01*
X130338095Y-72509523D01*
X130242857Y-72604761D01*
X130100000Y-72652380D01*
X129861904Y-72652380D01*
X130814285Y-71747619D02*
X130861904Y-71700000D01*
X130957142Y-71652380D01*
X131195238Y-71652380D01*
X131290476Y-71700000D01*
X131338095Y-71747619D01*
X131385714Y-71842857D01*
X131385714Y-71938095D01*
X131338095Y-72080952D01*
X130766666Y-72652380D01*
X131385714Y-72652380D01*
G04 #@! TO.C,D4*
X137311904Y-72652380D02*
X137311904Y-71652380D01*
X137550000Y-71652380D01*
X137692857Y-71700000D01*
X137788095Y-71795238D01*
X137835714Y-71890476D01*
X137883333Y-72080952D01*
X137883333Y-72223809D01*
X137835714Y-72414285D01*
X137788095Y-72509523D01*
X137692857Y-72604761D01*
X137550000Y-72652380D01*
X137311904Y-72652380D01*
X138740476Y-71985714D02*
X138740476Y-72652380D01*
X138502380Y-71604761D02*
X138264285Y-72319047D01*
X138883333Y-72319047D01*
G04 #@! TO.C,R12*
X135085714Y-72652380D02*
X134819047Y-72176190D01*
X134628571Y-72652380D02*
X134628571Y-71652380D01*
X134933333Y-71652380D01*
X135009523Y-71700000D01*
X135047619Y-71747619D01*
X135085714Y-71842857D01*
X135085714Y-71985714D01*
X135047619Y-72080952D01*
X135009523Y-72128571D01*
X134933333Y-72176190D01*
X134628571Y-72176190D01*
X135847619Y-72652380D02*
X135390476Y-72652380D01*
X135619047Y-72652380D02*
X135619047Y-71652380D01*
X135542857Y-71795238D01*
X135466666Y-71890476D01*
X135390476Y-71938095D01*
X136152380Y-71747619D02*
X136190476Y-71700000D01*
X136266666Y-71652380D01*
X136457142Y-71652380D01*
X136533333Y-71700000D01*
X136571428Y-71747619D01*
X136609523Y-71842857D01*
X136609523Y-71938095D01*
X136571428Y-72080952D01*
X136114285Y-72652380D01*
X136609523Y-72652380D01*
G04 #@! TO.C,R3*
X140833333Y-94302380D02*
X140500000Y-93826190D01*
X140261904Y-94302380D02*
X140261904Y-93302380D01*
X140642857Y-93302380D01*
X140738095Y-93350000D01*
X140785714Y-93397619D01*
X140833333Y-93492857D01*
X140833333Y-93635714D01*
X140785714Y-93730952D01*
X140738095Y-93778571D01*
X140642857Y-93826190D01*
X140261904Y-93826190D01*
X141166666Y-93302380D02*
X141785714Y-93302380D01*
X141452380Y-93683333D01*
X141595238Y-93683333D01*
X141690476Y-93730952D01*
X141738095Y-93778571D01*
X141785714Y-93873809D01*
X141785714Y-94111904D01*
X141738095Y-94207142D01*
X141690476Y-94254761D01*
X141595238Y-94302380D01*
X141309523Y-94302380D01*
X141214285Y-94254761D01*
X141166666Y-94207142D01*
G04 #@! TO.C,R4*
X138333333Y-94302380D02*
X138000000Y-93826190D01*
X137761904Y-94302380D02*
X137761904Y-93302380D01*
X138142857Y-93302380D01*
X138238095Y-93350000D01*
X138285714Y-93397619D01*
X138333333Y-93492857D01*
X138333333Y-93635714D01*
X138285714Y-93730952D01*
X138238095Y-93778571D01*
X138142857Y-93826190D01*
X137761904Y-93826190D01*
X139190476Y-93635714D02*
X139190476Y-94302380D01*
X138952380Y-93254761D02*
X138714285Y-93969047D01*
X139333333Y-93969047D01*
G04 #@! TO.C,R6*
X112333333Y-72652380D02*
X112000000Y-72176190D01*
X111761904Y-72652380D02*
X111761904Y-71652380D01*
X112142857Y-71652380D01*
X112238095Y-71700000D01*
X112285714Y-71747619D01*
X112333333Y-71842857D01*
X112333333Y-71985714D01*
X112285714Y-72080952D01*
X112238095Y-72128571D01*
X112142857Y-72176190D01*
X111761904Y-72176190D01*
X113190476Y-71652380D02*
X113000000Y-71652380D01*
X112904761Y-71700000D01*
X112857142Y-71747619D01*
X112761904Y-71890476D01*
X112714285Y-72080952D01*
X112714285Y-72461904D01*
X112761904Y-72557142D01*
X112809523Y-72604761D01*
X112904761Y-72652380D01*
X113095238Y-72652380D01*
X113190476Y-72604761D01*
X113238095Y-72557142D01*
X113285714Y-72461904D01*
X113285714Y-72223809D01*
X113238095Y-72128571D01*
X113190476Y-72080952D01*
X113095238Y-72033333D01*
X112904761Y-72033333D01*
X112809523Y-72080952D01*
X112761904Y-72128571D01*
X112714285Y-72223809D01*
G04 #@! TO.C,R7*
X109883333Y-72652380D02*
X109550000Y-72176190D01*
X109311904Y-72652380D02*
X109311904Y-71652380D01*
X109692857Y-71652380D01*
X109788095Y-71700000D01*
X109835714Y-71747619D01*
X109883333Y-71842857D01*
X109883333Y-71985714D01*
X109835714Y-72080952D01*
X109788095Y-72128571D01*
X109692857Y-72176190D01*
X109311904Y-72176190D01*
X110216666Y-71652380D02*
X110883333Y-71652380D01*
X110454761Y-72652380D01*
G04 #@! TO.C,R9*
X168133333Y-77682380D02*
X167800000Y-77206190D01*
X167561904Y-77682380D02*
X167561904Y-76682380D01*
X167942857Y-76682380D01*
X168038095Y-76730000D01*
X168085714Y-76777619D01*
X168133333Y-76872857D01*
X168133333Y-77015714D01*
X168085714Y-77110952D01*
X168038095Y-77158571D01*
X167942857Y-77206190D01*
X167561904Y-77206190D01*
X168609523Y-77682380D02*
X168800000Y-77682380D01*
X168895238Y-77634761D01*
X168942857Y-77587142D01*
X169038095Y-77444285D01*
X169085714Y-77253809D01*
X169085714Y-76872857D01*
X169038095Y-76777619D01*
X168990476Y-76730000D01*
X168895238Y-76682380D01*
X168704761Y-76682380D01*
X168609523Y-76730000D01*
X168561904Y-76777619D01*
X168514285Y-76872857D01*
X168514285Y-77110952D01*
X168561904Y-77206190D01*
X168609523Y-77253809D01*
X168704761Y-77301428D01*
X168895238Y-77301428D01*
X168990476Y-77253809D01*
X169038095Y-77206190D01*
X169085714Y-77110952D01*
G04 #@! TO.C,J2*
X158816666Y-97052380D02*
X158816666Y-97766666D01*
X158769047Y-97909523D01*
X158673809Y-98004761D01*
X158530952Y-98052380D01*
X158435714Y-98052380D01*
X159245238Y-97147619D02*
X159292857Y-97100000D01*
X159388095Y-97052380D01*
X159626190Y-97052380D01*
X159721428Y-97100000D01*
X159769047Y-97147619D01*
X159816666Y-97242857D01*
X159816666Y-97338095D01*
X159769047Y-97480952D01*
X159197619Y-98052380D01*
X159816666Y-98052380D01*
G04 #@! TO.C,J3*
X171566666Y-97052380D02*
X171566666Y-97766666D01*
X171519047Y-97909523D01*
X171423809Y-98004761D01*
X171280952Y-98052380D01*
X171185714Y-98052380D01*
X171947619Y-97052380D02*
X172566666Y-97052380D01*
X172233333Y-97433333D01*
X172376190Y-97433333D01*
X172471428Y-97480952D01*
X172519047Y-97528571D01*
X172566666Y-97623809D01*
X172566666Y-97861904D01*
X172519047Y-97957142D01*
X172471428Y-98004761D01*
X172376190Y-98052380D01*
X172090476Y-98052380D01*
X171995238Y-98004761D01*
X171947619Y-97957142D01*
G04 #@! TO.C,ISP1*
X149773809Y-72452380D02*
X149773809Y-71452380D01*
X150821428Y-72357142D02*
X150773809Y-72404761D01*
X150630952Y-72452380D01*
X150535714Y-72452380D01*
X150392857Y-72404761D01*
X150297619Y-72309523D01*
X150250000Y-72214285D01*
X150202380Y-72023809D01*
X150202380Y-71880952D01*
X150250000Y-71690476D01*
X150297619Y-71595238D01*
X150392857Y-71500000D01*
X150535714Y-71452380D01*
X150630952Y-71452380D01*
X150773809Y-71500000D01*
X150821428Y-71547619D01*
X151202380Y-72404761D02*
X151345238Y-72452380D01*
X151583333Y-72452380D01*
X151678571Y-72404761D01*
X151726190Y-72357142D01*
X151773809Y-72261904D01*
X151773809Y-72166666D01*
X151726190Y-72071428D01*
X151678571Y-72023809D01*
X151583333Y-71976190D01*
X151392857Y-71928571D01*
X151297619Y-71880952D01*
X151250000Y-71833333D01*
X151202380Y-71738095D01*
X151202380Y-71642857D01*
X151250000Y-71547619D01*
X151297619Y-71500000D01*
X151392857Y-71452380D01*
X151630952Y-71452380D01*
X151773809Y-71500000D01*
X152202380Y-72452380D02*
X152202380Y-71452380D01*
X152583333Y-71452380D01*
X152678571Y-71500000D01*
X152726190Y-71547619D01*
X152773809Y-71642857D01*
X152773809Y-71785714D01*
X152726190Y-71880952D01*
X152678571Y-71928571D01*
X152583333Y-71976190D01*
X152202380Y-71976190D01*
G04 #@! TO.C,TH1*
X133339285Y-89782380D02*
X133910714Y-89782380D01*
X133625000Y-90782380D02*
X133625000Y-89782380D01*
X134244047Y-90782380D02*
X134244047Y-89782380D01*
X134244047Y-90258571D02*
X134815476Y-90258571D01*
X134815476Y-90782380D02*
X134815476Y-89782380D01*
X135815476Y-90782380D02*
X135244047Y-90782380D01*
X135529761Y-90782380D02*
X135529761Y-89782380D01*
X135434523Y-89925238D01*
X135339285Y-90020476D01*
X135244047Y-90068095D01*
G04 #@! TO.C,J1*
X122641666Y-97052380D02*
X122641666Y-97766666D01*
X122594047Y-97909523D01*
X122498809Y-98004761D01*
X122355952Y-98052380D01*
X122260714Y-98052380D01*
X123641666Y-98052380D02*
X123070238Y-98052380D01*
X123355952Y-98052380D02*
X123355952Y-97052380D01*
X123260714Y-97195238D01*
X123165476Y-97290476D01*
X123070238Y-97338095D01*
G04 #@! TO.C,U1*
X133788095Y-93502380D02*
X133788095Y-94311904D01*
X133835714Y-94407142D01*
X133883333Y-94454761D01*
X133978571Y-94502380D01*
X134169047Y-94502380D01*
X134264285Y-94454761D01*
X134311904Y-94407142D01*
X134359523Y-94311904D01*
X134359523Y-93502380D01*
X135359523Y-94502380D02*
X134788095Y-94502380D01*
X135073809Y-94502380D02*
X135073809Y-93502380D01*
X134978571Y-93645238D01*
X134883333Y-93740476D01*
X134788095Y-93788095D01*
G04 #@! TD*
M02*
