G04 #@! TF.GenerationSoftware,KiCad,Pcbnew,(5.1.0)-1*
G04 #@! TF.CreationDate,2019-06-25T11:53:36+01:00*
G04 #@! TF.ProjectId,BMS_Cell_Module,424d535f-4365-46c6-9c5f-4d6f64756c65,3.0*
G04 #@! TF.SameCoordinates,Original*
G04 #@! TF.FileFunction,Legend,Bot*
G04 #@! TF.FilePolarity,Positive*
%FSLAX46Y46*%
G04 Gerber Fmt 4.6, Leading zero omitted, Abs format (unit mm)*
G04 Created by KiCad (PCBNEW (5.1.0)-1) date 2019-06-25 11:53:36*
%MOMM*%
%LPD*%
G04 APERTURE LIST*
%ADD10C,0.150000*%
%ADD11C,0.250000*%
%ADD12C,0.200000*%
%ADD13C,0.400000*%
%ADD14C,0.300000*%
G04 APERTURE END LIST*
D10*
X134150000Y-91950000D02*
X134800000Y-91950000D01*
X134148212Y-91950000D02*
G75*
G03X134148212Y-91950000I-873212J0D01*
G01*
X135735714Y-89702380D02*
X135164285Y-89702380D01*
X135450000Y-90702380D02*
X135450000Y-89702380D01*
X134830952Y-90702380D02*
X134830952Y-89702380D01*
X134830952Y-90178571D02*
X134259523Y-90178571D01*
X134259523Y-90702380D02*
X134259523Y-89702380D01*
X133259523Y-90702380D02*
X133830952Y-90702380D01*
X133545238Y-90702380D02*
X133545238Y-89702380D01*
X133640476Y-89845238D01*
X133735714Y-89940476D01*
X133830952Y-89988095D01*
D11*
X170769047Y-94121428D02*
X171530952Y-94121428D01*
X157969047Y-94121428D02*
X158730952Y-94121428D01*
X164769047Y-94121428D02*
X165530952Y-94121428D01*
X165150000Y-94502380D02*
X165150000Y-93740476D01*
X151969047Y-94121428D02*
X152730952Y-94121428D01*
X152350000Y-94502380D02*
X152350000Y-93740476D01*
D10*
X167604761Y-93657142D02*
X167652380Y-93785714D01*
X167652380Y-94000000D01*
X167604761Y-94085714D01*
X167557142Y-94128571D01*
X167461904Y-94171428D01*
X167366666Y-94171428D01*
X167271428Y-94128571D01*
X167223809Y-94085714D01*
X167176190Y-94000000D01*
X167128571Y-93828571D01*
X167080952Y-93742857D01*
X167033333Y-93700000D01*
X166938095Y-93657142D01*
X166842857Y-93657142D01*
X166747619Y-93700000D01*
X166700000Y-93742857D01*
X166652380Y-93828571D01*
X166652380Y-94042857D01*
X166700000Y-94171428D01*
X167652380Y-94557142D02*
X166652380Y-94557142D01*
X166652380Y-94771428D01*
X166700000Y-94900000D01*
X166795238Y-94985714D01*
X166890476Y-95028571D01*
X167080952Y-95071428D01*
X167223809Y-95071428D01*
X167414285Y-95028571D01*
X167509523Y-94985714D01*
X167604761Y-94900000D01*
X167652380Y-94771428D01*
X167652380Y-94557142D01*
X167366666Y-95414285D02*
X167366666Y-95842857D01*
X167652380Y-95328571D02*
X166652380Y-95628571D01*
X167652380Y-95928571D01*
X154804761Y-93657142D02*
X154852380Y-93785714D01*
X154852380Y-94000000D01*
X154804761Y-94085714D01*
X154757142Y-94128571D01*
X154661904Y-94171428D01*
X154566666Y-94171428D01*
X154471428Y-94128571D01*
X154423809Y-94085714D01*
X154376190Y-94000000D01*
X154328571Y-93828571D01*
X154280952Y-93742857D01*
X154233333Y-93700000D01*
X154138095Y-93657142D01*
X154042857Y-93657142D01*
X153947619Y-93700000D01*
X153900000Y-93742857D01*
X153852380Y-93828571D01*
X153852380Y-94042857D01*
X153900000Y-94171428D01*
X154852380Y-94557142D02*
X153852380Y-94557142D01*
X153852380Y-94771428D01*
X153900000Y-94900000D01*
X153995238Y-94985714D01*
X154090476Y-95028571D01*
X154280952Y-95071428D01*
X154423809Y-95071428D01*
X154614285Y-95028571D01*
X154709523Y-94985714D01*
X154804761Y-94900000D01*
X154852380Y-94771428D01*
X154852380Y-94557142D01*
X154566666Y-95414285D02*
X154566666Y-95842857D01*
X154852380Y-95328571D02*
X153852380Y-95628571D01*
X154852380Y-95928571D01*
X156804761Y-93653571D02*
X156852380Y-93782142D01*
X156852380Y-93996428D01*
X156804761Y-94082142D01*
X156757142Y-94125000D01*
X156661904Y-94167857D01*
X156566666Y-94167857D01*
X156471428Y-94125000D01*
X156423809Y-94082142D01*
X156376190Y-93996428D01*
X156328571Y-93825000D01*
X156280952Y-93739285D01*
X156233333Y-93696428D01*
X156138095Y-93653571D01*
X156042857Y-93653571D01*
X155947619Y-93696428D01*
X155900000Y-93739285D01*
X155852380Y-93825000D01*
X155852380Y-94039285D01*
X155900000Y-94167857D01*
X156757142Y-95067857D02*
X156804761Y-95025000D01*
X156852380Y-94896428D01*
X156852380Y-94810714D01*
X156804761Y-94682142D01*
X156709523Y-94596428D01*
X156614285Y-94553571D01*
X156423809Y-94510714D01*
X156280952Y-94510714D01*
X156090476Y-94553571D01*
X155995238Y-94596428D01*
X155900000Y-94682142D01*
X155852380Y-94810714D01*
X155852380Y-94896428D01*
X155900000Y-95025000D01*
X155947619Y-95067857D01*
X156852380Y-95882142D02*
X156852380Y-95453571D01*
X155852380Y-95453571D01*
X169604761Y-93653571D02*
X169652380Y-93782142D01*
X169652380Y-93996428D01*
X169604761Y-94082142D01*
X169557142Y-94125000D01*
X169461904Y-94167857D01*
X169366666Y-94167857D01*
X169271428Y-94125000D01*
X169223809Y-94082142D01*
X169176190Y-93996428D01*
X169128571Y-93825000D01*
X169080952Y-93739285D01*
X169033333Y-93696428D01*
X168938095Y-93653571D01*
X168842857Y-93653571D01*
X168747619Y-93696428D01*
X168700000Y-93739285D01*
X168652380Y-93825000D01*
X168652380Y-94039285D01*
X168700000Y-94167857D01*
X169557142Y-95067857D02*
X169604761Y-95025000D01*
X169652380Y-94896428D01*
X169652380Y-94810714D01*
X169604761Y-94682142D01*
X169509523Y-94596428D01*
X169414285Y-94553571D01*
X169223809Y-94510714D01*
X169080952Y-94510714D01*
X168890476Y-94553571D01*
X168795238Y-94596428D01*
X168700000Y-94682142D01*
X168652380Y-94810714D01*
X168652380Y-94896428D01*
X168700000Y-95025000D01*
X168747619Y-95067857D01*
X169652380Y-95882142D02*
X169652380Y-95453571D01*
X168652380Y-95453571D01*
X125546428Y-96927380D02*
X126117857Y-96927380D01*
X125832142Y-96927380D02*
X125832142Y-95927380D01*
X125927380Y-96070238D01*
X126022619Y-96165476D01*
X126117857Y-96213095D01*
X125117857Y-96832142D02*
X125070238Y-96879761D01*
X125117857Y-96927380D01*
X125165476Y-96879761D01*
X125117857Y-96832142D01*
X125117857Y-96927380D01*
X124498809Y-96355952D02*
X124594047Y-96308333D01*
X124641666Y-96260714D01*
X124689285Y-96165476D01*
X124689285Y-96117857D01*
X124641666Y-96022619D01*
X124594047Y-95975000D01*
X124498809Y-95927380D01*
X124308333Y-95927380D01*
X124213095Y-95975000D01*
X124165476Y-96022619D01*
X124117857Y-96117857D01*
X124117857Y-96165476D01*
X124165476Y-96260714D01*
X124213095Y-96308333D01*
X124308333Y-96355952D01*
X124498809Y-96355952D01*
X124594047Y-96403571D01*
X124641666Y-96451190D01*
X124689285Y-96546428D01*
X124689285Y-96736904D01*
X124641666Y-96832142D01*
X124594047Y-96879761D01*
X124498809Y-96927380D01*
X124308333Y-96927380D01*
X124213095Y-96879761D01*
X124165476Y-96832142D01*
X124117857Y-96736904D01*
X124117857Y-96546428D01*
X124165476Y-96451190D01*
X124213095Y-96403571D01*
X124308333Y-96355952D01*
X123689285Y-96546428D02*
X122927380Y-96546428D01*
X123117857Y-96736904D02*
X122927380Y-96546428D01*
X123117857Y-96355952D01*
X122022619Y-96260714D02*
X122022619Y-96927380D01*
X122260714Y-95879761D02*
X122498809Y-96594047D01*
X121879761Y-96594047D01*
X121498809Y-96832142D02*
X121451190Y-96879761D01*
X121498809Y-96927380D01*
X121546428Y-96879761D01*
X121498809Y-96832142D01*
X121498809Y-96927380D01*
X121117857Y-95927380D02*
X120498809Y-95927380D01*
X120832142Y-96308333D01*
X120689285Y-96308333D01*
X120594047Y-96355952D01*
X120546428Y-96403571D01*
X120498809Y-96498809D01*
X120498809Y-96736904D01*
X120546428Y-96832142D01*
X120594047Y-96879761D01*
X120689285Y-96927380D01*
X120975000Y-96927380D01*
X121070238Y-96879761D01*
X121117857Y-96832142D01*
X119594047Y-95927380D02*
X120070238Y-95927380D01*
X120117857Y-96403571D01*
X120070238Y-96355952D01*
X119975000Y-96308333D01*
X119736904Y-96308333D01*
X119641666Y-96355952D01*
X119594047Y-96403571D01*
X119546428Y-96498809D01*
X119546428Y-96736904D01*
X119594047Y-96832142D01*
X119641666Y-96879761D01*
X119736904Y-96927380D01*
X119975000Y-96927380D01*
X120070238Y-96879761D01*
X120117857Y-96832142D01*
X119260714Y-95927380D02*
X118927380Y-96927380D01*
X118594047Y-95927380D01*
X117546428Y-95879761D02*
X118403571Y-97165476D01*
X117260714Y-96022619D02*
X117213095Y-95975000D01*
X117117857Y-95927380D01*
X116879761Y-95927380D01*
X116784523Y-95975000D01*
X116736904Y-96022619D01*
X116689285Y-96117857D01*
X116689285Y-96213095D01*
X116736904Y-96355952D01*
X117308333Y-96927380D01*
X116689285Y-96927380D01*
X116308333Y-96641666D02*
X115832142Y-96641666D01*
X116403571Y-96927380D02*
X116070238Y-95927380D01*
X115736904Y-96927380D01*
D12*
X140461428Y-73260000D02*
X139890000Y-73260000D01*
X140575714Y-73602857D02*
X140175714Y-72402857D01*
X139775714Y-73602857D01*
X139547142Y-72402857D02*
X138861428Y-72402857D01*
X139204285Y-73602857D02*
X139204285Y-72402857D01*
X138632857Y-72402857D02*
X137947142Y-72402857D01*
X138290000Y-73602857D02*
X138290000Y-72402857D01*
X137547142Y-73602857D02*
X137547142Y-72402857D01*
X136975714Y-73602857D02*
X136975714Y-72402857D01*
X136290000Y-73602857D01*
X136290000Y-72402857D01*
X135490000Y-73031428D02*
X135490000Y-73602857D01*
X135890000Y-72402857D02*
X135490000Y-73031428D01*
X135090000Y-72402857D01*
X134518571Y-72917142D02*
X134632857Y-72860000D01*
X134690000Y-72802857D01*
X134747142Y-72688571D01*
X134747142Y-72631428D01*
X134690000Y-72517142D01*
X134632857Y-72460000D01*
X134518571Y-72402857D01*
X134290000Y-72402857D01*
X134175714Y-72460000D01*
X134118571Y-72517142D01*
X134061428Y-72631428D01*
X134061428Y-72688571D01*
X134118571Y-72802857D01*
X134175714Y-72860000D01*
X134290000Y-72917142D01*
X134518571Y-72917142D01*
X134632857Y-72974285D01*
X134690000Y-73031428D01*
X134747142Y-73145714D01*
X134747142Y-73374285D01*
X134690000Y-73488571D01*
X134632857Y-73545714D01*
X134518571Y-73602857D01*
X134290000Y-73602857D01*
X134175714Y-73545714D01*
X134118571Y-73488571D01*
X134061428Y-73374285D01*
X134061428Y-73145714D01*
X134118571Y-73031428D01*
X134175714Y-72974285D01*
X134290000Y-72917142D01*
X132975714Y-72402857D02*
X133547142Y-72402857D01*
X133604285Y-72974285D01*
X133547142Y-72917142D01*
X133432857Y-72860000D01*
X133147142Y-72860000D01*
X133032857Y-72917142D01*
X132975714Y-72974285D01*
X132918571Y-73088571D01*
X132918571Y-73374285D01*
X132975714Y-73488571D01*
X133032857Y-73545714D01*
X133147142Y-73602857D01*
X133432857Y-73602857D01*
X133547142Y-73545714D01*
X133604285Y-73488571D01*
X140404285Y-75602857D02*
X140404285Y-74402857D01*
X139947142Y-74402857D01*
X139832857Y-74460000D01*
X139775714Y-74517142D01*
X139718571Y-74631428D01*
X139718571Y-74802857D01*
X139775714Y-74917142D01*
X139832857Y-74974285D01*
X139947142Y-75031428D01*
X140404285Y-75031428D01*
X138518571Y-75602857D02*
X138918571Y-75031428D01*
X139204285Y-75602857D02*
X139204285Y-74402857D01*
X138747142Y-74402857D01*
X138632857Y-74460000D01*
X138575714Y-74517142D01*
X138518571Y-74631428D01*
X138518571Y-74802857D01*
X138575714Y-74917142D01*
X138632857Y-74974285D01*
X138747142Y-75031428D01*
X139204285Y-75031428D01*
X137775714Y-74402857D02*
X137547142Y-74402857D01*
X137432857Y-74460000D01*
X137318571Y-74574285D01*
X137261428Y-74802857D01*
X137261428Y-75202857D01*
X137318571Y-75431428D01*
X137432857Y-75545714D01*
X137547142Y-75602857D01*
X137775714Y-75602857D01*
X137890000Y-75545714D01*
X138004285Y-75431428D01*
X138061428Y-75202857D01*
X138061428Y-74802857D01*
X138004285Y-74574285D01*
X137890000Y-74460000D01*
X137775714Y-74402857D01*
X136118571Y-74460000D02*
X136232857Y-74402857D01*
X136404285Y-74402857D01*
X136575714Y-74460000D01*
X136690000Y-74574285D01*
X136747142Y-74688571D01*
X136804285Y-74917142D01*
X136804285Y-75088571D01*
X136747142Y-75317142D01*
X136690000Y-75431428D01*
X136575714Y-75545714D01*
X136404285Y-75602857D01*
X136290000Y-75602857D01*
X136118571Y-75545714D01*
X136061428Y-75488571D01*
X136061428Y-75088571D01*
X136290000Y-75088571D01*
X134861428Y-75602857D02*
X135261428Y-75031428D01*
X135547142Y-75602857D02*
X135547142Y-74402857D01*
X135090000Y-74402857D01*
X134975714Y-74460000D01*
X134918571Y-74517142D01*
X134861428Y-74631428D01*
X134861428Y-74802857D01*
X134918571Y-74917142D01*
X134975714Y-74974285D01*
X135090000Y-75031428D01*
X135547142Y-75031428D01*
X134404285Y-75260000D02*
X133832857Y-75260000D01*
X134518571Y-75602857D02*
X134118571Y-74402857D01*
X133718571Y-75602857D01*
X133318571Y-75602857D02*
X133318571Y-74402857D01*
X132918571Y-75260000D01*
X132518571Y-74402857D01*
X132518571Y-75602857D01*
D10*
X147952500Y-80992857D02*
X147952500Y-81964285D01*
X148009642Y-82078571D01*
X148066785Y-82135714D01*
X148181071Y-82192857D01*
X148352500Y-82192857D01*
X148466785Y-82135714D01*
X147952500Y-81735714D02*
X148066785Y-81792857D01*
X148295357Y-81792857D01*
X148409642Y-81735714D01*
X148466785Y-81678571D01*
X148523928Y-81564285D01*
X148523928Y-81221428D01*
X148466785Y-81107142D01*
X148409642Y-81050000D01*
X148295357Y-80992857D01*
X148066785Y-80992857D01*
X147952500Y-81050000D01*
X147381071Y-81792857D02*
X147381071Y-80992857D01*
X147381071Y-80592857D02*
X147438214Y-80650000D01*
X147381071Y-80707142D01*
X147323928Y-80650000D01*
X147381071Y-80592857D01*
X147381071Y-80707142D01*
X146981071Y-80992857D02*
X146523928Y-80992857D01*
X146809642Y-80592857D02*
X146809642Y-81621428D01*
X146752500Y-81735714D01*
X146638214Y-81792857D01*
X146523928Y-81792857D01*
X146123928Y-81792857D02*
X146123928Y-80592857D01*
X145609642Y-81792857D02*
X145609642Y-81164285D01*
X145666785Y-81050000D01*
X145781071Y-80992857D01*
X145952500Y-80992857D01*
X146066785Y-81050000D01*
X146123928Y-81107142D01*
X144523928Y-80992857D02*
X144523928Y-81792857D01*
X145038214Y-80992857D02*
X145038214Y-81621428D01*
X144981071Y-81735714D01*
X144866785Y-81792857D01*
X144695357Y-81792857D01*
X144581071Y-81735714D01*
X144523928Y-81678571D01*
X143952500Y-81792857D02*
X143952500Y-80592857D01*
X143952500Y-81050000D02*
X143838214Y-80992857D01*
X143609642Y-80992857D01*
X143495357Y-81050000D01*
X143438214Y-81107142D01*
X143381071Y-81221428D01*
X143381071Y-81564285D01*
X143438214Y-81678571D01*
X143495357Y-81735714D01*
X143609642Y-81792857D01*
X143838214Y-81792857D01*
X143952500Y-81735714D01*
X142866785Y-81678571D02*
X142809642Y-81735714D01*
X142866785Y-81792857D01*
X142923928Y-81735714D01*
X142866785Y-81678571D01*
X142866785Y-81792857D01*
X141781071Y-81735714D02*
X141895357Y-81792857D01*
X142123928Y-81792857D01*
X142238214Y-81735714D01*
X142295357Y-81678571D01*
X142352500Y-81564285D01*
X142352500Y-81221428D01*
X142295357Y-81107142D01*
X142238214Y-81050000D01*
X142123928Y-80992857D01*
X141895357Y-80992857D01*
X141781071Y-81050000D01*
X141095357Y-81792857D02*
X141209642Y-81735714D01*
X141266785Y-81678571D01*
X141323928Y-81564285D01*
X141323928Y-81221428D01*
X141266785Y-81107142D01*
X141209642Y-81050000D01*
X141095357Y-80992857D01*
X140923928Y-80992857D01*
X140809642Y-81050000D01*
X140752500Y-81107142D01*
X140695357Y-81221428D01*
X140695357Y-81564285D01*
X140752500Y-81678571D01*
X140809642Y-81735714D01*
X140923928Y-81792857D01*
X141095357Y-81792857D01*
X140181071Y-81792857D02*
X140181071Y-80992857D01*
X140181071Y-81107142D02*
X140123928Y-81050000D01*
X140009642Y-80992857D01*
X139838214Y-80992857D01*
X139723928Y-81050000D01*
X139666785Y-81164285D01*
X139666785Y-81792857D01*
X139666785Y-81164285D02*
X139609642Y-81050000D01*
X139495357Y-80992857D01*
X139323928Y-80992857D01*
X139209642Y-81050000D01*
X139152500Y-81164285D01*
X139152500Y-81792857D01*
X137723928Y-80535714D02*
X138752500Y-82078571D01*
X137381071Y-81735714D02*
X137266785Y-81792857D01*
X137038214Y-81792857D01*
X136923928Y-81735714D01*
X136866785Y-81621428D01*
X136866785Y-81564285D01*
X136923928Y-81450000D01*
X137038214Y-81392857D01*
X137209642Y-81392857D01*
X137323928Y-81335714D01*
X137381071Y-81221428D01*
X137381071Y-81164285D01*
X137323928Y-81050000D01*
X137209642Y-80992857D01*
X137038214Y-80992857D01*
X136923928Y-81050000D01*
X136523928Y-80992857D02*
X136066785Y-80992857D01*
X136352500Y-80592857D02*
X136352500Y-81621428D01*
X136295357Y-81735714D01*
X136181071Y-81792857D01*
X136066785Y-81792857D01*
X135152500Y-80992857D02*
X135152500Y-81792857D01*
X135666785Y-80992857D02*
X135666785Y-81621428D01*
X135609642Y-81735714D01*
X135495357Y-81792857D01*
X135323928Y-81792857D01*
X135209642Y-81735714D01*
X135152500Y-81678571D01*
X134066785Y-81792857D02*
X134066785Y-81164285D01*
X134123928Y-81050000D01*
X134238214Y-80992857D01*
X134466785Y-80992857D01*
X134581071Y-81050000D01*
X134066785Y-81735714D02*
X134181071Y-81792857D01*
X134466785Y-81792857D01*
X134581071Y-81735714D01*
X134638214Y-81621428D01*
X134638214Y-81507142D01*
X134581071Y-81392857D01*
X134466785Y-81335714D01*
X134181071Y-81335714D01*
X134066785Y-81278571D01*
X133495357Y-81792857D02*
X133495357Y-80992857D01*
X133495357Y-81221428D02*
X133438214Y-81107142D01*
X133381071Y-81050000D01*
X133266785Y-80992857D01*
X133152499Y-80992857D01*
X132923928Y-80992857D02*
X132466785Y-80992857D01*
X132752499Y-80592857D02*
X132752499Y-81621428D01*
X132695357Y-81735714D01*
X132581071Y-81792857D01*
X132466785Y-81792857D01*
X132066785Y-80992857D02*
X132066785Y-82192857D01*
X132066785Y-81050000D02*
X131952499Y-80992857D01*
X131723928Y-80992857D01*
X131609642Y-81050000D01*
X131552499Y-81107142D01*
X131495357Y-81221428D01*
X131495357Y-81564285D01*
X131552499Y-81678571D01*
X131609642Y-81735714D01*
X131723928Y-81792857D01*
X131952499Y-81792857D01*
X132066785Y-81735714D01*
X130981071Y-81792857D02*
X130981071Y-80992857D01*
X130981071Y-80592857D02*
X131038214Y-80650000D01*
X130981071Y-80707142D01*
X130923928Y-80650000D01*
X130981071Y-80592857D01*
X130981071Y-80707142D01*
X130581071Y-80992857D02*
X130123928Y-80992857D01*
X130409642Y-80592857D02*
X130409642Y-81621428D01*
X130352499Y-81735714D01*
X130238214Y-81792857D01*
X130123928Y-81792857D01*
X129895357Y-80992857D02*
X129438214Y-80992857D01*
X129723928Y-80592857D02*
X129723928Y-81621428D01*
X129666785Y-81735714D01*
X129552499Y-81792857D01*
X129438214Y-81792857D01*
X128523928Y-81792857D02*
X128523928Y-81164285D01*
X128581071Y-81050000D01*
X128695357Y-80992857D01*
X128923928Y-80992857D01*
X129038214Y-81050000D01*
X128523928Y-81735714D02*
X128638214Y-81792857D01*
X128923928Y-81792857D01*
X129038214Y-81735714D01*
X129095357Y-81621428D01*
X129095357Y-81507142D01*
X129038214Y-81392857D01*
X128923928Y-81335714D01*
X128638214Y-81335714D01*
X128523928Y-81278571D01*
X128066785Y-80992857D02*
X127838214Y-81792857D01*
X127609642Y-81221428D01*
X127381071Y-81792857D01*
X127152499Y-80992857D01*
X126181071Y-81792857D02*
X126181071Y-81164285D01*
X126238214Y-81050000D01*
X126352499Y-80992857D01*
X126581071Y-80992857D01*
X126695357Y-81050000D01*
X126181071Y-81735714D02*
X126295357Y-81792857D01*
X126581071Y-81792857D01*
X126695357Y-81735714D01*
X126752499Y-81621428D01*
X126752499Y-81507142D01*
X126695357Y-81392857D01*
X126581071Y-81335714D01*
X126295357Y-81335714D01*
X126181071Y-81278571D01*
X125723928Y-80992857D02*
X125438214Y-81792857D01*
X125152499Y-80992857D02*
X125438214Y-81792857D01*
X125552499Y-82078571D01*
X125609642Y-82135714D01*
X125723928Y-82192857D01*
X123838214Y-80535714D02*
X124866785Y-82078571D01*
X122923928Y-81792857D02*
X122923928Y-80592857D01*
X122923928Y-81735714D02*
X123038214Y-81792857D01*
X123266785Y-81792857D01*
X123381071Y-81735714D01*
X123438214Y-81678571D01*
X123495357Y-81564285D01*
X123495357Y-81221428D01*
X123438214Y-81107142D01*
X123381071Y-81050000D01*
X123266785Y-80992857D01*
X123038214Y-80992857D01*
X122923928Y-81050000D01*
X122352499Y-81792857D02*
X122352499Y-80992857D01*
X122352499Y-80592857D02*
X122409642Y-80650000D01*
X122352499Y-80707142D01*
X122295357Y-80650000D01*
X122352499Y-80592857D01*
X122352499Y-80707142D01*
X121895357Y-80992857D02*
X121609642Y-81792857D01*
X121323928Y-80992857D02*
X121609642Y-81792857D01*
X121723928Y-82078571D01*
X121781071Y-82135714D01*
X121895357Y-82192857D01*
X120466785Y-81164285D02*
X120295357Y-81221428D01*
X120238214Y-81278571D01*
X120181071Y-81392857D01*
X120181071Y-81564285D01*
X120238214Y-81678571D01*
X120295357Y-81735714D01*
X120409642Y-81792857D01*
X120866785Y-81792857D01*
X120866785Y-80592857D01*
X120466785Y-80592857D01*
X120352499Y-80650000D01*
X120295357Y-80707142D01*
X120238214Y-80821428D01*
X120238214Y-80935714D01*
X120295357Y-81050000D01*
X120352499Y-81107142D01*
X120466785Y-81164285D01*
X120866785Y-81164285D01*
X119666785Y-81792857D02*
X119666785Y-80592857D01*
X119266785Y-81450000D01*
X118866785Y-80592857D01*
X118866785Y-81792857D01*
X118352499Y-81735714D02*
X118181071Y-81792857D01*
X117895357Y-81792857D01*
X117781071Y-81735714D01*
X117723928Y-81678571D01*
X117666785Y-81564285D01*
X117666785Y-81450000D01*
X117723928Y-81335714D01*
X117781071Y-81278571D01*
X117895357Y-81221428D01*
X118123928Y-81164285D01*
X118238214Y-81107142D01*
X118295357Y-81050000D01*
X118352499Y-80935714D01*
X118352499Y-80821428D01*
X118295357Y-80707142D01*
X118238214Y-80650000D01*
X118123928Y-80592857D01*
X117838214Y-80592857D01*
X117666785Y-80650000D01*
X147781071Y-83742857D02*
X148181071Y-83171428D01*
X148466785Y-83742857D02*
X148466785Y-82542857D01*
X148009642Y-82542857D01*
X147895357Y-82600000D01*
X147838214Y-82657142D01*
X147781071Y-82771428D01*
X147781071Y-82942857D01*
X147838214Y-83057142D01*
X147895357Y-83114285D01*
X148009642Y-83171428D01*
X148466785Y-83171428D01*
X146809642Y-83685714D02*
X146923928Y-83742857D01*
X147152500Y-83742857D01*
X147266785Y-83685714D01*
X147323928Y-83571428D01*
X147323928Y-83114285D01*
X147266785Y-83000000D01*
X147152500Y-82942857D01*
X146923928Y-82942857D01*
X146809642Y-83000000D01*
X146752500Y-83114285D01*
X146752500Y-83228571D01*
X147323928Y-83342857D01*
X145723928Y-83742857D02*
X145723928Y-82542857D01*
X145723928Y-83685714D02*
X145838214Y-83742857D01*
X146066785Y-83742857D01*
X146181071Y-83685714D01*
X146238214Y-83628571D01*
X146295357Y-83514285D01*
X146295357Y-83171428D01*
X146238214Y-83057142D01*
X146181071Y-83000000D01*
X146066785Y-82942857D01*
X145838214Y-82942857D01*
X145723928Y-83000000D01*
X144695357Y-83685714D02*
X144809642Y-83742857D01*
X145038214Y-83742857D01*
X145152500Y-83685714D01*
X145209642Y-83571428D01*
X145209642Y-83114285D01*
X145152500Y-83000000D01*
X145038214Y-82942857D01*
X144809642Y-82942857D01*
X144695357Y-83000000D01*
X144638214Y-83114285D01*
X144638214Y-83228571D01*
X145209642Y-83342857D01*
X144181071Y-83685714D02*
X144066785Y-83742857D01*
X143838214Y-83742857D01*
X143723928Y-83685714D01*
X143666785Y-83571428D01*
X143666785Y-83514285D01*
X143723928Y-83400000D01*
X143838214Y-83342857D01*
X144009642Y-83342857D01*
X144123928Y-83285714D01*
X144181071Y-83171428D01*
X144181071Y-83114285D01*
X144123928Y-83000000D01*
X144009642Y-82942857D01*
X143838214Y-82942857D01*
X143723928Y-83000000D01*
X143152500Y-83742857D02*
X143152500Y-82942857D01*
X143152500Y-82542857D02*
X143209642Y-82600000D01*
X143152500Y-82657142D01*
X143095357Y-82600000D01*
X143152500Y-82542857D01*
X143152500Y-82657142D01*
X142066785Y-82942857D02*
X142066785Y-83914285D01*
X142123928Y-84028571D01*
X142181071Y-84085714D01*
X142295357Y-84142857D01*
X142466785Y-84142857D01*
X142581071Y-84085714D01*
X142066785Y-83685714D02*
X142181071Y-83742857D01*
X142409642Y-83742857D01*
X142523928Y-83685714D01*
X142581071Y-83628571D01*
X142638214Y-83514285D01*
X142638214Y-83171428D01*
X142581071Y-83057142D01*
X142523928Y-83000000D01*
X142409642Y-82942857D01*
X142181071Y-82942857D01*
X142066785Y-83000000D01*
X141495357Y-82942857D02*
X141495357Y-83742857D01*
X141495357Y-83057142D02*
X141438214Y-83000000D01*
X141323928Y-82942857D01*
X141152500Y-82942857D01*
X141038214Y-83000000D01*
X140981071Y-83114285D01*
X140981071Y-83742857D01*
X139952500Y-83685714D02*
X140066785Y-83742857D01*
X140295357Y-83742857D01*
X140409642Y-83685714D01*
X140466785Y-83571428D01*
X140466785Y-83114285D01*
X140409642Y-83000000D01*
X140295357Y-82942857D01*
X140066785Y-82942857D01*
X139952500Y-83000000D01*
X139895357Y-83114285D01*
X139895357Y-83228571D01*
X140466785Y-83342857D01*
X138866785Y-83742857D02*
X138866785Y-82542857D01*
X138866785Y-83685714D02*
X138981071Y-83742857D01*
X139209642Y-83742857D01*
X139323928Y-83685714D01*
X139381071Y-83628571D01*
X139438214Y-83514285D01*
X139438214Y-83171428D01*
X139381071Y-83057142D01*
X139323928Y-83000000D01*
X139209642Y-82942857D01*
X138981071Y-82942857D01*
X138866785Y-83000000D01*
X137381071Y-83742857D02*
X137381071Y-82542857D01*
X136923928Y-82542857D01*
X136809642Y-82600000D01*
X136752500Y-82657142D01*
X136695357Y-82771428D01*
X136695357Y-82942857D01*
X136752500Y-83057142D01*
X136809642Y-83114285D01*
X136923928Y-83171428D01*
X137381071Y-83171428D01*
X135495357Y-83628571D02*
X135552500Y-83685714D01*
X135723928Y-83742857D01*
X135838214Y-83742857D01*
X136009642Y-83685714D01*
X136123928Y-83571428D01*
X136181071Y-83457142D01*
X136238214Y-83228571D01*
X136238214Y-83057142D01*
X136181071Y-82828571D01*
X136123928Y-82714285D01*
X136009642Y-82600000D01*
X135838214Y-82542857D01*
X135723928Y-82542857D01*
X135552500Y-82600000D01*
X135495357Y-82657142D01*
X134581071Y-83114285D02*
X134409642Y-83171428D01*
X134352500Y-83228571D01*
X134295357Y-83342857D01*
X134295357Y-83514285D01*
X134352500Y-83628571D01*
X134409642Y-83685714D01*
X134523928Y-83742857D01*
X134981071Y-83742857D01*
X134981071Y-82542857D01*
X134581071Y-82542857D01*
X134466785Y-82600000D01*
X134409642Y-82657142D01*
X134352500Y-82771428D01*
X134352500Y-82885714D01*
X134409642Y-83000000D01*
X134466785Y-83057142D01*
X134581071Y-83114285D01*
X134981071Y-83114285D01*
X132866785Y-83742857D02*
X132866785Y-82542857D01*
X132866785Y-83000000D02*
X132752499Y-82942857D01*
X132523928Y-82942857D01*
X132409642Y-83000000D01*
X132352499Y-83057142D01*
X132295357Y-83171428D01*
X132295357Y-83514285D01*
X132352499Y-83628571D01*
X132409642Y-83685714D01*
X132523928Y-83742857D01*
X132752499Y-83742857D01*
X132866785Y-83685714D01*
X131895357Y-82942857D02*
X131609642Y-83742857D01*
X131323928Y-82942857D02*
X131609642Y-83742857D01*
X131723928Y-84028571D01*
X131781071Y-84085714D01*
X131895357Y-84142857D01*
X129952499Y-83742857D02*
X129952499Y-82542857D01*
X129266785Y-83742857D01*
X129266785Y-82542857D01*
X128695357Y-83742857D02*
X128695357Y-82942857D01*
X128695357Y-82542857D02*
X128752499Y-82600000D01*
X128695357Y-82657142D01*
X128638214Y-82600000D01*
X128695357Y-82542857D01*
X128695357Y-82657142D01*
X127609642Y-83685714D02*
X127723928Y-83742857D01*
X127952499Y-83742857D01*
X128066785Y-83685714D01*
X128123928Y-83628571D01*
X128181071Y-83514285D01*
X128181071Y-83171428D01*
X128123928Y-83057142D01*
X128066785Y-83000000D01*
X127952499Y-82942857D01*
X127723928Y-82942857D01*
X127609642Y-83000000D01*
X127095357Y-83742857D02*
X127095357Y-82542857D01*
X126981071Y-83285714D02*
X126638214Y-83742857D01*
X126638214Y-82942857D02*
X127095357Y-83400000D01*
X125266785Y-83685714D02*
X125095357Y-83742857D01*
X124809642Y-83742857D01*
X124695357Y-83685714D01*
X124638214Y-83628571D01*
X124581071Y-83514285D01*
X124581071Y-83400000D01*
X124638214Y-83285714D01*
X124695357Y-83228571D01*
X124809642Y-83171428D01*
X125038214Y-83114285D01*
X125152499Y-83057142D01*
X125209642Y-83000000D01*
X125266785Y-82885714D01*
X125266785Y-82771428D01*
X125209642Y-82657142D01*
X125152499Y-82600000D01*
X125038214Y-82542857D01*
X124752499Y-82542857D01*
X124581071Y-82600000D01*
X124066785Y-83742857D02*
X124066785Y-82942857D01*
X124066785Y-83057142D02*
X124009642Y-83000000D01*
X123895357Y-82942857D01*
X123723928Y-82942857D01*
X123609642Y-83000000D01*
X123552499Y-83114285D01*
X123552499Y-83742857D01*
X123552499Y-83114285D02*
X123495357Y-83000000D01*
X123381071Y-82942857D01*
X123209642Y-82942857D01*
X123095357Y-83000000D01*
X123038214Y-83114285D01*
X123038214Y-83742857D01*
X122466785Y-83742857D02*
X122466785Y-82942857D01*
X122466785Y-82542857D02*
X122523928Y-82600000D01*
X122466785Y-82657142D01*
X122409642Y-82600000D01*
X122466785Y-82542857D01*
X122466785Y-82657142D01*
X122066785Y-82942857D02*
X121609642Y-82942857D01*
X121895357Y-82542857D02*
X121895357Y-83571428D01*
X121838214Y-83685714D01*
X121723928Y-83742857D01*
X121609642Y-83742857D01*
X121209642Y-83742857D02*
X121209642Y-82542857D01*
X120695357Y-83742857D02*
X120695357Y-83114285D01*
X120752499Y-83000000D01*
X120866785Y-82942857D01*
X121038214Y-82942857D01*
X121152499Y-83000000D01*
X121209642Y-83057142D01*
X147495357Y-84778571D02*
X147609642Y-84721428D01*
X147838214Y-84721428D01*
X147952500Y-84778571D01*
X148066785Y-84892857D01*
X148123928Y-85007142D01*
X148123928Y-85235714D01*
X148066785Y-85350000D01*
X147952500Y-85464285D01*
X147838214Y-85521428D01*
X147609642Y-85521428D01*
X147495357Y-85464285D01*
X147723928Y-84321428D02*
X148009642Y-84378571D01*
X148295357Y-84550000D01*
X148466785Y-84835714D01*
X148523928Y-85121428D01*
X148466785Y-85407142D01*
X148295357Y-85692857D01*
X148009642Y-85864285D01*
X147723928Y-85921428D01*
X147438214Y-85864285D01*
X147152500Y-85692857D01*
X146981071Y-85407142D01*
X146923928Y-85121428D01*
X146981071Y-84835714D01*
X147152500Y-84550000D01*
X147438214Y-84378571D01*
X147723928Y-84321428D01*
X145552500Y-84607142D02*
X145495357Y-84550000D01*
X145381071Y-84492857D01*
X145095357Y-84492857D01*
X144981071Y-84550000D01*
X144923928Y-84607142D01*
X144866785Y-84721428D01*
X144866785Y-84835714D01*
X144923928Y-85007142D01*
X145609642Y-85692857D01*
X144866785Y-85692857D01*
X144123928Y-84492857D02*
X144009642Y-84492857D01*
X143895357Y-84550000D01*
X143838214Y-84607142D01*
X143781071Y-84721428D01*
X143723928Y-84950000D01*
X143723928Y-85235714D01*
X143781071Y-85464285D01*
X143838214Y-85578571D01*
X143895357Y-85635714D01*
X144009642Y-85692857D01*
X144123928Y-85692857D01*
X144238214Y-85635714D01*
X144295357Y-85578571D01*
X144352500Y-85464285D01*
X144409642Y-85235714D01*
X144409642Y-84950000D01*
X144352500Y-84721428D01*
X144295357Y-84607142D01*
X144238214Y-84550000D01*
X144123928Y-84492857D01*
X142581071Y-85692857D02*
X143266785Y-85692857D01*
X142923928Y-85692857D02*
X142923928Y-84492857D01*
X143038214Y-84664285D01*
X143152500Y-84778571D01*
X143266785Y-84835714D01*
X142181071Y-84492857D02*
X141381071Y-84492857D01*
X141895357Y-85692857D01*
X140923928Y-85235714D02*
X140009642Y-85235714D01*
X138809642Y-85692857D02*
X139495357Y-85692857D01*
X139152500Y-85692857D02*
X139152500Y-84492857D01*
X139266785Y-84664285D01*
X139381071Y-84778571D01*
X139495357Y-84835714D01*
X138238214Y-85692857D02*
X138009642Y-85692857D01*
X137895357Y-85635714D01*
X137838214Y-85578571D01*
X137723928Y-85407142D01*
X137666785Y-85178571D01*
X137666785Y-84721428D01*
X137723928Y-84607142D01*
X137781071Y-84550000D01*
X137895357Y-84492857D01*
X138123928Y-84492857D01*
X138238214Y-84550000D01*
X138295357Y-84607142D01*
X138352500Y-84721428D01*
X138352500Y-85007142D01*
X138295357Y-85121428D01*
X138238214Y-85178571D01*
X138123928Y-85235714D01*
X137895357Y-85235714D01*
X137781071Y-85178571D01*
X137723928Y-85121428D01*
X137666785Y-85007142D01*
X136295357Y-85635714D02*
X136123928Y-85692857D01*
X135838214Y-85692857D01*
X135723928Y-85635714D01*
X135666785Y-85578571D01*
X135609642Y-85464285D01*
X135609642Y-85350000D01*
X135666785Y-85235714D01*
X135723928Y-85178571D01*
X135838214Y-85121428D01*
X136066785Y-85064285D01*
X136181071Y-85007142D01*
X136238214Y-84950000D01*
X136295357Y-84835714D01*
X136295357Y-84721428D01*
X136238214Y-84607142D01*
X136181071Y-84550000D01*
X136066785Y-84492857D01*
X135781071Y-84492857D01*
X135609642Y-84550000D01*
X135266785Y-84892857D02*
X134809642Y-84892857D01*
X135095357Y-84492857D02*
X135095357Y-85521428D01*
X135038214Y-85635714D01*
X134923928Y-85692857D01*
X134809642Y-85692857D01*
X133895357Y-84892857D02*
X133895357Y-85692857D01*
X134409642Y-84892857D02*
X134409642Y-85521428D01*
X134352500Y-85635714D01*
X134238214Y-85692857D01*
X134066785Y-85692857D01*
X133952500Y-85635714D01*
X133895357Y-85578571D01*
X132809642Y-85692857D02*
X132809642Y-85064285D01*
X132866785Y-84950000D01*
X132981071Y-84892857D01*
X133209642Y-84892857D01*
X133323928Y-84950000D01*
X132809642Y-85635714D02*
X132923928Y-85692857D01*
X133209642Y-85692857D01*
X133323928Y-85635714D01*
X133381071Y-85521428D01*
X133381071Y-85407142D01*
X133323928Y-85292857D01*
X133209642Y-85235714D01*
X132923928Y-85235714D01*
X132809642Y-85178571D01*
X132238214Y-85692857D02*
X132238214Y-84892857D01*
X132238214Y-85121428D02*
X132181071Y-85007142D01*
X132123928Y-84950000D01*
X132009642Y-84892857D01*
X131895357Y-84892857D01*
X131666785Y-84892857D02*
X131209642Y-84892857D01*
X131495357Y-84492857D02*
X131495357Y-85521428D01*
X131438214Y-85635714D01*
X131323928Y-85692857D01*
X131209642Y-85692857D01*
X129895357Y-85692857D02*
X129895357Y-84492857D01*
X129438214Y-84492857D01*
X129323928Y-84550000D01*
X129266785Y-84607142D01*
X129209642Y-84721428D01*
X129209642Y-84892857D01*
X129266785Y-85007142D01*
X129323928Y-85064285D01*
X129438214Y-85121428D01*
X129895357Y-85121428D01*
X128695357Y-85692857D02*
X128695357Y-84892857D01*
X128695357Y-84492857D02*
X128752500Y-84550000D01*
X128695357Y-84607142D01*
X128638214Y-84550000D01*
X128695357Y-84492857D01*
X128695357Y-84607142D01*
X128295357Y-84892857D02*
X127838214Y-84892857D01*
X128123928Y-84492857D02*
X128123928Y-85521428D01*
X128066785Y-85635714D01*
X127952500Y-85692857D01*
X127838214Y-85692857D01*
X127609642Y-84892857D02*
X127152500Y-84892857D01*
X127438214Y-84492857D02*
X127438214Y-85521428D01*
X127381071Y-85635714D01*
X127266785Y-85692857D01*
X127152500Y-85692857D01*
X126238214Y-85692857D02*
X126238214Y-85064285D01*
X126295357Y-84950000D01*
X126409642Y-84892857D01*
X126638214Y-84892857D01*
X126752500Y-84950000D01*
X126238214Y-85635714D02*
X126352500Y-85692857D01*
X126638214Y-85692857D01*
X126752500Y-85635714D01*
X126809642Y-85521428D01*
X126809642Y-85407142D01*
X126752500Y-85292857D01*
X126638214Y-85235714D01*
X126352500Y-85235714D01*
X126238214Y-85178571D01*
X125781071Y-84892857D02*
X125552500Y-85692857D01*
X125323928Y-85121428D01*
X125095357Y-85692857D01*
X124866785Y-84892857D01*
X123895357Y-85692857D02*
X123895357Y-85064285D01*
X123952500Y-84950000D01*
X124066785Y-84892857D01*
X124295357Y-84892857D01*
X124409642Y-84950000D01*
X123895357Y-85635714D02*
X124009642Y-85692857D01*
X124295357Y-85692857D01*
X124409642Y-85635714D01*
X124466785Y-85521428D01*
X124466785Y-85407142D01*
X124409642Y-85292857D01*
X124295357Y-85235714D01*
X124009642Y-85235714D01*
X123895357Y-85178571D01*
X123438214Y-84892857D02*
X123152500Y-85692857D01*
X122866785Y-84892857D02*
X123152500Y-85692857D01*
X123266785Y-85978571D01*
X123323928Y-86035714D01*
X123438214Y-86092857D01*
X164751428Y-84602380D02*
X164418095Y-85602380D01*
X164084761Y-84602380D01*
X163846666Y-84602380D02*
X163227619Y-84602380D01*
X163560952Y-84983333D01*
X163418095Y-84983333D01*
X163322857Y-85030952D01*
X163275238Y-85078571D01*
X163227619Y-85173809D01*
X163227619Y-85411904D01*
X163275238Y-85507142D01*
X163322857Y-85554761D01*
X163418095Y-85602380D01*
X163703809Y-85602380D01*
X163799047Y-85554761D01*
X163846666Y-85507142D01*
X162799047Y-85507142D02*
X162751428Y-85554761D01*
X162799047Y-85602380D01*
X162846666Y-85554761D01*
X162799047Y-85507142D01*
X162799047Y-85602380D01*
X162132380Y-84602380D02*
X162037142Y-84602380D01*
X161941904Y-84650000D01*
X161894285Y-84697619D01*
X161846666Y-84792857D01*
X161799047Y-84983333D01*
X161799047Y-85221428D01*
X161846666Y-85411904D01*
X161894285Y-85507142D01*
X161941904Y-85554761D01*
X162037142Y-85602380D01*
X162132380Y-85602380D01*
X162227619Y-85554761D01*
X162275238Y-85507142D01*
X162322857Y-85411904D01*
X162370476Y-85221428D01*
X162370476Y-84983333D01*
X162322857Y-84792857D01*
X162275238Y-84697619D01*
X162227619Y-84650000D01*
X162132380Y-84602380D01*
X160322857Y-85983333D02*
X160370476Y-85935714D01*
X160465714Y-85792857D01*
X160513333Y-85697619D01*
X160560952Y-85554761D01*
X160608571Y-85316666D01*
X160608571Y-85126190D01*
X160560952Y-84888095D01*
X160513333Y-84745238D01*
X160465714Y-84650000D01*
X160370476Y-84507142D01*
X160322857Y-84459523D01*
X159656190Y-84602380D02*
X159656190Y-85316666D01*
X159703809Y-85459523D01*
X159799047Y-85554761D01*
X159941904Y-85602380D01*
X160037142Y-85602380D01*
X158751428Y-84935714D02*
X158751428Y-85602380D01*
X159180000Y-84935714D02*
X159180000Y-85459523D01*
X159132380Y-85554761D01*
X159037142Y-85602380D01*
X158894285Y-85602380D01*
X158799047Y-85554761D01*
X158751428Y-85507142D01*
X158275238Y-84935714D02*
X158275238Y-85602380D01*
X158275238Y-85030952D02*
X158227619Y-84983333D01*
X158132380Y-84935714D01*
X157989523Y-84935714D01*
X157894285Y-84983333D01*
X157846666Y-85078571D01*
X157846666Y-85602380D01*
X156989523Y-85554761D02*
X157084761Y-85602380D01*
X157275238Y-85602380D01*
X157370476Y-85554761D01*
X157418095Y-85459523D01*
X157418095Y-85078571D01*
X157370476Y-84983333D01*
X157275238Y-84935714D01*
X157084761Y-84935714D01*
X156989523Y-84983333D01*
X156941904Y-85078571D01*
X156941904Y-85173809D01*
X157418095Y-85269047D01*
X155799047Y-84697619D02*
X155751428Y-84650000D01*
X155656190Y-84602380D01*
X155418095Y-84602380D01*
X155322857Y-84650000D01*
X155275238Y-84697619D01*
X155227619Y-84792857D01*
X155227619Y-84888095D01*
X155275238Y-85030952D01*
X155846666Y-85602380D01*
X155227619Y-85602380D01*
X154608571Y-84602380D02*
X154513333Y-84602380D01*
X154418095Y-84650000D01*
X154370476Y-84697619D01*
X154322857Y-84792857D01*
X154275238Y-84983333D01*
X154275238Y-85221428D01*
X154322857Y-85411904D01*
X154370476Y-85507142D01*
X154418095Y-85554761D01*
X154513333Y-85602380D01*
X154608571Y-85602380D01*
X154703809Y-85554761D01*
X154751428Y-85507142D01*
X154799047Y-85411904D01*
X154846666Y-85221428D01*
X154846666Y-84983333D01*
X154799047Y-84792857D01*
X154751428Y-84697619D01*
X154703809Y-84650000D01*
X154608571Y-84602380D01*
X153322857Y-85602380D02*
X153894285Y-85602380D01*
X153608571Y-85602380D02*
X153608571Y-84602380D01*
X153703809Y-84745238D01*
X153799047Y-84840476D01*
X153894285Y-84888095D01*
X152846666Y-85602380D02*
X152656190Y-85602380D01*
X152560952Y-85554761D01*
X152513333Y-85507142D01*
X152418095Y-85364285D01*
X152370476Y-85173809D01*
X152370476Y-84792857D01*
X152418095Y-84697619D01*
X152465714Y-84650000D01*
X152560952Y-84602380D01*
X152751428Y-84602380D01*
X152846666Y-84650000D01*
X152894285Y-84697619D01*
X152941904Y-84792857D01*
X152941904Y-85030952D01*
X152894285Y-85126190D01*
X152846666Y-85173809D01*
X152751428Y-85221428D01*
X152560952Y-85221428D01*
X152465714Y-85173809D01*
X152418095Y-85126190D01*
X152370476Y-85030952D01*
X152037142Y-85983333D02*
X151989523Y-85935714D01*
X151894285Y-85792857D01*
X151846666Y-85697619D01*
X151799047Y-85554761D01*
X151751428Y-85316666D01*
X151751428Y-85126190D01*
X151799047Y-84888095D01*
X151846666Y-84745238D01*
X151894285Y-84650000D01*
X151989523Y-84507142D01*
X152037142Y-84459523D01*
D13*
X163080952Y-83230952D02*
X163080952Y-80730952D01*
X163080952Y-83111904D02*
X163319047Y-83230952D01*
X163795238Y-83230952D01*
X164033333Y-83111904D01*
X164152380Y-82992857D01*
X164271428Y-82754761D01*
X164271428Y-82040476D01*
X164152380Y-81802380D01*
X164033333Y-81683333D01*
X163795238Y-81564285D01*
X163319047Y-81564285D01*
X163080952Y-81683333D01*
X161890476Y-83230952D02*
X161890476Y-81564285D01*
X161890476Y-80730952D02*
X162009523Y-80850000D01*
X161890476Y-80969047D01*
X161771428Y-80850000D01*
X161890476Y-80730952D01*
X161890476Y-80969047D01*
X160938095Y-81564285D02*
X160342857Y-83230952D01*
X159747619Y-81564285D02*
X160342857Y-83230952D01*
X160580952Y-83826190D01*
X160700000Y-83945238D01*
X160938095Y-84064285D01*
X157961904Y-81921428D02*
X157604761Y-82040476D01*
X157485714Y-82159523D01*
X157366666Y-82397619D01*
X157366666Y-82754761D01*
X157485714Y-82992857D01*
X157604761Y-83111904D01*
X157842857Y-83230952D01*
X158795238Y-83230952D01*
X158795238Y-80730952D01*
X157961904Y-80730952D01*
X157723809Y-80850000D01*
X157604761Y-80969047D01*
X157485714Y-81207142D01*
X157485714Y-81445238D01*
X157604761Y-81683333D01*
X157723809Y-81802380D01*
X157961904Y-81921428D01*
X158795238Y-81921428D01*
X156295238Y-83230952D02*
X156295238Y-80730952D01*
X155461904Y-82516666D01*
X154628571Y-80730952D01*
X154628571Y-83230952D01*
X153557142Y-83111904D02*
X153200000Y-83230952D01*
X152604761Y-83230952D01*
X152366666Y-83111904D01*
X152247619Y-82992857D01*
X152128571Y-82754761D01*
X152128571Y-82516666D01*
X152247619Y-82278571D01*
X152366666Y-82159523D01*
X152604761Y-82040476D01*
X153080952Y-81921428D01*
X153319047Y-81802380D01*
X153438095Y-81683333D01*
X153557142Y-81445238D01*
X153557142Y-81207142D01*
X153438095Y-80969047D01*
X153319047Y-80850000D01*
X153080952Y-80730952D01*
X152485714Y-80730952D01*
X152128571Y-80850000D01*
D12*
X170742857Y-97892857D02*
X170742857Y-96692857D01*
X170228571Y-96807142D02*
X170171428Y-96750000D01*
X170057142Y-96692857D01*
X169771428Y-96692857D01*
X169657142Y-96750000D01*
X169600000Y-96807142D01*
X169542857Y-96921428D01*
X169542857Y-97035714D01*
X169600000Y-97207142D01*
X170285714Y-97892857D01*
X169542857Y-97892857D01*
X168342857Y-97778571D02*
X168400000Y-97835714D01*
X168571428Y-97892857D01*
X168685714Y-97892857D01*
X168857142Y-97835714D01*
X168971428Y-97721428D01*
X169028571Y-97607142D01*
X169085714Y-97378571D01*
X169085714Y-97207142D01*
X169028571Y-96978571D01*
X168971428Y-96864285D01*
X168857142Y-96750000D01*
X168685714Y-96692857D01*
X168571428Y-96692857D01*
X168400000Y-96750000D01*
X168342857Y-96807142D01*
X166914285Y-97892857D02*
X166914285Y-96692857D01*
X166342857Y-97892857D02*
X166342857Y-96692857D01*
X165657142Y-97892857D01*
X165657142Y-96692857D01*
X158742857Y-97892857D02*
X158742857Y-96692857D01*
X158228571Y-96807142D02*
X158171428Y-96750000D01*
X158057142Y-96692857D01*
X157771428Y-96692857D01*
X157657142Y-96750000D01*
X157600000Y-96807142D01*
X157542857Y-96921428D01*
X157542857Y-97035714D01*
X157600000Y-97207142D01*
X158285714Y-97892857D01*
X157542857Y-97892857D01*
X156342857Y-97778571D02*
X156400000Y-97835714D01*
X156571428Y-97892857D01*
X156685714Y-97892857D01*
X156857142Y-97835714D01*
X156971428Y-97721428D01*
X157028571Y-97607142D01*
X157085714Y-97378571D01*
X157085714Y-97207142D01*
X157028571Y-96978571D01*
X156971428Y-96864285D01*
X156857142Y-96750000D01*
X156685714Y-96692857D01*
X156571428Y-96692857D01*
X156400000Y-96750000D01*
X156342857Y-96807142D01*
X154685714Y-96692857D02*
X154457142Y-96692857D01*
X154342857Y-96750000D01*
X154228571Y-96864285D01*
X154171428Y-97092857D01*
X154171428Y-97492857D01*
X154228571Y-97721428D01*
X154342857Y-97835714D01*
X154457142Y-97892857D01*
X154685714Y-97892857D01*
X154800000Y-97835714D01*
X154914285Y-97721428D01*
X154971428Y-97492857D01*
X154971428Y-97092857D01*
X154914285Y-96864285D01*
X154800000Y-96750000D01*
X154685714Y-96692857D01*
X153657142Y-96692857D02*
X153657142Y-97664285D01*
X153600000Y-97778571D01*
X153542857Y-97835714D01*
X153428571Y-97892857D01*
X153200000Y-97892857D01*
X153085714Y-97835714D01*
X153028571Y-97778571D01*
X152971428Y-97664285D01*
X152971428Y-96692857D01*
X152571428Y-96692857D02*
X151885714Y-96692857D01*
X152228571Y-97892857D02*
X152228571Y-96692857D01*
D14*
X124282142Y-92260714D02*
X123367857Y-92260714D01*
X123825000Y-92717857D02*
X123825000Y-91803571D01*
D11*
X118782142Y-92260714D02*
X117867857Y-92260714D01*
D12*
X122417857Y-94639285D02*
X122246428Y-94696428D01*
X122189285Y-94753571D01*
X122132142Y-94867857D01*
X122132142Y-95039285D01*
X122189285Y-95153571D01*
X122246428Y-95210714D01*
X122360714Y-95267857D01*
X122817857Y-95267857D01*
X122817857Y-94067857D01*
X122417857Y-94067857D01*
X122303571Y-94125000D01*
X122246428Y-94182142D01*
X122189285Y-94296428D01*
X122189285Y-94410714D01*
X122246428Y-94525000D01*
X122303571Y-94582142D01*
X122417857Y-94639285D01*
X122817857Y-94639285D01*
X121675000Y-94925000D02*
X121103571Y-94925000D01*
X121789285Y-95267857D02*
X121389285Y-94067857D01*
X120989285Y-95267857D01*
X120760714Y-94067857D02*
X120075000Y-94067857D01*
X120417857Y-95267857D02*
X120417857Y-94067857D01*
X119846428Y-94067857D02*
X119160714Y-94067857D01*
X119503571Y-95267857D02*
X119503571Y-94067857D01*
M02*
