G04 #@! TF.GenerationSoftware,KiCad,Pcbnew,(5.0.0)*
G04 #@! TF.CreationDate,2018-09-26T19:55:29+01:00*
G04 #@! TF.ProjectId,BMS_Cell_Module,424D535F43656C6C5F4D6F64756C652E,3.0*
G04 #@! TF.SameCoordinates,Original*
G04 #@! TF.FileFunction,Copper,L1,Top,Signal*
G04 #@! TF.FilePolarity,Positive*
%FSLAX46Y46*%
G04 Gerber Fmt 4.6, Leading zero omitted, Abs format (unit mm)*
G04 Created by KiCad (PCBNEW (5.0.0)) date 09/26/18 19:55:29*
%MOMM*%
%LPD*%
G01*
G04 APERTURE LIST*
G04 #@! TA.AperFunction,SMDPad,CuDef*
%ADD10R,3.400000X1.425000*%
G04 #@! TD*
G04 #@! TA.AperFunction,SMDPad,CuDef*
%ADD11R,1.400000X1.325000*%
G04 #@! TD*
G04 #@! TA.AperFunction,ComponentPad*
%ADD12O,2.400000X2.400000*%
G04 #@! TD*
G04 #@! TA.AperFunction,ComponentPad*
%ADD13C,2.400000*%
G04 #@! TD*
G04 #@! TA.AperFunction,ComponentPad*
%ADD14R,1.700000X1.700000*%
G04 #@! TD*
G04 #@! TA.AperFunction,ComponentPad*
%ADD15O,1.700000X1.700000*%
G04 #@! TD*
G04 #@! TA.AperFunction,SMDPad,CuDef*
%ADD16R,1.800000X2.400000*%
G04 #@! TD*
G04 #@! TA.AperFunction,SMDPad,CuDef*
%ADD17R,1.550000X0.600000*%
G04 #@! TD*
G04 #@! TA.AperFunction,SMDPad,CuDef*
%ADD18R,0.650000X1.700000*%
G04 #@! TD*
G04 #@! TA.AperFunction,SMDPad,CuDef*
%ADD19R,0.800000X0.900000*%
G04 #@! TD*
G04 #@! TA.AperFunction,BGAPad,CuDef*
%ADD20C,1.500000*%
G04 #@! TD*
G04 #@! TA.AperFunction,SMDPad,CuDef*
%ADD21R,1.325000X1.400000*%
G04 #@! TD*
G04 #@! TA.AperFunction,SMDPad,CuDef*
%ADD22R,1.400000X1.150000*%
G04 #@! TD*
G04 #@! TA.AperFunction,ComponentPad*
%ADD23R,1.200000X1.700000*%
G04 #@! TD*
G04 #@! TA.AperFunction,ComponentPad*
%ADD24O,1.200000X1.700000*%
G04 #@! TD*
G04 #@! TA.AperFunction,ComponentPad*
%ADD25C,1.400000*%
G04 #@! TD*
G04 #@! TA.AperFunction,ComponentPad*
%ADD26O,1.400000X1.400000*%
G04 #@! TD*
G04 #@! TA.AperFunction,SMDPad,CuDef*
%ADD27R,1.560000X0.650000*%
G04 #@! TD*
G04 #@! TA.AperFunction,ViaPad*
%ADD28C,0.650000*%
G04 #@! TD*
G04 #@! TA.AperFunction,ViaPad*
%ADD29C,0.600000*%
G04 #@! TD*
G04 #@! TA.AperFunction,Conductor*
%ADD30C,0.350000*%
G04 #@! TD*
G04 #@! TA.AperFunction,Conductor*
%ADD31C,1.000000*%
G04 #@! TD*
G04 #@! TA.AperFunction,Conductor*
%ADD32C,0.250000*%
G04 #@! TD*
G04 #@! TA.AperFunction,Conductor*
%ADD33C,0.200000*%
G04 #@! TD*
G04 #@! TA.AperFunction,Conductor*
%ADD34C,0.254000*%
G04 #@! TD*
G04 APERTURE END LIST*
D10*
G04 #@! TO.P,F1,1*
G04 #@! TO.N,Net-(C1-Pad1)*
X111000000Y-87637500D03*
G04 #@! TO.P,F1,2*
G04 #@! TO.N,Net-(D1-Pad1)*
X111000000Y-91962500D03*
G04 #@! TD*
D11*
G04 #@! TO.P,R2,1*
G04 #@! TO.N,Net-(Q1-Pad3)*
X133050000Y-75687500D03*
G04 #@! TO.P,R2,2*
G04 #@! TO.N,Net-(D2-Pad1)*
X133050000Y-73812500D03*
G04 #@! TD*
D12*
G04 #@! TO.P,R1,2*
G04 #@! TO.N,Net-(C1-Pad1)*
X110640000Y-83250000D03*
D13*
G04 #@! TO.P,R1,1*
G04 #@! TO.N,Net-(Q1-Pad3)*
X171600000Y-83250000D03*
G04 #@! TD*
D14*
G04 #@! TO.P,REF\002A\002A,1*
G04 #@! TO.N,Net-(J2-Pad1)*
X164325000Y-90550000D03*
D15*
G04 #@! TO.P,REF\002A\002A,2*
G04 #@! TO.N,Net-(J2-Pad2)*
X166865000Y-90550000D03*
G04 #@! TO.P,REF\002A\002A,3*
G04 #@! TO.N,Net-(J2-Pad3)*
X169405000Y-90550000D03*
G04 #@! TO.P,REF\002A\002A,4*
G04 #@! TO.N,Net-(J2-Pad4)*
X171945000Y-90550000D03*
G04 #@! TD*
D16*
G04 #@! TO.P,D1,2*
G04 #@! TO.N,BATT+RAW*
X115315000Y-96730000D03*
G04 #@! TO.P,D1,1*
G04 #@! TO.N,Net-(D1-Pad1)*
X115315000Y-92410000D03*
G04 #@! TD*
D11*
G04 #@! TO.P,R8,1*
G04 #@! TO.N,/MOSI*
X154900000Y-75687500D03*
G04 #@! TO.P,R8,2*
G04 #@! TO.N,3V3*
X154900000Y-73812500D03*
G04 #@! TD*
G04 #@! TO.P,R10,1*
G04 #@! TO.N,/SCK*
X157400000Y-75687500D03*
G04 #@! TO.P,R10,2*
G04 #@! TO.N,3V3*
X157400000Y-73812500D03*
G04 #@! TD*
D17*
G04 #@! TO.P,U2,8*
G04 #@! TO.N,Net-(J2-Pad1)*
X165380000Y-72235000D03*
G04 #@! TO.P,U2,7*
G04 #@! TO.N,Net-(J2-Pad2)*
X165380000Y-73505000D03*
G04 #@! TO.P,U2,6*
G04 #@! TO.N,Net-(J2-Pad3)*
X165380000Y-74775000D03*
G04 #@! TO.P,U2,5*
G04 #@! TO.N,Net-(J2-Pad4)*
X165380000Y-76045000D03*
G04 #@! TO.P,U2,4*
G04 #@! TO.N,GND*
X159980000Y-76045000D03*
G04 #@! TO.P,U2,3*
G04 #@! TO.N,/SCK*
X159980000Y-74775000D03*
G04 #@! TO.P,U2,2*
G04 #@! TO.N,/MOSI*
X159980000Y-73505000D03*
G04 #@! TO.P,U2,1*
G04 #@! TO.N,3V3*
X159980000Y-72235000D03*
G04 #@! TD*
D18*
G04 #@! TO.P,U3,8*
G04 #@! TO.N,3V3*
X143465000Y-90270000D03*
G04 #@! TO.P,U3,7*
G04 #@! TO.N,/SCK*
X144735000Y-90270000D03*
G04 #@! TO.P,U3,6*
G04 #@! TO.N,/MISO*
X146005000Y-90270000D03*
G04 #@! TO.P,U3,5*
G04 #@! TO.N,/MOSI*
X147275000Y-90270000D03*
G04 #@! TO.P,U3,4*
G04 #@! TO.N,GND*
X147275000Y-97570000D03*
G04 #@! TO.P,U3,3*
G04 #@! TO.N,/PB4BYPASS*
X146005000Y-97570000D03*
G04 #@! TO.P,U3,2*
G04 #@! TO.N,Net-(C3-Pad1)*
X144735000Y-97570000D03*
G04 #@! TO.P,U3,1*
G04 #@! TO.N,/RST*
X143465000Y-97570000D03*
G04 #@! TD*
D11*
G04 #@! TO.P,R5,2*
G04 #@! TO.N,Net-(R5-Pad2)*
X115000000Y-73812500D03*
G04 #@! TO.P,R5,1*
G04 #@! TO.N,BATT+RAW*
X115000000Y-75687500D03*
G04 #@! TD*
D19*
G04 #@! TO.P,Q1,3*
G04 #@! TO.N,Net-(Q1-Pad3)*
X171570000Y-80690000D03*
G04 #@! TO.P,Q1,2*
G04 #@! TO.N,GND*
X170620000Y-78690000D03*
G04 #@! TO.P,Q1,1*
G04 #@! TO.N,/PB4BYPASS*
X172520000Y-78690000D03*
G04 #@! TD*
D20*
G04 #@! TO.P,TP1,1*
G04 #@! TO.N,Net-(C3-Pad1)*
X120850000Y-75700000D03*
G04 #@! TD*
G04 #@! TO.P,TP2,1*
G04 #@! TO.N,GND*
X120900000Y-73200000D03*
G04 #@! TD*
D21*
G04 #@! TO.P,C1,2*
G04 #@! TO.N,GND*
X128762500Y-96950000D03*
G04 #@! TO.P,C1,1*
G04 #@! TO.N,Net-(C1-Pad1)*
X130637500Y-96950000D03*
G04 #@! TD*
G04 #@! TO.P,C3,1*
G04 #@! TO.N,Net-(C3-Pad1)*
X110262500Y-78150000D03*
G04 #@! TO.P,C3,2*
G04 #@! TO.N,GND*
X112137500Y-78150000D03*
G04 #@! TD*
G04 #@! TO.P,C4,2*
G04 #@! TO.N,GND*
X150562500Y-75700000D03*
G04 #@! TO.P,C4,1*
G04 #@! TO.N,3V3*
X152437500Y-75700000D03*
G04 #@! TD*
G04 #@! TO.P,C5,1*
G04 #@! TO.N,3V3*
X140687500Y-91950000D03*
G04 #@! TO.P,C5,2*
G04 #@! TO.N,GND*
X138812500Y-91950000D03*
G04 #@! TD*
G04 #@! TO.P,C6,2*
G04 #@! TO.N,Net-(C6-Pad2)*
X130637500Y-94450000D03*
G04 #@! TO.P,C6,1*
G04 #@! TO.N,Net-(C6-Pad1)*
X128762500Y-94450000D03*
G04 #@! TD*
G04 #@! TO.P,C2,1*
G04 #@! TO.N,3V3*
X130637500Y-91950000D03*
G04 #@! TO.P,C2,2*
G04 #@! TO.N,GND*
X128762500Y-91950000D03*
G04 #@! TD*
D22*
G04 #@! TO.P,D2,2*
G04 #@! TO.N,Net-(C1-Pad1)*
X130550000Y-75600000D03*
G04 #@! TO.P,D2,1*
G04 #@! TO.N,Net-(D2-Pad1)*
X130550000Y-73900000D03*
G04 #@! TD*
G04 #@! TO.P,D4,1*
G04 #@! TO.N,Net-(D4-Pad1)*
X138050000Y-73900000D03*
G04 #@! TO.P,D4,2*
G04 #@! TO.N,/MISO*
X138050000Y-75600000D03*
G04 #@! TD*
D11*
G04 #@! TO.P,R12,2*
G04 #@! TO.N,GND*
X135550000Y-75687500D03*
G04 #@! TO.P,R12,1*
G04 #@! TO.N,Net-(D4-Pad1)*
X135550000Y-73812500D03*
G04 #@! TD*
G04 #@! TO.P,R3,2*
G04 #@! TO.N,/RST*
X141000000Y-97287500D03*
G04 #@! TO.P,R3,1*
G04 #@! TO.N,3V3*
X141000000Y-95412500D03*
G04 #@! TD*
G04 #@! TO.P,R4,1*
G04 #@! TO.N,/RST*
X138500000Y-97287500D03*
G04 #@! TO.P,R4,2*
G04 #@! TO.N,GND*
X138500000Y-95412500D03*
G04 #@! TD*
G04 #@! TO.P,R6,1*
G04 #@! TO.N,BATT+RAW*
X112500000Y-73812500D03*
G04 #@! TO.P,R6,2*
G04 #@! TO.N,Net-(C3-Pad1)*
X112500000Y-75687500D03*
G04 #@! TD*
G04 #@! TO.P,R7,2*
G04 #@! TO.N,GND*
X110000000Y-73812500D03*
G04 #@! TO.P,R7,1*
G04 #@! TO.N,Net-(C3-Pad1)*
X110000000Y-75687500D03*
G04 #@! TD*
G04 #@! TO.P,R9,2*
G04 #@! TO.N,GND*
X168300000Y-78772500D03*
G04 #@! TO.P,R9,1*
G04 #@! TO.N,/PB4BYPASS*
X168300000Y-80647500D03*
G04 #@! TD*
D23*
G04 #@! TO.P,J2,1*
G04 #@! TO.N,Net-(J2-Pad1)*
X152350000Y-92300000D03*
D24*
G04 #@! TO.P,J2,2*
G04 #@! TO.N,Net-(J2-Pad2)*
X154350000Y-92300000D03*
G04 #@! TO.P,J2,3*
G04 #@! TO.N,Net-(J2-Pad3)*
X156350000Y-92300000D03*
G04 #@! TO.P,J2,4*
G04 #@! TO.N,Net-(J2-Pad4)*
X158350000Y-92300000D03*
G04 #@! TD*
D23*
G04 #@! TO.P,J3,1*
G04 #@! TO.N,Net-(J2-Pad1)*
X165129762Y-92300000D03*
D24*
G04 #@! TO.P,J3,2*
G04 #@! TO.N,Net-(J2-Pad2)*
X167129762Y-92300000D03*
G04 #@! TO.P,J3,3*
G04 #@! TO.N,Net-(J2-Pad3)*
X169129762Y-92300000D03*
G04 #@! TO.P,J3,4*
G04 #@! TO.N,Net-(J2-Pad4)*
X171129762Y-92300000D03*
G04 #@! TD*
D14*
G04 #@! TO.P,ISP1,1*
G04 #@! TO.N,/MISO*
X142400000Y-75250000D03*
D15*
G04 #@! TO.P,ISP1,2*
G04 #@! TO.N,3V3*
X142400000Y-72710000D03*
G04 #@! TO.P,ISP1,3*
G04 #@! TO.N,/SCK*
X144940000Y-75250000D03*
G04 #@! TO.P,ISP1,4*
G04 #@! TO.N,/MOSI*
X144940000Y-72710000D03*
G04 #@! TO.P,ISP1,5*
G04 #@! TO.N,/RST*
X147480000Y-75250000D03*
G04 #@! TO.P,ISP1,6*
G04 #@! TO.N,GND*
X147480000Y-72710000D03*
G04 #@! TD*
D25*
G04 #@! TO.P,TH1,1*
G04 #@! TO.N,3V3*
X133275000Y-91950000D03*
D26*
G04 #@! TO.P,TH1,2*
G04 #@! TO.N,/RST*
X135815000Y-91950000D03*
G04 #@! TD*
D23*
G04 #@! TO.P,J1,1*
G04 #@! TO.N,GND*
X120075000Y-92300000D03*
D24*
G04 #@! TO.P,J1,2*
G04 #@! TO.N,BATT+RAW*
X122075000Y-92300000D03*
G04 #@! TD*
D27*
G04 #@! TO.P,U1,1*
G04 #@! TO.N,3V3*
X135900000Y-97350000D03*
G04 #@! TO.P,U1,2*
G04 #@! TO.N,GND*
X135900000Y-96400000D03*
G04 #@! TO.P,U1,3*
G04 #@! TO.N,Net-(C1-Pad1)*
X135900000Y-95450000D03*
G04 #@! TO.P,U1,4*
G04 #@! TO.N,Net-(C6-Pad2)*
X133200000Y-95450000D03*
G04 #@! TO.P,U1,6*
G04 #@! TO.N,Net-(C6-Pad1)*
X133200000Y-97350000D03*
G04 #@! TO.P,U1,5*
G04 #@! TO.N,Net-(C1-Pad1)*
X133200000Y-96400000D03*
G04 #@! TD*
D15*
G04 #@! TO.P,REF\002A\002A,4*
G04 #@! TO.N,Net-(J2-Pad4)*
X159160000Y-90550000D03*
G04 #@! TO.P,REF\002A\002A,3*
G04 #@! TO.N,Net-(J2-Pad3)*
X156620000Y-90550000D03*
G04 #@! TO.P,REF\002A\002A,2*
G04 #@! TO.N,Net-(J2-Pad2)*
X154080000Y-90550000D03*
D14*
G04 #@! TO.P,REF\002A\002A,1*
G04 #@! TO.N,Net-(J2-Pad1)*
X151540000Y-90550000D03*
G04 #@! TD*
D15*
G04 #@! TO.P,REF\002A\002A,2*
G04 #@! TO.N,BATT+RAW*
X122340000Y-90550000D03*
D14*
G04 #@! TO.P,REF\002A\002A,1*
G04 #@! TO.N,GND*
X119800000Y-90550000D03*
G04 #@! TD*
D28*
G04 #@! TO.N,GND*
X117500000Y-79500000D03*
X117500000Y-83250000D03*
X117500000Y-87000000D03*
X122500000Y-79500000D03*
X122500000Y-87000000D03*
X122500000Y-83250000D03*
X127500000Y-79500000D03*
X127500000Y-83250000D03*
X127500000Y-87000000D03*
X132500000Y-83250000D03*
X132500000Y-79500000D03*
X137500000Y-79500000D03*
X137500000Y-83250000D03*
X137500000Y-87000000D03*
X143000000Y-83250000D03*
X143000000Y-87000000D03*
X143000000Y-79500000D03*
X148500000Y-83250000D03*
X148500000Y-87000000D03*
X148500000Y-79500000D03*
X153650000Y-83250000D03*
X153650000Y-87000000D03*
X153650000Y-79500000D03*
X159150000Y-83250000D03*
X159150000Y-87000000D03*
X159150000Y-79500000D03*
X164675000Y-83250000D03*
X164675000Y-87000000D03*
X132500000Y-87000000D03*
X128800000Y-96000000D03*
X134550000Y-98050000D03*
X160000000Y-92850000D03*
X147375000Y-94475000D03*
X164675000Y-79500000D03*
X148250000Y-97550000D03*
D29*
X169950000Y-78690000D03*
X170620000Y-77960000D03*
D28*
X127900000Y-91950000D03*
X139400000Y-96000000D03*
G04 #@! TO.N,3V3*
X135450000Y-94400000D03*
D29*
G04 #@! TO.N,BATT+RAW*
X115950000Y-75700000D03*
D28*
G04 #@! TO.N,Net-(C3-Pad1)*
X120850000Y-77050000D03*
X142300000Y-94250000D03*
G04 #@! TO.N,/MISO*
X145950000Y-77250000D03*
X138900000Y-76350000D03*
G04 #@! TO.N,/SCK*
X145150000Y-81500000D03*
X158350000Y-75650000D03*
G04 #@! TO.N,/MOSI*
X159000000Y-73550000D03*
X151650000Y-77350000D03*
X154900000Y-76550000D03*
G04 #@! TO.N,/RST*
X142350000Y-96750000D03*
X147550000Y-79750000D03*
X147550000Y-88600000D03*
G04 #@! TO.N,/PB4BYPASS*
X150475000Y-81500000D03*
X168300000Y-81500000D03*
G04 #@! TO.N,Net-(Q1-Pad3)*
X133050000Y-76600000D03*
G04 #@! TD*
D30*
G04 #@! TO.N,GND*
X128762500Y-96950000D02*
X128762500Y-96037500D01*
X128762500Y-96037500D02*
X128800000Y-96000000D01*
X134550000Y-96900000D02*
X134550000Y-98050000D01*
X135900000Y-96400000D02*
X135050000Y-96400000D01*
X135050000Y-96400000D02*
X134550000Y-96900000D01*
D31*
X120075000Y-92575000D02*
X120075000Y-92275000D01*
X170650000Y-78675000D02*
X169950000Y-78690000D01*
X170620000Y-77960000D02*
X170650000Y-78675000D01*
D32*
X128762500Y-91950000D02*
X128762500Y-92812500D01*
X128762500Y-92812500D02*
X129150000Y-93200000D01*
X129150000Y-93200000D02*
X132050000Y-93200000D01*
D30*
X138812500Y-95412500D02*
X138500000Y-95412500D01*
X139400000Y-96000000D02*
X138812500Y-95412500D01*
G04 #@! TO.N,3V3*
X140687500Y-95100000D02*
X141000000Y-95412500D01*
X133350000Y-91950000D02*
X130837500Y-91950000D01*
X133350000Y-91500000D02*
X133350000Y-91950000D01*
X137250000Y-94400000D02*
X137550000Y-94100000D01*
X137250000Y-97000000D02*
X137250000Y-94400000D01*
X135900000Y-97350000D02*
X136900000Y-97350000D01*
X136900000Y-97350000D02*
X137250000Y-97000000D01*
X137250000Y-94400000D02*
X135450000Y-94400000D01*
X154900000Y-73812500D02*
X157400000Y-73812500D01*
X140787500Y-91850000D02*
X140687500Y-91950000D01*
X143445000Y-90450000D02*
X143445000Y-93345000D01*
X143445000Y-93345000D02*
X143450000Y-93350000D01*
X141000000Y-92262500D02*
X140687500Y-91950000D01*
X137550000Y-94100000D02*
X141000000Y-94100000D01*
X141000000Y-95412500D02*
X141000000Y-94100000D01*
X143450000Y-93350000D02*
X141000000Y-93350000D01*
X141000000Y-94100000D02*
X141000000Y-93350000D01*
X141000000Y-93350000D02*
X141000000Y-92262500D01*
X147775000Y-93350000D02*
X143450000Y-93350000D01*
X149500000Y-91625000D02*
X147775000Y-93350000D01*
X149500000Y-80700000D02*
X149500000Y-91625000D01*
X152450000Y-77750000D02*
X149500000Y-80700000D01*
X152437500Y-75700000D02*
X152450000Y-75712500D01*
X152450000Y-75712500D02*
X152450000Y-77750000D01*
X140687500Y-74112500D02*
X140687500Y-91950000D01*
X142400000Y-72960000D02*
X141840000Y-72960000D01*
X141840000Y-72960000D02*
X140687500Y-74112500D01*
X154287500Y-73812500D02*
X154900000Y-73812500D01*
X152437500Y-75700000D02*
X152437500Y-75662500D01*
X152437500Y-75662500D02*
X154287500Y-73812500D01*
X157437500Y-73812500D02*
X157400000Y-73812500D01*
X159982185Y-72292358D02*
X158957642Y-72292358D01*
X158957642Y-72292358D02*
X157437500Y-73812500D01*
D31*
G04 #@! TO.N,Net-(D1-Pad1)*
X114867500Y-91962500D02*
X115315000Y-92410000D01*
X111000000Y-91962500D02*
X114742500Y-91962500D01*
D32*
G04 #@! TO.N,Net-(D2-Pad1)*
X130637500Y-73812500D02*
X130550000Y-73900000D01*
X133050000Y-73812500D02*
X130637500Y-73812500D01*
G04 #@! TO.N,Net-(D4-Pad1)*
X137962500Y-73812500D02*
X138050000Y-73900000D01*
X135550000Y-73812500D02*
X137962500Y-73812500D01*
D30*
G04 #@! TO.N,BATT+RAW*
X115937500Y-75687500D02*
X115000000Y-75687500D01*
X115950000Y-75700000D02*
X115937500Y-75687500D01*
D31*
X122075000Y-90815000D02*
X122340000Y-90550000D01*
X122075000Y-92300000D02*
X122075000Y-90815000D01*
X115595000Y-96680000D02*
X115325000Y-96410000D01*
X119345000Y-96680000D02*
X115595000Y-96680000D01*
X122075000Y-92275000D02*
X122075000Y-93950000D01*
X122075000Y-93950000D02*
X119345000Y-96680000D01*
D32*
G04 #@! TO.N,Net-(C3-Pad1)*
X112500000Y-75687500D02*
X110000000Y-75687500D01*
X120850000Y-77050000D02*
X120850000Y-75700000D01*
X144715000Y-96840000D02*
X144715000Y-97750000D01*
X143775000Y-95900000D02*
X144715000Y-96840000D01*
X142950000Y-95900000D02*
X143775000Y-95900000D01*
X142300000Y-94250000D02*
X142300000Y-95250000D01*
X142300000Y-95250000D02*
X142950000Y-95900000D01*
X110000000Y-77887500D02*
X110262500Y-78150000D01*
X110000000Y-75687500D02*
X110000000Y-77887500D01*
X113900000Y-77050000D02*
X120850000Y-77050000D01*
X112500000Y-75687500D02*
X112537500Y-75687500D01*
X112537500Y-75687500D02*
X113900000Y-77050000D01*
D30*
G04 #@! TO.N,Net-(J2-Pad1)*
X164325000Y-91492334D02*
X165129762Y-92297096D01*
X164325000Y-90550000D02*
X164325000Y-91492334D01*
X162350000Y-88875000D02*
X162500000Y-88725000D01*
X151540000Y-90550000D02*
X153215000Y-88875000D01*
X153215000Y-88875000D02*
X162350000Y-88875000D01*
X164757642Y-72292358D02*
X165382185Y-72292358D01*
X162500000Y-88725000D02*
X162500000Y-74550000D01*
X162500000Y-74550000D02*
X164757642Y-72292358D01*
X164150000Y-90550000D02*
X164325000Y-90550000D01*
X162500000Y-88725000D02*
X162500000Y-88900000D01*
X162500000Y-88900000D02*
X164150000Y-90550000D01*
D32*
G04 #@! TO.N,Net-(J2-Pad2)*
X166865000Y-92032334D02*
X167129762Y-92297096D01*
X166865000Y-90550000D02*
X166865000Y-92032334D01*
X166865000Y-90365000D02*
X166865000Y-90550000D01*
X164637642Y-73562358D02*
X163250000Y-74950000D01*
X165382185Y-73562358D02*
X164637642Y-73562358D01*
X163250000Y-74950000D02*
X163250000Y-88200000D01*
X163250000Y-88200000D02*
X163950000Y-88900000D01*
X163950000Y-88900000D02*
X165400000Y-88900000D01*
X165400000Y-88900000D02*
X166865000Y-90365000D01*
G04 #@! TO.N,Net-(J2-Pad3)*
X169405000Y-92021858D02*
X169129762Y-92297096D01*
X169405000Y-90550000D02*
X169405000Y-92021858D01*
X169100000Y-90550000D02*
X169405000Y-90550000D01*
X164467642Y-74832358D02*
X165382185Y-74832358D01*
X163900000Y-75400000D02*
X164467642Y-74832358D01*
X163900000Y-84350000D02*
X163900000Y-75400000D01*
X169405000Y-90550000D02*
X169405000Y-89855000D01*
X169405000Y-89855000D02*
X163900000Y-84350000D01*
D30*
G04 #@! TO.N,Net-(J2-Pad4)*
X171945000Y-90545000D02*
X171945000Y-90550000D01*
X171129762Y-92670238D02*
X171129762Y-92297096D01*
X169750000Y-94050000D02*
X171129762Y-92670238D01*
X164400000Y-94050000D02*
X169750000Y-94050000D01*
X160900000Y-90550000D02*
X164400000Y-94050000D01*
X160900000Y-90550000D02*
X159160000Y-90550000D01*
X171945000Y-91481858D02*
X171129762Y-92297096D01*
X171945000Y-90550000D02*
X171945000Y-91481858D01*
X165500000Y-76165000D02*
X165380000Y-76045000D01*
X165500000Y-84800000D02*
X165500000Y-76165000D01*
X169550000Y-88850000D02*
X165500000Y-84800000D01*
X170050000Y-88850000D02*
X169550000Y-88850000D01*
X171945000Y-90550000D02*
X171750000Y-90550000D01*
X171750000Y-90550000D02*
X170050000Y-88850000D01*
D32*
G04 #@! TO.N,Net-(R5-Pad2)*
X112500000Y-73812500D02*
X115000000Y-73812500D01*
D30*
G04 #@! TO.N,Net-(C1-Pad1)*
X131187500Y-96400000D02*
X130637500Y-96950000D01*
X133200000Y-96400000D02*
X131187500Y-96400000D01*
X135900000Y-95450000D02*
X134550000Y-95450000D01*
X110640000Y-83250000D02*
X111390000Y-84000000D01*
X134100000Y-96400000D02*
X133200000Y-96400000D01*
X134550000Y-95450000D02*
X134550000Y-95950000D01*
X134550000Y-95950000D02*
X134100000Y-96400000D01*
X130550000Y-75600000D02*
X130550000Y-88550000D01*
X134550000Y-90950000D02*
X134550000Y-95450000D01*
X132187500Y-88587500D02*
X134550000Y-90950000D01*
X112887500Y-88587500D02*
X132187500Y-88587500D01*
X111000000Y-87600000D02*
X111900000Y-87600000D01*
X111900000Y-87600000D02*
X112887500Y-88587500D01*
D31*
X110640000Y-87277500D02*
X111000000Y-87637500D01*
X110640000Y-83250000D02*
X110640000Y-87277500D01*
D32*
G04 #@! TO.N,Net-(C6-Pad1)*
X128762500Y-94487500D02*
X128762500Y-94450000D01*
X132750000Y-97350000D02*
X131800000Y-98300000D01*
X133200000Y-97350000D02*
X132750000Y-97350000D01*
X131800000Y-98300000D02*
X127850000Y-98300000D01*
X127850000Y-98300000D02*
X127450000Y-97900000D01*
X127450000Y-97900000D02*
X127450000Y-95800000D01*
X127450000Y-95800000D02*
X128762500Y-94487500D01*
G04 #@! TO.N,Net-(C6-Pad2)*
X131600000Y-95450000D02*
X133200000Y-95450000D01*
X130637500Y-94450000D02*
X130637500Y-94487500D01*
X130637500Y-94487500D02*
X131600000Y-95450000D01*
G04 #@! TO.N,/MISO*
X138150000Y-75600000D02*
X138050000Y-75600000D01*
X138900000Y-76350000D02*
X138150000Y-75600000D01*
X145950000Y-89400000D02*
X145950000Y-77250000D01*
X145985000Y-90450000D02*
X146000000Y-90450000D01*
X146000000Y-90450000D02*
X145950000Y-90400000D01*
X146005000Y-89455000D02*
X145950000Y-89400000D01*
X146005000Y-90270000D02*
X146005000Y-89455000D01*
G04 #@! TO.N,/SCK*
X145150000Y-75710000D02*
X144940000Y-75500000D01*
X145150000Y-75460000D02*
X144940000Y-75250000D01*
X145150000Y-81500000D02*
X145150000Y-75460000D01*
X144715000Y-89385000D02*
X144715000Y-90450000D01*
X145150000Y-81500000D02*
X145150000Y-88950000D01*
X145150000Y-88950000D02*
X144715000Y-89385000D01*
X159982185Y-74832358D02*
X159282358Y-74832358D01*
X159167642Y-74832358D02*
X159982185Y-74832358D01*
X158212500Y-75687500D02*
X158312500Y-75687500D01*
X158312500Y-75687500D02*
X159167642Y-74832358D01*
X157437500Y-75650000D02*
X157400000Y-75687500D01*
X158350000Y-75650000D02*
X157437500Y-75650000D01*
G04 #@! TO.N,/MOSI*
X159994543Y-73550000D02*
X159982185Y-73562358D01*
X159012358Y-73562358D02*
X159982185Y-73562358D01*
X159000000Y-73550000D02*
X159012358Y-73562358D01*
X144960000Y-72960000D02*
X145190000Y-72960000D01*
X144940000Y-72750000D02*
X144950000Y-72750000D01*
X147255000Y-89455000D02*
X147255000Y-90450000D01*
X146750000Y-88950000D02*
X147255000Y-89455000D01*
X146750000Y-79450000D02*
X146750000Y-88950000D01*
X144940000Y-72710000D02*
X144940000Y-72990000D01*
D33*
X146750000Y-76750000D02*
X146750000Y-79450000D01*
X146210000Y-76210000D02*
X146750000Y-76750000D01*
X146210000Y-73960000D02*
X146210000Y-76210000D01*
X144940000Y-72710000D02*
X144960000Y-72710000D01*
X144960000Y-72710000D02*
X146210000Y-73960000D01*
D32*
X151650000Y-77350000D02*
X148850000Y-77350000D01*
X148850000Y-77350000D02*
X146750000Y-79450000D01*
X154900000Y-75687500D02*
X154900000Y-76550000D01*
G04 #@! TO.N,/RST*
X141000000Y-97287500D02*
X138500000Y-97287500D01*
X143407500Y-97287500D02*
X143445000Y-97250000D01*
X140750000Y-97287500D02*
X142350000Y-97287500D01*
X142350000Y-97287500D02*
X143407500Y-97287500D01*
X142350000Y-96750000D02*
X142350000Y-97287500D01*
X147550000Y-88600000D02*
X147550000Y-79750000D01*
X147550000Y-88600000D02*
X147550000Y-88550000D01*
G04 #@! TO.N,/PB4BYPASS*
X145985000Y-96840000D02*
X145985000Y-97750000D01*
X150450000Y-81500000D02*
X150200000Y-81750000D01*
X150475000Y-81500000D02*
X150450000Y-81500000D01*
X150200000Y-81750000D02*
X150200000Y-94750000D01*
X150200000Y-94750000D02*
X149050000Y-95900000D01*
X149050000Y-95900000D02*
X146925000Y-95900000D01*
X146925000Y-95900000D02*
X145985000Y-96840000D01*
X168300000Y-80575000D02*
X168300000Y-81500000D01*
X168725000Y-80575000D02*
X168300000Y-80575000D01*
X169600000Y-79700000D02*
X168725000Y-80575000D01*
X172550000Y-78700000D02*
X171550000Y-79700000D01*
X171550000Y-79700000D02*
X169600000Y-79700000D01*
G04 #@! TO.N,Net-(Q1-Pad3)*
X133050000Y-76600000D02*
X133050000Y-75687500D01*
D31*
X171600000Y-83250000D02*
X171600000Y-80675000D01*
G04 #@! TD*
D34*
G04 #@! TO.N,GND*
G36*
X109300000Y-88989283D02*
X112155084Y-88989283D01*
X112264545Y-89098744D01*
X112309290Y-89165710D01*
X112518452Y-89305467D01*
X112574575Y-89342967D01*
X112887500Y-89405212D01*
X112966489Y-89389500D01*
X118391294Y-89389500D01*
X118315000Y-89573691D01*
X118315000Y-90264250D01*
X118473750Y-90423000D01*
X119673000Y-90423000D01*
X119673000Y-90403000D01*
X119927000Y-90403000D01*
X119927000Y-90423000D01*
X119947000Y-90423000D01*
X119947000Y-90677000D01*
X119927000Y-90677000D01*
X119927000Y-90815000D01*
X119751998Y-90815000D01*
X119751998Y-90950748D01*
X119673000Y-90871750D01*
X119673000Y-90677000D01*
X118473750Y-90677000D01*
X118315000Y-90835750D01*
X118315000Y-91526309D01*
X118411673Y-91759698D01*
X118590301Y-91938327D01*
X118823690Y-92035000D01*
X119514250Y-92035000D01*
X119572250Y-91977000D01*
X119775000Y-91977000D01*
X119775000Y-91957000D01*
X120007750Y-91957000D01*
X120085750Y-92035000D01*
X120418000Y-92035000D01*
X120418000Y-92623000D01*
X120375000Y-92623000D01*
X120375000Y-93626250D01*
X120533750Y-93785000D01*
X120646181Y-93785000D01*
X118878182Y-95553000D01*
X116854283Y-95553000D01*
X116854283Y-95530000D01*
X116805620Y-95285357D01*
X116667041Y-95077959D01*
X116459643Y-94939380D01*
X116215000Y-94890717D01*
X114415000Y-94890717D01*
X114170357Y-94939380D01*
X113962959Y-95077959D01*
X113824380Y-95285357D01*
X113775717Y-95530000D01*
X113775717Y-97930000D01*
X113824380Y-98174643D01*
X113906805Y-98298000D01*
X111866817Y-98298000D01*
X111919881Y-98276020D01*
X112476020Y-97719881D01*
X112777000Y-96993250D01*
X112777000Y-96206750D01*
X112476020Y-95480119D01*
X111919881Y-94923980D01*
X111193250Y-94623000D01*
X110406750Y-94623000D01*
X109680119Y-94923980D01*
X109202000Y-95402099D01*
X109202000Y-93294789D01*
X109300000Y-93314283D01*
X112700000Y-93314283D01*
X112944643Y-93265620D01*
X113152041Y-93127041D01*
X113177125Y-93089500D01*
X113775717Y-93089500D01*
X113775717Y-93610000D01*
X113824380Y-93854643D01*
X113962959Y-94062041D01*
X114170357Y-94200620D01*
X114415000Y-94249283D01*
X116215000Y-94249283D01*
X116459643Y-94200620D01*
X116667041Y-94062041D01*
X116805620Y-93854643D01*
X116854283Y-93610000D01*
X116854283Y-92781750D01*
X118840000Y-92781750D01*
X118840000Y-93276310D01*
X118936673Y-93509699D01*
X119115302Y-93688327D01*
X119348691Y-93785000D01*
X119616250Y-93785000D01*
X119775000Y-93626250D01*
X119775000Y-92623000D01*
X118998750Y-92623000D01*
X118840000Y-92781750D01*
X116854283Y-92781750D01*
X116854283Y-91210000D01*
X116805620Y-90965357D01*
X116667041Y-90757959D01*
X116459643Y-90619380D01*
X116215000Y-90570717D01*
X114415000Y-90570717D01*
X114170357Y-90619380D01*
X113962959Y-90757959D01*
X113911148Y-90835500D01*
X113177125Y-90835500D01*
X113152041Y-90797959D01*
X112944643Y-90659380D01*
X112700000Y-90610717D01*
X109300000Y-90610717D01*
X109202000Y-90630211D01*
X109202000Y-88969789D01*
X109300000Y-88989283D01*
X109300000Y-88989283D01*
G37*
X109300000Y-88989283D02*
X112155084Y-88989283D01*
X112264545Y-89098744D01*
X112309290Y-89165710D01*
X112518452Y-89305467D01*
X112574575Y-89342967D01*
X112887500Y-89405212D01*
X112966489Y-89389500D01*
X118391294Y-89389500D01*
X118315000Y-89573691D01*
X118315000Y-90264250D01*
X118473750Y-90423000D01*
X119673000Y-90423000D01*
X119673000Y-90403000D01*
X119927000Y-90403000D01*
X119927000Y-90423000D01*
X119947000Y-90423000D01*
X119947000Y-90677000D01*
X119927000Y-90677000D01*
X119927000Y-90815000D01*
X119751998Y-90815000D01*
X119751998Y-90950748D01*
X119673000Y-90871750D01*
X119673000Y-90677000D01*
X118473750Y-90677000D01*
X118315000Y-90835750D01*
X118315000Y-91526309D01*
X118411673Y-91759698D01*
X118590301Y-91938327D01*
X118823690Y-92035000D01*
X119514250Y-92035000D01*
X119572250Y-91977000D01*
X119775000Y-91977000D01*
X119775000Y-91957000D01*
X120007750Y-91957000D01*
X120085750Y-92035000D01*
X120418000Y-92035000D01*
X120418000Y-92623000D01*
X120375000Y-92623000D01*
X120375000Y-93626250D01*
X120533750Y-93785000D01*
X120646181Y-93785000D01*
X118878182Y-95553000D01*
X116854283Y-95553000D01*
X116854283Y-95530000D01*
X116805620Y-95285357D01*
X116667041Y-95077959D01*
X116459643Y-94939380D01*
X116215000Y-94890717D01*
X114415000Y-94890717D01*
X114170357Y-94939380D01*
X113962959Y-95077959D01*
X113824380Y-95285357D01*
X113775717Y-95530000D01*
X113775717Y-97930000D01*
X113824380Y-98174643D01*
X113906805Y-98298000D01*
X111866817Y-98298000D01*
X111919881Y-98276020D01*
X112476020Y-97719881D01*
X112777000Y-96993250D01*
X112777000Y-96206750D01*
X112476020Y-95480119D01*
X111919881Y-94923980D01*
X111193250Y-94623000D01*
X110406750Y-94623000D01*
X109680119Y-94923980D01*
X109202000Y-95402099D01*
X109202000Y-93294789D01*
X109300000Y-93314283D01*
X112700000Y-93314283D01*
X112944643Y-93265620D01*
X113152041Y-93127041D01*
X113177125Y-93089500D01*
X113775717Y-93089500D01*
X113775717Y-93610000D01*
X113824380Y-93854643D01*
X113962959Y-94062041D01*
X114170357Y-94200620D01*
X114415000Y-94249283D01*
X116215000Y-94249283D01*
X116459643Y-94200620D01*
X116667041Y-94062041D01*
X116805620Y-93854643D01*
X116854283Y-93610000D01*
X116854283Y-92781750D01*
X118840000Y-92781750D01*
X118840000Y-93276310D01*
X118936673Y-93509699D01*
X119115302Y-93688327D01*
X119348691Y-93785000D01*
X119616250Y-93785000D01*
X119775000Y-93626250D01*
X119775000Y-92623000D01*
X118998750Y-92623000D01*
X118840000Y-92781750D01*
X116854283Y-92781750D01*
X116854283Y-91210000D01*
X116805620Y-90965357D01*
X116667041Y-90757959D01*
X116459643Y-90619380D01*
X116215000Y-90570717D01*
X114415000Y-90570717D01*
X114170357Y-90619380D01*
X113962959Y-90757959D01*
X113911148Y-90835500D01*
X113177125Y-90835500D01*
X113152041Y-90797959D01*
X112944643Y-90659380D01*
X112700000Y-90610717D01*
X109300000Y-90610717D01*
X109202000Y-90630211D01*
X109202000Y-88969789D01*
X109300000Y-88989283D01*
G36*
X134667959Y-98127041D02*
X134875357Y-98265620D01*
X135038141Y-98298000D01*
X134061859Y-98298000D01*
X134224643Y-98265620D01*
X134432041Y-98127041D01*
X134550000Y-97950503D01*
X134667959Y-98127041D01*
X134667959Y-98127041D01*
G37*
X134667959Y-98127041D02*
X134875357Y-98265620D01*
X135038141Y-98298000D01*
X134061859Y-98298000D01*
X134224643Y-98265620D01*
X134432041Y-98127041D01*
X134550000Y-97950503D01*
X134667959Y-98127041D01*
G36*
X163777045Y-94561244D02*
X163821790Y-94628210D01*
X164087075Y-94805467D01*
X164321011Y-94852000D01*
X164399999Y-94867712D01*
X164478987Y-94852000D01*
X169671011Y-94852000D01*
X169750000Y-94867712D01*
X169828989Y-94852000D01*
X170062925Y-94805467D01*
X170328210Y-94628210D01*
X170372957Y-94561241D01*
X171134005Y-93800194D01*
X171608514Y-93705808D01*
X172014379Y-93434617D01*
X172285570Y-93028751D01*
X172356762Y-92670846D01*
X172356762Y-92204295D01*
X172456243Y-92104813D01*
X172523210Y-92060068D01*
X172668113Y-91843204D01*
X172798000Y-91756416D01*
X172798000Y-98298000D01*
X148235000Y-98298000D01*
X148235000Y-97855750D01*
X148076250Y-97697000D01*
X147402000Y-97697000D01*
X147402000Y-97717000D01*
X147148000Y-97717000D01*
X147148000Y-97697000D01*
X147128000Y-97697000D01*
X147128000Y-97443000D01*
X147148000Y-97443000D01*
X147148000Y-97423000D01*
X147402000Y-97423000D01*
X147402000Y-97443000D01*
X148076250Y-97443000D01*
X148235000Y-97284250D01*
X148235000Y-96652000D01*
X148975941Y-96652000D01*
X149050000Y-96666731D01*
X149124059Y-96652000D01*
X149124063Y-96652000D01*
X149343416Y-96608368D01*
X149592161Y-96442161D01*
X149634116Y-96379371D01*
X150679376Y-95334113D01*
X150742161Y-95292161D01*
X150784112Y-95229377D01*
X150784115Y-95229374D01*
X150908368Y-95043416D01*
X150923593Y-94966873D01*
X150952000Y-94824063D01*
X150952000Y-94824059D01*
X150966731Y-94750000D01*
X150952000Y-94675941D01*
X150952000Y-92039283D01*
X151110717Y-92039283D01*
X151110717Y-93150000D01*
X151159380Y-93394643D01*
X151297959Y-93602041D01*
X151505357Y-93740620D01*
X151750000Y-93789283D01*
X152950000Y-93789283D01*
X153194643Y-93740620D01*
X153402041Y-93602041D01*
X153498932Y-93457033D01*
X153871249Y-93705808D01*
X154350000Y-93801038D01*
X154828752Y-93705808D01*
X155234617Y-93434617D01*
X155350000Y-93261934D01*
X155465384Y-93434617D01*
X155871249Y-93705808D01*
X156350000Y-93801038D01*
X156828752Y-93705808D01*
X157234617Y-93434617D01*
X157350000Y-93261934D01*
X157465384Y-93434617D01*
X157871249Y-93705808D01*
X158350000Y-93801038D01*
X158828752Y-93705808D01*
X159234617Y-93434617D01*
X159505808Y-93028751D01*
X159577000Y-92670846D01*
X159577000Y-91972989D01*
X159736297Y-91941303D01*
X160224858Y-91614858D01*
X160400494Y-91352000D01*
X160567802Y-91352000D01*
X163777045Y-94561244D01*
X163777045Y-94561244D01*
G37*
X163777045Y-94561244D02*
X163821790Y-94628210D01*
X164087075Y-94805467D01*
X164321011Y-94852000D01*
X164399999Y-94867712D01*
X164478987Y-94852000D01*
X169671011Y-94852000D01*
X169750000Y-94867712D01*
X169828989Y-94852000D01*
X170062925Y-94805467D01*
X170328210Y-94628210D01*
X170372957Y-94561241D01*
X171134005Y-93800194D01*
X171608514Y-93705808D01*
X172014379Y-93434617D01*
X172285570Y-93028751D01*
X172356762Y-92670846D01*
X172356762Y-92204295D01*
X172456243Y-92104813D01*
X172523210Y-92060068D01*
X172668113Y-91843204D01*
X172798000Y-91756416D01*
X172798000Y-98298000D01*
X148235000Y-98298000D01*
X148235000Y-97855750D01*
X148076250Y-97697000D01*
X147402000Y-97697000D01*
X147402000Y-97717000D01*
X147148000Y-97717000D01*
X147148000Y-97697000D01*
X147128000Y-97697000D01*
X147128000Y-97443000D01*
X147148000Y-97443000D01*
X147148000Y-97423000D01*
X147402000Y-97423000D01*
X147402000Y-97443000D01*
X148076250Y-97443000D01*
X148235000Y-97284250D01*
X148235000Y-96652000D01*
X148975941Y-96652000D01*
X149050000Y-96666731D01*
X149124059Y-96652000D01*
X149124063Y-96652000D01*
X149343416Y-96608368D01*
X149592161Y-96442161D01*
X149634116Y-96379371D01*
X150679376Y-95334113D01*
X150742161Y-95292161D01*
X150784112Y-95229377D01*
X150784115Y-95229374D01*
X150908368Y-95043416D01*
X150923593Y-94966873D01*
X150952000Y-94824063D01*
X150952000Y-94824059D01*
X150966731Y-94750000D01*
X150952000Y-94675941D01*
X150952000Y-92039283D01*
X151110717Y-92039283D01*
X151110717Y-93150000D01*
X151159380Y-93394643D01*
X151297959Y-93602041D01*
X151505357Y-93740620D01*
X151750000Y-93789283D01*
X152950000Y-93789283D01*
X153194643Y-93740620D01*
X153402041Y-93602041D01*
X153498932Y-93457033D01*
X153871249Y-93705808D01*
X154350000Y-93801038D01*
X154828752Y-93705808D01*
X155234617Y-93434617D01*
X155350000Y-93261934D01*
X155465384Y-93434617D01*
X155871249Y-93705808D01*
X156350000Y-93801038D01*
X156828752Y-93705808D01*
X157234617Y-93434617D01*
X157350000Y-93261934D01*
X157465384Y-93434617D01*
X157871249Y-93705808D01*
X158350000Y-93801038D01*
X158828752Y-93705808D01*
X159234617Y-93434617D01*
X159505808Y-93028751D01*
X159577000Y-92670846D01*
X159577000Y-91972989D01*
X159736297Y-91941303D01*
X160224858Y-91614858D01*
X160400494Y-91352000D01*
X160567802Y-91352000D01*
X163777045Y-94561244D01*
G36*
X133088801Y-90623000D02*
X133011043Y-90623000D01*
X132523315Y-90825024D01*
X132200339Y-91148000D01*
X131918994Y-91148000D01*
X131890620Y-91005357D01*
X131752041Y-90797959D01*
X131544643Y-90659380D01*
X131300000Y-90610717D01*
X129975000Y-90610717D01*
X129730357Y-90659380D01*
X129702840Y-90677766D01*
X129551309Y-90615000D01*
X129048250Y-90615000D01*
X128889500Y-90773750D01*
X128889500Y-91823000D01*
X128909500Y-91823000D01*
X128909500Y-92077000D01*
X128889500Y-92077000D01*
X128889500Y-92097000D01*
X128635500Y-92097000D01*
X128635500Y-92077000D01*
X127623750Y-92077000D01*
X127465000Y-92235750D01*
X127465000Y-92776310D01*
X127561673Y-93009699D01*
X127740302Y-93188327D01*
X127784584Y-93206669D01*
X127647959Y-93297959D01*
X127509380Y-93505357D01*
X127460717Y-93750000D01*
X127460717Y-94725795D01*
X126970627Y-95215886D01*
X126907840Y-95257839D01*
X126865887Y-95320626D01*
X126865886Y-95320627D01*
X126741632Y-95506585D01*
X126683269Y-95800000D01*
X126698001Y-95874064D01*
X126698000Y-97825941D01*
X126683269Y-97900000D01*
X126698000Y-97974059D01*
X126698000Y-97974062D01*
X126741632Y-98193415D01*
X126811514Y-98298000D01*
X116723195Y-98298000D01*
X116805620Y-98174643D01*
X116854283Y-97930000D01*
X116854283Y-97807000D01*
X119234002Y-97807000D01*
X119345000Y-97829079D01*
X119455998Y-97807000D01*
X119455999Y-97807000D01*
X119784733Y-97741611D01*
X120157522Y-97492522D01*
X120220400Y-97398418D01*
X122793420Y-94825398D01*
X122887522Y-94762522D01*
X123121115Y-94412925D01*
X123136610Y-94389735D01*
X123136610Y-94389734D01*
X123136611Y-94389733D01*
X123202000Y-94060999D01*
X123224079Y-93950001D01*
X123202000Y-93839003D01*
X123202000Y-93071865D01*
X123230808Y-93028751D01*
X123302000Y-92670846D01*
X123302000Y-91929153D01*
X123258884Y-91712394D01*
X123404858Y-91614858D01*
X123731303Y-91126297D01*
X123731821Y-91123690D01*
X127465000Y-91123690D01*
X127465000Y-91664250D01*
X127623750Y-91823000D01*
X128635500Y-91823000D01*
X128635500Y-90773750D01*
X128476750Y-90615000D01*
X127973691Y-90615000D01*
X127740302Y-90711673D01*
X127561673Y-90890301D01*
X127465000Y-91123690D01*
X123731821Y-91123690D01*
X123845936Y-90550000D01*
X123731303Y-89973703D01*
X123404858Y-89485142D01*
X123261719Y-89389500D01*
X131855302Y-89389500D01*
X133088801Y-90623000D01*
X133088801Y-90623000D01*
G37*
X133088801Y-90623000D02*
X133011043Y-90623000D01*
X132523315Y-90825024D01*
X132200339Y-91148000D01*
X131918994Y-91148000D01*
X131890620Y-91005357D01*
X131752041Y-90797959D01*
X131544643Y-90659380D01*
X131300000Y-90610717D01*
X129975000Y-90610717D01*
X129730357Y-90659380D01*
X129702840Y-90677766D01*
X129551309Y-90615000D01*
X129048250Y-90615000D01*
X128889500Y-90773750D01*
X128889500Y-91823000D01*
X128909500Y-91823000D01*
X128909500Y-92077000D01*
X128889500Y-92077000D01*
X128889500Y-92097000D01*
X128635500Y-92097000D01*
X128635500Y-92077000D01*
X127623750Y-92077000D01*
X127465000Y-92235750D01*
X127465000Y-92776310D01*
X127561673Y-93009699D01*
X127740302Y-93188327D01*
X127784584Y-93206669D01*
X127647959Y-93297959D01*
X127509380Y-93505357D01*
X127460717Y-93750000D01*
X127460717Y-94725795D01*
X126970627Y-95215886D01*
X126907840Y-95257839D01*
X126865887Y-95320626D01*
X126865886Y-95320627D01*
X126741632Y-95506585D01*
X126683269Y-95800000D01*
X126698001Y-95874064D01*
X126698000Y-97825941D01*
X126683269Y-97900000D01*
X126698000Y-97974059D01*
X126698000Y-97974062D01*
X126741632Y-98193415D01*
X126811514Y-98298000D01*
X116723195Y-98298000D01*
X116805620Y-98174643D01*
X116854283Y-97930000D01*
X116854283Y-97807000D01*
X119234002Y-97807000D01*
X119345000Y-97829079D01*
X119455998Y-97807000D01*
X119455999Y-97807000D01*
X119784733Y-97741611D01*
X120157522Y-97492522D01*
X120220400Y-97398418D01*
X122793420Y-94825398D01*
X122887522Y-94762522D01*
X123121115Y-94412925D01*
X123136610Y-94389735D01*
X123136610Y-94389734D01*
X123136611Y-94389733D01*
X123202000Y-94060999D01*
X123224079Y-93950001D01*
X123202000Y-93839003D01*
X123202000Y-93071865D01*
X123230808Y-93028751D01*
X123302000Y-92670846D01*
X123302000Y-91929153D01*
X123258884Y-91712394D01*
X123404858Y-91614858D01*
X123731303Y-91126297D01*
X123731821Y-91123690D01*
X127465000Y-91123690D01*
X127465000Y-91664250D01*
X127623750Y-91823000D01*
X128635500Y-91823000D01*
X128635500Y-90773750D01*
X128476750Y-90615000D01*
X127973691Y-90615000D01*
X127740302Y-90711673D01*
X127561673Y-90890301D01*
X127465000Y-91123690D01*
X123731821Y-91123690D01*
X123845936Y-90550000D01*
X123731303Y-89973703D01*
X123404858Y-89485142D01*
X123261719Y-89389500D01*
X131855302Y-89389500D01*
X133088801Y-90623000D01*
G36*
X128889500Y-96823000D02*
X128909500Y-96823000D01*
X128909500Y-97077000D01*
X128889500Y-97077000D01*
X128889500Y-97097000D01*
X128635500Y-97097000D01*
X128635500Y-97077000D01*
X128615500Y-97077000D01*
X128615500Y-96823000D01*
X128635500Y-96823000D01*
X128635500Y-96803000D01*
X128889500Y-96803000D01*
X128889500Y-96823000D01*
X128889500Y-96823000D01*
G37*
X128889500Y-96823000D02*
X128909500Y-96823000D01*
X128909500Y-97077000D01*
X128889500Y-97077000D01*
X128889500Y-97097000D01*
X128635500Y-97097000D01*
X128635500Y-97077000D01*
X128615500Y-97077000D01*
X128615500Y-96823000D01*
X128635500Y-96823000D01*
X128635500Y-96803000D01*
X128889500Y-96803000D01*
X128889500Y-96823000D01*
G36*
X149448001Y-94438510D02*
X148738513Y-95148000D01*
X146999059Y-95148000D01*
X146925000Y-95133269D01*
X146850941Y-95148000D01*
X146850937Y-95148000D01*
X146631584Y-95191632D01*
X146382839Y-95357839D01*
X146340886Y-95420626D01*
X145680796Y-96080717D01*
X145680000Y-96080717D01*
X145435357Y-96129380D01*
X145370000Y-96173050D01*
X145304643Y-96129380D01*
X145060000Y-96080717D01*
X145019205Y-96080717D01*
X144359116Y-95420629D01*
X144317161Y-95357839D01*
X144068416Y-95191632D01*
X143849063Y-95148000D01*
X143849059Y-95148000D01*
X143775000Y-95133269D01*
X143700941Y-95148000D01*
X143261488Y-95148000D01*
X143052000Y-94938513D01*
X143052000Y-94844332D01*
X143107067Y-94789265D01*
X143252000Y-94439365D01*
X143252000Y-94152000D01*
X143371010Y-94152000D01*
X143449999Y-94167712D01*
X143528988Y-94152000D01*
X147696011Y-94152000D01*
X147775000Y-94167712D01*
X147853989Y-94152000D01*
X148087925Y-94105467D01*
X148353210Y-93928210D01*
X148397957Y-93861241D01*
X149448001Y-92811198D01*
X149448001Y-94438510D01*
X149448001Y-94438510D01*
G37*
X149448001Y-94438510D02*
X148738513Y-95148000D01*
X146999059Y-95148000D01*
X146925000Y-95133269D01*
X146850941Y-95148000D01*
X146850937Y-95148000D01*
X146631584Y-95191632D01*
X146382839Y-95357839D01*
X146340886Y-95420626D01*
X145680796Y-96080717D01*
X145680000Y-96080717D01*
X145435357Y-96129380D01*
X145370000Y-96173050D01*
X145304643Y-96129380D01*
X145060000Y-96080717D01*
X145019205Y-96080717D01*
X144359116Y-95420629D01*
X144317161Y-95357839D01*
X144068416Y-95191632D01*
X143849063Y-95148000D01*
X143849059Y-95148000D01*
X143775000Y-95133269D01*
X143700941Y-95148000D01*
X143261488Y-95148000D01*
X143052000Y-94938513D01*
X143052000Y-94844332D01*
X143107067Y-94789265D01*
X143252000Y-94439365D01*
X143252000Y-94152000D01*
X143371010Y-94152000D01*
X143449999Y-94167712D01*
X143528988Y-94152000D01*
X147696011Y-94152000D01*
X147775000Y-94167712D01*
X147853989Y-94152000D01*
X148087925Y-94105467D01*
X148353210Y-93928210D01*
X148397957Y-93861241D01*
X149448001Y-92811198D01*
X149448001Y-94438510D01*
G36*
X138627000Y-95285500D02*
X138647000Y-95285500D01*
X138647000Y-95539500D01*
X138627000Y-95539500D01*
X138627000Y-95559500D01*
X138373000Y-95559500D01*
X138373000Y-95539500D01*
X138353000Y-95539500D01*
X138353000Y-95285500D01*
X138373000Y-95285500D01*
X138373000Y-95265500D01*
X138627000Y-95265500D01*
X138627000Y-95285500D01*
X138627000Y-95285500D01*
G37*
X138627000Y-95285500D02*
X138647000Y-95285500D01*
X138647000Y-95539500D01*
X138627000Y-95539500D01*
X138627000Y-95559500D01*
X138373000Y-95559500D01*
X138373000Y-95539500D01*
X138353000Y-95539500D01*
X138353000Y-95285500D01*
X138373000Y-95285500D01*
X138373000Y-95265500D01*
X138627000Y-95265500D01*
X138627000Y-95285500D01*
G36*
X132523315Y-93074976D02*
X133011043Y-93277000D01*
X133538957Y-93277000D01*
X133748000Y-93190411D01*
X133748001Y-94485717D01*
X132420000Y-94485717D01*
X132175357Y-94534380D01*
X131967959Y-94672959D01*
X131951227Y-94698000D01*
X131939283Y-94698000D01*
X131939283Y-93750000D01*
X131890620Y-93505357D01*
X131752041Y-93297959D01*
X131605435Y-93200000D01*
X131752041Y-93102041D01*
X131890620Y-92894643D01*
X131918994Y-92752000D01*
X132200339Y-92752000D01*
X132523315Y-93074976D01*
X132523315Y-93074976D01*
G37*
X132523315Y-93074976D02*
X133011043Y-93277000D01*
X133538957Y-93277000D01*
X133748000Y-93190411D01*
X133748001Y-94485717D01*
X132420000Y-94485717D01*
X132175357Y-94534380D01*
X131967959Y-94672959D01*
X131951227Y-94698000D01*
X131939283Y-94698000D01*
X131939283Y-93750000D01*
X131890620Y-93505357D01*
X131752041Y-93297959D01*
X131605435Y-93200000D01*
X131752041Y-93102041D01*
X131890620Y-92894643D01*
X131918994Y-92752000D01*
X132200339Y-92752000D01*
X132523315Y-93074976D01*
G36*
X141008697Y-72133703D02*
X140894064Y-72710000D01*
X140904307Y-72761494D01*
X140176259Y-73489543D01*
X140109290Y-73534290D01*
X139948549Y-73774858D01*
X139932033Y-73799576D01*
X139869788Y-74112500D01*
X139885500Y-74191489D01*
X139885501Y-90638465D01*
X139780357Y-90659380D01*
X139752840Y-90677766D01*
X139601309Y-90615000D01*
X139098250Y-90615000D01*
X138939500Y-90773750D01*
X138939500Y-91823000D01*
X138959500Y-91823000D01*
X138959500Y-92077000D01*
X138939500Y-92077000D01*
X138939500Y-93126250D01*
X139098250Y-93285000D01*
X139601309Y-93285000D01*
X139752840Y-93222234D01*
X139780357Y-93240620D01*
X140025000Y-93289283D01*
X140194365Y-93289283D01*
X140192632Y-93298000D01*
X137628988Y-93298000D01*
X137549999Y-93282288D01*
X137389151Y-93314283D01*
X137237075Y-93344533D01*
X136971790Y-93521790D01*
X136927044Y-93588757D01*
X136917801Y-93598000D01*
X135994332Y-93598000D01*
X135989265Y-93592933D01*
X135639365Y-93448000D01*
X135352000Y-93448000D01*
X135352000Y-93210900D01*
X135684304Y-93277000D01*
X135945696Y-93277000D01*
X136332770Y-93200006D01*
X136771713Y-92906713D01*
X137065006Y-92467770D01*
X137111157Y-92235750D01*
X137515000Y-92235750D01*
X137515000Y-92776310D01*
X137611673Y-93009699D01*
X137790302Y-93188327D01*
X138023691Y-93285000D01*
X138526750Y-93285000D01*
X138685500Y-93126250D01*
X138685500Y-92077000D01*
X137673750Y-92077000D01*
X137515000Y-92235750D01*
X137111157Y-92235750D01*
X137167997Y-91950000D01*
X137065006Y-91432230D01*
X136858846Y-91123690D01*
X137515000Y-91123690D01*
X137515000Y-91664250D01*
X137673750Y-91823000D01*
X138685500Y-91823000D01*
X138685500Y-90773750D01*
X138526750Y-90615000D01*
X138023691Y-90615000D01*
X137790302Y-90711673D01*
X137611673Y-90890301D01*
X137515000Y-91123690D01*
X136858846Y-91123690D01*
X136771713Y-90993287D01*
X136332770Y-90699994D01*
X135945696Y-90623000D01*
X135684304Y-90623000D01*
X135317193Y-90696023D01*
X135305467Y-90637075D01*
X135296062Y-90623000D01*
X135128210Y-90371790D01*
X135061244Y-90327045D01*
X132810457Y-88076259D01*
X132765710Y-88009290D01*
X132500425Y-87832033D01*
X132266489Y-87785500D01*
X132187500Y-87769788D01*
X132108511Y-87785500D01*
X131352000Y-87785500D01*
X131352000Y-76793994D01*
X131494643Y-76765620D01*
X131702041Y-76627041D01*
X131751192Y-76553481D01*
X131759380Y-76594643D01*
X131897959Y-76802041D01*
X132105357Y-76940620D01*
X132165617Y-76952607D01*
X132242933Y-77139265D01*
X132510735Y-77407067D01*
X132860635Y-77552000D01*
X133239365Y-77552000D01*
X133589265Y-77407067D01*
X133857067Y-77139265D01*
X133934383Y-76952607D01*
X133994643Y-76940620D01*
X134202041Y-76802041D01*
X134293331Y-76665416D01*
X134311673Y-76709698D01*
X134490301Y-76888327D01*
X134723690Y-76985000D01*
X135264250Y-76985000D01*
X135423000Y-76826250D01*
X135423000Y-75814500D01*
X135403000Y-75814500D01*
X135403000Y-75560500D01*
X135423000Y-75560500D01*
X135423000Y-75540500D01*
X135677000Y-75540500D01*
X135677000Y-75560500D01*
X135697000Y-75560500D01*
X135697000Y-75814500D01*
X135677000Y-75814500D01*
X135677000Y-76826250D01*
X135835750Y-76985000D01*
X136376310Y-76985000D01*
X136609699Y-76888327D01*
X136788327Y-76709698D01*
X136851417Y-76557386D01*
X136897959Y-76627041D01*
X137105357Y-76765620D01*
X137350000Y-76814283D01*
X138061875Y-76814283D01*
X138092933Y-76889265D01*
X138360735Y-77157067D01*
X138710635Y-77302000D01*
X139089365Y-77302000D01*
X139439265Y-77157067D01*
X139707067Y-76889265D01*
X139852000Y-76539365D01*
X139852000Y-76160635D01*
X139707067Y-75810735D01*
X139439265Y-75542933D01*
X139389283Y-75522230D01*
X139389283Y-75025000D01*
X139340620Y-74780357D01*
X139320336Y-74750000D01*
X139340620Y-74719643D01*
X139389283Y-74475000D01*
X139389283Y-73325000D01*
X139340620Y-73080357D01*
X139202041Y-72872959D01*
X138994643Y-72734380D01*
X138750000Y-72685717D01*
X137350000Y-72685717D01*
X137105357Y-72734380D01*
X136897959Y-72872959D01*
X136848808Y-72946519D01*
X136840620Y-72905357D01*
X136702041Y-72697959D01*
X136494643Y-72559380D01*
X136250000Y-72510717D01*
X134850000Y-72510717D01*
X134605357Y-72559380D01*
X134397959Y-72697959D01*
X134300000Y-72844565D01*
X134202041Y-72697959D01*
X133994643Y-72559380D01*
X133750000Y-72510717D01*
X132350000Y-72510717D01*
X132105357Y-72559380D01*
X131897959Y-72697959D01*
X131759380Y-72905357D01*
X131751192Y-72946519D01*
X131702041Y-72872959D01*
X131494643Y-72734380D01*
X131250000Y-72685717D01*
X129850000Y-72685717D01*
X129605357Y-72734380D01*
X129397959Y-72872959D01*
X129259380Y-73080357D01*
X129210717Y-73325000D01*
X129210717Y-74475000D01*
X129259380Y-74719643D01*
X129279664Y-74750000D01*
X129259380Y-74780357D01*
X129210717Y-75025000D01*
X129210717Y-76175000D01*
X129259380Y-76419643D01*
X129397959Y-76627041D01*
X129605357Y-76765620D01*
X129748000Y-76793994D01*
X129748001Y-87785500D01*
X113339283Y-87785500D01*
X113339283Y-86925000D01*
X113290620Y-86680357D01*
X113152041Y-86472959D01*
X112944643Y-86334380D01*
X112700000Y-86285717D01*
X111767000Y-86285717D01*
X111767000Y-84712653D01*
X111968209Y-84578209D01*
X112145467Y-84312924D01*
X112153256Y-84273765D01*
X112360996Y-83962860D01*
X112502793Y-83250000D01*
X112360996Y-82537140D01*
X111957194Y-81932806D01*
X111352860Y-81529004D01*
X110819943Y-81423000D01*
X110460057Y-81423000D01*
X109927140Y-81529004D01*
X109322806Y-81932806D01*
X109202000Y-82113605D01*
X109202000Y-79338150D01*
X109355357Y-79440620D01*
X109600000Y-79489283D01*
X110925000Y-79489283D01*
X111169643Y-79440620D01*
X111197160Y-79422234D01*
X111348691Y-79485000D01*
X111851750Y-79485000D01*
X112010500Y-79326250D01*
X112010500Y-78277000D01*
X112264500Y-78277000D01*
X112264500Y-79326250D01*
X112423250Y-79485000D01*
X112926309Y-79485000D01*
X113159698Y-79388327D01*
X113338327Y-79209699D01*
X113435000Y-78976310D01*
X113435000Y-78435750D01*
X113276250Y-78277000D01*
X112264500Y-78277000D01*
X112010500Y-78277000D01*
X111990500Y-78277000D01*
X111990500Y-78023000D01*
X112010500Y-78023000D01*
X112010500Y-78003000D01*
X112264500Y-78003000D01*
X112264500Y-78023000D01*
X113276250Y-78023000D01*
X113435000Y-77864250D01*
X113435000Y-77643719D01*
X113606584Y-77758368D01*
X113825937Y-77802000D01*
X113825941Y-77802000D01*
X113900000Y-77816731D01*
X113974059Y-77802000D01*
X120255668Y-77802000D01*
X120310735Y-77857067D01*
X120660635Y-78002000D01*
X121039365Y-78002000D01*
X121389265Y-77857067D01*
X121657067Y-77589265D01*
X121802000Y-77239365D01*
X121802000Y-76860635D01*
X121753596Y-76743776D01*
X122017364Y-76480008D01*
X122227000Y-75973902D01*
X122227000Y-75426098D01*
X122017364Y-74919992D01*
X121630008Y-74532636D01*
X121481900Y-74471288D01*
X121623923Y-74412460D01*
X121691912Y-74171517D01*
X120900000Y-73379605D01*
X120108088Y-74171517D01*
X120176077Y-74412460D01*
X120275069Y-74447690D01*
X120069992Y-74532636D01*
X119682636Y-74919992D01*
X119473000Y-75426098D01*
X119473000Y-75973902D01*
X119607246Y-76298000D01*
X116662976Y-76298000D01*
X116735873Y-76225103D01*
X116877000Y-75884392D01*
X116877000Y-75515608D01*
X116735873Y-75174897D01*
X116475103Y-74914127D01*
X116303053Y-74842862D01*
X116290620Y-74780357D01*
X116270336Y-74750000D01*
X116290620Y-74719643D01*
X116339283Y-74475000D01*
X116339283Y-73150000D01*
X116308486Y-72995171D01*
X119502799Y-72995171D01*
X119530770Y-73545448D01*
X119687540Y-73923923D01*
X119928483Y-73991912D01*
X120720395Y-73200000D01*
X121079605Y-73200000D01*
X121871517Y-73991912D01*
X122112460Y-73923923D01*
X122297201Y-73404829D01*
X122269230Y-72854552D01*
X122112460Y-72476077D01*
X121871517Y-72408088D01*
X121079605Y-73200000D01*
X120720395Y-73200000D01*
X119928483Y-72408088D01*
X119687540Y-72476077D01*
X119502799Y-72995171D01*
X116308486Y-72995171D01*
X116290620Y-72905357D01*
X116152041Y-72697959D01*
X115944643Y-72559380D01*
X115700000Y-72510717D01*
X114300000Y-72510717D01*
X114055357Y-72559380D01*
X113847959Y-72697959D01*
X113750000Y-72844565D01*
X113652041Y-72697959D01*
X113444643Y-72559380D01*
X113200000Y-72510717D01*
X111800000Y-72510717D01*
X111555357Y-72559380D01*
X111347959Y-72697959D01*
X111256669Y-72834584D01*
X111238327Y-72790302D01*
X111059699Y-72611673D01*
X110826310Y-72515000D01*
X110285750Y-72515000D01*
X110127000Y-72673750D01*
X110127000Y-73685500D01*
X110147000Y-73685500D01*
X110147000Y-73939500D01*
X110127000Y-73939500D01*
X110127000Y-73959500D01*
X109873000Y-73959500D01*
X109873000Y-73939500D01*
X109853000Y-73939500D01*
X109853000Y-73685500D01*
X109873000Y-73685500D01*
X109873000Y-72673750D01*
X109714250Y-72515000D01*
X109202000Y-72515000D01*
X109202000Y-72228483D01*
X120108088Y-72228483D01*
X120900000Y-73020395D01*
X121691912Y-72228483D01*
X121623923Y-71987540D01*
X121104829Y-71802799D01*
X120554552Y-71830770D01*
X120176077Y-71987540D01*
X120108088Y-72228483D01*
X109202000Y-72228483D01*
X109202000Y-71702000D01*
X141297151Y-71702000D01*
X141008697Y-72133703D01*
X141008697Y-72133703D01*
G37*
X141008697Y-72133703D02*
X140894064Y-72710000D01*
X140904307Y-72761494D01*
X140176259Y-73489543D01*
X140109290Y-73534290D01*
X139948549Y-73774858D01*
X139932033Y-73799576D01*
X139869788Y-74112500D01*
X139885500Y-74191489D01*
X139885501Y-90638465D01*
X139780357Y-90659380D01*
X139752840Y-90677766D01*
X139601309Y-90615000D01*
X139098250Y-90615000D01*
X138939500Y-90773750D01*
X138939500Y-91823000D01*
X138959500Y-91823000D01*
X138959500Y-92077000D01*
X138939500Y-92077000D01*
X138939500Y-93126250D01*
X139098250Y-93285000D01*
X139601309Y-93285000D01*
X139752840Y-93222234D01*
X139780357Y-93240620D01*
X140025000Y-93289283D01*
X140194365Y-93289283D01*
X140192632Y-93298000D01*
X137628988Y-93298000D01*
X137549999Y-93282288D01*
X137389151Y-93314283D01*
X137237075Y-93344533D01*
X136971790Y-93521790D01*
X136927044Y-93588757D01*
X136917801Y-93598000D01*
X135994332Y-93598000D01*
X135989265Y-93592933D01*
X135639365Y-93448000D01*
X135352000Y-93448000D01*
X135352000Y-93210900D01*
X135684304Y-93277000D01*
X135945696Y-93277000D01*
X136332770Y-93200006D01*
X136771713Y-92906713D01*
X137065006Y-92467770D01*
X137111157Y-92235750D01*
X137515000Y-92235750D01*
X137515000Y-92776310D01*
X137611673Y-93009699D01*
X137790302Y-93188327D01*
X138023691Y-93285000D01*
X138526750Y-93285000D01*
X138685500Y-93126250D01*
X138685500Y-92077000D01*
X137673750Y-92077000D01*
X137515000Y-92235750D01*
X137111157Y-92235750D01*
X137167997Y-91950000D01*
X137065006Y-91432230D01*
X136858846Y-91123690D01*
X137515000Y-91123690D01*
X137515000Y-91664250D01*
X137673750Y-91823000D01*
X138685500Y-91823000D01*
X138685500Y-90773750D01*
X138526750Y-90615000D01*
X138023691Y-90615000D01*
X137790302Y-90711673D01*
X137611673Y-90890301D01*
X137515000Y-91123690D01*
X136858846Y-91123690D01*
X136771713Y-90993287D01*
X136332770Y-90699994D01*
X135945696Y-90623000D01*
X135684304Y-90623000D01*
X135317193Y-90696023D01*
X135305467Y-90637075D01*
X135296062Y-90623000D01*
X135128210Y-90371790D01*
X135061244Y-90327045D01*
X132810457Y-88076259D01*
X132765710Y-88009290D01*
X132500425Y-87832033D01*
X132266489Y-87785500D01*
X132187500Y-87769788D01*
X132108511Y-87785500D01*
X131352000Y-87785500D01*
X131352000Y-76793994D01*
X131494643Y-76765620D01*
X131702041Y-76627041D01*
X131751192Y-76553481D01*
X131759380Y-76594643D01*
X131897959Y-76802041D01*
X132105357Y-76940620D01*
X132165617Y-76952607D01*
X132242933Y-77139265D01*
X132510735Y-77407067D01*
X132860635Y-77552000D01*
X133239365Y-77552000D01*
X133589265Y-77407067D01*
X133857067Y-77139265D01*
X133934383Y-76952607D01*
X133994643Y-76940620D01*
X134202041Y-76802041D01*
X134293331Y-76665416D01*
X134311673Y-76709698D01*
X134490301Y-76888327D01*
X134723690Y-76985000D01*
X135264250Y-76985000D01*
X135423000Y-76826250D01*
X135423000Y-75814500D01*
X135403000Y-75814500D01*
X135403000Y-75560500D01*
X135423000Y-75560500D01*
X135423000Y-75540500D01*
X135677000Y-75540500D01*
X135677000Y-75560500D01*
X135697000Y-75560500D01*
X135697000Y-75814500D01*
X135677000Y-75814500D01*
X135677000Y-76826250D01*
X135835750Y-76985000D01*
X136376310Y-76985000D01*
X136609699Y-76888327D01*
X136788327Y-76709698D01*
X136851417Y-76557386D01*
X136897959Y-76627041D01*
X137105357Y-76765620D01*
X137350000Y-76814283D01*
X138061875Y-76814283D01*
X138092933Y-76889265D01*
X138360735Y-77157067D01*
X138710635Y-77302000D01*
X139089365Y-77302000D01*
X139439265Y-77157067D01*
X139707067Y-76889265D01*
X139852000Y-76539365D01*
X139852000Y-76160635D01*
X139707067Y-75810735D01*
X139439265Y-75542933D01*
X139389283Y-75522230D01*
X139389283Y-75025000D01*
X139340620Y-74780357D01*
X139320336Y-74750000D01*
X139340620Y-74719643D01*
X139389283Y-74475000D01*
X139389283Y-73325000D01*
X139340620Y-73080357D01*
X139202041Y-72872959D01*
X138994643Y-72734380D01*
X138750000Y-72685717D01*
X137350000Y-72685717D01*
X137105357Y-72734380D01*
X136897959Y-72872959D01*
X136848808Y-72946519D01*
X136840620Y-72905357D01*
X136702041Y-72697959D01*
X136494643Y-72559380D01*
X136250000Y-72510717D01*
X134850000Y-72510717D01*
X134605357Y-72559380D01*
X134397959Y-72697959D01*
X134300000Y-72844565D01*
X134202041Y-72697959D01*
X133994643Y-72559380D01*
X133750000Y-72510717D01*
X132350000Y-72510717D01*
X132105357Y-72559380D01*
X131897959Y-72697959D01*
X131759380Y-72905357D01*
X131751192Y-72946519D01*
X131702041Y-72872959D01*
X131494643Y-72734380D01*
X131250000Y-72685717D01*
X129850000Y-72685717D01*
X129605357Y-72734380D01*
X129397959Y-72872959D01*
X129259380Y-73080357D01*
X129210717Y-73325000D01*
X129210717Y-74475000D01*
X129259380Y-74719643D01*
X129279664Y-74750000D01*
X129259380Y-74780357D01*
X129210717Y-75025000D01*
X129210717Y-76175000D01*
X129259380Y-76419643D01*
X129397959Y-76627041D01*
X129605357Y-76765620D01*
X129748000Y-76793994D01*
X129748001Y-87785500D01*
X113339283Y-87785500D01*
X113339283Y-86925000D01*
X113290620Y-86680357D01*
X113152041Y-86472959D01*
X112944643Y-86334380D01*
X112700000Y-86285717D01*
X111767000Y-86285717D01*
X111767000Y-84712653D01*
X111968209Y-84578209D01*
X112145467Y-84312924D01*
X112153256Y-84273765D01*
X112360996Y-83962860D01*
X112502793Y-83250000D01*
X112360996Y-82537140D01*
X111957194Y-81932806D01*
X111352860Y-81529004D01*
X110819943Y-81423000D01*
X110460057Y-81423000D01*
X109927140Y-81529004D01*
X109322806Y-81932806D01*
X109202000Y-82113605D01*
X109202000Y-79338150D01*
X109355357Y-79440620D01*
X109600000Y-79489283D01*
X110925000Y-79489283D01*
X111169643Y-79440620D01*
X111197160Y-79422234D01*
X111348691Y-79485000D01*
X111851750Y-79485000D01*
X112010500Y-79326250D01*
X112010500Y-78277000D01*
X112264500Y-78277000D01*
X112264500Y-79326250D01*
X112423250Y-79485000D01*
X112926309Y-79485000D01*
X113159698Y-79388327D01*
X113338327Y-79209699D01*
X113435000Y-78976310D01*
X113435000Y-78435750D01*
X113276250Y-78277000D01*
X112264500Y-78277000D01*
X112010500Y-78277000D01*
X111990500Y-78277000D01*
X111990500Y-78023000D01*
X112010500Y-78023000D01*
X112010500Y-78003000D01*
X112264500Y-78003000D01*
X112264500Y-78023000D01*
X113276250Y-78023000D01*
X113435000Y-77864250D01*
X113435000Y-77643719D01*
X113606584Y-77758368D01*
X113825937Y-77802000D01*
X113825941Y-77802000D01*
X113900000Y-77816731D01*
X113974059Y-77802000D01*
X120255668Y-77802000D01*
X120310735Y-77857067D01*
X120660635Y-78002000D01*
X121039365Y-78002000D01*
X121389265Y-77857067D01*
X121657067Y-77589265D01*
X121802000Y-77239365D01*
X121802000Y-76860635D01*
X121753596Y-76743776D01*
X122017364Y-76480008D01*
X122227000Y-75973902D01*
X122227000Y-75426098D01*
X122017364Y-74919992D01*
X121630008Y-74532636D01*
X121481900Y-74471288D01*
X121623923Y-74412460D01*
X121691912Y-74171517D01*
X120900000Y-73379605D01*
X120108088Y-74171517D01*
X120176077Y-74412460D01*
X120275069Y-74447690D01*
X120069992Y-74532636D01*
X119682636Y-74919992D01*
X119473000Y-75426098D01*
X119473000Y-75973902D01*
X119607246Y-76298000D01*
X116662976Y-76298000D01*
X116735873Y-76225103D01*
X116877000Y-75884392D01*
X116877000Y-75515608D01*
X116735873Y-75174897D01*
X116475103Y-74914127D01*
X116303053Y-74842862D01*
X116290620Y-74780357D01*
X116270336Y-74750000D01*
X116290620Y-74719643D01*
X116339283Y-74475000D01*
X116339283Y-73150000D01*
X116308486Y-72995171D01*
X119502799Y-72995171D01*
X119530770Y-73545448D01*
X119687540Y-73923923D01*
X119928483Y-73991912D01*
X120720395Y-73200000D01*
X121079605Y-73200000D01*
X121871517Y-73991912D01*
X122112460Y-73923923D01*
X122297201Y-73404829D01*
X122269230Y-72854552D01*
X122112460Y-72476077D01*
X121871517Y-72408088D01*
X121079605Y-73200000D01*
X120720395Y-73200000D01*
X119928483Y-72408088D01*
X119687540Y-72476077D01*
X119502799Y-72995171D01*
X116308486Y-72995171D01*
X116290620Y-72905357D01*
X116152041Y-72697959D01*
X115944643Y-72559380D01*
X115700000Y-72510717D01*
X114300000Y-72510717D01*
X114055357Y-72559380D01*
X113847959Y-72697959D01*
X113750000Y-72844565D01*
X113652041Y-72697959D01*
X113444643Y-72559380D01*
X113200000Y-72510717D01*
X111800000Y-72510717D01*
X111555357Y-72559380D01*
X111347959Y-72697959D01*
X111256669Y-72834584D01*
X111238327Y-72790302D01*
X111059699Y-72611673D01*
X110826310Y-72515000D01*
X110285750Y-72515000D01*
X110127000Y-72673750D01*
X110127000Y-73685500D01*
X110147000Y-73685500D01*
X110147000Y-73939500D01*
X110127000Y-73939500D01*
X110127000Y-73959500D01*
X109873000Y-73959500D01*
X109873000Y-73939500D01*
X109853000Y-73939500D01*
X109853000Y-73685500D01*
X109873000Y-73685500D01*
X109873000Y-72673750D01*
X109714250Y-72515000D01*
X109202000Y-72515000D01*
X109202000Y-72228483D01*
X120108088Y-72228483D01*
X120900000Y-73020395D01*
X121691912Y-72228483D01*
X121623923Y-71987540D01*
X121104829Y-71802799D01*
X120554552Y-71830770D01*
X120176077Y-71987540D01*
X120108088Y-72228483D01*
X109202000Y-72228483D01*
X109202000Y-71702000D01*
X141297151Y-71702000D01*
X141008697Y-72133703D01*
G36*
X148988759Y-80077043D02*
X148921790Y-80121790D01*
X148809888Y-80289265D01*
X148744533Y-80387076D01*
X148682288Y-80700000D01*
X148698000Y-80778989D01*
X148698001Y-91292799D01*
X147442802Y-92548000D01*
X144247000Y-92548000D01*
X144247000Y-91726860D01*
X144410000Y-91759283D01*
X145060000Y-91759283D01*
X145304643Y-91710620D01*
X145370000Y-91666950D01*
X145435357Y-91710620D01*
X145680000Y-91759283D01*
X146330000Y-91759283D01*
X146574643Y-91710620D01*
X146640000Y-91666950D01*
X146705357Y-91710620D01*
X146950000Y-91759283D01*
X147600000Y-91759283D01*
X147844643Y-91710620D01*
X148052041Y-91572041D01*
X148190620Y-91364643D01*
X148239283Y-91120000D01*
X148239283Y-89420000D01*
X148212247Y-89284085D01*
X148357067Y-89139265D01*
X148502000Y-88789365D01*
X148502000Y-88410635D01*
X148357067Y-88060735D01*
X148302000Y-88005668D01*
X148302000Y-80344332D01*
X148357067Y-80289265D01*
X148502000Y-79939365D01*
X148502000Y-79560635D01*
X148357067Y-79210735D01*
X148204910Y-79058578D01*
X149161489Y-78102000D01*
X150963801Y-78102000D01*
X148988759Y-80077043D01*
X148988759Y-80077043D01*
G37*
X148988759Y-80077043D02*
X148921790Y-80121790D01*
X148809888Y-80289265D01*
X148744533Y-80387076D01*
X148682288Y-80700000D01*
X148698000Y-80778989D01*
X148698001Y-91292799D01*
X147442802Y-92548000D01*
X144247000Y-92548000D01*
X144247000Y-91726860D01*
X144410000Y-91759283D01*
X145060000Y-91759283D01*
X145304643Y-91710620D01*
X145370000Y-91666950D01*
X145435357Y-91710620D01*
X145680000Y-91759283D01*
X146330000Y-91759283D01*
X146574643Y-91710620D01*
X146640000Y-91666950D01*
X146705357Y-91710620D01*
X146950000Y-91759283D01*
X147600000Y-91759283D01*
X147844643Y-91710620D01*
X148052041Y-91572041D01*
X148190620Y-91364643D01*
X148239283Y-91120000D01*
X148239283Y-89420000D01*
X148212247Y-89284085D01*
X148357067Y-89139265D01*
X148502000Y-88789365D01*
X148502000Y-88410635D01*
X148357067Y-88060735D01*
X148302000Y-88005668D01*
X148302000Y-80344332D01*
X148357067Y-80289265D01*
X148502000Y-79939365D01*
X148502000Y-79560635D01*
X148357067Y-79210735D01*
X148204910Y-79058578D01*
X149161489Y-78102000D01*
X150963801Y-78102000D01*
X148988759Y-80077043D01*
G36*
X143875142Y-76314858D02*
X144363703Y-76641303D01*
X144398001Y-76648125D01*
X144398000Y-80905668D01*
X144342933Y-80960735D01*
X144198000Y-81310635D01*
X144198000Y-81689365D01*
X144342933Y-82039265D01*
X144398000Y-82094332D01*
X144398001Y-88638512D01*
X144235629Y-88800884D01*
X144204691Y-88821556D01*
X144165357Y-88829380D01*
X144100000Y-88873050D01*
X144034643Y-88829380D01*
X143790000Y-88780717D01*
X143140000Y-88780717D01*
X142895357Y-88829380D01*
X142687959Y-88967959D01*
X142549380Y-89175357D01*
X142500717Y-89420000D01*
X142500717Y-91120000D01*
X142549380Y-91364643D01*
X142643000Y-91504756D01*
X142643001Y-92548000D01*
X141989283Y-92548000D01*
X141989283Y-91250000D01*
X141940620Y-91005357D01*
X141802041Y-90797959D01*
X141594643Y-90659380D01*
X141489500Y-90638466D01*
X141489500Y-76727249D01*
X141550000Y-76739283D01*
X143250000Y-76739283D01*
X143494643Y-76690620D01*
X143702041Y-76552041D01*
X143840620Y-76344643D01*
X143853105Y-76281877D01*
X143875142Y-76314858D01*
X143875142Y-76314858D01*
G37*
X143875142Y-76314858D02*
X144363703Y-76641303D01*
X144398001Y-76648125D01*
X144398000Y-80905668D01*
X144342933Y-80960735D01*
X144198000Y-81310635D01*
X144198000Y-81689365D01*
X144342933Y-82039265D01*
X144398000Y-82094332D01*
X144398001Y-88638512D01*
X144235629Y-88800884D01*
X144204691Y-88821556D01*
X144165357Y-88829380D01*
X144100000Y-88873050D01*
X144034643Y-88829380D01*
X143790000Y-88780717D01*
X143140000Y-88780717D01*
X142895357Y-88829380D01*
X142687959Y-88967959D01*
X142549380Y-89175357D01*
X142500717Y-89420000D01*
X142500717Y-91120000D01*
X142549380Y-91364643D01*
X142643000Y-91504756D01*
X142643001Y-92548000D01*
X141989283Y-92548000D01*
X141989283Y-91250000D01*
X141940620Y-91005357D01*
X141802041Y-90797959D01*
X141594643Y-90659380D01*
X141489500Y-90638466D01*
X141489500Y-76727249D01*
X141550000Y-76739283D01*
X143250000Y-76739283D01*
X143494643Y-76690620D01*
X143702041Y-76552041D01*
X143840620Y-76344643D01*
X143853105Y-76281877D01*
X143875142Y-76314858D01*
G36*
X168192547Y-89706035D02*
X168135000Y-89792160D01*
X167929858Y-89485142D01*
X167441297Y-89158697D01*
X167010471Y-89073000D01*
X166719529Y-89073000D01*
X166650265Y-89086778D01*
X165984116Y-88420629D01*
X165942161Y-88357839D01*
X165693416Y-88191632D01*
X165474063Y-88148000D01*
X165474059Y-88148000D01*
X165400000Y-88133269D01*
X165325941Y-88148000D01*
X164261488Y-88148000D01*
X164002000Y-87888512D01*
X164002000Y-85515487D01*
X168192547Y-89706035D01*
X168192547Y-89706035D01*
G37*
X168192547Y-89706035D02*
X168135000Y-89792160D01*
X167929858Y-89485142D01*
X167441297Y-89158697D01*
X167010471Y-89073000D01*
X166719529Y-89073000D01*
X166650265Y-89086778D01*
X165984116Y-88420629D01*
X165942161Y-88357839D01*
X165693416Y-88191632D01*
X165474063Y-88148000D01*
X165474059Y-88148000D01*
X165400000Y-88133269D01*
X165325941Y-88148000D01*
X164261488Y-88148000D01*
X164002000Y-87888512D01*
X164002000Y-85515487D01*
X168192547Y-89706035D01*
G36*
X169880119Y-71723980D02*
X169323980Y-72280119D01*
X169023000Y-73006750D01*
X169023000Y-73793250D01*
X169323980Y-74519881D01*
X169880119Y-75076020D01*
X170606750Y-75377000D01*
X171393250Y-75377000D01*
X172119881Y-75076020D01*
X172676020Y-74519881D01*
X172798001Y-74225393D01*
X172798001Y-77600717D01*
X172120000Y-77600717D01*
X171875357Y-77649380D01*
X171667959Y-77787959D01*
X171576669Y-77924584D01*
X171558327Y-77880302D01*
X171379699Y-77701673D01*
X171146310Y-77605000D01*
X170978750Y-77605000D01*
X170820000Y-77763750D01*
X170820000Y-78465000D01*
X170963000Y-78465000D01*
X170963000Y-78915000D01*
X170820000Y-78915000D01*
X170820000Y-78948000D01*
X170420000Y-78948000D01*
X170420000Y-78915000D01*
X169743750Y-78915000D01*
X169710750Y-78948000D01*
X169674059Y-78948000D01*
X169600000Y-78933269D01*
X169525941Y-78948000D01*
X169525937Y-78948000D01*
X169524947Y-78948197D01*
X169476250Y-78899500D01*
X168427000Y-78899500D01*
X168427000Y-78919500D01*
X168173000Y-78919500D01*
X168173000Y-78899500D01*
X167123750Y-78899500D01*
X166965000Y-79058250D01*
X166965000Y-79561309D01*
X167027766Y-79712840D01*
X167009380Y-79740357D01*
X166960717Y-79985000D01*
X166960717Y-81310000D01*
X167009380Y-81554643D01*
X167147959Y-81762041D01*
X167355357Y-81900620D01*
X167442701Y-81917994D01*
X167492933Y-82039265D01*
X167760735Y-82307067D01*
X168110635Y-82452000D01*
X168489365Y-82452000D01*
X168839265Y-82307067D01*
X169107067Y-82039265D01*
X169157299Y-81917994D01*
X169244643Y-81900620D01*
X169452041Y-81762041D01*
X169590620Y-81554643D01*
X169639283Y-81310000D01*
X169639283Y-80724204D01*
X169911488Y-80452000D01*
X170495279Y-80452000D01*
X170473001Y-80564001D01*
X170473001Y-81793231D01*
X170051144Y-82215088D01*
X169773000Y-82886587D01*
X169773000Y-83613413D01*
X170051144Y-84284912D01*
X170565088Y-84798856D01*
X171236587Y-85077000D01*
X171963413Y-85077000D01*
X172634912Y-84798856D01*
X172798001Y-84635767D01*
X172798000Y-89343584D01*
X172521297Y-89158697D01*
X172090471Y-89073000D01*
X171799529Y-89073000D01*
X171472291Y-89138092D01*
X170672957Y-88338759D01*
X170628210Y-88271790D01*
X170362925Y-88094533D01*
X170128989Y-88048000D01*
X170050000Y-88032288D01*
X169971011Y-88048000D01*
X169882199Y-88048000D01*
X166302000Y-84467802D01*
X166302000Y-77983691D01*
X166965000Y-77983691D01*
X166965000Y-78486750D01*
X167123750Y-78645500D01*
X168173000Y-78645500D01*
X168173000Y-77633750D01*
X168427000Y-77633750D01*
X168427000Y-78645500D01*
X169476250Y-78645500D01*
X169635000Y-78486750D01*
X169635000Y-78356250D01*
X169743750Y-78465000D01*
X170420000Y-78465000D01*
X170420000Y-77763750D01*
X170261250Y-77605000D01*
X170093690Y-77605000D01*
X169860301Y-77701673D01*
X169681673Y-77880302D01*
X169635000Y-77992980D01*
X169635000Y-77983691D01*
X169538327Y-77750302D01*
X169359699Y-77571673D01*
X169126310Y-77475000D01*
X168585750Y-77475000D01*
X168427000Y-77633750D01*
X168173000Y-77633750D01*
X168014250Y-77475000D01*
X167473690Y-77475000D01*
X167240301Y-77571673D01*
X167061673Y-77750302D01*
X166965000Y-77983691D01*
X166302000Y-77983691D01*
X166302000Y-76955043D01*
X166399643Y-76935620D01*
X166607041Y-76797041D01*
X166745620Y-76589643D01*
X166794283Y-76345000D01*
X166794283Y-75745000D01*
X166745620Y-75500357D01*
X166685245Y-75410000D01*
X166745620Y-75319643D01*
X166794283Y-75075000D01*
X166794283Y-74475000D01*
X166745620Y-74230357D01*
X166685245Y-74140000D01*
X166745620Y-74049643D01*
X166794283Y-73805000D01*
X166794283Y-73205000D01*
X166745620Y-72960357D01*
X166685245Y-72870000D01*
X166745620Y-72779643D01*
X166794283Y-72535000D01*
X166794283Y-71935000D01*
X166747936Y-71702000D01*
X169933183Y-71702000D01*
X169880119Y-71723980D01*
X169880119Y-71723980D01*
G37*
X169880119Y-71723980D02*
X169323980Y-72280119D01*
X169023000Y-73006750D01*
X169023000Y-73793250D01*
X169323980Y-74519881D01*
X169880119Y-75076020D01*
X170606750Y-75377000D01*
X171393250Y-75377000D01*
X172119881Y-75076020D01*
X172676020Y-74519881D01*
X172798001Y-74225393D01*
X172798001Y-77600717D01*
X172120000Y-77600717D01*
X171875357Y-77649380D01*
X171667959Y-77787959D01*
X171576669Y-77924584D01*
X171558327Y-77880302D01*
X171379699Y-77701673D01*
X171146310Y-77605000D01*
X170978750Y-77605000D01*
X170820000Y-77763750D01*
X170820000Y-78465000D01*
X170963000Y-78465000D01*
X170963000Y-78915000D01*
X170820000Y-78915000D01*
X170820000Y-78948000D01*
X170420000Y-78948000D01*
X170420000Y-78915000D01*
X169743750Y-78915000D01*
X169710750Y-78948000D01*
X169674059Y-78948000D01*
X169600000Y-78933269D01*
X169525941Y-78948000D01*
X169525937Y-78948000D01*
X169524947Y-78948197D01*
X169476250Y-78899500D01*
X168427000Y-78899500D01*
X168427000Y-78919500D01*
X168173000Y-78919500D01*
X168173000Y-78899500D01*
X167123750Y-78899500D01*
X166965000Y-79058250D01*
X166965000Y-79561309D01*
X167027766Y-79712840D01*
X167009380Y-79740357D01*
X166960717Y-79985000D01*
X166960717Y-81310000D01*
X167009380Y-81554643D01*
X167147959Y-81762041D01*
X167355357Y-81900620D01*
X167442701Y-81917994D01*
X167492933Y-82039265D01*
X167760735Y-82307067D01*
X168110635Y-82452000D01*
X168489365Y-82452000D01*
X168839265Y-82307067D01*
X169107067Y-82039265D01*
X169157299Y-81917994D01*
X169244643Y-81900620D01*
X169452041Y-81762041D01*
X169590620Y-81554643D01*
X169639283Y-81310000D01*
X169639283Y-80724204D01*
X169911488Y-80452000D01*
X170495279Y-80452000D01*
X170473001Y-80564001D01*
X170473001Y-81793231D01*
X170051144Y-82215088D01*
X169773000Y-82886587D01*
X169773000Y-83613413D01*
X170051144Y-84284912D01*
X170565088Y-84798856D01*
X171236587Y-85077000D01*
X171963413Y-85077000D01*
X172634912Y-84798856D01*
X172798001Y-84635767D01*
X172798000Y-89343584D01*
X172521297Y-89158697D01*
X172090471Y-89073000D01*
X171799529Y-89073000D01*
X171472291Y-89138092D01*
X170672957Y-88338759D01*
X170628210Y-88271790D01*
X170362925Y-88094533D01*
X170128989Y-88048000D01*
X170050000Y-88032288D01*
X169971011Y-88048000D01*
X169882199Y-88048000D01*
X166302000Y-84467802D01*
X166302000Y-77983691D01*
X166965000Y-77983691D01*
X166965000Y-78486750D01*
X167123750Y-78645500D01*
X168173000Y-78645500D01*
X168173000Y-77633750D01*
X168427000Y-77633750D01*
X168427000Y-78645500D01*
X169476250Y-78645500D01*
X169635000Y-78486750D01*
X169635000Y-78356250D01*
X169743750Y-78465000D01*
X170420000Y-78465000D01*
X170420000Y-77763750D01*
X170261250Y-77605000D01*
X170093690Y-77605000D01*
X169860301Y-77701673D01*
X169681673Y-77880302D01*
X169635000Y-77992980D01*
X169635000Y-77983691D01*
X169538327Y-77750302D01*
X169359699Y-77571673D01*
X169126310Y-77475000D01*
X168585750Y-77475000D01*
X168427000Y-77633750D01*
X168173000Y-77633750D01*
X168014250Y-77475000D01*
X167473690Y-77475000D01*
X167240301Y-77571673D01*
X167061673Y-77750302D01*
X166965000Y-77983691D01*
X166302000Y-77983691D01*
X166302000Y-76955043D01*
X166399643Y-76935620D01*
X166607041Y-76797041D01*
X166745620Y-76589643D01*
X166794283Y-76345000D01*
X166794283Y-75745000D01*
X166745620Y-75500357D01*
X166685245Y-75410000D01*
X166745620Y-75319643D01*
X166794283Y-75075000D01*
X166794283Y-74475000D01*
X166745620Y-74230357D01*
X166685245Y-74140000D01*
X166745620Y-74049643D01*
X166794283Y-73805000D01*
X166794283Y-73205000D01*
X166745620Y-72960357D01*
X166685245Y-72870000D01*
X166745620Y-72779643D01*
X166794283Y-72535000D01*
X166794283Y-71935000D01*
X166747936Y-71702000D01*
X169933183Y-71702000D01*
X169880119Y-71723980D01*
G36*
X163965717Y-71935000D02*
X163965717Y-71950084D01*
X161988757Y-73927045D01*
X161921791Y-73971790D01*
X161819136Y-74125425D01*
X161744533Y-74237076D01*
X161682288Y-74550000D01*
X161698001Y-74628994D01*
X161698000Y-88073000D01*
X153293989Y-88073000D01*
X153215000Y-88057288D01*
X153136011Y-88073000D01*
X152902075Y-88119533D01*
X152636790Y-88296790D01*
X152592046Y-88363755D01*
X151895084Y-89060717D01*
X150952000Y-89060717D01*
X150952000Y-82332858D01*
X151014265Y-82307067D01*
X151282067Y-82039265D01*
X151427000Y-81689365D01*
X151427000Y-81310635D01*
X151282067Y-80960735D01*
X151014265Y-80692933D01*
X150750514Y-80583684D01*
X152961244Y-78372955D01*
X153028210Y-78328210D01*
X153205467Y-78062925D01*
X153240010Y-77889265D01*
X153267712Y-77750001D01*
X153252000Y-77671012D01*
X153252000Y-77009048D01*
X153344643Y-76990620D01*
X153552041Y-76852041D01*
X153666704Y-76680435D01*
X153747959Y-76802041D01*
X153955357Y-76940620D01*
X154038187Y-76957096D01*
X154092933Y-77089265D01*
X154360735Y-77357067D01*
X154710635Y-77502000D01*
X155089365Y-77502000D01*
X155439265Y-77357067D01*
X155707067Y-77089265D01*
X155761813Y-76957096D01*
X155844643Y-76940620D01*
X156052041Y-76802041D01*
X156150000Y-76655435D01*
X156247959Y-76802041D01*
X156455357Y-76940620D01*
X156700000Y-76989283D01*
X158100000Y-76989283D01*
X158344643Y-76940620D01*
X158552041Y-76802041D01*
X158647696Y-76658884D01*
X158666673Y-76704699D01*
X158845302Y-76883327D01*
X159078691Y-76980000D01*
X159694250Y-76980000D01*
X159853000Y-76821250D01*
X159853000Y-76172000D01*
X160107000Y-76172000D01*
X160107000Y-76821250D01*
X160265750Y-76980000D01*
X160881309Y-76980000D01*
X161114698Y-76883327D01*
X161293327Y-76704699D01*
X161390000Y-76471310D01*
X161390000Y-76330750D01*
X161231250Y-76172000D01*
X160107000Y-76172000D01*
X159853000Y-76172000D01*
X159833000Y-76172000D01*
X159833000Y-75918000D01*
X159853000Y-75918000D01*
X159853000Y-75898000D01*
X160107000Y-75898000D01*
X160107000Y-75918000D01*
X161231250Y-75918000D01*
X161390000Y-75759250D01*
X161390000Y-75618690D01*
X161296550Y-75393082D01*
X161345620Y-75319643D01*
X161394283Y-75075000D01*
X161394283Y-74475000D01*
X161345620Y-74230357D01*
X161285245Y-74140000D01*
X161345620Y-74049643D01*
X161394283Y-73805000D01*
X161394283Y-73205000D01*
X161345620Y-72960357D01*
X161285245Y-72870000D01*
X161345620Y-72779643D01*
X161394283Y-72535000D01*
X161394283Y-71935000D01*
X161347936Y-71702000D01*
X164012064Y-71702000D01*
X163965717Y-71935000D01*
X163965717Y-71935000D01*
G37*
X163965717Y-71935000D02*
X163965717Y-71950084D01*
X161988757Y-73927045D01*
X161921791Y-73971790D01*
X161819136Y-74125425D01*
X161744533Y-74237076D01*
X161682288Y-74550000D01*
X161698001Y-74628994D01*
X161698000Y-88073000D01*
X153293989Y-88073000D01*
X153215000Y-88057288D01*
X153136011Y-88073000D01*
X152902075Y-88119533D01*
X152636790Y-88296790D01*
X152592046Y-88363755D01*
X151895084Y-89060717D01*
X150952000Y-89060717D01*
X150952000Y-82332858D01*
X151014265Y-82307067D01*
X151282067Y-82039265D01*
X151427000Y-81689365D01*
X151427000Y-81310635D01*
X151282067Y-80960735D01*
X151014265Y-80692933D01*
X150750514Y-80583684D01*
X152961244Y-78372955D01*
X153028210Y-78328210D01*
X153205467Y-78062925D01*
X153240010Y-77889265D01*
X153267712Y-77750001D01*
X153252000Y-77671012D01*
X153252000Y-77009048D01*
X153344643Y-76990620D01*
X153552041Y-76852041D01*
X153666704Y-76680435D01*
X153747959Y-76802041D01*
X153955357Y-76940620D01*
X154038187Y-76957096D01*
X154092933Y-77089265D01*
X154360735Y-77357067D01*
X154710635Y-77502000D01*
X155089365Y-77502000D01*
X155439265Y-77357067D01*
X155707067Y-77089265D01*
X155761813Y-76957096D01*
X155844643Y-76940620D01*
X156052041Y-76802041D01*
X156150000Y-76655435D01*
X156247959Y-76802041D01*
X156455357Y-76940620D01*
X156700000Y-76989283D01*
X158100000Y-76989283D01*
X158344643Y-76940620D01*
X158552041Y-76802041D01*
X158647696Y-76658884D01*
X158666673Y-76704699D01*
X158845302Y-76883327D01*
X159078691Y-76980000D01*
X159694250Y-76980000D01*
X159853000Y-76821250D01*
X159853000Y-76172000D01*
X160107000Y-76172000D01*
X160107000Y-76821250D01*
X160265750Y-76980000D01*
X160881309Y-76980000D01*
X161114698Y-76883327D01*
X161293327Y-76704699D01*
X161390000Y-76471310D01*
X161390000Y-76330750D01*
X161231250Y-76172000D01*
X160107000Y-76172000D01*
X159853000Y-76172000D01*
X159833000Y-76172000D01*
X159833000Y-75918000D01*
X159853000Y-75918000D01*
X159853000Y-75898000D01*
X160107000Y-75898000D01*
X160107000Y-75918000D01*
X161231250Y-75918000D01*
X161390000Y-75759250D01*
X161390000Y-75618690D01*
X161296550Y-75393082D01*
X161345620Y-75319643D01*
X161394283Y-75075000D01*
X161394283Y-74475000D01*
X161345620Y-74230357D01*
X161285245Y-74140000D01*
X161345620Y-74049643D01*
X161394283Y-73805000D01*
X161394283Y-73205000D01*
X161345620Y-72960357D01*
X161285245Y-72870000D01*
X161345620Y-72779643D01*
X161394283Y-72535000D01*
X161394283Y-71935000D01*
X161347936Y-71702000D01*
X164012064Y-71702000D01*
X163965717Y-71935000D01*
G36*
X164698000Y-84084513D02*
X164652000Y-84038513D01*
X164652000Y-76984283D01*
X164698001Y-76984283D01*
X164698000Y-84084513D01*
X164698000Y-84084513D01*
G37*
X164698000Y-84084513D02*
X164652000Y-84038513D01*
X164652000Y-76984283D01*
X164698001Y-76984283D01*
X164698000Y-84084513D01*
G36*
X158379432Y-71714148D02*
X158334687Y-71781114D01*
X157605085Y-72510717D01*
X156700000Y-72510717D01*
X156455357Y-72559380D01*
X156247959Y-72697959D01*
X156150000Y-72844565D01*
X156052041Y-72697959D01*
X155844643Y-72559380D01*
X155600000Y-72510717D01*
X154200000Y-72510717D01*
X153955357Y-72559380D01*
X153747959Y-72697959D01*
X153609380Y-72905357D01*
X153560717Y-73150000D01*
X153560717Y-73405083D01*
X152605084Y-74360717D01*
X151775000Y-74360717D01*
X151530357Y-74409380D01*
X151502840Y-74427766D01*
X151351309Y-74365000D01*
X150848250Y-74365000D01*
X150689500Y-74523750D01*
X150689500Y-75573000D01*
X150709500Y-75573000D01*
X150709500Y-75827000D01*
X150689500Y-75827000D01*
X150689500Y-75847000D01*
X150435500Y-75847000D01*
X150435500Y-75827000D01*
X149423750Y-75827000D01*
X149265000Y-75985750D01*
X149265000Y-76526310D01*
X149294695Y-76598000D01*
X148924057Y-76598000D01*
X148849999Y-76583269D01*
X148775941Y-76598000D01*
X148775937Y-76598000D01*
X148556584Y-76641632D01*
X148483269Y-76690620D01*
X148370625Y-76765886D01*
X148370623Y-76765888D01*
X148307839Y-76807839D01*
X148265887Y-76870624D01*
X147477000Y-77659512D01*
X147477000Y-76821593D01*
X147491241Y-76749999D01*
X147486666Y-76727000D01*
X147625471Y-76727000D01*
X148056297Y-76641303D01*
X148544858Y-76314858D01*
X148871303Y-75826297D01*
X148985936Y-75250000D01*
X148911084Y-74873690D01*
X149265000Y-74873690D01*
X149265000Y-75414250D01*
X149423750Y-75573000D01*
X150435500Y-75573000D01*
X150435500Y-74523750D01*
X150276750Y-74365000D01*
X149773691Y-74365000D01*
X149540302Y-74461673D01*
X149361673Y-74640301D01*
X149265000Y-74873690D01*
X148911084Y-74873690D01*
X148871303Y-74673703D01*
X148544858Y-74185142D01*
X148242836Y-73983338D01*
X148246924Y-73981645D01*
X148675183Y-73591358D01*
X148921486Y-73066892D01*
X148800819Y-72837000D01*
X147607000Y-72837000D01*
X147607000Y-72857000D01*
X147353000Y-72857000D01*
X147353000Y-72837000D01*
X147333000Y-72837000D01*
X147333000Y-72583000D01*
X147353000Y-72583000D01*
X147353000Y-72563000D01*
X147607000Y-72563000D01*
X147607000Y-72583000D01*
X148800819Y-72583000D01*
X148921486Y-72353108D01*
X148675183Y-71828642D01*
X148536220Y-71702000D01*
X158397613Y-71702000D01*
X158379432Y-71714148D01*
X158379432Y-71714148D01*
G37*
X158379432Y-71714148D02*
X158334687Y-71781114D01*
X157605085Y-72510717D01*
X156700000Y-72510717D01*
X156455357Y-72559380D01*
X156247959Y-72697959D01*
X156150000Y-72844565D01*
X156052041Y-72697959D01*
X155844643Y-72559380D01*
X155600000Y-72510717D01*
X154200000Y-72510717D01*
X153955357Y-72559380D01*
X153747959Y-72697959D01*
X153609380Y-72905357D01*
X153560717Y-73150000D01*
X153560717Y-73405083D01*
X152605084Y-74360717D01*
X151775000Y-74360717D01*
X151530357Y-74409380D01*
X151502840Y-74427766D01*
X151351309Y-74365000D01*
X150848250Y-74365000D01*
X150689500Y-74523750D01*
X150689500Y-75573000D01*
X150709500Y-75573000D01*
X150709500Y-75827000D01*
X150689500Y-75827000D01*
X150689500Y-75847000D01*
X150435500Y-75847000D01*
X150435500Y-75827000D01*
X149423750Y-75827000D01*
X149265000Y-75985750D01*
X149265000Y-76526310D01*
X149294695Y-76598000D01*
X148924057Y-76598000D01*
X148849999Y-76583269D01*
X148775941Y-76598000D01*
X148775937Y-76598000D01*
X148556584Y-76641632D01*
X148483269Y-76690620D01*
X148370625Y-76765886D01*
X148370623Y-76765888D01*
X148307839Y-76807839D01*
X148265887Y-76870624D01*
X147477000Y-77659512D01*
X147477000Y-76821593D01*
X147491241Y-76749999D01*
X147486666Y-76727000D01*
X147625471Y-76727000D01*
X148056297Y-76641303D01*
X148544858Y-76314858D01*
X148871303Y-75826297D01*
X148985936Y-75250000D01*
X148911084Y-74873690D01*
X149265000Y-74873690D01*
X149265000Y-75414250D01*
X149423750Y-75573000D01*
X150435500Y-75573000D01*
X150435500Y-74523750D01*
X150276750Y-74365000D01*
X149773691Y-74365000D01*
X149540302Y-74461673D01*
X149361673Y-74640301D01*
X149265000Y-74873690D01*
X148911084Y-74873690D01*
X148871303Y-74673703D01*
X148544858Y-74185142D01*
X148242836Y-73983338D01*
X148246924Y-73981645D01*
X148675183Y-73591358D01*
X148921486Y-73066892D01*
X148800819Y-72837000D01*
X147607000Y-72837000D01*
X147607000Y-72857000D01*
X147353000Y-72857000D01*
X147353000Y-72837000D01*
X147333000Y-72837000D01*
X147333000Y-72583000D01*
X147353000Y-72583000D01*
X147353000Y-72563000D01*
X147607000Y-72563000D01*
X147607000Y-72583000D01*
X148800819Y-72583000D01*
X148921486Y-72353108D01*
X148675183Y-71828642D01*
X148536220Y-71702000D01*
X158397613Y-71702000D01*
X158379432Y-71714148D01*
G04 #@! TD*
M02*
